<?xml version="1.0" encoding="UTF-8" standalone="no"?>
<!DOCTYPE svg PUBLIC "-//W3C//DTD SVG 1.1//EN"
 "http://www.w3.org/Graphics/SVG/1.1/DTD/svg11.dtd">
<!-- Generated by graphviz version 2.38.0 (20140413.2041)
 -->
<!-- Title: Extensions Pages: 1 -->
<svg width="242pt" height="64pt"
 viewBox="0.00 0.00 242.00 64.00" xmlns="http://www.w3.org/2000/svg" xmlns:xlink="http://www.w3.org/1999/xlink">
<g id="graph0" class="graph" transform="scale(1 1) rotate(0) translate(4 60)">
<title>Extensions</title>
<polygon fill="white" stroke="none" points="-4,4 -4,-60 238,-60 238,4 -4,4"/>
<!-- Node2 -->
<g id="node1" class="node"><title>Node2</title>
<g id="a_node1"><a xlink:href="a01435.html" target="_top" xlink:title="Policy&#45;Based Data Structures">
<polygon fill="white" stroke="black" points="98,-37.5 98,-55.5 234,-55.5 234,-37.5 98,-37.5"/>
<text text-anchor="middle" x="166" y="-44.3" font-family="Helvetica,sans-Serif" font-size="9.00">Policy&#45;Based Data Structures</text>
</a>
</g>
</g>
<!-- Node1 -->
<g id="node2" class="node"><title>Node1</title>
<g id="a_node2"><a xlink:href="a01393.html" target="_top" xlink:title="SGI">
<polygon fill="white" stroke="black" points="150,-0.5 150,-18.5 182,-18.5 182,-0.5 150,-0.5"/>
<text text-anchor="middle" x="166" y="-7.3" font-family="Helvetica,sans-Serif" font-size="9.00">SGI</text>
</a>
</g>
</g>
<!-- Node0 -->
<g id="node3" class="node"><title>Node0</title>
<polygon fill="#bfbfbf" stroke="black" points="0,-18.5 0,-36.5 62,-36.5 62,-18.5 0,-18.5"/>
<text text-anchor="middle" x="31" y="-25.3" font-family="Helvetica,sans-Serif" font-size="9.00">Extensions</text>
</g>
<!-- Node0&#45;&gt;Node2 -->
<g id="edge2" class="edge"><title>Node0&#45;&gt;Node2</title>
<path fill="none" stroke="black" d="M72.3068,-33.2581C81.6272,-34.5896 91.7647,-36.0378 101.802,-37.4717"/>
<polygon fill="black" stroke="black" points="72.5743,-29.7609 62.1798,-31.8114 71.5843,-36.6905 72.5743,-29.7609"/>
</g>
<!-- Node0&#45;&gt;Node1 -->
<g id="edge1" class="edge"><title>Node0&#45;&gt;Node1</title>
<path fill="none" stroke="black" d="M72.2092,-22.0582C98.3726,-18.5172 131.008,-14.1005 149.78,-11.5599"/>
<polygon fill="black" stroke="black" points="71.62,-18.6059 62.1798,-23.4155 72.5589,-25.5427 71.62,-18.6059"/>
</g>
</g>
</svg>
