<?xml version="1.0" encoding="UTF-8" standalone="no"?>
<!DOCTYPE svg PUBLIC "-//W3C//DTD SVG 1.1//EN"
 "http://www.w3.org/Graphics/SVG/1.1/DTD/svg11.dtd">
<!-- Generated by graphviz version 2.38.0 (20140413.2041)
 -->
<!-- Title: __gnu_parallel::__parallel_sort Pages: 1 -->
<svg width="328pt" height="74pt"
 viewBox="0.00 0.00 328.00 74.00" xmlns="http://www.w3.org/2000/svg" xmlns:xlink="http://www.w3.org/1999/xlink">
<g id="graph0" class="graph" transform="scale(1 1) rotate(0) translate(4 70)">
<title>__gnu_parallel::__parallel_sort</title>
<polygon fill="white" stroke="none" points="-4,4 -4,-70 324,-70 324,4 -4,4"/>
<!-- Node1 -->
<g id="node1" class="node"><title>Node1</title>
<polygon fill="#bfbfbf" stroke="black" points="0,-21.5 0,-39.5 145,-39.5 145,-21.5 0,-21.5"/>
<text text-anchor="middle" x="72.5" y="-28.3" font-family="Helvetica,sans-Serif" font-size="9.00">__gnu_parallel::__parallel_sort</text>
</g>
<!-- Node2 -->
<g id="node2" class="node"><title>Node2</title>
<g id="a_node2"><a xlink:href="a00163.html#a18b32829b31b902699690b750e190e59" target="_top" xlink:title="Find out desired number of threads. ">
<polygon fill="white" stroke="black" points="189.5,-37.5 189.5,-65.5 311.5,-65.5 311.5,-37.5 189.5,-37.5"/>
<text text-anchor="start" x="197.5" y="-54.3" font-family="Helvetica,sans-Serif" font-size="9.00">__gnu_parallel::parallel</text>
<text text-anchor="middle" x="250.5" y="-44.3" font-family="Helvetica,sans-Serif" font-size="9.00">_tag::__get_num_threads</text>
</a>
</g>
</g>
<!-- Node1&#45;&gt;Node2 -->
<g id="edge1" class="edge"><title>Node1&#45;&gt;Node2</title>
<path fill="none" stroke="midnightblue" d="M145.086,-39.0415C156.307,-40.3804 167.897,-41.7633 179.091,-43.099"/>
<polygon fill="midnightblue" stroke="midnightblue" points="178.894,-46.6002 189.239,-44.3097 179.724,-39.6495 178.894,-46.6002"/>
</g>
<!-- Node3 -->
<g id="node3" class="node"><title>Node3</title>
<g id="a_node3"><a xlink:href="a00146.html#abc4965eacae0b49945ebc887cb11adc1" target="_top" xlink:title="Get the global settings. ">
<polygon fill="white" stroke="black" points="181,-0.5 181,-18.5 320,-18.5 320,-0.5 181,-0.5"/>
<text text-anchor="middle" x="250.5" y="-7.3" font-family="Helvetica,sans-Serif" font-size="9.00">__gnu_parallel::_Settings::get</text>
</a>
</g>
</g>
<!-- Node1&#45;&gt;Node3 -->
<g id="edge2" class="edge"><title>Node1&#45;&gt;Node3</title>
<path fill="none" stroke="midnightblue" d="M145.086,-21.9585C153.568,-20.9464 162.261,-19.9092 170.834,-18.8863"/>
<polygon fill="midnightblue" stroke="midnightblue" points="171.309,-22.3545 180.824,-17.6943 170.479,-15.4038 171.309,-22.3545"/>
</g>
</g>
</svg>
