<?xml version="1.0" encoding="UTF-8" standalone="no"?>
<!DOCTYPE svg PUBLIC "-//W3C//DTD SVG 1.1//EN"
 "http://www.w3.org/Graphics/SVG/1.1/DTD/svg11.dtd">
<!-- Generated by graphviz version 2.38.0 (20140413.2041)
 -->
<!-- Title: Unordered Associative Pages: 1 -->
<svg width="373pt" height="37pt"
 viewBox="0.00 0.00 373.00 37.00" xmlns="http://www.w3.org/2000/svg" xmlns:xlink="http://www.w3.org/1999/xlink">
<g id="graph0" class="graph" transform="scale(1 1) rotate(0) translate(4 33)">
<title>Unordered Associative</title>
<polygon fill="white" stroke="none" points="-4,4 -4,-33 369,-33 369,4 -4,4"/>
<!-- Node2 -->
<g id="node1" class="node"><title>Node2</title>
<g id="a_node1"><a xlink:href="a01408.html" target="_top" xlink:title="Base and Implementation\l Classes">
<polygon fill="white" stroke="black" points="244,-0.5 244,-28.5 365,-28.5 365,-0.5 244,-0.5"/>
<text text-anchor="start" x="252" y="-17.3" font-family="Helvetica,sans-Serif" font-size="9.00">Base and Implementation</text>
<text text-anchor="middle" x="304.5" y="-7.3" font-family="Helvetica,sans-Serif" font-size="9.00"> Classes</text>
</a>
</g>
</g>
<!-- Node1 -->
<g id="node2" class="node"><title>Node1</title>
<g id="a_node2"><a xlink:href="a01394.html" target="_top" xlink:title="Containers">
<polygon fill="white" stroke="black" points="0,-5.5 0,-23.5 62,-23.5 62,-5.5 0,-5.5"/>
<text text-anchor="middle" x="31" y="-12.3" font-family="Helvetica,sans-Serif" font-size="9.00">Containers</text>
</a>
</g>
</g>
<!-- Node0 -->
<g id="node3" class="node"><title>Node0</title>
<polygon fill="#bfbfbf" stroke="black" points="98,-5.5 98,-23.5 208,-23.5 208,-5.5 98,-5.5"/>
<text text-anchor="middle" x="153" y="-12.3" font-family="Helvetica,sans-Serif" font-size="9.00">Unordered Associative</text>
</g>
<!-- Node1&#45;&gt;Node0 -->
<g id="edge1" class="edge"><title>Node1&#45;&gt;Node0</title>
<path fill="none" stroke="black" d="M72.3309,-14.5C80.5408,-14.5 89.3031,-14.5 97.9021,-14.5"/>
<polygon fill="black" stroke="black" points="72.2811,-11.0001 62.2811,-14.5 72.281,-18.0001 72.2811,-11.0001"/>
</g>
<!-- Node0&#45;&gt;Node2 -->
<g id="edge2" class="edge"><title>Node0&#45;&gt;Node2</title>
<path fill="none" stroke="black" d="M218.533,-14.5C226.939,-14.5 235.52,-14.5 243.841,-14.5"/>
<polygon fill="black" stroke="black" points="218.396,-11.0001 208.396,-14.5 218.396,-18.0001 218.396,-11.0001"/>
</g>
</g>
</svg>
