<?xml version="1.0" encoding="UTF-8" standalone="no"?>
<!DOCTYPE svg PUBLIC "-//W3C//DTD SVG 1.1//EN"
 "http://www.w3.org/Graphics/SVG/1.1/DTD/svg11.dtd">
<!-- Generated by graphviz version 2.38.0 (20140413.2041)
 -->
<!-- Title: __gnu_parallel::__parallel_sort Pages: 1 -->
<svg width="966pt" height="272pt"
 viewBox="0.00 0.00 966.00 272.00" xmlns="http://www.w3.org/2000/svg" xmlns:xlink="http://www.w3.org/1999/xlink">
<g id="graph0" class="graph" transform="scale(1 1) rotate(0) translate(4 268)">
<title>__gnu_parallel::__parallel_sort</title>
<polygon fill="white" stroke="none" points="-4,4 -4,-268 962,-268 962,4 -4,4"/>
<!-- Node1 -->
<g id="node1" class="node"><title>Node1</title>
<polygon fill="#bfbfbf" stroke="black" points="0,-216.5 0,-234.5 145,-234.5 145,-216.5 0,-216.5"/>
<text text-anchor="middle" x="72.5" y="-223.3" font-family="Helvetica,sans-Serif" font-size="9.00">__gnu_parallel::__parallel_sort</text>
</g>
<!-- Node2 -->
<g id="node2" class="node"><title>Node2</title>
<g id="a_node2"><a xlink:href="a00163.html#a18b32829b31b902699690b750e190e59" target="_top" xlink:title="Find out desired number of threads. ">
<polygon fill="white" stroke="black" points="182.5,-235.5 182.5,-263.5 304.5,-263.5 304.5,-235.5 182.5,-235.5"/>
<text text-anchor="start" x="190.5" y="-252.3" font-family="Helvetica,sans-Serif" font-size="9.00">__gnu_parallel::parallel</text>
<text text-anchor="middle" x="243.5" y="-242.3" font-family="Helvetica,sans-Serif" font-size="9.00">_tag::__get_num_threads</text>
</a>
</g>
</g>
<!-- Node1&#45;&gt;Node2 -->
<g id="edge1" class="edge"><title>Node1&#45;&gt;Node2</title>
<path fill="none" stroke="midnightblue" d="M136.91,-234.505C148.428,-236.141 160.505,-237.856 172.207,-239.518"/>
<polygon fill="midnightblue" stroke="midnightblue" points="171.979,-243.02 182.371,-240.961 172.963,-236.09 171.979,-243.02"/>
</g>
<!-- Node3 -->
<g id="node3" class="node"><title>Node3</title>
<g id="a_node3"><a xlink:href="a01372.html#a4093dd098b32542e3d3f43ebd4c6f940" target="_top" xlink:title="Top&#45;level quicksort routine. ">
<polygon fill="white" stroke="black" points="181,-188.5 181,-216.5 306,-216.5 306,-188.5 181,-188.5"/>
<text text-anchor="start" x="189" y="-205.3" font-family="Helvetica,sans-Serif" font-size="9.00">__gnu_parallel::__parallel</text>
<text text-anchor="middle" x="243.5" y="-195.3" font-family="Helvetica,sans-Serif" font-size="9.00">_sort_qsb</text>
</a>
</g>
</g>
<!-- Node1&#45;&gt;Node3 -->
<g id="edge2" class="edge"><title>Node1&#45;&gt;Node3</title>
<path fill="none" stroke="midnightblue" d="M139.808,-216.476C149.934,-215.098 160.426,-213.67 170.664,-212.277"/>
<polygon fill="midnightblue" stroke="midnightblue" points="171.357,-215.714 180.794,-210.898 170.413,-208.778 171.357,-215.714"/>
</g>
<!-- Node4 -->
<g id="node4" class="node"><title>Node4</title>
<g id="a_node4"><a xlink:href="a01372.html#ae8e1f6dc07de01f28bf591339cf8aa9c" target="_top" xlink:title="Calculates the rounded&#45;down logarithm of __n for base 2. ">
<polygon fill="white" stroke="black" points="342,-231.5 342,-249.5 467,-249.5 467,-231.5 342,-231.5"/>
<text text-anchor="middle" x="404.5" y="-238.3" font-family="Helvetica,sans-Serif" font-size="9.00">__gnu_parallel::__rd_log2</text>
</a>
</g>
</g>
<!-- Node3&#45;&gt;Node4 -->
<g id="edge3" class="edge"><title>Node3&#45;&gt;Node4</title>
<path fill="none" stroke="midnightblue" d="M303.254,-216.542C320.543,-220.674 339.24,-225.142 355.75,-229.088"/>
<polygon fill="midnightblue" stroke="midnightblue" points="355.176,-232.549 365.715,-231.47 356.803,-225.741 355.176,-232.549"/>
</g>
<!-- Node5 -->
<g id="node5" class="node"><title>Node5</title>
<g id="a_node5"><a xlink:href="a01442.html#ga0409e288f07b697cb6885d1002df0bd6" target="_top" xlink:title="A convenience wrapper for creating a pair from two objects. ">
<polygon fill="white" stroke="black" points="682,-193.5 682,-211.5 759,-211.5 759,-193.5 682,-193.5"/>
<text text-anchor="middle" x="720.5" y="-200.3" font-family="Helvetica,sans-Serif" font-size="9.00">std::make_pair</text>
</a>
</g>
</g>
<!-- Node3&#45;&gt;Node5 -->
<g id="edge4" class="edge"><title>Node3&#45;&gt;Node5</title>
<path fill="none" stroke="midnightblue" d="M306.111,-202.5C401.995,-202.5 584.895,-202.5 671.609,-202.5"/>
<polygon fill="midnightblue" stroke="midnightblue" points="671.695,-206 681.695,-202.5 671.695,-199 671.695,-206"/>
</g>
<!-- Node6 -->
<g id="node6" class="node"><title>Node6</title>
<g id="a_node6"><a xlink:href="a01372.html#a8d9c5686c4621822c7c3cdd015f7e693" target="_top" xlink:title="Quicksort conquer step. ">
<polygon fill="white" stroke="black" points="350,-145.5 350,-173.5 459,-173.5 459,-145.5 350,-145.5"/>
<text text-anchor="start" x="358" y="-162.3" font-family="Helvetica,sans-Serif" font-size="9.00">__gnu_parallel::__qsb</text>
<text text-anchor="middle" x="404.5" y="-152.3" font-family="Helvetica,sans-Serif" font-size="9.00">_conquer</text>
</a>
</g>
</g>
<!-- Node3&#45;&gt;Node6 -->
<g id="edge5" class="edge"><title>Node3&#45;&gt;Node6</title>
<path fill="none" stroke="midnightblue" d="M296.563,-188.42C311.05,-184.502 326.923,-180.21 341.902,-176.159"/>
<polygon fill="midnightblue" stroke="midnightblue" points="342.853,-179.527 351.592,-173.538 341.025,-172.77 342.853,-179.527"/>
</g>
<!-- Node7 -->
<g id="node7" class="node"><title>Node7</title>
<g id="a_node7"><a xlink:href="a01372.html#a7565d258aacb02328cef6eb2781ab711" target="_top" xlink:title="Quicksort step doing load&#45;balanced local sort. ">
<polygon fill="white" stroke="black" points="503,-145.5 503,-173.5 622,-173.5 622,-145.5 503,-145.5"/>
<text text-anchor="start" x="511" y="-162.3" font-family="Helvetica,sans-Serif" font-size="9.00">__gnu_parallel::__qsb</text>
<text text-anchor="middle" x="562.5" y="-152.3" font-family="Helvetica,sans-Serif" font-size="9.00">_local_sort_with_helping</text>
</a>
</g>
</g>
<!-- Node6&#45;&gt;Node7 -->
<g id="edge6" class="edge"><title>Node6&#45;&gt;Node7</title>
<path fill="none" stroke="midnightblue" d="M459.186,-159.5C469.983,-159.5 481.47,-159.5 492.699,-159.5"/>
<polygon fill="midnightblue" stroke="midnightblue" points="492.912,-163 502.912,-159.5 492.912,-156 492.912,-163"/>
</g>
<!-- Node10 -->
<g id="node10" class="node"><title>Node10</title>
<g id="a_node10"><a xlink:href="a01372.html#afc19882fd22d39e54475d41fd981ac49" target="_top" xlink:title="Balanced quicksort divide step. ">
<polygon fill="white" stroke="black" points="508,-70.5 508,-98.5 617,-98.5 617,-70.5 508,-70.5"/>
<text text-anchor="start" x="516" y="-87.3" font-family="Helvetica,sans-Serif" font-size="9.00">__gnu_parallel::__qsb</text>
<text text-anchor="middle" x="562.5" y="-77.3" font-family="Helvetica,sans-Serif" font-size="9.00">_divide</text>
</a>
</g>
</g>
<!-- Node6&#45;&gt;Node10 -->
<g id="edge10" class="edge"><title>Node6&#45;&gt;Node10</title>
<path fill="none" stroke="midnightblue" d="M434.842,-145.393C459.791,-133.398 495.798,-116.088 523.048,-102.986"/>
<polygon fill="midnightblue" stroke="midnightblue" points="524.793,-106.031 532.289,-98.5437 521.76,-99.7223 524.793,-106.031"/>
</g>
<!-- Node7&#45;&gt;Node5 -->
<g id="edge8" class="edge"><title>Node7&#45;&gt;Node5</title>
<path fill="none" stroke="midnightblue" d="M614.58,-173.58C634.708,-179.128 657.562,-185.427 676.791,-190.728"/>
<polygon fill="midnightblue" stroke="midnightblue" points="675.911,-194.116 686.482,-193.399 677.772,-187.367 675.911,-194.116"/>
</g>
<!-- Node8 -->
<g id="node8" class="node"><title>Node8</title>
<g id="a_node8"><a xlink:href="a00146.html#abc4965eacae0b49945ebc887cb11adc1" target="_top" xlink:title="Get the global settings. ">
<polygon fill="white" stroke="black" points="819,-124.5 819,-142.5 958,-142.5 958,-124.5 819,-124.5"/>
<text text-anchor="middle" x="888.5" y="-131.3" font-family="Helvetica,sans-Serif" font-size="9.00">__gnu_parallel::_Settings::get</text>
</a>
</g>
</g>
<!-- Node7&#45;&gt;Node8 -->
<g id="edge7" class="edge"><title>Node7&#45;&gt;Node8</title>
<path fill="none" stroke="midnightblue" d="M622.239,-156.072C666.47,-153.349 728.583,-149.222 783,-144.5 791.36,-143.775 800.09,-142.955 808.787,-142.098"/>
<polygon fill="midnightblue" stroke="midnightblue" points="809.355,-145.558 818.956,-141.078 808.657,-138.593 809.355,-145.558"/>
</g>
<!-- Node9 -->
<g id="node9" class="node"><title>Node9</title>
<g id="a_node9"><a xlink:href="a01372.html#aaa76236af73146ae89f726921bc3f2cb" target="_top" xlink:title="Yield control to another thread, without waiting for the end of the time slice. ">
<polygon fill="white" stroke="black" points="664,-117.5 664,-135.5 777,-135.5 777,-117.5 664,-117.5"/>
<text text-anchor="middle" x="720.5" y="-124.3" font-family="Helvetica,sans-Serif" font-size="9.00">__gnu_parallel::__yield</text>
</a>
</g>
</g>
<!-- Node7&#45;&gt;Node9 -->
<g id="edge9" class="edge"><title>Node7&#45;&gt;Node9</title>
<path fill="none" stroke="midnightblue" d="M622.032,-147.118C636.642,-144.028 652.225,-140.731 666.548,-137.701"/>
<polygon fill="midnightblue" stroke="midnightblue" points="667.663,-141.043 676.722,-135.549 666.215,-134.195 667.663,-141.043"/>
</g>
<!-- Node11 -->
<g id="node11" class="node"><title>Node11</title>
<g id="a_node11"><a xlink:href="a01372.html#a74914ea59d68887b517e12c90189dbcd" target="_top" xlink:title="Compute the median of three referenced elements, according to __comp. ">
<polygon fill="white" stroke="black" points="658,-70.5 658,-98.5 783,-98.5 783,-70.5 658,-70.5"/>
<text text-anchor="start" x="666" y="-87.3" font-family="Helvetica,sans-Serif" font-size="9.00">__gnu_parallel::__median</text>
<text text-anchor="middle" x="720.5" y="-77.3" font-family="Helvetica,sans-Serif" font-size="9.00">_of_three_iterators</text>
</a>
</g>
</g>
<!-- Node10&#45;&gt;Node11 -->
<g id="edge11" class="edge"><title>Node10&#45;&gt;Node11</title>
<path fill="none" stroke="midnightblue" d="M617.186,-84.5C627.035,-84.5 637.459,-84.5 647.738,-84.5"/>
<polygon fill="midnightblue" stroke="midnightblue" points="647.941,-88.0001 657.941,-84.5 647.941,-81.0001 647.941,-88.0001"/>
</g>
<!-- Node12 -->
<g id="node12" class="node"><title>Node12</title>
<g id="a_node12"><a xlink:href="a01372.html#aa56788b479955dd136d6af173d2cae0b" target="_top" xlink:title="Parallel implementation of std::partition. ">
<polygon fill="white" stroke="black" points="658,-23.5 658,-51.5 783,-51.5 783,-23.5 658,-23.5"/>
<text text-anchor="start" x="666" y="-40.3" font-family="Helvetica,sans-Serif" font-size="9.00">__gnu_parallel::__parallel</text>
<text text-anchor="middle" x="720.5" y="-30.3" font-family="Helvetica,sans-Serif" font-size="9.00">_partition</text>
</a>
</g>
</g>
<!-- Node10&#45;&gt;Node12 -->
<g id="edge12" class="edge"><title>Node10&#45;&gt;Node12</title>
<path fill="none" stroke="midnightblue" d="M610.305,-70.3985C626.885,-65.4031 645.717,-59.7295 663.017,-54.5174"/>
<polygon fill="midnightblue" stroke="midnightblue" points="664.432,-57.7466 672.997,-51.5106 662.412,-51.0442 664.432,-57.7466"/>
</g>
<!-- Node12&#45;&gt;Node8 -->
<g id="edge15" class="edge"><title>Node12&#45;&gt;Node8</title>
<path fill="none" stroke="midnightblue" d="M763.474,-51.5744C770.131,-54.2665 776.845,-57.2654 783,-60.5 791.706,-65.0749 838.708,-98.4944 866.624,-118.494"/>
<polygon fill="midnightblue" stroke="midnightblue" points="864.778,-121.478 874.944,-124.463 868.859,-115.79 864.778,-121.478"/>
</g>
<!-- Node13 -->
<g id="node13" class="node"><title>Node13</title>
<g id="a_node13"><a xlink:href="a01372.html#accd4441e0f846fee44966195a91e9e68" target="_top" xlink:title="Compare&#45;and&#45;swap. ">
<polygon fill="white" stroke="black" points="823.5,-47.5 823.5,-75.5 953.5,-75.5 953.5,-47.5 823.5,-47.5"/>
<text text-anchor="start" x="831.5" y="-64.3" font-family="Helvetica,sans-Serif" font-size="9.00">__gnu_parallel::__compare</text>
<text text-anchor="middle" x="888.5" y="-54.3" font-family="Helvetica,sans-Serif" font-size="9.00">_and_swap</text>
</a>
</g>
</g>
<!-- Node12&#45;&gt;Node13 -->
<g id="edge13" class="edge"><title>Node12&#45;&gt;Node13</title>
<path fill="none" stroke="midnightblue" d="M783.312,-46.4367C793.129,-47.8561 803.37,-49.3367 813.434,-50.7917"/>
<polygon fill="midnightblue" stroke="midnightblue" points="813.019,-54.2679 823.417,-52.2349 814.02,-47.3399 813.019,-54.2679"/>
</g>
<!-- Node14 -->
<g id="node14" class="node"><title>Node14</title>
<g id="a_node14"><a xlink:href="a01372.html#a56a5a84c8a6049cd3cc83968c6eae088" target="_top" xlink:title="Add a value to a variable, atomically. ">
<polygon fill="white" stroke="black" points="832,-0.5 832,-28.5 945,-28.5 945,-0.5 832,-0.5"/>
<text text-anchor="start" x="840" y="-17.3" font-family="Helvetica,sans-Serif" font-size="9.00">__gnu_parallel::__fetch</text>
<text text-anchor="middle" x="888.5" y="-7.3" font-family="Helvetica,sans-Serif" font-size="9.00">_and_add</text>
</a>
</g>
</g>
<!-- Node12&#45;&gt;Node14 -->
<g id="edge14" class="edge"><title>Node12&#45;&gt;Node14</title>
<path fill="none" stroke="midnightblue" d="M783.312,-28.9356C795.896,-27.1922 809.175,-25.3522 821.885,-23.5912"/>
<polygon fill="midnightblue" stroke="midnightblue" points="822.507,-27.0385 831.932,-22.1991 821.547,-20.1048 822.507,-27.0385"/>
</g>
</g>
</svg>
