<?xml version="1.0" encoding="UTF-8" standalone="no"?>
<!DOCTYPE svg PUBLIC "-//W3C//DTD SVG 1.1//EN"
 "http://www.w3.org/Graphics/SVG/1.1/DTD/svg11.dtd">
<!-- Generated by graphviz version 2.38.0 (20140413.2041)
 -->
<!-- Title: __gnu_parallel::__parallel_sort Pages: 1 -->
<!--zoomable 358 -->
<svg id="main" version="1.1" xmlns="http://www.w3.org/2000/svg" xmlns:xlink="http://www.w3.org/1999/xlink" xml:space="preserve" onload="init(evt)">
<style type="text/css"><![CDATA[
.edge:hover path { stroke: red; }
.edge:hover polygon { stroke: red; fill: red; }
]]></style>
<script type="text/javascript"><![CDATA[
var edges = document.getElementsByTagName('g');
if (edges && edges.length) {
  for (var i=0;i<edges.length;i++) {
    if (edges[i].id.substr(0,4)=='edge') {
      edges[i].setAttribute('class','edge');
    }
  }
}
]]></script>
        <defs>
                <circle id="rim" cx="0" cy="0" r="7"/>
                <circle id="rim2" cx="0" cy="0" r="3.5"/>
                <g id="zoomPlus">
                        <use xlink:href="#rim" fill="#404040">
                                <set attributeName="fill" to="#808080" begin="zoomplus.mouseover" end="zoomplus.mouseout"/>
                        </use>
                        <path d="M-4,0h8M0,-4v8" fill="none" stroke="white" stroke-width="1.5" pointer-events="none"/>
                </g>
                <g id="zoomMin">
                        <use xlink:href="#rim" fill="#404040">
                                <set attributeName="fill" to="#808080" begin="zoomminus.mouseover" end="zoomminus.mouseout"/>
                        </use>
                        <path d="M-4,0h8" fill="none" stroke="white" stroke-width="1.5" pointer-events="none"/>
                </g>
                <g id="dirArrow">
                        <path fill="none" stroke="white" stroke-width="1.5" d="M0,-3.0v7 M-2.5,-0.5L0,-3.0L2.5,-0.5"/>
                </g>
               <g id="resetDef">
                       <use xlink:href="#rim2" fill="#404040">
                               <set attributeName="fill" to="#808080" begin="reset.mouseover" end="reset.mouseout"/>
                       </use>
               </g>
        </defs>

<script type="text/javascript">
var viewWidth = 972;
var viewHeight = 358;
var sectionId = 'dynsection-6';
</script>
<script xlink:href="svgpan.js"/>
<svg id="graph" class="graph">
<g id="viewport">
<title>__gnu_parallel::__parallel_sort</title>
<polygon fill="white" stroke="none" points="-4,4 -4,-354 968,-354 968,4 -4,4"/>
<!-- Node1 -->
<g id="node1" class="node"><title>Node1</title>
<polygon fill="#bfbfbf" stroke="black" points="0,-261.5 0,-279.5 145,-279.5 145,-261.5 0,-261.5"/>
<text text-anchor="middle" x="72.5" y="-268.3" font-family="Helvetica,sans-Serif" font-size="9.00">__gnu_parallel::__parallel_sort</text>
</g>
<!-- Node2 -->
<g id="node2" class="node"><title>Node2</title>
<g id="a_node2"><a xlink:href="a00163.html#a18b32829b31b902699690b750e190e59" target="_top" xlink:title="Find out desired number of threads. ">
<polygon fill="white" stroke="black" points="182.5,-321.5 182.5,-349.5 304.5,-349.5 304.5,-321.5 182.5,-321.5"/>
<text text-anchor="start" x="190.5" y="-338.3" font-family="Helvetica,sans-Serif" font-size="9.00">__gnu_parallel::parallel</text>
<text text-anchor="middle" x="243.5" y="-328.3" font-family="Helvetica,sans-Serif" font-size="9.00">_tag::__get_num_threads</text>
</a>
</g>
</g>
<!-- Node1&#45;&gt;Node2 -->
<g id="edge1" class="edge"><title>Node1&#45;&gt;Node2</title>
<path fill="none" stroke="midnightblue" d="M96.9987,-279.538C122.561,-289.37 164.071,-305.335 196.225,-317.702"/>
<polygon fill="midnightblue" stroke="midnightblue" points="195.285,-321.09 205.875,-321.413 197.798,-314.557 195.285,-321.09"/>
</g>
<!-- Node3 -->
<g id="node3" class="node"><title>Node3</title>
<g id="a_node3"><a xlink:href="a01372.html#ac416a1c7e347b429bbf7a8fb17e847b2" target="_top" xlink:title="Unbalanced quicksort main call. ">
<polygon fill="white" stroke="black" points="181,-235.5 181,-263.5 306,-263.5 306,-235.5 181,-235.5"/>
<text text-anchor="start" x="189" y="-252.3" font-family="Helvetica,sans-Serif" font-size="9.00">__gnu_parallel::__parallel</text>
<text text-anchor="middle" x="243.5" y="-242.3" font-family="Helvetica,sans-Serif" font-size="9.00">_sort_qs</text>
</a>
</g>
</g>
<!-- Node1&#45;&gt;Node3 -->
<g id="edge2" class="edge"><title>Node1&#45;&gt;Node3</title>
<path fill="none" stroke="midnightblue" d="M145.171,-261.594C153.614,-260.545 162.231,-259.474 170.676,-258.425"/>
<polygon fill="midnightblue" stroke="midnightblue" points="171.375,-261.865 180.867,-257.159 170.512,-254.918 171.375,-261.865"/>
</g>
<!-- Node10 -->
<g id="node10" class="node"><title>Node10</title>
<g id="a_node10"><a xlink:href="a00146.html#abc4965eacae0b49945ebc887cb11adc1" target="_top" xlink:title="Get the global settings. ">
<polygon fill="white" stroke="black" points="825,-226.5 825,-244.5 964,-244.5 964,-226.5 825,-226.5"/>
<text text-anchor="middle" x="894.5" y="-233.3" font-family="Helvetica,sans-Serif" font-size="9.00">__gnu_parallel::_Settings::get</text>
</a>
</g>
</g>
<!-- Node1&#45;&gt;Node10 -->
<g id="edge22" class="edge"><title>Node1&#45;&gt;Node10</title>
<path fill="none" stroke="midnightblue" d="M145.185,-278.04C211.969,-284.409 314.357,-292.5 403.5,-292.5 403.5,-292.5 403.5,-292.5 566.5,-292.5 671.036,-292.5 791.615,-263.88 853.011,-247.2"/>
<polygon fill="midnightblue" stroke="midnightblue" points="853.99,-250.561 862.702,-244.532 852.132,-243.812 853.99,-250.561"/>
</g>
<!-- Node11 -->
<g id="node11" class="node"><title>Node11</title>
<g id="a_node11"><a xlink:href="a01372.html#a4093dd098b32542e3d3f43ebd4c6f940" target="_top" xlink:title="Top&#45;level quicksort routine. ">
<polygon fill="white" stroke="black" points="181,-111.5 181,-139.5 306,-139.5 306,-111.5 181,-111.5"/>
<text text-anchor="start" x="189" y="-128.3" font-family="Helvetica,sans-Serif" font-size="9.00">__gnu_parallel::__parallel</text>
<text text-anchor="middle" x="243.5" y="-118.3" font-family="Helvetica,sans-Serif" font-size="9.00">_sort_qsb</text>
</a>
</g>
</g>
<!-- Node1&#45;&gt;Node11 -->
<g id="edge11" class="edge"><title>Node1&#45;&gt;Node11</title>
<path fill="none" stroke="midnightblue" d="M84.0717,-261.43C110.608,-238.662 180.579,-178.627 218.028,-146.497"/>
<polygon fill="midnightblue" stroke="midnightblue" points="220.623,-148.882 225.934,-139.714 216.065,-143.569 220.623,-148.882"/>
</g>
<!-- Node4 -->
<g id="node4" class="node"><title>Node4</title>
<g id="a_node4"><a xlink:href="a01372.html#a06c506308856b684737d24944a93a42e" target="_top" xlink:title="Unbalanced quicksort conquer step. ">
<polygon fill="white" stroke="black" points="342,-235.5 342,-263.5 467,-263.5 467,-235.5 342,-235.5"/>
<text text-anchor="start" x="350" y="-252.3" font-family="Helvetica,sans-Serif" font-size="9.00">__gnu_parallel::__parallel</text>
<text text-anchor="middle" x="404.5" y="-242.3" font-family="Helvetica,sans-Serif" font-size="9.00">_sort_qs_conquer</text>
</a>
</g>
</g>
<!-- Node3&#45;&gt;Node4 -->
<g id="edge3" class="edge"><title>Node3&#45;&gt;Node4</title>
<path fill="none" stroke="midnightblue" d="M306.429,-249.5C314.674,-249.5 323.184,-249.5 331.58,-249.5"/>
<polygon fill="midnightblue" stroke="midnightblue" points="331.74,-253 341.74,-249.5 331.74,-246 331.74,-253"/>
</g>
<!-- Node5 -->
<g id="node5" class="node"><title>Node5</title>
<g id="a_node5"><a xlink:href="a01372.html#a55defa3d8e8ca7b4e52330b9afc0b1ce" target="_top" xlink:title="Unbalanced quicksort divide step. ">
<polygon fill="white" stroke="black" points="503,-197.5 503,-225.5 628,-225.5 628,-197.5 503,-197.5"/>
<text text-anchor="start" x="511" y="-214.3" font-family="Helvetica,sans-Serif" font-size="9.00">__gnu_parallel::__parallel</text>
<text text-anchor="middle" x="565.5" y="-204.3" font-family="Helvetica,sans-Serif" font-size="9.00">_sort_qs_divide</text>
</a>
</g>
</g>
<!-- Node4&#45;&gt;Node5 -->
<g id="edge4" class="edge"><title>Node4&#45;&gt;Node5</title>
<path fill="none" stroke="midnightblue" d="M464.254,-235.458C474.511,-233.007 485.263,-230.437 495.76,-227.928"/>
<polygon fill="midnightblue" stroke="midnightblue" points="496.81,-231.276 505.722,-225.548 495.183,-224.468 496.81,-231.276"/>
</g>
<!-- Node4&#45;&gt;Node10 -->
<g id="edge10" class="edge"><title>Node4&#45;&gt;Node10</title>
<path fill="none" stroke="midnightblue" d="M467.306,-247.727C555.613,-245.193 717.892,-240.538 814.716,-237.76"/>
<polygon fill="midnightblue" stroke="midnightblue" points="814.848,-241.258 824.743,-237.473 814.647,-234.261 814.848,-241.258"/>
</g>
<!-- Node6 -->
<g id="node6" class="node"><title>Node6</title>
<g id="a_node6"><a xlink:href="a01403.html#gad48656de2f272a953455e1fff2532125" target="_top" xlink:title="This does what you think it does. ">
<polygon fill="white" stroke="black" points="702.5,-207.5 702.5,-225.5 750.5,-225.5 750.5,-207.5 702.5,-207.5"/>
<text text-anchor="middle" x="726.5" y="-214.3" font-family="Helvetica,sans-Serif" font-size="9.00">std::min</text>
</a>
</g>
</g>
<!-- Node5&#45;&gt;Node6 -->
<g id="edge5" class="edge"><title>Node5&#45;&gt;Node6</title>
<path fill="none" stroke="midnightblue" d="M628.429,-213.447C650.15,-214.131 673.714,-214.872 692.185,-215.452"/>
<polygon fill="midnightblue" stroke="midnightblue" points="692.315,-218.958 702.42,-215.774 692.535,-211.962 692.315,-218.958"/>
</g>
<!-- Node7 -->
<g id="node7" class="node"><title>Node7</title>
<g id="a_node7"><a xlink:href="a01372.html#aa56788b479955dd136d6af173d2cae0b" target="_top" xlink:title="Parallel implementation of std::partition. ">
<polygon fill="white" stroke="black" points="664,-160.5 664,-188.5 789,-188.5 789,-160.5 664,-160.5"/>
<text text-anchor="start" x="672" y="-177.3" font-family="Helvetica,sans-Serif" font-size="9.00">__gnu_parallel::__parallel</text>
<text text-anchor="middle" x="726.5" y="-167.3" font-family="Helvetica,sans-Serif" font-size="9.00">_partition</text>
</a>
</g>
</g>
<!-- Node5&#45;&gt;Node7 -->
<g id="edge6" class="edge"><title>Node5&#45;&gt;Node7</title>
<path fill="none" stroke="midnightblue" d="M627.065,-197.406C636.314,-195.254 645.926,-193.017 655.36,-190.822"/>
<polygon fill="midnightblue" stroke="midnightblue" points="656.157,-194.23 665.104,-188.554 654.571,-187.412 656.157,-194.23"/>
</g>
<!-- Node8 -->
<g id="node8" class="node"><title>Node8</title>
<g id="a_node8"><a xlink:href="a01372.html#accd4441e0f846fee44966195a91e9e68" target="_top" xlink:title="Compare&#45;and&#45;swap. ">
<polygon fill="white" stroke="black" points="829.5,-170.5 829.5,-198.5 959.5,-198.5 959.5,-170.5 829.5,-170.5"/>
<text text-anchor="start" x="837.5" y="-187.3" font-family="Helvetica,sans-Serif" font-size="9.00">__gnu_parallel::__compare</text>
<text text-anchor="middle" x="894.5" y="-177.3" font-family="Helvetica,sans-Serif" font-size="9.00">_and_swap</text>
</a>
</g>
</g>
<!-- Node7&#45;&gt;Node8 -->
<g id="edge7" class="edge"><title>Node7&#45;&gt;Node8</title>
<path fill="none" stroke="midnightblue" d="M789.312,-178.224C799.129,-178.815 809.37,-179.432 819.434,-180.038"/>
<polygon fill="midnightblue" stroke="midnightblue" points="819.224,-183.532 829.417,-180.64 819.645,-176.544 819.224,-183.532"/>
</g>
<!-- Node9 -->
<g id="node9" class="node"><title>Node9</title>
<g id="a_node9"><a xlink:href="a01372.html#a56a5a84c8a6049cd3cc83968c6eae088" target="_top" xlink:title="Add a value to a variable, atomically. ">
<polygon fill="white" stroke="black" points="838,-123.5 838,-151.5 951,-151.5 951,-123.5 838,-123.5"/>
<text text-anchor="start" x="846" y="-140.3" font-family="Helvetica,sans-Serif" font-size="9.00">__gnu_parallel::__fetch</text>
<text text-anchor="middle" x="894.5" y="-130.3" font-family="Helvetica,sans-Serif" font-size="9.00">_and_add</text>
</a>
</g>
</g>
<!-- Node7&#45;&gt;Node9 -->
<g id="edge8" class="edge"><title>Node7&#45;&gt;Node9</title>
<path fill="none" stroke="midnightblue" d="M789.312,-160.723C801.896,-157.918 815.175,-154.958 827.885,-152.125"/>
<polygon fill="midnightblue" stroke="midnightblue" points="828.933,-155.477 837.932,-149.886 827.41,-148.645 828.933,-155.477"/>
</g>
<!-- Node7&#45;&gt;Node10 -->
<g id="edge9" class="edge"><title>Node7&#45;&gt;Node10</title>
<path fill="none" stroke="midnightblue" d="M766.001,-188.648C794.151,-198.992 831.996,-212.899 859.129,-222.87"/>
<polygon fill="midnightblue" stroke="midnightblue" points="858.01,-226.187 868.603,-226.351 860.424,-219.617 858.01,-226.187"/>
</g>
<!-- Node12 -->
<g id="node12" class="node"><title>Node12</title>
<g id="a_node12"><a xlink:href="a01372.html#ae8e1f6dc07de01f28bf591339cf8aa9c" target="_top" xlink:title="Calculates the rounded&#45;down logarithm of __n for base 2. ">
<polygon fill="white" stroke="black" points="342,-137.5 342,-155.5 467,-155.5 467,-137.5 342,-137.5"/>
<text text-anchor="middle" x="404.5" y="-144.3" font-family="Helvetica,sans-Serif" font-size="9.00">__gnu_parallel::__rd_log2</text>
</a>
</g>
</g>
<!-- Node11&#45;&gt;Node12 -->
<g id="edge12" class="edge"><title>Node11&#45;&gt;Node12</title>
<path fill="none" stroke="midnightblue" d="M306.429,-133.679C314.674,-134.768 323.184,-135.892 331.58,-137.001"/>
<polygon fill="midnightblue" stroke="midnightblue" points="331.368,-140.503 341.74,-138.343 332.285,-133.564 331.368,-140.503"/>
</g>
<!-- Node13 -->
<g id="node13" class="node"><title>Node13</title>
<g id="a_node13"><a xlink:href="a01442.html#ga0409e288f07b697cb6885d1002df0bd6" target="_top" xlink:title="A convenience wrapper for creating a pair from two objects. ">
<polygon fill="white" stroke="black" points="688,-0.5 688,-18.5 765,-18.5 765,-0.5 688,-0.5"/>
<text text-anchor="middle" x="726.5" y="-7.3" font-family="Helvetica,sans-Serif" font-size="9.00">std::make_pair</text>
</a>
</g>
</g>
<!-- Node11&#45;&gt;Node13 -->
<g id="edge13" class="edge"><title>Node11&#45;&gt;Node13</title>
<path fill="none" stroke="midnightblue" d="M270.7,-111.29C289.941,-101.385 316.977,-88.5518 342,-80.5 459.495,-42.693 604.106,-22.7288 677.645,-14.3663"/>
<polygon fill="midnightblue" stroke="midnightblue" points="678.417,-17.802 687.968,-13.2159 677.642,-10.8451 678.417,-17.802"/>
</g>
<!-- Node14 -->
<g id="node14" class="node"><title>Node14</title>
<g id="a_node14"><a xlink:href="a01372.html#a8d9c5686c4621822c7c3cdd015f7e693" target="_top" xlink:title="Quicksort conquer step. ">
<polygon fill="white" stroke="black" points="350,-90.5 350,-118.5 459,-118.5 459,-90.5 350,-90.5"/>
<text text-anchor="start" x="358" y="-107.3" font-family="Helvetica,sans-Serif" font-size="9.00">__gnu_parallel::__qsb</text>
<text text-anchor="middle" x="404.5" y="-97.3" font-family="Helvetica,sans-Serif" font-size="9.00">_conquer</text>
</a>
</g>
</g>
<!-- Node11&#45;&gt;Node14 -->
<g id="edge14" class="edge"><title>Node11&#45;&gt;Node14</title>
<path fill="none" stroke="midnightblue" d="M306.429,-117.321C317.377,-115.875 328.794,-114.367 339.791,-112.914"/>
<polygon fill="midnightblue" stroke="midnightblue" points="340.29,-116.379 349.746,-111.6 339.374,-109.439 340.29,-116.379"/>
</g>
<!-- Node15 -->
<g id="node15" class="node"><title>Node15</title>
<g id="a_node15"><a xlink:href="a01372.html#a7565d258aacb02328cef6eb2781ab711" target="_top" xlink:title="Quicksort step doing load&#45;balanced local sort. ">
<polygon fill="white" stroke="black" points="506,-59.5 506,-87.5 625,-87.5 625,-59.5 506,-59.5"/>
<text text-anchor="start" x="514" y="-76.3" font-family="Helvetica,sans-Serif" font-size="9.00">__gnu_parallel::__qsb</text>
<text text-anchor="middle" x="565.5" y="-66.3" font-family="Helvetica,sans-Serif" font-size="9.00">_local_sort_with_helping</text>
</a>
</g>
</g>
<!-- Node14&#45;&gt;Node15 -->
<g id="edge15" class="edge"><title>Node14&#45;&gt;Node15</title>
<path fill="none" stroke="midnightblue" d="M459.33,-94.0048C471.014,-91.7268 483.526,-89.2873 495.698,-86.9142"/>
<polygon fill="midnightblue" stroke="midnightblue" points="496.671,-90.2905 505.817,-84.9414 495.332,-83.4198 496.671,-90.2905"/>
</g>
<!-- Node17 -->
<g id="node17" class="node"><title>Node17</title>
<g id="a_node17"><a xlink:href="a01372.html#afc19882fd22d39e54475d41fd981ac49" target="_top" xlink:title="Balanced quicksort divide step. ">
<polygon fill="white" stroke="black" points="511,-113.5 511,-141.5 620,-141.5 620,-113.5 511,-113.5"/>
<text text-anchor="start" x="519" y="-130.3" font-family="Helvetica,sans-Serif" font-size="9.00">__gnu_parallel::__qsb</text>
<text text-anchor="middle" x="565.5" y="-120.3" font-family="Helvetica,sans-Serif" font-size="9.00">_divide</text>
</a>
</g>
</g>
<!-- Node14&#45;&gt;Node17 -->
<g id="edge19" class="edge"><title>Node14&#45;&gt;Node17</title>
<path fill="none" stroke="midnightblue" d="M459.33,-112.287C472.742,-114.227 487.246,-116.325 501.072,-118.325"/>
<polygon fill="midnightblue" stroke="midnightblue" points="500.597,-121.793 510.995,-119.76 501.599,-114.865 500.597,-121.793"/>
</g>
<!-- Node15&#45;&gt;Node10 -->
<g id="edge16" class="edge"><title>Node15&#45;&gt;Node10</title>
<path fill="none" stroke="midnightblue" d="M625.099,-65.6894C674.223,-62.487 743.45,-66.227 789,-103.5 826.855,-134.476 791.374,-171.979 825,-207.5 830.904,-213.737 838.395,-218.625 846.241,-222.445"/>
<polygon fill="midnightblue" stroke="midnightblue" points="844.974,-225.71 855.542,-226.454 847.745,-219.281 844.974,-225.71"/>
</g>
<!-- Node15&#45;&gt;Node13 -->
<g id="edge17" class="edge"><title>Node15&#45;&gt;Node13</title>
<path fill="none" stroke="midnightblue" d="M593.325,-59.4526C612.64,-49.6843 639.502,-36.7988 664,-27.5 669.53,-25.4008 675.417,-23.3971 681.272,-21.5397"/>
<polygon fill="midnightblue" stroke="midnightblue" points="682.487,-24.8284 691.029,-18.5612 680.443,-18.1334 682.487,-24.8284"/>
</g>
<!-- Node16 -->
<g id="node16" class="node"><title>Node16</title>
<g id="a_node16"><a xlink:href="a01372.html#aaa76236af73146ae89f726921bc3f2cb" target="_top" xlink:title="Yield control to another thread, without waiting for the end of the time slice. ">
<polygon fill="white" stroke="black" points="670,-37.5 670,-55.5 783,-55.5 783,-37.5 670,-37.5"/>
<text text-anchor="middle" x="726.5" y="-44.3" font-family="Helvetica,sans-Serif" font-size="9.00">__gnu_parallel::__yield</text>
</a>
</g>
</g>
<!-- Node15&#45;&gt;Node16 -->
<g id="edge18" class="edge"><title>Node15&#45;&gt;Node16</title>
<path fill="none" stroke="midnightblue" d="M625.254,-63.5229C637.279,-61.4808 649.986,-59.3232 662.164,-57.2552"/>
<polygon fill="midnightblue" stroke="midnightblue" points="662.97,-60.6685 672.243,-55.5437 661.798,-53.7673 662.97,-60.6685"/>
</g>
<!-- Node17&#45;&gt;Node7 -->
<g id="edge21" class="edge"><title>Node17&#45;&gt;Node7</title>
<path fill="none" stroke="midnightblue" d="M614.205,-141.602C631.262,-146.644 650.657,-152.377 668.424,-157.629"/>
<polygon fill="midnightblue" stroke="midnightblue" points="667.521,-161.011 678.103,-160.489 669.505,-154.298 667.521,-161.011"/>
</g>
<!-- Node18 -->
<g id="node18" class="node"><title>Node18</title>
<g id="a_node18"><a xlink:href="a01372.html#a74914ea59d68887b517e12c90189dbcd" target="_top" xlink:title="Compute the median of three referenced elements, according to __comp. ">
<polygon fill="white" stroke="black" points="664,-113.5 664,-141.5 789,-141.5 789,-113.5 664,-113.5"/>
<text text-anchor="start" x="672" y="-130.3" font-family="Helvetica,sans-Serif" font-size="9.00">__gnu_parallel::__median</text>
<text text-anchor="middle" x="726.5" y="-120.3" font-family="Helvetica,sans-Serif" font-size="9.00">_of_three_iterators</text>
</a>
</g>
</g>
<!-- Node17&#45;&gt;Node18 -->
<g id="edge20" class="edge"><title>Node17&#45;&gt;Node18</title>
<path fill="none" stroke="midnightblue" d="M620.33,-127.5C631.022,-127.5 642.407,-127.5 653.59,-127.5"/>
<polygon fill="midnightblue" stroke="midnightblue" points="653.778,-131 663.778,-127.5 653.777,-124 653.778,-131"/>
</g>
</g>
</svg>
        <g id="navigator" transform="translate(0 0)" fill="#404254">
                <rect fill="#f2f5e9" fill-opacity="0.5" stroke="#606060" stroke-width=".5" x="0" y="0" width="60" height="60"/>
                <use id="zoomplus" xlink:href="#zoomPlus" x="17" y="9" onmousedown="handleZoom(evt,'in')"/>
                <use id="zoomminus" xlink:href="#zoomMin" x="42" y="9" onmousedown="handleZoom(evt,'out')"/>
                <use id="reset" xlink:href="#resetDef" x="30" y="36" onmousedown="handleReset()"/>
                <g id="arrowUp" xlink:href="#dirArrow" transform="translate(30 24)" onmousedown="handlePan(0,-1)">
                  <use xlink:href="#rim" fill="#404040">
                        <set attributeName="fill" to="#808080" begin="arrowUp.mouseover" end="arrowUp.mouseout"/>
                  </use>
                  <path fill="none" stroke="white" stroke-width="1.5" d="M0,-3.0v7 M-2.5,-0.5L0,-3.0L2.5,-0.5"/>
                </g>
                <g id="arrowRight" xlink:href="#dirArrow" transform="rotate(90) translate(36 -43)" onmousedown="handlePan(1,0)">
                  <use xlink:href="#rim" fill="#404040">
                        <set attributeName="fill" to="#808080" begin="arrowRight.mouseover" end="arrowRight.mouseout"/>
                  </use>
                  <path fill="none" stroke="white" stroke-width="1.5" d="M0,-3.0v7 M-2.5,-0.5L0,-3.0L2.5,-0.5"/>
                </g>
                <g id="arrowDown" xlink:href="#dirArrow" transform="rotate(180) translate(-30 -48)" onmousedown="handlePan(0,1)">
                  <use xlink:href="#rim" fill="#404040">
                        <set attributeName="fill" to="#808080" begin="arrowDown.mouseover" end="arrowDown.mouseout"/>
                  </use>
                  <path fill="none" stroke="white" stroke-width="1.5" d="M0,-3.0v7 M-2.5,-0.5L0,-3.0L2.5,-0.5"/>
                </g>
                <g id="arrowLeft" xlink:href="#dirArrow" transform="rotate(270) translate(-36 17)" onmousedown="handlePan(-1,0)">
                  <use xlink:href="#rim" fill="#404040">
                        <set attributeName="fill" to="#808080" begin="arrowLeft.mouseover" end="arrowLeft.mouseout"/>
                  </use>
                  <path fill="none" stroke="white" stroke-width="1.5" d="M0,-3.0v7 M-2.5,-0.5L0,-3.0L2.5,-0.5"/>
                </g>
        </g>
        <svg viewBox="0 0 15 15" width="100%" height="30px" preserveAspectRatio="xMaxYMin meet">
         <g id="arrow_out" transform="scale(0.3 0.3)">
          <a xlink:href="a01372_aa47b469dd82347dd63c3996eda2e237b_cgraph_org.svg" target="_base">
           <rect id="button" ry="5" rx="5" y="6" x="6" height="38" width="38"
                fill="#f2f5e9" fill-opacity="0.5" stroke="#606060" stroke-width="1.0"/>
           <path id="arrow"
             d="M 11.500037,31.436501 C 11.940474,20.09759 22.043105,11.32322 32.158766,21.979434 L 37.068811,17.246167 C 37.068811,17.246167 37.088388,32 37.088388,32 L 22.160133,31.978069 C 22.160133,31.978069 26.997745,27.140456 26.997745,27.140456 C 18.528582,18.264221 13.291696,25.230495 11.500037,31.436501 z"
             style="fill:#404040;"/>
          </a>
         </g>
        </svg>
</svg>
