<?xml version="1.0" encoding="UTF-8" standalone="no"?>
<!DOCTYPE svg PUBLIC "-//W3C//DTD SVG 1.1//EN"
 "http://www.w3.org/Graphics/SVG/1.1/DTD/svg11.dtd">
<!-- Generated by graphviz version 2.38.0 (20140413.2041)
 -->
<!-- Title: Containers Pages: 1 -->
<svg width="216pt" height="101pt"
 viewBox="0.00 0.00 216.00 101.00" xmlns="http://www.w3.org/2000/svg" xmlns:xlink="http://www.w3.org/1999/xlink">
<g id="graph0" class="graph" transform="scale(1 1) rotate(0) translate(4 97)">
<title>Containers</title>
<polygon fill="white" stroke="none" points="-4,4 -4,-97 212,-97 212,4 -4,4"/>
<!-- Node0 -->
<g id="node1" class="node"><title>Node0</title>
<polygon fill="#bfbfbf" stroke="black" points="0,-37.5 0,-55.5 62,-55.5 62,-37.5 0,-37.5"/>
<text text-anchor="middle" x="31" y="-44.3" font-family="Helvetica,sans-Serif" font-size="9.00">Containers</text>
</g>
<!-- Node2 -->
<g id="node2" class="node"><title>Node2</title>
<g id="a_node2"><a xlink:href="a01396.html" target="_top" xlink:title="Associative">
<polygon fill="white" stroke="black" points="121.5,-74.5 121.5,-92.5 184.5,-92.5 184.5,-74.5 121.5,-74.5"/>
<text text-anchor="middle" x="153" y="-81.3" font-family="Helvetica,sans-Serif" font-size="9.00">Associative</text>
</a>
</g>
</g>
<!-- Node0&#45;&gt;Node2 -->
<g id="edge2" class="edge"><title>Node0&#45;&gt;Node2</title>
<path fill="none" stroke="black" d="M71.365,-58.6375C88.0305,-63.7761 107.114,-69.6603 122.532,-74.414"/>
<polygon fill="black" stroke="black" points="71.9427,-55.1531 61.3553,-55.5512 69.8801,-61.8424 71.9427,-55.1531"/>
</g>
<!-- Node1 -->
<g id="node3" class="node"><title>Node1</title>
<g id="a_node3"><a xlink:href="a01395.html" target="_top" xlink:title="Sequences">
<polygon fill="white" stroke="black" points="121.5,-37.5 121.5,-55.5 184.5,-55.5 184.5,-37.5 121.5,-37.5"/>
<text text-anchor="middle" x="153" y="-44.3" font-family="Helvetica,sans-Serif" font-size="9.00">Sequences</text>
</a>
</g>
</g>
<!-- Node0&#45;&gt;Node1 -->
<g id="edge1" class="edge"><title>Node0&#45;&gt;Node1</title>
<path fill="none" stroke="black" d="M72.4222,-46.5C88.3938,-46.5 106.444,-46.5 121.311,-46.5"/>
<polygon fill="black" stroke="black" points="72.2811,-43.0001 62.2811,-46.5 72.281,-50.0001 72.2811,-43.0001"/>
</g>
<!-- Node3 -->
<g id="node4" class="node"><title>Node3</title>
<g id="a_node4"><a xlink:href="a01397.html" target="_top" xlink:title="Unordered Associative">
<polygon fill="white" stroke="black" points="98,-0.5 98,-18.5 208,-18.5 208,-0.5 98,-0.5"/>
<text text-anchor="middle" x="153" y="-7.3" font-family="Helvetica,sans-Serif" font-size="9.00">Unordered Associative</text>
</a>
</g>
</g>
<!-- Node0&#45;&gt;Node3 -->
<g id="edge3" class="edge"><title>Node0&#45;&gt;Node3</title>
<path fill="none" stroke="black" d="M71.365,-34.3625C88.0305,-29.2239 107.114,-23.3397 122.532,-18.586"/>
<polygon fill="black" stroke="black" points="69.8801,-31.1576 61.3553,-37.4488 71.9427,-37.8469 69.8801,-31.1576"/>
</g>
</g>
</svg>
