<?xml version="1.0" encoding="UTF-8" standalone="no"?>
<!DOCTYPE svg PUBLIC "-//W3C//DTD SVG 1.1//EN"
 "http://www.w3.org/Graphics/SVG/1.1/DTD/svg11.dtd">
<!-- Generated by graphviz version 2.38.0 (20140413.2041)
 -->
<!-- Title: __gnu_parallel::__parallel_sort Pages: 1 -->
<!--zoomable 121 -->
<svg id="main" version="1.1" xmlns="http://www.w3.org/2000/svg" xmlns:xlink="http://www.w3.org/1999/xlink" xml:space="preserve" onload="init(evt)">
<style type="text/css"><![CDATA[
.edge:hover path { stroke: red; }
.edge:hover polygon { stroke: red; fill: red; }
]]></style>
<script type="text/javascript"><![CDATA[
var edges = document.getElementsByTagName('g');
if (edges && edges.length) {
  for (var i=0;i<edges.length;i++) {
    if (edges[i].id.substr(0,4)=='edge') {
      edges[i].setAttribute('class','edge');
    }
  }
}
]]></script>
        <defs>
                <circle id="rim" cx="0" cy="0" r="7"/>
                <circle id="rim2" cx="0" cy="0" r="3.5"/>
                <g id="zoomPlus">
                        <use xlink:href="#rim" fill="#404040">
                                <set attributeName="fill" to="#808080" begin="zoomplus.mouseover" end="zoomplus.mouseout"/>
                        </use>
                        <path d="M-4,0h8M0,-4v8" fill="none" stroke="white" stroke-width="1.5" pointer-events="none"/>
                </g>
                <g id="zoomMin">
                        <use xlink:href="#rim" fill="#404040">
                                <set attributeName="fill" to="#808080" begin="zoomminus.mouseover" end="zoomminus.mouseout"/>
                        </use>
                        <path d="M-4,0h8" fill="none" stroke="white" stroke-width="1.5" pointer-events="none"/>
                </g>
                <g id="dirArrow">
                        <path fill="none" stroke="white" stroke-width="1.5" d="M0,-3.0v7 M-2.5,-0.5L0,-3.0L2.5,-0.5"/>
                </g>
               <g id="resetDef">
                       <use xlink:href="#rim2" fill="#404040">
                               <set attributeName="fill" to="#808080" begin="reset.mouseover" end="reset.mouseout"/>
                       </use>
               </g>
        </defs>

<script type="text/javascript">
var viewWidth = 972;
var viewHeight = 121;
var sectionId = 'dynsection-3';
</script>
<script xlink:href="svgpan.js"/>
<svg id="graph" class="graph">
<g id="viewport">
<title>__gnu_parallel::__parallel_sort</title>
<polygon fill="white" stroke="none" points="-4,4 -4,-117 968,-117 968,4 -4,4"/>
<!-- Node1 -->
<g id="node1" class="node"><title>Node1</title>
<polygon fill="#bfbfbf" stroke="black" points="0,-44.5 0,-62.5 145,-62.5 145,-44.5 0,-44.5"/>
<text text-anchor="middle" x="72.5" y="-51.3" font-family="Helvetica,sans-Serif" font-size="9.00">__gnu_parallel::__parallel_sort</text>
</g>
<!-- Node2 -->
<g id="node2" class="node"><title>Node2</title>
<g id="a_node2"><a xlink:href="a00163.html#a18b32829b31b902699690b750e190e59" target="_top" xlink:title="Find out desired number of threads. ">
<polygon fill="white" stroke="black" points="182.5,-63.5 182.5,-91.5 304.5,-91.5 304.5,-63.5 182.5,-63.5"/>
<text text-anchor="start" x="190.5" y="-80.3" font-family="Helvetica,sans-Serif" font-size="9.00">__gnu_parallel::parallel</text>
<text text-anchor="middle" x="243.5" y="-70.3" font-family="Helvetica,sans-Serif" font-size="9.00">_tag::__get_num_threads</text>
</a>
</g>
</g>
<!-- Node1&#45;&gt;Node2 -->
<g id="edge1" class="edge"><title>Node1&#45;&gt;Node2</title>
<path fill="none" stroke="midnightblue" d="M136.91,-62.505C148.428,-64.1407 160.505,-65.8557 172.207,-67.5176"/>
<polygon fill="midnightblue" stroke="midnightblue" points="171.979,-71.0202 182.371,-68.961 172.963,-64.0897 171.979,-71.0202"/>
</g>
<!-- Node3 -->
<g id="node3" class="node"><title>Node3</title>
<g id="a_node3"><a xlink:href="a01372.html#ac416a1c7e347b429bbf7a8fb17e847b2" target="_top" xlink:title="Unbalanced quicksort main call. ">
<polygon fill="white" stroke="black" points="181,-16.5 181,-44.5 306,-44.5 306,-16.5 181,-16.5"/>
<text text-anchor="start" x="189" y="-33.3" font-family="Helvetica,sans-Serif" font-size="9.00">__gnu_parallel::__parallel</text>
<text text-anchor="middle" x="243.5" y="-23.3" font-family="Helvetica,sans-Serif" font-size="9.00">_sort_qs</text>
</a>
</g>
</g>
<!-- Node1&#45;&gt;Node3 -->
<g id="edge2" class="edge"><title>Node1&#45;&gt;Node3</title>
<path fill="none" stroke="midnightblue" d="M139.808,-44.4758C149.934,-43.0977 160.426,-41.6699 170.664,-40.2765"/>
<polygon fill="midnightblue" stroke="midnightblue" points="171.357,-43.7145 180.794,-38.8978 170.413,-36.7784 171.357,-43.7145"/>
</g>
<!-- Node4 -->
<g id="node4" class="node"><title>Node4</title>
<g id="a_node4"><a xlink:href="a01372.html#a06c506308856b684737d24944a93a42e" target="_top" xlink:title="Unbalanced quicksort conquer step. ">
<polygon fill="white" stroke="black" points="342,-16.5 342,-44.5 467,-44.5 467,-16.5 342,-16.5"/>
<text text-anchor="start" x="350" y="-33.3" font-family="Helvetica,sans-Serif" font-size="9.00">__gnu_parallel::__parallel</text>
<text text-anchor="middle" x="404.5" y="-23.3" font-family="Helvetica,sans-Serif" font-size="9.00">_sort_qs_conquer</text>
</a>
</g>
</g>
<!-- Node3&#45;&gt;Node4 -->
<g id="edge3" class="edge"><title>Node3&#45;&gt;Node4</title>
<path fill="none" stroke="midnightblue" d="M306.429,-30.5C314.674,-30.5 323.184,-30.5 331.58,-30.5"/>
<polygon fill="midnightblue" stroke="midnightblue" points="331.74,-34.0001 341.74,-30.5 331.74,-27.0001 331.74,-34.0001"/>
</g>
<!-- Node5 -->
<g id="node5" class="node"><title>Node5</title>
<g id="a_node5"><a xlink:href="a01372.html#a55defa3d8e8ca7b4e52330b9afc0b1ce" target="_top" xlink:title="Unbalanced quicksort divide step. ">
<polygon fill="white" stroke="black" points="503,-38.5 503,-66.5 628,-66.5 628,-38.5 503,-38.5"/>
<text text-anchor="start" x="511" y="-55.3" font-family="Helvetica,sans-Serif" font-size="9.00">__gnu_parallel::__parallel</text>
<text text-anchor="middle" x="565.5" y="-45.3" font-family="Helvetica,sans-Serif" font-size="9.00">_sort_qs_divide</text>
</a>
</g>
</g>
<!-- Node4&#45;&gt;Node5 -->
<g id="edge4" class="edge"><title>Node4&#45;&gt;Node5</title>
<path fill="none" stroke="midnightblue" d="M467.429,-39.0688C475.674,-40.2096 484.184,-41.3871 492.58,-42.5489"/>
<polygon fill="midnightblue" stroke="midnightblue" points="492.355,-46.0509 502.74,-43.9546 493.314,-39.117 492.355,-46.0509"/>
</g>
<!-- Node10 -->
<g id="node10" class="node"><title>Node10</title>
<g id="a_node10"><a xlink:href="a00146.html#abc4965eacae0b49945ebc887cb11adc1" target="_top" xlink:title="Get the global settings. ">
<polygon fill="white" stroke="black" points="825,-0.5 825,-18.5 964,-18.5 964,-0.5 825,-0.5"/>
<text text-anchor="middle" x="894.5" y="-7.3" font-family="Helvetica,sans-Serif" font-size="9.00">__gnu_parallel::_Settings::get</text>
</a>
</g>
</g>
<!-- Node4&#45;&gt;Node10 -->
<g id="edge10" class="edge"><title>Node4&#45;&gt;Node10</title>
<path fill="none" stroke="midnightblue" d="M467.306,-27.8403C555.613,-24.0402 717.892,-17.0569 814.716,-12.8903"/>
<polygon fill="midnightblue" stroke="midnightblue" points="814.903,-16.3856 824.743,-12.4588 814.602,-9.39205 814.903,-16.3856"/>
</g>
<!-- Node6 -->
<g id="node6" class="node"><title>Node6</title>
<g id="a_node6"><a xlink:href="a01403.html#gad48656de2f272a953455e1fff2532125" target="_top" xlink:title="This does what you think it does. ">
<polygon fill="white" stroke="black" points="702.5,-85.5 702.5,-103.5 750.5,-103.5 750.5,-85.5 702.5,-85.5"/>
<text text-anchor="middle" x="726.5" y="-92.3" font-family="Helvetica,sans-Serif" font-size="9.00">std::min</text>
</a>
</g>
</g>
<!-- Node5&#45;&gt;Node6 -->
<g id="edge5" class="edge"><title>Node5&#45;&gt;Node6</title>
<path fill="none" stroke="midnightblue" d="M619.887,-66.6022C643.921,-72.9509 671.538,-80.2459 692.502,-85.7835"/>
<polygon fill="midnightblue" stroke="midnightblue" points="691.651,-89.1789 702.214,-88.3489 693.439,-82.411 691.651,-89.1789"/>
</g>
<!-- Node7 -->
<g id="node7" class="node"><title>Node7</title>
<g id="a_node7"><a xlink:href="a01372.html#aa56788b479955dd136d6af173d2cae0b" target="_top" xlink:title="Parallel implementation of std::partition. ">
<polygon fill="white" stroke="black" points="664,-38.5 664,-66.5 789,-66.5 789,-38.5 664,-38.5"/>
<text text-anchor="start" x="672" y="-55.3" font-family="Helvetica,sans-Serif" font-size="9.00">__gnu_parallel::__parallel</text>
<text text-anchor="middle" x="726.5" y="-45.3" font-family="Helvetica,sans-Serif" font-size="9.00">_partition</text>
</a>
</g>
</g>
<!-- Node5&#45;&gt;Node7 -->
<g id="edge6" class="edge"><title>Node5&#45;&gt;Node7</title>
<path fill="none" stroke="midnightblue" d="M628.429,-52.5C636.674,-52.5 645.184,-52.5 653.58,-52.5"/>
<polygon fill="midnightblue" stroke="midnightblue" points="653.74,-56.0001 663.74,-52.5 653.74,-49.0001 653.74,-56.0001"/>
</g>
<!-- Node8 -->
<g id="node8" class="node"><title>Node8</title>
<g id="a_node8"><a xlink:href="a01372.html#accd4441e0f846fee44966195a91e9e68" target="_top" xlink:title="Compare&#45;and&#45;swap. ">
<polygon fill="white" stroke="black" points="829.5,-84.5 829.5,-112.5 959.5,-112.5 959.5,-84.5 829.5,-84.5"/>
<text text-anchor="start" x="837.5" y="-101.3" font-family="Helvetica,sans-Serif" font-size="9.00">__gnu_parallel::__compare</text>
<text text-anchor="middle" x="894.5" y="-91.3" font-family="Helvetica,sans-Serif" font-size="9.00">_and_swap</text>
</a>
</g>
</g>
<!-- Node7&#45;&gt;Node8 -->
<g id="edge7" class="edge"><title>Node7&#45;&gt;Node8</title>
<path fill="none" stroke="midnightblue" d="M778.207,-66.5515C795.504,-71.3445 815.017,-76.7517 833.005,-81.7363"/>
<polygon fill="midnightblue" stroke="midnightblue" points="832.246,-85.1578 842.817,-84.4554 834.115,-78.412 832.246,-85.1578"/>
</g>
<!-- Node9 -->
<g id="node9" class="node"><title>Node9</title>
<g id="a_node9"><a xlink:href="a01372.html#a56a5a84c8a6049cd3cc83968c6eae088" target="_top" xlink:title="Add a value to a variable, atomically. ">
<polygon fill="white" stroke="black" points="838,-37.5 838,-65.5 951,-65.5 951,-37.5 838,-37.5"/>
<text text-anchor="start" x="846" y="-54.3" font-family="Helvetica,sans-Serif" font-size="9.00">__gnu_parallel::__fetch</text>
<text text-anchor="middle" x="894.5" y="-44.3" font-family="Helvetica,sans-Serif" font-size="9.00">_and_add</text>
</a>
</g>
</g>
<!-- Node7&#45;&gt;Node9 -->
<g id="edge8" class="edge"><title>Node7&#45;&gt;Node9</title>
<path fill="none" stroke="midnightblue" d="M789.312,-52.1276C801.896,-52.0518 815.175,-51.9718 827.885,-51.8953"/>
<polygon fill="midnightblue" stroke="midnightblue" points="827.954,-55.395 837.932,-51.8347 827.911,-48.3951 827.954,-55.395"/>
</g>
<!-- Node7&#45;&gt;Node10 -->
<g id="edge9" class="edge"><title>Node7&#45;&gt;Node10</title>
<path fill="none" stroke="midnightblue" d="M781.855,-38.4202C803.469,-32.8212 828.039,-26.4569 848.615,-21.1268"/>
<polygon fill="midnightblue" stroke="midnightblue" points="849.563,-24.497 858.365,-18.6011 847.807,-17.7206 849.563,-24.497"/>
</g>
</g>
</svg>
        <g id="navigator" transform="translate(0 0)" fill="#404254">
                <rect fill="#f2f5e9" fill-opacity="0.5" stroke="#606060" stroke-width=".5" x="0" y="0" width="60" height="60"/>
                <use id="zoomplus" xlink:href="#zoomPlus" x="17" y="9" onmousedown="handleZoom(evt,'in')"/>
                <use id="zoomminus" xlink:href="#zoomMin" x="42" y="9" onmousedown="handleZoom(evt,'out')"/>
                <use id="reset" xlink:href="#resetDef" x="30" y="36" onmousedown="handleReset()"/>
                <g id="arrowUp" xlink:href="#dirArrow" transform="translate(30 24)" onmousedown="handlePan(0,-1)">
                  <use xlink:href="#rim" fill="#404040">
                        <set attributeName="fill" to="#808080" begin="arrowUp.mouseover" end="arrowUp.mouseout"/>
                  </use>
                  <path fill="none" stroke="white" stroke-width="1.5" d="M0,-3.0v7 M-2.5,-0.5L0,-3.0L2.5,-0.5"/>
                </g>
                <g id="arrowRight" xlink:href="#dirArrow" transform="rotate(90) translate(36 -43)" onmousedown="handlePan(1,0)">
                  <use xlink:href="#rim" fill="#404040">
                        <set attributeName="fill" to="#808080" begin="arrowRight.mouseover" end="arrowRight.mouseout"/>
                  </use>
                  <path fill="none" stroke="white" stroke-width="1.5" d="M0,-3.0v7 M-2.5,-0.5L0,-3.0L2.5,-0.5"/>
                </g>
                <g id="arrowDown" xlink:href="#dirArrow" transform="rotate(180) translate(-30 -48)" onmousedown="handlePan(0,1)">
                  <use xlink:href="#rim" fill="#404040">
                        <set attributeName="fill" to="#808080" begin="arrowDown.mouseover" end="arrowDown.mouseout"/>
                  </use>
                  <path fill="none" stroke="white" stroke-width="1.5" d="M0,-3.0v7 M-2.5,-0.5L0,-3.0L2.5,-0.5"/>
                </g>
                <g id="arrowLeft" xlink:href="#dirArrow" transform="rotate(270) translate(-36 17)" onmousedown="handlePan(-1,0)">
                  <use xlink:href="#rim" fill="#404040">
                        <set attributeName="fill" to="#808080" begin="arrowLeft.mouseover" end="arrowLeft.mouseout"/>
                  </use>
                  <path fill="none" stroke="white" stroke-width="1.5" d="M0,-3.0v7 M-2.5,-0.5L0,-3.0L2.5,-0.5"/>
                </g>
        </g>
        <svg viewBox="0 0 15 15" width="100%" height="30px" preserveAspectRatio="xMaxYMin meet">
         <g id="arrow_out" transform="scale(0.3 0.3)">
          <a xlink:href="a01372_aceaaa622c34d2f28ba6bf79241fcee36_cgraph_org.svg" target="_base">
           <rect id="button" ry="5" rx="5" y="6" x="6" height="38" width="38"
                fill="#f2f5e9" fill-opacity="0.5" stroke="#606060" stroke-width="1.0"/>
           <path id="arrow"
             d="M 11.500037,31.436501 C 11.940474,20.09759 22.043105,11.32322 32.158766,21.979434 L 37.068811,17.246167 C 37.068811,17.246167 37.088388,32 37.088388,32 L 22.160133,31.978069 C 22.160133,31.978069 26.997745,27.140456 26.997745,27.140456 C 18.528582,18.264221 13.291696,25.230495 11.500037,31.436501 z"
             style="fill:#404040;"/>
          </a>
         </g>
        </svg>
</svg>
