<?xml version="1.0" encoding="UTF-8" standalone="no"?>
<!DOCTYPE svg PUBLIC "-//W3C//DTD SVG 1.1//EN"
 "http://www.w3.org/Graphics/SVG/1.1/DTD/svg11.dtd">
<!-- Generated by graphviz version 2.38.0 (20140413.2041)
 -->
<!-- Title: Sequences Pages: 1 -->
<svg width="318pt" height="28pt"
 viewBox="0.00 0.00 318.00 27.50" xmlns="http://www.w3.org/2000/svg" xmlns:xlink="http://www.w3.org/1999/xlink">
<g id="graph0" class="graph" transform="scale(1 1) rotate(0) translate(4 23.5)">
<title>Sequences</title>
<polygon fill="white" stroke="none" points="-4,4 -4,-23.5 314,-23.5 314,4 -4,4"/>
<!-- Node1 -->
<g id="node1" class="node"><title>Node1</title>
<g id="a_node1"><a xlink:href="a01394.html" target="_top" xlink:title="Containers">
<polygon fill="white" stroke="black" points="0,-0.5 0,-18.5 62,-18.5 62,-0.5 0,-0.5"/>
<text text-anchor="middle" x="31" y="-7.3" font-family="Helvetica,sans-Serif" font-size="9.00">Containers</text>
</a>
</g>
</g>
<!-- Node0 -->
<g id="node2" class="node"><title>Node0</title>
<polygon fill="#bfbfbf" stroke="black" points="99,-0.5 99,-18.5 162,-18.5 162,-0.5 99,-0.5"/>
<text text-anchor="middle" x="130.5" y="-7.3" font-family="Helvetica,sans-Serif" font-size="9.00">Sequences</text>
</g>
<!-- Node1&#45;&gt;Node0 -->
<g id="edge1" class="edge"><title>Node1&#45;&gt;Node0</title>
<path fill="none" stroke="black" d="M72.1932,-9.5C81.0491,-9.5 90.294,-9.5 98.709,-9.5"/>
<polygon fill="black" stroke="black" points="72.0488,-6.0001 62.0488,-9.5 72.0487,-13.0001 72.0488,-6.0001"/>
</g>
<!-- Node2 -->
<g id="node3" class="node"><title>Node2</title>
<g id="a_node3"><a xlink:href="a01424.html" target="_top" xlink:title="Strings">
<polygon fill="white" stroke="black" points="265,-0.5 265,-18.5 310,-18.5 310,-0.5 265,-0.5"/>
<text text-anchor="middle" x="287.5" y="-7.3" font-family="Helvetica,sans-Serif" font-size="9.00">Strings</text>
</a>
</g>
</g>
<!-- Node0&#45;&gt;Node2 -->
<g id="edge2" class="edge"><title>Node0&#45;&gt;Node2</title>
<path fill="none" stroke="orange" stroke-dasharray="5,2" d="M162.123,-9.5C192.473,-9.5 238.186,-9.5 264.917,-9.5"/>
<text text-anchor="middle" x="213.5" y="-12.3" font-family="Helvetica,sans-Serif" font-size="9.00">std::basic_string</text>
</g>
</g>
</svg>
