<?xml version="1.0" encoding="UTF-8" standalone="no"?>
<!DOCTYPE svg PUBLIC "-//W3C//DTD SVG 1.1//EN"
 "http://www.w3.org/Graphics/SVG/1.1/DTD/svg11.dtd">
<!-- Generated by graphviz version 2.38.0 (20140413.2041)
 -->
<!-- Title: Sorting Pages: 1 -->
<svg width="260pt" height="101pt"
 viewBox="0.00 0.00 260.00 101.00" xmlns="http://www.w3.org/2000/svg" xmlns:xlink="http://www.w3.org/1999/xlink">
<g id="graph0" class="graph" transform="scale(1 1) rotate(0) translate(4 97)">
<title>Sorting</title>
<polygon fill="white" stroke="none" points="-4,4 -4,-97 256,-97 256,4 -4,4"/>
<!-- Node3 -->
<g id="node1" class="node"><title>Node3</title>
<g id="a_node1"><a xlink:href="a01405.html" target="_top" xlink:title="Binary Search">
<polygon fill="white" stroke="black" points="178,-74.5 178,-92.5 252,-92.5 252,-74.5 178,-74.5"/>
<text text-anchor="middle" x="215" y="-81.3" font-family="Helvetica,sans-Serif" font-size="9.00">Binary Search</text>
</a>
</g>
</g>
<!-- Node2 -->
<g id="node2" class="node"><title>Node2</title>
<g id="a_node2"><a xlink:href="a01404.html" target="_top" xlink:title="Set Operation">
<polygon fill="white" stroke="black" points="178.5,-37.5 178.5,-55.5 251.5,-55.5 251.5,-37.5 178.5,-37.5"/>
<text text-anchor="middle" x="215" y="-44.3" font-family="Helvetica,sans-Serif" font-size="9.00">Set Operation</text>
</a>
</g>
</g>
<!-- Node4 -->
<g id="node3" class="node"><title>Node4</title>
<g id="a_node3"><a xlink:href="a01421.html" target="_top" xlink:title="Heap">
<polygon fill="white" stroke="black" points="195.5,-0.5 195.5,-18.5 234.5,-18.5 234.5,-0.5 195.5,-0.5"/>
<text text-anchor="middle" x="215" y="-7.3" font-family="Helvetica,sans-Serif" font-size="9.00">Heap</text>
</a>
</g>
</g>
<!-- Node1 -->
<g id="node4" class="node"><title>Node1</title>
<g id="a_node4"><a xlink:href="a01400.html" target="_top" xlink:title="Algorithms">
<polygon fill="white" stroke="black" points="0,-37.5 0,-55.5 60,-55.5 60,-37.5 0,-37.5"/>
<text text-anchor="middle" x="30" y="-44.3" font-family="Helvetica,sans-Serif" font-size="9.00">Algorithms</text>
</a>
</g>
</g>
<!-- Node0 -->
<g id="node5" class="node"><title>Node0</title>
<polygon fill="#bfbfbf" stroke="black" points="96,-37.5 96,-55.5 142,-55.5 142,-37.5 96,-37.5"/>
<text text-anchor="middle" x="119" y="-44.3" font-family="Helvetica,sans-Serif" font-size="9.00">Sorting</text>
</g>
<!-- Node1&#45;&gt;Node0 -->
<g id="edge1" class="edge"><title>Node1&#45;&gt;Node0</title>
<path fill="none" stroke="black" d="M70.7366,-46.5C79.3209,-46.5 88.102,-46.5 95.7295,-46.5"/>
<polygon fill="black" stroke="black" points="70.4543,-43.0001 60.4542,-46.5 70.4542,-50.0001 70.4543,-43.0001"/>
</g>
<!-- Node0&#45;&gt;Node3 -->
<g id="edge3" class="edge"><title>Node0&#45;&gt;Node3</title>
<path fill="none" stroke="black" d="M151.691,-58.974C164.534,-64.0294 179.09,-69.7589 190.902,-74.4081"/>
<polygon fill="black" stroke="black" points="152.864,-55.6744 142.277,-55.2685 150.3,-62.188 152.864,-55.6744"/>
</g>
<!-- Node0&#45;&gt;Node2 -->
<g id="edge2" class="edge"><title>Node0&#45;&gt;Node2</title>
<path fill="none" stroke="black" d="M152.397,-46.5C160.748,-46.5 169.781,-46.5 178.289,-46.5"/>
<polygon fill="black" stroke="black" points="152.277,-43.0001 142.277,-46.5 152.277,-50.0001 152.277,-43.0001"/>
</g>
<!-- Node0&#45;&gt;Node4 -->
<g id="edge4" class="edge"><title>Node0&#45;&gt;Node4</title>
<path fill="none" stroke="black" d="M151.875,-33.9533C166.347,-28.2569 182.96,-21.7177 195.364,-16.8356"/>
<polygon fill="black" stroke="black" points="150.3,-30.812 142.277,-37.7315 152.864,-37.3256 150.3,-30.812"/>
</g>
</g>
</svg>
