<?xml version="1.0" encoding="UTF-8" standalone="no"?>
<!DOCTYPE svg PUBLIC "-//W3C//DTD SVG 1.1//EN"
 "http://www.w3.org/Graphics/SVG/1.1/DTD/svg11.dtd">
<!-- Generated by graphviz version 2.38.0 (20140413.2041)
 -->
<!-- Title: Algorithms Pages: 1 -->
<svg width="176pt" height="101pt"
 viewBox="0.00 0.00 176.00 101.00" xmlns="http://www.w3.org/2000/svg" xmlns:xlink="http://www.w3.org/1999/xlink">
<g id="graph0" class="graph" transform="scale(1 1) rotate(0) translate(4 97)">
<title>Algorithms</title>
<polygon fill="white" stroke="none" points="-4,4 -4,-97 172,-97 172,4 -4,4"/>
<!-- Node2 -->
<g id="node1" class="node"><title>Node2</title>
<g id="a_node1"><a xlink:href="a01402.html" target="_top" xlink:title="Non&#45;Mutating">
<polygon fill="white" stroke="black" points="96,-74.5 96,-92.5 168,-92.5 168,-74.5 96,-74.5"/>
<text text-anchor="middle" x="132" y="-81.3" font-family="Helvetica,sans-Serif" font-size="9.00">Non&#45;Mutating</text>
</a>
</g>
</g>
<!-- Node1 -->
<g id="node2" class="node"><title>Node1</title>
<g id="a_node2"><a xlink:href="a01401.html" target="_top" xlink:title="Mutating">
<polygon fill="white" stroke="black" points="106,-37.5 106,-55.5 158,-55.5 158,-37.5 106,-37.5"/>
<text text-anchor="middle" x="132" y="-44.3" font-family="Helvetica,sans-Serif" font-size="9.00">Mutating</text>
</a>
</g>
</g>
<!-- Node0 -->
<g id="node3" class="node"><title>Node0</title>
<polygon fill="#bfbfbf" stroke="black" points="0,-37.5 0,-55.5 60,-55.5 60,-37.5 0,-37.5"/>
<text text-anchor="middle" x="30" y="-44.3" font-family="Helvetica,sans-Serif" font-size="9.00">Algorithms</text>
</g>
<!-- Node0&#45;&gt;Node2 -->
<g id="edge2" class="edge"><title>Node0&#45;&gt;Node2</title>
<path fill="none" stroke="black" d="M64.988,-59.0756C78.5898,-64.1082 93.959,-69.7948 106.443,-74.414"/>
<polygon fill="black" stroke="black" points="66.0559,-55.7389 55.4628,-55.5512 63.6268,-62.3039 66.0559,-55.7389"/>
</g>
<!-- Node0&#45;&gt;Node1 -->
<g id="edge1" class="edge"><title>Node0&#45;&gt;Node1</title>
<path fill="none" stroke="black" d="M70.3493,-46.5C82.2348,-46.5 94.9625,-46.5 105.674,-46.5"/>
<polygon fill="black" stroke="black" points="70.193,-43.0001 60.193,-46.5 70.1929,-50.0001 70.193,-43.0001"/>
</g>
<!-- Node3 -->
<g id="node4" class="node"><title>Node3</title>
<g id="a_node4"><a xlink:href="a01403.html" target="_top" xlink:title="Sorting">
<polygon fill="white" stroke="black" points="109,-0.5 109,-18.5 155,-18.5 155,-0.5 109,-0.5"/>
<text text-anchor="middle" x="132" y="-7.3" font-family="Helvetica,sans-Serif" font-size="9.00">Sorting</text>
</a>
</g>
</g>
<!-- Node0&#45;&gt;Node3 -->
<g id="edge3" class="edge"><title>Node0&#45;&gt;Node3</title>
<path fill="none" stroke="black" d="M65.0886,-33.8872C79.5491,-28.5368 95.9917,-22.4531 108.837,-17.7004"/>
<polygon fill="black" stroke="black" points="63.6268,-30.6961 55.4628,-37.4488 66.0559,-37.2611 63.6268,-30.6961"/>
</g>
</g>
</svg>
