<?xml version="1.0" encoding="UTF-8" standalone="no"?>
<!DOCTYPE svg PUBLIC "-//W3C//DTD SVG 1.1//EN"
 "http://www.w3.org/Graphics/SVG/1.1/DTD/svg11.dtd">
<!-- Generated by graphviz version 2.38.0 (20140413.2041)
 -->
<!-- Title: Random Number Generation Pages: 1 -->
<svg width="319pt" height="101pt"
 viewBox="0.00 0.00 319.00 101.00" xmlns="http://www.w3.org/2000/svg" xmlns:xlink="http://www.w3.org/1999/xlink">
<g id="graph0" class="graph" transform="scale(1 1) rotate(0) translate(4 97)">
<title>Random Number Generation</title>
<polygon fill="white" stroke="none" points="-4,4 -4,-97 315,-97 315,4 -4,4"/>
<!-- Node2 -->
<g id="node1" class="node"><title>Node2</title>
<g id="a_node1"><a xlink:href="a01444.html" target="_top" xlink:title="Random Number Distributions">
<polygon fill="white" stroke="black" points="171,-74.5 171,-92.5 311,-92.5 311,-74.5 171,-74.5"/>
<text text-anchor="middle" x="241" y="-81.3" font-family="Helvetica,sans-Serif" font-size="9.00">Random Number Distributions</text>
</a>
</g>
</g>
<!-- Node0 -->
<g id="node2" class="node"><title>Node0</title>
<polygon fill="#bfbfbf" stroke="black" points="0,-37.5 0,-55.5 135,-55.5 135,-37.5 0,-37.5"/>
<text text-anchor="middle" x="67.5" y="-44.3" font-family="Helvetica,sans-Serif" font-size="9.00">Random Number Generation</text>
</g>
<!-- Node0&#45;&gt;Node2 -->
<g id="edge2" class="edge"><title>Node0&#45;&gt;Node2</title>
<path fill="none" stroke="black" d="M120.457,-57.7093C145.348,-63.0794 174.761,-69.4251 198.183,-74.4782"/>
<polygon fill="black" stroke="black" points="120.967,-54.2389 110.454,-55.5512 119.491,-61.0815 120.967,-54.2389"/>
</g>
<!-- Node3 -->
<g id="node3" class="node"><title>Node3</title>
<g id="a_node3"><a xlink:href="a01449.html" target="_top" xlink:title="Random Number Utilities">
<polygon fill="white" stroke="black" points="181.5,-37.5 181.5,-55.5 300.5,-55.5 300.5,-37.5 181.5,-37.5"/>
<text text-anchor="middle" x="241" y="-44.3" font-family="Helvetica,sans-Serif" font-size="9.00">Random Number Utilities</text>
</a>
</g>
</g>
<!-- Node0&#45;&gt;Node3 -->
<g id="edge3" class="edge"><title>Node0&#45;&gt;Node3</title>
<path fill="none" stroke="black" d="M145.395,-46.5C157.509,-46.5 169.861,-46.5 181.47,-46.5"/>
<polygon fill="black" stroke="black" points="145.297,-43.0001 135.297,-46.5 145.297,-50.0001 145.297,-43.0001"/>
</g>
<!-- Node1 -->
<g id="node4" class="node"><title>Node1</title>
<g id="a_node4"><a xlink:href="a01443.html" target="_top" xlink:title="Random Number Generators">
<polygon fill="white" stroke="black" points="173.5,-0.5 173.5,-18.5 308.5,-18.5 308.5,-0.5 173.5,-0.5"/>
<text text-anchor="middle" x="241" y="-7.3" font-family="Helvetica,sans-Serif" font-size="9.00">Random Number Generators</text>
</a>
</g>
</g>
<!-- Node0&#45;&gt;Node1 -->
<g id="edge1" class="edge"><title>Node0&#45;&gt;Node1</title>
<path fill="none" stroke="black" d="M120.457,-35.2907C145.348,-29.9206 174.761,-23.5749 198.183,-18.5218"/>
<polygon fill="black" stroke="black" points="119.491,-31.9185 110.454,-37.4488 120.967,-38.7611 119.491,-31.9185"/>
</g>
</g>
</svg>
