<?xml version="1.0" encoding="UTF-8" standalone="no"?>
<!DOCTYPE svg PUBLIC "-//W3C//DTD SVG 1.1//EN"
 "http://www.w3.org/Graphics/SVG/1.1/DTD/svg11.dtd">
<!-- Generated by graphviz version 2.38.0 (20140413.2041)
 -->
<!-- Title: Regular Expressions Pages: 1 -->
<svg width="332pt" height="74pt"
 viewBox="0.00 0.00 332.00 74.00" xmlns="http://www.w3.org/2000/svg" xmlns:xlink="http://www.w3.org/1999/xlink">
<g id="graph0" class="graph" transform="scale(1 1) rotate(0) translate(4 70)">
<title>Regular Expressions</title>
<polygon fill="white" stroke="none" points="-4,4 -4,-70 328,-70 328,4 -4,4"/>
<!-- Node2 -->
<g id="node1" class="node"><title>Node2</title>
<g id="a_node1"><a xlink:href="a01440.html" target="_top" xlink:title="Exceptions">
<polygon fill="white" stroke="black" points="232.5,-47.5 232.5,-65.5 294.5,-65.5 294.5,-47.5 232.5,-47.5"/>
<text text-anchor="middle" x="263.5" y="-54.3" font-family="Helvetica,sans-Serif" font-size="9.00">Exceptions</text>
</a>
</g>
</g>
<!-- Node0 -->
<g id="node2" class="node"><title>Node0</title>
<polygon fill="#bfbfbf" stroke="black" points="0,-26.5 0,-44.5 102,-44.5 102,-26.5 0,-26.5"/>
<text text-anchor="middle" x="51" y="-33.3" font-family="Helvetica,sans-Serif" font-size="9.00">Regular Expressions</text>
</g>
<!-- Node0&#45;&gt;Node2 -->
<g id="edge2" class="edge"><title>Node0&#45;&gt;Node2</title>
<path fill="none" stroke="orange" stroke-dasharray="5,2" d="M102.153,-40.5033C142.647,-44.5432 198.295,-50.0948 232.256,-53.4828"/>
<text text-anchor="middle" x="152.5" y="-50.3" font-family="Helvetica,sans-Serif" font-size="9.00">std::regex_error</text>
</g>
<!-- Node1 -->
<g id="node3" class="node"><title>Node1</title>
<g id="a_node3"><a xlink:href="a01412.html" target="_top" xlink:title="Base and Implementation\l Classes">
<polygon fill="white" stroke="black" points="203,-0.5 203,-28.5 324,-28.5 324,-0.5 203,-0.5"/>
<text text-anchor="start" x="211" y="-17.3" font-family="Helvetica,sans-Serif" font-size="9.00">Base and Implementation</text>
<text text-anchor="middle" x="263.5" y="-7.3" font-family="Helvetica,sans-Serif" font-size="9.00"> Classes</text>
</a>
</g>
</g>
<!-- Node0&#45;&gt;Node1 -->
<g id="edge1" class="edge"><title>Node0&#45;&gt;Node1</title>
<path fill="none" stroke="black" d="M112.33,-29.4813C140.665,-26.6546 174.346,-23.2944 202.624,-20.4734"/>
<polygon fill="black" stroke="black" points="111.756,-26.0212 102.153,-30.4967 112.451,-32.9866 111.756,-26.0212"/>
</g>
</g>
</svg>
