<?xml version="1.0" encoding="UTF-8" standalone="no"?>
<!DOCTYPE svg PUBLIC "-//W3C//DTD SVG 1.1//EN"
 "http://www.w3.org/Graphics/SVG/1.1/DTD/svg11.dtd">
<!-- Generated by graphviz version 2.38.0 (20140413.2041)
 -->
<!-- Title: Function Objects Pages: 1 -->
<svg width="314pt" height="316pt"
 viewBox="0.00 0.00 314.00 316.00" xmlns="http://www.w3.org/2000/svg" xmlns:xlink="http://www.w3.org/1999/xlink">
<g id="graph0" class="graph" transform="scale(1 1) rotate(0) translate(4 312)">
<title>Function Objects</title>
<polygon fill="white" stroke="none" points="-4,4 -4,-312 310,-312 310,4 -4,4"/>
<!-- Node1 -->
<g id="node1" class="node"><title>Node1</title>
<g id="a_node1"><a xlink:href="a01442.html" target="_top" xlink:title="Utilities">
<polygon fill="white" stroke="black" points="0,-132.5 0,-150.5 47,-150.5 47,-132.5 0,-132.5"/>
<text text-anchor="middle" x="23.5" y="-139.3" font-family="Helvetica,sans-Serif" font-size="9.00">Utilities</text>
</a>
</g>
</g>
<!-- Node0 -->
<g id="node9" class="node"><title>Node0</title>
<polygon fill="#bfbfbf" stroke="black" points="83,-132.5 83,-150.5 168,-150.5 168,-132.5 83,-132.5"/>
<text text-anchor="middle" x="125.5" y="-139.3" font-family="Helvetica,sans-Serif" font-size="9.00">Function Objects</text>
</g>
<!-- Node1&#45;&gt;Node0 -->
<g id="edge1" class="edge"><title>Node1&#45;&gt;Node0</title>
<path fill="none" stroke="black" d="M57.3381,-141.5C65.4185,-141.5 74.1795,-141.5 82.6229,-141.5"/>
<polygon fill="black" stroke="black" points="57.1916,-138 47.1915,-141.5 57.1915,-145 57.1916,-138"/>
</g>
<!-- Node2 -->
<g id="node2" class="node"><title>Node2</title>
<g id="a_node2"><a xlink:href="a01407.html" target="_top" xlink:title="Hashes">
<polygon fill="white" stroke="black" points="231,-289.5 231,-307.5 279,-307.5 279,-289.5 231,-289.5"/>
<text text-anchor="middle" x="255" y="-296.3" font-family="Helvetica,sans-Serif" font-size="9.00">Hashes</text>
</a>
</g>
</g>
<!-- Node5 -->
<g id="node3" class="node"><title>Node5</title>
<g id="a_node3"><a xlink:href="a01417.html" target="_top" xlink:title="Boolean Operations\l Classes">
<polygon fill="white" stroke="black" points="206,-242.5 206,-270.5 304,-270.5 304,-242.5 206,-242.5"/>
<text text-anchor="start" x="214" y="-259.3" font-family="Helvetica,sans-Serif" font-size="9.00">Boolean Operations</text>
<text text-anchor="middle" x="255" y="-249.3" font-family="Helvetica,sans-Serif" font-size="9.00"> Classes</text>
</a>
</g>
</g>
<!-- Node8 -->
<g id="node4" class="node"><title>Node8</title>
<g id="a_node4"><a xlink:href="a01420.html" target="_top" xlink:title="Adaptors for pointers\l to members">
<polygon fill="white" stroke="black" points="204.5,-195.5 204.5,-223.5 305.5,-223.5 305.5,-195.5 204.5,-195.5"/>
<text text-anchor="start" x="212.5" y="-212.3" font-family="Helvetica,sans-Serif" font-size="9.00">Adaptors for pointers</text>
<text text-anchor="middle" x="255" y="-202.3" font-family="Helvetica,sans-Serif" font-size="9.00"> to members</text>
</a>
</g>
</g>
<!-- Node7 -->
<g id="node5" class="node"><title>Node7</title>
<g id="a_node5"><a xlink:href="a01419.html" target="_top" xlink:title="Adaptors for pointers\l to functions">
<polygon fill="white" stroke="black" points="204.5,-148.5 204.5,-176.5 305.5,-176.5 305.5,-148.5 204.5,-148.5"/>
<text text-anchor="start" x="212.5" y="-165.3" font-family="Helvetica,sans-Serif" font-size="9.00">Adaptors for pointers</text>
<text text-anchor="middle" x="255" y="-155.3" font-family="Helvetica,sans-Serif" font-size="9.00"> to functions</text>
</a>
</g>
</g>
<!-- Node9 -->
<g id="node6" class="node"><title>Node9</title>
<g id="a_node6"><a xlink:href="a01425.html" target="_top" xlink:title="Binder Classes">
<polygon fill="white" stroke="black" points="215.5,-111.5 215.5,-129.5 294.5,-129.5 294.5,-111.5 215.5,-111.5"/>
<text text-anchor="middle" x="255" y="-118.3" font-family="Helvetica,sans-Serif" font-size="9.00">Binder Classes</text>
</a>
</g>
</g>
<!-- Node4 -->
<g id="node7" class="node"><title>Node4</title>
<g id="a_node7"><a xlink:href="a01416.html" target="_top" xlink:title="Comparison Classes">
<polygon fill="white" stroke="black" points="204,-74.5 204,-92.5 306,-92.5 306,-74.5 204,-74.5"/>
<text text-anchor="middle" x="255" y="-81.3" font-family="Helvetica,sans-Serif" font-size="9.00">Comparison Classes</text>
</a>
</g>
</g>
<!-- Node6 -->
<g id="node8" class="node"><title>Node6</title>
<g id="a_node8"><a xlink:href="a01418.html" target="_top" xlink:title="Negators">
<polygon fill="white" stroke="black" points="228,-37.5 228,-55.5 282,-55.5 282,-37.5 228,-37.5"/>
<text text-anchor="middle" x="255" y="-44.3" font-family="Helvetica,sans-Serif" font-size="9.00">Negators</text>
</a>
</g>
</g>
<!-- Node0&#45;&gt;Node2 -->
<g id="edge2" class="edge"><title>Node0&#45;&gt;Node2</title>
<path fill="none" stroke="black" d="M132.188,-160.319C142.073,-189.961 165.168,-247.535 204,-280.5 211.596,-286.948 221.682,-291.16 230.805,-293.873"/>
<polygon fill="black" stroke="black" points="135.512,-159.223 129.139,-150.76 128.843,-161.351 135.512,-159.223"/>
</g>
<!-- Node0&#45;&gt;Node5 -->
<g id="edge5" class="edge"><title>Node0&#45;&gt;Node5</title>
<path fill="none" stroke="black" d="M137.911,-159.292C151.588,-179.469 176.176,-212.307 204,-233.5 208.333,-236.8 213.215,-239.771 218.187,-242.395"/>
<polygon fill="black" stroke="black" points="140.7,-157.165 132.264,-150.755 134.862,-161.026 140.7,-157.165"/>
</g>
<!-- Node0&#45;&gt;Node8 -->
<g id="edge8" class="edge"><title>Node0&#45;&gt;Node8</title>
<path fill="none" stroke="black" d="M149.865,-155.845C165.08,-164.991 185.473,-176.887 204,-186.5 209.852,-189.536 216.182,-192.607 222.307,-195.472"/>
<polygon fill="black" stroke="black" points="151.491,-152.738 141.124,-150.551 147.864,-158.725 151.491,-152.738"/>
</g>
<!-- Node0&#45;&gt;Node7 -->
<g id="edge7" class="edge"><title>Node0&#45;&gt;Node7</title>
<path fill="none" stroke="black" d="M178.148,-150.007C186.734,-151.421 195.624,-152.885 204.163,-154.292"/>
<polygon fill="black" stroke="black" points="178.684,-146.548 168.248,-148.376 177.546,-153.455 178.684,-146.548"/>
</g>
<!-- Node0&#45;&gt;Node9 -->
<g id="edge9" class="edge"><title>Node0&#45;&gt;Node9</title>
<path fill="none" stroke="black" d="M178.389,-132.954C190.683,-130.929 203.586,-128.803 215.183,-126.893"/>
<polygon fill="black" stroke="black" points="177.546,-129.545 168.248,-134.624 178.684,-136.452 177.546,-129.545"/>
</g>
<!-- Node0&#45;&gt;Node4 -->
<g id="edge4" class="edge"><title>Node0&#45;&gt;Node4</title>
<path fill="none" stroke="black" d="M152.315,-127.67C167.237,-119.888 186.472,-110.216 204,-102.5 211.904,-99.0205 220.664,-95.5616 228.615,-92.5675"/>
<polygon fill="black" stroke="black" points="150.412,-124.716 143.193,-132.471 153.672,-130.911 150.412,-124.716"/>
</g>
<!-- Node0&#45;&gt;Node6 -->
<g id="edge6" class="edge"><title>Node0&#45;&gt;Node6</title>
<path fill="none" stroke="black" d="M140.283,-124.341C154.652,-107.409 178.59,-81.7648 204,-65.5 211.274,-60.8441 219.861,-57.0635 227.848,-54.1367"/>
<polygon fill="black" stroke="black" points="137.369,-122.372 133.683,-132.305 142.759,-126.838 137.369,-122.372"/>
</g>
<!-- Node3 -->
<g id="node10" class="node"><title>Node3</title>
<g id="a_node10"><a xlink:href="a01415.html" target="_top" xlink:title="Arithmetic Classes">
<polygon fill="white" stroke="black" points="209,-0.5 209,-18.5 301,-18.5 301,-0.5 209,-0.5"/>
<text text-anchor="middle" x="255" y="-7.3" font-family="Helvetica,sans-Serif" font-size="9.00">Arithmetic Classes</text>
</a>
</g>
</g>
<!-- Node0&#45;&gt;Node3 -->
<g id="edge3" class="edge"><title>Node0&#45;&gt;Node3</title>
<path fill="none" stroke="black" d="M134.859,-122.821C146.834,-98.0237 171.113,-54.3625 204,-28.5 209.183,-24.4244 215.336,-21.148 221.524,-18.541"/>
<polygon fill="black" stroke="black" points="131.545,-121.644 130.49,-132.187 137.889,-124.604 131.545,-121.644"/>
</g>
</g>
</svg>
