<?xml version="1.0" encoding="UTF-8" standalone="no"?>
<!DOCTYPE svg PUBLIC "-//W3C//DTD SVG 1.1//EN"
 "http://www.w3.org/Graphics/SVG/1.1/DTD/svg11.dtd">
<!-- Generated by graphviz version 2.38.0 (20140413.2041)
 -->
<!-- Title: Iterator Tags Pages: 1 -->
<svg width="251pt" height="33pt"
 viewBox="0.00 0.00 251.00 33.38" xmlns="http://www.w3.org/2000/svg" xmlns:xlink="http://www.w3.org/1999/xlink">
<g id="graph0" class="graph" transform="scale(1 1) rotate(0) translate(4 29.3833)">
<title>Iterator Tags</title>
<polygon fill="white" stroke="none" points="-4,4 -4,-29.3833 247,-29.3833 247,4 -4,4"/>
<!-- Node1 -->
<g id="node1" class="node"><title>Node1</title>
<g id="a_node1"><a xlink:href="a01422.html" target="_top" xlink:title="Iterators">
<polygon fill="white" stroke="black" points="0,-6.88328 0,-24.8833 50,-24.8833 50,-6.88328 0,-6.88328"/>
<text text-anchor="middle" x="25" y="-13.6833" font-family="Helvetica,sans-Serif" font-size="9.00">Iterators</text>
</a>
</g>
</g>
<!-- Node0 -->
<g id="node2" class="node"><title>Node0</title>
<polygon fill="#bfbfbf" stroke="black" points="175,-6.88328 175,-24.8833 243,-24.8833 243,-6.88328 175,-6.88328"/>
<text text-anchor="middle" x="209" y="-13.6833" font-family="Helvetica,sans-Serif" font-size="9.00">Iterator Tags</text>
</g>
<!-- Node1&#45;&gt;Node0 -->
<g id="edge1" class="edge"><title>Node1&#45;&gt;Node0</title>
<path fill="none" stroke="black" d="M60.2062,-15.8833C93.0301,-15.8833 142.278,-15.8833 174.771,-15.8833"/>
<polygon fill="black" stroke="black" points="60.1682,-12.3834 50.1682,-15.8833 60.1682,-19.3834 60.1682,-12.3834"/>
</g>
<!-- Node0&#45;&gt;Node1 -->
<g id="edge2" class="edge"><title>Node0&#45;&gt;Node1</title>
<path fill="none" stroke="orange" stroke-dasharray="5,2" d="M174.727,-6.89083C168.861,-5.63999 162.783,-4.55442 157,-3.88328 117.708,0.677021 107.173,1.60313 68,-3.88328 62.1421,-4.70371 55.9548,-6.1382 50.1826,-7.7364"/>
<text text-anchor="middle" x="112.5" y="-6.68328" font-family="Helvetica,sans-Serif" font-size="9.00">std::input_iterator_tag</text>
</g>
</g>
</svg>
