<?xml version="1.0" encoding="UTF-8" standalone="no"?>
<!DOCTYPE svg PUBLIC "-//W3C//DTD SVG 1.1//EN"
 "http://www.w3.org/Graphics/SVG/1.1/DTD/svg11.dtd">
<!-- Generated by graphviz version 2.38.0 (20140413.2041)
 -->
<!-- Title: Containers Pages: 1 -->
<svg width="353pt" height="138pt"
 viewBox="0.00 0.00 353.00 138.00" xmlns="http://www.w3.org/2000/svg" xmlns:xlink="http://www.w3.org/1999/xlink">
<g id="graph0" class="graph" transform="scale(1 1) rotate(0) translate(4 134)">
<title>Containers</title>
<polygon fill="white" stroke="none" points="-4,4 -4,-134 349,-134 349,4 -4,4"/>
<!-- Node1 -->
<g id="node1" class="node"><title>Node1</title>
<g id="a_node1"><a xlink:href="a01435.html" target="_top" xlink:title="Policy&#45;Based Data Structures">
<polygon fill="white" stroke="black" points="0,-55.5 0,-73.5 136,-73.5 136,-55.5 0,-55.5"/>
<text text-anchor="middle" x="68" y="-62.3" font-family="Helvetica,sans-Serif" font-size="9.00">Policy&#45;Based Data Structures</text>
</a>
</g>
</g>
<!-- Node0 -->
<g id="node2" class="node"><title>Node0</title>
<polygon fill="#bfbfbf" stroke="black" points="172,-55.5 172,-73.5 234,-73.5 234,-55.5 172,-55.5"/>
<text text-anchor="middle" x="203" y="-62.3" font-family="Helvetica,sans-Serif" font-size="9.00">Containers</text>
</g>
<!-- Node1&#45;&gt;Node0 -->
<g id="edge1" class="edge"><title>Node1&#45;&gt;Node0</title>
<path fill="none" stroke="black" d="M146.488,-64.5C155.459,-64.5 164.156,-64.5 171.901,-64.5"/>
<polygon fill="black" stroke="black" points="146.279,-61.0001 136.279,-64.5 146.279,-68.0001 146.279,-61.0001"/>
</g>
<!-- Node5 -->
<g id="node3" class="node"><title>Node5</title>
<g id="a_node3"><a xlink:href="a01433.html" target="_top" xlink:title="Heap&#45;Based">
<polygon fill="white" stroke="black" points="273.5,-111.5 273.5,-129.5 341.5,-129.5 341.5,-111.5 273.5,-111.5"/>
<text text-anchor="middle" x="307.5" y="-118.3" font-family="Helvetica,sans-Serif" font-size="9.00">Heap&#45;Based</text>
</a>
</g>
</g>
<!-- Node0&#45;&gt;Node5 -->
<g id="edge5" class="edge"><title>Node0&#45;&gt;Node5</title>
<path fill="none" stroke="black" d="M227.891,-78.7497C240.338,-86.0471 255.872,-94.959 270,-102.5 275.61,-105.494 281.787,-108.608 287.438,-111.387"/>
<polygon fill="black" stroke="black" points="229.441,-75.6002 219.049,-73.5335 225.884,-81.6292 229.441,-75.6002"/>
</g>
<!-- Node4 -->
<g id="node4" class="node"><title>Node4</title>
<g id="a_node4"><a xlink:href="a01431.html" target="_top" xlink:title="List&#45;Based">
<polygon fill="white" stroke="black" points="277.5,-74.5 277.5,-92.5 337.5,-92.5 337.5,-74.5 277.5,-74.5"/>
<text text-anchor="middle" x="307.5" y="-81.3" font-family="Helvetica,sans-Serif" font-size="9.00">List&#45;Based</text>
</a>
</g>
</g>
<!-- Node0&#45;&gt;Node4 -->
<g id="edge4" class="edge"><title>Node0&#45;&gt;Node4</title>
<path fill="none" stroke="black" d="M244.079,-71.9294C255.13,-73.9777 266.908,-76.161 277.222,-78.0728"/>
<polygon fill="black" stroke="black" points="244.669,-68.4792 234.199,-70.0979 243.394,-75.3619 244.669,-68.4792"/>
</g>
<!-- Node2 -->
<g id="node5" class="node"><title>Node2</title>
<g id="a_node5"><a xlink:href="a01427.html" target="_top" xlink:title="Hash&#45;Based">
<polygon fill="white" stroke="black" points="273.5,-37.5 273.5,-55.5 341.5,-55.5 341.5,-37.5 273.5,-37.5"/>
<text text-anchor="middle" x="307.5" y="-44.3" font-family="Helvetica,sans-Serif" font-size="9.00">Hash&#45;Based</text>
</a>
</g>
</g>
<!-- Node0&#45;&gt;Node2 -->
<g id="edge2" class="edge"><title>Node0&#45;&gt;Node2</title>
<path fill="none" stroke="black" d="M244.333,-57.4172C253.927,-55.7323 264.058,-53.9533 273.292,-52.3317"/>
<polygon fill="black" stroke="black" points="243.443,-54.0198 234.199,-59.1968 244.654,-60.9143 243.443,-54.0198"/>
</g>
<!-- Node3 -->
<g id="node6" class="node"><title>Node3</title>
<g id="a_node6"><a xlink:href="a01429.html" target="_top" xlink:title="Branch&#45;Based">
<polygon fill="white" stroke="black" points="270,-0.5 270,-18.5 345,-18.5 345,-0.5 270,-0.5"/>
<text text-anchor="middle" x="307.5" y="-7.3" font-family="Helvetica,sans-Serif" font-size="9.00">Branch&#45;Based</text>
</a>
</g>
</g>
<!-- Node0&#45;&gt;Node3 -->
<g id="edge3" class="edge"><title>Node0&#45;&gt;Node3</title>
<path fill="none" stroke="black" d="M229.28,-50.5618C241.543,-43.8385 256.507,-35.6908 270,-28.5 276.178,-25.2073 282.975,-21.6512 289.012,-18.5159"/>
<polygon fill="black" stroke="black" points="227.577,-47.5039 220.497,-55.3861 230.947,-53.6392 227.577,-47.5039"/>
</g>
</g>
</svg>
