<?xml version="1.0" encoding="UTF-8" standalone="no"?>
<!DOCTYPE svg PUBLIC "-//W3C//DTD SVG 1.1//EN"
 "http://www.w3.org/Graphics/SVG/1.1/DTD/svg11.dtd">
<!-- Generated by graphviz version 2.38.0 (20140413.2041)
 -->
<!-- Title: Tags Pages: 1 -->
<svg width="367pt" height="64pt"
 viewBox="0.00 0.00 367.00 64.00" xmlns="http://www.w3.org/2000/svg" xmlns:xlink="http://www.w3.org/1999/xlink">
<g id="graph0" class="graph" transform="scale(1 1) rotate(0) translate(4 60)">
<title>Tags</title>
<polygon fill="white" stroke="none" points="-4,4 -4,-60 363,-60 363,4 -4,4"/>
<!-- Node1 -->
<g id="node1" class="node"><title>Node1</title>
<g id="a_node1"><a xlink:href="a01435.html" target="_top" xlink:title="Policy&#45;Based Data Structures">
<polygon fill="white" stroke="black" points="0,-18.5 0,-36.5 136,-36.5 136,-18.5 0,-18.5"/>
<text text-anchor="middle" x="68" y="-25.3" font-family="Helvetica,sans-Serif" font-size="9.00">Policy&#45;Based Data Structures</text>
</a>
</g>
</g>
<!-- Node0 -->
<g id="node2" class="node"><title>Node0</title>
<polygon fill="#bfbfbf" stroke="black" points="172,-18.5 172,-36.5 209,-36.5 209,-18.5 172,-18.5"/>
<text text-anchor="middle" x="190.5" y="-25.3" font-family="Helvetica,sans-Serif" font-size="9.00">Tags</text>
</g>
<!-- Node1&#45;&gt;Node0 -->
<g id="edge1" class="edge"><title>Node1&#45;&gt;Node0</title>
<path fill="none" stroke="black" d="M146.336,-27.5C155.799,-27.5 164.649,-27.5 171.841,-27.5"/>
<polygon fill="black" stroke="black" points="146.296,-24.0001 136.296,-27.5 146.296,-31.0001 146.296,-24.0001"/>
</g>
<!-- Node2 -->
<g id="node3" class="node"><title>Node2</title>
<g id="a_node3"><a xlink:href="a01437.html" target="_top" xlink:title="Invalidation Guarantees">
<polygon fill="white" stroke="black" points="245,-37.5 245,-55.5 359,-55.5 359,-37.5 245,-37.5"/>
<text text-anchor="middle" x="302" y="-44.3" font-family="Helvetica,sans-Serif" font-size="9.00">Invalidation Guarantees</text>
</a>
</g>
</g>
<!-- Node0&#45;&gt;Node2 -->
<g id="edge2" class="edge"><title>Node0&#45;&gt;Node2</title>
<path fill="none" stroke="black" d="M219.067,-32.2833C228.163,-33.8615 238.6,-35.6725 248.911,-37.4617"/>
<polygon fill="black" stroke="black" points="219.544,-28.8139 209.093,-30.5527 218.347,-35.7108 219.544,-28.8139"/>
</g>
<!-- Node3 -->
<g id="node4" class="node"><title>Node3</title>
<g id="a_node4"><a xlink:href="a01438.html" target="_top" xlink:title="Data Structure Type">
<polygon fill="white" stroke="black" points="253,-0.5 253,-18.5 351,-18.5 351,-0.5 253,-0.5"/>
<text text-anchor="middle" x="302" y="-7.3" font-family="Helvetica,sans-Serif" font-size="9.00">Data Structure Type</text>
</a>
</g>
</g>
<!-- Node0&#45;&gt;Node3 -->
<g id="edge3" class="edge"><title>Node0&#45;&gt;Node3</title>
<path fill="none" stroke="black" d="M219.047,-22.9717C229.272,-21.2909 241.194,-19.3311 252.728,-17.4352"/>
<polygon fill="black" stroke="black" points="218.393,-19.5322 209.093,-24.608 219.528,-26.4395 218.393,-19.5322"/>
</g>
</g>
</svg>
