<?xml version="1.0" encoding="UTF-8" standalone="no"?>
<!DOCTYPE svg PUBLIC "-//W3C//DTD SVG 1.1//EN"
 "http://www.w3.org/Graphics/SVG/1.1/DTD/svg11.dtd">
<!-- Generated by graphviz version 2.38.0 (20140413.2041)
 -->
<!-- Title: Policy&#45;Based Data Structures Pages: 1 -->
<svg width="340pt" height="138pt"
 viewBox="0.00 0.00 340.00 138.00" xmlns="http://www.w3.org/2000/svg" xmlns:xlink="http://www.w3.org/1999/xlink">
<g id="graph0" class="graph" transform="scale(1 1) rotate(0) translate(4 134)">
<title>Policy&#45;Based Data Structures</title>
<polygon fill="white" stroke="none" points="-4,4 -4,-134 336,-134 336,4 -4,4"/>
<!-- Node0 -->
<g id="node1" class="node"><title>Node0</title>
<polygon fill="#bfbfbf" stroke="black" points="98,-55.5 98,-73.5 234,-73.5 234,-55.5 98,-55.5"/>
<text text-anchor="middle" x="166" y="-62.3" font-family="Helvetica,sans-Serif" font-size="9.00">Policy&#45;Based Data Structures</text>
</g>
<!-- Node4 -->
<g id="node2" class="node"><title>Node4</title>
<g id="a_node2"><a xlink:href="a01436.html" target="_top" xlink:title="Tags">
<polygon fill="white" stroke="black" points="282.5,-111.5 282.5,-129.5 319.5,-129.5 319.5,-111.5 282.5,-111.5"/>
<text text-anchor="middle" x="301" y="-118.3" font-family="Helvetica,sans-Serif" font-size="9.00">Tags</text>
</a>
</g>
</g>
<!-- Node0&#45;&gt;Node4 -->
<g id="edge4" class="edge"><title>Node0&#45;&gt;Node4</title>
<path fill="none" stroke="black" d="M198.129,-77.6071C224.276,-88.6162 260.712,-103.958 282.181,-112.997"/>
<polygon fill="black" stroke="black" points="199.239,-74.2769 188.665,-73.622 196.523,-80.7284 199.239,-74.2769"/>
</g>
<!-- Node2 -->
<g id="node4" class="node"><title>Node2</title>
<g id="a_node4"><a xlink:href="a01426.html" target="_top" xlink:title="Containers">
<polygon fill="white" stroke="black" points="270,-74.5 270,-92.5 332,-92.5 332,-74.5 270,-74.5"/>
<text text-anchor="middle" x="301" y="-81.3" font-family="Helvetica,sans-Serif" font-size="9.00">Containers</text>
</a>
</g>
</g>
<!-- Node0&#45;&gt;Node2 -->
<g id="edge2" class="edge"><title>Node0&#45;&gt;Node2</title>
<path fill="none" stroke="black" d="M240.395,-74.9851C250.8,-76.4714 260.977,-77.9253 269.893,-79.199"/>
<polygon fill="black" stroke="black" points="240.778,-71.5043 230.384,-73.5548 239.788,-78.434 240.778,-71.5043"/>
</g>
<!-- Node3 -->
<g id="node5" class="node"><title>Node3</title>
<g id="a_node5"><a xlink:href="a01432.html" target="_top" xlink:title="Exceptions">
<polygon fill="white" stroke="black" points="270,-37.5 270,-55.5 332,-55.5 332,-37.5 270,-37.5"/>
<text text-anchor="middle" x="301" y="-44.3" font-family="Helvetica,sans-Serif" font-size="9.00">Exceptions</text>
</a>
</g>
</g>
<!-- Node0&#45;&gt;Node3 -->
<g id="edge3" class="edge"><title>Node0&#45;&gt;Node3</title>
<path fill="none" stroke="black" d="M243.852,-54.0989C252.968,-52.8652 261.818,-51.6674 269.694,-50.6015"/>
<polygon fill="black" stroke="black" points="243.33,-50.6376 233.89,-55.4473 244.269,-57.5744 243.33,-50.6376"/>
</g>
<!-- Node5 -->
<g id="node6" class="node"><title>Node5</title>
<g id="a_node6"><a xlink:href="a01439.html" target="_top" xlink:title="Traits">
<polygon fill="white" stroke="black" points="281.5,-0.5 281.5,-18.5 320.5,-18.5 320.5,-0.5 281.5,-0.5"/>
<text text-anchor="middle" x="301" y="-7.3" font-family="Helvetica,sans-Serif" font-size="9.00">Traits</text>
</a>
</g>
</g>
<!-- Node0&#45;&gt;Node5 -->
<g id="edge5" class="edge"><title>Node0&#45;&gt;Node5</title>
<path fill="none" stroke="black" d="M198.326,-51.5456C224.16,-40.8624 259.939,-26.0668 281.441,-17.1746"/>
<polygon fill="black" stroke="black" points="196.866,-48.362 188.962,-55.4179 199.541,-54.8307 196.866,-48.362"/>
</g>
<!-- Node1 -->
<g id="node3" class="node"><title>Node1</title>
<g id="a_node3"><a xlink:href="a01392.html" target="_top" xlink:title="Extensions">
<polygon fill="white" stroke="black" points="0,-55.5 0,-73.5 62,-73.5 62,-55.5 0,-55.5"/>
<text text-anchor="middle" x="31" y="-62.3" font-family="Helvetica,sans-Serif" font-size="9.00">Extensions</text>
</a>
</g>
</g>
<!-- Node1&#45;&gt;Node0 -->
<g id="edge1" class="edge"><title>Node1&#45;&gt;Node0</title>
<path fill="none" stroke="black" d="M72.3673,-64.5C80.4211,-64.5 89.0831,-64.5 97.7618,-64.5"/>
<polygon fill="black" stroke="black" points="72.1798,-61.0001 62.1798,-64.5 72.1797,-68.0001 72.1798,-61.0001"/>
</g>
</g>
</svg>
