<?xml version="1.0" encoding="UTF-8" standalone="no"?>
<!DOCTYPE svg PUBLIC "-//W3C//DTD SVG 1.1//EN"
 "http://www.w3.org/Graphics/SVG/1.1/DTD/svg11.dtd">
<!-- Generated by graphviz version 2.38.0 (20140413.2041)
 -->
<!-- Title: Random Number Distributions Pages: 1 -->
<svg width="462pt" height="138pt"
 viewBox="0.00 0.00 462.00 138.00" xmlns="http://www.w3.org/2000/svg" xmlns:xlink="http://www.w3.org/1999/xlink">
<g id="graph0" class="graph" transform="scale(1 1) rotate(0) translate(4 134)">
<title>Random Number Distributions</title>
<polygon fill="white" stroke="none" points="-4,4 -4,-134 458,-134 458,4 -4,4"/>
<!-- Node2 -->
<g id="node1" class="node"><title>Node2</title>
<g id="a_node1"><a xlink:href="a01445.html" target="_top" xlink:title="Uniform Distributions">
<polygon fill="white" stroke="black" points="349.5,-111.5 349.5,-129.5 451.5,-129.5 451.5,-111.5 349.5,-111.5"/>
<text text-anchor="middle" x="400.5" y="-118.3" font-family="Helvetica,sans-Serif" font-size="9.00">Uniform Distributions</text>
</a>
</g>
</g>
<!-- Node0 -->
<g id="node2" class="node"><title>Node0</title>
<polygon fill="#bfbfbf" stroke="black" points="171,-55.5 171,-73.5 311,-73.5 311,-55.5 171,-55.5"/>
<text text-anchor="middle" x="241" y="-62.3" font-family="Helvetica,sans-Serif" font-size="9.00">Random Number Distributions</text>
</g>
<!-- Node0&#45;&gt;Node2 -->
<g id="edge2" class="edge"><title>Node0&#45;&gt;Node2</title>
<path fill="none" stroke="black" d="M276.106,-77.0085C296.621,-84.4912 323.273,-94.1398 347,-102.5 355.361,-105.446 364.493,-108.599 372.762,-111.43"/>
<polygon fill="black" stroke="black" points="277.162,-73.6679 266.568,-73.5243 274.76,-80.243 277.162,-73.6679"/>
</g>
<!-- Node4 -->
<g id="node4" class="node"><title>Node4</title>
<g id="a_node4"><a xlink:href="a01447.html" target="_top" xlink:title="Bernoulli Distributions">
<polygon fill="white" stroke="black" points="347,-74.5 347,-92.5 454,-92.5 454,-74.5 347,-74.5"/>
<text text-anchor="middle" x="400.5" y="-81.3" font-family="Helvetica,sans-Serif" font-size="9.00">Bernoulli Distributions</text>
</a>
</g>
</g>
<!-- Node0&#45;&gt;Node4 -->
<g id="edge4" class="edge"><title>Node0&#45;&gt;Node4</title>
<path fill="none" stroke="black" d="M321.17,-74.0507C329.783,-75.0897 338.389,-76.1278 346.576,-77.1155"/>
<polygon fill="black" stroke="black" points="321.429,-70.5566 311.082,-72.8337 320.591,-77.5062 321.429,-70.5566"/>
</g>
<!-- Node3 -->
<g id="node5" class="node"><title>Node3</title>
<g id="a_node5"><a xlink:href="a01446.html" target="_top" xlink:title="Normal Distributions">
<polygon fill="white" stroke="black" points="350.5,-37.5 350.5,-55.5 450.5,-55.5 450.5,-37.5 350.5,-37.5"/>
<text text-anchor="middle" x="400.5" y="-44.3" font-family="Helvetica,sans-Serif" font-size="9.00">Normal Distributions</text>
</a>
</g>
</g>
<!-- Node0&#45;&gt;Node3 -->
<g id="edge3" class="edge"><title>Node0&#45;&gt;Node3</title>
<path fill="none" stroke="black" d="M321.046,-55.4662C331.031,-54.325 341.01,-53.1845 350.341,-52.1182"/>
<polygon fill="black" stroke="black" points="320.62,-51.992 311.082,-56.6049 321.415,-58.9467 320.62,-51.992"/>
</g>
<!-- Node5 -->
<g id="node6" class="node"><title>Node5</title>
<g id="a_node6"><a xlink:href="a01448.html" target="_top" xlink:title="Poisson Distributions">
<polygon fill="white" stroke="black" points="349,-0.5 349,-18.5 452,-18.5 452,-0.5 349,-0.5"/>
<text text-anchor="middle" x="400.5" y="-7.3" font-family="Helvetica,sans-Serif" font-size="9.00">Poisson Distributions</text>
</a>
</g>
</g>
<!-- Node0&#45;&gt;Node5 -->
<g id="edge5" class="edge"><title>Node0&#45;&gt;Node5</title>
<path fill="none" stroke="black" d="M276.952,-52.1002C297.363,-44.8798 323.623,-35.626 347,-27.5 355.464,-24.5578 364.707,-21.3777 373.046,-18.521"/>
<polygon fill="black" stroke="black" points="275.698,-48.8309 267.44,-55.4676 278.034,-55.4296 275.698,-48.8309"/>
</g>
<!-- Node1 -->
<g id="node3" class="node"><title>Node1</title>
<g id="a_node3"><a xlink:href="a01411.html" target="_top" xlink:title="Random Number Generation">
<polygon fill="white" stroke="black" points="0,-55.5 0,-73.5 135,-73.5 135,-55.5 0,-55.5"/>
<text text-anchor="middle" x="67.5" y="-62.3" font-family="Helvetica,sans-Serif" font-size="9.00">Random Number Generation</text>
</a>
</g>
</g>
<!-- Node1&#45;&gt;Node0 -->
<g id="edge1" class="edge"><title>Node1&#45;&gt;Node0</title>
<path fill="none" stroke="black" d="M145.512,-64.5C153.951,-64.5 162.504,-64.5 170.839,-64.5"/>
<polygon fill="black" stroke="black" points="145.297,-61.0001 135.297,-64.5 145.297,-68.0001 145.297,-61.0001"/>
</g>
</g>
</svg>
