<?xml version="1.0" encoding="UTF-8" standalone="no"?>
<!DOCTYPE svg PUBLIC "-//W3C//DTD SVG 1.1//EN"
 "http://www.w3.org/Graphics/SVG/1.1/DTD/svg11.dtd">
<!-- Generated by graphviz version 2.38.0 (20140413.2041)
 -->
<!-- Title: Branch&#45;Based Pages: 1 -->
<svg width="335pt" height="27pt"
 viewBox="0.00 0.00 335.00 27.00" xmlns="http://www.w3.org/2000/svg" xmlns:xlink="http://www.w3.org/1999/xlink">
<g id="graph0" class="graph" transform="scale(1 1) rotate(0) translate(4 23)">
<title>Branch&#45;Based</title>
<polygon fill="white" stroke="none" points="-4,4 -4,-23 331,-23 331,4 -4,4"/>
<!-- Node2 -->
<g id="node1" class="node"><title>Node2</title>
<g id="a_node1"><a xlink:href="a01430.html" target="_top" xlink:title="Base and Policy Classes">
<polygon fill="white" stroke="black" points="209,-0.5 209,-18.5 327,-18.5 327,-0.5 209,-0.5"/>
<text text-anchor="middle" x="268" y="-7.3" font-family="Helvetica,sans-Serif" font-size="9.00">Base and Policy Classes</text>
</a>
</g>
</g>
<!-- Node1 -->
<g id="node2" class="node"><title>Node1</title>
<g id="a_node2"><a xlink:href="a01426.html" target="_top" xlink:title="Containers">
<polygon fill="white" stroke="black" points="0,-0.5 0,-18.5 62,-18.5 62,-0.5 0,-0.5"/>
<text text-anchor="middle" x="31" y="-7.3" font-family="Helvetica,sans-Serif" font-size="9.00">Containers</text>
</a>
</g>
</g>
<!-- Node0 -->
<g id="node3" class="node"><title>Node0</title>
<polygon fill="#bfbfbf" stroke="black" points="98,-0.5 98,-18.5 173,-18.5 173,-0.5 98,-0.5"/>
<text text-anchor="middle" x="135.5" y="-7.3" font-family="Helvetica,sans-Serif" font-size="9.00">Branch&#45;Based</text>
</g>
<!-- Node1&#45;&gt;Node0 -->
<g id="edge1" class="edge"><title>Node1&#45;&gt;Node0</title>
<path fill="none" stroke="black" d="M72.2707,-9.5C80.7535,-9.5 89.6573,-9.5 97.9925,-9.5"/>
<polygon fill="black" stroke="black" points="72.199,-6.0001 62.199,-9.5 72.199,-13.0001 72.199,-6.0001"/>
</g>
<!-- Node0&#45;&gt;Node2 -->
<g id="edge2" class="edge"><title>Node0&#45;&gt;Node2</title>
<path fill="none" stroke="black" d="M183.315,-9.5C191.515,-9.5 200.137,-9.5 208.604,-9.5"/>
<polygon fill="black" stroke="black" points="183.199,-6.0001 173.199,-9.5 183.199,-13.0001 183.199,-6.0001"/>
</g>
</g>
</svg>
