<?xml version="1.0" encoding="UTF-8" standalone="no"?>
<!DOCTYPE svg PUBLIC "-//W3C//DTD SVG 1.1//EN"
 "http://www.w3.org/Graphics/SVG/1.1/DTD/svg11.dtd">
<!-- Generated by graphviz version 2.38.0 (20140413.2041)
 -->
<!-- Title: __gnu_cxx::__pool_base Pages: 1 -->
<svg width="226pt" height="92pt"
 viewBox="0.00 0.00 226.00 92.00" xmlns="http://www.w3.org/2000/svg" xmlns:xlink="http://www.w3.org/1999/xlink">
<g id="graph0" class="graph" transform="scale(1 1) rotate(0) translate(4 88)">
<title>__gnu_cxx::__pool_base</title>
<polygon fill="white" stroke="none" points="-4,4 -4,-88 222,-88 222,4 -4,4"/>
<!-- Node1 -->
<g id="node1" class="node"><title>Node1</title>
<polygon fill="#bfbfbf" stroke="black" points="49,-65.5 49,-83.5 169,-83.5 169,-65.5 49,-65.5"/>
<text text-anchor="middle" x="109" y="-72.3" font-family="Helvetica,sans-Serif" font-size="9.00">__gnu_cxx::__pool_base</text>
</g>
<!-- Node2 -->
<g id="node2" class="node"><title>Node2</title>
<g id="a_node2"><a xlink:href="a00013.html" target="_top" xlink:title="Specialization for single thread. ">
<polygon fill="white" stroke="black" points="0,-0.5 0,-28.5 100,-28.5 100,-0.5 0,-0.5"/>
<text text-anchor="start" x="8" y="-17.3" font-family="Helvetica,sans-Serif" font-size="9.00">__gnu_cxx::__pool&lt;</text>
<text text-anchor="middle" x="50" y="-7.3" font-family="Helvetica,sans-Serif" font-size="9.00"> false &gt;</text>
</a>
</g>
</g>
<!-- Node1&#45;&gt;Node2 -->
<g id="edge1" class="edge"><title>Node1&#45;&gt;Node2</title>
<path fill="none" stroke="midnightblue" d="M93.3854,-58.15C84.1106,-49.0324 72.4635,-37.5827 63.5728,-28.8428"/>
<polygon fill="midnightblue" stroke="midnightblue" points="91.2114,-60.9209 100.796,-65.4353 96.1187,-55.929 91.2114,-60.9209"/>
</g>
<!-- Node3 -->
<g id="node3" class="node"><title>Node3</title>
<g id="a_node3"><a xlink:href="a00014.html" target="_top" xlink:title="Specialization for thread enabled, via gthreads.h. ">
<polygon fill="white" stroke="black" points="118,-0.5 118,-28.5 218,-28.5 218,-0.5 118,-0.5"/>
<text text-anchor="start" x="126" y="-17.3" font-family="Helvetica,sans-Serif" font-size="9.00">__gnu_cxx::__pool&lt;</text>
<text text-anchor="middle" x="168" y="-7.3" font-family="Helvetica,sans-Serif" font-size="9.00"> true &gt;</text>
</a>
</g>
</g>
<!-- Node1&#45;&gt;Node3 -->
<g id="edge2" class="edge"><title>Node1&#45;&gt;Node3</title>
<path fill="none" stroke="midnightblue" d="M124.615,-58.15C133.889,-49.0324 145.537,-37.5827 154.427,-28.8428"/>
<polygon fill="midnightblue" stroke="midnightblue" points="121.881,-55.929 117.204,-65.4353 126.789,-60.9209 121.881,-55.929"/>
</g>
</g>
</svg>
