<?xml version="1.0" encoding="UTF-8" standalone="no"?>
<!DOCTYPE svg PUBLIC "-//W3C//DTD SVG 1.1//EN"
 "http://www.w3.org/Graphics/SVG/1.1/DTD/svg11.dtd">
<!-- Generated by graphviz version 2.38.0 (20140413.2041)
 -->
<!-- Title: __gnu_cxx::annotate_base Pages: 1 -->
<svg width="489pt" height="131pt"
 viewBox="0.00 0.00 489.00 131.00" xmlns="http://www.w3.org/2000/svg" xmlns:xlink="http://www.w3.org/1999/xlink">
<g id="graph0" class="graph" transform="scale(1 1) rotate(0) translate(4 127)">
<title>__gnu_cxx::annotate_base</title>
<polygon fill="white" stroke="none" points="-4,4 -4,-127 485,-127 485,4 -4,4"/>
<!-- Node1 -->
<g id="node1" class="node"><title>Node1</title>
<polygon fill="#bfbfbf" stroke="black" points="0,-52.5 0,-70.5 128,-70.5 128,-52.5 0,-52.5"/>
<text text-anchor="middle" x="64" y="-59.3" font-family="Helvetica,sans-Serif" font-size="9.00">__gnu_cxx::annotate_base</text>
</g>
<!-- Node2 -->
<g id="node2" class="node"><title>Node2</title>
<g id="a_node2"><a xlink:href="a00056.html" target="_top" xlink:title="Allocator class with logging and exception generation control. Intended to be used as an allocator_ty...">
<polygon fill="white" stroke="black" points="175.5,-94.5 175.5,-122.5 304.5,-122.5 304.5,-94.5 175.5,-94.5"/>
<text text-anchor="start" x="183.5" y="-111.3" font-family="Helvetica,sans-Serif" font-size="9.00">__gnu_cxx::throw_allocator</text>
<text text-anchor="middle" x="240" y="-101.3" font-family="Helvetica,sans-Serif" font-size="9.00">_base&lt; _Tp, _Cond &gt;</text>
</a>
</g>
</g>
<!-- Node1&#45;&gt;Node2 -->
<g id="edge1" class="edge"><title>Node1&#45;&gt;Node2</title>
<path fill="none" stroke="midnightblue" d="M108.378,-73.2171C132.228,-79.6593 161.978,-87.6952 187.059,-94.4701"/>
<polygon fill="midnightblue" stroke="midnightblue" points="109.116,-69.7909 98.549,-70.5621 107.29,-76.5487 109.116,-69.7909"/>
</g>
<!-- Node3 -->
<g id="node3" class="node"><title>Node3</title>
<g id="a_node3"><a xlink:href="a00056.html" target="_top" xlink:title="__gnu_cxx::throw_allocator\l_base\&lt; _Tp, limit_condition \&gt;">
<polygon fill="white" stroke="black" points="171.5,-47.5 171.5,-75.5 308.5,-75.5 308.5,-47.5 171.5,-47.5"/>
<text text-anchor="start" x="179.5" y="-64.3" font-family="Helvetica,sans-Serif" font-size="9.00">__gnu_cxx::throw_allocator</text>
<text text-anchor="middle" x="240" y="-54.3" font-family="Helvetica,sans-Serif" font-size="9.00">_base&lt; _Tp, limit_condition &gt;</text>
</a>
</g>
</g>
<!-- Node1&#45;&gt;Node3 -->
<g id="edge2" class="edge"><title>Node1&#45;&gt;Node3</title>
<path fill="none" stroke="midnightblue" d="M138.61,-61.5C149.467,-61.5 160.609,-61.5 171.338,-61.5"/>
<polygon fill="midnightblue" stroke="midnightblue" points="138.31,-58.0001 128.31,-61.5 138.31,-65.0001 138.31,-58.0001"/>
</g>
<!-- Node5 -->
<g id="node5" class="node"><title>Node5</title>
<g id="a_node5"><a xlink:href="a00056.html" target="_top" xlink:title="__gnu_cxx::throw_allocator\l_base\&lt; _Tp, random_condition \&gt;">
<polygon fill="white" stroke="black" points="164,-0.5 164,-28.5 316,-28.5 316,-0.5 164,-0.5"/>
<text text-anchor="start" x="172" y="-17.3" font-family="Helvetica,sans-Serif" font-size="9.00">__gnu_cxx::throw_allocator</text>
<text text-anchor="middle" x="240" y="-7.3" font-family="Helvetica,sans-Serif" font-size="9.00">_base&lt; _Tp, random_condition &gt;</text>
</a>
</g>
</g>
<!-- Node1&#45;&gt;Node5 -->
<g id="edge4" class="edge"><title>Node1&#45;&gt;Node5</title>
<path fill="none" stroke="midnightblue" d="M108.378,-49.7829C132.228,-43.3407 161.978,-35.3048 187.059,-28.5299"/>
<polygon fill="midnightblue" stroke="midnightblue" points="107.29,-46.4513 98.549,-52.4379 109.116,-53.2091 107.29,-46.4513"/>
</g>
<!-- Node4 -->
<g id="node4" class="node"><title>Node4</title>
<g id="a_node4"><a xlink:href="a00057.html" target="_top" xlink:title="Allocator throwing via limit condition. ">
<polygon fill="white" stroke="black" points="352,-47.5 352,-75.5 481,-75.5 481,-47.5 352,-47.5"/>
<text text-anchor="start" x="360" y="-64.3" font-family="Helvetica,sans-Serif" font-size="9.00">__gnu_cxx::throw_allocator</text>
<text text-anchor="middle" x="416.5" y="-54.3" font-family="Helvetica,sans-Serif" font-size="9.00">_limit&lt; _Tp &gt;</text>
</a>
</g>
</g>
<!-- Node3&#45;&gt;Node4 -->
<g id="edge3" class="edge"><title>Node3&#45;&gt;Node4</title>
<path fill="none" stroke="midnightblue" d="M319.288,-61.5C330.138,-61.5 341.174,-61.5 351.716,-61.5"/>
<polygon fill="midnightblue" stroke="midnightblue" points="318.966,-58.0001 308.966,-61.5 318.966,-65.0001 318.966,-58.0001"/>
</g>
<!-- Node6 -->
<g id="node6" class="node"><title>Node6</title>
<g id="a_node6"><a xlink:href="a00058.html" target="_top" xlink:title="Allocator throwing via random condition. ">
<polygon fill="white" stroke="black" points="352,-0.5 352,-28.5 481,-28.5 481,-0.5 352,-0.5"/>
<text text-anchor="start" x="360" y="-17.3" font-family="Helvetica,sans-Serif" font-size="9.00">__gnu_cxx::throw_allocator</text>
<text text-anchor="middle" x="416.5" y="-7.3" font-family="Helvetica,sans-Serif" font-size="9.00">_random&lt; _Tp &gt;</text>
</a>
</g>
</g>
<!-- Node5&#45;&gt;Node6 -->
<g id="edge5" class="edge"><title>Node5&#45;&gt;Node6</title>
<path fill="none" stroke="midnightblue" d="M326.124,-14.5C334.763,-14.5 343.429,-14.5 351.784,-14.5"/>
<polygon fill="midnightblue" stroke="midnightblue" points="326.016,-11.0001 316.016,-14.5 326.016,-18.0001 326.016,-11.0001"/>
</g>
</g>
</svg>
