<?xml version="1.0" encoding="UTF-8" standalone="no"?>
<!DOCTYPE svg PUBLIC "-//W3C//DTD SVG 1.1//EN"
 "http://www.w3.org/Graphics/SVG/1.1/DTD/svg11.dtd">
<!-- Generated by graphviz version 2.38.0 (20140413.2041)
 -->
<!-- Title: const_iterator_ Pages: 1 -->
<svg width="111pt" height="137pt"
 viewBox="0.00 0.00 111.00 137.00" xmlns="http://www.w3.org/2000/svg" xmlns:xlink="http://www.w3.org/1999/xlink">
<g id="graph0" class="graph" transform="scale(1 1) rotate(0) translate(4 133)">
<title>const_iterator_</title>
<polygon fill="white" stroke="none" points="-4,4 -4,-133 107,-133 107,4 -4,4"/>
<!-- Node1 -->
<g id="node1" class="node"><title>Node1</title>
<polygon fill="#bfbfbf" stroke="black" points="13,-55.5 13,-73.5 90,-73.5 90,-55.5 13,-55.5"/>
<text text-anchor="middle" x="51.5" y="-62.3" font-family="Helvetica,sans-Serif" font-size="9.00">const_iterator_</text>
</g>
<!-- Node3 -->
<g id="node3" class="node"><title>Node3</title>
<g id="a_node3"><a xlink:href="a00428.html" target="_top" xlink:title="Range&#45;type iterator. ">
<polygon fill="white" stroke="black" points="26.5,-0.5 26.5,-18.5 76.5,-18.5 76.5,-0.5 26.5,-0.5"/>
<text text-anchor="middle" x="51.5" y="-7.3" font-family="Helvetica,sans-Serif" font-size="9.00">iterator_</text>
</a>
</g>
</g>
<!-- Node1&#45;&gt;Node3 -->
<g id="edge2" class="edge"><title>Node1&#45;&gt;Node3</title>
<path fill="none" stroke="midnightblue" d="M51.5,-45.1746C51.5,-36.0945 51.5,-25.5949 51.5,-18.5496"/>
<polygon fill="midnightblue" stroke="midnightblue" points="48.0001,-45.2187 51.5,-55.2188 55.0001,-45.2188 48.0001,-45.2187"/>
</g>
<!-- Node2 -->
<g id="node2" class="node"><title>Node2</title>
<g id="a_node2"><a xlink:href="a00434.html" target="_top" xlink:title="Const point&#45;type iterator. ">
<polygon fill="white" stroke="black" points="0,-110.5 0,-128.5 103,-128.5 103,-110.5 0,-110.5"/>
<text text-anchor="middle" x="51.5" y="-117.3" font-family="Helvetica,sans-Serif" font-size="9.00">point_const_iterator_</text>
</a>
</g>
</g>
<!-- Node2&#45;&gt;Node1 -->
<g id="edge1" class="edge"><title>Node2&#45;&gt;Node1</title>
<path fill="none" stroke="midnightblue" d="M51.5,-100.175C51.5,-91.0945 51.5,-80.5949 51.5,-73.5496"/>
<polygon fill="midnightblue" stroke="midnightblue" points="48.0001,-100.219 51.5,-110.219 55.0001,-100.219 48.0001,-100.219"/>
</g>
</g>
</svg>
