<?xml version="1.0" encoding="UTF-8" standalone="no"?>
<!DOCTYPE svg PUBLIC "-//W3C//DTD SVG 1.1//EN"
 "http://www.w3.org/Graphics/SVG/1.1/DTD/svg11.dtd">
<!-- Generated by graphviz version 2.38.0 (20140413.2041)
 -->
<!-- Title: __gnu_cxx::limit_condition Pages: 1 -->
<svg width="636pt" height="84pt"
 viewBox="0.00 0.00 636.00 84.00" xmlns="http://www.w3.org/2000/svg" xmlns:xlink="http://www.w3.org/1999/xlink">
<g id="graph0" class="graph" transform="scale(1 1) rotate(0) translate(4 80)">
<title>__gnu_cxx::limit_condition</title>
<polygon fill="white" stroke="none" points="-4,4 -4,-80 632,-80 632,4 -4,4"/>
<!-- Node1 -->
<g id="node1" class="node"><title>Node1</title>
<polygon fill="#bfbfbf" stroke="black" points="165,-28.5 165,-46.5 290,-46.5 290,-28.5 165,-28.5"/>
<text text-anchor="middle" x="227.5" y="-35.3" font-family="Helvetica,sans-Serif" font-size="9.00">__gnu_cxx::limit_condition</text>
</g>
<!-- Node3 -->
<g id="node3" class="node"><title>Node3</title>
<g id="a_node3"><a xlink:href="a00056.html" target="_top" xlink:title="__gnu_cxx::throw_allocator\l_base\&lt; _Tp, limit_condition \&gt;">
<polygon fill="white" stroke="black" points="326,-47.5 326,-75.5 463,-75.5 463,-47.5 326,-47.5"/>
<text text-anchor="start" x="334" y="-64.3" font-family="Helvetica,sans-Serif" font-size="9.00">__gnu_cxx::throw_allocator</text>
<text text-anchor="middle" x="394.5" y="-54.3" font-family="Helvetica,sans-Serif" font-size="9.00">_base&lt; _Tp, limit_condition &gt;</text>
</a>
</g>
</g>
<!-- Node1&#45;&gt;Node3 -->
<g id="edge2" class="edge"><title>Node1&#45;&gt;Node3</title>
<path fill="none" stroke="midnightblue" d="M300.324,-47.9471C308.849,-49.1871 317.529,-50.4497 325.991,-51.6805"/>
<polygon fill="midnightblue" stroke="midnightblue" points="300.809,-44.4809 290.409,-46.505 299.801,-51.408 300.809,-44.4809"/>
</g>
<!-- Node5 -->
<g id="node5" class="node"><title>Node5</title>
<g id="a_node5"><a xlink:href="a00059.html" target="_top" xlink:title="__gnu_cxx::throw_value\l_base\&lt; limit_condition \&gt;">
<polygon fill="white" stroke="black" points="336.5,-0.5 336.5,-28.5 452.5,-28.5 452.5,-0.5 336.5,-0.5"/>
<text text-anchor="start" x="344.5" y="-17.3" font-family="Helvetica,sans-Serif" font-size="9.00">__gnu_cxx::throw_value</text>
<text text-anchor="middle" x="394.5" y="-7.3" font-family="Helvetica,sans-Serif" font-size="9.00">_base&lt; limit_condition &gt;</text>
</a>
</g>
</g>
<!-- Node1&#45;&gt;Node5 -->
<g id="edge4" class="edge"><title>Node1&#45;&gt;Node5</title>
<path fill="none" stroke="midnightblue" d="M300.429,-27.4735C312.47,-25.7951 324.816,-24.0741 336.419,-22.4567"/>
<polygon fill="midnightblue" stroke="midnightblue" points="299.83,-24.0231 290.409,-28.8702 300.797,-30.956 299.83,-24.0231"/>
</g>
<!-- Node2 -->
<g id="node2" class="node"><title>Node2</title>
<g id="a_node2"><a xlink:href="a00036.html" target="_top" xlink:title="Base struct for condition policy. ">
<polygon fill="white" stroke="black" points="0,-28.5 0,-46.5 129,-46.5 129,-28.5 0,-28.5"/>
<text text-anchor="middle" x="64.5" y="-35.3" font-family="Helvetica,sans-Serif" font-size="9.00">__gnu_cxx::condition_base</text>
</a>
</g>
</g>
<!-- Node2&#45;&gt;Node1 -->
<g id="edge1" class="edge"><title>Node2&#45;&gt;Node1</title>
<path fill="none" stroke="midnightblue" d="M139.165,-37.5C147.773,-37.5 156.487,-37.5 164.908,-37.5"/>
<polygon fill="midnightblue" stroke="midnightblue" points="139.131,-34.0001 129.131,-37.5 139.131,-41.0001 139.131,-34.0001"/>
</g>
<!-- Node4 -->
<g id="node4" class="node"><title>Node4</title>
<g id="a_node4"><a xlink:href="a00057.html" target="_top" xlink:title="Allocator throwing via limit condition. ">
<polygon fill="white" stroke="black" points="499,-47.5 499,-75.5 628,-75.5 628,-47.5 499,-47.5"/>
<text text-anchor="start" x="507" y="-64.3" font-family="Helvetica,sans-Serif" font-size="9.00">__gnu_cxx::throw_allocator</text>
<text text-anchor="middle" x="563.5" y="-54.3" font-family="Helvetica,sans-Serif" font-size="9.00">_limit&lt; _Tp &gt;</text>
</a>
</g>
</g>
<!-- Node3&#45;&gt;Node4 -->
<g id="edge3" class="edge"><title>Node3&#45;&gt;Node4</title>
<path fill="none" stroke="midnightblue" d="M473.689,-61.5C482.152,-61.5 490.688,-61.5 498.948,-61.5"/>
<polygon fill="midnightblue" stroke="midnightblue" points="473.425,-58.0001 463.425,-61.5 473.425,-65.0001 473.425,-58.0001"/>
</g>
<!-- Node6 -->
<g id="node6" class="node"><title>Node6</title>
<g id="a_node6"><a xlink:href="a00060.html" target="_top" xlink:title="Type throwing via limit condition. ">
<polygon fill="white" stroke="black" points="505.5,-0.5 505.5,-28.5 621.5,-28.5 621.5,-0.5 505.5,-0.5"/>
<text text-anchor="start" x="513.5" y="-17.3" font-family="Helvetica,sans-Serif" font-size="9.00">__gnu_cxx::throw_value</text>
<text text-anchor="middle" x="563.5" y="-7.3" font-family="Helvetica,sans-Serif" font-size="9.00">_limit</text>
</a>
</g>
</g>
<!-- Node5&#45;&gt;Node6 -->
<g id="edge5" class="edge"><title>Node5&#45;&gt;Node6</title>
<path fill="none" stroke="midnightblue" d="M462.691,-14.5C476.871,-14.5 491.705,-14.5 505.469,-14.5"/>
<polygon fill="midnightblue" stroke="midnightblue" points="462.505,-11.0001 452.505,-14.5 462.505,-18.0001 462.505,-11.0001"/>
</g>
</g>
</svg>
