<?xml version="1.0" encoding="UTF-8" standalone="no"?>
<!DOCTYPE svg PUBLIC "-//W3C//DTD SVG 1.1//EN"
 "http://www.w3.org/Graphics/SVG/1.1/DTD/svg11.dtd">
<!-- Generated by graphviz version 2.38.0 (20140413.2041)
 -->
<!-- Title: __gnu_debug::_Safe_iterator&lt; _Iterator, _Sequence &gt; Pages: 1 -->
<svg width="111pt" height="112pt"
 viewBox="0.00 0.00 111.00 112.00" xmlns="http://www.w3.org/2000/svg" xmlns:xlink="http://www.w3.org/1999/xlink">
<g id="graph0" class="graph" transform="scale(1 1) rotate(0) translate(4 108)">
<title>__gnu_debug::_Safe_iterator&lt; _Iterator, _Sequence &gt;</title>
<polygon fill="white" stroke="none" points="-4,4 -4,-108 107,-108 107,4 -4,4"/>
<!-- Node1 -->
<g id="node1" class="node"><title>Node1</title>
<polygon fill="#bfbfbf" stroke="black" points="0,-0.5 0,-38.5 103,-38.5 103,-0.5 0,-0.5"/>
<text text-anchor="start" x="8" y="-27.3" font-family="Helvetica,sans-Serif" font-size="9.00">__gnu_debug::_Safe</text>
<text text-anchor="start" x="8" y="-17.3" font-family="Helvetica,sans-Serif" font-size="9.00">_iterator&lt; _Iterator,</text>
<text text-anchor="middle" x="51.5" y="-7.3" font-family="Helvetica,sans-Serif" font-size="9.00"> _Sequence &gt;</text>
</g>
<!-- Node2 -->
<g id="node2" class="node"><title>Node2</title>
<g id="a_node2"><a xlink:href="a00068.html" target="_top" xlink:title="Basic functionality for a safe iterator. ">
<polygon fill="white" stroke="black" points="0,-75.5 0,-103.5 103,-103.5 103,-75.5 0,-75.5"/>
<text text-anchor="start" x="8" y="-92.3" font-family="Helvetica,sans-Serif" font-size="9.00">__gnu_debug::_Safe</text>
<text text-anchor="middle" x="51.5" y="-82.3" font-family="Helvetica,sans-Serif" font-size="9.00">_iterator_base</text>
</a>
</g>
</g>
<!-- Node2&#45;&gt;Node1 -->
<g id="edge1" class="edge"><title>Node2&#45;&gt;Node1</title>
<path fill="none" stroke="midnightblue" d="M51.5,-65.172C51.5,-56.5199 51.5,-46.8416 51.5,-38.7116"/>
<polygon fill="midnightblue" stroke="midnightblue" points="48.0001,-65.3889 51.5,-75.3889 55.0001,-65.389 48.0001,-65.3889"/>
</g>
</g>
</svg>
