<?xml version="1.0" encoding="UTF-8" standalone="no"?>
<!DOCTYPE svg PUBLIC "-//W3C//DTD SVG 1.1//EN"
 "http://www.w3.org/Graphics/SVG/1.1/DTD/svg11.dtd">
<!-- Generated by graphviz version 2.38.0 (20140413.2041)
 -->
<!-- Title: __gnu_debug::_Safe_unordered_container_base Pages: 1 -->
<svg width="142pt" height="177pt"
 viewBox="0.00 0.00 142.00 177.00" xmlns="http://www.w3.org/2000/svg" xmlns:xlink="http://www.w3.org/1999/xlink">
<g id="graph0" class="graph" transform="scale(1 1) rotate(0) translate(4 173)">
<title>__gnu_debug::_Safe_unordered_container_base</title>
<polygon fill="white" stroke="none" points="-4,4 -4,-173 138,-173 138,4 -4,4"/>
<!-- Node1 -->
<g id="node1" class="node"><title>Node1</title>
<polygon fill="#bfbfbf" stroke="black" points="0,-75.5 0,-103.5 134,-103.5 134,-75.5 0,-75.5"/>
<text text-anchor="start" x="8" y="-92.3" font-family="Helvetica,sans-Serif" font-size="9.00">__gnu_debug::_Safe</text>
<text text-anchor="middle" x="67" y="-82.3" font-family="Helvetica,sans-Serif" font-size="9.00">_unordered_container_base</text>
</g>
<!-- Node3 -->
<g id="node3" class="node"><title>Node3</title>
<g id="a_node3"><a xlink:href="a00074.html" target="_top" xlink:title="Base class for constructing a safe unordered container type that tracks iterators that reference it...">
<polygon fill="white" stroke="black" points="13,-0.5 13,-38.5 121,-38.5 121,-0.5 13,-0.5"/>
<text text-anchor="start" x="21" y="-27.3" font-family="Helvetica,sans-Serif" font-size="9.00">__gnu_debug::_Safe</text>
<text text-anchor="start" x="21" y="-17.3" font-family="Helvetica,sans-Serif" font-size="9.00">_unordered_container</text>
<text text-anchor="middle" x="67" y="-7.3" font-family="Helvetica,sans-Serif" font-size="9.00">&lt; _Container &gt;</text>
</a>
</g>
</g>
<!-- Node1&#45;&gt;Node3 -->
<g id="edge2" class="edge"><title>Node1&#45;&gt;Node3</title>
<path fill="none" stroke="midnightblue" d="M67,-65.172C67,-56.5199 67,-46.8416 67,-38.7116"/>
<polygon fill="midnightblue" stroke="midnightblue" points="63.5001,-65.3889 67,-75.3889 70.5001,-65.389 63.5001,-65.3889"/>
</g>
<!-- Node2 -->
<g id="node2" class="node"><title>Node2</title>
<g id="a_node2"><a xlink:href="a00073.html" target="_top" xlink:title="Base class that supports tracking of iterators that reference a sequence. ">
<polygon fill="white" stroke="black" points="15.5,-140.5 15.5,-168.5 118.5,-168.5 118.5,-140.5 15.5,-140.5"/>
<text text-anchor="start" x="23.5" y="-157.3" font-family="Helvetica,sans-Serif" font-size="9.00">__gnu_debug::_Safe</text>
<text text-anchor="middle" x="67" y="-147.3" font-family="Helvetica,sans-Serif" font-size="9.00">_sequence_base</text>
</a>
</g>
</g>
<!-- Node2&#45;&gt;Node1 -->
<g id="edge1" class="edge"><title>Node2&#45;&gt;Node1</title>
<path fill="none" stroke="midnightblue" d="M67,-130.164C67,-121.169 67,-111.221 67,-103.537"/>
<polygon fill="midnightblue" stroke="midnightblue" points="63.5001,-130.446 67,-140.446 70.5001,-130.446 63.5001,-130.446"/>
</g>
</g>
</svg>
