<?xml version="1.0" encoding="UTF-8" standalone="no"?>
<!DOCTYPE svg PUBLIC "-//W3C//DTD SVG 1.1//EN"
 "http://www.w3.org/Graphics/SVG/1.1/DTD/svg11.dtd">
<!-- Generated by graphviz version 2.38.0 (20140413.2041)
 -->
<!-- Title: __gnu_debug::_Safe_sequence&lt; _Sequence &gt; Pages: 1 -->
<svg width="159pt" height="167pt"
 viewBox="0.00 0.00 159.00 167.00" xmlns="http://www.w3.org/2000/svg" xmlns:xlink="http://www.w3.org/1999/xlink">
<g id="graph0" class="graph" transform="scale(1 1) rotate(0) translate(4 163)">
<title>__gnu_debug::_Safe_sequence&lt; _Sequence &gt;</title>
<polygon fill="white" stroke="none" points="-4,4 -4,-163 155,-163 155,4 -4,4"/>
<!-- Node1 -->
<g id="node1" class="node"><title>Node1</title>
<polygon fill="#bfbfbf" stroke="black" points="13,-65.5 13,-93.5 138,-93.5 138,-65.5 13,-65.5"/>
<text text-anchor="start" x="21" y="-82.3" font-family="Helvetica,sans-Serif" font-size="9.00">__gnu_debug::_Safe</text>
<text text-anchor="middle" x="75.5" y="-72.3" font-family="Helvetica,sans-Serif" font-size="9.00">_sequence&lt; _Sequence &gt;</text>
</g>
<!-- Node3 -->
<g id="node3" class="node"><title>Node3</title>
<g id="a_node3"><a xlink:href="a00071.html" target="_top" xlink:title="Like _Safe_sequence but with a special _M_invalidate_all implementation not invalidating past&#45;the&#45;end...">
<polygon fill="white" stroke="black" points="0,-0.5 0,-28.5 151,-28.5 151,-0.5 0,-0.5"/>
<text text-anchor="start" x="8" y="-17.3" font-family="Helvetica,sans-Serif" font-size="9.00">__gnu_debug::_Safe</text>
<text text-anchor="middle" x="75.5" y="-7.3" font-family="Helvetica,sans-Serif" font-size="9.00">_node_sequence&lt; _Sequence &gt;</text>
</a>
</g>
</g>
<!-- Node1&#45;&gt;Node3 -->
<g id="edge2" class="edge"><title>Node1&#45;&gt;Node3</title>
<path fill="none" stroke="midnightblue" d="M75.5,-55.1641C75.5,-46.1693 75.5,-36.2205 75.5,-28.5369"/>
<polygon fill="midnightblue" stroke="midnightblue" points="72.0001,-55.4463 75.5,-65.4464 79.0001,-55.4464 72.0001,-55.4463"/>
</g>
<!-- Node2 -->
<g id="node2" class="node"><title>Node2</title>
<g id="a_node2"><a xlink:href="a00073.html" target="_top" xlink:title="Base class that supports tracking of iterators that reference a sequence. ">
<polygon fill="white" stroke="black" points="24,-130.5 24,-158.5 127,-158.5 127,-130.5 24,-130.5"/>
<text text-anchor="start" x="32" y="-147.3" font-family="Helvetica,sans-Serif" font-size="9.00">__gnu_debug::_Safe</text>
<text text-anchor="middle" x="75.5" y="-137.3" font-family="Helvetica,sans-Serif" font-size="9.00">_sequence_base</text>
</a>
</g>
</g>
<!-- Node2&#45;&gt;Node1 -->
<g id="edge1" class="edge"><title>Node2&#45;&gt;Node1</title>
<path fill="none" stroke="midnightblue" d="M75.5,-120.164C75.5,-111.169 75.5,-101.221 75.5,-93.5369"/>
<polygon fill="midnightblue" stroke="midnightblue" points="72.0001,-120.446 75.5,-130.446 79.0001,-120.446 72.0001,-120.446"/>
</g>
</g>
</svg>
