<?xml version="1.0" encoding="UTF-8" standalone="no"?>
<!DOCTYPE svg PUBLIC "-//W3C//DTD SVG 1.1//EN"
 "http://www.w3.org/Graphics/SVG/1.1/DTD/svg11.dtd">
<!-- Generated by graphviz version 2.38.0 (20140413.2041)
 -->
<!-- Title: __gnu_debug::_Safe_iterator_base Pages: 1 -->
<svg width="405pt" height="99pt"
 viewBox="0.00 0.00 405.00 99.00" xmlns="http://www.w3.org/2000/svg" xmlns:xlink="http://www.w3.org/1999/xlink">
<g id="graph0" class="graph" transform="scale(1 1) rotate(0) translate(4 95)">
<title>__gnu_debug::_Safe_iterator_base</title>
<polygon fill="white" stroke="none" points="-4,4 -4,-95 401,-95 401,4 -4,4"/>
<!-- Node1 -->
<g id="node1" class="node"><title>Node1</title>
<polygon fill="#bfbfbf" stroke="black" points="0,-31.5 0,-59.5 103,-59.5 103,-31.5 0,-31.5"/>
<text text-anchor="start" x="8" y="-48.3" font-family="Helvetica,sans-Serif" font-size="9.00">__gnu_debug::_Safe</text>
<text text-anchor="middle" x="51.5" y="-38.3" font-family="Helvetica,sans-Serif" font-size="9.00">_iterator_base</text>
</g>
<!-- Node2 -->
<g id="node2" class="node"><title>Node2</title>
<g id="a_node2"><a xlink:href="a00067.html" target="_top" xlink:title="Safe iterator wrapper. ">
<polygon fill="white" stroke="black" points="139,-52.5 139,-90.5 242,-90.5 242,-52.5 139,-52.5"/>
<text text-anchor="start" x="147" y="-79.3" font-family="Helvetica,sans-Serif" font-size="9.00">__gnu_debug::_Safe</text>
<text text-anchor="start" x="147" y="-69.3" font-family="Helvetica,sans-Serif" font-size="9.00">_iterator&lt; _Iterator,</text>
<text text-anchor="middle" x="190.5" y="-59.3" font-family="Helvetica,sans-Serif" font-size="9.00"> _Sequence &gt;</text>
</a>
</g>
</g>
<!-- Node1&#45;&gt;Node2 -->
<g id="edge1" class="edge"><title>Node1&#45;&gt;Node2</title>
<path fill="none" stroke="midnightblue" d="M113.042,-56.9897C121.583,-58.6106 130.291,-60.2633 138.626,-61.8451"/>
<polygon fill="midnightblue" stroke="midnightblue" points="113.602,-53.5336 103.125,-55.1076 112.297,-60.4108 113.602,-53.5336"/>
</g>
<!-- Node3 -->
<g id="node3" class="node"><title>Node3</title>
<g id="a_node3"><a xlink:href="a00070.html" target="_top" xlink:title="Basic functionality for a safe iterator. ">
<polygon fill="white" stroke="black" points="139,-5.5 139,-33.5 242,-33.5 242,-5.5 139,-5.5"/>
<text text-anchor="start" x="147" y="-22.3" font-family="Helvetica,sans-Serif" font-size="9.00">__gnu_debug::_Safe</text>
<text text-anchor="middle" x="190.5" y="-12.3" font-family="Helvetica,sans-Serif" font-size="9.00">_local_iterator_base</text>
</a>
</g>
</g>
<!-- Node1&#45;&gt;Node3 -->
<g id="edge2" class="edge"><title>Node1&#45;&gt;Node3</title>
<path fill="none" stroke="midnightblue" d="M113.042,-34.0103C121.583,-32.3894 130.291,-30.7367 138.626,-29.1549"/>
<polygon fill="midnightblue" stroke="midnightblue" points="112.297,-30.5892 103.125,-35.8924 113.602,-37.4664 112.297,-30.5892"/>
</g>
<!-- Node4 -->
<g id="node4" class="node"><title>Node4</title>
<g id="a_node4"><a xlink:href="a00069.html" target="_top" xlink:title="Safe iterator wrapper. ">
<polygon fill="white" stroke="black" points="278,-0.5 278,-38.5 397,-38.5 397,-0.5 278,-0.5"/>
<text text-anchor="start" x="286" y="-27.3" font-family="Helvetica,sans-Serif" font-size="9.00">__gnu_debug::_Safe</text>
<text text-anchor="start" x="286" y="-17.3" font-family="Helvetica,sans-Serif" font-size="9.00">_local_iterator&lt; _Iterator,</text>
<text text-anchor="middle" x="337.5" y="-7.3" font-family="Helvetica,sans-Serif" font-size="9.00"> _Sequence &gt;</text>
</a>
</g>
</g>
<!-- Node3&#45;&gt;Node4 -->
<g id="edge3" class="edge"><title>Node3&#45;&gt;Node4</title>
<path fill="none" stroke="midnightblue" d="M252.371,-19.5C260.811,-19.5 269.467,-19.5 277.866,-19.5"/>
<polygon fill="midnightblue" stroke="midnightblue" points="252.214,-16.0001 242.214,-19.5 252.214,-23.0001 252.214,-16.0001"/>
</g>
</g>
</svg>
