<?xml version="1.0" encoding="UTF-8" standalone="no"?>
<!DOCTYPE svg PUBLIC "-//W3C//DTD SVG 1.1//EN"
 "http://www.w3.org/Graphics/SVG/1.1/DTD/svg11.dtd">
<!-- Generated by graphviz version 2.38.0 (20140413.2041)
 -->
<!-- Title: __gnu_cxx::random_condition Pages: 1 -->
<svg width="666pt" height="84pt"
 viewBox="0.00 0.00 666.00 84.00" xmlns="http://www.w3.org/2000/svg" xmlns:xlink="http://www.w3.org/1999/xlink">
<g id="graph0" class="graph" transform="scale(1 1) rotate(0) translate(4 80)">
<title>__gnu_cxx::random_condition</title>
<polygon fill="white" stroke="none" points="-4,4 -4,-80 662,-80 662,4 -4,4"/>
<!-- Node1 -->
<g id="node1" class="node"><title>Node1</title>
<polygon fill="#bfbfbf" stroke="black" points="165,-28.5 165,-46.5 305,-46.5 305,-28.5 165,-28.5"/>
<text text-anchor="middle" x="235" y="-35.3" font-family="Helvetica,sans-Serif" font-size="9.00">__gnu_cxx::random_condition</text>
</g>
<!-- Node3 -->
<g id="node3" class="node"><title>Node3</title>
<g id="a_node3"><a xlink:href="a00056.html" target="_top" xlink:title="__gnu_cxx::throw_allocator\l_base\&lt; _Tp, random_condition \&gt;">
<polygon fill="white" stroke="black" points="341,-47.5 341,-75.5 493,-75.5 493,-47.5 341,-47.5"/>
<text text-anchor="start" x="349" y="-64.3" font-family="Helvetica,sans-Serif" font-size="9.00">__gnu_cxx::throw_allocator</text>
<text text-anchor="middle" x="417" y="-54.3" font-family="Helvetica,sans-Serif" font-size="9.00">_base&lt; _Tp, random_condition &gt;</text>
</a>
</g>
</g>
<!-- Node1&#45;&gt;Node3 -->
<g id="edge2" class="edge"><title>Node1&#45;&gt;Node3</title>
<path fill="none" stroke="midnightblue" d="M313.632,-47.851C322.655,-49.054 331.846,-50.2795 340.835,-51.478"/>
<polygon fill="midnightblue" stroke="midnightblue" points="313.912,-44.3574 303.537,-46.505 312.987,-51.296 313.912,-44.3574"/>
</g>
<!-- Node5 -->
<g id="node5" class="node"><title>Node5</title>
<g id="a_node5"><a xlink:href="a00059.html" target="_top" xlink:title="__gnu_cxx::throw_value\l_base\&lt; random_condition \&gt;">
<polygon fill="white" stroke="black" points="351.5,-0.5 351.5,-28.5 482.5,-28.5 482.5,-0.5 351.5,-0.5"/>
<text text-anchor="start" x="359.5" y="-17.3" font-family="Helvetica,sans-Serif" font-size="9.00">__gnu_cxx::throw_value</text>
<text text-anchor="middle" x="417" y="-7.3" font-family="Helvetica,sans-Serif" font-size="9.00">_base&lt; random_condition &gt;</text>
</a>
</g>
</g>
<!-- Node1&#45;&gt;Node5 -->
<g id="edge4" class="edge"><title>Node1&#45;&gt;Node5</title>
<path fill="none" stroke="midnightblue" d="M315.134,-27.3885C327.202,-25.8465 339.534,-24.2706 351.246,-22.7741"/>
<polygon fill="midnightblue" stroke="midnightblue" points="314.554,-23.934 305.078,-28.6734 315.441,-30.8776 314.554,-23.934"/>
</g>
<!-- Node2 -->
<g id="node2" class="node"><title>Node2</title>
<g id="a_node2"><a xlink:href="a00036.html" target="_top" xlink:title="Base struct for condition policy. ">
<polygon fill="white" stroke="black" points="0,-28.5 0,-46.5 129,-46.5 129,-28.5 0,-28.5"/>
<text text-anchor="middle" x="64.5" y="-35.3" font-family="Helvetica,sans-Serif" font-size="9.00">__gnu_cxx::condition_base</text>
</a>
</g>
</g>
<!-- Node2&#45;&gt;Node1 -->
<g id="edge1" class="edge"><title>Node2&#45;&gt;Node1</title>
<path fill="none" stroke="midnightblue" d="M139.421,-37.5C147.876,-37.5 156.47,-37.5 164.859,-37.5"/>
<polygon fill="midnightblue" stroke="midnightblue" points="139.203,-34.0001 129.203,-37.5 139.203,-41.0001 139.203,-34.0001"/>
</g>
<!-- Node4 -->
<g id="node4" class="node"><title>Node4</title>
<g id="a_node4"><a xlink:href="a00058.html" target="_top" xlink:title="Allocator throwing via random condition. ">
<polygon fill="white" stroke="black" points="529,-47.5 529,-75.5 658,-75.5 658,-47.5 529,-47.5"/>
<text text-anchor="start" x="537" y="-64.3" font-family="Helvetica,sans-Serif" font-size="9.00">__gnu_cxx::throw_allocator</text>
<text text-anchor="middle" x="593.5" y="-54.3" font-family="Helvetica,sans-Serif" font-size="9.00">_random&lt; _Tp &gt;</text>
</a>
</g>
</g>
<!-- Node3&#45;&gt;Node4 -->
<g id="edge3" class="edge"><title>Node3&#45;&gt;Node4</title>
<path fill="none" stroke="midnightblue" d="M503.124,-61.5C511.763,-61.5 520.429,-61.5 528.784,-61.5"/>
<polygon fill="midnightblue" stroke="midnightblue" points="503.016,-58.0001 493.016,-61.5 503.016,-65.0001 503.016,-58.0001"/>
</g>
<!-- Node6 -->
<g id="node6" class="node"><title>Node6</title>
<g id="a_node6"><a xlink:href="a00061.html" target="_top" xlink:title="Type throwing via random condition. ">
<polygon fill="white" stroke="black" points="535.5,-0.5 535.5,-28.5 651.5,-28.5 651.5,-0.5 535.5,-0.5"/>
<text text-anchor="start" x="543.5" y="-17.3" font-family="Helvetica,sans-Serif" font-size="9.00">__gnu_cxx::throw_value</text>
<text text-anchor="middle" x="593.5" y="-7.3" font-family="Helvetica,sans-Serif" font-size="9.00">_random</text>
</a>
</g>
</g>
<!-- Node5&#45;&gt;Node6 -->
<g id="edge5" class="edge"><title>Node5&#45;&gt;Node6</title>
<path fill="none" stroke="midnightblue" d="M493.146,-14.5C507.245,-14.5 521.775,-14.5 535.222,-14.5"/>
<polygon fill="midnightblue" stroke="midnightblue" points="492.977,-11.0001 482.977,-14.5 492.977,-18.0001 492.977,-11.0001"/>
</g>
</g>
</svg>
