<?xml version="1.0" encoding="UTF-8" standalone="no"?>
<!DOCTYPE svg PUBLIC "-//W3C//DTD SVG 1.1//EN"
 "http://www.w3.org/Graphics/SVG/1.1/DTD/svg11.dtd">
<!-- Generated by graphviz version 2.38.0 (20140413.2041)
 -->
<!-- Title: __gnu_cxx::throw_allocator_random&lt; _Tp &gt; Pages: 1 -->
<svg width="294pt" height="212pt"
 viewBox="0.00 0.00 294.00 212.00" xmlns="http://www.w3.org/2000/svg" xmlns:xlink="http://www.w3.org/1999/xlink">
<g id="graph0" class="graph" transform="scale(1 1) rotate(0) translate(4 208)">
<title>__gnu_cxx::throw_allocator_random&lt; _Tp &gt;</title>
<polygon fill="white" stroke="none" points="-4,4 -4,-208 290,-208 290,4 -4,4"/>
<!-- Node1 -->
<g id="node1" class="node"><title>Node1</title>
<polygon fill="#bfbfbf" stroke="black" points="75.5,-0.5 75.5,-28.5 204.5,-28.5 204.5,-0.5 75.5,-0.5"/>
<text text-anchor="start" x="83.5" y="-17.3" font-family="Helvetica,sans-Serif" font-size="9.00">__gnu_cxx::throw_allocator</text>
<text text-anchor="middle" x="140" y="-7.3" font-family="Helvetica,sans-Serif" font-size="9.00">_random&lt; _Tp &gt;</text>
</g>
<!-- Node2 -->
<g id="node2" class="node"><title>Node2</title>
<g id="a_node2"><a xlink:href="a00056.html" target="_top" xlink:title="__gnu_cxx::throw_allocator\l_base\&lt; _Tp, random_condition \&gt;">
<polygon fill="white" stroke="black" points="64,-65.5 64,-93.5 216,-93.5 216,-65.5 64,-65.5"/>
<text text-anchor="start" x="72" y="-82.3" font-family="Helvetica,sans-Serif" font-size="9.00">__gnu_cxx::throw_allocator</text>
<text text-anchor="middle" x="140" y="-72.3" font-family="Helvetica,sans-Serif" font-size="9.00">_base&lt; _Tp, random_condition &gt;</text>
</a>
</g>
</g>
<!-- Node2&#45;&gt;Node1 -->
<g id="edge1" class="edge"><title>Node2&#45;&gt;Node1</title>
<path fill="none" stroke="midnightblue" d="M140,-55.1641C140,-46.1693 140,-36.2205 140,-28.5369"/>
<polygon fill="midnightblue" stroke="midnightblue" points="136.5,-55.4463 140,-65.4464 143.5,-55.4464 136.5,-55.4463"/>
</g>
<!-- Node3 -->
<g id="node3" class="node"><title>Node3</title>
<g id="a_node3"><a xlink:href="a00030.html" target="_top" xlink:title="Base class for checking address and label information about allocations. Create a std::map between th...">
<polygon fill="white" stroke="black" points="0,-130.5 0,-148.5 128,-148.5 128,-130.5 0,-130.5"/>
<text text-anchor="middle" x="64" y="-137.3" font-family="Helvetica,sans-Serif" font-size="9.00">__gnu_cxx::annotate_base</text>
</a>
</g>
</g>
<!-- Node3&#45;&gt;Node2 -->
<g id="edge2" class="edge"><title>Node3&#45;&gt;Node2</title>
<path fill="none" stroke="midnightblue" d="M82.7393,-124.199C94.9926,-114.848 110.878,-102.725 122.808,-93.6203"/>
<polygon fill="midnightblue" stroke="midnightblue" points="80.3936,-121.586 74.5675,-130.435 84.6404,-127.151 80.3936,-121.586"/>
</g>
<!-- Node4 -->
<g id="node4" class="node"><title>Node4</title>
<g id="a_node4"><a xlink:href="a00049.html" target="_top" xlink:title="Base class for random probability control and throw. ">
<polygon fill="white" stroke="black" points="146,-130.5 146,-148.5 286,-148.5 286,-130.5 146,-130.5"/>
<text text-anchor="middle" x="216" y="-137.3" font-family="Helvetica,sans-Serif" font-size="9.00">__gnu_cxx::random_condition</text>
</a>
</g>
</g>
<!-- Node4&#45;&gt;Node2 -->
<g id="edge3" class="edge"><title>Node4&#45;&gt;Node2</title>
<path fill="none" stroke="midnightblue" d="M197.261,-124.199C185.007,-114.848 169.122,-102.725 157.192,-93.6203"/>
<polygon fill="midnightblue" stroke="midnightblue" points="195.36,-127.151 205.433,-130.435 199.606,-121.586 195.36,-127.151"/>
</g>
<!-- Node5 -->
<g id="node5" class="node"><title>Node5</title>
<g id="a_node5"><a xlink:href="a00036.html" target="_top" xlink:title="Base struct for condition policy. ">
<polygon fill="white" stroke="black" points="151.5,-185.5 151.5,-203.5 280.5,-203.5 280.5,-185.5 151.5,-185.5"/>
<text text-anchor="middle" x="216" y="-192.3" font-family="Helvetica,sans-Serif" font-size="9.00">__gnu_cxx::condition_base</text>
</a>
</g>
</g>
<!-- Node5&#45;&gt;Node4 -->
<g id="edge4" class="edge"><title>Node5&#45;&gt;Node4</title>
<path fill="none" stroke="midnightblue" d="M216,-175.175C216,-166.094 216,-155.595 216,-148.55"/>
<polygon fill="midnightblue" stroke="midnightblue" points="212.5,-175.219 216,-185.219 219.5,-175.219 212.5,-175.219"/>
</g>
</g>
</svg>
