<?xml version="1.0" encoding="UTF-8" standalone="no"?>
<!DOCTYPE svg PUBLIC "-//W3C//DTD SVG 1.1//EN"
 "http://www.w3.org/Graphics/SVG/1.1/DTD/svg11.dtd">
<!-- Generated by graphviz version 2.38.0 (20140413.2041)
 -->
<!-- Title: __gnu_cxx::new_allocator&lt; _Tp &gt; Pages: 1 -->
<svg width="238pt" height="92pt"
 viewBox="0.00 0.00 237.50 92.00" xmlns="http://www.w3.org/2000/svg" xmlns:xlink="http://www.w3.org/1999/xlink">
<g id="graph0" class="graph" transform="scale(1 1) rotate(0) translate(4 88)">
<title>__gnu_cxx::new_allocator&lt; _Tp &gt;</title>
<polygon fill="white" stroke="none" points="-4,4 -4,-88 233.5,-88 233.5,4 -4,4"/>
<!-- Node1 -->
<g id="node1" class="node"><title>Node1</title>
<polygon fill="#bfbfbf" stroke="black" points="56,-55.5 56,-83.5 180,-83.5 180,-55.5 56,-55.5"/>
<text text-anchor="start" x="64" y="-72.3" font-family="Helvetica,sans-Serif" font-size="9.00">__gnu_cxx::new_allocator</text>
<text text-anchor="middle" x="118" y="-62.3" font-family="Helvetica,sans-Serif" font-size="9.00">&lt; _Tp &gt;</text>
</g>
<!-- Node2 -->
<g id="node2" class="node"><title>Node2</title>
<g id="a_node2"><a xlink:href="a00420.html" target="_top" xlink:title="allocator\&lt; value_type \&gt;">
<polygon fill="white" stroke="black" points="0,-0.5 0,-18.5 112,-18.5 112,-0.5 0,-0.5"/>
<text text-anchor="middle" x="56" y="-7.3" font-family="Helvetica,sans-Serif" font-size="9.00">allocator&lt; value_type &gt;</text>
</a>
</g>
</g>
<!-- Node1&#45;&gt;Node2 -->
<g id="edge1" class="edge"><title>Node1&#45;&gt;Node2</title>
<path fill="none" stroke="midnightblue" d="M96.4244,-48.3164C85.5842,-38.1755 73.0449,-26.4452 64.8419,-18.7715"/>
<polygon fill="midnightblue" stroke="midnightblue" points="94.2374,-51.0633 103.931,-55.3389 99.0196,-45.9513 94.2374,-51.0633"/>
</g>
<!-- Node3 -->
<g id="node3" class="node"><title>Node3</title>
<g id="a_node3"><a xlink:href="a00420.html" target="_top" xlink:title="The standard allocator, as per [20.4]. ">
<polygon fill="white" stroke="black" points="130.5,-0.5 130.5,-18.5 229.5,-18.5 229.5,-0.5 130.5,-0.5"/>
<text text-anchor="middle" x="180" y="-7.3" font-family="Helvetica,sans-Serif" font-size="9.00">std::allocator&lt; _Tp &gt;</text>
</a>
</g>
</g>
<!-- Node1&#45;&gt;Node3 -->
<g id="edge2" class="edge"><title>Node1&#45;&gt;Node3</title>
<path fill="none" stroke="midnightblue" d="M139.576,-48.3164C150.416,-38.1755 162.955,-26.4452 171.158,-18.7715"/>
<polygon fill="midnightblue" stroke="midnightblue" points="136.98,-45.9513 132.069,-55.3389 141.763,-51.0633 136.98,-45.9513"/>
</g>
</g>
</svg>
