<?xml version="1.0" encoding="UTF-8" standalone="no"?>
<!DOCTYPE svg PUBLIC "-//W3C//DTD SVG 1.1//EN"
 "http://www.w3.org/Graphics/SVG/1.1/DTD/svg11.dtd">
<!-- Generated by graphviz version 2.38.0 (20140413.2041)
 -->
<!-- Title: __gnu_debug::_Safe_local_iterator_base Pages: 1 -->
<svg width="127pt" height="177pt"
 viewBox="0.00 0.00 127.00 177.00" xmlns="http://www.w3.org/2000/svg" xmlns:xlink="http://www.w3.org/1999/xlink">
<g id="graph0" class="graph" transform="scale(1 1) rotate(0) translate(4 173)">
<title>__gnu_debug::_Safe_local_iterator_base</title>
<polygon fill="white" stroke="none" points="-4,4 -4,-173 123,-173 123,4 -4,4"/>
<!-- Node1 -->
<g id="node1" class="node"><title>Node1</title>
<polygon fill="#bfbfbf" stroke="black" points="8,-75.5 8,-103.5 111,-103.5 111,-75.5 8,-75.5"/>
<text text-anchor="start" x="16" y="-92.3" font-family="Helvetica,sans-Serif" font-size="9.00">__gnu_debug::_Safe</text>
<text text-anchor="middle" x="59.5" y="-82.3" font-family="Helvetica,sans-Serif" font-size="9.00">_local_iterator_base</text>
</g>
<!-- Node3 -->
<g id="node3" class="node"><title>Node3</title>
<g id="a_node3"><a xlink:href="a00069.html" target="_top" xlink:title="Safe iterator wrapper. ">
<polygon fill="white" stroke="black" points="0,-0.5 0,-38.5 119,-38.5 119,-0.5 0,-0.5"/>
<text text-anchor="start" x="8" y="-27.3" font-family="Helvetica,sans-Serif" font-size="9.00">__gnu_debug::_Safe</text>
<text text-anchor="start" x="8" y="-17.3" font-family="Helvetica,sans-Serif" font-size="9.00">_local_iterator&lt; _Iterator,</text>
<text text-anchor="middle" x="59.5" y="-7.3" font-family="Helvetica,sans-Serif" font-size="9.00"> _Sequence &gt;</text>
</a>
</g>
</g>
<!-- Node1&#45;&gt;Node3 -->
<g id="edge2" class="edge"><title>Node1&#45;&gt;Node3</title>
<path fill="none" stroke="midnightblue" d="M59.5,-65.172C59.5,-56.5199 59.5,-46.8416 59.5,-38.7116"/>
<polygon fill="midnightblue" stroke="midnightblue" points="56.0001,-65.3889 59.5,-75.3889 63.0001,-65.389 56.0001,-65.3889"/>
</g>
<!-- Node2 -->
<g id="node2" class="node"><title>Node2</title>
<g id="a_node2"><a xlink:href="a00068.html" target="_top" xlink:title="Basic functionality for a safe iterator. ">
<polygon fill="white" stroke="black" points="8,-140.5 8,-168.5 111,-168.5 111,-140.5 8,-140.5"/>
<text text-anchor="start" x="16" y="-157.3" font-family="Helvetica,sans-Serif" font-size="9.00">__gnu_debug::_Safe</text>
<text text-anchor="middle" x="59.5" y="-147.3" font-family="Helvetica,sans-Serif" font-size="9.00">_iterator_base</text>
</a>
</g>
</g>
<!-- Node2&#45;&gt;Node1 -->
<g id="edge1" class="edge"><title>Node2&#45;&gt;Node1</title>
<path fill="none" stroke="midnightblue" d="M59.5,-130.164C59.5,-121.169 59.5,-111.221 59.5,-103.537"/>
<polygon fill="midnightblue" stroke="midnightblue" points="56.0001,-130.446 59.5,-140.446 63.0001,-130.446 56.0001,-130.446"/>
</g>
</g>
</svg>
