<?xml version="1.0" encoding="UTF-8" standalone="no"?>
<!DOCTYPE svg PUBLIC "-//W3C//DTD SVG 1.1//EN"
 "http://www.w3.org/Graphics/SVG/1.1/DTD/svg11.dtd">
<!-- Generated by graphviz version 2.38.0 (20140413.2041)
 -->
<!-- Title: __gnu_parallel::__for_each_selector&lt; _It &gt; Pages: 1 -->
<svg width="133pt" height="102pt"
 viewBox="0.00 0.00 133.00 102.00" xmlns="http://www.w3.org/2000/svg" xmlns:xlink="http://www.w3.org/1999/xlink">
<g id="graph0" class="graph" transform="scale(1 1) rotate(0) translate(4 98)">
<title>__gnu_parallel::__for_each_selector&lt; _It &gt;</title>
<polygon fill="white" stroke="none" points="-4,4 -4,-98 129,-98 129,4 -4,4"/>
<!-- Node1 -->
<g id="node1" class="node"><title>Node1</title>
<polygon fill="#bfbfbf" stroke="black" points="10.5,-0.5 10.5,-28.5 114.5,-28.5 114.5,-0.5 10.5,-0.5"/>
<text text-anchor="start" x="18.5" y="-17.3" font-family="Helvetica,sans-Serif" font-size="9.00">__gnu_parallel::__for</text>
<text text-anchor="middle" x="62.5" y="-7.3" font-family="Helvetica,sans-Serif" font-size="9.00">_each_selector&lt; _It &gt;</text>
</g>
<!-- Node2 -->
<g id="node2" class="node"><title>Node2</title>
<g id="a_node2"><a xlink:href="a00090.html" target="_top" xlink:title="Generic __selector for embarrassingly parallel functions. ">
<polygon fill="white" stroke="black" points="0,-65.5 0,-93.5 125,-93.5 125,-65.5 0,-65.5"/>
<text text-anchor="start" x="8" y="-82.3" font-family="Helvetica,sans-Serif" font-size="9.00">__gnu_parallel::__generic</text>
<text text-anchor="middle" x="62.5" y="-72.3" font-family="Helvetica,sans-Serif" font-size="9.00">_for_each_selector&lt; _It &gt;</text>
</a>
</g>
</g>
<!-- Node2&#45;&gt;Node1 -->
<g id="edge1" class="edge"><title>Node2&#45;&gt;Node1</title>
<path fill="none" stroke="midnightblue" d="M62.5,-55.1641C62.5,-46.1693 62.5,-36.2205 62.5,-28.5369"/>
<polygon fill="midnightblue" stroke="midnightblue" points="59.0001,-55.4463 62.5,-65.4464 66.0001,-55.4464 59.0001,-55.4463"/>
</g>
</g>
</svg>
