<?xml version="1.0" encoding="UTF-8" standalone="no"?>
<!DOCTYPE svg PUBLIC "-//W3C//DTD SVG 1.1//EN"
 "http://www.w3.org/Graphics/SVG/1.1/DTD/svg11.dtd">
<!-- Generated by graphviz version 2.38.0 (20140413.2041)
 -->
<!-- Title: __gnu_parallel::__find_first_of_selector&lt; _FIterator &gt; Pages: 1 -->
<svg width="148pt" height="102pt"
 viewBox="0.00 0.00 148.00 102.00" xmlns="http://www.w3.org/2000/svg" xmlns:xlink="http://www.w3.org/1999/xlink">
<g id="graph0" class="graph" transform="scale(1 1) rotate(0) translate(4 98)">
<title>__gnu_parallel::__find_first_of_selector&lt; _FIterator &gt;</title>
<polygon fill="white" stroke="none" points="-4,4 -4,-98 144,-98 144,4 -4,4"/>
<!-- Node1 -->
<g id="node1" class="node"><title>Node1</title>
<polygon fill="#bfbfbf" stroke="black" points="0,-0.5 0,-28.5 140,-28.5 140,-0.5 0,-0.5"/>
<text text-anchor="start" x="8" y="-17.3" font-family="Helvetica,sans-Serif" font-size="9.00">__gnu_parallel::__find</text>
<text text-anchor="middle" x="70" y="-7.3" font-family="Helvetica,sans-Serif" font-size="9.00">_first_of_selector&lt; _FIterator &gt;</text>
</g>
<!-- Node2 -->
<g id="node2" class="node"><title>Node2</title>
<g id="a_node2"><a xlink:href="a00089.html" target="_top" xlink:title="Base class of all __gnu_parallel::__find_template selectors. ">
<polygon fill="white" stroke="black" points="7.5,-65.5 7.5,-93.5 132.5,-93.5 132.5,-65.5 7.5,-65.5"/>
<text text-anchor="start" x="15.5" y="-82.3" font-family="Helvetica,sans-Serif" font-size="9.00">__gnu_parallel::__generic</text>
<text text-anchor="middle" x="70" y="-72.3" font-family="Helvetica,sans-Serif" font-size="9.00">_find_selector</text>
</a>
</g>
</g>
<!-- Node2&#45;&gt;Node1 -->
<g id="edge1" class="edge"><title>Node2&#45;&gt;Node1</title>
<path fill="none" stroke="midnightblue" d="M70,-55.1641C70,-46.1693 70,-36.2205 70,-28.5369"/>
<polygon fill="midnightblue" stroke="midnightblue" points="66.5001,-55.4463 70,-65.4464 73.5001,-55.4464 66.5001,-55.4463"/>
</g>
</g>
</svg>
