<?xml version="1.0" encoding="UTF-8" standalone="no"?>
<!DOCTYPE svg PUBLIC "-//W3C//DTD SVG 1.1//EN"
 "http://www.w3.org/Graphics/SVG/1.1/DTD/svg11.dtd">
<!-- Generated by graphviz version 2.38.0 (20140413.2041)
 -->
<!-- Title: __gnu_cxx::throw_value_random Pages: 1 -->
<svg width="148pt" height="212pt"
 viewBox="0.00 0.00 148.00 212.00" xmlns="http://www.w3.org/2000/svg" xmlns:xlink="http://www.w3.org/1999/xlink">
<g id="graph0" class="graph" transform="scale(1 1) rotate(0) translate(4 208)">
<title>__gnu_cxx::throw_value_random</title>
<polygon fill="white" stroke="none" points="-4,4 -4,-208 144,-208 144,4 -4,4"/>
<!-- Node1 -->
<g id="node1" class="node"><title>Node1</title>
<polygon fill="#bfbfbf" stroke="black" points="12,-0.5 12,-28.5 128,-28.5 128,-0.5 12,-0.5"/>
<text text-anchor="start" x="20" y="-17.3" font-family="Helvetica,sans-Serif" font-size="9.00">__gnu_cxx::throw_value</text>
<text text-anchor="middle" x="70" y="-7.3" font-family="Helvetica,sans-Serif" font-size="9.00">_random</text>
</g>
<!-- Node2 -->
<g id="node2" class="node"><title>Node2</title>
<g id="a_node2"><a xlink:href="a00059.html" target="_top" xlink:title="__gnu_cxx::throw_value\l_base\&lt; random_condition \&gt;">
<polygon fill="white" stroke="black" points="4.5,-65.5 4.5,-93.5 135.5,-93.5 135.5,-65.5 4.5,-65.5"/>
<text text-anchor="start" x="12.5" y="-82.3" font-family="Helvetica,sans-Serif" font-size="9.00">__gnu_cxx::throw_value</text>
<text text-anchor="middle" x="70" y="-72.3" font-family="Helvetica,sans-Serif" font-size="9.00">_base&lt; random_condition &gt;</text>
</a>
</g>
</g>
<!-- Node2&#45;&gt;Node1 -->
<g id="edge1" class="edge"><title>Node2&#45;&gt;Node1</title>
<path fill="none" stroke="midnightblue" d="M70,-55.1641C70,-46.1693 70,-36.2205 70,-28.5369"/>
<polygon fill="midnightblue" stroke="midnightblue" points="66.5001,-55.4463 70,-65.4464 73.5001,-55.4464 66.5001,-55.4463"/>
</g>
<!-- Node3 -->
<g id="node3" class="node"><title>Node3</title>
<g id="a_node3"><a xlink:href="a00049.html" target="_top" xlink:title="Base class for random probability control and throw. ">
<polygon fill="white" stroke="black" points="0,-130.5 0,-148.5 140,-148.5 140,-130.5 0,-130.5"/>
<text text-anchor="middle" x="70" y="-137.3" font-family="Helvetica,sans-Serif" font-size="9.00">__gnu_cxx::random_condition</text>
</a>
</g>
</g>
<!-- Node3&#45;&gt;Node2 -->
<g id="edge2" class="edge"><title>Node3&#45;&gt;Node2</title>
<path fill="none" stroke="midnightblue" d="M70,-120.321C70,-111.747 70,-101.7 70,-93.8428"/>
<polygon fill="midnightblue" stroke="midnightblue" points="66.5001,-120.435 70,-130.435 73.5001,-120.435 66.5001,-120.435"/>
</g>
<!-- Node4 -->
<g id="node4" class="node"><title>Node4</title>
<g id="a_node4"><a xlink:href="a00036.html" target="_top" xlink:title="Base struct for condition policy. ">
<polygon fill="white" stroke="black" points="5.5,-185.5 5.5,-203.5 134.5,-203.5 134.5,-185.5 5.5,-185.5"/>
<text text-anchor="middle" x="70" y="-192.3" font-family="Helvetica,sans-Serif" font-size="9.00">__gnu_cxx::condition_base</text>
</a>
</g>
</g>
<!-- Node4&#45;&gt;Node3 -->
<g id="edge3" class="edge"><title>Node4&#45;&gt;Node3</title>
<path fill="none" stroke="midnightblue" d="M70,-175.175C70,-166.094 70,-155.595 70,-148.55"/>
<polygon fill="midnightblue" stroke="midnightblue" points="66.5001,-175.219 70,-185.219 73.5001,-175.219 66.5001,-175.219"/>
</g>
</g>
</svg>
