<?xml version="1.0" encoding="UTF-8" standalone="no"?>
<!DOCTYPE svg PUBLIC "-//W3C//DTD SVG 1.1//EN"
 "http://www.w3.org/Graphics/SVG/1.1/DTD/svg11.dtd">
<!-- Generated by graphviz version 2.38.0 (20140413.2041)
 -->
<!-- Title: __gnu_cxx::throw_allocator_limit&lt; _Tp &gt; Pages: 1 -->
<svg width="282pt" height="212pt"
 viewBox="0.00 0.00 281.50 212.00" xmlns="http://www.w3.org/2000/svg" xmlns:xlink="http://www.w3.org/1999/xlink">
<g id="graph0" class="graph" transform="scale(1 1) rotate(0) translate(4 208)">
<title>__gnu_cxx::throw_allocator_limit&lt; _Tp &gt;</title>
<polygon fill="white" stroke="none" points="-4,4 -4,-208 277.5,-208 277.5,4 -4,4"/>
<!-- Node1 -->
<g id="node1" class="node"><title>Node1</title>
<polygon fill="#bfbfbf" stroke="black" points="71.5,-0.5 71.5,-28.5 200.5,-28.5 200.5,-0.5 71.5,-0.5"/>
<text text-anchor="start" x="79.5" y="-17.3" font-family="Helvetica,sans-Serif" font-size="9.00">__gnu_cxx::throw_allocator</text>
<text text-anchor="middle" x="136" y="-7.3" font-family="Helvetica,sans-Serif" font-size="9.00">_limit&lt; _Tp &gt;</text>
</g>
<!-- Node2 -->
<g id="node2" class="node"><title>Node2</title>
<g id="a_node2"><a xlink:href="a00056.html" target="_top" xlink:title="__gnu_cxx::throw_allocator\l_base\&lt; _Tp, limit_condition \&gt;">
<polygon fill="white" stroke="black" points="67.5,-65.5 67.5,-93.5 204.5,-93.5 204.5,-65.5 67.5,-65.5"/>
<text text-anchor="start" x="75.5" y="-82.3" font-family="Helvetica,sans-Serif" font-size="9.00">__gnu_cxx::throw_allocator</text>
<text text-anchor="middle" x="136" y="-72.3" font-family="Helvetica,sans-Serif" font-size="9.00">_base&lt; _Tp, limit_condition &gt;</text>
</a>
</g>
</g>
<!-- Node2&#45;&gt;Node1 -->
<g id="edge1" class="edge"><title>Node2&#45;&gt;Node1</title>
<path fill="none" stroke="midnightblue" d="M136,-55.1641C136,-46.1693 136,-36.2205 136,-28.5369"/>
<polygon fill="midnightblue" stroke="midnightblue" points="132.5,-55.4463 136,-65.4464 139.5,-55.4464 132.5,-55.4463"/>
</g>
<!-- Node3 -->
<g id="node3" class="node"><title>Node3</title>
<g id="a_node3"><a xlink:href="a00030.html" target="_top" xlink:title="Base class for checking address and label information about allocations. Create a std::map between th...">
<polygon fill="white" stroke="black" points="0,-130.5 0,-148.5 128,-148.5 128,-130.5 0,-130.5"/>
<text text-anchor="middle" x="64" y="-137.3" font-family="Helvetica,sans-Serif" font-size="9.00">__gnu_cxx::annotate_base</text>
</a>
</g>
</g>
<!-- Node3&#45;&gt;Node2 -->
<g id="edge2" class="edge"><title>Node3&#45;&gt;Node2</title>
<path fill="none" stroke="midnightblue" d="M82.0921,-123.926C93.6533,-114.613 108.521,-102.636 119.713,-93.6203"/>
<polygon fill="midnightblue" stroke="midnightblue" points="79.6032,-121.436 74.0113,-130.435 83.9945,-126.888 79.6032,-121.436"/>
</g>
<!-- Node4 -->
<g id="node4" class="node"><title>Node4</title>
<g id="a_node4"><a xlink:href="a00043.html" target="_top" xlink:title="Base class for incremental control and throw. ">
<polygon fill="white" stroke="black" points="146.5,-130.5 146.5,-148.5 271.5,-148.5 271.5,-130.5 146.5,-130.5"/>
<text text-anchor="middle" x="209" y="-137.3" font-family="Helvetica,sans-Serif" font-size="9.00">__gnu_cxx::limit_condition</text>
</a>
</g>
</g>
<!-- Node4&#45;&gt;Node2 -->
<g id="edge3" class="edge"><title>Node4&#45;&gt;Node2</title>
<path fill="none" stroke="midnightblue" d="M191,-124.199C179.231,-114.848 163.972,-102.725 152.514,-93.6203"/>
<polygon fill="midnightblue" stroke="midnightblue" points="188.843,-126.955 198.85,-130.435 193.197,-121.474 188.843,-126.955"/>
</g>
<!-- Node5 -->
<g id="node5" class="node"><title>Node5</title>
<g id="a_node5"><a xlink:href="a00036.html" target="_top" xlink:title="Base struct for condition policy. ">
<polygon fill="white" stroke="black" points="144.5,-185.5 144.5,-203.5 273.5,-203.5 273.5,-185.5 144.5,-185.5"/>
<text text-anchor="middle" x="209" y="-192.3" font-family="Helvetica,sans-Serif" font-size="9.00">__gnu_cxx::condition_base</text>
</a>
</g>
</g>
<!-- Node5&#45;&gt;Node4 -->
<g id="edge4" class="edge"><title>Node5&#45;&gt;Node4</title>
<path fill="none" stroke="midnightblue" d="M209,-175.175C209,-166.094 209,-155.595 209,-148.55"/>
<polygon fill="midnightblue" stroke="midnightblue" points="205.5,-175.219 209,-185.219 212.5,-175.219 205.5,-175.219"/>
</g>
</g>
</svg>
