<?xml version="1.0" encoding="UTF-8" standalone="no"?>
<!DOCTYPE svg PUBLIC "-//W3C//DTD SVG 1.1//EN"
 "http://www.w3.org/Graphics/SVG/1.1/DTD/svg11.dtd">
<!-- Generated by graphviz version 2.38.0 (20140413.2041)
 -->
<!-- Title: __gnu_parallel::__generic_find_selector Pages: 1 -->
<svg width="309pt" height="178pt"
 viewBox="0.00 0.00 309.00 178.00" xmlns="http://www.w3.org/2000/svg" xmlns:xlink="http://www.w3.org/1999/xlink">
<g id="graph0" class="graph" transform="scale(1 1) rotate(0) translate(4 174)">
<title>__gnu_parallel::__generic_find_selector</title>
<polygon fill="white" stroke="none" points="-4,4 -4,-174 305,-174 305,4 -4,4"/>
<!-- Node1 -->
<g id="node1" class="node"><title>Node1</title>
<polygon fill="#bfbfbf" stroke="black" points="0,-70.5 0,-98.5 125,-98.5 125,-70.5 0,-70.5"/>
<text text-anchor="start" x="8" y="-87.3" font-family="Helvetica,sans-Serif" font-size="9.00">__gnu_parallel::__generic</text>
<text text-anchor="middle" x="62.5" y="-77.3" font-family="Helvetica,sans-Serif" font-size="9.00">_find_selector</text>
</g>
<!-- Node2 -->
<g id="node2" class="node"><title>Node2</title>
<g id="a_node2"><a xlink:href="a00079.html" target="_top" xlink:title="Test predicate on two adjacent elements. ">
<polygon fill="white" stroke="black" points="166.5,-141.5 166.5,-169.5 295.5,-169.5 295.5,-141.5 166.5,-141.5"/>
<text text-anchor="start" x="174.5" y="-158.3" font-family="Helvetica,sans-Serif" font-size="9.00">__gnu_parallel::__adjacent</text>
<text text-anchor="middle" x="231" y="-148.3" font-family="Helvetica,sans-Serif" font-size="9.00">_find_selector</text>
</a>
</g>
</g>
<!-- Node1&#45;&gt;Node2 -->
<g id="edge1" class="edge"><title>Node1&#45;&gt;Node2</title>
<path fill="none" stroke="midnightblue" d="M98.662,-103.251C116.974,-112.646 139.895,-123.834 161,-132.5 168.593,-135.618 176.778,-138.635 184.765,-141.401"/>
<polygon fill="midnightblue" stroke="midnightblue" points="100.029,-100.017 89.5399,-98.5243 96.8086,-106.232 100.029,-100.017"/>
</g>
<!-- Node3 -->
<g id="node3" class="node"><title>Node3</title>
<g id="a_node3"><a xlink:href="a00085.html" target="_top" xlink:title="Test predicate on several elements. ">
<polygon fill="white" stroke="black" points="161,-94.5 161,-122.5 301,-122.5 301,-94.5 161,-94.5"/>
<text text-anchor="start" x="169" y="-111.3" font-family="Helvetica,sans-Serif" font-size="9.00">__gnu_parallel::__find</text>
<text text-anchor="middle" x="231" y="-101.3" font-family="Helvetica,sans-Serif" font-size="9.00">_first_of_selector&lt; _FIterator &gt;</text>
</a>
</g>
</g>
<!-- Node1&#45;&gt;Node3 -->
<g id="edge2" class="edge"><title>Node1&#45;&gt;Node3</title>
<path fill="none" stroke="midnightblue" d="M134.997,-94.8058C143.576,-96.0425 152.326,-97.3038 160.871,-98.5355"/>
<polygon fill="midnightblue" stroke="midnightblue" points="135.422,-91.3311 125.025,-93.3685 134.424,-98.2595 135.422,-91.3311"/>
</g>
<!-- Node4 -->
<g id="node4" class="node"><title>Node4</title>
<g id="a_node4"><a xlink:href="a00086.html" target="_top" xlink:title="Test predicate on a single element, used for std::find() and std::find_if (). ">
<polygon fill="white" stroke="black" points="176.5,-47.5 176.5,-75.5 285.5,-75.5 285.5,-47.5 176.5,-47.5"/>
<text text-anchor="start" x="184.5" y="-64.3" font-family="Helvetica,sans-Serif" font-size="9.00">__gnu_parallel::__find</text>
<text text-anchor="middle" x="231" y="-54.3" font-family="Helvetica,sans-Serif" font-size="9.00">_if_selector</text>
</a>
</g>
</g>
<!-- Node1&#45;&gt;Node4 -->
<g id="edge3" class="edge"><title>Node1&#45;&gt;Node4</title>
<path fill="none" stroke="midnightblue" d="M135.028,-74.6193C148.903,-72.7026 163.222,-70.7246 176.4,-68.9042"/>
<polygon fill="midnightblue" stroke="midnightblue" points="134.452,-71.1654 125.025,-76.001 135.41,-78.0996 134.452,-71.1654"/>
</g>
<!-- Node5 -->
<g id="node5" class="node"><title>Node5</title>
<g id="a_node5"><a xlink:href="a00095.html" target="_top" xlink:title="Test inverted predicate on a single element. ">
<polygon fill="white" stroke="black" points="164.5,-0.5 164.5,-28.5 297.5,-28.5 297.5,-0.5 164.5,-0.5"/>
<text text-anchor="start" x="172.5" y="-17.3" font-family="Helvetica,sans-Serif" font-size="9.00">__gnu_parallel::__mismatch</text>
<text text-anchor="middle" x="231" y="-7.3" font-family="Helvetica,sans-Serif" font-size="9.00">_selector</text>
</a>
</g>
</g>
<!-- Node1&#45;&gt;Node5 -->
<g id="edge4" class="edge"><title>Node1&#45;&gt;Node5</title>
<path fill="none" stroke="midnightblue" d="M100.351,-65.9819C118.425,-57.1915 140.638,-46.817 161,-38.5 169.454,-35.0469 178.61,-31.6377 187.406,-28.5209"/>
<polygon fill="midnightblue" stroke="midnightblue" points="98.7465,-62.8704 91.3082,-70.4151 101.828,-69.1557 98.7465,-62.8704"/>
</g>
</g>
</svg>
