<?xml version="1.0" encoding="UTF-8" standalone="no"?>
<!DOCTYPE svg PUBLIC "-//W3C//DTD SVG 1.1//EN"
 "http://www.w3.org/Graphics/SVG/1.1/DTD/svg11.dtd">
<!-- Generated by graphviz version 2.38.0 (20140413.2041)
 -->
<!-- Title: __gnu_cxx::throw_value_limit Pages: 1 -->
<svg width="137pt" height="212pt"
 viewBox="0.00 0.00 137.00 212.00" xmlns="http://www.w3.org/2000/svg" xmlns:xlink="http://www.w3.org/1999/xlink">
<g id="graph0" class="graph" transform="scale(1 1) rotate(0) translate(4 208)">
<title>__gnu_cxx::throw_value_limit</title>
<polygon fill="white" stroke="none" points="-4,4 -4,-208 133,-208 133,4 -4,4"/>
<!-- Node1 -->
<g id="node1" class="node"><title>Node1</title>
<polygon fill="#bfbfbf" stroke="black" points="6.5,-0.5 6.5,-28.5 122.5,-28.5 122.5,-0.5 6.5,-0.5"/>
<text text-anchor="start" x="14.5" y="-17.3" font-family="Helvetica,sans-Serif" font-size="9.00">__gnu_cxx::throw_value</text>
<text text-anchor="middle" x="64.5" y="-7.3" font-family="Helvetica,sans-Serif" font-size="9.00">_limit</text>
</g>
<!-- Node2 -->
<g id="node2" class="node"><title>Node2</title>
<g id="a_node2"><a xlink:href="a00059.html" target="_top" xlink:title="__gnu_cxx::throw_value\l_base\&lt; limit_condition \&gt;">
<polygon fill="white" stroke="black" points="6.5,-65.5 6.5,-93.5 122.5,-93.5 122.5,-65.5 6.5,-65.5"/>
<text text-anchor="start" x="14.5" y="-82.3" font-family="Helvetica,sans-Serif" font-size="9.00">__gnu_cxx::throw_value</text>
<text text-anchor="middle" x="64.5" y="-72.3" font-family="Helvetica,sans-Serif" font-size="9.00">_base&lt; limit_condition &gt;</text>
</a>
</g>
</g>
<!-- Node2&#45;&gt;Node1 -->
<g id="edge1" class="edge"><title>Node2&#45;&gt;Node1</title>
<path fill="none" stroke="midnightblue" d="M64.5,-55.1641C64.5,-46.1693 64.5,-36.2205 64.5,-28.5369"/>
<polygon fill="midnightblue" stroke="midnightblue" points="61.0001,-55.4463 64.5,-65.4464 68.0001,-55.4464 61.0001,-55.4463"/>
</g>
<!-- Node3 -->
<g id="node3" class="node"><title>Node3</title>
<g id="a_node3"><a xlink:href="a00043.html" target="_top" xlink:title="Base class for incremental control and throw. ">
<polygon fill="white" stroke="black" points="2,-130.5 2,-148.5 127,-148.5 127,-130.5 2,-130.5"/>
<text text-anchor="middle" x="64.5" y="-137.3" font-family="Helvetica,sans-Serif" font-size="9.00">__gnu_cxx::limit_condition</text>
</a>
</g>
</g>
<!-- Node3&#45;&gt;Node2 -->
<g id="edge2" class="edge"><title>Node3&#45;&gt;Node2</title>
<path fill="none" stroke="midnightblue" d="M64.5,-120.321C64.5,-111.747 64.5,-101.7 64.5,-93.8428"/>
<polygon fill="midnightblue" stroke="midnightblue" points="61.0001,-120.435 64.5,-130.435 68.0001,-120.435 61.0001,-120.435"/>
</g>
<!-- Node4 -->
<g id="node4" class="node"><title>Node4</title>
<g id="a_node4"><a xlink:href="a00036.html" target="_top" xlink:title="Base struct for condition policy. ">
<polygon fill="white" stroke="black" points="0,-185.5 0,-203.5 129,-203.5 129,-185.5 0,-185.5"/>
<text text-anchor="middle" x="64.5" y="-192.3" font-family="Helvetica,sans-Serif" font-size="9.00">__gnu_cxx::condition_base</text>
</a>
</g>
</g>
<!-- Node4&#45;&gt;Node3 -->
<g id="edge3" class="edge"><title>Node4&#45;&gt;Node3</title>
<path fill="none" stroke="midnightblue" d="M64.5,-175.175C64.5,-166.094 64.5,-155.595 64.5,-148.55"/>
<polygon fill="midnightblue" stroke="midnightblue" points="61.0001,-175.219 64.5,-185.219 68.0001,-175.219 61.0001,-175.219"/>
</g>
</g>
</svg>
