<?xml version="1.0" encoding="UTF-8" standalone="no"?>
<!DOCTYPE svg PUBLIC "-//W3C//DTD SVG 1.1//EN"
 "http://www.w3.org/Graphics/SVG/1.1/DTD/svg11.dtd">
<!-- Generated by graphviz version 2.38.0 (20140413.2041)
 -->
<!-- Title: __gnu_parallel::__binder1st&lt; _Operation, _FirstArgumentType, _SecondArgumentType, _ResultType &gt; Pages: 1 -->
<svg width="187pt" height="122pt"
 viewBox="0.00 0.00 187.00 122.00" xmlns="http://www.w3.org/2000/svg" xmlns:xlink="http://www.w3.org/1999/xlink">
<g id="graph0" class="graph" transform="scale(1 1) rotate(0) translate(4 118)">
<title>__gnu_parallel::__binder1st&lt; _Operation, _FirstArgumentType, _SecondArgumentType, _ResultType &gt;</title>
<polygon fill="white" stroke="none" points="-4,4 -4,-118 183,-118 183,4 -4,4"/>
<!-- Node1 -->
<g id="node1" class="node"><title>Node1</title>
<polygon fill="#bfbfbf" stroke="black" points="0,-0.5 0,-38.5 179,-38.5 179,-0.5 0,-0.5"/>
<text text-anchor="start" x="8" y="-27.3" font-family="Helvetica,sans-Serif" font-size="9.00">__gnu_parallel::__binder1st</text>
<text text-anchor="start" x="8" y="-17.3" font-family="Helvetica,sans-Serif" font-size="9.00">&lt; _Operation, _FirstArgumentType,</text>
<text text-anchor="middle" x="89.5" y="-7.3" font-family="Helvetica,sans-Serif" font-size="9.00"> _SecondArgumentType, _ResultType &gt;</text>
</g>
<!-- Node2 -->
<g id="node2" class="node"><title>Node2</title>
<g id="a_node2"><a xlink:href="a00703.html" target="_top" xlink:title="std::unary_function\l\&lt; _SecondArgumentType,\l _ResultType \&gt;">
<polygon fill="white" stroke="black" points="28,-75.5 28,-113.5 151,-113.5 151,-75.5 28,-75.5"/>
<text text-anchor="start" x="36" y="-102.3" font-family="Helvetica,sans-Serif" font-size="9.00">std::unary_function</text>
<text text-anchor="start" x="36" y="-92.3" font-family="Helvetica,sans-Serif" font-size="9.00">&lt; _SecondArgumentType,</text>
<text text-anchor="middle" x="89.5" y="-82.3" font-family="Helvetica,sans-Serif" font-size="9.00"> _ResultType &gt;</text>
</a>
</g>
</g>
<!-- Node2&#45;&gt;Node1 -->
<g id="edge1" class="edge"><title>Node2&#45;&gt;Node1</title>
<path fill="none" stroke="midnightblue" d="M89.5,-65.3688C89.5,-56.3769 89.5,-46.6687 89.5,-38.5904"/>
<polygon fill="midnightblue" stroke="midnightblue" points="86.0001,-65.455 89.5,-75.4551 93.0001,-65.4551 86.0001,-65.455"/>
</g>
</g>
</svg>
