<?xml version="1.0" encoding="UTF-8" standalone="no"?>
<!DOCTYPE svg PUBLIC "-//W3C//DTD SVG 1.1//EN"
 "http://www.w3.org/Graphics/SVG/1.1/DTD/svg11.dtd">
<!-- Generated by graphviz version 2.38.0 (20140413.2041)
 -->
<!-- Title: __gnu_parallel::__generic_for_each_selector&lt; _It &gt; Pages: 1 -->
<svg width="310pt" height="601pt"
 viewBox="0.00 0.00 310.00 601.00" xmlns="http://www.w3.org/2000/svg" xmlns:xlink="http://www.w3.org/1999/xlink">
<g id="graph0" class="graph" transform="scale(1 1) rotate(0) translate(4 597)">
<title>__gnu_parallel::__generic_for_each_selector&lt; _It &gt;</title>
<polygon fill="white" stroke="none" points="-4,4 -4,-597 306,-597 306,4 -4,4"/>
<!-- Node1 -->
<g id="node1" class="node"><title>Node1</title>
<polygon fill="#bfbfbf" stroke="black" points="0,-282.5 0,-310.5 125,-310.5 125,-282.5 0,-282.5"/>
<text text-anchor="start" x="8" y="-299.3" font-family="Helvetica,sans-Serif" font-size="9.00">__gnu_parallel::__generic</text>
<text text-anchor="middle" x="62.5" y="-289.3" font-family="Helvetica,sans-Serif" font-size="9.00">_for_each_selector&lt; _It &gt;</text>
</g>
<!-- Node2 -->
<g id="node2" class="node"><title>Node2</title>
<g id="a_node2"><a xlink:href="a00077.html" target="_top" xlink:title="std::accumulate() selector. ">
<polygon fill="white" stroke="black" points="161,-564.5 161,-592.5 302,-592.5 302,-564.5 161,-564.5"/>
<text text-anchor="start" x="169" y="-581.3" font-family="Helvetica,sans-Serif" font-size="9.00">__gnu_parallel::__accumulate</text>
<text text-anchor="middle" x="231.5" y="-571.3" font-family="Helvetica,sans-Serif" font-size="9.00">_selector&lt; _It &gt;</text>
</a>
</g>
</g>
<!-- Node1&#45;&gt;Node2 -->
<g id="edge1" class="edge"><title>Node1&#45;&gt;Node2</title>
<path fill="none" stroke="midnightblue" d="M65.7247,-320.59C71.6879,-371.298 92.5564,-489.77 161,-555.5 164.575,-558.933 168.674,-561.854 173.054,-564.34"/>
<polygon fill="midnightblue" stroke="midnightblue" points="69.196,-320.136 64.6399,-310.571 62.2367,-320.889 69.196,-320.136"/>
</g>
<!-- Node3 -->
<g id="node3" class="node"><title>Node3</title>
<g id="a_node3"><a xlink:href="a00078.html" target="_top" xlink:title="Selector that returns the difference between two adjacent __elements. ">
<polygon fill="white" stroke="black" points="167,-517.5 167,-545.5 296,-545.5 296,-517.5 167,-517.5"/>
<text text-anchor="start" x="175" y="-534.3" font-family="Helvetica,sans-Serif" font-size="9.00">__gnu_parallel::__adjacent</text>
<text text-anchor="middle" x="231.5" y="-524.3" font-family="Helvetica,sans-Serif" font-size="9.00">_difference_selector&lt; _It &gt;</text>
</a>
</g>
</g>
<!-- Node1&#45;&gt;Node3 -->
<g id="edge2" class="edge"><title>Node1&#45;&gt;Node3</title>
<path fill="none" stroke="midnightblue" d="M68.0356,-320.704C77.4838,-364.462 103.375,-456.966 161,-508.5 164.884,-511.974 169.307,-514.925 173.996,-517.431"/>
<polygon fill="midnightblue" stroke="midnightblue" points="71.4181,-319.775 65.9785,-310.683 64.5611,-321.183 71.4181,-319.775"/>
</g>
<!-- Node4 -->
<g id="node4" class="node"><title>Node4</title>
<g id="a_node4"><a xlink:href="a00082.html" target="_top" xlink:title="std::count_if () selector. ">
<polygon fill="white" stroke="black" points="173.5,-470.5 173.5,-498.5 289.5,-498.5 289.5,-470.5 173.5,-470.5"/>
<text text-anchor="start" x="181.5" y="-487.3" font-family="Helvetica,sans-Serif" font-size="9.00">__gnu_parallel::__count</text>
<text text-anchor="middle" x="231.5" y="-477.3" font-family="Helvetica,sans-Serif" font-size="9.00">_if_selector&lt; _It &gt;</text>
</a>
</g>
</g>
<!-- Node1&#45;&gt;Node4 -->
<g id="edge3" class="edge"><title>Node1&#45;&gt;Node4</title>
<path fill="none" stroke="midnightblue" d="M71.4045,-320.346C84.4512,-356.112 113.841,-423.494 161,-461.5 165.255,-464.929 170.042,-467.856 175.061,-470.351"/>
<polygon fill="midnightblue" stroke="midnightblue" points="74.6429,-319.005 68.0172,-310.738 68.0411,-321.332 74.6429,-319.005"/>
</g>
<!-- Node5 -->
<g id="node5" class="node"><title>Node5</title>
<g id="a_node5"><a xlink:href="a00083.html" target="_top" xlink:title="std::count() selector. ">
<polygon fill="white" stroke="black" points="173.5,-423.5 173.5,-451.5 289.5,-451.5 289.5,-423.5 173.5,-423.5"/>
<text text-anchor="start" x="181.5" y="-440.3" font-family="Helvetica,sans-Serif" font-size="9.00">__gnu_parallel::__count</text>
<text text-anchor="middle" x="231.5" y="-430.3" font-family="Helvetica,sans-Serif" font-size="9.00">_selector&lt; _It &gt;</text>
</a>
</g>
</g>
<!-- Node1&#45;&gt;Node5 -->
<g id="edge4" class="edge"><title>Node1&#45;&gt;Node5</title>
<path fill="none" stroke="midnightblue" d="M76.7651,-319.305C93.2896,-345.807 123.917,-389.135 161,-414.5 166.035,-417.944 171.626,-420.905 177.386,-423.444"/>
<polygon fill="midnightblue" stroke="midnightblue" points="79.7102,-317.412 71.5208,-310.69 73.7308,-321.052 79.7102,-317.412"/>
</g>
<!-- Node6 -->
<g id="node6" class="node"><title>Node6</title>
<g id="a_node6"><a xlink:href="a00084.html" target="_top" xlink:title="std::fill() selector. ">
<polygon fill="white" stroke="black" points="180,-376.5 180,-404.5 283,-404.5 283,-376.5 180,-376.5"/>
<text text-anchor="start" x="188" y="-393.3" font-family="Helvetica,sans-Serif" font-size="9.00">__gnu_parallel::__fill</text>
<text text-anchor="middle" x="231.5" y="-383.3" font-family="Helvetica,sans-Serif" font-size="9.00">_selector&lt; _It &gt;</text>
</a>
</g>
</g>
<!-- Node1&#45;&gt;Node6 -->
<g id="edge5" class="edge"><title>Node1&#45;&gt;Node6</title>
<path fill="none" stroke="midnightblue" d="M87.5187,-317.273C106.452,-332.807 134.066,-353.666 161,-367.5 167.444,-370.81 174.464,-373.786 181.484,-376.413"/>
<polygon fill="midnightblue" stroke="midnightblue" points="89.6364,-314.482 79.7142,-310.767 85.154,-319.859 89.6364,-314.482"/>
</g>
<!-- Node7 -->
<g id="node7" class="node"><title>Node7</title>
<g id="a_node7"><a xlink:href="a00087.html" target="_top" xlink:title="std::for_each() selector. ">
<polygon fill="white" stroke="black" points="179.5,-329.5 179.5,-357.5 283.5,-357.5 283.5,-329.5 179.5,-329.5"/>
<text text-anchor="start" x="187.5" y="-346.3" font-family="Helvetica,sans-Serif" font-size="9.00">__gnu_parallel::__for</text>
<text text-anchor="middle" x="231.5" y="-336.3" font-family="Helvetica,sans-Serif" font-size="9.00">_each_selector&lt; _It &gt;</text>
</a>
</g>
</g>
<!-- Node1&#45;&gt;Node7 -->
<g id="edge6" class="edge"><title>Node1&#45;&gt;Node7</title>
<path fill="none" stroke="midnightblue" d="M123.266,-313.32C142.089,-318.618 162.667,-324.409 180.718,-329.489"/>
<polygon fill="midnightblue" stroke="midnightblue" points="124.18,-309.942 113.606,-310.602 122.283,-316.68 124.18,-309.942"/>
</g>
<!-- Node8 -->
<g id="node8" class="node"><title>Node8</title>
<g id="a_node8"><a xlink:href="a00088.html" target="_top" xlink:title="std::generate() selector. ">
<polygon fill="white" stroke="black" points="166,-282.5 166,-310.5 297,-310.5 297,-282.5 166,-282.5"/>
<text text-anchor="start" x="174" y="-299.3" font-family="Helvetica,sans-Serif" font-size="9.00">__gnu_parallel::__generate</text>
<text text-anchor="middle" x="231.5" y="-289.3" font-family="Helvetica,sans-Serif" font-size="9.00">_selector&lt; _It &gt;</text>
</a>
</g>
</g>
<!-- Node1&#45;&gt;Node8 -->
<g id="edge7" class="edge"><title>Node1&#45;&gt;Node8</title>
<path fill="none" stroke="midnightblue" d="M135.301,-296.5C145.493,-296.5 155.923,-296.5 165.966,-296.5"/>
<polygon fill="midnightblue" stroke="midnightblue" points="135.21,-293 125.21,-296.5 135.21,-300 135.21,-293"/>
</g>
<!-- Node9 -->
<g id="node9" class="node"><title>Node9</title>
<g id="a_node9"><a xlink:href="a00091.html" target="_top" xlink:title="Selector that just returns the passed iterator. ">
<polygon fill="white" stroke="black" points="170,-235.5 170,-263.5 293,-263.5 293,-235.5 170,-235.5"/>
<text text-anchor="start" x="178" y="-252.3" font-family="Helvetica,sans-Serif" font-size="9.00">__gnu_parallel::__identity</text>
<text text-anchor="middle" x="231.5" y="-242.3" font-family="Helvetica,sans-Serif" font-size="9.00">_selector&lt; _It &gt;</text>
</a>
</g>
</g>
<!-- Node1&#45;&gt;Node9 -->
<g id="edge8" class="edge"><title>Node1&#45;&gt;Node9</title>
<path fill="none" stroke="midnightblue" d="M123.266,-279.68C142.089,-274.382 162.667,-268.591 180.718,-263.511"/>
<polygon fill="midnightblue" stroke="midnightblue" points="122.283,-276.32 113.606,-282.398 124.18,-283.058 122.283,-276.32"/>
</g>
<!-- Node10 -->
<g id="node10" class="node"><title>Node10</title>
<g id="a_node10"><a xlink:href="a00092.html" target="_top" xlink:title="std::inner_product() selector. ">
<polygon fill="white" stroke="black" points="174,-188.5 174,-216.5 289,-216.5 289,-188.5 174,-188.5"/>
<text text-anchor="start" x="182" y="-205.3" font-family="Helvetica,sans-Serif" font-size="9.00">__gnu_parallel::__inner</text>
<text text-anchor="middle" x="231.5" y="-195.3" font-family="Helvetica,sans-Serif" font-size="9.00">_product_selector&lt; _It &gt;</text>
</a>
</g>
</g>
<!-- Node1&#45;&gt;Node10 -->
<g id="edge9" class="edge"><title>Node1&#45;&gt;Node10</title>
<path fill="none" stroke="midnightblue" d="M87.9613,-275.862C106.936,-260.64 134.401,-240.266 161,-226.5 168.142,-222.804 175.978,-219.473 183.734,-216.552"/>
<polygon fill="midnightblue" stroke="midnightblue" points="85.6695,-273.215 80.1259,-282.244 90.09,-278.643 85.6695,-273.215"/>
</g>
<!-- Node11 -->
<g id="node11" class="node"><title>Node11</title>
<g id="a_node11"><a xlink:href="a00102.html" target="_top" xlink:title="std::replace() selector. ">
<polygon fill="white" stroke="black" points="169,-141.5 169,-169.5 294,-169.5 294,-141.5 169,-141.5"/>
<text text-anchor="start" x="177" y="-158.3" font-family="Helvetica,sans-Serif" font-size="9.00">__gnu_parallel::__replace</text>
<text text-anchor="middle" x="231.5" y="-148.3" font-family="Helvetica,sans-Serif" font-size="9.00">_if_selector&lt; _It &gt;</text>
</a>
</g>
</g>
<!-- Node1&#45;&gt;Node11 -->
<g id="edge10" class="edge"><title>Node1&#45;&gt;Node11</title>
<path fill="none" stroke="midnightblue" d="M76.8678,-273.974C93.4913,-247.779 124.214,-204.899 161,-179.5 166.567,-175.656 172.808,-172.375 179.206,-169.589"/>
<polygon fill="midnightblue" stroke="midnightblue" points="73.8843,-272.144 71.589,-282.487 79.8334,-275.833 73.8843,-272.144"/>
</g>
<!-- Node12 -->
<g id="node12" class="node"><title>Node12</title>
<g id="a_node12"><a xlink:href="a00103.html" target="_top" xlink:title="std::replace() selector. ">
<polygon fill="white" stroke="black" points="169,-94.5 169,-122.5 294,-122.5 294,-94.5 169,-94.5"/>
<text text-anchor="start" x="177" y="-111.3" font-family="Helvetica,sans-Serif" font-size="9.00">__gnu_parallel::__replace</text>
<text text-anchor="middle" x="231.5" y="-101.3" font-family="Helvetica,sans-Serif" font-size="9.00">_selector&lt; _It &gt;</text>
</a>
</g>
</g>
<!-- Node1&#45;&gt;Node12 -->
<g id="edge11" class="edge"><title>Node1&#45;&gt;Node12</title>
<path fill="none" stroke="midnightblue" d="M71.5062,-272.873C84.6859,-237.423 114.247,-170.576 161,-132.5 165.751,-128.631 171.164,-125.369 176.823,-122.622"/>
<polygon fill="midnightblue" stroke="midnightblue" points="68.1723,-271.801 68.0813,-282.396 74.7592,-274.171 68.1723,-271.801"/>
</g>
<!-- Node13 -->
<g id="node13" class="node"><title>Node13</title>
<g id="a_node13"><a xlink:href="a00104.html" target="_top" xlink:title="std::transform() __selector, one input sequence variant. ">
<polygon fill="white" stroke="black" points="163,-47.5 163,-75.5 300,-75.5 300,-47.5 163,-47.5"/>
<text text-anchor="start" x="171" y="-64.3" font-family="Helvetica,sans-Serif" font-size="9.00">__gnu_parallel::__transform1</text>
<text text-anchor="middle" x="231.5" y="-54.3" font-family="Helvetica,sans-Serif" font-size="9.00">_selector&lt; _It &gt;</text>
</a>
</g>
</g>
<!-- Node1&#45;&gt;Node13 -->
<g id="edge12" class="edge"><title>Node1&#45;&gt;Node13</title>
<path fill="none" stroke="midnightblue" d="M68.1348,-272.481C77.7437,-229.042 103.886,-137.152 161,-85.5 165.355,-81.5614 170.389,-78.2633 175.717,-75.5027"/>
<polygon fill="midnightblue" stroke="midnightblue" points="64.6763,-271.92 66.0394,-282.427 71.5259,-273.363 64.6763,-271.92"/>
</g>
<!-- Node14 -->
<g id="node14" class="node"><title>Node14</title>
<g id="a_node14"><a xlink:href="a00105.html" target="_top" xlink:title="std::transform() __selector, two input sequences variant. ">
<polygon fill="white" stroke="black" points="163,-0.5 163,-28.5 300,-28.5 300,-0.5 163,-0.5"/>
<text text-anchor="start" x="171" y="-17.3" font-family="Helvetica,sans-Serif" font-size="9.00">__gnu_parallel::__transform2</text>
<text text-anchor="middle" x="231.5" y="-7.3" font-family="Helvetica,sans-Serif" font-size="9.00">_selector&lt; _It &gt;</text>
</a>
</g>
</g>
<!-- Node1&#45;&gt;Node14 -->
<g id="edge13" class="edge"><title>Node1&#45;&gt;Node14</title>
<path fill="none" stroke="midnightblue" d="M65.8646,-272.212C72.0685,-221.631 93.33,-104.248 161,-38.5 165.028,-34.586 169.725,-31.3085 174.741,-28.5643"/>
<polygon fill="midnightblue" stroke="midnightblue" points="62.3788,-271.889 64.7297,-282.22 69.3342,-272.678 62.3788,-271.889"/>
</g>
</g>
</svg>
