<?xml version="1.0" encoding="UTF-8" standalone="no"?>
<!DOCTYPE svg PUBLIC "-//W3C//DTD SVG 1.1//EN"
 "http://www.w3.org/Graphics/SVG/1.1/DTD/svg11.dtd">
<!-- Generated by graphviz version 2.38.0 (20140413.2041)
 -->
<!-- Title: __gnu_parallel::_LoserTreeUnguarded&lt; false, _Tp, _Compare &gt; Pages: 1 -->
<svg width="171pt" height="112pt"
 viewBox="0.00 0.00 171.00 112.00" xmlns="http://www.w3.org/2000/svg" xmlns:xlink="http://www.w3.org/1999/xlink">
<g id="graph0" class="graph" transform="scale(1 1) rotate(0) translate(4 108)">
<title>__gnu_parallel::_LoserTreeUnguarded&lt; false, _Tp, _Compare &gt;</title>
<polygon fill="white" stroke="none" points="-4,4 -4,-108 167,-108 167,4 -4,4"/>
<!-- Node1 -->
<g id="node1" class="node"><title>Node1</title>
<polygon fill="#bfbfbf" stroke="black" points="16,-0.5 16,-38.5 147,-38.5 147,-0.5 16,-0.5"/>
<text text-anchor="start" x="24" y="-27.3" font-family="Helvetica,sans-Serif" font-size="9.00">__gnu_parallel::_LoserTree</text>
<text text-anchor="start" x="24" y="-17.3" font-family="Helvetica,sans-Serif" font-size="9.00">Unguarded&lt; false, _Tp,</text>
<text text-anchor="middle" x="81.5" y="-7.3" font-family="Helvetica,sans-Serif" font-size="9.00"> _Compare &gt;</text>
</g>
<!-- Node2 -->
<g id="node2" class="node"><title>Node2</title>
<g id="a_node2"><a xlink:href="a00133.html" target="_top" xlink:title="Base class for unguarded _LoserTree implementation. ">
<polygon fill="white" stroke="black" points="0,-75.5 0,-103.5 163,-103.5 163,-75.5 0,-75.5"/>
<text text-anchor="start" x="8" y="-92.3" font-family="Helvetica,sans-Serif" font-size="9.00">__gnu_parallel::_LoserTree</text>
<text text-anchor="middle" x="81.5" y="-82.3" font-family="Helvetica,sans-Serif" font-size="9.00">UnguardedBase&lt; _Tp, _Compare &gt;</text>
</a>
</g>
</g>
<!-- Node2&#45;&gt;Node1 -->
<g id="edge1" class="edge"><title>Node2&#45;&gt;Node1</title>
<path fill="none" stroke="midnightblue" d="M81.5,-65.172C81.5,-56.5199 81.5,-46.8416 81.5,-38.7116"/>
<polygon fill="midnightblue" stroke="midnightblue" points="78.0001,-65.3889 81.5,-75.3889 85.0001,-65.389 78.0001,-65.3889"/>
</g>
</g>
</svg>
