<?xml version="1.0" encoding="UTF-8" standalone="no"?>
<!DOCTYPE svg PUBLIC "-//W3C//DTD SVG 1.1//EN"
 "http://www.w3.org/Graphics/SVG/1.1/DTD/svg11.dtd">
<!-- Generated by graphviz version 2.38.0 (20140413.2041)
 -->
<!-- Title: __gnu_parallel::__unary_negate&lt; _Predicate, argument_type &gt; Pages: 1 -->
<svg width="154pt" height="112pt"
 viewBox="0.00 0.00 154.00 112.00" xmlns="http://www.w3.org/2000/svg" xmlns:xlink="http://www.w3.org/1999/xlink">
<g id="graph0" class="graph" transform="scale(1 1) rotate(0) translate(4 108)">
<title>__gnu_parallel::__unary_negate&lt; _Predicate, argument_type &gt;</title>
<polygon fill="white" stroke="none" points="-4,4 -4,-108 150,-108 150,4 -4,4"/>
<!-- Node1 -->
<g id="node1" class="node"><title>Node1</title>
<polygon fill="#bfbfbf" stroke="black" points="0,-0.5 0,-38.5 146,-38.5 146,-0.5 0,-0.5"/>
<text text-anchor="start" x="8" y="-27.3" font-family="Helvetica,sans-Serif" font-size="9.00">__gnu_parallel::__unary</text>
<text text-anchor="start" x="8" y="-17.3" font-family="Helvetica,sans-Serif" font-size="9.00">_negate&lt; _Predicate, argument</text>
<text text-anchor="middle" x="73" y="-7.3" font-family="Helvetica,sans-Serif" font-size="9.00">_type &gt;</text>
</g>
<!-- Node2 -->
<g id="node2" class="node"><title>Node2</title>
<g id="a_node2"><a xlink:href="a00703.html" target="_top" xlink:title="std::unary_function\l\&lt; argument_type, bool \&gt;">
<polygon fill="white" stroke="black" points="15,-75.5 15,-103.5 131,-103.5 131,-75.5 15,-75.5"/>
<text text-anchor="start" x="23" y="-92.3" font-family="Helvetica,sans-Serif" font-size="9.00">std::unary_function</text>
<text text-anchor="middle" x="73" y="-82.3" font-family="Helvetica,sans-Serif" font-size="9.00">&lt; argument_type, bool &gt;</text>
</a>
</g>
</g>
<!-- Node2&#45;&gt;Node1 -->
<g id="edge1" class="edge"><title>Node2&#45;&gt;Node1</title>
<path fill="none" stroke="midnightblue" d="M73,-65.172C73,-56.5199 73,-46.8416 73,-38.7116"/>
<polygon fill="midnightblue" stroke="midnightblue" points="69.5001,-65.3889 73,-75.3889 76.5001,-65.389 69.5001,-65.3889"/>
</g>
</g>
</svg>
