<?xml version="1.0" encoding="UTF-8" standalone="no"?>
<!DOCTYPE svg PUBLIC "-//W3C//DTD SVG 1.1//EN"
 "http://www.w3.org/Graphics/SVG/1.1/DTD/svg11.dtd">
<!-- Generated by graphviz version 2.38.0 (20140413.2041)
 -->
<!-- Title: __gnu_parallel::_LoserTreePointerUnguarded&lt; __stable, _Tp, _Compare &gt; Pages: 1 -->
<svg width="145pt" height="122pt"
 viewBox="0.00 0.00 145.00 122.00" xmlns="http://www.w3.org/2000/svg" xmlns:xlink="http://www.w3.org/1999/xlink">
<g id="graph0" class="graph" transform="scale(1 1) rotate(0) translate(4 118)">
<title>__gnu_parallel::_LoserTreePointerUnguarded&lt; __stable, _Tp, _Compare &gt;</title>
<polygon fill="white" stroke="none" points="-4,4 -4,-118 141,-118 141,4 -4,4"/>
<!-- Node1 -->
<g id="node1" class="node"><title>Node1</title>
<polygon fill="#bfbfbf" stroke="black" points="0,-0.5 0,-38.5 137,-38.5 137,-0.5 0,-0.5"/>
<text text-anchor="start" x="8" y="-27.3" font-family="Helvetica,sans-Serif" font-size="9.00">__gnu_parallel::_LoserTree</text>
<text text-anchor="start" x="8" y="-17.3" font-family="Helvetica,sans-Serif" font-size="9.00">PointerUnguarded&lt; __stable,</text>
<text text-anchor="middle" x="68.5" y="-7.3" font-family="Helvetica,sans-Serif" font-size="9.00"> _Tp, _Compare &gt;</text>
</g>
<!-- Node2 -->
<g id="node2" class="node"><title>Node2</title>
<g id="a_node2"><a xlink:href="a00129.html" target="_top" xlink:title="Unguarded loser tree, keeping only pointers to the elements in the tree structure. ">
<polygon fill="white" stroke="black" points="3,-75.5 3,-113.5 134,-113.5 134,-75.5 3,-75.5"/>
<text text-anchor="start" x="11" y="-102.3" font-family="Helvetica,sans-Serif" font-size="9.00">__gnu_parallel::_LoserTree</text>
<text text-anchor="start" x="11" y="-92.3" font-family="Helvetica,sans-Serif" font-size="9.00">PointerUnguardedBase&lt; </text>
<text text-anchor="middle" x="68.5" y="-82.3" font-family="Helvetica,sans-Serif" font-size="9.00">_Tp, _Compare &gt;</text>
</a>
</g>
</g>
<!-- Node2&#45;&gt;Node1 -->
<g id="edge1" class="edge"><title>Node2&#45;&gt;Node1</title>
<path fill="none" stroke="midnightblue" d="M68.5,-65.3688C68.5,-56.3769 68.5,-46.6687 68.5,-38.5904"/>
<polygon fill="midnightblue" stroke="midnightblue" points="65.0001,-65.455 68.5,-75.4551 72.0001,-65.4551 65.0001,-65.455"/>
</g>
</g>
</svg>
