<?xml version="1.0" encoding="UTF-8" standalone="no"?>
<!DOCTYPE svg PUBLIC "-//W3C//DTD SVG 1.1//EN"
 "http://www.w3.org/Graphics/SVG/1.1/DTD/svg11.dtd">
<!-- Generated by graphviz version 2.38.0 (20140413.2041)
 -->
<!-- Title: __gnu_parallel::find_tag Pages: 1 -->
<svg width="278pt" height="131pt"
 viewBox="0.00 0.00 278.00 131.00" xmlns="http://www.w3.org/2000/svg" xmlns:xlink="http://www.w3.org/1999/xlink">
<g id="graph0" class="graph" transform="scale(1 1) rotate(0) translate(4 127)">
<title>__gnu_parallel::find_tag</title>
<polygon fill="white" stroke="none" points="-4,4 -4,-127 274,-127 274,4 -4,4"/>
<!-- Node1 -->
<g id="node1" class="node"><title>Node1</title>
<polygon fill="#bfbfbf" stroke="black" points="0,-52.5 0,-70.5 116,-70.5 116,-52.5 0,-52.5"/>
<text text-anchor="middle" x="58" y="-59.3" font-family="Helvetica,sans-Serif" font-size="9.00">__gnu_parallel::find_tag</text>
</g>
<!-- Node2 -->
<g id="node2" class="node"><title>Node2</title>
<g id="a_node2"><a xlink:href="a00152.html" target="_top" xlink:title="Selects the constant block size variant for std::find(). ">
<polygon fill="white" stroke="black" points="152,-94.5 152,-122.5 270,-122.5 270,-94.5 152,-94.5"/>
<text text-anchor="start" x="160" y="-111.3" font-family="Helvetica,sans-Serif" font-size="9.00">__gnu_parallel::constant</text>
<text text-anchor="middle" x="211" y="-101.3" font-family="Helvetica,sans-Serif" font-size="9.00">_size_blocks_tag</text>
</a>
</g>
</g>
<!-- Node1&#45;&gt;Node2 -->
<g id="edge1" class="edge"><title>Node1&#45;&gt;Node2</title>
<path fill="none" stroke="midnightblue" d="M97.7579,-73.5637C118.262,-79.9459 143.548,-87.8162 164.925,-94.4701"/>
<polygon fill="midnightblue" stroke="midnightblue" points="98.7027,-70.1922 88.1143,-70.5621 96.6223,-76.8759 98.7027,-70.1922"/>
</g>
<!-- Node3 -->
<g id="node3" class="node"><title>Node3</title>
<g id="a_node3"><a xlink:href="a00154.html" target="_top" xlink:title="Selects the equal splitting variant for std::find(). ">
<polygon fill="white" stroke="black" points="157.5,-47.5 157.5,-75.5 264.5,-75.5 264.5,-47.5 157.5,-47.5"/>
<text text-anchor="start" x="165.5" y="-64.3" font-family="Helvetica,sans-Serif" font-size="9.00">__gnu_parallel::equal</text>
<text text-anchor="middle" x="211" y="-54.3" font-family="Helvetica,sans-Serif" font-size="9.00">_split_tag</text>
</a>
</g>
</g>
<!-- Node1&#45;&gt;Node3 -->
<g id="edge2" class="edge"><title>Node1&#45;&gt;Node3</title>
<path fill="none" stroke="midnightblue" d="M126.362,-61.5C136.736,-61.5 147.317,-61.5 157.31,-61.5"/>
<polygon fill="midnightblue" stroke="midnightblue" points="126.087,-58.0001 116.087,-61.5 126.087,-65.0001 126.087,-58.0001"/>
</g>
<!-- Node4 -->
<g id="node4" class="node"><title>Node4</title>
<g id="a_node4"><a xlink:href="a00157.html" target="_top" xlink:title="Selects the growing block size variant for std::find(). ">
<polygon fill="white" stroke="black" points="153,-0.5 153,-28.5 269,-28.5 269,-0.5 153,-0.5"/>
<text text-anchor="start" x="161" y="-17.3" font-family="Helvetica,sans-Serif" font-size="9.00">__gnu_parallel::growing</text>
<text text-anchor="middle" x="211" y="-7.3" font-family="Helvetica,sans-Serif" font-size="9.00">_blocks_tag</text>
</a>
</g>
</g>
<!-- Node1&#45;&gt;Node4 -->
<g id="edge3" class="edge"><title>Node1&#45;&gt;Node4</title>
<path fill="none" stroke="midnightblue" d="M97.7579,-49.4363C118.262,-43.0541 143.548,-35.1838 164.925,-28.5299"/>
<polygon fill="midnightblue" stroke="midnightblue" points="96.6223,-46.1241 88.1143,-52.4379 98.7027,-52.8078 96.6223,-46.1241"/>
</g>
</g>
</svg>
