<?xml version="1.0" encoding="UTF-8" standalone="no"?>
<!DOCTYPE svg PUBLIC "-//W3C//DTD SVG 1.1//EN"
 "http://www.w3.org/Graphics/SVG/1.1/DTD/svg11.dtd">
<!-- Generated by graphviz version 2.38.0 (20140413.2041)
 -->
<!-- Title: __gnu_parallel::_LoserTreePointerUnguardedBase&lt; _Tp, _Compare &gt; Pages: 1 -->
<svg width="306pt" height="104pt"
 viewBox="0.00 0.00 306.00 104.00" xmlns="http://www.w3.org/2000/svg" xmlns:xlink="http://www.w3.org/1999/xlink">
<g id="graph0" class="graph" transform="scale(1 1) rotate(0) translate(4 100)">
<title>__gnu_parallel::_LoserTreePointerUnguardedBase&lt; _Tp, _Compare &gt;</title>
<polygon fill="white" stroke="none" points="-4,4 -4,-100 302,-100 302,4 -4,4"/>
<!-- Node1 -->
<g id="node1" class="node"><title>Node1</title>
<polygon fill="#bfbfbf" stroke="black" points="0,-28.5 0,-66.5 131,-66.5 131,-28.5 0,-28.5"/>
<text text-anchor="start" x="8" y="-55.3" font-family="Helvetica,sans-Serif" font-size="9.00">__gnu_parallel::_LoserTree</text>
<text text-anchor="start" x="8" y="-45.3" font-family="Helvetica,sans-Serif" font-size="9.00">PointerUnguardedBase&lt; </text>
<text text-anchor="middle" x="65.5" y="-35.3" font-family="Helvetica,sans-Serif" font-size="9.00">_Tp, _Compare &gt;</text>
</g>
<!-- Node2 -->
<g id="node2" class="node"><title>Node2</title>
<g id="a_node2"><a xlink:href="a00127.html" target="_top" xlink:title="Stable unguarded _LoserTree variant storing pointers. ">
<polygon fill="white" stroke="black" points="167,-57.5 167,-95.5 298,-95.5 298,-57.5 167,-57.5"/>
<text text-anchor="start" x="175" y="-84.3" font-family="Helvetica,sans-Serif" font-size="9.00">__gnu_parallel::_LoserTree</text>
<text text-anchor="start" x="175" y="-74.3" font-family="Helvetica,sans-Serif" font-size="9.00">PointerUnguarded&lt; _Tp,</text>
<text text-anchor="middle" x="232.5" y="-64.3" font-family="Helvetica,sans-Serif" font-size="9.00"> _Compare &gt;</text>
</a>
</g>
</g>
<!-- Node1&#45;&gt;Node2 -->
<g id="edge1" class="edge"><title>Node1&#45;&gt;Node2</title>
<path fill="none" stroke="midnightblue" d="M141.239,-60.6359C149.821,-62.1443 158.516,-63.6725 166.948,-65.1545"/>
<polygon fill="midnightblue" stroke="midnightblue" points="141.694,-57.1623 131.239,-58.8783 140.482,-64.0566 141.694,-57.1623"/>
</g>
<!-- Node3 -->
<g id="node3" class="node"><title>Node3</title>
<g id="a_node3"><a xlink:href="a00128.html" target="_top" xlink:title="Unstable unguarded _LoserTree variant storing pointers. ">
<polygon fill="white" stroke="black" points="167,-0.5 167,-38.5 298,-38.5 298,-0.5 167,-0.5"/>
<text text-anchor="start" x="175" y="-27.3" font-family="Helvetica,sans-Serif" font-size="9.00">__gnu_parallel::_LoserTree</text>
<text text-anchor="start" x="175" y="-17.3" font-family="Helvetica,sans-Serif" font-size="9.00">PointerUnguarded&lt; false,</text>
<text text-anchor="middle" x="232.5" y="-7.3" font-family="Helvetica,sans-Serif" font-size="9.00"> _Tp, _Compare &gt;</text>
</a>
</g>
</g>
<!-- Node1&#45;&gt;Node3 -->
<g id="edge2" class="edge"><title>Node1&#45;&gt;Node3</title>
<path fill="none" stroke="midnightblue" d="M141.239,-34.817C149.821,-33.3607 158.516,-31.8852 166.948,-30.4543"/>
<polygon fill="midnightblue" stroke="midnightblue" points="140.512,-31.3902 131.239,-36.514 141.683,-38.2916 140.512,-31.3902"/>
</g>
</g>
</svg>
