<?xml version="1.0" encoding="UTF-8" standalone="no"?>
<!DOCTYPE svg PUBLIC "-//W3C//DTD SVG 1.1//EN"
 "http://www.w3.org/Graphics/SVG/1.1/DTD/svg11.dtd">
<!-- Generated by graphviz version 2.38.0 (20140413.2041)
 -->
<!-- Title: __gnu_parallel::_Lexicographic&lt; _T1, _T2, _Compare &gt; Pages: 1 -->
<svg width="154pt" height="122pt"
 viewBox="0.00 0.00 154.00 122.00" xmlns="http://www.w3.org/2000/svg" xmlns:xlink="http://www.w3.org/1999/xlink">
<g id="graph0" class="graph" transform="scale(1 1) rotate(0) translate(4 118)">
<title>__gnu_parallel::_Lexicographic&lt; _T1, _T2, _Compare &gt;</title>
<polygon fill="white" stroke="none" points="-4,4 -4,-118 150,-118 150,4 -4,4"/>
<!-- Node1 -->
<g id="node1" class="node"><title>Node1</title>
<polygon fill="#bfbfbf" stroke="black" points="0,-0.5 0,-28.5 146,-28.5 146,-0.5 0,-0.5"/>
<text text-anchor="start" x="8" y="-17.3" font-family="Helvetica,sans-Serif" font-size="9.00">__gnu_parallel::_Lexicographic</text>
<text text-anchor="middle" x="73" y="-7.3" font-family="Helvetica,sans-Serif" font-size="9.00">&lt; _T1, _T2, _Compare &gt;</text>
</g>
<!-- Node2 -->
<g id="node2" class="node"><title>Node2</title>
<g id="a_node2"><a xlink:href="a00423.html" target="_top" xlink:title="std::binary_function\l\&lt; std::pair\&lt; _T1, _T2\l \&gt;, std::pair\&lt; _T1, _T2\l \&gt;, bool \&gt;">
<polygon fill="white" stroke="black" points="21,-65.5 21,-113.5 125,-113.5 125,-65.5 21,-65.5"/>
<text text-anchor="start" x="29" y="-102.3" font-family="Helvetica,sans-Serif" font-size="9.00">std::binary_function</text>
<text text-anchor="start" x="29" y="-92.3" font-family="Helvetica,sans-Serif" font-size="9.00">&lt; std::pair&lt; _T1, _T2</text>
<text text-anchor="start" x="29" y="-82.3" font-family="Helvetica,sans-Serif" font-size="9.00"> &gt;, std::pair&lt; _T1, _T2</text>
<text text-anchor="middle" x="73" y="-72.3" font-family="Helvetica,sans-Serif" font-size="9.00"> &gt;, bool &gt;</text>
</a>
</g>
</g>
<!-- Node2&#45;&gt;Node1 -->
<g id="edge1" class="edge"><title>Node2&#45;&gt;Node1</title>
<path fill="none" stroke="midnightblue" d="M73,-55.1577C73,-45.8655 73,-36.2983 73,-28.8893"/>
<polygon fill="midnightblue" stroke="midnightblue" points="69.5001,-55.4023 73,-65.4023 76.5001,-55.4024 69.5001,-55.4023"/>
</g>
</g>
</svg>
