<?xml version="1.0" encoding="UTF-8" standalone="no"?>
<!DOCTYPE svg PUBLIC "-//W3C//DTD SVG 1.1//EN"
 "http://www.w3.org/Graphics/SVG/1.1/DTD/svg11.dtd">
<!-- Generated by graphviz version 2.38.0 (20140413.2041)
 -->
<!-- Title: __gnu_parallel::_IteratorPair&lt; _Iterator1, _Iterator2, _IteratorCategory &gt; Pages: 1 -->
<svg width="133pt" height="112pt"
 viewBox="0.00 0.00 133.00 112.00" xmlns="http://www.w3.org/2000/svg" xmlns:xlink="http://www.w3.org/1999/xlink">
<g id="graph0" class="graph" transform="scale(1 1) rotate(0) translate(4 108)">
<title>__gnu_parallel::_IteratorPair&lt; _Iterator1, _Iterator2, _IteratorCategory &gt;</title>
<polygon fill="white" stroke="none" points="-4,4 -4,-108 129,-108 129,4 -4,4"/>
<!-- Node1 -->
<g id="node1" class="node"><title>Node1</title>
<polygon fill="#bfbfbf" stroke="black" points="0,-0.5 0,-38.5 125,-38.5 125,-0.5 0,-0.5"/>
<text text-anchor="start" x="8" y="-27.3" font-family="Helvetica,sans-Serif" font-size="9.00">__gnu_parallel::_Iterator</text>
<text text-anchor="start" x="8" y="-17.3" font-family="Helvetica,sans-Serif" font-size="9.00">Pair&lt; _Iterator1, _Iterator2,</text>
<text text-anchor="middle" x="62.5" y="-7.3" font-family="Helvetica,sans-Serif" font-size="9.00"> _IteratorCategory &gt;</text>
</g>
<!-- Node2 -->
<g id="node2" class="node"><title>Node2</title>
<g id="a_node2"><a xlink:href="a00433.html" target="_top" xlink:title="std::pair\&lt; _Iterator1,\l _Iterator2 \&gt;">
<polygon fill="white" stroke="black" points="13.5,-75.5 13.5,-103.5 111.5,-103.5 111.5,-75.5 13.5,-75.5"/>
<text text-anchor="start" x="21.5" y="-92.3" font-family="Helvetica,sans-Serif" font-size="9.00">std::pair&lt; _Iterator1,</text>
<text text-anchor="middle" x="62.5" y="-82.3" font-family="Helvetica,sans-Serif" font-size="9.00"> _Iterator2 &gt;</text>
</a>
</g>
</g>
<!-- Node2&#45;&gt;Node1 -->
<g id="edge1" class="edge"><title>Node2&#45;&gt;Node1</title>
<path fill="none" stroke="midnightblue" d="M62.5,-65.172C62.5,-56.5199 62.5,-46.8416 62.5,-38.7116"/>
<polygon fill="midnightblue" stroke="midnightblue" points="59.0001,-65.3889 62.5,-75.3889 66.0001,-65.389 59.0001,-65.3889"/>
</g>
</g>
</svg>
