<?xml version="1.0" encoding="UTF-8" standalone="no"?>
<!DOCTYPE svg PUBLIC "-//W3C//DTD SVG 1.1//EN"
 "http://www.w3.org/Graphics/SVG/1.1/DTD/svg11.dtd">
<!-- Generated by graphviz version 2.38.0 (20140413.2041)
 -->
<!-- Title: __gnu_parallel::_LoserTreeUnguardedBase&lt; _Tp, _Compare &gt; Pages: 1 -->
<svg width="349pt" height="94pt"
 viewBox="0.00 0.00 349.00 94.00" xmlns="http://www.w3.org/2000/svg" xmlns:xlink="http://www.w3.org/1999/xlink">
<g id="graph0" class="graph" transform="scale(1 1) rotate(0) translate(4 90)">
<title>__gnu_parallel::_LoserTreeUnguardedBase&lt; _Tp, _Compare &gt;</title>
<polygon fill="white" stroke="none" points="-4,4 -4,-90 345,-90 345,4 -4,4"/>
<!-- Node1 -->
<g id="node1" class="node"><title>Node1</title>
<polygon fill="#bfbfbf" stroke="black" points="0,-31.5 0,-59.5 163,-59.5 163,-31.5 0,-31.5"/>
<text text-anchor="start" x="8" y="-48.3" font-family="Helvetica,sans-Serif" font-size="9.00">__gnu_parallel::_LoserTree</text>
<text text-anchor="middle" x="81.5" y="-38.3" font-family="Helvetica,sans-Serif" font-size="9.00">UnguardedBase&lt; _Tp, _Compare &gt;</text>
</g>
<!-- Node2 -->
<g id="node2" class="node"><title>Node2</title>
<g id="a_node2"><a xlink:href="a00131.html" target="_top" xlink:title="Stable implementation of unguarded _LoserTree. ">
<polygon fill="white" stroke="black" points="199,-57.5 199,-85.5 341,-85.5 341,-57.5 199,-57.5"/>
<text text-anchor="start" x="207" y="-74.3" font-family="Helvetica,sans-Serif" font-size="9.00">__gnu_parallel::_LoserTree</text>
<text text-anchor="middle" x="270" y="-64.3" font-family="Helvetica,sans-Serif" font-size="9.00">Unguarded&lt; _Tp, _Compare &gt;</text>
</a>
</g>
</g>
<!-- Node1&#45;&gt;Node2 -->
<g id="edge1" class="edge"><title>Node1&#45;&gt;Node2</title>
<path fill="none" stroke="midnightblue" d="M173.316,-58.1606C181.944,-59.3636 190.601,-60.5704 198.989,-61.7398"/>
<polygon fill="midnightblue" stroke="midnightblue" points="173.604,-54.6671 163.217,-56.7528 172.638,-61.6001 173.604,-54.6671"/>
</g>
<!-- Node3 -->
<g id="node3" class="node"><title>Node3</title>
<g id="a_node3"><a xlink:href="a00132.html" target="_top" xlink:title="Non&#45;Stable implementation of unguarded _LoserTree. ">
<polygon fill="white" stroke="black" points="204.5,-0.5 204.5,-38.5 335.5,-38.5 335.5,-0.5 204.5,-0.5"/>
<text text-anchor="start" x="212.5" y="-27.3" font-family="Helvetica,sans-Serif" font-size="9.00">__gnu_parallel::_LoserTree</text>
<text text-anchor="start" x="212.5" y="-17.3" font-family="Helvetica,sans-Serif" font-size="9.00">Unguarded&lt; false, _Tp,</text>
<text text-anchor="middle" x="270" y="-7.3" font-family="Helvetica,sans-Serif" font-size="9.00"> _Compare &gt;</text>
</a>
</g>
</g>
<!-- Node1&#45;&gt;Node3 -->
<g id="edge2" class="edge"><title>Node1&#45;&gt;Node3</title>
<path fill="none" stroke="midnightblue" d="M173.279,-32.8445C183.805,-31.3771 194.373,-29.9038 204.446,-28.4995"/>
<polygon fill="midnightblue" stroke="midnightblue" points="172.638,-29.3999 163.217,-34.2472 173.604,-36.3329 172.638,-29.3999"/>
</g>
</g>
</svg>
