<?xml version="1.0" encoding="UTF-8" standalone="no"?>
<!DOCTYPE svg PUBLIC "-//W3C//DTD SVG 1.1//EN"
 "http://www.w3.org/Graphics/SVG/1.1/DTD/svg11.dtd">
<!-- Generated by graphviz version 2.38.0 (20140413.2041)
 -->
<!-- Title: __gnu_parallel::_LoserTreeBase&lt; _Tp, _Compare &gt; Pages: 1 -->
<svg width="306pt" height="84pt"
 viewBox="0.00 0.00 306.00 84.00" xmlns="http://www.w3.org/2000/svg" xmlns:xlink="http://www.w3.org/1999/xlink">
<g id="graph0" class="graph" transform="scale(1 1) rotate(0) translate(4 80)">
<title>__gnu_parallel::_LoserTreeBase&lt; _Tp, _Compare &gt;</title>
<polygon fill="white" stroke="none" points="-4,4 -4,-80 302,-80 302,4 -4,4"/>
<!-- Node1 -->
<g id="node1" class="node"><title>Node1</title>
<polygon fill="#bfbfbf" stroke="black" points="0,-23.5 0,-51.5 131,-51.5 131,-23.5 0,-23.5"/>
<text text-anchor="start" x="8" y="-40.3" font-family="Helvetica,sans-Serif" font-size="9.00">__gnu_parallel::_LoserTree</text>
<text text-anchor="middle" x="65.5" y="-30.3" font-family="Helvetica,sans-Serif" font-size="9.00">Base&lt; _Tp, _Compare &gt;</text>
</g>
<!-- Node2 -->
<g id="node2" class="node"><title>Node2</title>
<g id="a_node2"><a xlink:href="a00119.html" target="_top" xlink:title="Stable _LoserTree variant. ">
<polygon fill="white" stroke="black" points="167,-47.5 167,-75.5 298,-75.5 298,-47.5 167,-47.5"/>
<text text-anchor="start" x="175" y="-64.3" font-family="Helvetica,sans-Serif" font-size="9.00">__gnu_parallel::_LoserTree</text>
<text text-anchor="middle" x="232.5" y="-54.3" font-family="Helvetica,sans-Serif" font-size="9.00">&lt; _Tp, _Compare &gt;</text>
</a>
</g>
</g>
<!-- Node1&#45;&gt;Node2 -->
<g id="edge1" class="edge"><title>Node1&#45;&gt;Node2</title>
<path fill="none" stroke="midnightblue" d="M141.239,-48.3711C149.821,-49.6194 158.516,-50.8841 166.948,-52.1106"/>
<polygon fill="midnightblue" stroke="midnightblue" points="141.638,-44.8925 131.239,-46.9166 140.631,-51.8196 141.638,-44.8925"/>
</g>
<!-- Node3 -->
<g id="node3" class="node"><title>Node3</title>
<g id="a_node3"><a xlink:href="a00120.html" target="_top" xlink:title="Unstable _LoserTree variant. ">
<polygon fill="white" stroke="black" points="167,-0.5 167,-28.5 298,-28.5 298,-0.5 167,-0.5"/>
<text text-anchor="start" x="175" y="-17.3" font-family="Helvetica,sans-Serif" font-size="9.00">__gnu_parallel::_LoserTree</text>
<text text-anchor="middle" x="232.5" y="-7.3" font-family="Helvetica,sans-Serif" font-size="9.00">&lt; false, _Tp, _Compare &gt;</text>
</a>
</g>
</g>
<!-- Node1&#45;&gt;Node3 -->
<g id="edge2" class="edge"><title>Node1&#45;&gt;Node3</title>
<path fill="none" stroke="midnightblue" d="M141.239,-27.0819C149.821,-25.8856 158.516,-24.6736 166.948,-23.4982"/>
<polygon fill="midnightblue" stroke="midnightblue" points="140.66,-23.6286 131.239,-28.4758 141.626,-30.5616 140.66,-23.6286"/>
</g>
</g>
</svg>
