<?xml version="1.0" encoding="UTF-8" standalone="no"?>
<!DOCTYPE svg PUBLIC "-//W3C//DTD SVG 1.1//EN"
 "http://www.w3.org/Graphics/SVG/1.1/DTD/svg11.dtd">
<!-- Generated by graphviz version 2.38.0 (20140413.2041)
 -->
<!-- Title: __gnu_parallel::_LoserTreePointerBase&lt; _Tp, _Compare &gt; Pages: 1 -->
<svg width="339pt" height="84pt"
 viewBox="0.00 0.00 339.00 84.00" xmlns="http://www.w3.org/2000/svg" xmlns:xlink="http://www.w3.org/1999/xlink">
<g id="graph0" class="graph" transform="scale(1 1) rotate(0) translate(4 80)">
<title>__gnu_parallel::_LoserTreePointerBase&lt; _Tp, _Compare &gt;</title>
<polygon fill="white" stroke="none" points="-4,4 -4,-80 335,-80 335,4 -4,4"/>
<!-- Node1 -->
<g id="node1" class="node"><title>Node1</title>
<polygon fill="#bfbfbf" stroke="black" points="0,-23.5 0,-51.5 146,-51.5 146,-23.5 0,-23.5"/>
<text text-anchor="start" x="8" y="-40.3" font-family="Helvetica,sans-Serif" font-size="9.00">__gnu_parallel::_LoserTree</text>
<text text-anchor="middle" x="73" y="-30.3" font-family="Helvetica,sans-Serif" font-size="9.00">PointerBase&lt; _Tp, _Compare &gt;</text>
</g>
<!-- Node2 -->
<g id="node2" class="node"><title>Node2</title>
<g id="a_node2"><a xlink:href="a00123.html" target="_top" xlink:title="Stable _LoserTree implementation. ">
<polygon fill="white" stroke="black" points="191,-47.5 191,-75.5 322,-75.5 322,-47.5 191,-47.5"/>
<text text-anchor="start" x="199" y="-64.3" font-family="Helvetica,sans-Serif" font-size="9.00">__gnu_parallel::_LoserTree</text>
<text text-anchor="middle" x="256.5" y="-54.3" font-family="Helvetica,sans-Serif" font-size="9.00">Pointer&lt; _Tp, _Compare &gt;</text>
</a>
</g>
</g>
<!-- Node1&#45;&gt;Node2 -->
<g id="edge1" class="edge"><title>Node1&#45;&gt;Node2</title>
<path fill="none" stroke="midnightblue" d="M156.352,-48.3895C167.917,-49.9188 179.666,-51.4723 190.838,-52.9496"/>
<polygon fill="midnightblue" stroke="midnightblue" points="156.628,-44.8956 146.255,-47.0544 155.71,-51.8352 156.628,-44.8956"/>
</g>
<!-- Node3 -->
<g id="node3" class="node"><title>Node3</title>
<g id="a_node3"><a xlink:href="a00124.html" target="_top" xlink:title="Unstable _LoserTree implementation. ">
<polygon fill="white" stroke="black" points="182,-0.5 182,-28.5 331,-28.5 331,-0.5 182,-0.5"/>
<text text-anchor="start" x="190" y="-17.3" font-family="Helvetica,sans-Serif" font-size="9.00">__gnu_parallel::_LoserTree</text>
<text text-anchor="middle" x="256.5" y="-7.3" font-family="Helvetica,sans-Serif" font-size="9.00">Pointer&lt; false, _Tp, _Compare &gt;</text>
</a>
</g>
</g>
<!-- Node1&#45;&gt;Node3 -->
<g id="edge2" class="edge"><title>Node1&#45;&gt;Node3</title>
<path fill="none" stroke="midnightblue" d="M156.18,-27.086C164.69,-26.0076 173.302,-24.9163 181.712,-23.8506"/>
<polygon fill="midnightblue" stroke="midnightblue" points="155.736,-23.6142 146.255,-28.3437 156.616,-30.5587 155.736,-23.6142"/>
</g>
</g>
</svg>
