<?xml version="1.0" encoding="UTF-8" standalone="no"?>
<!DOCTYPE svg PUBLIC "-//W3C//DTD SVG 1.1//EN"
 "http://www.w3.org/Graphics/SVG/1.1/DTD/svg11.dtd">
<!-- Generated by graphviz version 2.38.0 (20140413.2041)
 -->
<!-- Title: __gnu_parallel::__transform1_selector&lt; _It &gt; Pages: 1 -->
<svg width="145pt" height="102pt"
 viewBox="0.00 0.00 145.00 102.00" xmlns="http://www.w3.org/2000/svg" xmlns:xlink="http://www.w3.org/1999/xlink">
<g id="graph0" class="graph" transform="scale(1 1) rotate(0) translate(4 98)">
<title>__gnu_parallel::__transform1_selector&lt; _It &gt;</title>
<polygon fill="white" stroke="none" points="-4,4 -4,-98 141,-98 141,4 -4,4"/>
<!-- Node1 -->
<g id="node1" class="node"><title>Node1</title>
<polygon fill="#bfbfbf" stroke="black" points="0,-0.5 0,-28.5 137,-28.5 137,-0.5 0,-0.5"/>
<text text-anchor="start" x="8" y="-17.3" font-family="Helvetica,sans-Serif" font-size="9.00">__gnu_parallel::__transform1</text>
<text text-anchor="middle" x="68.5" y="-7.3" font-family="Helvetica,sans-Serif" font-size="9.00">_selector&lt; _It &gt;</text>
</g>
<!-- Node2 -->
<g id="node2" class="node"><title>Node2</title>
<g id="a_node2"><a xlink:href="a00090.html" target="_top" xlink:title="Generic __selector for embarrassingly parallel functions. ">
<polygon fill="white" stroke="black" points="6,-65.5 6,-93.5 131,-93.5 131,-65.5 6,-65.5"/>
<text text-anchor="start" x="14" y="-82.3" font-family="Helvetica,sans-Serif" font-size="9.00">__gnu_parallel::__generic</text>
<text text-anchor="middle" x="68.5" y="-72.3" font-family="Helvetica,sans-Serif" font-size="9.00">_for_each_selector&lt; _It &gt;</text>
</a>
</g>
</g>
<!-- Node2&#45;&gt;Node1 -->
<g id="edge1" class="edge"><title>Node2&#45;&gt;Node1</title>
<path fill="none" stroke="midnightblue" d="M68.5,-55.1641C68.5,-46.1693 68.5,-36.2205 68.5,-28.5369"/>
<polygon fill="midnightblue" stroke="midnightblue" points="65.0001,-55.4463 68.5,-65.4464 72.0001,-55.4464 65.0001,-55.4463"/>
</g>
</g>
</svg>
