<?xml version="1.0" encoding="UTF-8" standalone="no"?>
<!DOCTYPE svg PUBLIC "-//W3C//DTD SVG 1.1//EN"
 "http://www.w3.org/Graphics/SVG/1.1/DTD/svg11.dtd">
<!-- Generated by graphviz version 2.38.0 (20140413.2041)
 -->
<!-- Title: __gnu_pbds::range_invalidation_guarantee Pages: 1 -->
<svg width="157pt" height="167pt"
 viewBox="0.00 0.00 157.00 167.00" xmlns="http://www.w3.org/2000/svg" xmlns:xlink="http://www.w3.org/1999/xlink">
<g id="graph0" class="graph" transform="scale(1 1) rotate(0) translate(4 163)">
<title>__gnu_pbds::range_invalidation_guarantee</title>
<polygon fill="white" stroke="none" points="-4,4 -4,-163 153,-163 153,4 -4,4"/>
<!-- Node1 -->
<g id="node1" class="node"><title>Node1</title>
<polygon fill="#bfbfbf" stroke="black" points="0,-0.5 0,-28.5 149,-28.5 149,-0.5 0,-0.5"/>
<text text-anchor="start" x="8" y="-17.3" font-family="Helvetica,sans-Serif" font-size="9.00">__gnu_pbds::range_invalidation</text>
<text text-anchor="middle" x="74.5" y="-7.3" font-family="Helvetica,sans-Serif" font-size="9.00">_guarantee</text>
</g>
<!-- Node2 -->
<g id="node2" class="node"><title>Node2</title>
<g id="a_node2"><a xlink:href="a00352.html" target="_top" xlink:title="__gnu_pbds::point_invalidation\l_guarantee">
<polygon fill="white" stroke="black" points="1.5,-65.5 1.5,-93.5 147.5,-93.5 147.5,-65.5 1.5,-65.5"/>
<text text-anchor="start" x="9.5" y="-82.3" font-family="Helvetica,sans-Serif" font-size="9.00">__gnu_pbds::point_invalidation</text>
<text text-anchor="middle" x="74.5" y="-72.3" font-family="Helvetica,sans-Serif" font-size="9.00">_guarantee</text>
</a>
</g>
</g>
<!-- Node2&#45;&gt;Node1 -->
<g id="edge1" class="edge"><title>Node2&#45;&gt;Node1</title>
<path fill="none" stroke="midnightblue" d="M74.5,-55.1641C74.5,-46.1693 74.5,-36.2205 74.5,-28.5369"/>
<polygon fill="midnightblue" stroke="midnightblue" points="71.0001,-55.4463 74.5,-65.4464 78.0001,-55.4464 71.0001,-55.4463"/>
</g>
<!-- Node3 -->
<g id="node3" class="node"><title>Node3</title>
<g id="a_node3"><a xlink:href="a00173.html" target="_top" xlink:title="__gnu_pbds::basic_invalidation\l_guarantee">
<polygon fill="white" stroke="black" points="1,-130.5 1,-158.5 148,-158.5 148,-130.5 1,-130.5"/>
<text text-anchor="start" x="9" y="-147.3" font-family="Helvetica,sans-Serif" font-size="9.00">__gnu_pbds::basic_invalidation</text>
<text text-anchor="middle" x="74.5" y="-137.3" font-family="Helvetica,sans-Serif" font-size="9.00">_guarantee</text>
</a>
</g>
</g>
<!-- Node3&#45;&gt;Node2 -->
<g id="edge2" class="edge"><title>Node3&#45;&gt;Node2</title>
<path fill="none" stroke="midnightblue" d="M74.5,-120.164C74.5,-111.169 74.5,-101.221 74.5,-93.5369"/>
<polygon fill="midnightblue" stroke="midnightblue" points="71.0001,-120.446 74.5,-130.446 78.0001,-120.446 71.0001,-120.446"/>
</g>
</g>
</svg>
