<?xml version="1.0" encoding="UTF-8" standalone="no"?>
<!DOCTYPE svg PUBLIC "-//W3C//DTD SVG 1.1//EN"
 "http://www.w3.org/Graphics/SVG/1.1/DTD/svg11.dtd">
<!-- Generated by graphviz version 2.38.0 (20140413.2041)
 -->
<!-- Title: __gnu_pbds::null_node_update&lt; _Tp1, _Tp2, _Tp3, _Tp4 &gt; Pages: 1 -->
<svg width="122pt" height="102pt"
 viewBox="0.00 0.00 122.00 102.00" xmlns="http://www.w3.org/2000/svg" xmlns:xlink="http://www.w3.org/1999/xlink">
<g id="graph0" class="graph" transform="scale(1 1) rotate(0) translate(4 98)">
<title>__gnu_pbds::null_node_update&lt; _Tp1, _Tp2, _Tp3, _Tp4 &gt;</title>
<polygon fill="white" stroke="none" points="-4,4 -4,-98 118,-98 118,4 -4,4"/>
<!-- Node1 -->
<g id="node1" class="node"><title>Node1</title>
<polygon fill="#bfbfbf" stroke="black" points="0,-0.5 0,-38.5 114,-38.5 114,-0.5 0,-0.5"/>
<text text-anchor="start" x="8" y="-27.3" font-family="Helvetica,sans-Serif" font-size="9.00">__gnu_pbds::null_node</text>
<text text-anchor="start" x="8" y="-17.3" font-family="Helvetica,sans-Serif" font-size="9.00">_update&lt; _Tp1, _Tp2,</text>
<text text-anchor="middle" x="57" y="-7.3" font-family="Helvetica,sans-Serif" font-size="9.00"> _Tp3, _Tp4 &gt;</text>
</g>
<!-- Node2 -->
<g id="node2" class="node"><title>Node2</title>
<g id="a_node2"><a xlink:href="a00348.html" target="_top" xlink:title="Represents no type, or absence of type, for template tricks. ">
<polygon fill="white" stroke="black" points="2,-75.5 2,-93.5 112,-93.5 112,-75.5 2,-75.5"/>
<text text-anchor="middle" x="57" y="-82.3" font-family="Helvetica,sans-Serif" font-size="9.00">__gnu_pbds::null_type</text>
</a>
</g>
</g>
<!-- Node2&#45;&gt;Node1 -->
<g id="edge1" class="edge"><title>Node2&#45;&gt;Node1</title>
<path fill="none" stroke="midnightblue" d="M57,-65.0758C57,-56.7168 57,-46.8643 57,-38.5506"/>
<polygon fill="midnightblue" stroke="midnightblue" points="53.5001,-65.2638 57,-75.2639 60.5001,-65.2639 53.5001,-65.2638"/>
</g>
</g>
</svg>
