<?xml version="1.0" encoding="UTF-8" standalone="no"?>
<!DOCTYPE svg PUBLIC "-//W3C//DTD SVG 1.1//EN"
 "http://www.w3.org/Graphics/SVG/1.1/DTD/svg11.dtd">
<!-- Generated by graphviz version 2.38.0 (20140413.2041)
 -->
<!-- Title: __gnu_pbds::lu_counter_policy&lt; Max_Count, _Alloc &gt; Pages: 1 -->
<svg width="146pt" height="112pt"
 viewBox="0.00 0.00 146.00 112.00" xmlns="http://www.w3.org/2000/svg" xmlns:xlink="http://www.w3.org/1999/xlink">
<g id="graph0" class="graph" transform="scale(1 1) rotate(0) translate(4 108)">
<title>__gnu_pbds::lu_counter_policy&lt; Max_Count, _Alloc &gt;</title>
<polygon fill="white" stroke="none" points="-4,4 -4,-108 142,-108 142,4 -4,4"/>
<!-- Node1 -->
<g id="node1" class="node"><title>Node1</title>
<polygon fill="#bfbfbf" stroke="black" points="0,-0.5 0,-28.5 138,-28.5 138,-0.5 0,-0.5"/>
<text text-anchor="start" x="8" y="-17.3" font-family="Helvetica,sans-Serif" font-size="9.00">__gnu_pbds::lu_counter</text>
<text text-anchor="middle" x="69" y="-7.3" font-family="Helvetica,sans-Serif" font-size="9.00">_policy&lt; Max_Count, _Alloc &gt;</text>
</g>
<!-- Node2 -->
<g id="node2" class="node"><title>Node2</title>
<g id="a_node2"><a xlink:href="a00258.html" target="_top" xlink:title="__gnu_pbds::detail\l::lu_counter_policy\l_base\&lt; _Alloc::size_type \&gt;">
<polygon fill="white" stroke="black" points="6,-65.5 6,-103.5 132,-103.5 132,-65.5 6,-65.5"/>
<text text-anchor="start" x="14" y="-92.3" font-family="Helvetica,sans-Serif" font-size="9.00">__gnu_pbds::detail</text>
<text text-anchor="start" x="14" y="-82.3" font-family="Helvetica,sans-Serif" font-size="9.00">::lu_counter_policy</text>
<text text-anchor="middle" x="69" y="-72.3" font-family="Helvetica,sans-Serif" font-size="9.00">_base&lt; _Alloc::size_type &gt;</text>
</a>
</g>
</g>
<!-- Node2&#45;&gt;Node1 -->
<g id="edge1" class="edge"><title>Node2&#45;&gt;Node1</title>
<path fill="none" stroke="#8b1a1a" d="M69,-55.0135C69,-45.9213 69,-36.2886 69,-28.8104"/>
<polygon fill="#8b1a1a" stroke="#8b1a1a" points="65.5001,-55.2772 69,-65.2772 72.5001,-55.2773 65.5001,-55.2772"/>
</g>
</g>
</svg>
