<?xml version="1.0" encoding="UTF-8" standalone="no"?>
<!DOCTYPE svg PUBLIC "-//W3C//DTD SVG 1.1//EN"
 "http://www.w3.org/Graphics/SVG/1.1/DTD/svg11.dtd">
<!-- Generated by graphviz version 2.38.0 (20140413.2041)
 -->
<!-- Title: __gnu_pbds::trie_order_statistics_node_update&lt; Node_CItr, Node_Itr, _ATraits, _Alloc &gt; Pages: 1 -->
<svg width="124pt" height="217pt"
 viewBox="0.00 0.00 124.00 217.00" xmlns="http://www.w3.org/2000/svg" xmlns:xlink="http://www.w3.org/1999/xlink">
<g id="graph0" class="graph" transform="scale(1 1) rotate(0) translate(4 213)">
<title>__gnu_pbds::trie_order_statistics_node_update&lt; Node_CItr, Node_Itr, _ATraits, _Alloc &gt;</title>
<polygon fill="white" stroke="none" points="-4,4 -4,-213 120,-213 120,4 -4,4"/>
<!-- Node1 -->
<g id="node1" class="node"><title>Node1</title>
<polygon fill="#bfbfbf" stroke="black" points="0,-0.5 0,-48.5 116,-48.5 116,-0.5 0,-0.5"/>
<text text-anchor="start" x="8" y="-37.3" font-family="Helvetica,sans-Serif" font-size="9.00">__gnu_pbds::trie_order</text>
<text text-anchor="start" x="8" y="-27.3" font-family="Helvetica,sans-Serif" font-size="9.00">_statistics_node_update</text>
<text text-anchor="start" x="8" y="-17.3" font-family="Helvetica,sans-Serif" font-size="9.00">&lt; Node_CItr, Node_Itr, </text>
<text text-anchor="middle" x="58" y="-7.3" font-family="Helvetica,sans-Serif" font-size="9.00">_ATraits, _Alloc &gt;</text>
</g>
<!-- Node2 -->
<g id="node2" class="node"><title>Node2</title>
<g id="a_node2"><a xlink:href="a00321.html" target="_top" xlink:title="Base class for trie policies. ">
<polygon fill="white" stroke="black" points="6.5,-85.5 6.5,-133.5 109.5,-133.5 109.5,-85.5 6.5,-85.5"/>
<text text-anchor="start" x="14.5" y="-122.3" font-family="Helvetica,sans-Serif" font-size="9.00">__gnu_pbds::detail</text>
<text text-anchor="start" x="14.5" y="-112.3" font-family="Helvetica,sans-Serif" font-size="9.00">::trie_policy_base&lt;</text>
<text text-anchor="start" x="14.5" y="-102.3" font-family="Helvetica,sans-Serif" font-size="9.00"> Node_CItr, Node_Itr,</text>
<text text-anchor="middle" x="58" y="-92.3" font-family="Helvetica,sans-Serif" font-size="9.00"> _ATraits, _Alloc &gt;</text>
</a>
</g>
</g>
<!-- Node2&#45;&gt;Node1 -->
<g id="edge1" class="edge"><title>Node2&#45;&gt;Node1</title>
<path fill="none" stroke="#8b1a1a" d="M58,-75.2987C58,-66.4164 58,-57.0052 58,-48.784"/>
<polygon fill="#8b1a1a" stroke="#8b1a1a" points="54.5001,-75.3798 58,-85.3799 61.5001,-75.3799 54.5001,-75.3798"/>
</g>
<!-- Node3 -->
<g id="node3" class="node"><title>Node3</title>
<g id="a_node3"><a xlink:href="a00206.html" target="_top" xlink:title="Primary template, base class for branch structure policies. ">
<polygon fill="white" stroke="black" points="1.5,-170.5 1.5,-208.5 114.5,-208.5 114.5,-170.5 1.5,-170.5"/>
<text text-anchor="start" x="9.5" y="-197.3" font-family="Helvetica,sans-Serif" font-size="9.00">__gnu_pbds::detail</text>
<text text-anchor="start" x="9.5" y="-187.3" font-family="Helvetica,sans-Serif" font-size="9.00">::branch_policy&lt; Node</text>
<text text-anchor="middle" x="58" y="-177.3" font-family="Helvetica,sans-Serif" font-size="9.00">_CItr, Node_Itr, _Alloc &gt;</text>
</a>
</g>
</g>
<!-- Node3&#45;&gt;Node2 -->
<g id="edge2" class="edge"><title>Node3&#45;&gt;Node2</title>
<path fill="none" stroke="midnightblue" d="M58,-160.232C58,-151.461 58,-141.904 58,-133.533"/>
<polygon fill="midnightblue" stroke="midnightblue" points="54.5001,-160.409 58,-170.409 61.5001,-160.409 54.5001,-160.409"/>
</g>
</g>
</svg>
