<?xml version="1.0" encoding="UTF-8" standalone="no"?>
<!DOCTYPE svg PUBLIC "-//W3C//DTD SVG 1.1//EN"
 "http://www.w3.org/Graphics/SVG/1.1/DTD/svg11.dtd">
<!-- Generated by graphviz version 2.38.0 (20140413.2041)
 -->
<!-- Title: __gnu_pbds::detail::bin_search_tree_node_it_&lt; Node, Const_Iterator, Iterator, _Alloc &gt; Pages: 1 -->
<svg width="291pt" height="57pt"
 viewBox="0.00 0.00 291.00 57.00" xmlns="http://www.w3.org/2000/svg" xmlns:xlink="http://www.w3.org/1999/xlink">
<g id="graph0" class="graph" transform="scale(1 1) rotate(0) translate(4 53)">
<title>__gnu_pbds::detail::bin_search_tree_node_it_&lt; Node, Const_Iterator, Iterator, _Alloc &gt;</title>
<polygon fill="white" stroke="none" points="-4,4 -4,-53 287,-53 287,4 -4,4"/>
<!-- Node1 -->
<g id="node1" class="node"><title>Node1</title>
<polygon fill="#bfbfbf" stroke="black" points="157,-0.5 157,-48.5 283,-48.5 283,-0.5 157,-0.5"/>
<text text-anchor="start" x="165" y="-37.3" font-family="Helvetica,sans-Serif" font-size="9.00">__gnu_pbds::detail</text>
<text text-anchor="start" x="165" y="-27.3" font-family="Helvetica,sans-Serif" font-size="9.00">::bin_search_tree_node</text>
<text text-anchor="start" x="165" y="-17.3" font-family="Helvetica,sans-Serif" font-size="9.00">_it_&lt; Node, Const_Iterator,</text>
<text text-anchor="middle" x="220" y="-7.3" font-family="Helvetica,sans-Serif" font-size="9.00"> Iterator, _Alloc &gt;</text>
</g>
<!-- Node2 -->
<g id="node2" class="node"><title>Node2</title>
<g id="a_node2"><a xlink:href="a00196.html" target="_top" xlink:title="Const node iterator. ">
<polygon fill="white" stroke="black" points="0,-0.5 0,-48.5 121,-48.5 121,-0.5 0,-0.5"/>
<text text-anchor="start" x="8" y="-37.3" font-family="Helvetica,sans-Serif" font-size="9.00">__gnu_pbds::detail</text>
<text text-anchor="start" x="8" y="-27.3" font-family="Helvetica,sans-Serif" font-size="9.00">::bin_search_tree_const</text>
<text text-anchor="start" x="8" y="-17.3" font-family="Helvetica,sans-Serif" font-size="9.00">_node_it_&lt; Node, Const</text>
<text text-anchor="middle" x="60.5" y="-7.3" font-family="Helvetica,sans-Serif" font-size="9.00">_Iterator, Iterator, _Alloc &gt;</text>
</a>
</g>
</g>
<!-- Node2&#45;&gt;Node1 -->
<g id="edge1" class="edge"><title>Node2&#45;&gt;Node1</title>
<path fill="none" stroke="midnightblue" d="M131.29,-24.5C139.769,-24.5 148.389,-24.5 156.748,-24.5"/>
<polygon fill="midnightblue" stroke="midnightblue" points="131.044,-21.0001 121.044,-24.5 131.044,-28.0001 131.044,-21.0001"/>
</g>
</g>
</svg>
