<?xml version="1.0" encoding="UTF-8" standalone="no"?>
<!DOCTYPE svg PUBLIC "-//W3C//DTD SVG 1.1//EN"
 "http://www.w3.org/Graphics/SVG/1.1/DTD/svg11.dtd">
<!-- Generated by graphviz version 2.38.0 (20140413.2041)
 -->
<!-- Title: __gnu_pbds::rc_binomial_heap_tag Pages: 1 -->
<svg width="137pt" height="157pt"
 viewBox="0.00 0.00 137.00 157.00" xmlns="http://www.w3.org/2000/svg" xmlns:xlink="http://www.w3.org/1999/xlink">
<g id="graph0" class="graph" transform="scale(1 1) rotate(0) translate(4 153)">
<title>__gnu_pbds::rc_binomial_heap_tag</title>
<polygon fill="white" stroke="none" points="-4,4 -4,-153 133,-153 133,4 -4,4"/>
<!-- Node1 -->
<g id="node1" class="node"><title>Node1</title>
<polygon fill="#bfbfbf" stroke="black" points="4,-0.5 4,-28.5 125,-28.5 125,-0.5 4,-0.5"/>
<text text-anchor="start" x="12" y="-17.3" font-family="Helvetica,sans-Serif" font-size="9.00">__gnu_pbds::rc_binomial</text>
<text text-anchor="middle" x="64.5" y="-7.3" font-family="Helvetica,sans-Serif" font-size="9.00">_heap_tag</text>
</g>
<!-- Node2 -->
<g id="node2" class="node"><title>Node2</title>
<g id="a_node2"><a xlink:href="a00354.html" target="_top" xlink:title="Basic priority&#45;queue. ">
<polygon fill="white" stroke="black" points="14,-65.5 14,-93.5 115,-93.5 115,-65.5 14,-65.5"/>
<text text-anchor="start" x="22" y="-82.3" font-family="Helvetica,sans-Serif" font-size="9.00">__gnu_pbds::priority</text>
<text text-anchor="middle" x="64.5" y="-72.3" font-family="Helvetica,sans-Serif" font-size="9.00">_queue_tag</text>
</a>
</g>
</g>
<!-- Node2&#45;&gt;Node1 -->
<g id="edge1" class="edge"><title>Node2&#45;&gt;Node1</title>
<path fill="none" stroke="midnightblue" d="M64.5,-55.1641C64.5,-46.1693 64.5,-36.2205 64.5,-28.5369"/>
<polygon fill="midnightblue" stroke="midnightblue" points="61.0001,-55.4463 64.5,-65.4464 68.0001,-55.4464 61.0001,-55.4463"/>
</g>
<!-- Node3 -->
<g id="node3" class="node"><title>Node3</title>
<g id="a_node3"><a xlink:href="a00180.html" target="_top" xlink:title="Base data structure tag. ">
<polygon fill="white" stroke="black" points="0,-130.5 0,-148.5 129,-148.5 129,-130.5 0,-130.5"/>
<text text-anchor="middle" x="64.5" y="-137.3" font-family="Helvetica,sans-Serif" font-size="9.00">__gnu_pbds::container_tag</text>
</a>
</g>
</g>
<!-- Node3&#45;&gt;Node2 -->
<g id="edge2" class="edge"><title>Node3&#45;&gt;Node2</title>
<path fill="none" stroke="midnightblue" d="M64.5,-120.321C64.5,-111.747 64.5,-101.7 64.5,-93.8428"/>
<polygon fill="midnightblue" stroke="midnightblue" points="61.0001,-120.435 64.5,-130.435 68.0001,-120.435 61.0001,-120.435"/>
</g>
</g>
</svg>
