<?xml version="1.0" encoding="UTF-8" standalone="no"?>
<!DOCTYPE svg PUBLIC "-//W3C//DTD SVG 1.1//EN"
 "http://www.w3.org/Graphics/SVG/1.1/DTD/svg11.dtd">
<!-- Generated by graphviz version 2.38.0 (20140413.2041)
 -->
<!-- Title: __gnu_pbds::thin_heap_tag Pages: 1 -->
<svg width="140pt" height="147pt"
 viewBox="0.00 0.00 140.00 147.00" xmlns="http://www.w3.org/2000/svg" xmlns:xlink="http://www.w3.org/1999/xlink">
<g id="graph0" class="graph" transform="scale(1 1) rotate(0) translate(4 143)">
<title>__gnu_pbds::thin_heap_tag</title>
<polygon fill="white" stroke="none" points="-4,4 -4,-143 136,-143 136,4 -4,4"/>
<!-- Node1 -->
<g id="node1" class="node"><title>Node1</title>
<polygon fill="#bfbfbf" stroke="black" points="0,-0.5 0,-18.5 132,-18.5 132,-0.5 0,-0.5"/>
<text text-anchor="middle" x="66" y="-7.3" font-family="Helvetica,sans-Serif" font-size="9.00">__gnu_pbds::thin_heap_tag</text>
</g>
<!-- Node2 -->
<g id="node2" class="node"><title>Node2</title>
<g id="a_node2"><a xlink:href="a00354.html" target="_top" xlink:title="Basic priority&#45;queue. ">
<polygon fill="white" stroke="black" points="15.5,-55.5 15.5,-83.5 116.5,-83.5 116.5,-55.5 15.5,-55.5"/>
<text text-anchor="start" x="23.5" y="-72.3" font-family="Helvetica,sans-Serif" font-size="9.00">__gnu_pbds::priority</text>
<text text-anchor="middle" x="66" y="-62.3" font-family="Helvetica,sans-Serif" font-size="9.00">_queue_tag</text>
</a>
</g>
</g>
<!-- Node2&#45;&gt;Node1 -->
<g id="edge1" class="edge"><title>Node2&#45;&gt;Node1</title>
<path fill="none" stroke="midnightblue" d="M66,-45.323C66,-35.936 66,-25.7002 66,-18.7715"/>
<polygon fill="midnightblue" stroke="midnightblue" points="62.5001,-45.3389 66,-55.3389 69.5001,-45.3389 62.5001,-45.3389"/>
</g>
<!-- Node3 -->
<g id="node3" class="node"><title>Node3</title>
<g id="a_node3"><a xlink:href="a00180.html" target="_top" xlink:title="Base data structure tag. ">
<polygon fill="white" stroke="black" points="1.5,-120.5 1.5,-138.5 130.5,-138.5 130.5,-120.5 1.5,-120.5"/>
<text text-anchor="middle" x="66" y="-127.3" font-family="Helvetica,sans-Serif" font-size="9.00">__gnu_pbds::container_tag</text>
</a>
</g>
</g>
<!-- Node3&#45;&gt;Node2 -->
<g id="edge2" class="edge"><title>Node3&#45;&gt;Node2</title>
<path fill="none" stroke="midnightblue" d="M66,-110.321C66,-101.747 66,-91.6999 66,-83.8428"/>
<polygon fill="midnightblue" stroke="midnightblue" points="62.5001,-110.435 66,-120.435 69.5001,-110.435 62.5001,-110.435"/>
</g>
</g>
</svg>
