<?xml version="1.0" encoding="UTF-8" standalone="no"?>
<!DOCTYPE svg PUBLIC "-//W3C//DTD SVG 1.1//EN"
 "http://www.w3.org/Graphics/SVG/1.1/DTD/svg11.dtd">
<!-- Generated by graphviz version 2.38.0 (20140413.2041)
 -->
<!-- Title: __gnu_pbds::container_traits&lt; Cntnr &gt; Pages: 1 -->
<svg width="119pt" height="112pt"
 viewBox="0.00 0.00 119.00 112.00" xmlns="http://www.w3.org/2000/svg" xmlns:xlink="http://www.w3.org/1999/xlink">
<g id="graph0" class="graph" transform="scale(1 1) rotate(0) translate(4 108)">
<title>__gnu_pbds::container_traits&lt; Cntnr &gt;</title>
<polygon fill="white" stroke="none" points="-4,4 -4,-108 115,-108 115,4 -4,4"/>
<!-- Node1 -->
<g id="node1" class="node"><title>Node1</title>
<polygon fill="#bfbfbf" stroke="black" points="0,-0.5 0,-28.5 111,-28.5 111,-0.5 0,-0.5"/>
<text text-anchor="start" x="8" y="-17.3" font-family="Helvetica,sans-Serif" font-size="9.00">__gnu_pbds::container</text>
<text text-anchor="middle" x="55.5" y="-7.3" font-family="Helvetica,sans-Serif" font-size="9.00">_traits&lt; Cntnr &gt;</text>
</g>
<!-- Node2 -->
<g id="node2" class="node"><title>Node2</title>
<g id="a_node2"><a xlink:href="a00182.html" target="_top" xlink:title="__gnu_pbds::container\l_traits_base\&lt; Cntnr::\lcontainer_category \&gt;">
<polygon fill="white" stroke="black" points="0,-65.5 0,-103.5 111,-103.5 111,-65.5 0,-65.5"/>
<text text-anchor="start" x="8" y="-92.3" font-family="Helvetica,sans-Serif" font-size="9.00">__gnu_pbds::container</text>
<text text-anchor="start" x="8" y="-82.3" font-family="Helvetica,sans-Serif" font-size="9.00">_traits_base&lt; Cntnr::</text>
<text text-anchor="middle" x="55.5" y="-72.3" font-family="Helvetica,sans-Serif" font-size="9.00">container_category &gt;</text>
</a>
</g>
</g>
<!-- Node2&#45;&gt;Node1 -->
<g id="edge1" class="edge"><title>Node2&#45;&gt;Node1</title>
<path fill="none" stroke="midnightblue" d="M55.5,-55.0135C55.5,-45.9213 55.5,-36.2886 55.5,-28.8104"/>
<polygon fill="midnightblue" stroke="midnightblue" points="52.0001,-55.2772 55.5,-65.2772 59.0001,-55.2773 52.0001,-55.2772"/>
</g>
</g>
</svg>
