<?xml version="1.0" encoding="UTF-8" standalone="no"?>
<!DOCTYPE svg PUBLIC "-//W3C//DTD SVG 1.1//EN"
 "http://www.w3.org/Graphics/SVG/1.1/DTD/svg11.dtd">
<!-- Generated by graphviz version 2.38.0 (20140413.2041)
 -->
<!-- Title: __gnu_pbds::ov_tree_tag Pages: 1 -->
<svg width="154pt" height="247pt"
 viewBox="0.00 0.00 154.00 247.00" xmlns="http://www.w3.org/2000/svg" xmlns:xlink="http://www.w3.org/1999/xlink">
<g id="graph0" class="graph" transform="scale(1 1) rotate(0) translate(4 243)">
<title>__gnu_pbds::ov_tree_tag</title>
<polygon fill="white" stroke="none" points="-4,4 -4,-243 150,-243 150,4 -4,4"/>
<!-- Node1 -->
<g id="node1" class="node"><title>Node1</title>
<polygon fill="#bfbfbf" stroke="black" points="12,-0.5 12,-18.5 134,-18.5 134,-0.5 12,-0.5"/>
<text text-anchor="middle" x="73" y="-7.3" font-family="Helvetica,sans-Serif" font-size="9.00">__gnu_pbds::ov_tree_tag</text>
</g>
<!-- Node2 -->
<g id="node2" class="node"><title>Node2</title>
<g id="a_node2"><a xlink:href="a00377.html" target="_top" xlink:title="Basic tree structure. ">
<polygon fill="white" stroke="black" points="19.5,-55.5 19.5,-73.5 126.5,-73.5 126.5,-55.5 19.5,-55.5"/>
<text text-anchor="middle" x="73" y="-62.3" font-family="Helvetica,sans-Serif" font-size="9.00">__gnu_pbds::tree_tag</text>
</a>
</g>
</g>
<!-- Node2&#45;&gt;Node1 -->
<g id="edge1" class="edge"><title>Node2&#45;&gt;Node1</title>
<path fill="none" stroke="midnightblue" d="M73,-45.1746C73,-36.0945 73,-25.5949 73,-18.5496"/>
<polygon fill="midnightblue" stroke="midnightblue" points="69.5001,-45.2187 73,-55.2188 76.5001,-45.2188 69.5001,-45.2187"/>
</g>
<!-- Node3 -->
<g id="node3" class="node"><title>Node3</title>
<g id="a_node3"><a xlink:href="a00170.html" target="_top" xlink:title="Basic branch structure. ">
<polygon fill="white" stroke="black" points="0,-110.5 0,-128.5 146,-128.5 146,-110.5 0,-110.5"/>
<text text-anchor="middle" x="73" y="-117.3" font-family="Helvetica,sans-Serif" font-size="9.00">__gnu_pbds::basic_branch_tag</text>
</a>
</g>
</g>
<!-- Node3&#45;&gt;Node2 -->
<g id="edge2" class="edge"><title>Node3&#45;&gt;Node2</title>
<path fill="none" stroke="midnightblue" d="M73,-100.175C73,-91.0945 73,-80.5949 73,-73.5496"/>
<polygon fill="midnightblue" stroke="midnightblue" points="69.5001,-100.219 73,-110.219 76.5001,-100.219 69.5001,-100.219"/>
</g>
<!-- Node4 -->
<g id="node4" class="node"><title>Node4</title>
<g id="a_node4"><a xlink:href="a00168.html" target="_top" xlink:title="Basic associative&#45;container. ">
<polygon fill="white" stroke="black" points="4.5,-165.5 4.5,-183.5 141.5,-183.5 141.5,-165.5 4.5,-165.5"/>
<text text-anchor="middle" x="73" y="-172.3" font-family="Helvetica,sans-Serif" font-size="9.00">__gnu_pbds::associative_tag</text>
</a>
</g>
</g>
<!-- Node4&#45;&gt;Node3 -->
<g id="edge3" class="edge"><title>Node4&#45;&gt;Node3</title>
<path fill="none" stroke="midnightblue" d="M73,-155.175C73,-146.094 73,-135.595 73,-128.55"/>
<polygon fill="midnightblue" stroke="midnightblue" points="69.5001,-155.219 73,-165.219 76.5001,-155.219 69.5001,-155.219"/>
</g>
<!-- Node5 -->
<g id="node5" class="node"><title>Node5</title>
<g id="a_node5"><a xlink:href="a00180.html" target="_top" xlink:title="Base data structure tag. ">
<polygon fill="white" stroke="black" points="8.5,-220.5 8.5,-238.5 137.5,-238.5 137.5,-220.5 8.5,-220.5"/>
<text text-anchor="middle" x="73" y="-227.3" font-family="Helvetica,sans-Serif" font-size="9.00">__gnu_pbds::container_tag</text>
</a>
</g>
</g>
<!-- Node5&#45;&gt;Node4 -->
<g id="edge4" class="edge"><title>Node5&#45;&gt;Node4</title>
<path fill="none" stroke="midnightblue" d="M73,-210.175C73,-201.094 73,-190.595 73,-183.55"/>
<polygon fill="midnightblue" stroke="midnightblue" points="69.5001,-210.219 73,-220.219 76.5001,-210.219 69.5001,-210.219"/>
</g>
</g>
</svg>
