<?xml version="1.0" encoding="UTF-8" standalone="no"?>
<!DOCTYPE svg PUBLIC "-//W3C//DTD SVG 1.1//EN"
 "http://www.w3.org/Graphics/SVG/1.1/DTD/svg11.dtd">
<!-- Generated by graphviz version 2.38.0 (20140413.2041)
 -->
<!-- Title: __gnu_pbds::list_update_tag Pages: 1 -->
<svg width="145pt" height="137pt"
 viewBox="0.00 0.00 145.00 137.00" xmlns="http://www.w3.org/2000/svg" xmlns:xlink="http://www.w3.org/1999/xlink">
<g id="graph0" class="graph" transform="scale(1 1) rotate(0) translate(4 133)">
<title>__gnu_pbds::list_update_tag</title>
<polygon fill="white" stroke="none" points="-4,4 -4,-133 141,-133 141,4 -4,4"/>
<!-- Node1 -->
<g id="node1" class="node"><title>Node1</title>
<polygon fill="#bfbfbf" stroke="black" points="0.5,-0.5 0.5,-18.5 136.5,-18.5 136.5,-0.5 0.5,-0.5"/>
<text text-anchor="middle" x="68.5" y="-7.3" font-family="Helvetica,sans-Serif" font-size="9.00">__gnu_pbds::list_update_tag</text>
</g>
<!-- Node2 -->
<g id="node2" class="node"><title>Node2</title>
<g id="a_node2"><a xlink:href="a00168.html" target="_top" xlink:title="Basic associative&#45;container. ">
<polygon fill="white" stroke="black" points="0,-55.5 0,-73.5 137,-73.5 137,-55.5 0,-55.5"/>
<text text-anchor="middle" x="68.5" y="-62.3" font-family="Helvetica,sans-Serif" font-size="9.00">__gnu_pbds::associative_tag</text>
</a>
</g>
</g>
<!-- Node2&#45;&gt;Node1 -->
<g id="edge1" class="edge"><title>Node2&#45;&gt;Node1</title>
<path fill="none" stroke="midnightblue" d="M68.5,-45.1746C68.5,-36.0945 68.5,-25.5949 68.5,-18.5496"/>
<polygon fill="midnightblue" stroke="midnightblue" points="65.0001,-45.2187 68.5,-55.2188 72.0001,-45.2188 65.0001,-45.2187"/>
</g>
<!-- Node3 -->
<g id="node3" class="node"><title>Node3</title>
<g id="a_node3"><a xlink:href="a00180.html" target="_top" xlink:title="Base data structure tag. ">
<polygon fill="white" stroke="black" points="4,-110.5 4,-128.5 133,-128.5 133,-110.5 4,-110.5"/>
<text text-anchor="middle" x="68.5" y="-117.3" font-family="Helvetica,sans-Serif" font-size="9.00">__gnu_pbds::container_tag</text>
</a>
</g>
</g>
<!-- Node3&#45;&gt;Node2 -->
<g id="edge2" class="edge"><title>Node3&#45;&gt;Node2</title>
<path fill="none" stroke="midnightblue" d="M68.5,-100.175C68.5,-91.0945 68.5,-80.5949 68.5,-73.5496"/>
<polygon fill="midnightblue" stroke="midnightblue" points="65.0001,-100.219 68.5,-110.219 72.0001,-100.219 65.0001,-100.219"/>
</g>
</g>
</svg>
