<?xml version="1.0" encoding="UTF-8" standalone="no"?>
<!DOCTYPE svg PUBLIC "-//W3C//DTD SVG 1.1//EN"
 "http://www.w3.org/Graphics/SVG/1.1/DTD/svg11.dtd">
<!-- Generated by graphviz version 2.38.0 (20140413.2041)
 -->
<!-- Title: __gnu_pbds::basic_hash_tag Pages: 1 -->
<svg width="278pt" height="192pt"
 viewBox="0.00 0.00 278.00 192.00" xmlns="http://www.w3.org/2000/svg" xmlns:xlink="http://www.w3.org/1999/xlink">
<g id="graph0" class="graph" transform="scale(1 1) rotate(0) translate(4 188)">
<title>__gnu_pbds::basic_hash_tag</title>
<polygon fill="white" stroke="none" points="-4,4 -4,-188 274,-188 274,4 -4,4"/>
<!-- Node1 -->
<g id="node1" class="node"><title>Node1</title>
<polygon fill="#bfbfbf" stroke="black" points="65.5,-55.5 65.5,-73.5 203.5,-73.5 203.5,-55.5 65.5,-55.5"/>
<text text-anchor="middle" x="134.5" y="-62.3" font-family="Helvetica,sans-Serif" font-size="9.00">__gnu_pbds::basic_hash_tag</text>
</g>
<!-- Node4 -->
<g id="node4" class="node"><title>Node4</title>
<g id="a_node4"><a xlink:href="a00178.html" target="_top" xlink:title="Collision&#45;chaining hash. ">
<polygon fill="white" stroke="black" points="0,-0.5 0,-18.5 125,-18.5 125,-0.5 0,-0.5"/>
<text text-anchor="middle" x="62.5" y="-7.3" font-family="Helvetica,sans-Serif" font-size="9.00">__gnu_pbds::cc_hash_tag</text>
</a>
</g>
</g>
<!-- Node1&#45;&gt;Node4 -->
<g id="edge3" class="edge"><title>Node1&#45;&gt;Node4</title>
<path fill="none" stroke="midnightblue" d="M115.47,-49.4916C102.099,-39.6491 84.6781,-26.8255 73.5382,-18.6253"/>
<polygon fill="midnightblue" stroke="midnightblue" points="113.436,-52.3409 123.565,-55.4504 117.586,-46.7035 113.436,-52.3409"/>
</g>
<!-- Node5 -->
<g id="node5" class="node"><title>Node5</title>
<g id="a_node5"><a xlink:href="a00335.html" target="_top" xlink:title="General&#45;probing hash. ">
<polygon fill="white" stroke="black" points="143,-0.5 143,-18.5 270,-18.5 270,-0.5 143,-0.5"/>
<text text-anchor="middle" x="206.5" y="-7.3" font-family="Helvetica,sans-Serif" font-size="9.00">__gnu_pbds::gp_hash_tag</text>
</a>
</g>
</g>
<!-- Node1&#45;&gt;Node5 -->
<g id="edge4" class="edge"><title>Node1&#45;&gt;Node5</title>
<path fill="none" stroke="midnightblue" d="M153.53,-49.4916C166.901,-39.6491 184.322,-26.8255 195.462,-18.6253"/>
<polygon fill="midnightblue" stroke="midnightblue" points="151.414,-46.7035 145.435,-55.4504 155.564,-52.3409 151.414,-46.7035"/>
</g>
<!-- Node2 -->
<g id="node2" class="node"><title>Node2</title>
<g id="a_node2"><a xlink:href="a00168.html" target="_top" xlink:title="Basic associative&#45;container. ">
<polygon fill="white" stroke="black" points="66,-110.5 66,-128.5 203,-128.5 203,-110.5 66,-110.5"/>
<text text-anchor="middle" x="134.5" y="-117.3" font-family="Helvetica,sans-Serif" font-size="9.00">__gnu_pbds::associative_tag</text>
</a>
</g>
</g>
<!-- Node2&#45;&gt;Node1 -->
<g id="edge1" class="edge"><title>Node2&#45;&gt;Node1</title>
<path fill="none" stroke="midnightblue" d="M134.5,-100.175C134.5,-91.0945 134.5,-80.5949 134.5,-73.5496"/>
<polygon fill="midnightblue" stroke="midnightblue" points="131,-100.219 134.5,-110.219 138,-100.219 131,-100.219"/>
</g>
<!-- Node3 -->
<g id="node3" class="node"><title>Node3</title>
<g id="a_node3"><a xlink:href="a00180.html" target="_top" xlink:title="Base data structure tag. ">
<polygon fill="white" stroke="black" points="70,-165.5 70,-183.5 199,-183.5 199,-165.5 70,-165.5"/>
<text text-anchor="middle" x="134.5" y="-172.3" font-family="Helvetica,sans-Serif" font-size="9.00">__gnu_pbds::container_tag</text>
</a>
</g>
</g>
<!-- Node3&#45;&gt;Node2 -->
<g id="edge2" class="edge"><title>Node3&#45;&gt;Node2</title>
<path fill="none" stroke="midnightblue" d="M134.5,-155.175C134.5,-146.094 134.5,-135.595 134.5,-128.55"/>
<polygon fill="midnightblue" stroke="midnightblue" points="131,-155.219 134.5,-165.219 138,-155.219 131,-155.219"/>
</g>
</g>
</svg>
