<?xml version="1.0" encoding="UTF-8" standalone="no"?>
<!DOCTYPE svg PUBLIC "-//W3C//DTD SVG 1.1//EN"
 "http://www.w3.org/Graphics/SVG/1.1/DTD/svg11.dtd">
<!-- Generated by graphviz version 2.38.0 (20140413.2041)
 -->
<!-- Title: __gnu_pbds::tree_tag Pages: 1 -->
<svg width="420pt" height="247pt"
 viewBox="0.00 0.00 420.00 247.00" xmlns="http://www.w3.org/2000/svg" xmlns:xlink="http://www.w3.org/1999/xlink">
<g id="graph0" class="graph" transform="scale(1 1) rotate(0) translate(4 243)">
<title>__gnu_pbds::tree_tag</title>
<polygon fill="white" stroke="none" points="-4,4 -4,-243 416,-243 416,4 -4,4"/>
<!-- Node1 -->
<g id="node1" class="node"><title>Node1</title>
<polygon fill="#bfbfbf" stroke="black" points="146.5,-55.5 146.5,-73.5 253.5,-73.5 253.5,-55.5 146.5,-55.5"/>
<text text-anchor="middle" x="200" y="-62.3" font-family="Helvetica,sans-Serif" font-size="9.00">__gnu_pbds::tree_tag</text>
</g>
<!-- Node5 -->
<g id="node5" class="node"><title>Node5</title>
<g id="a_node5"><a xlink:href="a00349.html" target="_top" xlink:title="Ordered&#45;vector tree. ">
<polygon fill="white" stroke="black" points="0,-0.5 0,-18.5 122,-18.5 122,-0.5 0,-0.5"/>
<text text-anchor="middle" x="61" y="-7.3" font-family="Helvetica,sans-Serif" font-size="9.00">__gnu_pbds::ov_tree_tag</text>
</a>
</g>
</g>
<!-- Node1&#45;&gt;Node5 -->
<g id="edge4" class="edge"><title>Node1&#45;&gt;Node5</title>
<path fill="none" stroke="midnightblue" d="M169.366,-51.8192C142.972,-41.7556 105.557,-27.4894 82.3098,-18.6253"/>
<polygon fill="midnightblue" stroke="midnightblue" points="168.298,-55.158 178.889,-55.4504 170.792,-48.6173 168.298,-55.158"/>
</g>
<!-- Node6 -->
<g id="node6" class="node"><title>Node6</title>
<g id="a_node6"><a xlink:href="a00357.html" target="_top" xlink:title="Red&#45;black tree. ">
<polygon fill="white" stroke="black" points="140,-0.5 140,-18.5 260,-18.5 260,-0.5 140,-0.5"/>
<text text-anchor="middle" x="200" y="-7.3" font-family="Helvetica,sans-Serif" font-size="9.00">__gnu_pbds::rb_tree_tag</text>
</a>
</g>
</g>
<!-- Node1&#45;&gt;Node6 -->
<g id="edge5" class="edge"><title>Node1&#45;&gt;Node6</title>
<path fill="none" stroke="midnightblue" d="M200,-45.1746C200,-36.0945 200,-25.5949 200,-18.5496"/>
<polygon fill="midnightblue" stroke="midnightblue" points="196.5,-45.2187 200,-55.2188 203.5,-45.2188 196.5,-45.2187"/>
</g>
<!-- Node7 -->
<g id="node7" class="node"><title>Node7</title>
<g id="a_node7"><a xlink:href="a00372.html" target="_top" xlink:title="Splay tree. ">
<polygon fill="white" stroke="black" points="278,-0.5 278,-18.5 412,-18.5 412,-0.5 278,-0.5"/>
<text text-anchor="middle" x="345" y="-7.3" font-family="Helvetica,sans-Serif" font-size="9.00">__gnu_pbds::splay_tree_tag</text>
</a>
</g>
</g>
<!-- Node1&#45;&gt;Node7 -->
<g id="edge6" class="edge"><title>Node1&#45;&gt;Node7</title>
<path fill="none" stroke="midnightblue" d="M231.594,-51.952C259.145,-41.8814 298.413,-27.5284 322.77,-18.6253"/>
<polygon fill="midnightblue" stroke="midnightblue" points="230.213,-48.7301 222.022,-55.4504 232.616,-55.3046 230.213,-48.7301"/>
</g>
<!-- Node2 -->
<g id="node2" class="node"><title>Node2</title>
<g id="a_node2"><a xlink:href="a00170.html" target="_top" xlink:title="Basic branch structure. ">
<polygon fill="white" stroke="black" points="127,-110.5 127,-128.5 273,-128.5 273,-110.5 127,-110.5"/>
<text text-anchor="middle" x="200" y="-117.3" font-family="Helvetica,sans-Serif" font-size="9.00">__gnu_pbds::basic_branch_tag</text>
</a>
</g>
</g>
<!-- Node2&#45;&gt;Node1 -->
<g id="edge1" class="edge"><title>Node2&#45;&gt;Node1</title>
<path fill="none" stroke="midnightblue" d="M200,-100.175C200,-91.0945 200,-80.5949 200,-73.5496"/>
<polygon fill="midnightblue" stroke="midnightblue" points="196.5,-100.219 200,-110.219 203.5,-100.219 196.5,-100.219"/>
</g>
<!-- Node3 -->
<g id="node3" class="node"><title>Node3</title>
<g id="a_node3"><a xlink:href="a00168.html" target="_top" xlink:title="Basic associative&#45;container. ">
<polygon fill="white" stroke="black" points="131.5,-165.5 131.5,-183.5 268.5,-183.5 268.5,-165.5 131.5,-165.5"/>
<text text-anchor="middle" x="200" y="-172.3" font-family="Helvetica,sans-Serif" font-size="9.00">__gnu_pbds::associative_tag</text>
</a>
</g>
</g>
<!-- Node3&#45;&gt;Node2 -->
<g id="edge2" class="edge"><title>Node3&#45;&gt;Node2</title>
<path fill="none" stroke="midnightblue" d="M200,-155.175C200,-146.094 200,-135.595 200,-128.55"/>
<polygon fill="midnightblue" stroke="midnightblue" points="196.5,-155.219 200,-165.219 203.5,-155.219 196.5,-155.219"/>
</g>
<!-- Node4 -->
<g id="node4" class="node"><title>Node4</title>
<g id="a_node4"><a xlink:href="a00180.html" target="_top" xlink:title="Base data structure tag. ">
<polygon fill="white" stroke="black" points="135.5,-220.5 135.5,-238.5 264.5,-238.5 264.5,-220.5 135.5,-220.5"/>
<text text-anchor="middle" x="200" y="-227.3" font-family="Helvetica,sans-Serif" font-size="9.00">__gnu_pbds::container_tag</text>
</a>
</g>
</g>
<!-- Node4&#45;&gt;Node3 -->
<g id="edge3" class="edge"><title>Node4&#45;&gt;Node3</title>
<path fill="none" stroke="midnightblue" d="M200,-210.175C200,-201.094 200,-190.595 200,-183.55"/>
<polygon fill="midnightblue" stroke="midnightblue" points="196.5,-210.219 200,-220.219 203.5,-210.219 196.5,-210.219"/>
</g>
</g>
</svg>
