<?xml version="1.0" encoding="UTF-8" standalone="no"?>
<!DOCTYPE svg PUBLIC "-//W3C//DTD SVG 1.1//EN"
 "http://www.w3.org/Graphics/SVG/1.1/DTD/svg11.dtd">
<!-- Generated by graphviz version 2.38.0 (20140413.2041)
 -->
<!-- Title: __gnu_pbds::container_error Pages: 1 -->
<svg width="351pt" height="102pt"
 viewBox="0.00 0.00 350.50 102.00" xmlns="http://www.w3.org/2000/svg" xmlns:xlink="http://www.w3.org/1999/xlink">
<g id="graph0" class="graph" transform="scale(1 1) rotate(0) translate(4 98)">
<title>__gnu_pbds::container_error</title>
<polygon fill="white" stroke="none" points="-4,4 -4,-98 346.5,-98 346.5,4 -4,4"/>
<!-- Node1 -->
<g id="node1" class="node"><title>Node1</title>
<polygon fill="#bfbfbf" stroke="black" points="114,-65.5 114,-93.5 225,-93.5 225,-65.5 114,-65.5"/>
<text text-anchor="start" x="122" y="-82.3" font-family="Helvetica,sans-Serif" font-size="9.00">__gnu_pbds::container</text>
<text text-anchor="middle" x="169.5" y="-72.3" font-family="Helvetica,sans-Serif" font-size="9.00">_error</text>
</g>
<!-- Node2 -->
<g id="node2" class="node"><title>Node2</title>
<g id="a_node2"><a xlink:href="a00340.html" target="_top" xlink:title="An entry cannot be inserted into a container object for logical reasons (not, e.g., if memory is unabvailable, in which case the allocator_type&#39;s exception will be thrown). ">
<polygon fill="white" stroke="black" points="0,-0.5 0,-28.5 95,-28.5 95,-0.5 0,-0.5"/>
<text text-anchor="start" x="8" y="-17.3" font-family="Helvetica,sans-Serif" font-size="9.00">__gnu_pbds::insert</text>
<text text-anchor="middle" x="47.5" y="-7.3" font-family="Helvetica,sans-Serif" font-size="9.00">_error</text>
</a>
</g>
</g>
<!-- Node1&#45;&gt;Node2 -->
<g id="edge1" class="edge"><title>Node1&#45;&gt;Node2</title>
<path fill="none" stroke="midnightblue" d="M135.192,-60.7834C115.35,-50.5371 90.8139,-37.867 72.7461,-28.5369"/>
<polygon fill="midnightblue" stroke="midnightblue" points="133.73,-63.9679 144.222,-65.4464 136.942,-57.7482 133.73,-63.9679"/>
</g>
<!-- Node3 -->
<g id="node3" class="node"><title>Node3</title>
<g id="a_node3"><a xlink:href="a00341.html" target="_top" xlink:title="A join cannot be performed logical reasons (i.e., the ranges of the two container objects being joine...">
<polygon fill="white" stroke="black" points="113,-5.5 113,-23.5 226,-23.5 226,-5.5 113,-5.5"/>
<text text-anchor="middle" x="169.5" y="-12.3" font-family="Helvetica,sans-Serif" font-size="9.00">__gnu_pbds::join_error</text>
</a>
</g>
</g>
<!-- Node1&#45;&gt;Node3 -->
<g id="edge2" class="edge"><title>Node1&#45;&gt;Node3</title>
<path fill="none" stroke="midnightblue" d="M169.5,-55.1286C169.5,-44.1182 169.5,-31.6856 169.5,-23.7301"/>
<polygon fill="midnightblue" stroke="midnightblue" points="166,-55.4463 169.5,-65.4464 173,-55.4464 166,-55.4463"/>
</g>
<!-- Node4 -->
<g id="node4" class="node"><title>Node4</title>
<g id="a_node4"><a xlink:href="a00359.html" target="_top" xlink:title="A container cannot be resized. ">
<polygon fill="white" stroke="black" points="244.5,-0.5 244.5,-28.5 342.5,-28.5 342.5,-0.5 244.5,-0.5"/>
<text text-anchor="start" x="252.5" y="-17.3" font-family="Helvetica,sans-Serif" font-size="9.00">__gnu_pbds::resize</text>
<text text-anchor="middle" x="293.5" y="-7.3" font-family="Helvetica,sans-Serif" font-size="9.00">_error</text>
</a>
</g>
</g>
<!-- Node1&#45;&gt;Node4 -->
<g id="edge3" class="edge"><title>Node1&#45;&gt;Node4</title>
<path fill="none" stroke="midnightblue" d="M204.371,-60.7834C224.538,-50.5371 249.476,-37.867 267.84,-28.5369"/>
<polygon fill="midnightblue" stroke="midnightblue" points="202.523,-57.7964 195.193,-65.4464 205.694,-64.0371 202.523,-57.7964"/>
</g>
</g>
</svg>
