<?xml version="1.0" encoding="UTF-8" standalone="no"?>
<!DOCTYPE svg PUBLIC "-//W3C//DTD SVG 1.1//EN"
 "http://www.w3.org/Graphics/SVG/1.1/DTD/svg11.dtd">
<!-- Generated by graphviz version 2.38.0 (20140413.2041)
 -->
<!-- Title: __gnu_pbds::basic_branch_tag Pages: 1 -->
<svg width="805pt" height="138pt"
 viewBox="0.00 0.00 805.00 138.00" xmlns="http://www.w3.org/2000/svg" xmlns:xlink="http://www.w3.org/1999/xlink">
<g id="graph0" class="graph" transform="scale(1 1) rotate(0) translate(4 134)">
<title>__gnu_pbds::basic_branch_tag</title>
<polygon fill="white" stroke="none" points="-4,4 -4,-134 801,-134 801,4 -4,4"/>
<!-- Node1 -->
<g id="node1" class="node"><title>Node1</title>
<polygon fill="#bfbfbf" stroke="black" points="338,-36.5 338,-54.5 484,-54.5 484,-36.5 338,-36.5"/>
<text text-anchor="middle" x="411" y="-43.3" font-family="Helvetica,sans-Serif" font-size="9.00">__gnu_pbds::basic_branch_tag</text>
</g>
<!-- Node4 -->
<g id="node4" class="node"><title>Node4</title>
<g id="a_node4"><a xlink:href="a00377.html" target="_top" xlink:title="Basic tree structure. ">
<polygon fill="white" stroke="black" points="520,-55.5 520,-73.5 627,-73.5 627,-55.5 520,-55.5"/>
<text text-anchor="middle" x="573.5" y="-62.3" font-family="Helvetica,sans-Serif" font-size="9.00">__gnu_pbds::tree_tag</text>
</a>
</g>
</g>
<!-- Node1&#45;&gt;Node4 -->
<g id="edge3" class="edge"><title>Node1&#45;&gt;Node4</title>
<path fill="none" stroke="midnightblue" d="M494.41,-55.2557C503.057,-56.2794 511.671,-57.299 519.849,-58.2672"/>
<polygon fill="midnightblue" stroke="midnightblue" points="494.61,-51.755 484.268,-54.0551 493.787,-58.7065 494.61,-51.755"/>
</g>
<!-- Node8 -->
<g id="node8" class="node"><title>Node8</title>
<g id="a_node8"><a xlink:href="a00382.html" target="_top" xlink:title="Basic trie structure. ">
<polygon fill="white" stroke="black" points="521.5,-18.5 521.5,-36.5 625.5,-36.5 625.5,-18.5 521.5,-18.5"/>
<text text-anchor="middle" x="573.5" y="-25.3" font-family="Helvetica,sans-Serif" font-size="9.00">__gnu_pbds::trie_tag</text>
</a>
</g>
</g>
<!-- Node1&#45;&gt;Node8 -->
<g id="edge7" class="edge"><title>Node1&#45;&gt;Node8</title>
<path fill="none" stroke="midnightblue" d="M494.246,-36.2762C503.449,-35.244 512.618,-34.2157 521.267,-33.2458"/>
<polygon fill="midnightblue" stroke="midnightblue" points="493.816,-32.8024 484.268,-37.3952 494.596,-39.7588 493.816,-32.8024"/>
</g>
<!-- Node2 -->
<g id="node2" class="node"><title>Node2</title>
<g id="a_node2"><a xlink:href="a00168.html" target="_top" xlink:title="Basic associative&#45;container. ">
<polygon fill="white" stroke="black" points="165,-36.5 165,-54.5 302,-54.5 302,-36.5 165,-36.5"/>
<text text-anchor="middle" x="233.5" y="-43.3" font-family="Helvetica,sans-Serif" font-size="9.00">__gnu_pbds::associative_tag</text>
</a>
</g>
</g>
<!-- Node2&#45;&gt;Node1 -->
<g id="edge1" class="edge"><title>Node2&#45;&gt;Node1</title>
<path fill="none" stroke="midnightblue" d="M312.339,-45.5C320.799,-45.5 329.384,-45.5 337.774,-45.5"/>
<polygon fill="midnightblue" stroke="midnightblue" points="312.102,-42.0001 302.102,-45.5 312.102,-49.0001 312.102,-42.0001"/>
</g>
<!-- Node3 -->
<g id="node3" class="node"><title>Node3</title>
<g id="a_node3"><a xlink:href="a00180.html" target="_top" xlink:title="Base data structure tag. ">
<polygon fill="white" stroke="black" points="0,-36.5 0,-54.5 129,-54.5 129,-36.5 0,-36.5"/>
<text text-anchor="middle" x="64.5" y="-43.3" font-family="Helvetica,sans-Serif" font-size="9.00">__gnu_pbds::container_tag</text>
</a>
</g>
</g>
<!-- Node3&#45;&gt;Node2 -->
<g id="edge2" class="edge"><title>Node3&#45;&gt;Node2</title>
<path fill="none" stroke="midnightblue" d="M139.378,-45.5C147.869,-45.5 156.495,-45.5 164.897,-45.5"/>
<polygon fill="midnightblue" stroke="midnightblue" points="139.112,-42.0001 129.112,-45.5 139.112,-49.0001 139.112,-42.0001"/>
</g>
<!-- Node5 -->
<g id="node5" class="node"><title>Node5</title>
<g id="a_node5"><a xlink:href="a00349.html" target="_top" xlink:title="Ordered&#45;vector tree. ">
<polygon fill="white" stroke="black" points="669,-111.5 669,-129.5 791,-129.5 791,-111.5 669,-111.5"/>
<text text-anchor="middle" x="730" y="-118.3" font-family="Helvetica,sans-Serif" font-size="9.00">__gnu_pbds::ov_tree_tag</text>
</a>
</g>
</g>
<!-- Node4&#45;&gt;Node5 -->
<g id="edge4" class="edge"><title>Node4&#45;&gt;Node5</title>
<path fill="none" stroke="midnightblue" d="M602.969,-77.9248C620.125,-85.7115 642.545,-95.3584 663,-102.5 672.419,-105.789 682.763,-108.857 692.41,-111.496"/>
<polygon fill="midnightblue" stroke="midnightblue" points="604.079,-74.5829 593.53,-73.588 601.156,-80.9436 604.079,-74.5829"/>
</g>
<!-- Node6 -->
<g id="node6" class="node"><title>Node6</title>
<g id="a_node6"><a xlink:href="a00357.html" target="_top" xlink:title="Red&#45;black tree. ">
<polygon fill="white" stroke="black" points="670,-74.5 670,-92.5 790,-92.5 790,-74.5 670,-74.5"/>
<text text-anchor="middle" x="730" y="-81.3" font-family="Helvetica,sans-Serif" font-size="9.00">__gnu_pbds::rb_tree_tag</text>
</a>
</g>
</g>
<!-- Node4&#45;&gt;Node6 -->
<g id="edge5" class="edge"><title>Node4&#45;&gt;Node6</title>
<path fill="none" stroke="midnightblue" d="M637.384,-72.2333C648.118,-73.5534 659.237,-74.9207 669.869,-76.2283"/>
<polygon fill="midnightblue" stroke="midnightblue" points="637.59,-68.7324 627.238,-70.9856 636.736,-75.6801 637.59,-68.7324"/>
</g>
<!-- Node7 -->
<g id="node7" class="node"><title>Node7</title>
<g id="a_node7"><a xlink:href="a00372.html" target="_top" xlink:title="Splay tree. ">
<polygon fill="white" stroke="black" points="663,-37.5 663,-55.5 797,-55.5 797,-37.5 663,-37.5"/>
<text text-anchor="middle" x="730" y="-44.3" font-family="Helvetica,sans-Serif" font-size="9.00">__gnu_pbds::splay_tree_tag</text>
</a>
</g>
</g>
<!-- Node4&#45;&gt;Node7 -->
<g id="edge6" class="edge"><title>Node4&#45;&gt;Node7</title>
<path fill="none" stroke="midnightblue" d="M637.342,-57.1786C645.744,-56.1998 654.381,-55.1934 662.838,-54.2082"/>
<polygon fill="midnightblue" stroke="midnightblue" points="636.766,-53.722 627.238,-58.3558 637.576,-60.6749 636.766,-53.722"/>
</g>
<!-- Node9 -->
<g id="node9" class="node"><title>Node9</title>
<g id="a_node9"><a xlink:href="a00351.html" target="_top" xlink:title="PATRICIA trie. ">
<polygon fill="white" stroke="black" points="669,-0.5 669,-18.5 791,-18.5 791,-0.5 669,-0.5"/>
<text text-anchor="middle" x="730" y="-7.3" font-family="Helvetica,sans-Serif" font-size="9.00">__gnu_pbds::pat_trie_tag</text>
</a>
</g>
</g>
<!-- Node8&#45;&gt;Node9 -->
<g id="edge8" class="edge"><title>Node8&#45;&gt;Node9</title>
<path fill="none" stroke="midnightblue" d="M635.466,-20.3971C646.47,-19.1151 657.937,-17.7792 668.916,-16.5001"/>
<polygon fill="midnightblue" stroke="midnightblue" points="635.045,-16.9224 625.517,-21.5562 635.855,-23.8754 635.045,-16.9224"/>
</g>
</g>
</svg>
