<?xml version="1.0" encoding="UTF-8" standalone="no"?>
<!DOCTYPE svg PUBLIC "-//W3C//DTD SVG 1.1//EN"
 "http://www.w3.org/Graphics/SVG/1.1/DTD/svg11.dtd">
<!-- Generated by graphviz version 2.38.0 (20140413.2041)
 -->
<!-- Title: __gnu_pbds::gp_hash_tag Pages: 1 -->
<svg width="146pt" height="192pt"
 viewBox="0.00 0.00 146.00 192.00" xmlns="http://www.w3.org/2000/svg" xmlns:xlink="http://www.w3.org/1999/xlink">
<g id="graph0" class="graph" transform="scale(1 1) rotate(0) translate(4 188)">
<title>__gnu_pbds::gp_hash_tag</title>
<polygon fill="white" stroke="none" points="-4,4 -4,-188 142,-188 142,4 -4,4"/>
<!-- Node1 -->
<g id="node1" class="node"><title>Node1</title>
<polygon fill="#bfbfbf" stroke="black" points="5.5,-0.5 5.5,-18.5 132.5,-18.5 132.5,-0.5 5.5,-0.5"/>
<text text-anchor="middle" x="69" y="-7.3" font-family="Helvetica,sans-Serif" font-size="9.00">__gnu_pbds::gp_hash_tag</text>
</g>
<!-- Node2 -->
<g id="node2" class="node"><title>Node2</title>
<g id="a_node2"><a xlink:href="a00172.html" target="_top" xlink:title="Basic hash structure. ">
<polygon fill="white" stroke="black" points="0,-55.5 0,-73.5 138,-73.5 138,-55.5 0,-55.5"/>
<text text-anchor="middle" x="69" y="-62.3" font-family="Helvetica,sans-Serif" font-size="9.00">__gnu_pbds::basic_hash_tag</text>
</a>
</g>
</g>
<!-- Node2&#45;&gt;Node1 -->
<g id="edge1" class="edge"><title>Node2&#45;&gt;Node1</title>
<path fill="none" stroke="midnightblue" d="M69,-45.1746C69,-36.0945 69,-25.5949 69,-18.5496"/>
<polygon fill="midnightblue" stroke="midnightblue" points="65.5001,-45.2187 69,-55.2188 72.5001,-45.2188 65.5001,-45.2187"/>
</g>
<!-- Node3 -->
<g id="node3" class="node"><title>Node3</title>
<g id="a_node3"><a xlink:href="a00168.html" target="_top" xlink:title="Basic associative&#45;container. ">
<polygon fill="white" stroke="black" points="0.5,-110.5 0.5,-128.5 137.5,-128.5 137.5,-110.5 0.5,-110.5"/>
<text text-anchor="middle" x="69" y="-117.3" font-family="Helvetica,sans-Serif" font-size="9.00">__gnu_pbds::associative_tag</text>
</a>
</g>
</g>
<!-- Node3&#45;&gt;Node2 -->
<g id="edge2" class="edge"><title>Node3&#45;&gt;Node2</title>
<path fill="none" stroke="midnightblue" d="M69,-100.175C69,-91.0945 69,-80.5949 69,-73.5496"/>
<polygon fill="midnightblue" stroke="midnightblue" points="65.5001,-100.219 69,-110.219 72.5001,-100.219 65.5001,-100.219"/>
</g>
<!-- Node4 -->
<g id="node4" class="node"><title>Node4</title>
<g id="a_node4"><a xlink:href="a00180.html" target="_top" xlink:title="Base data structure tag. ">
<polygon fill="white" stroke="black" points="4.5,-165.5 4.5,-183.5 133.5,-183.5 133.5,-165.5 4.5,-165.5"/>
<text text-anchor="middle" x="69" y="-172.3" font-family="Helvetica,sans-Serif" font-size="9.00">__gnu_pbds::container_tag</text>
</a>
</g>
</g>
<!-- Node4&#45;&gt;Node3 -->
<g id="edge3" class="edge"><title>Node4&#45;&gt;Node3</title>
<path fill="none" stroke="midnightblue" d="M69,-155.175C69,-146.094 69,-135.595 69,-128.55"/>
<polygon fill="midnightblue" stroke="midnightblue" points="65.5001,-155.219 69,-165.219 72.5001,-155.219 65.5001,-155.219"/>
</g>
</g>
</svg>
