<?xml version="1.0" encoding="UTF-8" standalone="no"?>
<!DOCTYPE svg PUBLIC "-//W3C//DTD SVG 1.1//EN"
 "http://www.w3.org/Graphics/SVG/1.1/DTD/svg11.dtd">
<!-- Generated by graphviz version 2.38.0 (20140413.2041)
 -->
<!-- Title: __gnu_pbds::detail::ov_tree_node_it_&lt; Value_Type, Metadata_Type, _Alloc &gt; Pages: 1 -->
<svg width="139pt" height="142pt"
 viewBox="0.00 0.00 139.00 142.00" xmlns="http://www.w3.org/2000/svg" xmlns:xlink="http://www.w3.org/1999/xlink">
<g id="graph0" class="graph" transform="scale(1 1) rotate(0) translate(4 138)">
<title>__gnu_pbds::detail::ov_tree_node_it_&lt; Value_Type, Metadata_Type, _Alloc &gt;</title>
<polygon fill="white" stroke="none" points="-4,4 -4,-138 135,-138 135,4 -4,4"/>
<!-- Node1 -->
<g id="node1" class="node"><title>Node1</title>
<polygon fill="#bfbfbf" stroke="black" points="10,-0.5 10,-48.5 121,-48.5 121,-0.5 10,-0.5"/>
<text text-anchor="start" x="18" y="-37.3" font-family="Helvetica,sans-Serif" font-size="9.00">__gnu_pbds::detail</text>
<text text-anchor="start" x="18" y="-27.3" font-family="Helvetica,sans-Serif" font-size="9.00">::ov_tree_node_it_&lt;</text>
<text text-anchor="start" x="18" y="-17.3" font-family="Helvetica,sans-Serif" font-size="9.00"> Value_Type, Metadata</text>
<text text-anchor="middle" x="65.5" y="-7.3" font-family="Helvetica,sans-Serif" font-size="9.00">_Type, _Alloc &gt;</text>
</g>
<!-- Node2 -->
<g id="node2" class="node"><title>Node2</title>
<g id="a_node2"><a xlink:href="a00266.html" target="_top" xlink:title="Const node reference. ">
<polygon fill="white" stroke="black" points="0,-85.5 0,-133.5 131,-133.5 131,-85.5 0,-85.5"/>
<text text-anchor="start" x="8" y="-122.3" font-family="Helvetica,sans-Serif" font-size="9.00">__gnu_pbds::detail</text>
<text text-anchor="start" x="8" y="-112.3" font-family="Helvetica,sans-Serif" font-size="9.00">::ov_tree_node_const</text>
<text text-anchor="start" x="8" y="-102.3" font-family="Helvetica,sans-Serif" font-size="9.00">_it_&lt; Value_Type, Metadata</text>
<text text-anchor="middle" x="65.5" y="-92.3" font-family="Helvetica,sans-Serif" font-size="9.00">_Type, _Alloc &gt;</text>
</a>
</g>
</g>
<!-- Node2&#45;&gt;Node1 -->
<g id="edge1" class="edge"><title>Node2&#45;&gt;Node1</title>
<path fill="none" stroke="midnightblue" d="M65.5,-75.2987C65.5,-66.4164 65.5,-57.0052 65.5,-48.784"/>
<polygon fill="midnightblue" stroke="midnightblue" points="62.0001,-75.3798 65.5,-85.3799 69.0001,-75.3799 62.0001,-75.3798"/>
</g>
</g>
</svg>
