<?xml version="1.0" encoding="UTF-8" standalone="no"?>
<!DOCTYPE svg PUBLIC "-//W3C//DTD SVG 1.1//EN"
 "http://www.w3.org/Graphics/SVG/1.1/DTD/svg11.dtd">
<!-- Generated by graphviz version 2.38.0 (20140413.2041)
 -->
<!-- Title: __gnu_pbds::detail::pat_trie_base::_Leaf&lt; _ATraits, Metadata &gt; Pages: 1 -->
<svg width="142pt" height="122pt"
 viewBox="0.00 0.00 142.00 122.00" xmlns="http://www.w3.org/2000/svg" xmlns:xlink="http://www.w3.org/1999/xlink">
<g id="graph0" class="graph" transform="scale(1 1) rotate(0) translate(4 118)">
<title>__gnu_pbds::detail::pat_trie_base::_Leaf&lt; _ATraits, Metadata &gt;</title>
<polygon fill="white" stroke="none" points="-4,4 -4,-118 138,-118 138,4 -4,4"/>
<!-- Node1 -->
<g id="node1" class="node"><title>Node1</title>
<polygon fill="#bfbfbf" stroke="black" points="13,-0.5 13,-38.5 121,-38.5 121,-0.5 13,-0.5"/>
<text text-anchor="start" x="21" y="-27.3" font-family="Helvetica,sans-Serif" font-size="9.00">__gnu_pbds::detail</text>
<text text-anchor="start" x="21" y="-17.3" font-family="Helvetica,sans-Serif" font-size="9.00">::pat_trie_base::_Leaf</text>
<text text-anchor="middle" x="67" y="-7.3" font-family="Helvetica,sans-Serif" font-size="9.00">&lt; _ATraits, Metadata &gt;</text>
</g>
<!-- Node2 -->
<g id="node2" class="node"><title>Node2</title>
<g id="a_node2"><a xlink:href="a00279.html" target="_top" xlink:title="Node base. ">
<polygon fill="white" stroke="black" points="0,-75.5 0,-113.5 134,-113.5 134,-75.5 0,-75.5"/>
<text text-anchor="start" x="8" y="-102.3" font-family="Helvetica,sans-Serif" font-size="9.00">__gnu_pbds::detail</text>
<text text-anchor="start" x="8" y="-92.3" font-family="Helvetica,sans-Serif" font-size="9.00">::pat_trie_base::_Node</text>
<text text-anchor="middle" x="67" y="-82.3" font-family="Helvetica,sans-Serif" font-size="9.00">_base&lt; _ATraits, Metadata &gt;</text>
</a>
</g>
</g>
<!-- Node2&#45;&gt;Node1 -->
<g id="edge1" class="edge"><title>Node2&#45;&gt;Node1</title>
<path fill="none" stroke="midnightblue" d="M67,-65.3688C67,-56.3769 67,-46.6687 67,-38.5904"/>
<polygon fill="midnightblue" stroke="midnightblue" points="63.5001,-65.455 67,-75.4551 70.5001,-65.4551 63.5001,-65.455"/>
</g>
</g>
</svg>
