<?xml version="1.0" encoding="UTF-8" standalone="no"?>
<!DOCTYPE svg PUBLIC "-//W3C//DTD SVG 1.1//EN"
 "http://www.w3.org/Graphics/SVG/1.1/DTD/svg11.dtd">
<!-- Generated by graphviz version 2.38.0 (20140413.2041)
 -->
<!-- Title: __gnu_pbds::detail::cc_ht_map&lt; Key, Mapped, Hash_Fn, Eq_Fn, _Alloc, Store_Hash, Comb_Hash_Fn, Resize_Policy &gt; Pages: 1 -->
<svg width="454pt" height="181pt"
 viewBox="0.00 0.00 454.00 181.00" xmlns="http://www.w3.org/2000/svg" xmlns:xlink="http://www.w3.org/1999/xlink">
<g id="graph0" class="graph" transform="scale(1 1) rotate(0) translate(4 177)">
<title>__gnu_pbds::detail::cc_ht_map&lt; Key, Mapped, Hash_Fn, Eq_Fn, _Alloc, Store_Hash, Comb_Hash_Fn, Resize_Policy &gt;</title>
<polygon fill="white" stroke="none" points="-4,4 -4,-177 450,-177 450,4 -4,4"/>
<!-- Node1 -->
<g id="node1" class="node"><title>Node1</title>
<polygon fill="#bfbfbf" stroke="black" points="304,-62.5 304,-120.5 446,-120.5 446,-62.5 304,-62.5"/>
<text text-anchor="start" x="312" y="-109.3" font-family="Helvetica,sans-Serif" font-size="9.00">__gnu_pbds::detail</text>
<text text-anchor="start" x="312" y="-99.3" font-family="Helvetica,sans-Serif" font-size="9.00">::cc_ht_map&lt; Key, Mapped,</text>
<text text-anchor="start" x="312" y="-89.3" font-family="Helvetica,sans-Serif" font-size="9.00"> Hash_Fn, Eq_Fn, _Alloc,</text>
<text text-anchor="start" x="312" y="-79.3" font-family="Helvetica,sans-Serif" font-size="9.00"> Store_Hash, Comb_Hash_Fn,</text>
<text text-anchor="middle" x="375" y="-69.3" font-family="Helvetica,sans-Serif" font-size="9.00"> Resize_Policy &gt;</text>
</g>
<!-- Node2 -->
<g id="node2" class="node"><title>Node2</title>
<g id="a_node2"><a xlink:href="a00248.html" target="_top" xlink:title="Primary template. ">
<polygon fill="white" stroke="black" points="145,-134.5 145,-172.5 268,-172.5 268,-134.5 145,-134.5"/>
<text text-anchor="start" x="153" y="-161.3" font-family="Helvetica,sans-Serif" font-size="9.00">__gnu_pbds::detail</text>
<text text-anchor="start" x="153" y="-151.3" font-family="Helvetica,sans-Serif" font-size="9.00">::hash_eq_fn&lt; Key, Eq</text>
<text text-anchor="middle" x="206.5" y="-141.3" font-family="Helvetica,sans-Serif" font-size="9.00">_Fn, _Alloc, Store_Hash &gt;</text>
</a>
</g>
</g>
<!-- Node2&#45;&gt;Node1 -->
<g id="edge1" class="edge"><title>Node2&#45;&gt;Node1</title>
<path fill="none" stroke="midnightblue" d="M268.346,-130.842C279.894,-126.542 292.063,-122.011 303.871,-117.614"/>
<polygon fill="midnightblue" stroke="midnightblue" points="266.964,-127.622 258.814,-134.392 269.407,-134.182 266.964,-127.622"/>
</g>
<!-- Node3 -->
<g id="node3" class="node"><title>Node3</title>
<g id="a_node3"><a xlink:href="a00284.html" target="_top" xlink:title="Primary template. ">
<polygon fill="white" stroke="black" points="146.5,-67.5 146.5,-115.5 266.5,-115.5 266.5,-67.5 146.5,-67.5"/>
<text text-anchor="start" x="154.5" y="-104.3" font-family="Helvetica,sans-Serif" font-size="9.00">__gnu_pbds::detail</text>
<text text-anchor="start" x="154.5" y="-94.3" font-family="Helvetica,sans-Serif" font-size="9.00">::ranged_hash_fn&lt; Key,</text>
<text text-anchor="start" x="154.5" y="-84.3" font-family="Helvetica,sans-Serif" font-size="9.00"> Hash_Fn, _Alloc, Comb</text>
<text text-anchor="middle" x="206.5" y="-74.3" font-family="Helvetica,sans-Serif" font-size="9.00">_Hash_Fn, Store_Hash &gt;</text>
</a>
</g>
</g>
<!-- Node3&#45;&gt;Node1 -->
<g id="edge2" class="edge"><title>Node3&#45;&gt;Node1</title>
<path fill="none" stroke="midnightblue" d="M276.704,-91.5C285.696,-91.5 294.913,-91.5 303.919,-91.5"/>
<polygon fill="midnightblue" stroke="midnightblue" points="276.671,-88.0001 266.67,-91.5 276.67,-95.0001 276.671,-88.0001"/>
</g>
<!-- Node4 -->
<g id="node4" class="node"><title>Node4</title>
<g id="a_node4"><a xlink:href="a00331.html" target="_top" xlink:title="Traits for abstract types. ">
<polygon fill="white" stroke="black" points="152,-0.5 152,-48.5 261,-48.5 261,-0.5 152,-0.5"/>
<text text-anchor="start" x="160" y="-37.3" font-family="Helvetica,sans-Serif" font-size="9.00">__gnu_pbds::detail</text>
<text text-anchor="start" x="160" y="-27.3" font-family="Helvetica,sans-Serif" font-size="9.00">::types_traits&lt; Key,</text>
<text text-anchor="start" x="160" y="-17.3" font-family="Helvetica,sans-Serif" font-size="9.00"> Mapped, _Alloc, Store</text>
<text text-anchor="middle" x="206.5" y="-7.3" font-family="Helvetica,sans-Serif" font-size="9.00">_Hash &gt;</text>
</a>
</g>
</g>
<!-- Node4&#45;&gt;Node1 -->
<g id="edge3" class="edge"><title>Node4&#45;&gt;Node1</title>
<path fill="none" stroke="midnightblue" d="M270.505,-49.8532C281.375,-54.2276 292.736,-58.7992 303.783,-63.2445"/>
<polygon fill="midnightblue" stroke="midnightblue" points="271.682,-46.5542 261.098,-46.068 269.069,-53.0482 271.682,-46.5542"/>
</g>
<!-- Node5 -->
<g id="node5" class="node"><title>Node5</title>
<g id="a_node5"><a xlink:href="a00325.html" target="_top" xlink:title="Primary template. ">
<polygon fill="white" stroke="black" points="0,-5.5 0,-43.5 109,-43.5 109,-5.5 0,-5.5"/>
<text text-anchor="start" x="8" y="-32.3" font-family="Helvetica,sans-Serif" font-size="9.00">type_dispatch&lt; Key,</text>
<text text-anchor="start" x="8" y="-22.3" font-family="Helvetica,sans-Serif" font-size="9.00"> Mapped, _Alloc, Store</text>
<text text-anchor="middle" x="54.5" y="-12.3" font-family="Helvetica,sans-Serif" font-size="9.00">_Hash &gt;::type</text>
</a>
</g>
</g>
<!-- Node5&#45;&gt;Node4 -->
<g id="edge4" class="edge"><title>Node5&#45;&gt;Node4</title>
<path fill="none" stroke="midnightblue" d="M119.464,-24.5C130.269,-24.5 141.387,-24.5 151.893,-24.5"/>
<polygon fill="midnightblue" stroke="midnightblue" points="119.23,-21.0001 109.23,-24.5 119.23,-28.0001 119.23,-21.0001"/>
</g>
</g>
</svg>
