<?xml version="1.0" encoding="UTF-8" standalone="no"?>
<!DOCTYPE svg PUBLIC "-//W3C//DTD SVG 1.1//EN"
 "http://www.w3.org/Graphics/SVG/1.1/DTD/svg11.dtd">
<!-- Generated by graphviz version 2.38.0 (20140413.2041)
 -->
<!-- Title: __gnu_pbds::detail::branch_policy&lt; Node_CItr, Node_Itr, _Alloc &gt; Pages: 1 -->
<svg width="449pt" height="157pt"
 viewBox="0.00 0.00 449.00 157.00" xmlns="http://www.w3.org/2000/svg" xmlns:xlink="http://www.w3.org/1999/xlink">
<g id="graph0" class="graph" transform="scale(1 1) rotate(0) translate(4 153)">
<title>__gnu_pbds::detail::branch_policy&lt; Node_CItr, Node_Itr, _Alloc &gt;</title>
<polygon fill="white" stroke="none" points="-4,4 -4,-153 445,-153 445,4 -4,4"/>
<!-- Node1 -->
<g id="node1" class="node"><title>Node1</title>
<polygon fill="#bfbfbf" stroke="black" points="0,-38.5 0,-76.5 113,-76.5 113,-38.5 0,-38.5"/>
<text text-anchor="start" x="8" y="-65.3" font-family="Helvetica,sans-Serif" font-size="9.00">__gnu_pbds::detail</text>
<text text-anchor="start" x="8" y="-55.3" font-family="Helvetica,sans-Serif" font-size="9.00">::branch_policy&lt; Node</text>
<text text-anchor="middle" x="56.5" y="-45.3" font-family="Helvetica,sans-Serif" font-size="9.00">_CItr, Node_Itr, _Alloc &gt;</text>
</g>
<!-- Node2 -->
<g id="node2" class="node"><title>Node2</title>
<g id="a_node2"><a xlink:href="a00321.html" target="_top" xlink:title="Base class for trie policies. ">
<polygon fill="white" stroke="black" points="155.5,-67.5 155.5,-115.5 258.5,-115.5 258.5,-67.5 155.5,-67.5"/>
<text text-anchor="start" x="163.5" y="-104.3" font-family="Helvetica,sans-Serif" font-size="9.00">__gnu_pbds::detail</text>
<text text-anchor="start" x="163.5" y="-94.3" font-family="Helvetica,sans-Serif" font-size="9.00">::trie_policy_base&lt;</text>
<text text-anchor="start" x="163.5" y="-84.3" font-family="Helvetica,sans-Serif" font-size="9.00"> Node_CItr, Node_Itr,</text>
<text text-anchor="middle" x="207" y="-74.3" font-family="Helvetica,sans-Serif" font-size="9.00"> _Alloc &gt;</text>
</a>
</g>
</g>
<!-- Node1&#45;&gt;Node2 -->
<g id="edge1" class="edge"><title>Node1&#45;&gt;Node2</title>
<path fill="none" stroke="midnightblue" d="M123.064,-72.5113C133.891,-74.9901 144.967,-77.5261 155.355,-79.9046"/>
<polygon fill="midnightblue" stroke="midnightblue" points="123.747,-69.0772 113.218,-70.2571 122.185,-75.9007 123.747,-69.0772"/>
</g>
<!-- Node5 -->
<g id="node5" class="node"><title>Node5</title>
<g id="a_node5"><a xlink:href="a00376.html" target="_top" xlink:title="Functor updating ranks of entrees. ">
<polygon fill="white" stroke="black" points="149,-0.5 149,-48.5 265,-48.5 265,-0.5 149,-0.5"/>
<text text-anchor="start" x="157" y="-37.3" font-family="Helvetica,sans-Serif" font-size="9.00">__gnu_pbds::tree_order</text>
<text text-anchor="start" x="157" y="-27.3" font-family="Helvetica,sans-Serif" font-size="9.00">_statistics_node_update</text>
<text text-anchor="start" x="157" y="-17.3" font-family="Helvetica,sans-Serif" font-size="9.00">&lt; Node_CItr, Node_Itr, </text>
<text text-anchor="middle" x="207" y="-7.3" font-family="Helvetica,sans-Serif" font-size="9.00">_Alloc &gt;</text>
</a>
</g>
</g>
<!-- Node1&#45;&gt;Node5 -->
<g id="edge4" class="edge"><title>Node1&#45;&gt;Node5</title>
<path fill="none" stroke="#8b1a1a" d="M123.206,-42.8986C131.799,-40.9892 140.546,-39.0454 148.979,-37.1713"/>
<polygon fill="#8b1a1a" stroke="#8b1a1a" points="122.221,-39.5321 113.218,-45.1181 123.74,-46.3654 122.221,-39.5321"/>
</g>
<!-- Node3 -->
<g id="node3" class="node"><title>Node3</title>
<g id="a_node3"><a xlink:href="a00379.html" target="_top" xlink:title="Functor updating ranks of entrees. ">
<polygon fill="white" stroke="black" points="313,-100.5 313,-148.5 429,-148.5 429,-100.5 313,-100.5"/>
<text text-anchor="start" x="321" y="-137.3" font-family="Helvetica,sans-Serif" font-size="9.00">__gnu_pbds::trie_order</text>
<text text-anchor="start" x="321" y="-127.3" font-family="Helvetica,sans-Serif" font-size="9.00">_statistics_node_update</text>
<text text-anchor="start" x="321" y="-117.3" font-family="Helvetica,sans-Serif" font-size="9.00">&lt; Node_CItr, Node_Itr, </text>
<text text-anchor="middle" x="371" y="-107.3" font-family="Helvetica,sans-Serif" font-size="9.00">_ATraits, _Alloc &gt;</text>
</a>
</g>
</g>
<!-- Node2&#45;&gt;Node3 -->
<g id="edge2" class="edge"><title>Node2&#45;&gt;Node3</title>
<path fill="none" stroke="#8b1a1a" d="M268.667,-103.858C283.151,-106.808 298.561,-109.948 312.879,-112.864"/>
<polygon fill="#8b1a1a" stroke="#8b1a1a" points="269.311,-100.417 258.813,-101.851 267.913,-107.277 269.311,-100.417"/>
</g>
<!-- Node4 -->
<g id="node4" class="node"><title>Node4</title>
<g id="a_node4"><a xlink:href="a00380.html" target="_top" xlink:title="A node updator that allows tries to be searched for the range of values that match a certain prefix...">
<polygon fill="white" stroke="black" points="301,-33.5 301,-81.5 441,-81.5 441,-33.5 301,-33.5"/>
<text text-anchor="start" x="309" y="-70.3" font-family="Helvetica,sans-Serif" font-size="9.00">__gnu_pbds::trie_prefix</text>
<text text-anchor="start" x="309" y="-60.3" font-family="Helvetica,sans-Serif" font-size="9.00">_search_node_update&lt; Node</text>
<text text-anchor="start" x="309" y="-50.3" font-family="Helvetica,sans-Serif" font-size="9.00">_CItr, Node_Itr, _ATraits,</text>
<text text-anchor="middle" x="371" y="-40.3" font-family="Helvetica,sans-Serif" font-size="9.00"> _Alloc &gt;</text>
</a>
</g>
</g>
<!-- Node2&#45;&gt;Node4 -->
<g id="edge3" class="edge"><title>Node2&#45;&gt;Node4</title>
<path fill="none" stroke="#8b1a1a" d="M268.721,-78.756C279.238,-76.5488 290.242,-74.2394 300.96,-71.9899"/>
<polygon fill="#8b1a1a" stroke="#8b1a1a" points="267.881,-75.356 258.813,-80.8355 269.319,-82.2068 267.881,-75.356"/>
</g>
</g>
</svg>
