<?xml version="1.0" encoding="UTF-8" standalone="no"?>
<!DOCTYPE svg PUBLIC "-//W3C//DTD SVG 1.1//EN"
 "http://www.w3.org/Graphics/SVG/1.1/DTD/svg11.dtd">
<!-- Generated by graphviz version 2.38.0 (20140413.2041)
 -->
<!-- Title: __gnu_pbds::detail::left_child_next_sibling_heap_const_iterator_&lt; Node, _Alloc &gt; Pages: 1 -->
<svg width="340pt" height="57pt"
 viewBox="0.00 0.00 340.00 57.00" xmlns="http://www.w3.org/2000/svg" xmlns:xlink="http://www.w3.org/1999/xlink">
<g id="graph0" class="graph" transform="scale(1 1) rotate(0) translate(4 53)">
<title>__gnu_pbds::detail::left_child_next_sibling_heap_const_iterator_&lt; Node, _Alloc &gt;</title>
<polygon fill="white" stroke="none" points="-4,4 -4,-53 336,-53 336,4 -4,4"/>
<!-- Node1 -->
<g id="node1" class="node"><title>Node1</title>
<polygon fill="#bfbfbf" stroke="black" points="191,-0.5 191,-48.5 332,-48.5 332,-0.5 191,-0.5"/>
<text text-anchor="start" x="199" y="-37.3" font-family="Helvetica,sans-Serif" font-size="9.00">__gnu_pbds::detail</text>
<text text-anchor="start" x="199" y="-27.3" font-family="Helvetica,sans-Serif" font-size="9.00">::left_child_next_sibling</text>
<text text-anchor="start" x="199" y="-17.3" font-family="Helvetica,sans-Serif" font-size="9.00">_heap_const_iterator_&lt; Node,</text>
<text text-anchor="middle" x="261.5" y="-7.3" font-family="Helvetica,sans-Serif" font-size="9.00"> _Alloc &gt;</text>
</g>
<!-- Node2 -->
<g id="node2" class="node"><title>Node2</title>
<g id="a_node2"><a xlink:href="a00256.html" target="_top" xlink:title="Const point&#45;type iterator. ">
<polygon fill="white" stroke="black" points="0,-0.5 0,-48.5 155,-48.5 155,-0.5 0,-0.5"/>
<text text-anchor="start" x="8" y="-37.3" font-family="Helvetica,sans-Serif" font-size="9.00">__gnu_pbds::detail</text>
<text text-anchor="start" x="8" y="-27.3" font-family="Helvetica,sans-Serif" font-size="9.00">::left_child_next_sibling</text>
<text text-anchor="start" x="8" y="-17.3" font-family="Helvetica,sans-Serif" font-size="9.00">_heap_node_point_const_iterator</text>
<text text-anchor="middle" x="77.5" y="-7.3" font-family="Helvetica,sans-Serif" font-size="9.00">_&lt; Node, _Alloc &gt;</text>
</a>
</g>
</g>
<!-- Node2&#45;&gt;Node1 -->
<g id="edge1" class="edge"><title>Node2&#45;&gt;Node1</title>
<path fill="none" stroke="midnightblue" d="M165.217,-24.5C173.823,-24.5 182.481,-24.5 190.88,-24.5"/>
<polygon fill="midnightblue" stroke="midnightblue" points="165.157,-21.0001 155.157,-24.5 165.157,-28.0001 165.157,-21.0001"/>
</g>
</g>
</svg>
