<?xml version="1.0" encoding="UTF-8" standalone="no"?>
<!DOCTYPE svg PUBLIC "-//W3C//DTD SVG 1.1//EN"
 "http://www.w3.org/Graphics/SVG/1.1/DTD/svg11.dtd">
<!-- Generated by graphviz version 2.38.0 (20140413.2041)
 -->
<!-- Title: __gnu_pbds::detail::binomial_heap_base&lt; Value_Type, Cmp_Fn, _Alloc &gt; Pages: 1 -->
<svg width="457pt" height="114pt"
 viewBox="0.00 0.00 457.00 114.00" xmlns="http://www.w3.org/2000/svg" xmlns:xlink="http://www.w3.org/1999/xlink">
<g id="graph0" class="graph" transform="scale(1 1) rotate(0) translate(4 110)">
<title>__gnu_pbds::detail::binomial_heap_base&lt; Value_Type, Cmp_Fn, _Alloc &gt;</title>
<polygon fill="white" stroke="none" points="-4,4 -4,-110 453,-110 453,4 -4,4"/>
<!-- Node1 -->
<g id="node1" class="node"><title>Node1</title>
<polygon fill="#bfbfbf" stroke="black" points="178,-31.5 178,-79.5 294,-79.5 294,-31.5 178,-31.5"/>
<text text-anchor="start" x="186" y="-68.3" font-family="Helvetica,sans-Serif" font-size="9.00">__gnu_pbds::detail</text>
<text text-anchor="start" x="186" y="-58.3" font-family="Helvetica,sans-Serif" font-size="9.00">::binomial_heap_base</text>
<text text-anchor="start" x="186" y="-48.3" font-family="Helvetica,sans-Serif" font-size="9.00">&lt; Value_Type, Cmp_Fn,</text>
<text text-anchor="middle" x="236" y="-38.3" font-family="Helvetica,sans-Serif" font-size="9.00"> _Alloc &gt;</text>
</g>
<!-- Node3 -->
<g id="node3" class="node"><title>Node3</title>
<g id="a_node3"><a xlink:href="a00204.html" target="_top" xlink:title="__gnu_pbds::detail\l::binomial_heap\&lt; Value\l_Type, Cmp_Fn, _Alloc \&gt;">
<polygon fill="white" stroke="black" points="330,-67.5 330,-105.5 449,-105.5 449,-67.5 330,-67.5"/>
<text text-anchor="start" x="338" y="-94.3" font-family="Helvetica,sans-Serif" font-size="9.00">__gnu_pbds::detail</text>
<text text-anchor="start" x="338" y="-84.3" font-family="Helvetica,sans-Serif" font-size="9.00">::binomial_heap&lt; Value</text>
<text text-anchor="middle" x="389.5" y="-74.3" font-family="Helvetica,sans-Serif" font-size="9.00">_Type, Cmp_Fn, _Alloc &gt;</text>
</a>
</g>
</g>
<!-- Node1&#45;&gt;Node3 -->
<g id="edge2" class="edge"><title>Node1&#45;&gt;Node3</title>
<path fill="none" stroke="midnightblue" d="M304.224,-69.2553C312.778,-71.0058 321.479,-72.7862 329.884,-74.5059"/>
<polygon fill="midnightblue" stroke="midnightblue" points="304.774,-65.7956 294.276,-67.2198 303.371,-72.6535 304.774,-65.7956"/>
</g>
<!-- Node4 -->
<g id="node4" class="node"><title>Node4</title>
<g id="a_node4"><a xlink:href="a00296.html" target="_top" xlink:title="__gnu_pbds::detail\l::rc_binomial_heap\&lt;\l Value_Type, Cmp_Fn,\l _Alloc \&gt;">
<polygon fill="white" stroke="black" points="334.5,-0.5 334.5,-48.5 444.5,-48.5 444.5,-0.5 334.5,-0.5"/>
<text text-anchor="start" x="342.5" y="-37.3" font-family="Helvetica,sans-Serif" font-size="9.00">__gnu_pbds::detail</text>
<text text-anchor="start" x="342.5" y="-27.3" font-family="Helvetica,sans-Serif" font-size="9.00">::rc_binomial_heap&lt;</text>
<text text-anchor="start" x="342.5" y="-17.3" font-family="Helvetica,sans-Serif" font-size="9.00"> Value_Type, Cmp_Fn,</text>
<text text-anchor="middle" x="389.5" y="-7.3" font-family="Helvetica,sans-Serif" font-size="9.00"> _Alloc &gt;</text>
</a>
</g>
</g>
<!-- Node1&#45;&gt;Node4 -->
<g id="edge3" class="edge"><title>Node1&#45;&gt;Node4</title>
<path fill="none" stroke="midnightblue" d="M304.2,-41.7496C314.217,-39.6997 324.437,-37.6086 334.146,-35.6219"/>
<polygon fill="midnightblue" stroke="midnightblue" points="303.371,-38.3465 294.276,-43.7802 304.774,-45.2044 303.371,-38.3465"/>
</g>
<!-- Node2 -->
<g id="node2" class="node"><title>Node2</title>
<g id="a_node2"><a xlink:href="a00253.html" target="_top" xlink:title="__gnu_pbds::detail\l::left_child_next_sibling\l_heap\&lt; Value_Type, Cmp_Fn,\l _Alloc::size_type, _Alloc \&gt;">
<polygon fill="white" stroke="black" points="0,-31.5 0,-79.5 142,-79.5 142,-31.5 0,-31.5"/>
<text text-anchor="start" x="8" y="-68.3" font-family="Helvetica,sans-Serif" font-size="9.00">__gnu_pbds::detail</text>
<text text-anchor="start" x="8" y="-58.3" font-family="Helvetica,sans-Serif" font-size="9.00">::left_child_next_sibling</text>
<text text-anchor="start" x="8" y="-48.3" font-family="Helvetica,sans-Serif" font-size="9.00">_heap&lt; Value_Type, Cmp_Fn,</text>
<text text-anchor="middle" x="71" y="-38.3" font-family="Helvetica,sans-Serif" font-size="9.00"> _Alloc::size_type, _Alloc &gt;</text>
</a>
</g>
</g>
<!-- Node2&#45;&gt;Node1 -->
<g id="edge1" class="edge"><title>Node2&#45;&gt;Node1</title>
<path fill="none" stroke="midnightblue" d="M152.249,-55.5C160.945,-55.5 169.66,-55.5 177.998,-55.5"/>
<polygon fill="midnightblue" stroke="midnightblue" points="152.073,-52.0001 142.073,-55.5 152.073,-59.0001 152.073,-52.0001"/>
</g>
</g>
</svg>
