<?xml version="1.0" encoding="UTF-8" standalone="no"?>
<!DOCTYPE svg PUBLIC "-//W3C//DTD SVG 1.1//EN"
 "http://www.w3.org/Graphics/SVG/1.1/DTD/svg11.dtd">
<!-- Generated by graphviz version 2.38.0 (20140413.2041)
 -->
<!-- Title: __gnu_pbds::detail::mask_based_range_hashing&lt; Size_Type &gt; Pages: 1 -->
<svg width="149pt" height="122pt"
 viewBox="0.00 0.00 149.00 122.00" xmlns="http://www.w3.org/2000/svg" xmlns:xlink="http://www.w3.org/1999/xlink">
<g id="graph0" class="graph" transform="scale(1 1) rotate(0) translate(4 118)">
<title>__gnu_pbds::detail::mask_based_range_hashing&lt; Size_Type &gt;</title>
<polygon fill="white" stroke="none" points="-4,4 -4,-118 145,-118 145,4 -4,4"/>
<!-- Node1 -->
<g id="node1" class="node"><title>Node1</title>
<polygon fill="#bfbfbf" stroke="black" points="0,-75.5 0,-113.5 141,-113.5 141,-75.5 0,-75.5"/>
<text text-anchor="start" x="8" y="-102.3" font-family="Helvetica,sans-Serif" font-size="9.00">__gnu_pbds::detail</text>
<text text-anchor="start" x="8" y="-92.3" font-family="Helvetica,sans-Serif" font-size="9.00">::mask_based_range_hashing</text>
<text text-anchor="middle" x="70.5" y="-82.3" font-family="Helvetica,sans-Serif" font-size="9.00">&lt; Size_Type &gt;</text>
</g>
<!-- Node2 -->
<g id="node2" class="node"><title>Node2</title>
<g id="a_node2"><a xlink:href="a00332.html" target="_top" xlink:title="A mask range&#45;hashing class (uses a bitmask). ">
<polygon fill="white" stroke="black" points="15,-0.5 15,-38.5 126,-38.5 126,-0.5 15,-0.5"/>
<text text-anchor="start" x="23" y="-27.3" font-family="Helvetica,sans-Serif" font-size="9.00">__gnu_pbds::direct</text>
<text text-anchor="start" x="23" y="-17.3" font-family="Helvetica,sans-Serif" font-size="9.00">_mask_range_hashing</text>
<text text-anchor="middle" x="70.5" y="-7.3" font-family="Helvetica,sans-Serif" font-size="9.00">&lt; Size_Type &gt;</text>
</a>
</g>
</g>
<!-- Node1&#45;&gt;Node2 -->
<g id="edge1" class="edge"><title>Node1&#45;&gt;Node2</title>
<path fill="none" stroke="midnightblue" d="M70.5,-65.3688C70.5,-56.3769 70.5,-46.6687 70.5,-38.5904"/>
<polygon fill="midnightblue" stroke="midnightblue" points="67.0001,-65.455 70.5,-75.4551 74.0001,-65.4551 67.0001,-65.455"/>
</g>
</g>
</svg>
