<?xml version="1.0" encoding="UTF-8" standalone="no"?>
<!DOCTYPE svg PUBLIC "-//W3C//DTD SVG 1.1//EN"
 "http://www.w3.org/Graphics/SVG/1.1/DTD/svg11.dtd">
<!-- Generated by graphviz version 2.38.0 (20140413.2041)
 -->
<!-- Title: __gnu_pbds::detail::binomial_heap&lt; Value_Type, Cmp_Fn, _Alloc &gt; Pages: 1 -->
<svg width="457pt" height="57pt"
 viewBox="0.00 0.00 457.00 57.00" xmlns="http://www.w3.org/2000/svg" xmlns:xlink="http://www.w3.org/1999/xlink">
<g id="graph0" class="graph" transform="scale(1 1) rotate(0) translate(4 53)">
<title>__gnu_pbds::detail::binomial_heap&lt; Value_Type, Cmp_Fn, _Alloc &gt;</title>
<polygon fill="white" stroke="none" points="-4,4 -4,-53 453,-53 453,4 -4,4"/>
<!-- Node1 -->
<g id="node1" class="node"><title>Node1</title>
<polygon fill="#bfbfbf" stroke="black" points="330,-5.5 330,-43.5 449,-43.5 449,-5.5 330,-5.5"/>
<text text-anchor="start" x="338" y="-32.3" font-family="Helvetica,sans-Serif" font-size="9.00">__gnu_pbds::detail</text>
<text text-anchor="start" x="338" y="-22.3" font-family="Helvetica,sans-Serif" font-size="9.00">::binomial_heap&lt; Value</text>
<text text-anchor="middle" x="389.5" y="-12.3" font-family="Helvetica,sans-Serif" font-size="9.00">_Type, Cmp_Fn, _Alloc &gt;</text>
</g>
<!-- Node2 -->
<g id="node2" class="node"><title>Node2</title>
<g id="a_node2"><a xlink:href="a00205.html" target="_top" xlink:title="Base class for binomial heap. ">
<polygon fill="white" stroke="black" points="178,-0.5 178,-48.5 294,-48.5 294,-0.5 178,-0.5"/>
<text text-anchor="start" x="186" y="-37.3" font-family="Helvetica,sans-Serif" font-size="9.00">__gnu_pbds::detail</text>
<text text-anchor="start" x="186" y="-27.3" font-family="Helvetica,sans-Serif" font-size="9.00">::binomial_heap_base</text>
<text text-anchor="start" x="186" y="-17.3" font-family="Helvetica,sans-Serif" font-size="9.00">&lt; Value_Type, Cmp_Fn,</text>
<text text-anchor="middle" x="236" y="-7.3" font-family="Helvetica,sans-Serif" font-size="9.00"> _Alloc &gt;</text>
</a>
</g>
</g>
<!-- Node2&#45;&gt;Node1 -->
<g id="edge1" class="edge"><title>Node2&#45;&gt;Node1</title>
<path fill="none" stroke="midnightblue" d="M304.503,-24.5C312.967,-24.5 321.571,-24.5 329.884,-24.5"/>
<polygon fill="midnightblue" stroke="midnightblue" points="304.276,-21.0001 294.276,-24.5 304.276,-28.0001 304.276,-21.0001"/>
</g>
<!-- Node3 -->
<g id="node3" class="node"><title>Node3</title>
<g id="a_node3"><a xlink:href="a00253.html" target="_top" xlink:title="__gnu_pbds::detail\l::left_child_next_sibling\l_heap\&lt; Value_Type, Cmp_Fn,\l _Alloc::size_type, _Alloc \&gt;">
<polygon fill="white" stroke="black" points="0,-0.5 0,-48.5 142,-48.5 142,-0.5 0,-0.5"/>
<text text-anchor="start" x="8" y="-37.3" font-family="Helvetica,sans-Serif" font-size="9.00">__gnu_pbds::detail</text>
<text text-anchor="start" x="8" y="-27.3" font-family="Helvetica,sans-Serif" font-size="9.00">::left_child_next_sibling</text>
<text text-anchor="start" x="8" y="-17.3" font-family="Helvetica,sans-Serif" font-size="9.00">_heap&lt; Value_Type, Cmp_Fn,</text>
<text text-anchor="middle" x="71" y="-7.3" font-family="Helvetica,sans-Serif" font-size="9.00"> _Alloc::size_type, _Alloc &gt;</text>
</a>
</g>
</g>
<!-- Node3&#45;&gt;Node2 -->
<g id="edge2" class="edge"><title>Node3&#45;&gt;Node2</title>
<path fill="none" stroke="midnightblue" d="M152.249,-24.5C160.945,-24.5 169.66,-24.5 177.998,-24.5"/>
<polygon fill="midnightblue" stroke="midnightblue" points="152.073,-21.0001 142.073,-24.5 152.073,-28.0001 152.073,-21.0001"/>
</g>
</g>
</svg>
