<?xml version="1.0" encoding="UTF-8" standalone="no"?>
<!DOCTYPE svg PUBLIC "-//W3C//DTD SVG 1.1//EN"
 "http://www.w3.org/Graphics/SVG/1.1/DTD/svg11.dtd">
<!-- Generated by graphviz version 2.38.0 (20140413.2041)
 -->
<!-- Title: __gnu_pbds::detail::pat_trie_base::_Inode&lt; _ATraits, Metadata &gt;::iterator Pages: 1 -->
<svg width="118pt" height="142pt"
 viewBox="0.00 0.00 118.00 142.00" xmlns="http://www.w3.org/2000/svg" xmlns:xlink="http://www.w3.org/1999/xlink">
<g id="graph0" class="graph" transform="scale(1 1) rotate(0) translate(4 138)">
<title>__gnu_pbds::detail::pat_trie_base::_Inode&lt; _ATraits, Metadata &gt;::iterator</title>
<polygon fill="white" stroke="none" points="-4,4 -4,-138 114,-138 114,4 -4,4"/>
<!-- Node1 -->
<g id="node1" class="node"><title>Node1</title>
<polygon fill="#bfbfbf" stroke="black" points="0,-0.5 0,-48.5 110,-48.5 110,-0.5 0,-0.5"/>
<text text-anchor="start" x="8" y="-37.3" font-family="Helvetica,sans-Serif" font-size="9.00">__gnu_pbds::detail</text>
<text text-anchor="start" x="8" y="-27.3" font-family="Helvetica,sans-Serif" font-size="9.00">::pat_trie_base::_Inode</text>
<text text-anchor="start" x="8" y="-17.3" font-family="Helvetica,sans-Serif" font-size="9.00">&lt; _ATraits, Metadata &gt;</text>
<text text-anchor="middle" x="55" y="-7.3" font-family="Helvetica,sans-Serif" font-size="9.00">::iterator</text>
</g>
<!-- Node2 -->
<g id="node2" class="node"><title>Node2</title>
<g id="a_node2"><a xlink:href="a00273.html" target="_top" xlink:title="Constant child iterator. ">
<polygon fill="white" stroke="black" points="0,-85.5 0,-133.5 110,-133.5 110,-85.5 0,-85.5"/>
<text text-anchor="start" x="8" y="-122.3" font-family="Helvetica,sans-Serif" font-size="9.00">__gnu_pbds::detail</text>
<text text-anchor="start" x="8" y="-112.3" font-family="Helvetica,sans-Serif" font-size="9.00">::pat_trie_base::_Inode</text>
<text text-anchor="start" x="8" y="-102.3" font-family="Helvetica,sans-Serif" font-size="9.00">&lt; _ATraits, Metadata &gt;</text>
<text text-anchor="middle" x="55" y="-92.3" font-family="Helvetica,sans-Serif" font-size="9.00">::const_iterator</text>
</a>
</g>
</g>
<!-- Node2&#45;&gt;Node1 -->
<g id="edge1" class="edge"><title>Node2&#45;&gt;Node1</title>
<path fill="none" stroke="midnightblue" d="M55,-75.2987C55,-66.4164 55,-57.0052 55,-48.784"/>
<polygon fill="midnightblue" stroke="midnightblue" points="51.5001,-75.3798 55,-85.3799 58.5001,-75.3799 51.5001,-75.3798"/>
</g>
</g>
</svg>
