<?xml version="1.0" encoding="UTF-8" standalone="no"?>
<!DOCTYPE svg PUBLIC "-//W3C//DTD SVG 1.1//EN"
 "http://www.w3.org/Graphics/SVG/1.1/DTD/svg11.dtd">
<!-- Generated by graphviz version 2.38.0 (20140413.2041)
 -->
<!-- Title: __gnu_pbds::detail::binary_heap&lt; Value_Type, Cmp_Fn, _Alloc &gt; Pages: 1 -->
<svg width="127pt" height="122pt"
 viewBox="0.00 0.00 127.00 122.00" xmlns="http://www.w3.org/2000/svg" xmlns:xlink="http://www.w3.org/1999/xlink">
<g id="graph0" class="graph" transform="scale(1 1) rotate(0) translate(4 118)">
<title>__gnu_pbds::detail::binary_heap&lt; Value_Type, Cmp_Fn, _Alloc &gt;</title>
<polygon fill="white" stroke="none" points="-4,4 -4,-118 123,-118 123,4 -4,4"/>
<!-- Node1 -->
<g id="node1" class="node"><title>Node1</title>
<polygon fill="#bfbfbf" stroke="black" points="0,-0.5 0,-38.5 119,-38.5 119,-0.5 0,-0.5"/>
<text text-anchor="start" x="8" y="-27.3" font-family="Helvetica,sans-Serif" font-size="9.00">__gnu_pbds::detail</text>
<text text-anchor="start" x="8" y="-17.3" font-family="Helvetica,sans-Serif" font-size="9.00">::binary_heap&lt; Value</text>
<text text-anchor="middle" x="59.5" y="-7.3" font-family="Helvetica,sans-Serif" font-size="9.00">_Type, Cmp_Fn, _Alloc &gt;</text>
</g>
<!-- Node2 -->
<g id="node2" class="node"><title>Node2</title>
<g id="a_node2"><a xlink:href="a00297.html" target="_top" xlink:title="__gnu_pbds::detail\l::resize_policy\&lt; _Alloc\l::size_type \&gt;">
<polygon fill="white" stroke="black" points="5.5,-75.5 5.5,-113.5 113.5,-113.5 113.5,-75.5 5.5,-75.5"/>
<text text-anchor="start" x="13.5" y="-102.3" font-family="Helvetica,sans-Serif" font-size="9.00">__gnu_pbds::detail</text>
<text text-anchor="start" x="13.5" y="-92.3" font-family="Helvetica,sans-Serif" font-size="9.00">::resize_policy&lt; _Alloc</text>
<text text-anchor="middle" x="59.5" y="-82.3" font-family="Helvetica,sans-Serif" font-size="9.00">::size_type &gt;</text>
</a>
</g>
</g>
<!-- Node2&#45;&gt;Node1 -->
<g id="edge1" class="edge"><title>Node2&#45;&gt;Node1</title>
<path fill="none" stroke="midnightblue" d="M59.5,-65.3688C59.5,-56.3769 59.5,-46.6687 59.5,-38.5904"/>
<polygon fill="midnightblue" stroke="midnightblue" points="56.0001,-65.455 59.5,-75.4551 63.0001,-65.4551 56.0001,-65.455"/>
</g>
</g>
</svg>
