<?xml version="1.0" encoding="UTF-8" standalone="no"?>
<!DOCTYPE svg PUBLIC "-//W3C//DTD SVG 1.1//EN"
 "http://www.w3.org/Graphics/SVG/1.1/DTD/svg11.dtd">
<!-- Generated by graphviz version 2.38.0 (20140413.2041)
 -->
<!-- Title: __gnu_pbds::detail::gp_ht_map&lt; Key, Mapped, Hash_Fn, Eq_Fn, _Alloc, Store_Hash, Comb_Probe_Fn, Probe_Fn, Resize_Policy &gt; Pages: 1 -->
<svg width="505pt" height="181pt"
 viewBox="0.00 0.00 505.00 181.00" xmlns="http://www.w3.org/2000/svg" xmlns:xlink="http://www.w3.org/1999/xlink">
<g id="graph0" class="graph" transform="scale(1 1) rotate(0) translate(4 177)">
<title>__gnu_pbds::detail::gp_ht_map&lt; Key, Mapped, Hash_Fn, Eq_Fn, _Alloc, Store_Hash, Comb_Probe_Fn, Probe_Fn, Resize_Policy &gt;</title>
<polygon fill="white" stroke="none" points="-4,4 -4,-177 501,-177 501,4 -4,4"/>
<!-- Node1 -->
<g id="node1" class="node"><title>Node1</title>
<polygon fill="#bfbfbf" stroke="black" points="349,-62.5 349,-120.5 497,-120.5 497,-62.5 349,-62.5"/>
<text text-anchor="start" x="357" y="-109.3" font-family="Helvetica,sans-Serif" font-size="9.00">__gnu_pbds::detail</text>
<text text-anchor="start" x="357" y="-99.3" font-family="Helvetica,sans-Serif" font-size="9.00">::gp_ht_map&lt; Key, Mapped,</text>
<text text-anchor="start" x="357" y="-89.3" font-family="Helvetica,sans-Serif" font-size="9.00"> Hash_Fn, Eq_Fn, _Alloc,</text>
<text text-anchor="start" x="357" y="-79.3" font-family="Helvetica,sans-Serif" font-size="9.00"> Store_Hash, Comb_Probe</text>
<text text-anchor="middle" x="423" y="-69.3" font-family="Helvetica,sans-Serif" font-size="9.00">_Fn, Probe_Fn, Resize_Policy &gt;</text>
</g>
<!-- Node2 -->
<g id="node2" class="node"><title>Node2</title>
<g id="a_node2"><a xlink:href="a00248.html" target="_top" xlink:title="Primary template. ">
<polygon fill="white" stroke="black" points="167.5,-134.5 167.5,-172.5 290.5,-172.5 290.5,-134.5 167.5,-134.5"/>
<text text-anchor="start" x="175.5" y="-161.3" font-family="Helvetica,sans-Serif" font-size="9.00">__gnu_pbds::detail</text>
<text text-anchor="start" x="175.5" y="-151.3" font-family="Helvetica,sans-Serif" font-size="9.00">::hash_eq_fn&lt; Key, Eq</text>
<text text-anchor="middle" x="229" y="-141.3" font-family="Helvetica,sans-Serif" font-size="9.00">_Fn, _Alloc, Store_Hash &gt;</text>
</a>
</g>
</g>
<!-- Node2&#45;&gt;Node1 -->
<g id="edge1" class="edge"><title>Node2&#45;&gt;Node1</title>
<path fill="none" stroke="midnightblue" d="M298.871,-131.26C315.132,-126.01 332.524,-120.393 348.962,-115.085"/>
<polygon fill="midnightblue" stroke="midnightblue" points="297.352,-128.073 288.911,-134.477 299.503,-134.734 297.352,-128.073"/>
</g>
<!-- Node3 -->
<g id="node3" class="node"><title>Node3</title>
<g id="a_node3"><a xlink:href="a00289.html" target="_top" xlink:title="Primary template. ">
<polygon fill="white" stroke="black" points="145,-67.5 145,-115.5 313,-115.5 313,-67.5 145,-67.5"/>
<text text-anchor="start" x="153" y="-104.3" font-family="Helvetica,sans-Serif" font-size="9.00">__gnu_pbds::detail</text>
<text text-anchor="start" x="153" y="-94.3" font-family="Helvetica,sans-Serif" font-size="9.00">::ranged_probe_fn&lt; Key,</text>
<text text-anchor="start" x="153" y="-84.3" font-family="Helvetica,sans-Serif" font-size="9.00"> Hash_Fn, _Alloc, Comb</text>
<text text-anchor="middle" x="229" y="-74.3" font-family="Helvetica,sans-Serif" font-size="9.00">_Probe_Fn, Probe_Fn, Store_Hash &gt;</text>
</a>
</g>
</g>
<!-- Node3&#45;&gt;Node1 -->
<g id="edge2" class="edge"><title>Node3&#45;&gt;Node1</title>
<path fill="none" stroke="midnightblue" d="M323.149,-91.5C331.738,-91.5 340.357,-91.5 348.731,-91.5"/>
<polygon fill="midnightblue" stroke="midnightblue" points="323.097,-88.0001 313.097,-91.5 323.097,-95.0001 323.097,-88.0001"/>
</g>
<!-- Node4 -->
<g id="node4" class="node"><title>Node4</title>
<g id="a_node4"><a xlink:href="a00331.html" target="_top" xlink:title="Traits for abstract types. ">
<polygon fill="white" stroke="black" points="174.5,-0.5 174.5,-48.5 283.5,-48.5 283.5,-0.5 174.5,-0.5"/>
<text text-anchor="start" x="182.5" y="-37.3" font-family="Helvetica,sans-Serif" font-size="9.00">__gnu_pbds::detail</text>
<text text-anchor="start" x="182.5" y="-27.3" font-family="Helvetica,sans-Serif" font-size="9.00">::types_traits&lt; Key,</text>
<text text-anchor="start" x="182.5" y="-17.3" font-family="Helvetica,sans-Serif" font-size="9.00"> Mapped, _Alloc, Store</text>
<text text-anchor="middle" x="229" y="-7.3" font-family="Helvetica,sans-Serif" font-size="9.00">_Hash &gt;</text>
</a>
</g>
</g>
<!-- Node4&#45;&gt;Node1 -->
<g id="edge3" class="edge"><title>Node4&#45;&gt;Node1</title>
<path fill="none" stroke="midnightblue" d="M293.412,-46.6283C311.172,-52.8256 330.619,-59.612 348.892,-65.9884"/>
<polygon fill="midnightblue" stroke="midnightblue" points="294.333,-43.2426 283.738,-43.2523 292.026,-49.8517 294.333,-43.2426"/>
</g>
<!-- Node5 -->
<g id="node5" class="node"><title>Node5</title>
<g id="a_node5"><a xlink:href="a00325.html" target="_top" xlink:title="Primary template. ">
<polygon fill="white" stroke="black" points="0,-5.5 0,-43.5 109,-43.5 109,-5.5 0,-5.5"/>
<text text-anchor="start" x="8" y="-32.3" font-family="Helvetica,sans-Serif" font-size="9.00">type_dispatch&lt; Key,</text>
<text text-anchor="start" x="8" y="-22.3" font-family="Helvetica,sans-Serif" font-size="9.00"> Mapped, _Alloc, Store</text>
<text text-anchor="middle" x="54.5" y="-12.3" font-family="Helvetica,sans-Serif" font-size="9.00">_Hash &gt;::type</text>
</a>
</g>
</g>
<!-- Node5&#45;&gt;Node4 -->
<g id="edge4" class="edge"><title>Node5&#45;&gt;Node4</title>
<path fill="none" stroke="midnightblue" d="M119.317,-24.5C137.428,-24.5 156.958,-24.5 174.399,-24.5"/>
<polygon fill="midnightblue" stroke="midnightblue" points="119.135,-21.0001 109.135,-24.5 119.134,-28.0001 119.135,-21.0001"/>
</g>
</g>
</svg>
