<?xml version="1.0" encoding="UTF-8" standalone="no"?>
<!DOCTYPE svg PUBLIC "-//W3C//DTD SVG 1.1//EN"
 "http://www.w3.org/Graphics/SVG/1.1/DTD/svg11.dtd">
<!-- Generated by graphviz version 2.38.0 (20140413.2041)
 -->
<!-- Title: __gnu_pbds::detail::lu_map&lt; Key, Mapped, Eq_Fn, _Alloc, Update_Policy &gt; Pages: 1 -->
<svg width="124pt" height="207pt"
 viewBox="0.00 0.00 124.00 207.00" xmlns="http://www.w3.org/2000/svg" xmlns:xlink="http://www.w3.org/1999/xlink">
<g id="graph0" class="graph" transform="scale(1 1) rotate(0) translate(4 203)">
<title>__gnu_pbds::detail::lu_map&lt; Key, Mapped, Eq_Fn, _Alloc, Update_Policy &gt;</title>
<polygon fill="white" stroke="none" points="-4,4 -4,-203 120,-203 120,4 -4,4"/>
<!-- Node1 -->
<g id="node1" class="node"><title>Node1</title>
<polygon fill="#bfbfbf" stroke="black" points="0,-0.5 0,-48.5 116,-48.5 116,-0.5 0,-0.5"/>
<text text-anchor="start" x="8" y="-37.3" font-family="Helvetica,sans-Serif" font-size="9.00">__gnu_pbds::detail</text>
<text text-anchor="start" x="8" y="-27.3" font-family="Helvetica,sans-Serif" font-size="9.00">::lu_map&lt; Key, Mapped,</text>
<text text-anchor="start" x="8" y="-17.3" font-family="Helvetica,sans-Serif" font-size="9.00"> Eq_Fn, _Alloc, Update</text>
<text text-anchor="middle" x="58" y="-7.3" font-family="Helvetica,sans-Serif" font-size="9.00">_Policy &gt;</text>
</g>
<!-- Node2 -->
<g id="node2" class="node"><title>Node2</title>
<g id="a_node2"><a xlink:href="a00331.html" target="_top" xlink:title="__gnu_pbds::detail\l::types_traits\&lt; Key,\l Mapped, _Alloc, false \&gt;">
<polygon fill="white" stroke="black" points="1,-85.5 1,-123.5 115,-123.5 115,-85.5 1,-85.5"/>
<text text-anchor="start" x="9" y="-112.3" font-family="Helvetica,sans-Serif" font-size="9.00">__gnu_pbds::detail</text>
<text text-anchor="start" x="9" y="-102.3" font-family="Helvetica,sans-Serif" font-size="9.00">::types_traits&lt; Key,</text>
<text text-anchor="middle" x="58" y="-92.3" font-family="Helvetica,sans-Serif" font-size="9.00"> Mapped, _Alloc, false &gt;</text>
</a>
</g>
</g>
<!-- Node2&#45;&gt;Node1 -->
<g id="edge1" class="edge"><title>Node2&#45;&gt;Node1</title>
<path fill="none" stroke="midnightblue" d="M58,-75.2321C58,-66.4607 58,-56.904 58,-48.5333"/>
<polygon fill="midnightblue" stroke="midnightblue" points="54.5001,-75.4091 58,-85.4092 61.5001,-75.4092 54.5001,-75.4091"/>
</g>
<!-- Node3 -->
<g id="node3" class="node"><title>Node3</title>
<g id="a_node3"><a xlink:href="a00325.html" target="_top" xlink:title="Primary template. ">
<polygon fill="white" stroke="black" points="3.5,-160.5 3.5,-198.5 112.5,-198.5 112.5,-160.5 3.5,-160.5"/>
<text text-anchor="start" x="11.5" y="-187.3" font-family="Helvetica,sans-Serif" font-size="9.00">type_dispatch&lt; Key,</text>
<text text-anchor="start" x="11.5" y="-177.3" font-family="Helvetica,sans-Serif" font-size="9.00"> Mapped, _Alloc, Store</text>
<text text-anchor="middle" x="58" y="-167.3" font-family="Helvetica,sans-Serif" font-size="9.00">_Hash &gt;::type</text>
</a>
</g>
</g>
<!-- Node3&#45;&gt;Node2 -->
<g id="edge2" class="edge"><title>Node3&#45;&gt;Node2</title>
<path fill="none" stroke="midnightblue" d="M58,-150.369C58,-141.377 58,-131.669 58,-123.59"/>
<polygon fill="midnightblue" stroke="midnightblue" points="54.5001,-150.455 58,-160.455 61.5001,-150.455 54.5001,-150.455"/>
</g>
</g>
</svg>
