<?xml version="1.0" encoding="UTF-8" standalone="no"?>
<!DOCTYPE svg PUBLIC "-//W3C//DTD SVG 1.1//EN"
 "http://www.w3.org/Graphics/SVG/1.1/DTD/svg11.dtd">
<!-- Generated by graphviz version 2.38.0 (20140413.2041)
 -->
<!-- Title: __gnu_pbds::detail::hash_eq_fn&lt; Key, Eq_Fn, _Alloc, Store_Hash &gt; Pages: 1 -->
<svg width="290pt" height="104pt"
 viewBox="0.00 0.00 290.00 104.00" xmlns="http://www.w3.org/2000/svg" xmlns:xlink="http://www.w3.org/1999/xlink">
<g id="graph0" class="graph" transform="scale(1 1) rotate(0) translate(4 100)">
<title>__gnu_pbds::detail::hash_eq_fn&lt; Key, Eq_Fn, _Alloc, Store_Hash &gt;</title>
<polygon fill="white" stroke="none" points="-4,4 -4,-100 286,-100 286,4 -4,4"/>
<!-- Node1 -->
<g id="node1" class="node"><title>Node1</title>
<polygon fill="#bfbfbf" stroke="black" points="0,-28.5 0,-66.5 123,-66.5 123,-28.5 0,-28.5"/>
<text text-anchor="start" x="8" y="-55.3" font-family="Helvetica,sans-Serif" font-size="9.00">__gnu_pbds::detail</text>
<text text-anchor="start" x="8" y="-45.3" font-family="Helvetica,sans-Serif" font-size="9.00">::hash_eq_fn&lt; Key, Eq</text>
<text text-anchor="middle" x="61.5" y="-35.3" font-family="Helvetica,sans-Serif" font-size="9.00">_Fn, _Alloc, Store_Hash &gt;</text>
</g>
<!-- Node2 -->
<g id="node2" class="node"><title>Node2</title>
<g id="a_node2"><a xlink:href="a00208.html" target="_top" xlink:title="__gnu_pbds::detail\l::cc_ht_map\&lt; Key, Eq\l_Fn, _Alloc, Store_Hash \&gt;">
<polygon fill="white" stroke="black" points="159,-57.5 159,-95.5 282,-95.5 282,-57.5 159,-57.5"/>
<text text-anchor="start" x="167" y="-84.3" font-family="Helvetica,sans-Serif" font-size="9.00">__gnu_pbds::detail</text>
<text text-anchor="start" x="167" y="-74.3" font-family="Helvetica,sans-Serif" font-size="9.00">::cc_ht_map&lt; Key, Eq</text>
<text text-anchor="middle" x="220.5" y="-64.3" font-family="Helvetica,sans-Serif" font-size="9.00">_Fn, _Alloc, Store_Hash &gt;</text>
</a>
</g>
</g>
<!-- Node1&#45;&gt;Node2 -->
<g id="edge1" class="edge"><title>Node1&#45;&gt;Node2</title>
<path fill="none" stroke="midnightblue" d="M133.21,-60.5611C141.807,-62.1491 150.53,-63.7603 158.961,-65.3177"/>
<polygon fill="midnightblue" stroke="midnightblue" points="133.67,-57.0869 123.2,-58.7122 132.398,-63.9704 133.67,-57.0869"/>
</g>
<!-- Node3 -->
<g id="node3" class="node"><title>Node3</title>
<g id="a_node3"><a xlink:href="a00247.html" target="_top" xlink:title="__gnu_pbds::detail\l::gp_ht_map\&lt; Key, Eq\l_Fn, _Alloc, Store_Hash \&gt;">
<polygon fill="white" stroke="black" points="159,-0.5 159,-38.5 282,-38.5 282,-0.5 159,-0.5"/>
<text text-anchor="start" x="167" y="-27.3" font-family="Helvetica,sans-Serif" font-size="9.00">__gnu_pbds::detail</text>
<text text-anchor="start" x="167" y="-17.3" font-family="Helvetica,sans-Serif" font-size="9.00">::gp_ht_map&lt; Key, Eq</text>
<text text-anchor="middle" x="220.5" y="-7.3" font-family="Helvetica,sans-Serif" font-size="9.00">_Fn, _Alloc, Store_Hash &gt;</text>
</a>
</g>
</g>
<!-- Node1&#45;&gt;Node3 -->
<g id="edge2" class="edge"><title>Node1&#45;&gt;Node3</title>
<path fill="none" stroke="midnightblue" d="M133.21,-34.8893C141.807,-33.3561 150.53,-31.8004 158.961,-30.2967"/>
<polygon fill="midnightblue" stroke="midnightblue" points="132.43,-31.473 123.2,-36.6745 133.659,-38.3643 132.43,-31.473"/>
</g>
</g>
</svg>
