<?xml version="1.0" encoding="UTF-8" standalone="no"?>
<!DOCTYPE svg PUBLIC "-//W3C//DTD SVG 1.1//EN"
 "http://www.w3.org/Graphics/SVG/1.1/DTD/svg11.dtd">
<!-- Generated by graphviz version 2.38.0 (20140413.2041)
 -->
<!-- Title: __gnu_pbds::detail::pat_trie_base Pages: 1 -->
<svg width="119pt" height="122pt"
 viewBox="0.00 0.00 119.00 122.00" xmlns="http://www.w3.org/2000/svg" xmlns:xlink="http://www.w3.org/1999/xlink">
<g id="graph0" class="graph" transform="scale(1 1) rotate(0) translate(4 118)">
<title>__gnu_pbds::detail::pat_trie_base</title>
<polygon fill="white" stroke="none" points="-4,4 -4,-118 115,-118 115,4 -4,4"/>
<!-- Node1 -->
<g id="node1" class="node"><title>Node1</title>
<polygon fill="#bfbfbf" stroke="black" points="8,-85.5 8,-113.5 103,-113.5 103,-85.5 8,-85.5"/>
<text text-anchor="start" x="16" y="-102.3" font-family="Helvetica,sans-Serif" font-size="9.00">__gnu_pbds::detail</text>
<text text-anchor="middle" x="55.5" y="-92.3" font-family="Helvetica,sans-Serif" font-size="9.00">::pat_trie_base</text>
</g>
<!-- Node2 -->
<g id="node2" class="node"><title>Node2</title>
<g id="a_node2"><a xlink:href="a00282.html" target="_top" xlink:title="PATRICIA trie.This implementation loosely borrows ideas from: 1) Fast Mergeable Integer Maps...">
<polygon fill="white" stroke="black" points="0,-0.5 0,-48.5 111,-48.5 111,-0.5 0,-0.5"/>
<text text-anchor="start" x="8" y="-37.3" font-family="Helvetica,sans-Serif" font-size="9.00">__gnu_pbds::detail</text>
<text text-anchor="start" x="8" y="-27.3" font-family="Helvetica,sans-Serif" font-size="9.00">::pat_trie_map&lt; Key,</text>
<text text-anchor="start" x="8" y="-17.3" font-family="Helvetica,sans-Serif" font-size="9.00"> Mapped, Node_And_It</text>
<text text-anchor="middle" x="55.5" y="-7.3" font-family="Helvetica,sans-Serif" font-size="9.00">_Traits, _Alloc &gt;</text>
</a>
</g>
</g>
<!-- Node1&#45;&gt;Node2 -->
<g id="edge1" class="edge"><title>Node1&#45;&gt;Node2</title>
<path fill="none" stroke="midnightblue" d="M55.5,-75.4463C55.5,-66.9372 55.5,-57.2948 55.5,-48.767"/>
<polygon fill="midnightblue" stroke="midnightblue" points="52.0001,-75.449 55.5,-85.4491 59.0001,-75.4491 52.0001,-75.449"/>
</g>
</g>
</svg>
