<?xml version="1.0" encoding="UTF-8" standalone="no"?>
<!DOCTYPE svg PUBLIC "-//W3C//DTD SVG 1.1//EN"
 "http://www.w3.org/Graphics/SVG/1.1/DTD/svg11.dtd">
<!-- Generated by graphviz version 2.38.0 (20140413.2041)
 -->
<!-- Title: __gnu_pbds::detail::pat_trie_base::_CIter&lt; Node, Leaf, Head, Inode, Is_Forward_Iterator &gt; Pages: 1 -->
<svg width="296pt" height="57pt"
 viewBox="0.00 0.00 296.00 57.00" xmlns="http://www.w3.org/2000/svg" xmlns:xlink="http://www.w3.org/1999/xlink">
<g id="graph0" class="graph" transform="scale(1 1) rotate(0) translate(4 53)">
<title>__gnu_pbds::detail::pat_trie_base::_CIter&lt; Node, Leaf, Head, Inode, Is_Forward_Iterator &gt;</title>
<polygon fill="white" stroke="none" points="-4,4 -4,-53 292,-53 292,4 -4,4"/>
<!-- Node1 -->
<g id="node1" class="node"><title>Node1</title>
<polygon fill="#bfbfbf" stroke="black" points="0,-0.5 0,-48.5 126,-48.5 126,-0.5 0,-0.5"/>
<text text-anchor="start" x="8" y="-37.3" font-family="Helvetica,sans-Serif" font-size="9.00">__gnu_pbds::detail</text>
<text text-anchor="start" x="8" y="-27.3" font-family="Helvetica,sans-Serif" font-size="9.00">::pat_trie_base::_CIter</text>
<text text-anchor="start" x="8" y="-17.3" font-family="Helvetica,sans-Serif" font-size="9.00">&lt; Node, Leaf, Head, Inode,</text>
<text text-anchor="middle" x="63" y="-7.3" font-family="Helvetica,sans-Serif" font-size="9.00"> Is_Forward_Iterator &gt;</text>
</g>
<!-- Node2 -->
<g id="node2" class="node"><title>Node2</title>
<g id="a_node2"><a xlink:href="a00275.html" target="_top" xlink:title="Iterator. ">
<polygon fill="white" stroke="black" points="162,-0.5 162,-48.5 288,-48.5 288,-0.5 162,-0.5"/>
<text text-anchor="start" x="170" y="-37.3" font-family="Helvetica,sans-Serif" font-size="9.00">__gnu_pbds::detail</text>
<text text-anchor="start" x="170" y="-27.3" font-family="Helvetica,sans-Serif" font-size="9.00">::pat_trie_base::_Iter</text>
<text text-anchor="start" x="170" y="-17.3" font-family="Helvetica,sans-Serif" font-size="9.00">&lt; Node, Leaf, Head, Inode,</text>
<text text-anchor="middle" x="225" y="-7.3" font-family="Helvetica,sans-Serif" font-size="9.00"> Is_Forward_Iterator &gt;</text>
</a>
</g>
</g>
<!-- Node1&#45;&gt;Node2 -->
<g id="edge1" class="edge"><title>Node1&#45;&gt;Node2</title>
<path fill="none" stroke="midnightblue" d="M136.545,-24.5C144.996,-24.5 153.559,-24.5 161.852,-24.5"/>
<polygon fill="midnightblue" stroke="midnightblue" points="136.318,-21.0001 126.318,-24.5 136.318,-28.0001 136.318,-21.0001"/>
</g>
</g>
</svg>
