<?xml version="1.0" encoding="UTF-8" standalone="no"?>
<!DOCTYPE svg PUBLIC "-//W3C//DTD SVG 1.1//EN"
 "http://www.w3.org/Graphics/SVG/1.1/DTD/svg11.dtd">
<!-- Generated by graphviz version 2.38.0 (20140413.2041)
 -->
<!-- Title: __gnu_pbds::detail::ranged_probe_fn&lt; Key, Hash_Fn, _Alloc, Comb_Probe_Fn, Probe_Fn, Store_Hash &gt; Pages: 1 -->
<svg width="350pt" height="57pt"
 viewBox="0.00 0.00 350.00 57.00" xmlns="http://www.w3.org/2000/svg" xmlns:xlink="http://www.w3.org/1999/xlink">
<g id="graph0" class="graph" transform="scale(1 1) rotate(0) translate(4 53)">
<title>__gnu_pbds::detail::ranged_probe_fn&lt; Key, Hash_Fn, _Alloc, Comb_Probe_Fn, Probe_Fn, Store_Hash &gt;</title>
<polygon fill="white" stroke="none" points="-4,4 -4,-53 346,-53 346,4 -4,4"/>
<!-- Node1 -->
<g id="node1" class="node"><title>Node1</title>
<polygon fill="#bfbfbf" stroke="black" points="0,-0.5 0,-48.5 168,-48.5 168,-0.5 0,-0.5"/>
<text text-anchor="start" x="8" y="-37.3" font-family="Helvetica,sans-Serif" font-size="9.00">__gnu_pbds::detail</text>
<text text-anchor="start" x="8" y="-27.3" font-family="Helvetica,sans-Serif" font-size="9.00">::ranged_probe_fn&lt; Key,</text>
<text text-anchor="start" x="8" y="-17.3" font-family="Helvetica,sans-Serif" font-size="9.00"> Hash_Fn, _Alloc, Comb</text>
<text text-anchor="middle" x="84" y="-7.3" font-family="Helvetica,sans-Serif" font-size="9.00">_Probe_Fn, Probe_Fn, Store_Hash &gt;</text>
</g>
<!-- Node2 -->
<g id="node2" class="node"><title>Node2</title>
<g id="a_node2"><a xlink:href="a00247.html" target="_top" xlink:title="__gnu_pbds::detail\l::gp_ht_map\&lt; Key, Hash\l_Fn, _Alloc, Comb_Probe\l_Fn, Probe_Fn, Store_Hash \&gt;">
<polygon fill="white" stroke="black" points="204,-0.5 204,-48.5 342,-48.5 342,-0.5 204,-0.5"/>
<text text-anchor="start" x="212" y="-37.3" font-family="Helvetica,sans-Serif" font-size="9.00">__gnu_pbds::detail</text>
<text text-anchor="start" x="212" y="-27.3" font-family="Helvetica,sans-Serif" font-size="9.00">::gp_ht_map&lt; Key, Hash</text>
<text text-anchor="start" x="212" y="-17.3" font-family="Helvetica,sans-Serif" font-size="9.00">_Fn, _Alloc, Comb_Probe</text>
<text text-anchor="middle" x="273" y="-7.3" font-family="Helvetica,sans-Serif" font-size="9.00">_Fn, Probe_Fn, Store_Hash &gt;</text>
</a>
</g>
</g>
<!-- Node1&#45;&gt;Node2 -->
<g id="edge1" class="edge"><title>Node1&#45;&gt;Node2</title>
<path fill="none" stroke="midnightblue" d="M178.27,-24.5C186.942,-24.5 195.616,-24.5 203.994,-24.5"/>
<polygon fill="midnightblue" stroke="midnightblue" points="178.11,-21.0001 168.11,-24.5 178.11,-28.0001 178.11,-21.0001"/>
</g>
</g>
</svg>
