<?xml version="1.0" encoding="UTF-8" standalone="no"?>
<!DOCTYPE svg PUBLIC "-//W3C//DTD SVG 1.1//EN"
 "http://www.w3.org/Graphics/SVG/1.1/DTD/svg11.dtd">
<!-- Generated by graphviz version 2.38.0 (20140413.2041)
 -->
<!-- Title: __gnu_pbds::detail::pat_trie_base::_Node_iter&lt; Node, Leaf, Head, Inode, _CIterator, Iterator, _Alloc &gt; Pages: 1 -->
<svg width="288pt" height="67pt"
 viewBox="0.00 0.00 288.00 67.00" xmlns="http://www.w3.org/2000/svg" xmlns:xlink="http://www.w3.org/1999/xlink">
<g id="graph0" class="graph" transform="scale(1 1) rotate(0) translate(4 63)">
<title>__gnu_pbds::detail::pat_trie_base::_Node_iter&lt; Node, Leaf, Head, Inode, _CIterator, Iterator, _Alloc &gt;</title>
<polygon fill="white" stroke="none" points="-4,4 -4,-63 284,-63 284,4 -4,4"/>
<!-- Node1 -->
<g id="node1" class="node"><title>Node1</title>
<polygon fill="#bfbfbf" stroke="black" points="158,-0.5 158,-58.5 280,-58.5 280,-0.5 158,-0.5"/>
<text text-anchor="start" x="166" y="-47.3" font-family="Helvetica,sans-Serif" font-size="9.00">__gnu_pbds::detail</text>
<text text-anchor="start" x="166" y="-37.3" font-family="Helvetica,sans-Serif" font-size="9.00">::pat_trie_base::_Node</text>
<text text-anchor="start" x="166" y="-27.3" font-family="Helvetica,sans-Serif" font-size="9.00">_iter&lt; Node, Leaf, Head,</text>
<text text-anchor="start" x="166" y="-17.3" font-family="Helvetica,sans-Serif" font-size="9.00"> Inode, _CIterator, Iterator,</text>
<text text-anchor="middle" x="219" y="-7.3" font-family="Helvetica,sans-Serif" font-size="9.00"> _Alloc &gt;</text>
</g>
<!-- Node2 -->
<g id="node2" class="node"><title>Node2</title>
<g id="a_node2"><a xlink:href="a00280.html" target="_top" xlink:title="Node const iterator. ">
<polygon fill="white" stroke="black" points="0,-0.5 0,-58.5 122,-58.5 122,-0.5 0,-0.5"/>
<text text-anchor="start" x="8" y="-47.3" font-family="Helvetica,sans-Serif" font-size="9.00">__gnu_pbds::detail</text>
<text text-anchor="start" x="8" y="-37.3" font-family="Helvetica,sans-Serif" font-size="9.00">::pat_trie_base::_Node</text>
<text text-anchor="start" x="8" y="-27.3" font-family="Helvetica,sans-Serif" font-size="9.00">_citer&lt; Node, Leaf, Head,</text>
<text text-anchor="start" x="8" y="-17.3" font-family="Helvetica,sans-Serif" font-size="9.00"> Inode, _CIterator, Iterator,</text>
<text text-anchor="middle" x="61" y="-7.3" font-family="Helvetica,sans-Serif" font-size="9.00"> _Alloc &gt;</text>
</a>
</g>
</g>
<!-- Node2&#45;&gt;Node1 -->
<g id="edge1" class="edge"><title>Node2&#45;&gt;Node1</title>
<path fill="none" stroke="midnightblue" d="M132.538,-29.5C140.99,-29.5 149.56,-29.5 157.847,-29.5"/>
<polygon fill="midnightblue" stroke="midnightblue" points="132.314,-26.0001 122.314,-29.5 132.314,-33.0001 132.314,-26.0001"/>
</g>
</g>
</svg>
