<?xml version="1.0" encoding="UTF-8" standalone="no"?>
<!DOCTYPE svg PUBLIC "-//W3C//DTD SVG 1.1//EN"
 "http://www.w3.org/Graphics/SVG/1.1/DTD/svg11.dtd">
<!-- Generated by graphviz version 2.38.0 (20140413.2041)
 -->
<!-- Title: __gnu_profile::__trace_container_size Pages: 1 -->
<svg width="418pt" height="84pt"
 viewBox="0.00 0.00 418.00 84.00" xmlns="http://www.w3.org/2000/svg" xmlns:xlink="http://www.w3.org/1999/xlink">
<g id="graph0" class="graph" transform="scale(1 1) rotate(0) translate(4 80)">
<title>__gnu_profile::__trace_container_size</title>
<polygon fill="white" stroke="none" points="-4,4 -4,-80 414,-80 414,4 -4,4"/>
<!-- Node1 -->
<g id="node1" class="node"><title>Node1</title>
<polygon fill="#bfbfbf" stroke="black" points="156,-23.5 156,-51.5 265,-51.5 265,-23.5 156,-23.5"/>
<text text-anchor="start" x="164" y="-40.3" font-family="Helvetica,sans-Serif" font-size="9.00">__gnu_profile::__trace</text>
<text text-anchor="middle" x="210.5" y="-30.3" font-family="Helvetica,sans-Serif" font-size="9.00">_container_size</text>
</g>
<!-- Node3 -->
<g id="node3" class="node"><title>Node3</title>
<g id="a_node3"><a xlink:href="a00397.html" target="_top" xlink:title="Hashtable size instrumentation trace producer. ">
<polygon fill="white" stroke="black" points="301,-47.5 301,-75.5 410,-75.5 410,-47.5 301,-47.5"/>
<text text-anchor="start" x="309" y="-64.3" font-family="Helvetica,sans-Serif" font-size="9.00">__gnu_profile::__trace</text>
<text text-anchor="middle" x="355.5" y="-54.3" font-family="Helvetica,sans-Serif" font-size="9.00">_hashtable_size</text>
</a>
</g>
</g>
<!-- Node1&#45;&gt;Node3 -->
<g id="edge2" class="edge"><title>Node1&#45;&gt;Node3</title>
<path fill="none" stroke="midnightblue" d="M275.046,-48.1651C283.557,-49.5935 292.22,-51.0474 300.545,-52.4445"/>
<polygon fill="midnightblue" stroke="midnightblue" points="275.596,-44.7085 265.155,-46.505 274.438,-51.612 275.596,-44.7085"/>
</g>
<!-- Node4 -->
<g id="node4" class="node"><title>Node4</title>
<g id="a_node4"><a xlink:href="a00399.html" target="_top" xlink:title="Hashtable size instrumentation trace producer. ">
<polygon fill="white" stroke="black" points="301,-0.5 301,-28.5 410,-28.5 410,-0.5 301,-0.5"/>
<text text-anchor="start" x="309" y="-17.3" font-family="Helvetica,sans-Serif" font-size="9.00">__gnu_profile::__trace</text>
<text text-anchor="middle" x="355.5" y="-7.3" font-family="Helvetica,sans-Serif" font-size="9.00">_vector_size</text>
</a>
</g>
</g>
<!-- Node1&#45;&gt;Node4 -->
<g id="edge3" class="edge"><title>Node1&#45;&gt;Node4</title>
<path fill="none" stroke="midnightblue" d="M275.046,-27.2793C283.557,-25.9104 292.22,-24.5171 300.545,-23.1782"/>
<polygon fill="midnightblue" stroke="midnightblue" points="274.472,-23.8266 265.155,-28.8702 275.584,-30.7377 274.472,-23.8266"/>
</g>
<!-- Node2 -->
<g id="node2" class="node"><title>Node2</title>
<g id="a_node2"><a xlink:href="a00394.html" target="_top" xlink:title="__gnu_profile::__trace\l_base\&lt; __container_size\l_info, __container_size\l_stack_info \&gt;">
<polygon fill="white" stroke="black" points="0,-13.5 0,-61.5 120,-61.5 120,-13.5 0,-13.5"/>
<text text-anchor="start" x="8" y="-50.3" font-family="Helvetica,sans-Serif" font-size="9.00">__gnu_profile::__trace</text>
<text text-anchor="start" x="8" y="-40.3" font-family="Helvetica,sans-Serif" font-size="9.00">_base&lt; __container_size</text>
<text text-anchor="start" x="8" y="-30.3" font-family="Helvetica,sans-Serif" font-size="9.00">_info, __container_size</text>
<text text-anchor="middle" x="60" y="-20.3" font-family="Helvetica,sans-Serif" font-size="9.00">_stack_info &gt;</text>
</a>
</g>
</g>
<!-- Node2&#45;&gt;Node1 -->
<g id="edge1" class="edge"><title>Node2&#45;&gt;Node1</title>
<path fill="none" stroke="midnightblue" d="M130.18,-37.5C138.811,-37.5 147.534,-37.5 155.88,-37.5"/>
<polygon fill="midnightblue" stroke="midnightblue" points="130.118,-34.0001 120.118,-37.5 130.118,-41.0001 130.118,-34.0001"/>
</g>
</g>
</svg>
