<?xml version="1.0" encoding="UTF-8" standalone="no"?>
<!DOCTYPE svg PUBLIC "-//W3C//DTD SVG 1.1//EN"
 "http://www.w3.org/Graphics/SVG/1.1/DTD/svg11.dtd">
<!-- Generated by graphviz version 2.38.0 (20140413.2041)
 -->
<!-- Title: __gnu_profile::__vector2list_info Pages: 1 -->
<svg width="158pt" height="157pt"
 viewBox="0.00 0.00 158.00 157.00" xmlns="http://www.w3.org/2000/svg" xmlns:xlink="http://www.w3.org/1999/xlink">
<g id="graph0" class="graph" transform="scale(1 1) rotate(0) translate(4 153)">
<title>__gnu_profile::__vector2list_info</title>
<polygon fill="white" stroke="none" points="-4,4 -4,-153 154,-153 154,4 -4,4"/>
<!-- Node1 -->
<g id="node1" class="node"><title>Node1</title>
<polygon fill="#bfbfbf" stroke="black" points="0,-65.5 0,-83.5 150,-83.5 150,-65.5 0,-65.5"/>
<text text-anchor="middle" x="75" y="-72.3" font-family="Helvetica,sans-Serif" font-size="9.00">__gnu_profile::__vector2list_info</text>
</g>
<!-- Node3 -->
<g id="node3" class="node"><title>Node3</title>
<g id="a_node3"><a xlink:href="a00402.html" target="_top" xlink:title="A vector&#45;to&#45;list instrumentation line in the stack table. ">
<polygon fill="white" stroke="black" points="10,-0.5 10,-28.5 140,-28.5 140,-0.5 10,-0.5"/>
<text text-anchor="start" x="18" y="-17.3" font-family="Helvetica,sans-Serif" font-size="9.00">__gnu_profile::__vector2list</text>
<text text-anchor="middle" x="75" y="-7.3" font-family="Helvetica,sans-Serif" font-size="9.00">_stack_info</text>
</a>
</g>
</g>
<!-- Node1&#45;&gt;Node3 -->
<g id="edge2" class="edge"><title>Node1&#45;&gt;Node3</title>
<path fill="none" stroke="midnightblue" d="M75,-55.3209C75,-46.747 75,-36.6999 75,-28.8428"/>
<polygon fill="midnightblue" stroke="midnightblue" points="71.5001,-55.4353 75,-65.4353 78.5001,-55.4354 71.5001,-55.4353"/>
</g>
<!-- Node2 -->
<g id="node2" class="node"><title>Node2</title>
<g id="a_node2"><a xlink:href="a00391.html" target="_top" xlink:title="Base class for a line in the object table. ">
<polygon fill="white" stroke="black" points="18.5,-120.5 18.5,-148.5 131.5,-148.5 131.5,-120.5 18.5,-120.5"/>
<text text-anchor="start" x="26.5" y="-137.3" font-family="Helvetica,sans-Serif" font-size="9.00">__gnu_profile::__object</text>
<text text-anchor="middle" x="75" y="-127.3" font-family="Helvetica,sans-Serif" font-size="9.00">_info_base</text>
</a>
</g>
</g>
<!-- Node2&#45;&gt;Node1 -->
<g id="edge1" class="edge"><title>Node2&#45;&gt;Node1</title>
<path fill="none" stroke="midnightblue" d="M75,-110.323C75,-100.936 75,-90.7002 75,-83.7715"/>
<polygon fill="midnightblue" stroke="midnightblue" points="71.5001,-110.339 75,-120.339 78.5001,-110.339 71.5001,-110.339"/>
</g>
</g>
</svg>
