<?xml version="1.0" encoding="UTF-8" standalone="no"?>
<!DOCTYPE svg PUBLIC "-//W3C//DTD SVG 1.1//EN"
 "http://www.w3.org/Graphics/SVG/1.1/DTD/svg11.dtd">
<!-- Generated by graphviz version 2.38.0 (20140413.2041)
 -->
<!-- Title: __gnu_pbds::detail::pat_trie_map&lt; Key, Mapped, Node_And_It_Traits, _Alloc &gt; Pages: 1 -->
<svg width="414pt" height="94pt"
 viewBox="0.00 0.00 414.00 94.00" xmlns="http://www.w3.org/2000/svg" xmlns:xlink="http://www.w3.org/1999/xlink">
<g id="graph0" class="graph" transform="scale(1 1) rotate(0) translate(4 90)">
<title>__gnu_pbds::detail::pat_trie_map&lt; Key, Mapped, Node_And_It_Traits, _Alloc &gt;</title>
<polygon fill="white" stroke="none" points="-4,4 -4,-90 410,-90 410,4 -4,4"/>
<!-- Node1 -->
<g id="node1" class="node"><title>Node1</title>
<polygon fill="#bfbfbf" stroke="black" points="295,-16.5 295,-64.5 406,-64.5 406,-16.5 295,-16.5"/>
<text text-anchor="start" x="303" y="-53.3" font-family="Helvetica,sans-Serif" font-size="9.00">__gnu_pbds::detail</text>
<text text-anchor="start" x="303" y="-43.3" font-family="Helvetica,sans-Serif" font-size="9.00">::pat_trie_map&lt; Key,</text>
<text text-anchor="start" x="303" y="-33.3" font-family="Helvetica,sans-Serif" font-size="9.00"> Mapped, Node_And_It</text>
<text text-anchor="middle" x="350.5" y="-23.3" font-family="Helvetica,sans-Serif" font-size="9.00">_Traits, _Alloc &gt;</text>
</g>
<!-- Node2 -->
<g id="node2" class="node"><title>Node2</title>
<g id="a_node2"><a xlink:href="a00331.html" target="_top" xlink:title="__gnu_pbds::detail\l::types_traits\&lt; Key,\l Mapped, _Alloc, false \&gt;">
<polygon fill="white" stroke="black" points="145,-47.5 145,-85.5 259,-85.5 259,-47.5 145,-47.5"/>
<text text-anchor="start" x="153" y="-74.3" font-family="Helvetica,sans-Serif" font-size="9.00">__gnu_pbds::detail</text>
<text text-anchor="start" x="153" y="-64.3" font-family="Helvetica,sans-Serif" font-size="9.00">::types_traits&lt; Key,</text>
<text text-anchor="middle" x="202" y="-54.3" font-family="Helvetica,sans-Serif" font-size="9.00"> Mapped, _Alloc, false &gt;</text>
</a>
</g>
</g>
<!-- Node2&#45;&gt;Node1 -->
<g id="edge1" class="edge"><title>Node2&#45;&gt;Node1</title>
<path fill="none" stroke="midnightblue" d="M269.141,-54.7616C277.666,-53.2487 286.32,-51.7128 294.636,-50.2369"/>
<polygon fill="midnightblue" stroke="midnightblue" points="268.456,-51.3284 259.222,-56.5221 269.68,-58.2207 268.456,-51.3284"/>
</g>
<!-- Node3 -->
<g id="node3" class="node"><title>Node3</title>
<g id="a_node3"><a xlink:href="a00325.html" target="_top" xlink:title="Primary template. ">
<polygon fill="white" stroke="black" points="0,-47.5 0,-85.5 109,-85.5 109,-47.5 0,-47.5"/>
<text text-anchor="start" x="8" y="-74.3" font-family="Helvetica,sans-Serif" font-size="9.00">type_dispatch&lt; Key,</text>
<text text-anchor="start" x="8" y="-64.3" font-family="Helvetica,sans-Serif" font-size="9.00"> Mapped, _Alloc, Store</text>
<text text-anchor="middle" x="54.5" y="-54.3" font-family="Helvetica,sans-Serif" font-size="9.00">_Hash &gt;::type</text>
</a>
</g>
</g>
<!-- Node3&#45;&gt;Node2 -->
<g id="edge2" class="edge"><title>Node3&#45;&gt;Node2</title>
<path fill="none" stroke="midnightblue" d="M119.374,-66.5C127.751,-66.5 136.287,-66.5 144.53,-66.5"/>
<polygon fill="midnightblue" stroke="midnightblue" points="119.265,-63.0001 109.265,-66.5 119.265,-70.0001 119.265,-63.0001"/>
</g>
<!-- Node4 -->
<g id="node4" class="node"><title>Node4</title>
<g id="a_node4"><a xlink:href="a00269.html" target="_top" xlink:title="Base type for PATRICIA trees. ">
<polygon fill="white" stroke="black" points="154.5,-0.5 154.5,-28.5 249.5,-28.5 249.5,-0.5 154.5,-0.5"/>
<text text-anchor="start" x="162.5" y="-17.3" font-family="Helvetica,sans-Serif" font-size="9.00">__gnu_pbds::detail</text>
<text text-anchor="middle" x="202" y="-7.3" font-family="Helvetica,sans-Serif" font-size="9.00">::pat_trie_base</text>
</a>
</g>
</g>
<!-- Node4&#45;&gt;Node1 -->
<g id="edge3" class="edge"><title>Node4&#45;&gt;Node1</title>
<path fill="none" stroke="midnightblue" d="M259.699,-24.5626C271.216,-26.6066 283.31,-28.7529 294.758,-30.7846"/>
<polygon fill="midnightblue" stroke="midnightblue" points="260.214,-21.0994 249.756,-22.798 258.991,-27.9917 260.214,-21.0994"/>
</g>
</g>
</svg>
