<?xml version="1.0" encoding="UTF-8" standalone="no"?>
<!DOCTYPE svg PUBLIC "-//W3C//DTD SVG 1.1//EN"
 "http://www.w3.org/Graphics/SVG/1.1/DTD/svg11.dtd">
<!-- Generated by graphviz version 2.38.0 (20140413.2041)
 -->
<!-- Title: __gnu_profile::__map2umap_stack_info Pages: 1 -->
<svg width="163pt" height="157pt"
 viewBox="0.00 0.00 163.00 157.00" xmlns="http://www.w3.org/2000/svg" xmlns:xlink="http://www.w3.org/1999/xlink">
<g id="graph0" class="graph" transform="scale(1 1) rotate(0) translate(4 153)">
<title>__gnu_profile::__map2umap_stack_info</title>
<polygon fill="white" stroke="none" points="-4,4 -4,-153 159,-153 159,4 -4,4"/>
<!-- Node1 -->
<g id="node1" class="node"><title>Node1</title>
<polygon fill="#bfbfbf" stroke="black" points="10,-0.5 10,-28.5 145,-28.5 145,-0.5 10,-0.5"/>
<text text-anchor="start" x="18" y="-17.3" font-family="Helvetica,sans-Serif" font-size="9.00">__gnu_profile::__map2umap</text>
<text text-anchor="middle" x="77.5" y="-7.3" font-family="Helvetica,sans-Serif" font-size="9.00">_stack_info</text>
</g>
<!-- Node2 -->
<g id="node2" class="node"><title>Node2</title>
<g id="a_node2"><a xlink:href="a00389.html" target="_top" xlink:title="A map&#45;to&#45;unordered_map instrumentation line in the object table. ">
<polygon fill="white" stroke="black" points="0,-65.5 0,-83.5 155,-83.5 155,-65.5 0,-65.5"/>
<text text-anchor="middle" x="77.5" y="-72.3" font-family="Helvetica,sans-Serif" font-size="9.00">__gnu_profile::__map2umap_info</text>
</a>
</g>
</g>
<!-- Node2&#45;&gt;Node1 -->
<g id="edge1" class="edge"><title>Node2&#45;&gt;Node1</title>
<path fill="none" stroke="midnightblue" d="M77.5,-55.3209C77.5,-46.747 77.5,-36.6999 77.5,-28.8428"/>
<polygon fill="midnightblue" stroke="midnightblue" points="74.0001,-55.4353 77.5,-65.4353 81.0001,-55.4354 74.0001,-55.4353"/>
</g>
<!-- Node3 -->
<g id="node3" class="node"><title>Node3</title>
<g id="a_node3"><a xlink:href="a00391.html" target="_top" xlink:title="Base class for a line in the object table. ">
<polygon fill="white" stroke="black" points="21,-120.5 21,-148.5 134,-148.5 134,-120.5 21,-120.5"/>
<text text-anchor="start" x="29" y="-137.3" font-family="Helvetica,sans-Serif" font-size="9.00">__gnu_profile::__object</text>
<text text-anchor="middle" x="77.5" y="-127.3" font-family="Helvetica,sans-Serif" font-size="9.00">_info_base</text>
</a>
</g>
</g>
<!-- Node3&#45;&gt;Node2 -->
<g id="edge2" class="edge"><title>Node3&#45;&gt;Node2</title>
<path fill="none" stroke="midnightblue" d="M77.5,-110.323C77.5,-100.936 77.5,-90.7002 77.5,-83.7715"/>
<polygon fill="midnightblue" stroke="midnightblue" points="74.0001,-110.339 77.5,-120.339 81.0001,-110.339 74.0001,-110.339"/>
</g>
</g>
</svg>
