<?xml version="1.0" encoding="UTF-8" standalone="no"?>
<!DOCTYPE svg PUBLIC "-//W3C//DTD SVG 1.1//EN"
 "http://www.w3.org/Graphics/SVG/1.1/DTD/svg11.dtd">
<!-- Generated by graphviz version 2.38.0 (20140413.2041)
 -->
<!-- Title: __gnu_pbds::detail::stored_value&lt; _Tv &gt; Pages: 1 -->
<svg width="248pt" height="94pt"
 viewBox="0.00 0.00 248.00 94.00" xmlns="http://www.w3.org/2000/svg" xmlns:xlink="http://www.w3.org/1999/xlink">
<g id="graph0" class="graph" transform="scale(1 1) rotate(0) translate(4 90)">
<title>__gnu_pbds::detail::stored_value&lt; _Tv &gt;</title>
<polygon fill="white" stroke="none" points="-4,4 -4,-90 244,-90 244,4 -4,4"/>
<!-- Node1 -->
<g id="node1" class="node"><title>Node1</title>
<polygon fill="#bfbfbf" stroke="black" points="0,-31.5 0,-59.5 104,-59.5 104,-31.5 0,-31.5"/>
<text text-anchor="start" x="8" y="-48.3" font-family="Helvetica,sans-Serif" font-size="9.00">__gnu_pbds::detail</text>
<text text-anchor="middle" x="52" y="-38.3" font-family="Helvetica,sans-Serif" font-size="9.00">::stored_value&lt; _Tv &gt;</text>
</g>
<!-- Node2 -->
<g id="node2" class="node"><title>Node2</title>
<g id="a_node2"><a xlink:href="a00300.html" target="_top" xlink:title="Primary template for representation of stored data. Two types of data can be stored: value and hash...">
<polygon fill="white" stroke="black" points="140,-57.5 140,-85.5 240,-85.5 240,-57.5 140,-57.5"/>
<text text-anchor="start" x="148" y="-74.3" font-family="Helvetica,sans-Serif" font-size="9.00">__gnu_pbds::detail</text>
<text text-anchor="middle" x="190" y="-64.3" font-family="Helvetica,sans-Serif" font-size="9.00">::stored_data&lt; _Tv &gt;</text>
</a>
</g>
</g>
<!-- Node1&#45;&gt;Node2 -->
<g id="edge1" class="edge"><title>Node1&#45;&gt;Node2</title>
<path fill="none" stroke="midnightblue" d="M114.087,-57.1783C122.743,-58.8332 131.55,-60.517 139.94,-62.1209"/>
<polygon fill="midnightblue" stroke="midnightblue" points="114.508,-53.6955 104.028,-55.2554 113.193,-60.571 114.508,-53.6955"/>
</g>
<!-- Node3 -->
<g id="node3" class="node"><title>Node3</title>
<g id="a_node3"><a xlink:href="a00301.html" target="_top" xlink:title="Specialization for representation of stored data of just value type. ">
<polygon fill="white" stroke="black" points="142.5,-0.5 142.5,-38.5 237.5,-38.5 237.5,-0.5 142.5,-0.5"/>
<text text-anchor="start" x="150.5" y="-27.3" font-family="Helvetica,sans-Serif" font-size="9.00">__gnu_pbds::detail</text>
<text text-anchor="start" x="150.5" y="-17.3" font-family="Helvetica,sans-Serif" font-size="9.00">::stored_data&lt; _Tv,</text>
<text text-anchor="middle" x="190" y="-7.3" font-family="Helvetica,sans-Serif" font-size="9.00"> null_type &gt;</text>
</a>
</g>
</g>
<!-- Node1&#45;&gt;Node3 -->
<g id="edge2" class="edge"><title>Node1&#45;&gt;Node3</title>
<path fill="none" stroke="midnightblue" d="M114.137,-33.812C123.55,-32.0126 133.139,-30.1793 142.174,-28.452"/>
<polygon fill="midnightblue" stroke="midnightblue" points="113.193,-30.429 104.028,-35.7446 114.508,-37.3045 113.193,-30.429"/>
</g>
</g>
</svg>
