<?xml version="1.0" encoding="UTF-8" standalone="no"?>
<!DOCTYPE svg PUBLIC "-//W3C//DTD SVG 1.1//EN"
 "http://www.w3.org/Graphics/SVG/1.1/DTD/svg11.dtd">
<!-- Generated by graphviz version 2.38.0 (20140413.2041)
 -->
<!-- Title: __gnu_pbds::detail::ranged_hash_fn&lt; Key, Hash_Fn, _Alloc, Comb_Hash_Fn, Store_Hash &gt; Pages: 1 -->
<svg width="128pt" height="142pt"
 viewBox="0.00 0.00 128.00 142.00" xmlns="http://www.w3.org/2000/svg" xmlns:xlink="http://www.w3.org/1999/xlink">
<g id="graph0" class="graph" transform="scale(1 1) rotate(0) translate(4 138)">
<title>__gnu_pbds::detail::ranged_hash_fn&lt; Key, Hash_Fn, _Alloc, Comb_Hash_Fn, Store_Hash &gt;</title>
<polygon fill="white" stroke="none" points="-4,4 -4,-138 124,-138 124,4 -4,4"/>
<!-- Node1 -->
<g id="node1" class="node"><title>Node1</title>
<polygon fill="#bfbfbf" stroke="black" points="0,-85.5 0,-133.5 120,-133.5 120,-85.5 0,-85.5"/>
<text text-anchor="start" x="8" y="-122.3" font-family="Helvetica,sans-Serif" font-size="9.00">__gnu_pbds::detail</text>
<text text-anchor="start" x="8" y="-112.3" font-family="Helvetica,sans-Serif" font-size="9.00">::ranged_hash_fn&lt; Key,</text>
<text text-anchor="start" x="8" y="-102.3" font-family="Helvetica,sans-Serif" font-size="9.00"> Hash_Fn, _Alloc, Comb</text>
<text text-anchor="middle" x="60" y="-92.3" font-family="Helvetica,sans-Serif" font-size="9.00">_Hash_Fn, Store_Hash &gt;</text>
</g>
<!-- Node2 -->
<g id="node2" class="node"><title>Node2</title>
<g id="a_node2"><a xlink:href="a00208.html" target="_top" xlink:title="__gnu_pbds::detail\l::cc_ht_map\&lt; Key, Hash\l_Fn, _Alloc, Comb_Hash\l_Fn, Store_Hash \&gt;">
<polygon fill="white" stroke="black" points="0.5,-0.5 0.5,-48.5 119.5,-48.5 119.5,-0.5 0.5,-0.5"/>
<text text-anchor="start" x="8.5" y="-37.3" font-family="Helvetica,sans-Serif" font-size="9.00">__gnu_pbds::detail</text>
<text text-anchor="start" x="8.5" y="-27.3" font-family="Helvetica,sans-Serif" font-size="9.00">::cc_ht_map&lt; Key, Hash</text>
<text text-anchor="start" x="8.5" y="-17.3" font-family="Helvetica,sans-Serif" font-size="9.00">_Fn, _Alloc, Comb_Hash</text>
<text text-anchor="middle" x="60" y="-7.3" font-family="Helvetica,sans-Serif" font-size="9.00">_Fn, Store_Hash &gt;</text>
</a>
</g>
</g>
<!-- Node1&#45;&gt;Node2 -->
<g id="edge1" class="edge"><title>Node1&#45;&gt;Node2</title>
<path fill="none" stroke="midnightblue" d="M60,-75.2987C60,-66.4164 60,-57.0052 60,-48.784"/>
<polygon fill="midnightblue" stroke="midnightblue" points="56.5001,-75.3798 60,-85.3799 63.5001,-75.3799 56.5001,-75.3798"/>
</g>
</g>
</svg>
