<?xml version="1.0" encoding="UTF-8" standalone="no"?>
<!DOCTYPE svg PUBLIC "-//W3C//DTD SVG 1.1//EN"
 "http://www.w3.org/Graphics/SVG/1.1/DTD/svg11.dtd">
<!-- Generated by graphviz version 2.38.0 (20140413.2041)
 -->
<!-- Title: __gnu_pbds::detail::stored_data&lt; _Tv, null_type &gt; Pages: 1 -->
<svg width="112pt" height="112pt"
 viewBox="0.00 0.00 112.00 112.00" xmlns="http://www.w3.org/2000/svg" xmlns:xlink="http://www.w3.org/1999/xlink">
<g id="graph0" class="graph" transform="scale(1 1) rotate(0) translate(4 108)">
<title>__gnu_pbds::detail::stored_data&lt; _Tv, null_type &gt;</title>
<polygon fill="white" stroke="none" points="-4,4 -4,-108 108,-108 108,4 -4,4"/>
<!-- Node1 -->
<g id="node1" class="node"><title>Node1</title>
<polygon fill="#bfbfbf" stroke="black" points="4.5,-0.5 4.5,-38.5 99.5,-38.5 99.5,-0.5 4.5,-0.5"/>
<text text-anchor="start" x="12.5" y="-27.3" font-family="Helvetica,sans-Serif" font-size="9.00">__gnu_pbds::detail</text>
<text text-anchor="start" x="12.5" y="-17.3" font-family="Helvetica,sans-Serif" font-size="9.00">::stored_data&lt; _Tv,</text>
<text text-anchor="middle" x="52" y="-7.3" font-family="Helvetica,sans-Serif" font-size="9.00"> null_type &gt;</text>
</g>
<!-- Node2 -->
<g id="node2" class="node"><title>Node2</title>
<g id="a_node2"><a xlink:href="a00303.html" target="_top" xlink:title="Stored value. ">
<polygon fill="white" stroke="black" points="0,-75.5 0,-103.5 104,-103.5 104,-75.5 0,-75.5"/>
<text text-anchor="start" x="8" y="-92.3" font-family="Helvetica,sans-Serif" font-size="9.00">__gnu_pbds::detail</text>
<text text-anchor="middle" x="52" y="-82.3" font-family="Helvetica,sans-Serif" font-size="9.00">::stored_value&lt; _Tv &gt;</text>
</a>
</g>
</g>
<!-- Node2&#45;&gt;Node1 -->
<g id="edge1" class="edge"><title>Node2&#45;&gt;Node1</title>
<path fill="none" stroke="midnightblue" d="M52,-65.172C52,-56.5199 52,-46.8416 52,-38.7116"/>
<polygon fill="midnightblue" stroke="midnightblue" points="48.5001,-65.3889 52,-75.3889 55.5001,-65.389 48.5001,-65.3889"/>
</g>
</g>
</svg>
