<?xml version="1.0" encoding="UTF-8" standalone="no"?>
<!DOCTYPE svg PUBLIC "-//W3C//DTD SVG 1.1//EN"
 "http://www.w3.org/Graphics/SVG/1.1/DTD/svg11.dtd">
<!-- Generated by graphviz version 2.38.0 (20140413.2041)
 -->
<!-- Title: __gnu_pbds::detail::trie_policy_base&lt; Node_CItr, Node_Itr, _ATraits, _Alloc &gt; Pages: 1 -->
<svg width="436pt" height="124pt"
 viewBox="0.00 0.00 436.00 124.00" xmlns="http://www.w3.org/2000/svg" xmlns:xlink="http://www.w3.org/1999/xlink">
<g id="graph0" class="graph" transform="scale(1 1) rotate(0) translate(4 120)">
<title>__gnu_pbds::detail::trie_policy_base&lt; Node_CItr, Node_Itr, _ATraits, _Alloc &gt;</title>
<polygon fill="white" stroke="none" points="-4,4 -4,-120 432,-120 432,4 -4,4"/>
<!-- Node1 -->
<g id="node1" class="node"><title>Node1</title>
<polygon fill="#bfbfbf" stroke="black" points="149,-33.5 149,-81.5 252,-81.5 252,-33.5 149,-33.5"/>
<text text-anchor="start" x="157" y="-70.3" font-family="Helvetica,sans-Serif" font-size="9.00">__gnu_pbds::detail</text>
<text text-anchor="start" x="157" y="-60.3" font-family="Helvetica,sans-Serif" font-size="9.00">::trie_policy_base&lt;</text>
<text text-anchor="start" x="157" y="-50.3" font-family="Helvetica,sans-Serif" font-size="9.00"> Node_CItr, Node_Itr,</text>
<text text-anchor="middle" x="200.5" y="-40.3" font-family="Helvetica,sans-Serif" font-size="9.00"> _ATraits, _Alloc &gt;</text>
</g>
<!-- Node3 -->
<g id="node3" class="node"><title>Node3</title>
<g id="a_node3"><a xlink:href="a00379.html" target="_top" xlink:title="Functor updating ranks of entrees. ">
<polygon fill="white" stroke="black" points="300,-67.5 300,-115.5 416,-115.5 416,-67.5 300,-67.5"/>
<text text-anchor="start" x="308" y="-104.3" font-family="Helvetica,sans-Serif" font-size="9.00">__gnu_pbds::trie_order</text>
<text text-anchor="start" x="308" y="-94.3" font-family="Helvetica,sans-Serif" font-size="9.00">_statistics_node_update</text>
<text text-anchor="start" x="308" y="-84.3" font-family="Helvetica,sans-Serif" font-size="9.00">&lt; Node_CItr, Node_Itr, </text>
<text text-anchor="middle" x="358" y="-74.3" font-family="Helvetica,sans-Serif" font-size="9.00">_ATraits, _Alloc &gt;</text>
</a>
</g>
</g>
<!-- Node1&#45;&gt;Node3 -->
<g id="edge2" class="edge"><title>Node1&#45;&gt;Node3</title>
<path fill="none" stroke="#8b1a1a" d="M262.55,-70.8486C274.811,-73.5293 287.653,-76.3372 299.777,-78.9883"/>
<polygon fill="#8b1a1a" stroke="#8b1a1a" points="262.933,-67.3498 252.417,-68.6329 261.438,-74.1882 262.933,-67.3498"/>
</g>
<!-- Node4 -->
<g id="node4" class="node"><title>Node4</title>
<g id="a_node4"><a xlink:href="a00380.html" target="_top" xlink:title="A node updator that allows tries to be searched for the range of values that match a certain prefix...">
<polygon fill="white" stroke="black" points="288,-0.5 288,-48.5 428,-48.5 428,-0.5 288,-0.5"/>
<text text-anchor="start" x="296" y="-37.3" font-family="Helvetica,sans-Serif" font-size="9.00">__gnu_pbds::trie_prefix</text>
<text text-anchor="start" x="296" y="-27.3" font-family="Helvetica,sans-Serif" font-size="9.00">_search_node_update&lt; Node</text>
<text text-anchor="start" x="296" y="-17.3" font-family="Helvetica,sans-Serif" font-size="9.00">_CItr, Node_Itr, _ATraits,</text>
<text text-anchor="middle" x="358" y="-7.3" font-family="Helvetica,sans-Serif" font-size="9.00"> _Alloc &gt;</text>
</a>
</g>
</g>
<!-- Node1&#45;&gt;Node4 -->
<g id="edge3" class="edge"><title>Node1&#45;&gt;Node4</title>
<path fill="none" stroke="#8b1a1a" d="M262.438,-44.5678C270.787,-42.7959 279.408,-40.9665 287.89,-39.1665"/>
<polygon fill="#8b1a1a" stroke="#8b1a1a" points="261.472,-41.1948 252.417,-46.6946 262.925,-48.0423 261.472,-41.1948"/>
</g>
<!-- Node2 -->
<g id="node2" class="node"><title>Node2</title>
<g id="a_node2"><a xlink:href="a00206.html" target="_top" xlink:title="Primary template, base class for branch structure policies. ">
<polygon fill="white" stroke="black" points="0,-38.5 0,-76.5 113,-76.5 113,-38.5 0,-38.5"/>
<text text-anchor="start" x="8" y="-65.3" font-family="Helvetica,sans-Serif" font-size="9.00">__gnu_pbds::detail</text>
<text text-anchor="start" x="8" y="-55.3" font-family="Helvetica,sans-Serif" font-size="9.00">::branch_policy&lt; Node</text>
<text text-anchor="middle" x="56.5" y="-45.3" font-family="Helvetica,sans-Serif" font-size="9.00">_CItr, Node_Itr, _Alloc &gt;</text>
</a>
</g>
</g>
<!-- Node2&#45;&gt;Node1 -->
<g id="edge1" class="edge"><title>Node2&#45;&gt;Node1</title>
<path fill="none" stroke="midnightblue" d="M123.434,-57.5C131.877,-57.5 140.417,-57.5 148.572,-57.5"/>
<polygon fill="midnightblue" stroke="midnightblue" points="123.215,-54.0001 113.215,-57.5 123.215,-61.0001 123.215,-54.0001"/>
</g>
</g>
</svg>
