<?xml version="1.0" encoding="UTF-8" standalone="no"?>
<!DOCTYPE svg PUBLIC "-//W3C//DTD SVG 1.1//EN"
 "http://www.w3.org/Graphics/SVG/1.1/DTD/svg11.dtd">
<!-- Generated by graphviz version 2.38.0 (20140413.2041)
 -->
<!-- Title: __gnu_pbds::detail::thin_heap&lt; Value_Type, Cmp_Fn, _Alloc &gt; Pages: 1 -->
<svg width="308pt" height="57pt"
 viewBox="0.00 0.00 308.00 57.00" xmlns="http://www.w3.org/2000/svg" xmlns:xlink="http://www.w3.org/1999/xlink">
<g id="graph0" class="graph" transform="scale(1 1) rotate(0) translate(4 53)">
<title>__gnu_pbds::detail::thin_heap&lt; Value_Type, Cmp_Fn, _Alloc &gt;</title>
<polygon fill="white" stroke="none" points="-4,4 -4,-53 304,-53 304,4 -4,4"/>
<!-- Node1 -->
<g id="node1" class="node"><title>Node1</title>
<polygon fill="#bfbfbf" stroke="black" points="178,-5.5 178,-43.5 300,-43.5 300,-5.5 178,-5.5"/>
<text text-anchor="start" x="186" y="-32.3" font-family="Helvetica,sans-Serif" font-size="9.00">__gnu_pbds::detail</text>
<text text-anchor="start" x="186" y="-22.3" font-family="Helvetica,sans-Serif" font-size="9.00">::thin_heap&lt; Value_Type,</text>
<text text-anchor="middle" x="239" y="-12.3" font-family="Helvetica,sans-Serif" font-size="9.00"> Cmp_Fn, _Alloc &gt;</text>
</g>
<!-- Node2 -->
<g id="node2" class="node"><title>Node2</title>
<g id="a_node2"><a xlink:href="a00253.html" target="_top" xlink:title="__gnu_pbds::detail\l::left_child_next_sibling\l_heap\&lt; Value_Type, Cmp_Fn,\l _Alloc::size_type, _Alloc \&gt;">
<polygon fill="white" stroke="black" points="0,-0.5 0,-48.5 142,-48.5 142,-0.5 0,-0.5"/>
<text text-anchor="start" x="8" y="-37.3" font-family="Helvetica,sans-Serif" font-size="9.00">__gnu_pbds::detail</text>
<text text-anchor="start" x="8" y="-27.3" font-family="Helvetica,sans-Serif" font-size="9.00">::left_child_next_sibling</text>
<text text-anchor="start" x="8" y="-17.3" font-family="Helvetica,sans-Serif" font-size="9.00">_heap&lt; Value_Type, Cmp_Fn,</text>
<text text-anchor="middle" x="71" y="-7.3" font-family="Helvetica,sans-Serif" font-size="9.00"> _Alloc::size_type, _Alloc &gt;</text>
</a>
</g>
</g>
<!-- Node2&#45;&gt;Node1 -->
<g id="edge1" class="edge"><title>Node2&#45;&gt;Node1</title>
<path fill="none" stroke="midnightblue" d="M152.451,-24.5C161.047,-24.5 169.679,-24.5 177.979,-24.5"/>
<polygon fill="midnightblue" stroke="midnightblue" points="152.399,-21.0001 142.399,-24.5 152.399,-28.0001 152.399,-21.0001"/>
</g>
</g>
</svg>
