<?xml version="1.0" encoding="UTF-8" standalone="no"?>
<!DOCTYPE svg PUBLIC "-//W3C//DTD SVG 1.1//EN"
 "http://www.w3.org/Graphics/SVG/1.1/DTD/svg11.dtd">
<!-- Generated by graphviz version 2.38.0 (20140413.2041)
 -->
<!-- Title: __gnu_pbds::detail::types_traits&lt; Key, Mapped, _Alloc, Store_Hash &gt; Pages: 1 -->
<svg width="429pt" height="104pt"
 viewBox="0.00 0.00 429.00 104.00" xmlns="http://www.w3.org/2000/svg" xmlns:xlink="http://www.w3.org/1999/xlink">
<g id="graph0" class="graph" transform="scale(1 1) rotate(0) translate(4 100)">
<title>__gnu_pbds::detail::types_traits&lt; Key, Mapped, _Alloc, Store_Hash &gt;</title>
<polygon fill="white" stroke="none" points="-4,4 -4,-100 425,-100 425,4 -4,4"/>
<!-- Node1 -->
<g id="node1" class="node"><title>Node1</title>
<polygon fill="#bfbfbf" stroke="black" points="145,-23.5 145,-71.5 254,-71.5 254,-23.5 145,-23.5"/>
<text text-anchor="start" x="153" y="-60.3" font-family="Helvetica,sans-Serif" font-size="9.00">__gnu_pbds::detail</text>
<text text-anchor="start" x="153" y="-50.3" font-family="Helvetica,sans-Serif" font-size="9.00">::types_traits&lt; Key,</text>
<text text-anchor="start" x="153" y="-40.3" font-family="Helvetica,sans-Serif" font-size="9.00"> Mapped, _Alloc, Store</text>
<text text-anchor="middle" x="199.5" y="-30.3" font-family="Helvetica,sans-Serif" font-size="9.00">_Hash &gt;</text>
</g>
<!-- Node3 -->
<g id="node3" class="node"><title>Node3</title>
<g id="a_node3"><a xlink:href="a00208.html" target="_top" xlink:title="__gnu_pbds::detail\l::cc_ht_map\&lt; Key, Mapped,\l _Alloc, Store_Hash \&gt;">
<polygon fill="white" stroke="black" points="290.5,-57.5 290.5,-95.5 420.5,-95.5 420.5,-57.5 290.5,-57.5"/>
<text text-anchor="start" x="298.5" y="-84.3" font-family="Helvetica,sans-Serif" font-size="9.00">__gnu_pbds::detail</text>
<text text-anchor="start" x="298.5" y="-74.3" font-family="Helvetica,sans-Serif" font-size="9.00">::cc_ht_map&lt; Key, Mapped,</text>
<text text-anchor="middle" x="355.5" y="-64.3" font-family="Helvetica,sans-Serif" font-size="9.00"> _Alloc, Store_Hash &gt;</text>
</a>
</g>
</g>
<!-- Node1&#45;&gt;Node3 -->
<g id="edge2" class="edge"><title>Node1&#45;&gt;Node3</title>
<path fill="none" stroke="midnightblue" d="M264.326,-59.5191C272.925,-61.1384 281.75,-62.8002 290.354,-64.4206"/>
<polygon fill="midnightblue" stroke="midnightblue" points="264.837,-56.0539 254.362,-57.6428 263.541,-62.933 264.837,-56.0539"/>
</g>
<!-- Node4 -->
<g id="node4" class="node"><title>Node4</title>
<g id="a_node4"><a xlink:href="a00247.html" target="_top" xlink:title="__gnu_pbds::detail\l::gp_ht_map\&lt; Key, Mapped,\l _Alloc, Store_Hash \&gt;">
<polygon fill="white" stroke="black" points="290,-0.5 290,-38.5 421,-38.5 421,-0.5 290,-0.5"/>
<text text-anchor="start" x="298" y="-27.3" font-family="Helvetica,sans-Serif" font-size="9.00">__gnu_pbds::detail</text>
<text text-anchor="start" x="298" y="-17.3" font-family="Helvetica,sans-Serif" font-size="9.00">::gp_ht_map&lt; Key, Mapped,</text>
<text text-anchor="middle" x="355.5" y="-7.3" font-family="Helvetica,sans-Serif" font-size="9.00"> _Alloc, Store_Hash &gt;</text>
</a>
</g>
</g>
<!-- Node1&#45;&gt;Node4 -->
<g id="edge3" class="edge"><title>Node1&#45;&gt;Node4</title>
<path fill="none" stroke="midnightblue" d="M264.451,-35.8725C272.832,-34.3487 281.425,-32.7864 289.818,-31.2604"/>
<polygon fill="midnightblue" stroke="midnightblue" points="263.574,-32.4745 254.362,-37.707 264.827,-39.3616 263.574,-32.4745"/>
</g>
<!-- Node2 -->
<g id="node2" class="node"><title>Node2</title>
<g id="a_node2"><a xlink:href="a00325.html" target="_top" xlink:title="Primary template. ">
<polygon fill="white" stroke="black" points="0,-28.5 0,-66.5 109,-66.5 109,-28.5 0,-28.5"/>
<text text-anchor="start" x="8" y="-55.3" font-family="Helvetica,sans-Serif" font-size="9.00">type_dispatch&lt; Key,</text>
<text text-anchor="start" x="8" y="-45.3" font-family="Helvetica,sans-Serif" font-size="9.00"> Mapped, _Alloc, Store</text>
<text text-anchor="middle" x="54.5" y="-35.3" font-family="Helvetica,sans-Serif" font-size="9.00">_Hash &gt;::type</text>
</a>
</g>
</g>
<!-- Node2&#45;&gt;Node1 -->
<g id="edge1" class="edge"><title>Node2&#45;&gt;Node1</title>
<path fill="none" stroke="midnightblue" d="M119.324,-47.5C127.745,-47.5 136.31,-47.5 144.545,-47.5"/>
<polygon fill="midnightblue" stroke="midnightblue" points="119.155,-44.0001 109.155,-47.5 119.155,-51.0001 119.155,-44.0001"/>
</g>
</g>
</svg>
