<?xml version="1.0" encoding="UTF-8" standalone="no"?>
<!DOCTYPE svg PUBLIC "-//W3C//DTD SVG 1.1//EN"
 "http://www.w3.org/Graphics/SVG/1.1/DTD/svg11.dtd">
<!-- Generated by graphviz version 2.38.0 (20140413.2041)
 -->
<!-- Title: __gnu_profile::__trace_hashtable_size Pages: 1 -->
<svg width="418pt" height="57pt"
 viewBox="0.00 0.00 418.00 57.00" xmlns="http://www.w3.org/2000/svg" xmlns:xlink="http://www.w3.org/1999/xlink">
<g id="graph0" class="graph" transform="scale(1 1) rotate(0) translate(4 53)">
<title>__gnu_profile::__trace_hashtable_size</title>
<polygon fill="white" stroke="none" points="-4,4 -4,-53 414,-53 414,4 -4,4"/>
<!-- Node1 -->
<g id="node1" class="node"><title>Node1</title>
<polygon fill="#bfbfbf" stroke="black" points="301,-10.5 301,-38.5 410,-38.5 410,-10.5 301,-10.5"/>
<text text-anchor="start" x="309" y="-27.3" font-family="Helvetica,sans-Serif" font-size="9.00">__gnu_profile::__trace</text>
<text text-anchor="middle" x="355.5" y="-17.3" font-family="Helvetica,sans-Serif" font-size="9.00">_hashtable_size</text>
</g>
<!-- Node2 -->
<g id="node2" class="node"><title>Node2</title>
<g id="a_node2"><a xlink:href="a00395.html" target="_top" xlink:title="Container size instrumentation trace producer. ">
<polygon fill="white" stroke="black" points="156,-10.5 156,-38.5 265,-38.5 265,-10.5 156,-10.5"/>
<text text-anchor="start" x="164" y="-27.3" font-family="Helvetica,sans-Serif" font-size="9.00">__gnu_profile::__trace</text>
<text text-anchor="middle" x="210.5" y="-17.3" font-family="Helvetica,sans-Serif" font-size="9.00">_container_size</text>
</a>
</g>
</g>
<!-- Node2&#45;&gt;Node1 -->
<g id="edge1" class="edge"><title>Node2&#45;&gt;Node1</title>
<path fill="none" stroke="midnightblue" d="M275.324,-24.5C283.745,-24.5 292.31,-24.5 300.545,-24.5"/>
<polygon fill="midnightblue" stroke="midnightblue" points="275.155,-21.0001 265.155,-24.5 275.155,-28.0001 275.155,-21.0001"/>
</g>
<!-- Node3 -->
<g id="node3" class="node"><title>Node3</title>
<g id="a_node3"><a xlink:href="a00394.html" target="_top" xlink:title="__gnu_profile::__trace\l_base\&lt; __container_size\l_info, __container_size\l_stack_info \&gt;">
<polygon fill="white" stroke="black" points="0,-0.5 0,-48.5 120,-48.5 120,-0.5 0,-0.5"/>
<text text-anchor="start" x="8" y="-37.3" font-family="Helvetica,sans-Serif" font-size="9.00">__gnu_profile::__trace</text>
<text text-anchor="start" x="8" y="-27.3" font-family="Helvetica,sans-Serif" font-size="9.00">_base&lt; __container_size</text>
<text text-anchor="start" x="8" y="-17.3" font-family="Helvetica,sans-Serif" font-size="9.00">_info, __container_size</text>
<text text-anchor="middle" x="60" y="-7.3" font-family="Helvetica,sans-Serif" font-size="9.00">_stack_info &gt;</text>
</a>
</g>
</g>
<!-- Node3&#45;&gt;Node2 -->
<g id="edge2" class="edge"><title>Node3&#45;&gt;Node2</title>
<path fill="none" stroke="midnightblue" d="M130.18,-24.5C138.811,-24.5 147.534,-24.5 155.88,-24.5"/>
<polygon fill="midnightblue" stroke="midnightblue" points="130.118,-21.0001 120.118,-24.5 130.118,-28.0001 130.118,-21.0001"/>
</g>
</g>
</svg>
