<?xml version="1.0" encoding="UTF-8" standalone="no"?>
<!DOCTYPE svg PUBLIC "-//W3C//DTD SVG 1.1//EN"
 "http://www.w3.org/Graphics/SVG/1.1/DTD/svg11.dtd">
<!-- Generated by graphviz version 2.38.0 (20140413.2041)
 -->
<!-- Title: __gnu_pbds::detail::stored_data&lt; _Tv, _Th &gt; Pages: 1 -->
<svg width="234pt" height="102pt"
 viewBox="0.00 0.00 233.50 102.00" xmlns="http://www.w3.org/2000/svg" xmlns:xlink="http://www.w3.org/1999/xlink">
<g id="graph0" class="graph" transform="scale(1 1) rotate(0) translate(4 98)">
<title>__gnu_pbds::detail::stored_data&lt; _Tv, _Th &gt;</title>
<polygon fill="white" stroke="none" points="-4,4 -4,-98 229.5,-98 229.5,4 -4,4"/>
<!-- Node1 -->
<g id="node1" class="node"><title>Node1</title>
<polygon fill="#bfbfbf" stroke="black" points="53,-0.5 53,-28.5 173,-28.5 173,-0.5 53,-0.5"/>
<text text-anchor="start" x="61" y="-17.3" font-family="Helvetica,sans-Serif" font-size="9.00">__gnu_pbds::detail</text>
<text text-anchor="middle" x="113" y="-7.3" font-family="Helvetica,sans-Serif" font-size="9.00">::stored_data&lt; _Tv, _Th &gt;</text>
</g>
<!-- Node2 -->
<g id="node2" class="node"><title>Node2</title>
<g id="a_node2"><a xlink:href="a00303.html" target="_top" xlink:title="Stored value. ">
<polygon fill="white" stroke="black" points="0,-65.5 0,-93.5 104,-93.5 104,-65.5 0,-65.5"/>
<text text-anchor="start" x="8" y="-82.3" font-family="Helvetica,sans-Serif" font-size="9.00">__gnu_pbds::detail</text>
<text text-anchor="middle" x="52" y="-72.3" font-family="Helvetica,sans-Serif" font-size="9.00">::stored_value&lt; _Tv &gt;</text>
</a>
</g>
</g>
<!-- Node2&#45;&gt;Node1 -->
<g id="edge1" class="edge"><title>Node2&#45;&gt;Node1</title>
<path fill="none" stroke="midnightblue" d="M71.7614,-58.0906C81.1607,-48.3832 92.1197,-37.0649 100.377,-28.5369"/>
<polygon fill="midnightblue" stroke="midnightblue" points="69.0809,-55.8275 64.6392,-65.4464 74.1099,-60.6968 69.0809,-55.8275"/>
</g>
<!-- Node3 -->
<g id="node3" class="node"><title>Node3</title>
<g id="a_node3"><a xlink:href="a00302.html" target="_top" xlink:title="Stored hash. ">
<polygon fill="white" stroke="black" points="122.5,-65.5 122.5,-93.5 225.5,-93.5 225.5,-65.5 122.5,-65.5"/>
<text text-anchor="start" x="130.5" y="-82.3" font-family="Helvetica,sans-Serif" font-size="9.00">__gnu_pbds::detail</text>
<text text-anchor="middle" x="174" y="-72.3" font-family="Helvetica,sans-Serif" font-size="9.00">::stored_hash&lt; _Th &gt;</text>
</a>
</g>
</g>
<!-- Node3&#45;&gt;Node1 -->
<g id="edge2" class="edge"><title>Node3&#45;&gt;Node1</title>
<path fill="none" stroke="midnightblue" d="M154.239,-58.0906C144.839,-48.3832 133.88,-37.0649 125.623,-28.5369"/>
<polygon fill="midnightblue" stroke="midnightblue" points="151.89,-60.6968 161.361,-65.4464 156.919,-55.8275 151.89,-60.6968"/>
</g>
</g>
</svg>
