<?xml version="1.0" encoding="UTF-8" standalone="no"?>
<!DOCTYPE svg PUBLIC "-//W3C//DTD SVG 1.1//EN"
 "http://www.w3.org/Graphics/SVG/1.1/DTD/svg11.dtd">
<!-- Generated by graphviz version 2.38.0 (20140413.2041)
 -->
<!-- Title: __gnu_profile::__container_size_info Pages: 1 -->
<svg width="135pt" height="167pt"
 viewBox="0.00 0.00 135.00 167.00" xmlns="http://www.w3.org/2000/svg" xmlns:xlink="http://www.w3.org/1999/xlink">
<g id="graph0" class="graph" transform="scale(1 1) rotate(0) translate(4 163)">
<title>__gnu_profile::__container_size_info</title>
<polygon fill="white" stroke="none" points="-4,4 -4,-163 131,-163 131,4 -4,4"/>
<!-- Node1 -->
<g id="node1" class="node"><title>Node1</title>
<polygon fill="#bfbfbf" stroke="black" points="0,-65.5 0,-93.5 127,-93.5 127,-65.5 0,-65.5"/>
<text text-anchor="start" x="8" y="-82.3" font-family="Helvetica,sans-Serif" font-size="9.00">__gnu_profile::__container</text>
<text text-anchor="middle" x="63.5" y="-72.3" font-family="Helvetica,sans-Serif" font-size="9.00">_size_info</text>
</g>
<!-- Node3 -->
<g id="node3" class="node"><title>Node3</title>
<g id="a_node3"><a xlink:href="a00385.html" target="_top" xlink:title="A container size instrumentation line in the stack table. ">
<polygon fill="white" stroke="black" points="0,-0.5 0,-28.5 127,-28.5 127,-0.5 0,-0.5"/>
<text text-anchor="start" x="8" y="-17.3" font-family="Helvetica,sans-Serif" font-size="9.00">__gnu_profile::__container</text>
<text text-anchor="middle" x="63.5" y="-7.3" font-family="Helvetica,sans-Serif" font-size="9.00">_size_stack_info</text>
</a>
</g>
</g>
<!-- Node1&#45;&gt;Node3 -->
<g id="edge2" class="edge"><title>Node1&#45;&gt;Node3</title>
<path fill="none" stroke="midnightblue" d="M63.5,-55.1641C63.5,-46.1693 63.5,-36.2205 63.5,-28.5369"/>
<polygon fill="midnightblue" stroke="midnightblue" points="60.0001,-55.4463 63.5,-65.4464 67.0001,-55.4464 60.0001,-55.4463"/>
</g>
<!-- Node2 -->
<g id="node2" class="node"><title>Node2</title>
<g id="a_node2"><a xlink:href="a00391.html" target="_top" xlink:title="Base class for a line in the object table. ">
<polygon fill="white" stroke="black" points="7,-130.5 7,-158.5 120,-158.5 120,-130.5 7,-130.5"/>
<text text-anchor="start" x="15" y="-147.3" font-family="Helvetica,sans-Serif" font-size="9.00">__gnu_profile::__object</text>
<text text-anchor="middle" x="63.5" y="-137.3" font-family="Helvetica,sans-Serif" font-size="9.00">_info_base</text>
</a>
</g>
</g>
<!-- Node2&#45;&gt;Node1 -->
<g id="edge1" class="edge"><title>Node2&#45;&gt;Node1</title>
<path fill="none" stroke="midnightblue" d="M63.5,-120.164C63.5,-111.169 63.5,-101.221 63.5,-93.5369"/>
<polygon fill="midnightblue" stroke="midnightblue" points="60.0001,-120.446 63.5,-130.446 67.0001,-120.446 60.0001,-120.446"/>
</g>
</g>
</svg>
