<?xml version="1.0" encoding="UTF-8" standalone="no"?>
<!DOCTYPE svg PUBLIC "-//W3C//DTD SVG 1.1//EN"
 "http://www.w3.org/Graphics/SVG/1.1/DTD/svg11.dtd">
<!-- Generated by graphviz version 2.38.0 (20140413.2041)
 -->
<!-- Title: std::const_mem_fun1_t&lt; _Ret, _Tp, _Arg &gt; Pages: 1 -->
<svg width="112pt" height="112pt"
 viewBox="0.00 0.00 112.00 112.00" xmlns="http://www.w3.org/2000/svg" xmlns:xlink="http://www.w3.org/1999/xlink">
<g id="graph0" class="graph" transform="scale(1 1) rotate(0) translate(4 108)">
<title>std::const_mem_fun1_t&lt; _Ret, _Tp, _Arg &gt;</title>
<polygon fill="white" stroke="none" points="-4,4 -4,-108 108,-108 108,4 -4,4"/>
<!-- Node1 -->
<g id="node1" class="node"><title>Node1</title>
<polygon fill="#bfbfbf" stroke="black" points="0,-0.5 0,-28.5 104,-28.5 104,-0.5 0,-0.5"/>
<text text-anchor="start" x="8" y="-17.3" font-family="Helvetica,sans-Serif" font-size="9.00">std::const_mem_fun1</text>
<text text-anchor="middle" x="52" y="-7.3" font-family="Helvetica,sans-Serif" font-size="9.00">_t&lt; _Ret, _Tp, _Arg &gt;</text>
</g>
<!-- Node2 -->
<g id="node2" class="node"><title>Node2</title>
<g id="a_node2"><a xlink:href="a00423.html" target="_top" xlink:title="std::binary_function\l\&lt; const _Tp *, _Arg,\l _Ret \&gt;">
<polygon fill="white" stroke="black" points="4,-65.5 4,-103.5 100,-103.5 100,-65.5 4,-65.5"/>
<text text-anchor="start" x="12" y="-92.3" font-family="Helvetica,sans-Serif" font-size="9.00">std::binary_function</text>
<text text-anchor="start" x="12" y="-82.3" font-family="Helvetica,sans-Serif" font-size="9.00">&lt; const _Tp *, _Arg,</text>
<text text-anchor="middle" x="52" y="-72.3" font-family="Helvetica,sans-Serif" font-size="9.00"> _Ret &gt;</text>
</a>
</g>
</g>
<!-- Node2&#45;&gt;Node1 -->
<g id="edge1" class="edge"><title>Node2&#45;&gt;Node1</title>
<path fill="none" stroke="midnightblue" d="M52,-55.0135C52,-45.9213 52,-36.2886 52,-28.8104"/>
<polygon fill="midnightblue" stroke="midnightblue" points="48.5001,-55.2772 52,-65.2772 55.5001,-55.2773 48.5001,-55.2772"/>
</g>
</g>
</svg>
