<?xml version="1.0" encoding="UTF-8" standalone="no"?>
<!DOCTYPE svg PUBLIC "-//W3C//DTD SVG 1.1//EN"
 "http://www.w3.org/Graphics/SVG/1.1/DTD/svg11.dtd">
<!-- Generated by graphviz version 2.38.0 (20140413.2041)
 -->
<!-- Title: std::_Hashtable&lt; _Key, _Value, _Alloc, _ExtractKey, _Equal, _H1, _H2, _Hash, _RehashPolicy, _Traits &gt; Pages: 1 -->
<!--zoomable 473 -->
<svg id="main" version="1.1" xmlns="http://www.w3.org/2000/svg" xmlns:xlink="http://www.w3.org/1999/xlink" xml:space="preserve" onload="init(evt)">
<style type="text/css"><![CDATA[
.edge:hover path { stroke: red; }
.edge:hover polygon { stroke: red; fill: red; }
]]></style>
<script type="text/javascript"><![CDATA[
var edges = document.getElementsByTagName('g');
if (edges && edges.length) {
  for (var i=0;i<edges.length;i++) {
    if (edges[i].id.substr(0,4)=='edge') {
      edges[i].setAttribute('class','edge');
    }
  }
}
]]></script>
        <defs>
                <circle id="rim" cx="0" cy="0" r="7"/>
                <circle id="rim2" cx="0" cy="0" r="3.5"/>
                <g id="zoomPlus">
                        <use xlink:href="#rim" fill="#404040">
                                <set attributeName="fill" to="#808080" begin="zoomplus.mouseover" end="zoomplus.mouseout"/>
                        </use>
                        <path d="M-4,0h8M0,-4v8" fill="none" stroke="white" stroke-width="1.5" pointer-events="none"/>
                </g>
                <g id="zoomMin">
                        <use xlink:href="#rim" fill="#404040">
                                <set attributeName="fill" to="#808080" begin="zoomminus.mouseover" end="zoomminus.mouseout"/>
                        </use>
                        <path d="M-4,0h8" fill="none" stroke="white" stroke-width="1.5" pointer-events="none"/>
                </g>
                <g id="dirArrow">
                        <path fill="none" stroke="white" stroke-width="1.5" d="M0,-3.0v7 M-2.5,-0.5L0,-3.0L2.5,-0.5"/>
                </g>
               <g id="resetDef">
                       <use xlink:href="#rim2" fill="#404040">
                               <set attributeName="fill" to="#808080" begin="reset.mouseover" end="reset.mouseout"/>
                       </use>
               </g>
        </defs>

<script type="text/javascript">
var viewWidth = 546;
var viewHeight = 473;
var sectionId = 'dynsection-0';
</script>
<script xlink:href="svgpan.js"/>
<svg id="graph" class="graph">
<g id="viewport">
<title>std::_Hashtable&lt; _Key, _Value, _Alloc, _ExtractKey, _Equal, _H1, _H2, _Hash, _RehashPolicy, _Traits &gt;</title>
<polygon fill="white" stroke="none" points="-4,4 -4,-469 542,-469 542,4 -4,4"/>
<!-- Node1 -->
<g id="node1" class="node"><title>Node1</title>
<polygon fill="#bfbfbf" stroke="black" points="404,-197.5 404,-245.5 538,-245.5 538,-197.5 404,-197.5"/>
<text text-anchor="start" x="412" y="-234.3" font-family="Helvetica,sans-Serif" font-size="9.00">std::_Hashtable&lt; _Key,</text>
<text text-anchor="start" x="412" y="-224.3" font-family="Helvetica,sans-Serif" font-size="9.00"> _Value, _Alloc, _ExtractKey,</text>
<text text-anchor="start" x="412" y="-214.3" font-family="Helvetica,sans-Serif" font-size="9.00"> _Equal, _H1, _H2, _Hash,</text>
<text text-anchor="middle" x="471" y="-204.3" font-family="Helvetica,sans-Serif" font-size="9.00"> _RehashPolicy, _Traits &gt;</text>
</g>
<!-- Node2 -->
<g id="node2" class="node"><title>Node2</title>
<g id="a_node2"><a xlink:href="a00464.html" target="_top" xlink:title="std::__detail::_Hashtable\l_base\&lt; _Key, _Value, _ExtractKey,\l _Equal, _H1, _H2, _Hash, _Traits \&gt;">
<polygon fill="white" stroke="black" points="205,-385.5 205,-423.5 368,-423.5 368,-385.5 205,-385.5"/>
<text text-anchor="start" x="213" y="-412.3" font-family="Helvetica,sans-Serif" font-size="9.00">std::__detail::_Hashtable</text>
<text text-anchor="start" x="213" y="-402.3" font-family="Helvetica,sans-Serif" font-size="9.00">_base&lt; _Key, _Value, _ExtractKey,</text>
<text text-anchor="middle" x="286.5" y="-392.3" font-family="Helvetica,sans-Serif" font-size="9.00"> _Equal, _H1, _H2, _Hash, _Traits &gt;</text>
</a>
</g>
</g>
<!-- Node2&#45;&gt;Node1 -->
<g id="edge1" class="edge"><title>Node2&#45;&gt;Node1</title>
<path fill="none" stroke="midnightblue" d="M362.97,-380.124C364.7,-378.969 366.38,-377.762 368,-376.5 413.491,-341.066 445.234,-279.404 460.214,-245.516"/>
<polygon fill="midnightblue" stroke="midnightblue" points="360.771,-377.358 353.959,-385.472 364.344,-383.378 360.771,-377.358"/>
</g>
<!-- Node3 -->
<g id="node3" class="node"><title>Node3</title>
<g id="a_node3"><a xlink:href="a00410.html" target="_top" xlink:title="std::__detail::_Hash\l_code_base\&lt; _Key, _Value,\l _ExtractKey, _H1, _H2,\l _Hash, _Traits::__hash_cached\l::value \&gt;">
<polygon fill="white" stroke="black" points="10,-406.5 10,-464.5 159,-464.5 159,-406.5 10,-406.5"/>
<text text-anchor="start" x="18" y="-453.3" font-family="Helvetica,sans-Serif" font-size="9.00">std::__detail::_Hash</text>
<text text-anchor="start" x="18" y="-443.3" font-family="Helvetica,sans-Serif" font-size="9.00">_code_base&lt; _Key, _Value,</text>
<text text-anchor="start" x="18" y="-433.3" font-family="Helvetica,sans-Serif" font-size="9.00"> _ExtractKey, _H1, _H2,</text>
<text text-anchor="start" x="18" y="-423.3" font-family="Helvetica,sans-Serif" font-size="9.00"> _Hash, _Traits::__hash_cached</text>
<text text-anchor="middle" x="84.5" y="-413.3" font-family="Helvetica,sans-Serif" font-size="9.00">::value &gt;</text>
</a>
</g>
</g>
<!-- Node3&#45;&gt;Node2 -->
<g id="edge2" class="edge"><title>Node3&#45;&gt;Node2</title>
<path fill="none" stroke="midnightblue" d="M169.021,-422.554C180.915,-420.711 193.129,-418.818 204.964,-416.983"/>
<polygon fill="midnightblue" stroke="midnightblue" points="168.466,-419.098 159.121,-424.089 169.539,-426.016 168.466,-419.098"/>
</g>
<!-- Node4 -->
<g id="node4" class="node"><title>Node4</title>
<g id="a_node4"><a xlink:href="a00413.html" target="_top" xlink:title="std::__detail::_Hashtable\l_ebo_helper\&lt; 0, _Equal \&gt;">
<polygon fill="white" stroke="black" points="23,-359.5 23,-387.5 146,-387.5 146,-359.5 23,-359.5"/>
<text text-anchor="start" x="31" y="-376.3" font-family="Helvetica,sans-Serif" font-size="9.00">std::__detail::_Hashtable</text>
<text text-anchor="middle" x="84.5" y="-366.3" font-family="Helvetica,sans-Serif" font-size="9.00">_ebo_helper&lt; 0, _Equal &gt;</text>
</a>
</g>
</g>
<!-- Node4&#45;&gt;Node2 -->
<g id="edge3" class="edge"><title>Node4&#45;&gt;Node2</title>
<path fill="none" stroke="#8b1a1a" d="M156.217,-384.461C171.95,-386.9 188.744,-389.503 204.842,-391.998"/>
<polygon fill="#8b1a1a" stroke="#8b1a1a" points="156.467,-380.958 146.049,-382.885 155.395,-387.876 156.467,-380.958"/>
</g>
<!-- Node5 -->
<g id="node5" class="node"><title>Node5</title>
<g id="a_node5"><a xlink:href="a00417.html" target="_top" xlink:title="std::__detail::_Map\l_base\&lt; _Key, _Value,\l _Alloc, _ExtractKey,\l _Equal, _H1, _H2, _Hash,\l _RehashPolicy, _Traits \&gt;">
<polygon fill="white" stroke="black" points="224,-308.5 224,-366.5 349,-366.5 349,-308.5 224,-308.5"/>
<text text-anchor="start" x="232" y="-355.3" font-family="Helvetica,sans-Serif" font-size="9.00">std::__detail::_Map</text>
<text text-anchor="start" x="232" y="-345.3" font-family="Helvetica,sans-Serif" font-size="9.00">_base&lt; _Key, _Value,</text>
<text text-anchor="start" x="232" y="-335.3" font-family="Helvetica,sans-Serif" font-size="9.00"> _Alloc, _ExtractKey,</text>
<text text-anchor="start" x="232" y="-325.3" font-family="Helvetica,sans-Serif" font-size="9.00"> _Equal, _H1, _H2, _Hash,</text>
<text text-anchor="middle" x="286.5" y="-315.3" font-family="Helvetica,sans-Serif" font-size="9.00"> _RehashPolicy, _Traits &gt;</text>
</a>
</g>
</g>
<!-- Node5&#45;&gt;Node1 -->
<g id="edge4" class="edge"><title>Node5&#45;&gt;Node1</title>
<path fill="none" stroke="midnightblue" d="M358.244,-305.17C361.576,-303.315 364.844,-301.421 368,-299.5 394.276,-283.5 421.863,-262.084 441.712,-245.741"/>
<polygon fill="midnightblue" stroke="midnightblue" points="356.453,-302.159 349.307,-309.981 359.771,-308.323 356.453,-302.159"/>
</g>
<!-- Node6 -->
<g id="node6" class="node"><title>Node6</title>
<g id="a_node6"><a xlink:href="a00414.html" target="_top" xlink:title="std::__detail::_Insert\l\&lt; _Key, _Value, _Alloc,\l _ExtractKey, _Equal, \l_H1, _H2, _Hash, _RehashPolicy,\l _Traits \&gt;">
<polygon fill="white" stroke="black" points="208.5,-231.5 208.5,-289.5 364.5,-289.5 364.5,-231.5 208.5,-231.5"/>
<text text-anchor="start" x="216.5" y="-278.3" font-family="Helvetica,sans-Serif" font-size="9.00">std::__detail::_Insert</text>
<text text-anchor="start" x="216.5" y="-268.3" font-family="Helvetica,sans-Serif" font-size="9.00">&lt; _Key, _Value, _Alloc,</text>
<text text-anchor="start" x="216.5" y="-258.3" font-family="Helvetica,sans-Serif" font-size="9.00"> _ExtractKey, _Equal, </text>
<text text-anchor="start" x="216.5" y="-248.3" font-family="Helvetica,sans-Serif" font-size="9.00">_H1, _H2, _Hash, _RehashPolicy,</text>
<text text-anchor="middle" x="286.5" y="-238.3" font-family="Helvetica,sans-Serif" font-size="9.00"> _Traits &gt;</text>
</a>
</g>
</g>
<!-- Node6&#45;&gt;Node1 -->
<g id="edge5" class="edge"><title>Node6&#45;&gt;Node1</title>
<path fill="none" stroke="midnightblue" d="M374.465,-241.916C384.338,-239.806 394.279,-237.682 403.822,-235.642"/>
<polygon fill="midnightblue" stroke="midnightblue" points="373.68,-238.504 364.632,-244.017 375.143,-245.35 373.68,-238.504"/>
</g>
<!-- Node7 -->
<g id="node7" class="node"><title>Node7</title>
<g id="a_node7"><a xlink:href="a00483.html" target="_top" xlink:title="std::__detail::_Rehash\l_base\&lt; _Key, _Value, \l_Alloc, _ExtractKey, _Equal,\l _H1, _H2, _Hash, _RehashPolicy,\l _Traits \&gt;">
<polygon fill="white" stroke="black" points="207.5,-154.5 207.5,-212.5 365.5,-212.5 365.5,-154.5 207.5,-154.5"/>
<text text-anchor="start" x="215.5" y="-201.3" font-family="Helvetica,sans-Serif" font-size="9.00">std::__detail::_Rehash</text>
<text text-anchor="start" x="215.5" y="-191.3" font-family="Helvetica,sans-Serif" font-size="9.00">_base&lt; _Key, _Value, </text>
<text text-anchor="start" x="215.5" y="-181.3" font-family="Helvetica,sans-Serif" font-size="9.00">_Alloc, _ExtractKey, _Equal,</text>
<text text-anchor="start" x="215.5" y="-171.3" font-family="Helvetica,sans-Serif" font-size="9.00"> _H1, _H2, _Hash, _RehashPolicy,</text>
<text text-anchor="middle" x="286.5" y="-161.3" font-family="Helvetica,sans-Serif" font-size="9.00"> _Traits &gt;</text>
</a>
</g>
</g>
<!-- Node7&#45;&gt;Node1 -->
<g id="edge6" class="edge"><title>Node7&#45;&gt;Node1</title>
<path fill="none" stroke="midnightblue" d="M375.544,-201.832C385.032,-203.808 394.566,-205.793 403.736,-207.703"/>
<polygon fill="midnightblue" stroke="midnightblue" points="376.194,-198.393 365.691,-199.781 374.767,-205.246 376.194,-198.393"/>
</g>
<!-- Node8 -->
<g id="node8" class="node"><title>Node8</title>
<g id="a_node8"><a xlink:href="a00409.html" target="_top" xlink:title="std::__detail::_Equality\l\&lt; _Key, _Value, _Alloc,\l _ExtractKey, _Equal, _H1,\l _H2, _Hash, _RehashPolicy,\l _Traits \&gt;">
<polygon fill="white" stroke="black" points="218,-77.5 218,-135.5 355,-135.5 355,-77.5 218,-77.5"/>
<text text-anchor="start" x="226" y="-124.3" font-family="Helvetica,sans-Serif" font-size="9.00">std::__detail::_Equality</text>
<text text-anchor="start" x="226" y="-114.3" font-family="Helvetica,sans-Serif" font-size="9.00">&lt; _Key, _Value, _Alloc,</text>
<text text-anchor="start" x="226" y="-104.3" font-family="Helvetica,sans-Serif" font-size="9.00"> _ExtractKey, _Equal, _H1,</text>
<text text-anchor="start" x="226" y="-94.3" font-family="Helvetica,sans-Serif" font-size="9.00"> _H2, _Hash, _RehashPolicy,</text>
<text text-anchor="middle" x="286.5" y="-84.3" font-family="Helvetica,sans-Serif" font-size="9.00"> _Traits &gt;</text>
</a>
</g>
</g>
<!-- Node8&#45;&gt;Node1 -->
<g id="edge7" class="edge"><title>Node8&#45;&gt;Node1</title>
<path fill="none" stroke="midnightblue" d="M359.417,-140.476C362.341,-142.13 365.213,-143.807 368,-145.5 393.671,-161.089 420.853,-181.564 440.697,-197.334"/>
<polygon fill="midnightblue" stroke="midnightblue" points="360.974,-137.339 350.524,-135.598 357.608,-143.476 360.974,-137.339"/>
</g>
<!-- Node9 -->
<g id="node9" class="node"><title>Node9</title>
<g id="a_node9"><a xlink:href="a00412.html" target="_top" xlink:title="std::__detail::_Hashtable\l_alloc\&lt; __alloctr_rebind\l\&lt; _Alloc, __detail::_Hash\l_node\&lt; _Value, _Traits::_\l_hash_cached::value \&gt; \&gt;::__type \&gt;">
<polygon fill="white" stroke="black" points="207,-0.5 207,-58.5 366,-58.5 366,-0.5 207,-0.5"/>
<text text-anchor="start" x="215" y="-47.3" font-family="Helvetica,sans-Serif" font-size="9.00">std::__detail::_Hashtable</text>
<text text-anchor="start" x="215" y="-37.3" font-family="Helvetica,sans-Serif" font-size="9.00">_alloc&lt; __alloctr_rebind</text>
<text text-anchor="start" x="215" y="-27.3" font-family="Helvetica,sans-Serif" font-size="9.00">&lt; _Alloc, __detail::_Hash</text>
<text text-anchor="start" x="215" y="-17.3" font-family="Helvetica,sans-Serif" font-size="9.00">_node&lt; _Value, _Traits::_</text>
<text text-anchor="middle" x="286.5" y="-7.3" font-family="Helvetica,sans-Serif" font-size="9.00">_hash_cached::value &gt; &gt;::__type &gt;</text>
</a>
</g>
</g>
<!-- Node9&#45;&gt;Node1 -->
<g id="edge8" class="edge"><title>Node9&#45;&gt;Node1</title>
<path fill="none" stroke="#8b1a1a" d="M363.238,-64.5864C364.873,-65.8561 366.464,-67.1607 368,-68.5 410.594,-105.63 443.049,-164.557 459.023,-197.39"/>
<polygon fill="#8b1a1a" stroke="#8b1a1a" points="364.912,-61.4813 354.737,-58.5272 360.849,-67.1815 364.912,-61.4813"/>
</g>
<!-- Node10 -->
<g id="node10" class="node"><title>Node10</title>
<g id="a_node10"><a xlink:href="a00413.html" target="_top" xlink:title="std::__detail::_Hashtable\l_ebo_helper\&lt; 0, __alloctr\l_rebind\&lt; _Alloc, __detail\l::_Hash_node\&lt; _Value, _Traits\l::__hash_cached::value \&gt; \&gt;::__type \&gt;">
<polygon fill="white" stroke="black" points="0,-0.5 0,-58.5 169,-58.5 169,-0.5 0,-0.5"/>
<text text-anchor="start" x="8" y="-47.3" font-family="Helvetica,sans-Serif" font-size="9.00">std::__detail::_Hashtable</text>
<text text-anchor="start" x="8" y="-37.3" font-family="Helvetica,sans-Serif" font-size="9.00">_ebo_helper&lt; 0, __alloctr</text>
<text text-anchor="start" x="8" y="-27.3" font-family="Helvetica,sans-Serif" font-size="9.00">_rebind&lt; _Alloc, __detail</text>
<text text-anchor="start" x="8" y="-17.3" font-family="Helvetica,sans-Serif" font-size="9.00">::_Hash_node&lt; _Value, _Traits</text>
<text text-anchor="middle" x="84.5" y="-7.3" font-family="Helvetica,sans-Serif" font-size="9.00">::__hash_cached::value &gt; &gt;::__type &gt;</text>
</a>
</g>
</g>
<!-- Node10&#45;&gt;Node9 -->
<g id="edge9" class="edge"><title>Node10&#45;&gt;Node9</title>
<path fill="none" stroke="#8b1a1a" d="M179.198,-29.5C188.49,-29.5 197.855,-29.5 206.97,-29.5"/>
<polygon fill="#8b1a1a" stroke="#8b1a1a" points="179.159,-26.0001 169.159,-29.5 179.159,-33.0001 179.159,-26.0001"/>
</g>
</g>
</svg>
        <g id="navigator" transform="translate(0 0)" fill="#404254">
                <rect fill="#f2f5e9" fill-opacity="0.5" stroke="#606060" stroke-width=".5" x="0" y="0" width="60" height="60"/>
                <use id="zoomplus" xlink:href="#zoomPlus" x="17" y="9" onmousedown="handleZoom(evt,'in')"/>
                <use id="zoomminus" xlink:href="#zoomMin" x="42" y="9" onmousedown="handleZoom(evt,'out')"/>
                <use id="reset" xlink:href="#resetDef" x="30" y="36" onmousedown="handleReset()"/>
                <g id="arrowUp" xlink:href="#dirArrow" transform="translate(30 24)" onmousedown="handlePan(0,-1)">
                  <use xlink:href="#rim" fill="#404040">
                        <set attributeName="fill" to="#808080" begin="arrowUp.mouseover" end="arrowUp.mouseout"/>
                  </use>
                  <path fill="none" stroke="white" stroke-width="1.5" d="M0,-3.0v7 M-2.5,-0.5L0,-3.0L2.5,-0.5"/>
                </g>
                <g id="arrowRight" xlink:href="#dirArrow" transform="rotate(90) translate(36 -43)" onmousedown="handlePan(1,0)">
                  <use xlink:href="#rim" fill="#404040">
                        <set attributeName="fill" to="#808080" begin="arrowRight.mouseover" end="arrowRight.mouseout"/>
                  </use>
                  <path fill="none" stroke="white" stroke-width="1.5" d="M0,-3.0v7 M-2.5,-0.5L0,-3.0L2.5,-0.5"/>
                </g>
                <g id="arrowDown" xlink:href="#dirArrow" transform="rotate(180) translate(-30 -48)" onmousedown="handlePan(0,1)">
                  <use xlink:href="#rim" fill="#404040">
                        <set attributeName="fill" to="#808080" begin="arrowDown.mouseover" end="arrowDown.mouseout"/>
                  </use>
                  <path fill="none" stroke="white" stroke-width="1.5" d="M0,-3.0v7 M-2.5,-0.5L0,-3.0L2.5,-0.5"/>
                </g>
                <g id="arrowLeft" xlink:href="#dirArrow" transform="rotate(270) translate(-36 17)" onmousedown="handlePan(-1,0)">
                  <use xlink:href="#rim" fill="#404040">
                        <set attributeName="fill" to="#808080" begin="arrowLeft.mouseover" end="arrowLeft.mouseout"/>
                  </use>
                  <path fill="none" stroke="white" stroke-width="1.5" d="M0,-3.0v7 M-2.5,-0.5L0,-3.0L2.5,-0.5"/>
                </g>
        </g>
        <svg viewBox="0 0 15 15" width="100%" height="30px" preserveAspectRatio="xMaxYMin meet">
         <g id="arrow_out" transform="scale(0.3 0.3)">
          <a xlink:href="a02125_org.svg" target="_base">
           <rect id="button" ry="5" rx="5" y="6" x="6" height="38" width="38"
                fill="#f2f5e9" fill-opacity="0.5" stroke="#606060" stroke-width="1.0"/>
           <path id="arrow"
             d="M 11.500037,31.436501 C 11.940474,20.09759 22.043105,11.32322 32.158766,21.979434 L 37.068811,17.246167 C 37.068811,17.246167 37.088388,32 37.088388,32 L 22.160133,31.978069 C 22.160133,31.978069 26.997745,27.140456 26.997745,27.140456 C 18.528582,18.264221 13.291696,25.230495 11.500037,31.436501 z"
             style="fill:#404040;"/>
          </a>
         </g>
        </svg>
</svg>
