<?xml version="1.0" encoding="UTF-8" standalone="no"?>
<!DOCTYPE svg PUBLIC "-//W3C//DTD SVG 1.1//EN"
 "http://www.w3.org/Graphics/SVG/1.1/DTD/svg11.dtd">
<!-- Generated by graphviz version 2.38.0 (20140413.2041)
 -->
<!-- Title: std::char_traits&lt; _CharT &gt; Pages: 1 -->
<svg width="118pt" height="167pt"
 viewBox="0.00 0.00 118.00 167.00" xmlns="http://www.w3.org/2000/svg" xmlns:xlink="http://www.w3.org/1999/xlink">
<g id="graph0" class="graph" transform="scale(1 1) rotate(0) translate(4 163)">
<title>std::char_traits&lt; _CharT &gt;</title>
<polygon fill="white" stroke="none" points="-4,4 -4,-163 114,-163 114,4 -4,4"/>
<!-- Node1 -->
<g id="node1" class="node"><title>Node1</title>
<polygon fill="#bfbfbf" stroke="black" points="13.5,-65.5 13.5,-93.5 96.5,-93.5 96.5,-65.5 13.5,-65.5"/>
<text text-anchor="start" x="21.5" y="-82.3" font-family="Helvetica,sans-Serif" font-size="9.00">std::char_traits&lt; </text>
<text text-anchor="middle" x="55" y="-72.3" font-family="Helvetica,sans-Serif" font-size="9.00">_CharT &gt;</text>
</g>
<!-- Node3 -->
<g id="node3" class="node"><title>Node3</title>
<g id="a_node3"><a xlink:href="a00039.html" target="_top" xlink:title="encoding_char_traits ">
<polygon fill="white" stroke="black" points="0,-0.5 0,-28.5 110,-28.5 110,-0.5 0,-0.5"/>
<text text-anchor="start" x="8" y="-17.3" font-family="Helvetica,sans-Serif" font-size="9.00">__gnu_cxx::encoding</text>
<text text-anchor="middle" x="55" y="-7.3" font-family="Helvetica,sans-Serif" font-size="9.00">_char_traits&lt; _CharT &gt;</text>
</a>
</g>
</g>
<!-- Node1&#45;&gt;Node3 -->
<g id="edge2" class="edge"><title>Node1&#45;&gt;Node3</title>
<path fill="none" stroke="midnightblue" d="M55,-55.1641C55,-46.1693 55,-36.2205 55,-28.5369"/>
<polygon fill="midnightblue" stroke="midnightblue" points="51.5001,-55.4463 55,-65.4464 58.5001,-55.4464 51.5001,-55.4463"/>
</g>
<!-- Node2 -->
<g id="node2" class="node"><title>Node2</title>
<g id="a_node2"><a xlink:href="a00034.html" target="_top" xlink:title="Base class used to implement std::char_traits. ">
<polygon fill="white" stroke="black" points="0.5,-130.5 0.5,-158.5 109.5,-158.5 109.5,-130.5 0.5,-130.5"/>
<text text-anchor="start" x="8.5" y="-147.3" font-family="Helvetica,sans-Serif" font-size="9.00">__gnu_cxx::char_traits</text>
<text text-anchor="middle" x="55" y="-137.3" font-family="Helvetica,sans-Serif" font-size="9.00">&lt; _CharT &gt;</text>
</a>
</g>
</g>
<!-- Node2&#45;&gt;Node1 -->
<g id="edge1" class="edge"><title>Node2&#45;&gt;Node1</title>
<path fill="none" stroke="midnightblue" d="M55,-120.164C55,-111.169 55,-101.221 55,-93.5369"/>
<polygon fill="midnightblue" stroke="midnightblue" points="51.5001,-120.446 55,-130.446 58.5001,-120.446 51.5001,-120.446"/>
</g>
</g>
</svg>
