<?xml version="1.0" encoding="UTF-8" standalone="no"?>
<!DOCTYPE svg PUBLIC "-//W3C//DTD SVG 1.1//EN"
 "http://www.w3.org/Graphics/SVG/1.1/DTD/svg11.dtd">
<!-- Generated by graphviz version 2.38.0 (20140413.2041)
 -->
<!-- Title: std::collate_byname&lt; _CharT &gt; Pages: 1 -->
<svg width="114pt" height="147pt"
 viewBox="0.00 0.00 114.00 147.00" xmlns="http://www.w3.org/2000/svg" xmlns:xlink="http://www.w3.org/1999/xlink">
<g id="graph0" class="graph" transform="scale(1 1) rotate(0) translate(4 143)">
<title>std::collate_byname&lt; _CharT &gt;</title>
<polygon fill="white" stroke="none" points="-4,4 -4,-143 110,-143 110,4 -4,4"/>
<!-- Node1 -->
<g id="node1" class="node"><title>Node1</title>
<polygon fill="#bfbfbf" stroke="black" points="4,-0.5 4,-28.5 102,-28.5 102,-0.5 4,-0.5"/>
<text text-anchor="start" x="12" y="-17.3" font-family="Helvetica,sans-Serif" font-size="9.00">std::collate_byname</text>
<text text-anchor="middle" x="53" y="-7.3" font-family="Helvetica,sans-Serif" font-size="9.00">&lt; _CharT &gt;</text>
</g>
<!-- Node2 -->
<g id="node2" class="node"><title>Node2</title>
<g id="a_node2"><a xlink:href="a00539.html" target="_top" xlink:title="Facet for localized string comparison. ">
<polygon fill="white" stroke="black" points="0,-65.5 0,-83.5 106,-83.5 106,-65.5 0,-65.5"/>
<text text-anchor="middle" x="53" y="-72.3" font-family="Helvetica,sans-Serif" font-size="9.00">std::collate&lt; _CharT &gt;</text>
</a>
</g>
</g>
<!-- Node2&#45;&gt;Node1 -->
<g id="edge1" class="edge"><title>Node2&#45;&gt;Node1</title>
<path fill="none" stroke="midnightblue" d="M53,-55.3209C53,-46.747 53,-36.6999 53,-28.8428"/>
<polygon fill="midnightblue" stroke="midnightblue" points="49.5001,-55.4353 53,-65.4353 56.5001,-55.4354 49.5001,-55.4353"/>
</g>
<!-- Node3 -->
<g id="node3" class="node"><title>Node3</title>
<g id="a_node3"><a xlink:href="a00624.html" target="_top" xlink:title="Localization functionality base class.The facet class is the base class for a localization feature...">
<polygon fill="white" stroke="black" points="12,-120.5 12,-138.5 94,-138.5 94,-120.5 12,-120.5"/>
<text text-anchor="middle" x="53" y="-127.3" font-family="Helvetica,sans-Serif" font-size="9.00">std::locale::facet</text>
</a>
</g>
</g>
<!-- Node3&#45;&gt;Node2 -->
<g id="edge2" class="edge"><title>Node3&#45;&gt;Node2</title>
<path fill="none" stroke="midnightblue" d="M53,-110.175C53,-101.094 53,-90.5949 53,-83.5496"/>
<polygon fill="midnightblue" stroke="midnightblue" points="49.5001,-110.219 53,-120.219 56.5001,-110.219 49.5001,-110.219"/>
</g>
</g>
</svg>
