<?xml version="1.0" encoding="UTF-8" standalone="no"?>
<!DOCTYPE svg PUBLIC "-//W3C//DTD SVG 1.1//EN"
 "http://www.w3.org/Graphics/SVG/1.1/DTD/svg11.dtd">
<!-- Generated by graphviz version 2.38.0 (20140413.2041)
 -->
<!-- Title: std::_Enable_copy_move&lt; _Copy, _CopyAssignment, _Move, _MoveAssignment, _Tag &gt; Pages: 1 -->
<svg width="353pt" height="57pt"
 viewBox="0.00 0.00 353.00 57.00" xmlns="http://www.w3.org/2000/svg" xmlns:xlink="http://www.w3.org/1999/xlink">
<g id="graph0" class="graph" transform="scale(1 1) rotate(0) translate(4 53)">
<title>std::_Enable_copy_move&lt; _Copy, _CopyAssignment, _Move, _MoveAssignment, _Tag &gt;</title>
<polygon fill="white" stroke="none" points="-4,4 -4,-53 349,-53 349,4 -4,4"/>
<!-- Node1 -->
<g id="node1" class="node"><title>Node1</title>
<polygon fill="#bfbfbf" stroke="black" points="0,-0.5 0,-48.5 133,-48.5 133,-0.5 0,-0.5"/>
<text text-anchor="start" x="8" y="-37.3" font-family="Helvetica,sans-Serif" font-size="9.00">std::_Enable_copy_move</text>
<text text-anchor="start" x="8" y="-27.3" font-family="Helvetica,sans-Serif" font-size="9.00">&lt; _Copy, _CopyAssignment,</text>
<text text-anchor="start" x="8" y="-17.3" font-family="Helvetica,sans-Serif" font-size="9.00"> _Move, _MoveAssignment,</text>
<text text-anchor="middle" x="66.5" y="-7.3" font-family="Helvetica,sans-Serif" font-size="9.00"> _Tag &gt;</text>
</g>
<!-- Node2 -->
<g id="node2" class="node"><title>Node2</title>
<g id="a_node2"><a xlink:href="a00494.html" target="_top" xlink:title="A mixin helper to conditionally enable or disable the special members. ">
<polygon fill="white" stroke="black" points="169,-5.5 169,-43.5 345,-43.5 345,-5.5 169,-5.5"/>
<text text-anchor="start" x="177" y="-32.3" font-family="Helvetica,sans-Serif" font-size="9.00">std::_Enable_special</text>
<text text-anchor="start" x="177" y="-22.3" font-family="Helvetica,sans-Serif" font-size="9.00">_members&lt; _Copy, _CopyAssignment,</text>
<text text-anchor="middle" x="257" y="-12.3" font-family="Helvetica,sans-Serif" font-size="9.00"> _Move, _MoveAssignment, _Tag &gt;</text>
</a>
</g>
</g>
<!-- Node1&#45;&gt;Node2 -->
<g id="edge1" class="edge"><title>Node1&#45;&gt;Node2</title>
<path fill="none" stroke="#8b1a1a" d="M143.253,-24.5C151.621,-24.5 160.193,-24.5 168.688,-24.5"/>
<polygon fill="#8b1a1a" stroke="#8b1a1a" points="143.164,-21.0001 133.164,-24.5 143.163,-28.0001 143.164,-21.0001"/>
</g>
</g>
</svg>
