<?xml version="1.0" encoding="UTF-8" standalone="no"?>
<!DOCTYPE svg PUBLIC "-//W3C//DTD SVG 1.1//EN"
 "http://www.w3.org/Graphics/SVG/1.1/DTD/svg11.dtd">
<!-- Generated by graphviz version 2.38.0 (20140413.2041)
 -->
<!-- Title: std::_Vector_base&lt; _Tp, _Alloc &gt; Pages: 1 -->
<svg width="103pt" height="102pt"
 viewBox="0.00 0.00 103.00 102.00" xmlns="http://www.w3.org/2000/svg" xmlns:xlink="http://www.w3.org/1999/xlink">
<g id="graph0" class="graph" transform="scale(1 1) rotate(0) translate(4 98)">
<title>std::_Vector_base&lt; _Tp, _Alloc &gt;</title>
<polygon fill="white" stroke="none" points="-4,4 -4,-98 99,-98 99,4 -4,4"/>
<!-- Node1 -->
<g id="node1" class="node"><title>Node1</title>
<polygon fill="#bfbfbf" stroke="black" points="0,-65.5 0,-93.5 95,-93.5 95,-65.5 0,-65.5"/>
<text text-anchor="start" x="8" y="-82.3" font-family="Helvetica,sans-Serif" font-size="9.00">std::_Vector_base&lt;</text>
<text text-anchor="middle" x="47.5" y="-72.3" font-family="Helvetica,sans-Serif" font-size="9.00"> _Tp, _Alloc &gt;</text>
</g>
<!-- Node2 -->
<g id="node2" class="node"><title>Node2</title>
<g id="a_node2"><a xlink:href="a00716.html" target="_top" xlink:title="A standard container which offers fixed time access to individual elements in any order...">
<polygon fill="white" stroke="black" points="4.5,-0.5 4.5,-28.5 90.5,-28.5 90.5,-0.5 4.5,-0.5"/>
<text text-anchor="start" x="12.5" y="-17.3" font-family="Helvetica,sans-Serif" font-size="9.00">std::vector&lt; _Tp, </text>
<text text-anchor="middle" x="47.5" y="-7.3" font-family="Helvetica,sans-Serif" font-size="9.00">_Alloc &gt;</text>
</a>
</g>
</g>
<!-- Node1&#45;&gt;Node2 -->
<g id="edge1" class="edge"><title>Node1&#45;&gt;Node2</title>
<path fill="none" stroke="darkgreen" d="M47.5,-55.1641C47.5,-46.1693 47.5,-36.2205 47.5,-28.5369"/>
<polygon fill="darkgreen" stroke="darkgreen" points="44.0001,-55.4463 47.5,-65.4464 51.0001,-55.4464 44.0001,-55.4463"/>
</g>
</g>
</svg>
