<?xml version="1.0" encoding="UTF-8" standalone="no"?>
<!DOCTYPE svg PUBLIC "-//W3C//DTD SVG 1.1//EN"
 "http://www.w3.org/Graphics/SVG/1.1/DTD/svg11.dtd">
<!-- Generated by graphviz version 2.38.0 (20140413.2041)
 -->
<!-- Title: std::codecvt&lt; wchar_t, char, mbstate_t &gt; Pages: 1 -->
<svg width="198pt" height="167pt"
 viewBox="0.00 0.00 198.00 167.00" xmlns="http://www.w3.org/2000/svg" xmlns:xlink="http://www.w3.org/1999/xlink">
<g id="graph0" class="graph" transform="scale(1 1) rotate(0) translate(4 163)">
<title>std::codecvt&lt; wchar_t, char, mbstate_t &gt;</title>
<polygon fill="white" stroke="none" points="-4,4 -4,-163 194,-163 194,4 -4,4"/>
<!-- Node1 -->
<g id="node1" class="node"><title>Node1</title>
<polygon fill="#bfbfbf" stroke="black" points="44,-0.5 44,-28.5 142,-28.5 142,-0.5 44,-0.5"/>
<text text-anchor="start" x="52" y="-17.3" font-family="Helvetica,sans-Serif" font-size="9.00">std::codecvt&lt; wchar</text>
<text text-anchor="middle" x="93" y="-7.3" font-family="Helvetica,sans-Serif" font-size="9.00">_t, char, mbstate_t &gt;</text>
</g>
<!-- Node2 -->
<g id="node2" class="node"><title>Node2</title>
<g id="a_node2"><a xlink:href="a00002.html" target="_top" xlink:title="std::__codecvt_abstract\l_base\&lt; wchar_t, char,\l mbstate_t \&gt;">
<polygon fill="white" stroke="black" points="36.5,-65.5 36.5,-103.5 149.5,-103.5 149.5,-65.5 36.5,-65.5"/>
<text text-anchor="start" x="44.5" y="-92.3" font-family="Helvetica,sans-Serif" font-size="9.00">std::__codecvt_abstract</text>
<text text-anchor="start" x="44.5" y="-82.3" font-family="Helvetica,sans-Serif" font-size="9.00">_base&lt; wchar_t, char,</text>
<text text-anchor="middle" x="93" y="-72.3" font-family="Helvetica,sans-Serif" font-size="9.00"> mbstate_t &gt;</text>
</a>
</g>
</g>
<!-- Node2&#45;&gt;Node1 -->
<g id="edge1" class="edge"><title>Node2&#45;&gt;Node1</title>
<path fill="none" stroke="midnightblue" d="M93,-55.0135C93,-45.9213 93,-36.2886 93,-28.8104"/>
<polygon fill="midnightblue" stroke="midnightblue" points="89.5001,-55.2772 93,-65.2772 96.5001,-55.2773 89.5001,-55.2772"/>
</g>
<!-- Node3 -->
<g id="node3" class="node"><title>Node3</title>
<g id="a_node3"><a xlink:href="a00624.html" target="_top" xlink:title="Localization functionality base class.The facet class is the base class for a localization feature...">
<polygon fill="white" stroke="black" points="0,-140.5 0,-158.5 82,-158.5 82,-140.5 0,-140.5"/>
<text text-anchor="middle" x="41" y="-147.3" font-family="Helvetica,sans-Serif" font-size="9.00">std::locale::facet</text>
</a>
</g>
</g>
<!-- Node3&#45;&gt;Node2 -->
<g id="edge2" class="edge"><title>Node3&#45;&gt;Node2</title>
<path fill="none" stroke="midnightblue" d="M54.358,-132.316C61.6176,-123.521 70.6152,-112.62 78.1011,-103.551"/>
<polygon fill="midnightblue" stroke="midnightblue" points="51.4645,-130.324 47.7981,-140.264 56.8631,-134.78 51.4645,-130.324"/>
</g>
<!-- Node4 -->
<g id="node4" class="node"><title>Node4</title>
<g id="a_node4"><a xlink:href="a00537.html" target="_top" xlink:title="Empty base class for codecvt facet [22.2.1.5]. ">
<polygon fill="white" stroke="black" points="100,-140.5 100,-158.5 190,-158.5 190,-140.5 100,-140.5"/>
<text text-anchor="middle" x="145" y="-147.3" font-family="Helvetica,sans-Serif" font-size="9.00">std::codecvt_base</text>
</a>
</g>
</g>
<!-- Node4&#45;&gt;Node2 -->
<g id="edge3" class="edge"><title>Node4&#45;&gt;Node2</title>
<path fill="none" stroke="midnightblue" d="M131.642,-132.316C124.382,-123.521 115.385,-112.62 107.899,-103.551"/>
<polygon fill="midnightblue" stroke="midnightblue" points="129.137,-134.78 138.202,-140.264 134.536,-130.324 129.137,-134.78"/>
</g>
</g>
</svg>
