<?xml version="1.0" encoding="UTF-8" standalone="no"?>
<!DOCTYPE svg PUBLIC "-//W3C//DTD SVG 1.1//EN"
 "http://www.w3.org/Graphics/SVG/1.1/DTD/svg11.dtd">
<!-- Generated by graphviz version 2.38.0 (20140413.2041)
 -->
<!-- Title: std::codecvt&lt; char, char, mbstate_t &gt; Pages: 1 -->
<svg width="198pt" height="157pt"
 viewBox="0.00 0.00 198.00 157.00" xmlns="http://www.w3.org/2000/svg" xmlns:xlink="http://www.w3.org/1999/xlink">
<g id="graph0" class="graph" transform="scale(1 1) rotate(0) translate(4 153)">
<title>std::codecvt&lt; char, char, mbstate_t &gt;</title>
<polygon fill="white" stroke="none" points="-4,4 -4,-153 194,-153 194,4 -4,4"/>
<!-- Node1 -->
<g id="node1" class="node"><title>Node1</title>
<polygon fill="#bfbfbf" stroke="black" points="47,-0.5 47,-28.5 139,-28.5 139,-0.5 47,-0.5"/>
<text text-anchor="start" x="55" y="-17.3" font-family="Helvetica,sans-Serif" font-size="9.00">std::codecvt&lt; char,</text>
<text text-anchor="middle" x="93" y="-7.3" font-family="Helvetica,sans-Serif" font-size="9.00"> char, mbstate_t &gt;</text>
</g>
<!-- Node2 -->
<g id="node2" class="node"><title>Node2</title>
<g id="a_node2"><a xlink:href="a00002.html" target="_top" xlink:title="std::__codecvt_abstract\l_base\&lt; char, char, mbstate_t \&gt;">
<polygon fill="white" stroke="black" points="22,-65.5 22,-93.5 164,-93.5 164,-65.5 22,-65.5"/>
<text text-anchor="start" x="30" y="-82.3" font-family="Helvetica,sans-Serif" font-size="9.00">std::__codecvt_abstract</text>
<text text-anchor="middle" x="93" y="-72.3" font-family="Helvetica,sans-Serif" font-size="9.00">_base&lt; char, char, mbstate_t &gt;</text>
</a>
</g>
</g>
<!-- Node2&#45;&gt;Node1 -->
<g id="edge1" class="edge"><title>Node2&#45;&gt;Node1</title>
<path fill="none" stroke="midnightblue" d="M93,-55.1641C93,-46.1693 93,-36.2205 93,-28.5369"/>
<polygon fill="midnightblue" stroke="midnightblue" points="89.5001,-55.4463 93,-65.4464 96.5001,-55.4464 89.5001,-55.4463"/>
</g>
<!-- Node3 -->
<g id="node3" class="node"><title>Node3</title>
<g id="a_node3"><a xlink:href="a00624.html" target="_top" xlink:title="Localization functionality base class.The facet class is the base class for a localization feature...">
<polygon fill="white" stroke="black" points="0,-130.5 0,-148.5 82,-148.5 82,-130.5 0,-130.5"/>
<text text-anchor="middle" x="41" y="-137.3" font-family="Helvetica,sans-Serif" font-size="9.00">std::locale::facet</text>
</a>
</g>
</g>
<!-- Node3&#45;&gt;Node2 -->
<g id="edge2" class="edge"><title>Node3&#45;&gt;Node2</title>
<path fill="none" stroke="midnightblue" d="M55.0104,-122.873C63.1436,-113.801 73.2808,-102.494 81.0375,-93.8428"/>
<polygon fill="midnightblue" stroke="midnightblue" points="52.2999,-120.653 48.2304,-130.435 57.5119,-125.326 52.2999,-120.653"/>
</g>
<!-- Node4 -->
<g id="node4" class="node"><title>Node4</title>
<g id="a_node4"><a xlink:href="a00537.html" target="_top" xlink:title="Empty base class for codecvt facet [22.2.1.5]. ">
<polygon fill="white" stroke="black" points="100,-130.5 100,-148.5 190,-148.5 190,-130.5 100,-130.5"/>
<text text-anchor="middle" x="145" y="-137.3" font-family="Helvetica,sans-Serif" font-size="9.00">std::codecvt_base</text>
</a>
</g>
</g>
<!-- Node4&#45;&gt;Node2 -->
<g id="edge3" class="edge"><title>Node4&#45;&gt;Node2</title>
<path fill="none" stroke="midnightblue" d="M130.99,-122.873C122.856,-113.801 112.719,-102.494 104.962,-93.8428"/>
<polygon fill="midnightblue" stroke="midnightblue" points="128.488,-125.326 137.77,-130.435 133.7,-120.653 128.488,-125.326"/>
</g>
</g>
</svg>
