<?xml version="1.0" encoding="UTF-8" standalone="no"?>
<!DOCTYPE svg PUBLIC "-//W3C//DTD SVG 1.1//EN"
 "http://www.w3.org/Graphics/SVG/1.1/DTD/svg11.dtd">
<!-- Generated by graphviz version 2.38.0 (20140413.2041)
 -->
<!-- Title: std::codecvt_base Pages: 1 -->
<svg width="582pt" height="322pt"
 viewBox="0.00 0.00 582.00 322.00" xmlns="http://www.w3.org/2000/svg" xmlns:xlink="http://www.w3.org/1999/xlink">
<g id="graph0" class="graph" transform="scale(1 1) rotate(0) translate(4 318)">
<title>std::codecvt_base</title>
<polygon fill="white" stroke="none" points="-4,4 -4,-318 578,-318 578,4 -4,4"/>
<!-- Node1 -->
<g id="node1" class="node"><title>Node1</title>
<polygon fill="#bfbfbf" stroke="black" points="0,-152.5 0,-170.5 90,-170.5 90,-152.5 0,-152.5"/>
<text text-anchor="middle" x="45" y="-159.3" font-family="Helvetica,sans-Serif" font-size="9.00">std::codecvt_base</text>
</g>
<!-- Node2 -->
<g id="node2" class="node"><title>Node2</title>
<g id="a_node2"><a xlink:href="a00002.html" target="_top" xlink:title="std::__codecvt_abstract\l_base\&lt; _InternT, _ExternT,\l encoding_state \&gt;">
<polygon fill="white" stroke="black" points="133.5,-275.5 133.5,-313.5 260.5,-313.5 260.5,-275.5 133.5,-275.5"/>
<text text-anchor="start" x="141.5" y="-302.3" font-family="Helvetica,sans-Serif" font-size="9.00">std::__codecvt_abstract</text>
<text text-anchor="start" x="141.5" y="-292.3" font-family="Helvetica,sans-Serif" font-size="9.00">_base&lt; _InternT, _ExternT,</text>
<text text-anchor="middle" x="197" y="-282.3" font-family="Helvetica,sans-Serif" font-size="9.00"> encoding_state &gt;</text>
</a>
</g>
</g>
<!-- Node1&#45;&gt;Node2 -->
<g id="edge1" class="edge"><title>Node1&#45;&gt;Node2</title>
<path fill="none" stroke="midnightblue" d="M55.7436,-179.748C68.8989,-202.829 94.377,-242.454 126,-266.5 130.376,-269.827 135.2,-272.817 140.208,-275.489"/>
<polygon fill="midnightblue" stroke="midnightblue" points="58.6369,-177.748 50.7329,-170.693 52.512,-181.137 58.6369,-177.748"/>
</g>
<!-- Node4 -->
<g id="node4" class="node"><title>Node4</title>
<g id="a_node4"><a xlink:href="a00002.html" target="_top" xlink:title="std::__codecvt_abstract\l_base\&lt; char, char, mbstate_t \&gt;">
<polygon fill="white" stroke="black" points="126,-228.5 126,-256.5 268,-256.5 268,-228.5 126,-228.5"/>
<text text-anchor="start" x="134" y="-245.3" font-family="Helvetica,sans-Serif" font-size="9.00">std::__codecvt_abstract</text>
<text text-anchor="middle" x="197" y="-235.3" font-family="Helvetica,sans-Serif" font-size="9.00">_base&lt; char, char, mbstate_t &gt;</text>
</a>
</g>
</g>
<!-- Node1&#45;&gt;Node4 -->
<g id="edge3" class="edge"><title>Node1&#45;&gt;Node4</title>
<path fill="none" stroke="midnightblue" d="M63.9448,-177.027C79.4993,-189.846 103.057,-207.777 126,-219.5 132.493,-222.818 139.565,-225.798 146.636,-228.427"/>
<polygon fill="midnightblue" stroke="midnightblue" points="66.0889,-174.257 56.1816,-170.503 61.5853,-179.616 66.0889,-174.257"/>
</g>
<!-- Node6 -->
<g id="node6" class="node"><title>Node6</title>
<g id="a_node6"><a xlink:href="a00002.html" target="_top" xlink:title="std::__codecvt_abstract\l_base\&lt; char16_t, char,\l mbstate_t \&gt;">
<polygon fill="white" stroke="black" points="140.5,-171.5 140.5,-209.5 253.5,-209.5 253.5,-171.5 140.5,-171.5"/>
<text text-anchor="start" x="148.5" y="-198.3" font-family="Helvetica,sans-Serif" font-size="9.00">std::__codecvt_abstract</text>
<text text-anchor="start" x="148.5" y="-188.3" font-family="Helvetica,sans-Serif" font-size="9.00">_base&lt; char16_t, char,</text>
<text text-anchor="middle" x="197" y="-178.3" font-family="Helvetica,sans-Serif" font-size="9.00"> mbstate_t &gt;</text>
</a>
</g>
</g>
<!-- Node1&#45;&gt;Node6 -->
<g id="edge5" class="edge"><title>Node1&#45;&gt;Node6</title>
<path fill="none" stroke="midnightblue" d="M100.019,-171.944C113.144,-174.481 127.202,-177.199 140.399,-179.75"/>
<polygon fill="midnightblue" stroke="midnightblue" points="100.676,-168.506 90.1936,-170.044 99.3475,-175.379 100.676,-168.506"/>
</g>
<!-- Node8 -->
<g id="node8" class="node"><title>Node8</title>
<g id="a_node8"><a xlink:href="a00002.html" target="_top" xlink:title="std::__codecvt_abstract\l_base\&lt; char32_t, char,\l mbstate_t \&gt;">
<polygon fill="white" stroke="black" points="140.5,-114.5 140.5,-152.5 253.5,-152.5 253.5,-114.5 140.5,-114.5"/>
<text text-anchor="start" x="148.5" y="-141.3" font-family="Helvetica,sans-Serif" font-size="9.00">std::__codecvt_abstract</text>
<text text-anchor="start" x="148.5" y="-131.3" font-family="Helvetica,sans-Serif" font-size="9.00">_base&lt; char32_t, char,</text>
<text text-anchor="middle" x="197" y="-121.3" font-family="Helvetica,sans-Serif" font-size="9.00"> mbstate_t &gt;</text>
</a>
</g>
</g>
<!-- Node1&#45;&gt;Node8 -->
<g id="edge7" class="edge"><title>Node1&#45;&gt;Node8</title>
<path fill="none" stroke="midnightblue" d="M100.405,-151.344C113.42,-148.915 127.331,-146.318 140.399,-143.879"/>
<polygon fill="midnightblue" stroke="midnightblue" points="99.3816,-147.975 90.1936,-153.251 100.666,-154.856 99.3816,-147.975"/>
</g>
<!-- Node10 -->
<g id="node10" class="node"><title>Node10</title>
<g id="a_node10"><a xlink:href="a00002.html" target="_top" xlink:title="std::__codecvt_abstract\l_base\&lt; wchar_t, char,\l mbstate_t \&gt;">
<polygon fill="white" stroke="black" points="140.5,-57.5 140.5,-95.5 253.5,-95.5 253.5,-57.5 140.5,-57.5"/>
<text text-anchor="start" x="148.5" y="-84.3" font-family="Helvetica,sans-Serif" font-size="9.00">std::__codecvt_abstract</text>
<text text-anchor="start" x="148.5" y="-74.3" font-family="Helvetica,sans-Serif" font-size="9.00">_base&lt; wchar_t, char,</text>
<text text-anchor="middle" x="197" y="-64.3" font-family="Helvetica,sans-Serif" font-size="9.00"> mbstate_t &gt;</text>
</a>
</g>
</g>
<!-- Node1&#45;&gt;Node10 -->
<g id="edge9" class="edge"><title>Node1&#45;&gt;Node10</title>
<path fill="none" stroke="midnightblue" d="M65.3359,-146.161C81.0742,-134.129 104.178,-117.471 126,-105.5 132.343,-102.02 139.192,-98.6973 146.036,-95.6241"/>
<polygon fill="midnightblue" stroke="midnightblue" points="63.163,-143.417 57.405,-152.311 67.4524,-148.949 63.163,-143.417"/>
</g>
<!-- Node12 -->
<g id="node12" class="node"><title>Node12</title>
<g id="a_node12"><a xlink:href="a00002.html" target="_top" xlink:title="Common base for codecvt functions. ">
<polygon fill="white" stroke="black" points="133.5,-0.5 133.5,-38.5 260.5,-38.5 260.5,-0.5 133.5,-0.5"/>
<text text-anchor="start" x="141.5" y="-27.3" font-family="Helvetica,sans-Serif" font-size="9.00">std::__codecvt_abstract</text>
<text text-anchor="start" x="141.5" y="-17.3" font-family="Helvetica,sans-Serif" font-size="9.00">_base&lt; _InternT, _ExternT,</text>
<text text-anchor="middle" x="197" y="-7.3" font-family="Helvetica,sans-Serif" font-size="9.00"> _StateT &gt;</text>
</a>
</g>
</g>
<!-- Node1&#45;&gt;Node12 -->
<g id="edge11" class="edge"><title>Node1&#45;&gt;Node12</title>
<path fill="none" stroke="midnightblue" d="M54.7271,-143.301C67.3341,-118.734 92.8154,-74.994 126,-48.5 130.626,-44.8067 135.789,-41.5157 141.156,-38.5998"/>
<polygon fill="midnightblue" stroke="midnightblue" points="51.5864,-141.756 50.2629,-152.268 57.8528,-144.876 51.5864,-141.756"/>
</g>
<!-- Node3 -->
<g id="node3" class="node"><title>Node3</title>
<g id="a_node3"><a xlink:href="a00532.html" target="_top" xlink:title="codecvt&lt;InternT, _ExternT, encoding_state&gt; specialization. ">
<polygon fill="white" stroke="black" points="304,-280.5 304,-308.5 435,-308.5 435,-280.5 304,-280.5"/>
<text text-anchor="start" x="312" y="-297.3" font-family="Helvetica,sans-Serif" font-size="9.00">std::codecvt&lt; _InternT,</text>
<text text-anchor="middle" x="369.5" y="-287.3" font-family="Helvetica,sans-Serif" font-size="9.00"> _ExternT, encoding_state &gt;</text>
</a>
</g>
</g>
<!-- Node2&#45;&gt;Node3 -->
<g id="edge2" class="edge"><title>Node2&#45;&gt;Node3</title>
<path fill="none" stroke="midnightblue" d="M270.603,-294.5C281.697,-294.5 293.082,-294.5 303.986,-294.5"/>
<polygon fill="midnightblue" stroke="midnightblue" points="270.52,-291 260.52,-294.5 270.52,-298 270.52,-291"/>
</g>
<!-- Node5 -->
<g id="node5" class="node"><title>Node5</title>
<g id="a_node5"><a xlink:href="a00533.html" target="_top" xlink:title="class codecvt&lt;char, char, mbstate_t&gt; specialization. ">
<polygon fill="white" stroke="black" points="323.5,-228.5 323.5,-256.5 415.5,-256.5 415.5,-228.5 323.5,-228.5"/>
<text text-anchor="start" x="331.5" y="-245.3" font-family="Helvetica,sans-Serif" font-size="9.00">std::codecvt&lt; char,</text>
<text text-anchor="middle" x="369.5" y="-235.3" font-family="Helvetica,sans-Serif" font-size="9.00"> char, mbstate_t &gt;</text>
</a>
</g>
</g>
<!-- Node4&#45;&gt;Node5 -->
<g id="edge4" class="edge"><title>Node4&#45;&gt;Node5</title>
<path fill="none" stroke="midnightblue" d="M278.395,-242.5C293.784,-242.5 309.385,-242.5 323.183,-242.5"/>
<polygon fill="midnightblue" stroke="midnightblue" points="278.333,-239 268.333,-242.5 278.333,-246 278.333,-239"/>
</g>
<!-- Node7 -->
<g id="node7" class="node"><title>Node7</title>
<g id="a_node7"><a xlink:href="a00534.html" target="_top" xlink:title="Class codecvt&lt;char16_t, char, mbstate_t&gt; specialization. ">
<polygon fill="white" stroke="black" points="319,-176.5 319,-204.5 420,-204.5 420,-176.5 319,-176.5"/>
<text text-anchor="start" x="327" y="-193.3" font-family="Helvetica,sans-Serif" font-size="9.00">std::codecvt&lt; char16</text>
<text text-anchor="middle" x="369.5" y="-183.3" font-family="Helvetica,sans-Serif" font-size="9.00">_t, char, mbstate_t &gt;</text>
</a>
</g>
</g>
<!-- Node6&#45;&gt;Node7 -->
<g id="edge6" class="edge"><title>Node6&#45;&gt;Node7</title>
<path fill="none" stroke="midnightblue" d="M263.837,-190.5C282.127,-190.5 301.677,-190.5 318.869,-190.5"/>
<polygon fill="midnightblue" stroke="midnightblue" points="263.828,-187 253.828,-190.5 263.828,-194 263.828,-187"/>
</g>
<!-- Node9 -->
<g id="node9" class="node"><title>Node9</title>
<g id="a_node9"><a xlink:href="a00535.html" target="_top" xlink:title="Class codecvt&lt;char32_t, char, mbstate_t&gt; specialization. ">
<polygon fill="white" stroke="black" points="319,-119.5 319,-147.5 420,-147.5 420,-119.5 319,-119.5"/>
<text text-anchor="start" x="327" y="-136.3" font-family="Helvetica,sans-Serif" font-size="9.00">std::codecvt&lt; char32</text>
<text text-anchor="middle" x="369.5" y="-126.3" font-family="Helvetica,sans-Serif" font-size="9.00">_t, char, mbstate_t &gt;</text>
</a>
</g>
</g>
<!-- Node8&#45;&gt;Node9 -->
<g id="edge8" class="edge"><title>Node8&#45;&gt;Node9</title>
<path fill="none" stroke="midnightblue" d="M263.837,-133.5C282.127,-133.5 301.677,-133.5 318.869,-133.5"/>
<polygon fill="midnightblue" stroke="midnightblue" points="263.828,-130 253.828,-133.5 263.828,-137 263.828,-130"/>
</g>
<!-- Node11 -->
<g id="node11" class="node"><title>Node11</title>
<g id="a_node11"><a xlink:href="a00536.html" target="_top" xlink:title="Class codecvt&lt;wchar_t, char, mbstate_t&gt; specialization. ">
<polygon fill="white" stroke="black" points="320.5,-62.5 320.5,-90.5 418.5,-90.5 418.5,-62.5 320.5,-62.5"/>
<text text-anchor="start" x="328.5" y="-79.3" font-family="Helvetica,sans-Serif" font-size="9.00">std::codecvt&lt; wchar</text>
<text text-anchor="middle" x="369.5" y="-69.3" font-family="Helvetica,sans-Serif" font-size="9.00">_t, char, mbstate_t &gt;</text>
</a>
</g>
</g>
<!-- Node10&#45;&gt;Node11 -->
<g id="edge10" class="edge"><title>Node10&#45;&gt;Node11</title>
<path fill="none" stroke="midnightblue" d="M264.072,-76.5C282.797,-76.5 302.823,-76.5 320.279,-76.5"/>
<polygon fill="midnightblue" stroke="midnightblue" points="263.828,-73.0001 253.828,-76.5 263.828,-80.0001 263.828,-73.0001"/>
</g>
<!-- Node13 -->
<g id="node13" class="node"><title>Node13</title>
<g id="a_node13"><a xlink:href="a00531.html" target="_top" xlink:title="Primary class template codecvt.NB: Generic, mostly useless implementation. ">
<polygon fill="white" stroke="black" points="315.5,-5.5 315.5,-33.5 423.5,-33.5 423.5,-5.5 315.5,-5.5"/>
<text text-anchor="start" x="323.5" y="-22.3" font-family="Helvetica,sans-Serif" font-size="9.00">std::codecvt&lt; _InternT,</text>
<text text-anchor="middle" x="369.5" y="-12.3" font-family="Helvetica,sans-Serif" font-size="9.00"> _ExternT, _StateT &gt;</text>
</a>
</g>
</g>
<!-- Node12&#45;&gt;Node13 -->
<g id="edge12" class="edge"><title>Node12&#45;&gt;Node13</title>
<path fill="none" stroke="midnightblue" d="M270.754,-19.5C285.69,-19.5 301.15,-19.5 315.245,-19.5"/>
<polygon fill="midnightblue" stroke="midnightblue" points="270.52,-16.0001 260.52,-19.5 270.52,-23.0001 270.52,-16.0001"/>
</g>
<!-- Node14 -->
<g id="node14" class="node"><title>Node14</title>
<g id="a_node14"><a xlink:href="a00538.html" target="_top" xlink:title="class codecvt_byname [22.2.1.6]. ">
<polygon fill="white" stroke="black" points="471,-0.5 471,-38.5 574,-38.5 574,-0.5 471,-0.5"/>
<text text-anchor="start" x="479" y="-27.3" font-family="Helvetica,sans-Serif" font-size="9.00">std::codecvt_byname</text>
<text text-anchor="start" x="479" y="-17.3" font-family="Helvetica,sans-Serif" font-size="9.00">&lt; _InternT, _ExternT,</text>
<text text-anchor="middle" x="522.5" y="-7.3" font-family="Helvetica,sans-Serif" font-size="9.00"> _StateT &gt;</text>
</a>
</g>
</g>
<!-- Node13&#45;&gt;Node14 -->
<g id="edge13" class="edge"><title>Node13&#45;&gt;Node14</title>
<path fill="none" stroke="midnightblue" d="M433.929,-19.5C446.221,-19.5 458.951,-19.5 470.77,-19.5"/>
<polygon fill="midnightblue" stroke="midnightblue" points="433.737,-16.0001 423.737,-19.5 433.737,-23.0001 433.737,-16.0001"/>
</g>
</g>
</svg>
