<?xml version="1.0" encoding="UTF-8" standalone="no"?>
<!DOCTYPE svg PUBLIC "-//W3C//DTD SVG 1.1//EN"
 "http://www.w3.org/Graphics/SVG/1.1/DTD/svg11.dtd">
<!-- Generated by graphviz version 2.38.0 (20140413.2041)
 -->
<!-- Title: std::__codecvt_abstract_base&lt; _InternT, _ExternT, _StateT &gt; Pages: 1 -->
<svg width="198pt" height="242pt"
 viewBox="0.00 0.00 198.00 242.00" xmlns="http://www.w3.org/2000/svg" xmlns:xlink="http://www.w3.org/1999/xlink">
<g id="graph0" class="graph" transform="scale(1 1) rotate(0) translate(4 238)">
<title>std::__codecvt_abstract_base&lt; _InternT, _ExternT, _StateT &gt;</title>
<polygon fill="white" stroke="none" points="-4,4 -4,-238 194,-238 194,4 -4,4"/>
<!-- Node1 -->
<g id="node1" class="node"><title>Node1</title>
<polygon fill="#bfbfbf" stroke="black" points="29.5,-140.5 29.5,-178.5 156.5,-178.5 156.5,-140.5 29.5,-140.5"/>
<text text-anchor="start" x="37.5" y="-167.3" font-family="Helvetica,sans-Serif" font-size="9.00">std::__codecvt_abstract</text>
<text text-anchor="start" x="37.5" y="-157.3" font-family="Helvetica,sans-Serif" font-size="9.00">_base&lt; _InternT, _ExternT,</text>
<text text-anchor="middle" x="93" y="-147.3" font-family="Helvetica,sans-Serif" font-size="9.00"> _StateT &gt;</text>
</g>
<!-- Node4 -->
<g id="node4" class="node"><title>Node4</title>
<g id="a_node4"><a xlink:href="a00531.html" target="_top" xlink:title="Primary class template codecvt.NB: Generic, mostly useless implementation. ">
<polygon fill="white" stroke="black" points="39,-75.5 39,-103.5 147,-103.5 147,-75.5 39,-75.5"/>
<text text-anchor="start" x="47" y="-92.3" font-family="Helvetica,sans-Serif" font-size="9.00">std::codecvt&lt; _InternT,</text>
<text text-anchor="middle" x="93" y="-82.3" font-family="Helvetica,sans-Serif" font-size="9.00"> _ExternT, _StateT &gt;</text>
</a>
</g>
</g>
<!-- Node1&#45;&gt;Node4 -->
<g id="edge3" class="edge"><title>Node1&#45;&gt;Node4</title>
<path fill="none" stroke="midnightblue" d="M93,-130.013C93,-120.921 93,-111.289 93,-103.81"/>
<polygon fill="midnightblue" stroke="midnightblue" points="89.5001,-130.277 93,-140.277 96.5001,-130.277 89.5001,-130.277"/>
</g>
<!-- Node2 -->
<g id="node2" class="node"><title>Node2</title>
<g id="a_node2"><a xlink:href="a00624.html" target="_top" xlink:title="Localization functionality base class.The facet class is the base class for a localization feature...">
<polygon fill="white" stroke="black" points="0,-215.5 0,-233.5 82,-233.5 82,-215.5 0,-215.5"/>
<text text-anchor="middle" x="41" y="-222.3" font-family="Helvetica,sans-Serif" font-size="9.00">std::locale::facet</text>
</a>
</g>
</g>
<!-- Node2&#45;&gt;Node1 -->
<g id="edge1" class="edge"><title>Node2&#45;&gt;Node1</title>
<path fill="none" stroke="midnightblue" d="M54.358,-207.316C61.6176,-198.521 70.6152,-187.62 78.1011,-178.551"/>
<polygon fill="midnightblue" stroke="midnightblue" points="51.4645,-205.324 47.7981,-215.264 56.8631,-209.78 51.4645,-205.324"/>
</g>
<!-- Node3 -->
<g id="node3" class="node"><title>Node3</title>
<g id="a_node3"><a xlink:href="a00537.html" target="_top" xlink:title="Empty base class for codecvt facet [22.2.1.5]. ">
<polygon fill="white" stroke="black" points="100,-215.5 100,-233.5 190,-233.5 190,-215.5 100,-215.5"/>
<text text-anchor="middle" x="145" y="-222.3" font-family="Helvetica,sans-Serif" font-size="9.00">std::codecvt_base</text>
</a>
</g>
</g>
<!-- Node3&#45;&gt;Node1 -->
<g id="edge2" class="edge"><title>Node3&#45;&gt;Node1</title>
<path fill="none" stroke="midnightblue" d="M131.642,-207.316C124.382,-198.521 115.385,-187.62 107.899,-178.551"/>
<polygon fill="midnightblue" stroke="midnightblue" points="129.137,-209.78 138.202,-215.264 134.536,-205.324 129.137,-209.78"/>
</g>
<!-- Node5 -->
<g id="node5" class="node"><title>Node5</title>
<g id="a_node5"><a xlink:href="a00538.html" target="_top" xlink:title="class codecvt_byname [22.2.1.6]. ">
<polygon fill="white" stroke="black" points="41.5,-0.5 41.5,-38.5 144.5,-38.5 144.5,-0.5 41.5,-0.5"/>
<text text-anchor="start" x="49.5" y="-27.3" font-family="Helvetica,sans-Serif" font-size="9.00">std::codecvt_byname</text>
<text text-anchor="start" x="49.5" y="-17.3" font-family="Helvetica,sans-Serif" font-size="9.00">&lt; _InternT, _ExternT,</text>
<text text-anchor="middle" x="93" y="-7.3" font-family="Helvetica,sans-Serif" font-size="9.00"> _StateT &gt;</text>
</a>
</g>
</g>
<!-- Node4&#45;&gt;Node5 -->
<g id="edge4" class="edge"><title>Node4&#45;&gt;Node5</title>
<path fill="none" stroke="midnightblue" d="M93,-65.172C93,-56.5199 93,-46.8416 93,-38.7116"/>
<polygon fill="midnightblue" stroke="midnightblue" points="89.5001,-65.3889 93,-75.3889 96.5001,-65.389 89.5001,-65.3889"/>
</g>
</g>
</svg>
