<?xml version="1.0" encoding="UTF-8" standalone="no"?>
<!DOCTYPE svg PUBLIC "-//W3C//DTD SVG 1.1//EN"
 "http://www.w3.org/Graphics/SVG/1.1/DTD/svg11.dtd">
<!-- Generated by graphviz version 2.38.0 (20140413.2041)
 -->
<!-- Title: std::binary_negate&lt; _Predicate &gt; Pages: 1 -->
<svg width="267pt" height="57pt"
 viewBox="0.00 0.00 267.00 57.00" xmlns="http://www.w3.org/2000/svg" xmlns:xlink="http://www.w3.org/1999/xlink">
<g id="graph0" class="graph" transform="scale(1 1) rotate(0) translate(4 53)">
<title>std::binary_negate&lt; _Predicate &gt;</title>
<polygon fill="white" stroke="none" points="-4,4 -4,-53 263,-53 263,4 -4,4"/>
<!-- Node1 -->
<g id="node1" class="node"><title>Node1</title>
<polygon fill="#bfbfbf" stroke="black" points="167,-10.5 167,-38.5 259,-38.5 259,-10.5 167,-10.5"/>
<text text-anchor="start" x="175" y="-27.3" font-family="Helvetica,sans-Serif" font-size="9.00">std::binary_negate</text>
<text text-anchor="middle" x="213" y="-17.3" font-family="Helvetica,sans-Serif" font-size="9.00">&lt; _Predicate &gt;</text>
</g>
<!-- Node2 -->
<g id="node2" class="node"><title>Node2</title>
<g id="a_node2"><a xlink:href="a00423.html" target="_top" xlink:title="std::binary_function\l\&lt; _Predicate::first_argument\l_type, _Predicate::second\l_argument_type, bool \&gt;">
<polygon fill="white" stroke="black" points="0,-0.5 0,-48.5 131,-48.5 131,-0.5 0,-0.5"/>
<text text-anchor="start" x="8" y="-37.3" font-family="Helvetica,sans-Serif" font-size="9.00">std::binary_function</text>
<text text-anchor="start" x="8" y="-27.3" font-family="Helvetica,sans-Serif" font-size="9.00">&lt; _Predicate::first_argument</text>
<text text-anchor="start" x="8" y="-17.3" font-family="Helvetica,sans-Serif" font-size="9.00">_type, _Predicate::second</text>
<text text-anchor="middle" x="65.5" y="-7.3" font-family="Helvetica,sans-Serif" font-size="9.00">_argument_type, bool &gt;</text>
</a>
</g>
</g>
<!-- Node2&#45;&gt;Node1 -->
<g id="edge1" class="edge"><title>Node2&#45;&gt;Node1</title>
<path fill="none" stroke="midnightblue" d="M141.325,-24.5C149.988,-24.5 158.613,-24.5 166.706,-24.5"/>
<polygon fill="midnightblue" stroke="midnightblue" points="141.166,-21.0001 131.166,-24.5 141.166,-28.0001 141.166,-21.0001"/>
</g>
</g>
</svg>
