<?xml version="1.0" encoding="UTF-8" standalone="no"?>
<!DOCTYPE svg PUBLIC "-//W3C//DTD SVG 1.1//EN"
 "http://www.w3.org/Graphics/SVG/1.1/DTD/svg11.dtd">
<!-- Generated by graphviz version 2.38.0 (20140413.2041)
 -->
<!-- Title: std::binder2nd&lt; _Operation &gt; Pages: 1 -->
<svg width="144pt" height="112pt"
 viewBox="0.00 0.00 144.00 112.00" xmlns="http://www.w3.org/2000/svg" xmlns:xlink="http://www.w3.org/1999/xlink">
<g id="graph0" class="graph" transform="scale(1 1) rotate(0) translate(4 108)">
<title>std::binder2nd&lt; _Operation &gt;</title>
<polygon fill="white" stroke="none" points="-4,4 -4,-108 140,-108 140,4 -4,4"/>
<!-- Node1 -->
<g id="node1" class="node"><title>Node1</title>
<polygon fill="#bfbfbf" stroke="black" points="0,-0.5 0,-18.5 136,-18.5 136,-0.5 0,-0.5"/>
<text text-anchor="middle" x="68" y="-7.3" font-family="Helvetica,sans-Serif" font-size="9.00">std::binder2nd&lt; _Operation &gt;</text>
</g>
<!-- Node2 -->
<g id="node2" class="node"><title>Node2</title>
<g id="a_node2"><a xlink:href="a00703.html" target="_top" xlink:title="std::unary_function\l\&lt; _Operation::first\l_argument_type, _Operation\l::result_type \&gt;">
<polygon fill="white" stroke="black" points="1,-55.5 1,-103.5 135,-103.5 135,-55.5 1,-55.5"/>
<text text-anchor="start" x="9" y="-92.3" font-family="Helvetica,sans-Serif" font-size="9.00">std::unary_function</text>
<text text-anchor="start" x="9" y="-82.3" font-family="Helvetica,sans-Serif" font-size="9.00">&lt; _Operation::first</text>
<text text-anchor="start" x="9" y="-72.3" font-family="Helvetica,sans-Serif" font-size="9.00">_argument_type, _Operation</text>
<text text-anchor="middle" x="68" y="-62.3" font-family="Helvetica,sans-Serif" font-size="9.00">::result_type &gt;</text>
</a>
</g>
</g>
<!-- Node2&#45;&gt;Node1 -->
<g id="edge1" class="edge"><title>Node2&#45;&gt;Node1</title>
<path fill="none" stroke="midnightblue" d="M68,-45.2652C68,-35.2963 68,-25.2396 68,-18.5256"/>
<polygon fill="midnightblue" stroke="midnightblue" points="64.5001,-45.4783 68,-55.4783 71.5001,-45.4783 64.5001,-45.4783"/>
</g>
</g>
</svg>
