<?xml version="1.0" encoding="UTF-8" standalone="no"?>
<!DOCTYPE svg PUBLIC "-//W3C//DTD SVG 1.1//EN"
 "http://www.w3.org/Graphics/SVG/1.1/DTD/svg11.dtd">
<!-- Generated by graphviz version 2.38.0 (20140413.2041)
 -->
<!-- Title: std::ctype&lt; wchar_t &gt; Pages: 1 -->
<svg width="188pt" height="147pt"
 viewBox="0.00 0.00 188.00 147.00" xmlns="http://www.w3.org/2000/svg" xmlns:xlink="http://www.w3.org/1999/xlink">
<g id="graph0" class="graph" transform="scale(1 1) rotate(0) translate(4 143)">
<title>std::ctype&lt; wchar_t &gt;</title>
<polygon fill="white" stroke="none" points="-4,4 -4,-143 184,-143 184,4 -4,4"/>
<!-- Node1 -->
<g id="node1" class="node"><title>Node1</title>
<polygon fill="#bfbfbf" stroke="black" points="39,-0.5 39,-18.5 141,-18.5 141,-0.5 39,-0.5"/>
<text text-anchor="middle" x="90" y="-7.3" font-family="Helvetica,sans-Serif" font-size="9.00">std::ctype&lt; wchar_t &gt;</text>
</g>
<!-- Node2 -->
<g id="node2" class="node"><title>Node2</title>
<g id="a_node2"><a xlink:href="a00003.html" target="_top" xlink:title="std::__ctype_abstract\l_base\&lt; wchar_t \&gt;">
<polygon fill="white" stroke="black" points="38.5,-55.5 38.5,-83.5 141.5,-83.5 141.5,-55.5 38.5,-55.5"/>
<text text-anchor="start" x="46.5" y="-72.3" font-family="Helvetica,sans-Serif" font-size="9.00">std::__ctype_abstract</text>
<text text-anchor="middle" x="90" y="-62.3" font-family="Helvetica,sans-Serif" font-size="9.00">_base&lt; wchar_t &gt;</text>
</a>
</g>
</g>
<!-- Node2&#45;&gt;Node1 -->
<g id="edge1" class="edge"><title>Node2&#45;&gt;Node1</title>
<path fill="none" stroke="midnightblue" d="M90,-45.323C90,-35.936 90,-25.7002 90,-18.7715"/>
<polygon fill="midnightblue" stroke="midnightblue" points="86.5001,-45.3389 90,-55.3389 93.5001,-45.3389 86.5001,-45.3389"/>
</g>
<!-- Node3 -->
<g id="node3" class="node"><title>Node3</title>
<g id="a_node3"><a xlink:href="a00624.html" target="_top" xlink:title="Localization functionality base class.The facet class is the base class for a localization feature...">
<polygon fill="white" stroke="black" points="0,-120.5 0,-138.5 82,-138.5 82,-120.5 0,-120.5"/>
<text text-anchor="middle" x="41" y="-127.3" font-family="Helvetica,sans-Serif" font-size="9.00">std::locale::facet</text>
</a>
</g>
</g>
<!-- Node3&#45;&gt;Node2 -->
<g id="edge2" class="edge"><title>Node3&#45;&gt;Node2</title>
<path fill="none" stroke="midnightblue" d="M54.4373,-112.595C62.0608,-103.571 71.4931,-92.4062 78.7277,-83.8428"/>
<polygon fill="midnightblue" stroke="midnightblue" points="51.5932,-110.538 47.8132,-120.435 56.9404,-115.055 51.5932,-110.538"/>
</g>
<!-- Node4 -->
<g id="node4" class="node"><title>Node4</title>
<g id="a_node4"><a xlink:href="a00548.html" target="_top" xlink:title="Base class for ctype. ">
<polygon fill="white" stroke="black" points="100,-120.5 100,-138.5 180,-138.5 180,-120.5 100,-120.5"/>
<text text-anchor="middle" x="140" y="-127.3" font-family="Helvetica,sans-Serif" font-size="9.00">std::ctype_base</text>
</a>
</g>
</g>
<!-- Node4&#45;&gt;Node2 -->
<g id="edge3" class="edge"><title>Node4&#45;&gt;Node2</title>
<path fill="none" stroke="midnightblue" d="M126.288,-112.595C118.509,-103.571 108.885,-92.4062 101.502,-83.8428"/>
<polygon fill="midnightblue" stroke="midnightblue" points="123.867,-115.147 133.048,-120.435 129.169,-110.576 123.867,-115.147"/>
</g>
</g>
</svg>
