<?xml version="1.0" encoding="UTF-8" standalone="no"?>
<!DOCTYPE svg PUBLIC "-//W3C//DTD SVG 1.1//EN"
 "http://www.w3.org/Graphics/SVG/1.1/DTD/svg11.dtd">
<!-- Generated by graphviz version 2.38.0 (20140413.2041)
 -->
<!-- Title: std::insert_iterator&lt; _Container &gt; Pages: 1 -->
<svg width="103pt" height="112pt"
 viewBox="0.00 0.00 103.00 112.00" xmlns="http://www.w3.org/2000/svg" xmlns:xlink="http://www.w3.org/1999/xlink">
<g id="graph0" class="graph" transform="scale(1 1) rotate(0) translate(4 108)">
<title>std::insert_iterator&lt; _Container &gt;</title>
<polygon fill="white" stroke="none" points="-4,4 -4,-108 99,-108 99,4 -4,4"/>
<!-- Node1 -->
<g id="node1" class="node"><title>Node1</title>
<polygon fill="#bfbfbf" stroke="black" points="3,-0.5 3,-28.5 92,-28.5 92,-0.5 3,-0.5"/>
<text text-anchor="start" x="11" y="-17.3" font-family="Helvetica,sans-Serif" font-size="9.00">std::insert_iterator</text>
<text text-anchor="middle" x="47.5" y="-7.3" font-family="Helvetica,sans-Serif" font-size="9.00">&lt; _Container &gt;</text>
</g>
<!-- Node2 -->
<g id="node2" class="node"><title>Node2</title>
<g id="a_node2"><a xlink:href="a00427.html" target="_top" xlink:title="std::iterator\&lt; output\l_iterator_tag, void,\l void, void, void \&gt;">
<polygon fill="white" stroke="black" points="0,-65.5 0,-103.5 95,-103.5 95,-65.5 0,-65.5"/>
<text text-anchor="start" x="8" y="-92.3" font-family="Helvetica,sans-Serif" font-size="9.00">std::iterator&lt; output</text>
<text text-anchor="start" x="8" y="-82.3" font-family="Helvetica,sans-Serif" font-size="9.00">_iterator_tag, void,</text>
<text text-anchor="middle" x="47.5" y="-72.3" font-family="Helvetica,sans-Serif" font-size="9.00"> void, void, void &gt;</text>
</a>
</g>
</g>
<!-- Node2&#45;&gt;Node1 -->
<g id="edge1" class="edge"><title>Node2&#45;&gt;Node1</title>
<path fill="none" stroke="midnightblue" d="M47.5,-55.0135C47.5,-45.9213 47.5,-36.2886 47.5,-28.8104"/>
<polygon fill="midnightblue" stroke="midnightblue" points="44.0001,-55.2772 47.5,-65.2772 51.0001,-55.2773 44.0001,-55.2772"/>
</g>
</g>
</svg>
