<?xml version="1.0" encoding="UTF-8" standalone="no"?>
<!DOCTYPE svg PUBLIC "-//W3C//DTD SVG 1.1//EN"
 "http://www.w3.org/Graphics/SVG/1.1/DTD/svg11.dtd">
<!-- Generated by graphviz version 2.38.0 (20140413.2041)
 -->
<!-- Title: std::ctype&lt; _CharT &gt; Pages: 1 -->
<svg width="188pt" height="212pt"
 viewBox="0.00 0.00 188.00 212.00" xmlns="http://www.w3.org/2000/svg" xmlns:xlink="http://www.w3.org/1999/xlink">
<g id="graph0" class="graph" transform="scale(1 1) rotate(0) translate(4 208)">
<title>std::ctype&lt; _CharT &gt;</title>
<polygon fill="white" stroke="none" points="-4,4 -4,-208 184,-208 184,4 -4,4"/>
<!-- Node1 -->
<g id="node1" class="node"><title>Node1</title>
<polygon fill="#bfbfbf" stroke="black" points="39.5,-65.5 39.5,-83.5 140.5,-83.5 140.5,-65.5 39.5,-65.5"/>
<text text-anchor="middle" x="90" y="-72.3" font-family="Helvetica,sans-Serif" font-size="9.00">std::ctype&lt; _CharT &gt;</text>
</g>
<!-- Node5 -->
<g id="node5" class="node"><title>Node5</title>
<g id="a_node5"><a xlink:href="a00549.html" target="_top" xlink:title="class ctype_byname [22.2.1.2]. ">
<polygon fill="white" stroke="black" points="41,-0.5 41,-28.5 139,-28.5 139,-0.5 41,-0.5"/>
<text text-anchor="start" x="49" y="-17.3" font-family="Helvetica,sans-Serif" font-size="9.00">std::ctype_byname&lt;</text>
<text text-anchor="middle" x="90" y="-7.3" font-family="Helvetica,sans-Serif" font-size="9.00"> _CharT &gt;</text>
</a>
</g>
</g>
<!-- Node1&#45;&gt;Node5 -->
<g id="edge4" class="edge"><title>Node1&#45;&gt;Node5</title>
<path fill="none" stroke="midnightblue" d="M90,-55.3209C90,-46.747 90,-36.6999 90,-28.8428"/>
<polygon fill="midnightblue" stroke="midnightblue" points="86.5001,-55.4353 90,-65.4353 93.5001,-55.4354 86.5001,-55.4353"/>
</g>
<!-- Node2 -->
<g id="node2" class="node"><title>Node2</title>
<g id="a_node2"><a xlink:href="a00003.html" target="_top" xlink:title="Common base for ctype facet. ">
<polygon fill="white" stroke="black" points="38.5,-120.5 38.5,-148.5 141.5,-148.5 141.5,-120.5 38.5,-120.5"/>
<text text-anchor="start" x="46.5" y="-137.3" font-family="Helvetica,sans-Serif" font-size="9.00">std::__ctype_abstract</text>
<text text-anchor="middle" x="90" y="-127.3" font-family="Helvetica,sans-Serif" font-size="9.00">_base&lt; _CharT &gt;</text>
</a>
</g>
</g>
<!-- Node2&#45;&gt;Node1 -->
<g id="edge1" class="edge"><title>Node2&#45;&gt;Node1</title>
<path fill="none" stroke="midnightblue" d="M90,-110.323C90,-100.936 90,-90.7002 90,-83.7715"/>
<polygon fill="midnightblue" stroke="midnightblue" points="86.5001,-110.339 90,-120.339 93.5001,-110.339 86.5001,-110.339"/>
</g>
<!-- Node3 -->
<g id="node3" class="node"><title>Node3</title>
<g id="a_node3"><a xlink:href="a00624.html" target="_top" xlink:title="Localization functionality base class.The facet class is the base class for a localization feature...">
<polygon fill="white" stroke="black" points="0,-185.5 0,-203.5 82,-203.5 82,-185.5 0,-185.5"/>
<text text-anchor="middle" x="41" y="-192.3" font-family="Helvetica,sans-Serif" font-size="9.00">std::locale::facet</text>
</a>
</g>
</g>
<!-- Node3&#45;&gt;Node2 -->
<g id="edge2" class="edge"><title>Node3&#45;&gt;Node2</title>
<path fill="none" stroke="midnightblue" d="M54.4373,-177.595C62.0608,-168.571 71.4931,-157.406 78.7277,-148.843"/>
<polygon fill="midnightblue" stroke="midnightblue" points="51.5932,-175.538 47.8132,-185.435 56.9404,-180.055 51.5932,-175.538"/>
</g>
<!-- Node4 -->
<g id="node4" class="node"><title>Node4</title>
<g id="a_node4"><a xlink:href="a00548.html" target="_top" xlink:title="Base class for ctype. ">
<polygon fill="white" stroke="black" points="100,-185.5 100,-203.5 180,-203.5 180,-185.5 100,-185.5"/>
<text text-anchor="middle" x="140" y="-192.3" font-family="Helvetica,sans-Serif" font-size="9.00">std::ctype_base</text>
</a>
</g>
</g>
<!-- Node4&#45;&gt;Node2 -->
<g id="edge3" class="edge"><title>Node4&#45;&gt;Node2</title>
<path fill="none" stroke="midnightblue" d="M126.288,-177.595C118.509,-168.571 108.885,-157.406 101.502,-148.843"/>
<polygon fill="midnightblue" stroke="midnightblue" points="123.867,-180.147 133.048,-185.435 129.169,-175.576 123.867,-180.147"/>
</g>
</g>
</svg>
