<?xml version="1.0" encoding="UTF-8" standalone="no"?>
<!DOCTYPE svg PUBLIC "-//W3C//DTD SVG 1.1//EN"
 "http://www.w3.org/Graphics/SVG/1.1/DTD/svg11.dtd">
<!-- Generated by graphviz version 2.38.0 (20140413.2041)
 -->
<!-- Title: std::ctype_base Pages: 1 -->
<svg width="499pt" height="126pt"
 viewBox="0.00 0.00 499.00 126.00" xmlns="http://www.w3.org/2000/svg" xmlns:xlink="http://www.w3.org/1999/xlink">
<g id="graph0" class="graph" transform="scale(1 1) rotate(0) translate(4 122)">
<title>std::ctype_base</title>
<polygon fill="white" stroke="none" points="-4,4 -4,-122 495,-122 495,4 -4,4"/>
<!-- Node1 -->
<g id="node1" class="node"><title>Node1</title>
<polygon fill="#bfbfbf" stroke="black" points="0,-47.5 0,-65.5 80,-65.5 80,-47.5 0,-47.5"/>
<text text-anchor="middle" x="40" y="-54.3" font-family="Helvetica,sans-Serif" font-size="9.00">std::ctype_base</text>
</g>
<!-- Node2 -->
<g id="node2" class="node"><title>Node2</title>
<g id="a_node2"><a xlink:href="a00003.html" target="_top" xlink:title="std::__ctype_abstract\l_base\&lt; wchar_t \&gt;">
<polygon fill="white" stroke="black" points="116,-89.5 116,-117.5 219,-117.5 219,-89.5 116,-89.5"/>
<text text-anchor="start" x="124" y="-106.3" font-family="Helvetica,sans-Serif" font-size="9.00">std::__ctype_abstract</text>
<text text-anchor="middle" x="167.5" y="-96.3" font-family="Helvetica,sans-Serif" font-size="9.00">_base&lt; wchar_t &gt;</text>
</a>
</g>
</g>
<!-- Node1&#45;&gt;Node2 -->
<g id="edge1" class="edge"><title>Node1&#45;&gt;Node2</title>
<path fill="none" stroke="midnightblue" d="M74.6157,-69.0892C91.3982,-75.3742 111.754,-82.9976 129.037,-89.4701"/>
<polygon fill="midnightblue" stroke="midnightblue" points="75.79,-65.7916 65.1977,-65.5621 73.335,-72.347 75.79,-65.7916"/>
</g>
<!-- Node4 -->
<g id="node4" class="node"><title>Node4</title>
<g id="a_node4"><a xlink:href="a00003.html" target="_top" xlink:title="Common base for ctype facet. ">
<polygon fill="white" stroke="black" points="116,-42.5 116,-70.5 219,-70.5 219,-42.5 116,-42.5"/>
<text text-anchor="start" x="124" y="-59.3" font-family="Helvetica,sans-Serif" font-size="9.00">std::__ctype_abstract</text>
<text text-anchor="middle" x="167.5" y="-49.3" font-family="Helvetica,sans-Serif" font-size="9.00">_base&lt; _CharT &gt;</text>
</a>
</g>
</g>
<!-- Node1&#45;&gt;Node4 -->
<g id="edge3" class="edge"><title>Node1&#45;&gt;Node4</title>
<path fill="none" stroke="midnightblue" d="M90.1411,-56.5C98.6156,-56.5 107.438,-56.5 115.949,-56.5"/>
<polygon fill="midnightblue" stroke="midnightblue" points="90.0211,-53.0001 80.021,-56.5 90.021,-60.0001 90.0211,-53.0001"/>
</g>
<!-- Node7 -->
<g id="node7" class="node"><title>Node7</title>
<g id="a_node7"><a xlink:href="a00546.html" target="_top" xlink:title="The ctype&lt;char&gt; specialization.This class defines classification and conversion functions for the cha...">
<polygon fill="white" stroke="black" points="123.5,-5.5 123.5,-23.5 211.5,-23.5 211.5,-5.5 123.5,-5.5"/>
<text text-anchor="middle" x="167.5" y="-12.3" font-family="Helvetica,sans-Serif" font-size="9.00">std::ctype&lt; char &gt;</text>
</a>
</g>
</g>
<!-- Node1&#45;&gt;Node7 -->
<g id="edge6" class="edge"><title>Node1&#45;&gt;Node7</title>
<path fill="none" stroke="midnightblue" d="M77.4993,-44.2851C97.2004,-37.6919 121.113,-29.6893 139.189,-23.6401"/>
<polygon fill="midnightblue" stroke="midnightblue" points="76.2952,-40.9972 67.9229,-47.4899 78.5167,-47.6353 76.2952,-40.9972"/>
</g>
<!-- Node3 -->
<g id="node3" class="node"><title>Node3</title>
<g id="a_node3"><a xlink:href="a00547.html" target="_top" xlink:title="The ctype&lt;wchar_t&gt; specialization.This class defines classification and conversion functions for the ...">
<polygon fill="white" stroke="black" points="255,-94.5 255,-112.5 357,-112.5 357,-94.5 255,-94.5"/>
<text text-anchor="middle" x="306" y="-101.3" font-family="Helvetica,sans-Serif" font-size="9.00">std::ctype&lt; wchar_t &gt;</text>
</a>
</g>
</g>
<!-- Node2&#45;&gt;Node3 -->
<g id="edge2" class="edge"><title>Node2&#45;&gt;Node3</title>
<path fill="none" stroke="midnightblue" d="M229.462,-103.5C237.859,-103.5 246.406,-103.5 254.584,-103.5"/>
<polygon fill="midnightblue" stroke="midnightblue" points="229.328,-100 219.328,-103.5 229.328,-107 229.328,-100"/>
</g>
<!-- Node5 -->
<g id="node5" class="node"><title>Node5</title>
<g id="a_node5"><a xlink:href="a00545.html" target="_top" xlink:title="Primary class template ctype facet.This template class defines classification and conversion function...">
<polygon fill="white" stroke="black" points="255.5,-47.5 255.5,-65.5 356.5,-65.5 356.5,-47.5 255.5,-47.5"/>
<text text-anchor="middle" x="306" y="-54.3" font-family="Helvetica,sans-Serif" font-size="9.00">std::ctype&lt; _CharT &gt;</text>
</a>
</g>
</g>
<!-- Node4&#45;&gt;Node5 -->
<g id="edge4" class="edge"><title>Node4&#45;&gt;Node5</title>
<path fill="none" stroke="midnightblue" d="M229.447,-56.5C238.16,-56.5 247.034,-56.5 255.491,-56.5"/>
<polygon fill="midnightblue" stroke="midnightblue" points="229.328,-53.0001 219.328,-56.5 229.328,-60.0001 229.328,-53.0001"/>
</g>
<!-- Node6 -->
<g id="node6" class="node"><title>Node6</title>
<g id="a_node6"><a xlink:href="a00549.html" target="_top" xlink:title="class ctype_byname [22.2.1.2]. ">
<polygon fill="white" stroke="black" points="393,-42.5 393,-70.5 491,-70.5 491,-42.5 393,-42.5"/>
<text text-anchor="start" x="401" y="-59.3" font-family="Helvetica,sans-Serif" font-size="9.00">std::ctype_byname&lt;</text>
<text text-anchor="middle" x="442" y="-49.3" font-family="Helvetica,sans-Serif" font-size="9.00"> _CharT &gt;</text>
</a>
</g>
</g>
<!-- Node5&#45;&gt;Node6 -->
<g id="edge5" class="edge"><title>Node5&#45;&gt;Node6</title>
<path fill="none" stroke="midnightblue" d="M366.603,-56.5C375.292,-56.5 384.149,-56.5 392.58,-56.5"/>
<polygon fill="midnightblue" stroke="midnightblue" points="366.516,-53.0001 356.516,-56.5 366.516,-60.0001 366.516,-53.0001"/>
</g>
<!-- Node8 -->
<g id="node8" class="node"><title>Node8</title>
<g id="a_node8"><a xlink:href="a00550.html" target="_top" xlink:title="22.2.1.4 Class ctype_byname specializations. ">
<polygon fill="white" stroke="black" points="257,-0.5 257,-28.5 355,-28.5 355,-0.5 257,-0.5"/>
<text text-anchor="start" x="265" y="-17.3" font-family="Helvetica,sans-Serif" font-size="9.00">std::ctype_byname&lt;</text>
<text text-anchor="middle" x="306" y="-7.3" font-family="Helvetica,sans-Serif" font-size="9.00"> char &gt;</text>
</a>
</g>
</g>
<!-- Node7&#45;&gt;Node8 -->
<g id="edge7" class="edge"><title>Node7&#45;&gt;Node8</title>
<path fill="none" stroke="midnightblue" d="M222.038,-14.5C233.529,-14.5 245.604,-14.5 256.875,-14.5"/>
<polygon fill="midnightblue" stroke="midnightblue" points="221.689,-11.0001 211.689,-14.5 221.689,-18.0001 221.689,-11.0001"/>
</g>
</g>
</svg>
