<?xml version="1.0" encoding="UTF-8" standalone="no"?>
<!DOCTYPE svg PUBLIC "-//W3C//DTD SVG 1.1//EN"
 "http://www.w3.org/Graphics/SVG/1.1/DTD/svg11.dtd">
<!-- Generated by graphviz version 2.38.0 (20140413.2041)
 -->
<!-- Title: std::hash&lt; __gnu_cxx::throw_value_limit &gt; Pages: 1 -->
<svg width="132pt" height="112pt"
 viewBox="0.00 0.00 132.00 112.00" xmlns="http://www.w3.org/2000/svg" xmlns:xlink="http://www.w3.org/1999/xlink">
<g id="graph0" class="graph" transform="scale(1 1) rotate(0) translate(4 108)">
<title>std::hash&lt; __gnu_cxx::throw_value_limit &gt;</title>
<polygon fill="white" stroke="none" points="-4,4 -4,-108 128,-108 128,4 -4,4"/>
<!-- Node1 -->
<g id="node1" class="node"><title>Node1</title>
<polygon fill="#bfbfbf" stroke="black" points="9,-0.5 9,-28.5 115,-28.5 115,-0.5 9,-0.5"/>
<text text-anchor="start" x="17" y="-17.3" font-family="Helvetica,sans-Serif" font-size="9.00">std::hash&lt; __gnu_cxx</text>
<text text-anchor="middle" x="62" y="-7.3" font-family="Helvetica,sans-Serif" font-size="9.00">::throw_value_limit &gt;</text>
</g>
<!-- Node2 -->
<g id="node2" class="node"><title>Node2</title>
<g id="a_node2"><a xlink:href="a00703.html" target="_top" xlink:title="std::unary_function\l\&lt; __gnu_cxx::throw_value\l_limit, size_t \&gt;">
<polygon fill="white" stroke="black" points="0,-65.5 0,-103.5 124,-103.5 124,-65.5 0,-65.5"/>
<text text-anchor="start" x="8" y="-92.3" font-family="Helvetica,sans-Serif" font-size="9.00">std::unary_function</text>
<text text-anchor="start" x="8" y="-82.3" font-family="Helvetica,sans-Serif" font-size="9.00">&lt; __gnu_cxx::throw_value</text>
<text text-anchor="middle" x="62" y="-72.3" font-family="Helvetica,sans-Serif" font-size="9.00">_limit, size_t &gt;</text>
</a>
</g>
</g>
<!-- Node2&#45;&gt;Node1 -->
<g id="edge1" class="edge"><title>Node2&#45;&gt;Node1</title>
<path fill="none" stroke="midnightblue" d="M62,-55.0135C62,-45.9213 62,-36.2886 62,-28.8104"/>
<polygon fill="midnightblue" stroke="midnightblue" points="58.5001,-55.2772 62,-65.2772 65.5001,-55.2773 58.5001,-55.2772"/>
</g>
</g>
</svg>
