<?xml version="1.0" encoding="UTF-8" standalone="no"?>
<!DOCTYPE svg PUBLIC "-//W3C//DTD SVG 1.1//EN"
 "http://www.w3.org/Graphics/SVG/1.1/DTD/svg11.dtd">
<!-- Generated by graphviz version 2.38.0 (20140413.2041)
 -->
<!-- Title: std::istream_iterator&lt; _Tp, _CharT, _Traits, _Dist &gt; Pages: 1 -->
<svg width="122pt" height="132pt"
 viewBox="0.00 0.00 122.00 132.00" xmlns="http://www.w3.org/2000/svg" xmlns:xlink="http://www.w3.org/1999/xlink">
<g id="graph0" class="graph" transform="scale(1 1) rotate(0) translate(4 128)">
<title>std::istream_iterator&lt; _Tp, _CharT, _Traits, _Dist &gt;</title>
<polygon fill="white" stroke="none" points="-4,4 -4,-128 118,-128 118,4 -4,4"/>
<!-- Node1 -->
<g id="node1" class="node"><title>Node1</title>
<polygon fill="#bfbfbf" stroke="black" points="2,-0.5 2,-38.5 112,-38.5 112,-0.5 2,-0.5"/>
<text text-anchor="start" x="10" y="-27.3" font-family="Helvetica,sans-Serif" font-size="9.00">std::istream_iterator</text>
<text text-anchor="start" x="10" y="-17.3" font-family="Helvetica,sans-Serif" font-size="9.00">&lt; _Tp, _CharT, _Traits,</text>
<text text-anchor="middle" x="57" y="-7.3" font-family="Helvetica,sans-Serif" font-size="9.00"> _Dist &gt;</text>
</g>
<!-- Node2 -->
<g id="node2" class="node"><title>Node2</title>
<g id="a_node2"><a xlink:href="a00427.html" target="_top" xlink:title="std::iterator\&lt; input\l_iterator_tag, _Tp, \l_Dist, const _Tp *, const\l _Tp &amp; \&gt;">
<polygon fill="white" stroke="black" points="0,-75.5 0,-123.5 114,-123.5 114,-75.5 0,-75.5"/>
<text text-anchor="start" x="8" y="-112.3" font-family="Helvetica,sans-Serif" font-size="9.00">std::iterator&lt; input</text>
<text text-anchor="start" x="8" y="-102.3" font-family="Helvetica,sans-Serif" font-size="9.00">_iterator_tag, _Tp, </text>
<text text-anchor="start" x="8" y="-92.3" font-family="Helvetica,sans-Serif" font-size="9.00">_Dist, const _Tp *, const</text>
<text text-anchor="middle" x="57" y="-82.3" font-family="Helvetica,sans-Serif" font-size="9.00"> _Tp &amp; &gt;</text>
</a>
</g>
</g>
<!-- Node2&#45;&gt;Node1 -->
<g id="edge1" class="edge"><title>Node2&#45;&gt;Node1</title>
<path fill="none" stroke="midnightblue" d="M57,-64.8414C57,-55.854 57,-46.4808 57,-38.6799"/>
<polygon fill="midnightblue" stroke="midnightblue" points="53.5001,-65.0974 57,-75.0974 60.5001,-65.0975 53.5001,-65.0974"/>
</g>
</g>
</svg>
