<?xml version="1.0" encoding="UTF-8" standalone="no"?>
<!DOCTYPE svg PUBLIC "-//W3C//DTD SVG 1.1//EN"
 "http://www.w3.org/Graphics/SVG/1.1/DTD/svg11.dtd">
<!-- Generated by graphviz version 2.38.0 (20140413.2041)
 -->
<!-- Title: std::const_mem_fun_ref_t&lt; _Ret, _Tp &gt; Pages: 1 -->
<svg width="106pt" height="102pt"
 viewBox="0.00 0.00 106.00 102.00" xmlns="http://www.w3.org/2000/svg" xmlns:xlink="http://www.w3.org/1999/xlink">
<g id="graph0" class="graph" transform="scale(1 1) rotate(0) translate(4 98)">
<title>std::const_mem_fun_ref_t&lt; _Ret, _Tp &gt;</title>
<polygon fill="white" stroke="none" points="-4,4 -4,-98 102,-98 102,4 -4,4"/>
<!-- Node1 -->
<g id="node1" class="node"><title>Node1</title>
<polygon fill="#bfbfbf" stroke="black" points="0,-0.5 0,-28.5 98,-28.5 98,-0.5 0,-0.5"/>
<text text-anchor="start" x="8" y="-17.3" font-family="Helvetica,sans-Serif" font-size="9.00">std::const_mem_fun</text>
<text text-anchor="middle" x="49" y="-7.3" font-family="Helvetica,sans-Serif" font-size="9.00">_ref_t&lt; _Ret, _Tp &gt;</text>
</g>
<!-- Node2 -->
<g id="node2" class="node"><title>Node2</title>
<g id="a_node2"><a xlink:href="a00703.html" target="_top" xlink:title="std::unary_function\l\&lt; _Tp, _Ret \&gt;">
<polygon fill="white" stroke="black" points="2,-65.5 2,-93.5 96,-93.5 96,-65.5 2,-65.5"/>
<text text-anchor="start" x="10" y="-82.3" font-family="Helvetica,sans-Serif" font-size="9.00">std::unary_function</text>
<text text-anchor="middle" x="49" y="-72.3" font-family="Helvetica,sans-Serif" font-size="9.00">&lt; _Tp, _Ret &gt;</text>
</a>
</g>
</g>
<!-- Node2&#45;&gt;Node1 -->
<g id="edge1" class="edge"><title>Node2&#45;&gt;Node1</title>
<path fill="none" stroke="midnightblue" d="M49,-55.1641C49,-46.1693 49,-36.2205 49,-28.5369"/>
<polygon fill="midnightblue" stroke="midnightblue" points="45.5001,-55.4463 49,-65.4464 52.5001,-55.4464 45.5001,-55.4463"/>
</g>
</g>
</svg>
