<?xml version="1.0" encoding="UTF-8" standalone="no"?>
<!DOCTYPE svg PUBLIC "-//W3C//DTD SVG 1.1//EN"
 "http://www.w3.org/Graphics/SVG/1.1/DTD/svg11.dtd">
<!-- Generated by graphviz version 2.38.0 (20140413.2041)
 -->
<!-- Title: std::istreambuf_iterator&lt; _CharT, _Traits &gt; Pages: 1 -->
<svg width="127pt" height="122pt"
 viewBox="0.00 0.00 127.00 122.00" xmlns="http://www.w3.org/2000/svg" xmlns:xlink="http://www.w3.org/1999/xlink">
<g id="graph0" class="graph" transform="scale(1 1) rotate(0) translate(4 118)">
<title>std::istreambuf_iterator&lt; _CharT, _Traits &gt;</title>
<polygon fill="white" stroke="none" points="-4,4 -4,-118 123,-118 123,4 -4,4"/>
<!-- Node1 -->
<g id="node1" class="node"><title>Node1</title>
<polygon fill="#bfbfbf" stroke="black" points="4.5,-0.5 4.5,-28.5 114.5,-28.5 114.5,-0.5 4.5,-0.5"/>
<text text-anchor="start" x="12.5" y="-17.3" font-family="Helvetica,sans-Serif" font-size="9.00">std::istreambuf_iterator</text>
<text text-anchor="middle" x="59.5" y="-7.3" font-family="Helvetica,sans-Serif" font-size="9.00">&lt; _CharT, _Traits &gt;</text>
</g>
<!-- Node2 -->
<g id="node2" class="node"><title>Node2</title>
<g id="a_node2"><a xlink:href="a00427.html" target="_top" xlink:title="std::iterator\&lt; input\l_iterator_tag, _CharT,\l _Traits::off_type, _CharT\l *, _CharT \&gt;">
<polygon fill="white" stroke="black" points="0,-65.5 0,-113.5 119,-113.5 119,-65.5 0,-65.5"/>
<text text-anchor="start" x="8" y="-102.3" font-family="Helvetica,sans-Serif" font-size="9.00">std::iterator&lt; input</text>
<text text-anchor="start" x="8" y="-92.3" font-family="Helvetica,sans-Serif" font-size="9.00">_iterator_tag, _CharT,</text>
<text text-anchor="start" x="8" y="-82.3" font-family="Helvetica,sans-Serif" font-size="9.00"> _Traits::off_type, _CharT</text>
<text text-anchor="middle" x="59.5" y="-72.3" font-family="Helvetica,sans-Serif" font-size="9.00"> *, _CharT &gt;</text>
</a>
</g>
</g>
<!-- Node2&#45;&gt;Node1 -->
<g id="edge1" class="edge"><title>Node2&#45;&gt;Node1</title>
<path fill="none" stroke="midnightblue" d="M59.5,-55.1577C59.5,-45.8655 59.5,-36.2983 59.5,-28.8893"/>
<polygon fill="midnightblue" stroke="midnightblue" points="56.0001,-55.4023 59.5,-65.4023 63.0001,-55.4024 56.0001,-55.4023"/>
</g>
</g>
</svg>
