<?xml version="1.0" encoding="UTF-8" standalone="no"?>
<!DOCTYPE svg PUBLIC "-//W3C//DTD SVG 1.1//EN"
 "http://www.w3.org/Graphics/SVG/1.1/DTD/svg11.dtd">
<!-- Generated by graphviz version 2.38.0 (20140413.2041)
 -->
<!-- Title: std::ctype&lt; char &gt; Pages: 1 -->
<svg width="188pt" height="147pt"
 viewBox="0.00 0.00 188.00 147.00" xmlns="http://www.w3.org/2000/svg" xmlns:xlink="http://www.w3.org/1999/xlink">
<g id="graph0" class="graph" transform="scale(1 1) rotate(0) translate(4 143)">
<title>std::ctype&lt; char &gt;</title>
<polygon fill="white" stroke="none" points="-4,4 -4,-143 184,-143 184,4 -4,4"/>
<!-- Node1 -->
<g id="node1" class="node"><title>Node1</title>
<polygon fill="#bfbfbf" stroke="black" points="46,-65.5 46,-83.5 134,-83.5 134,-65.5 46,-65.5"/>
<text text-anchor="middle" x="90" y="-72.3" font-family="Helvetica,sans-Serif" font-size="9.00">std::ctype&lt; char &gt;</text>
</g>
<!-- Node4 -->
<g id="node4" class="node"><title>Node4</title>
<g id="a_node4"><a xlink:href="a00550.html" target="_top" xlink:title="22.2.1.4 Class ctype_byname specializations. ">
<polygon fill="white" stroke="black" points="41,-0.5 41,-28.5 139,-28.5 139,-0.5 41,-0.5"/>
<text text-anchor="start" x="49" y="-17.3" font-family="Helvetica,sans-Serif" font-size="9.00">std::ctype_byname&lt;</text>
<text text-anchor="middle" x="90" y="-7.3" font-family="Helvetica,sans-Serif" font-size="9.00"> char &gt;</text>
</a>
</g>
</g>
<!-- Node1&#45;&gt;Node4 -->
<g id="edge3" class="edge"><title>Node1&#45;&gt;Node4</title>
<path fill="none" stroke="midnightblue" d="M90,-55.3209C90,-46.747 90,-36.6999 90,-28.8428"/>
<polygon fill="midnightblue" stroke="midnightblue" points="86.5001,-55.4353 90,-65.4353 93.5001,-55.4354 86.5001,-55.4353"/>
</g>
<!-- Node2 -->
<g id="node2" class="node"><title>Node2</title>
<g id="a_node2"><a xlink:href="a00624.html" target="_top" xlink:title="Localization functionality base class.The facet class is the base class for a localization feature...">
<polygon fill="white" stroke="black" points="0,-120.5 0,-138.5 82,-138.5 82,-120.5 0,-120.5"/>
<text text-anchor="middle" x="41" y="-127.3" font-family="Helvetica,sans-Serif" font-size="9.00">std::locale::facet</text>
</a>
</g>
</g>
<!-- Node2&#45;&gt;Node1 -->
<g id="edge1" class="edge"><title>Node2&#45;&gt;Node1</title>
<path fill="none" stroke="midnightblue" d="M55.4945,-112.822C64.3858,-103.205 75.4001,-91.2917 82.558,-83.5496"/>
<polygon fill="midnightblue" stroke="midnightblue" points="52.8749,-110.5 48.6562,-120.219 58.0148,-115.252 52.8749,-110.5"/>
</g>
<!-- Node3 -->
<g id="node3" class="node"><title>Node3</title>
<g id="a_node3"><a xlink:href="a00548.html" target="_top" xlink:title="Base class for ctype. ">
<polygon fill="white" stroke="black" points="100,-120.5 100,-138.5 180,-138.5 180,-120.5 100,-120.5"/>
<text text-anchor="middle" x="140" y="-127.3" font-family="Helvetica,sans-Serif" font-size="9.00">std::ctype_base</text>
</a>
</g>
</g>
<!-- Node3&#45;&gt;Node1 -->
<g id="edge2" class="edge"><title>Node3&#45;&gt;Node1</title>
<path fill="none" stroke="midnightblue" d="M125.21,-112.822C116.137,-103.205 104.898,-91.2917 97.5939,-83.5496"/>
<polygon fill="midnightblue" stroke="midnightblue" points="122.779,-115.347 132.188,-120.219 127.871,-110.543 122.779,-115.347"/>
</g>
</g>
</svg>
