<?xml version="1.0" encoding="UTF-8" standalone="no"?>
<!DOCTYPE svg PUBLIC "-//W3C//DTD SVG 1.1//EN"
 "http://www.w3.org/Graphics/SVG/1.1/DTD/svg11.dtd">
<!-- Generated by graphviz version 2.38.0 (20140413.2041)
 -->
<!-- Title: std::input_iterator_tag Pages: 1 -->
<svg width="124pt" height="212pt"
 viewBox="0.00 0.00 124.00 212.00" xmlns="http://www.w3.org/2000/svg" xmlns:xlink="http://www.w3.org/1999/xlink">
<g id="graph0" class="graph" transform="scale(1 1) rotate(0) translate(4 208)">
<title>std::input_iterator_tag</title>
<polygon fill="white" stroke="none" points="-4,4 -4,-208 120,-208 120,4 -4,4"/>
<!-- Node1 -->
<g id="node1" class="node"><title>Node1</title>
<polygon fill="#bfbfbf" stroke="black" points="5.5,-185.5 5.5,-203.5 110.5,-203.5 110.5,-185.5 5.5,-185.5"/>
<text text-anchor="middle" x="58" y="-192.3" font-family="Helvetica,sans-Serif" font-size="9.00">std::input_iterator_tag</text>
</g>
<!-- Node2 -->
<g id="node2" class="node"><title>Node2</title>
<g id="a_node2"><a xlink:href="a00565.html" target="_top" xlink:title="Forward iterators support a superset of input iterator operations. ">
<polygon fill="white" stroke="black" points="0,-130.5 0,-148.5 116,-148.5 116,-130.5 0,-130.5"/>
<text text-anchor="middle" x="58" y="-137.3" font-family="Helvetica,sans-Serif" font-size="9.00">std::forward_iterator_tag</text>
</a>
</g>
</g>
<!-- Node1&#45;&gt;Node2 -->
<g id="edge1" class="edge"><title>Node1&#45;&gt;Node2</title>
<path fill="none" stroke="midnightblue" d="M58,-175.175C58,-166.094 58,-155.595 58,-148.55"/>
<polygon fill="midnightblue" stroke="midnightblue" points="54.5001,-175.219 58,-185.219 61.5001,-175.219 54.5001,-175.219"/>
</g>
<!-- Node3 -->
<g id="node3" class="node"><title>Node3</title>
<g id="a_node3"><a xlink:href="a00517.html" target="_top" xlink:title="Bidirectional iterators support a superset of forward iterator operations. ">
<polygon fill="white" stroke="black" points="16.5,-65.5 16.5,-93.5 99.5,-93.5 99.5,-65.5 16.5,-65.5"/>
<text text-anchor="start" x="24.5" y="-82.3" font-family="Helvetica,sans-Serif" font-size="9.00">std::bidirectional</text>
<text text-anchor="middle" x="58" y="-72.3" font-family="Helvetica,sans-Serif" font-size="9.00">_iterator_tag</text>
</a>
</g>
</g>
<!-- Node2&#45;&gt;Node3 -->
<g id="edge2" class="edge"><title>Node2&#45;&gt;Node3</title>
<path fill="none" stroke="midnightblue" d="M58,-120.321C58,-111.747 58,-101.7 58,-93.8428"/>
<polygon fill="midnightblue" stroke="midnightblue" points="54.5001,-120.435 58,-130.435 61.5001,-120.435 54.5001,-120.435"/>
</g>
<!-- Node4 -->
<g id="node4" class="node"><title>Node4</title>
<g id="a_node4"><a xlink:href="a00681.html" target="_top" xlink:title="Random&#45;access iterators support a superset of bidirectional iterator operations. ">
<polygon fill="white" stroke="black" points="9,-0.5 9,-28.5 107,-28.5 107,-0.5 9,-0.5"/>
<text text-anchor="start" x="17" y="-17.3" font-family="Helvetica,sans-Serif" font-size="9.00">std::random_access</text>
<text text-anchor="middle" x="58" y="-7.3" font-family="Helvetica,sans-Serif" font-size="9.00">_iterator_tag</text>
</a>
</g>
</g>
<!-- Node3&#45;&gt;Node4 -->
<g id="edge3" class="edge"><title>Node3&#45;&gt;Node4</title>
<path fill="none" stroke="midnightblue" d="M58,-55.1641C58,-46.1693 58,-36.2205 58,-28.5369"/>
<polygon fill="midnightblue" stroke="midnightblue" points="54.5001,-55.4463 58,-65.4464 61.5001,-55.4464 54.5001,-55.4463"/>
</g>
</g>
</svg>
