<?xml version="1.0" encoding="UTF-8" standalone="no"?>
<!DOCTYPE svg PUBLIC "-//W3C//DTD SVG 1.1//EN"
 "http://www.w3.org/Graphics/SVG/1.1/DTD/svg11.dtd">
<!-- Generated by graphviz version 2.38.0 (20140413.2041)
 -->
<!-- Title: std::numpunct_byname&lt; _CharT &gt; Pages: 1 -->
<svg width="127pt" height="147pt"
 viewBox="0.00 0.00 127.00 147.00" xmlns="http://www.w3.org/2000/svg" xmlns:xlink="http://www.w3.org/1999/xlink">
<g id="graph0" class="graph" transform="scale(1 1) rotate(0) translate(4 143)">
<title>std::numpunct_byname&lt; _CharT &gt;</title>
<polygon fill="white" stroke="none" points="-4,4 -4,-143 123,-143 123,4 -4,4"/>
<!-- Node1 -->
<g id="node1" class="node"><title>Node1</title>
<polygon fill="#bfbfbf" stroke="black" points="3.5,-0.5 3.5,-28.5 115.5,-28.5 115.5,-0.5 3.5,-0.5"/>
<text text-anchor="start" x="11.5" y="-17.3" font-family="Helvetica,sans-Serif" font-size="9.00">std::numpunct_byname</text>
<text text-anchor="middle" x="59.5" y="-7.3" font-family="Helvetica,sans-Serif" font-size="9.00">&lt; _CharT &gt;</text>
</g>
<!-- Node2 -->
<g id="node2" class="node"><title>Node2</title>
<g id="a_node2"><a xlink:href="a00659.html" target="_top" xlink:title="Primary class template numpunct.This facet stores several pieces of information related to printing a...">
<polygon fill="white" stroke="black" points="0,-65.5 0,-83.5 119,-83.5 119,-65.5 0,-65.5"/>
<text text-anchor="middle" x="59.5" y="-72.3" font-family="Helvetica,sans-Serif" font-size="9.00">std::numpunct&lt; _CharT &gt;</text>
</a>
</g>
</g>
<!-- Node2&#45;&gt;Node1 -->
<g id="edge1" class="edge"><title>Node2&#45;&gt;Node1</title>
<path fill="none" stroke="midnightblue" d="M59.5,-55.3209C59.5,-46.747 59.5,-36.6999 59.5,-28.8428"/>
<polygon fill="midnightblue" stroke="midnightblue" points="56.0001,-55.4353 59.5,-65.4353 63.0001,-55.4354 56.0001,-55.4353"/>
</g>
<!-- Node3 -->
<g id="node3" class="node"><title>Node3</title>
<g id="a_node3"><a xlink:href="a00624.html" target="_top" xlink:title="Localization functionality base class.The facet class is the base class for a localization feature...">
<polygon fill="white" stroke="black" points="18.5,-120.5 18.5,-138.5 100.5,-138.5 100.5,-120.5 18.5,-120.5"/>
<text text-anchor="middle" x="59.5" y="-127.3" font-family="Helvetica,sans-Serif" font-size="9.00">std::locale::facet</text>
</a>
</g>
</g>
<!-- Node3&#45;&gt;Node2 -->
<g id="edge2" class="edge"><title>Node3&#45;&gt;Node2</title>
<path fill="none" stroke="midnightblue" d="M59.5,-110.175C59.5,-101.094 59.5,-90.5949 59.5,-83.5496"/>
<polygon fill="midnightblue" stroke="midnightblue" points="56.0001,-110.219 59.5,-120.219 63.0001,-110.219 56.0001,-110.219"/>
</g>
</g>
</svg>
