<?xml version="1.0" encoding="UTF-8" standalone="no"?>
<!DOCTYPE svg PUBLIC "-//W3C//DTD SVG 1.1//EN"
 "http://www.w3.org/Graphics/SVG/1.1/DTD/svg11.dtd">
<!-- Generated by graphviz version 2.38.0 (20140413.2041)
 -->
<!-- Title: std::mem_fun1_ref_t&lt; _Ret, _Tp, _Arg &gt; Pages: 1 -->
<svg width="108pt" height="102pt"
 viewBox="0.00 0.00 108.00 102.00" xmlns="http://www.w3.org/2000/svg" xmlns:xlink="http://www.w3.org/1999/xlink">
<g id="graph0" class="graph" transform="scale(1 1) rotate(0) translate(4 98)">
<title>std::mem_fun1_ref_t&lt; _Ret, _Tp, _Arg &gt;</title>
<polygon fill="white" stroke="none" points="-4,4 -4,-98 104,-98 104,4 -4,4"/>
<!-- Node1 -->
<g id="node1" class="node"><title>Node1</title>
<polygon fill="#bfbfbf" stroke="black" points="0,-0.5 0,-28.5 100,-28.5 100,-0.5 0,-0.5"/>
<text text-anchor="start" x="8" y="-17.3" font-family="Helvetica,sans-Serif" font-size="9.00">std::mem_fun1_ref_t</text>
<text text-anchor="middle" x="50" y="-7.3" font-family="Helvetica,sans-Serif" font-size="9.00">&lt; _Ret, _Tp, _Arg &gt;</text>
</g>
<!-- Node2 -->
<g id="node2" class="node"><title>Node2</title>
<g id="a_node2"><a xlink:href="a00423.html" target="_top" xlink:title="std::binary_function\l\&lt; _Tp, _Arg, _Ret \&gt;">
<polygon fill="white" stroke="black" points="2,-65.5 2,-93.5 98,-93.5 98,-65.5 2,-65.5"/>
<text text-anchor="start" x="10" y="-82.3" font-family="Helvetica,sans-Serif" font-size="9.00">std::binary_function</text>
<text text-anchor="middle" x="50" y="-72.3" font-family="Helvetica,sans-Serif" font-size="9.00">&lt; _Tp, _Arg, _Ret &gt;</text>
</a>
</g>
</g>
<!-- Node2&#45;&gt;Node1 -->
<g id="edge1" class="edge"><title>Node2&#45;&gt;Node1</title>
<path fill="none" stroke="midnightblue" d="M50,-55.1641C50,-46.1693 50,-36.2205 50,-28.5369"/>
<polygon fill="midnightblue" stroke="midnightblue" points="46.5001,-55.4463 50,-65.4464 53.5001,-55.4464 46.5001,-55.4463"/>
</g>
</g>
</svg>
