<?xml version="1.0" encoding="UTF-8" standalone="no"?>
<!DOCTYPE svg PUBLIC "-//W3C//DTD SVG 1.1//EN"
 "http://www.w3.org/Graphics/SVG/1.1/DTD/svg11.dtd">
<!-- Generated by graphviz version 2.38.0 (20140413.2041)
 -->
<!-- Title: std::money_base Pages: 1 -->
<svg width="132pt" height="157pt"
 viewBox="0.00 0.00 132.00 157.00" xmlns="http://www.w3.org/2000/svg" xmlns:xlink="http://www.w3.org/1999/xlink">
<g id="graph0" class="graph" transform="scale(1 1) rotate(0) translate(4 153)">
<title>std::money_base</title>
<polygon fill="white" stroke="none" points="-4,4 -4,-153 128,-153 128,4 -4,4"/>
<!-- Node1 -->
<g id="node1" class="node"><title>Node1</title>
<polygon fill="#bfbfbf" stroke="black" points="19,-130.5 19,-148.5 105,-148.5 105,-130.5 19,-130.5"/>
<text text-anchor="middle" x="62" y="-137.3" font-family="Helvetica,sans-Serif" font-size="9.00">std::money_base</text>
</g>
<!-- Node2 -->
<g id="node2" class="node"><title>Node2</title>
<g id="a_node2"><a xlink:href="a00645.html" target="_top" xlink:title="Primary class template moneypunct.This facet encapsulates the punctuation, grouping and other formatt...">
<polygon fill="white" stroke="black" points="0,-65.5 0,-93.5 124,-93.5 124,-65.5 0,-65.5"/>
<text text-anchor="start" x="8" y="-82.3" font-family="Helvetica,sans-Serif" font-size="9.00">std::moneypunct&lt; _CharT,</text>
<text text-anchor="middle" x="62" y="-72.3" font-family="Helvetica,sans-Serif" font-size="9.00"> _Intl &gt;</text>
</a>
</g>
</g>
<!-- Node1&#45;&gt;Node2 -->
<g id="edge1" class="edge"><title>Node1&#45;&gt;Node2</title>
<path fill="none" stroke="midnightblue" d="M62,-120.321C62,-111.747 62,-101.7 62,-93.8428"/>
<polygon fill="midnightblue" stroke="midnightblue" points="58.5001,-120.435 62,-130.435 65.5001,-120.435 58.5001,-120.435"/>
</g>
<!-- Node3 -->
<g id="node3" class="node"><title>Node3</title>
<g id="a_node3"><a xlink:href="a00646.html" target="_top" xlink:title="class moneypunct_byname [22.2.6.4]. ">
<polygon fill="white" stroke="black" points="1,-0.5 1,-28.5 123,-28.5 123,-0.5 1,-0.5"/>
<text text-anchor="start" x="9" y="-17.3" font-family="Helvetica,sans-Serif" font-size="9.00">std::moneypunct_byname</text>
<text text-anchor="middle" x="62" y="-7.3" font-family="Helvetica,sans-Serif" font-size="9.00">&lt; _CharT, _Intl &gt;</text>
</a>
</g>
</g>
<!-- Node2&#45;&gt;Node3 -->
<g id="edge2" class="edge"><title>Node2&#45;&gt;Node3</title>
<path fill="none" stroke="midnightblue" d="M62,-55.1641C62,-46.1693 62,-36.2205 62,-28.5369"/>
<polygon fill="midnightblue" stroke="midnightblue" points="58.5001,-55.4463 62,-65.4464 65.5001,-55.4464 58.5001,-55.4463"/>
</g>
</g>
</svg>
