<?xml version="1.0" encoding="UTF-8" standalone="no"?>
<!DOCTYPE svg PUBLIC "-//W3C//DTD SVG 1.1//EN"
 "http://www.w3.org/Graphics/SVG/1.1/DTD/svg11.dtd">
<!-- Generated by graphviz version 2.38.0 (20140413.2041)
 -->
<!-- Title: std::messages_base Pages: 1 -->
<svg width="129pt" height="147pt"
 viewBox="0.00 0.00 129.00 147.00" xmlns="http://www.w3.org/2000/svg" xmlns:xlink="http://www.w3.org/1999/xlink">
<g id="graph0" class="graph" transform="scale(1 1) rotate(0) translate(4 143)">
<title>std::messages_base</title>
<polygon fill="white" stroke="none" points="-4,4 -4,-143 125,-143 125,4 -4,4"/>
<!-- Node1 -->
<g id="node1" class="node"><title>Node1</title>
<polygon fill="#bfbfbf" stroke="black" points="10,-120.5 10,-138.5 111,-138.5 111,-120.5 10,-120.5"/>
<text text-anchor="middle" x="60.5" y="-127.3" font-family="Helvetica,sans-Serif" font-size="9.00">std::messages_base</text>
</g>
<!-- Node2 -->
<g id="node2" class="node"><title>Node2</title>
<g id="a_node2"><a xlink:href="a00637.html" target="_top" xlink:title="Primary class template messages.This facet encapsulates the code to retrieve messages from message ca...">
<polygon fill="white" stroke="black" points="0,-65.5 0,-83.5 121,-83.5 121,-65.5 0,-65.5"/>
<text text-anchor="middle" x="60.5" y="-72.3" font-family="Helvetica,sans-Serif" font-size="9.00">std::messages&lt; _CharT &gt;</text>
</a>
</g>
</g>
<!-- Node1&#45;&gt;Node2 -->
<g id="edge1" class="edge"><title>Node1&#45;&gt;Node2</title>
<path fill="none" stroke="midnightblue" d="M60.5,-110.175C60.5,-101.094 60.5,-90.5949 60.5,-83.5496"/>
<polygon fill="midnightblue" stroke="midnightblue" points="57.0001,-110.219 60.5,-120.219 64.0001,-110.219 57.0001,-110.219"/>
</g>
<!-- Node3 -->
<g id="node3" class="node"><title>Node3</title>
<g id="a_node3"><a xlink:href="a00639.html" target="_top" xlink:title="class messages_byname [22.2.7.2]. ">
<polygon fill="white" stroke="black" points="4,-0.5 4,-28.5 117,-28.5 117,-0.5 4,-0.5"/>
<text text-anchor="start" x="12" y="-17.3" font-family="Helvetica,sans-Serif" font-size="9.00">std::messages_byname</text>
<text text-anchor="middle" x="60.5" y="-7.3" font-family="Helvetica,sans-Serif" font-size="9.00">&lt; _CharT &gt;</text>
</a>
</g>
</g>
<!-- Node2&#45;&gt;Node3 -->
<g id="edge2" class="edge"><title>Node2&#45;&gt;Node3</title>
<path fill="none" stroke="midnightblue" d="M60.5,-55.3209C60.5,-46.747 60.5,-36.6999 60.5,-28.8428"/>
<polygon fill="midnightblue" stroke="midnightblue" points="57.0001,-55.4353 60.5,-65.4353 64.0001,-55.4354 57.0001,-55.4353"/>
</g>
</g>
</svg>
