<?xml version="1.0" encoding="UTF-8" standalone="no"?>
<!DOCTYPE svg PUBLIC "-//W3C//DTD SVG 1.1//EN"
 "http://www.w3.org/Graphics/SVG/1.1/DTD/svg11.dtd">
<!-- Generated by graphviz version 2.38.0 (20140413.2041)
 -->
<!-- Title: std::moneypunct&lt; _CharT, _Intl &gt; Pages: 1 -->
<svg width="194pt" height="157pt"
 viewBox="0.00 0.00 194.00 157.00" xmlns="http://www.w3.org/2000/svg" xmlns:xlink="http://www.w3.org/1999/xlink">
<g id="graph0" class="graph" transform="scale(1 1) rotate(0) translate(4 153)">
<title>std::moneypunct&lt; _CharT, _Intl &gt;</title>
<polygon fill="white" stroke="none" points="-4,4 -4,-153 190,-153 190,4 -4,4"/>
<!-- Node1 -->
<g id="node1" class="node"><title>Node1</title>
<polygon fill="#bfbfbf" stroke="black" points="30,-65.5 30,-93.5 154,-93.5 154,-65.5 30,-65.5"/>
<text text-anchor="start" x="38" y="-82.3" font-family="Helvetica,sans-Serif" font-size="9.00">std::moneypunct&lt; _CharT,</text>
<text text-anchor="middle" x="92" y="-72.3" font-family="Helvetica,sans-Serif" font-size="9.00"> _Intl &gt;</text>
</g>
<!-- Node4 -->
<g id="node4" class="node"><title>Node4</title>
<g id="a_node4"><a xlink:href="a00646.html" target="_top" xlink:title="class moneypunct_byname [22.2.6.4]. ">
<polygon fill="white" stroke="black" points="31,-0.5 31,-28.5 153,-28.5 153,-0.5 31,-0.5"/>
<text text-anchor="start" x="39" y="-17.3" font-family="Helvetica,sans-Serif" font-size="9.00">std::moneypunct_byname</text>
<text text-anchor="middle" x="92" y="-7.3" font-family="Helvetica,sans-Serif" font-size="9.00">&lt; _CharT, _Intl &gt;</text>
</a>
</g>
</g>
<!-- Node1&#45;&gt;Node4 -->
<g id="edge3" class="edge"><title>Node1&#45;&gt;Node4</title>
<path fill="none" stroke="midnightblue" d="M92,-55.1641C92,-46.1693 92,-36.2205 92,-28.5369"/>
<polygon fill="midnightblue" stroke="midnightblue" points="88.5001,-55.4463 92,-65.4464 95.5001,-55.4464 88.5001,-55.4463"/>
</g>
<!-- Node2 -->
<g id="node2" class="node"><title>Node2</title>
<g id="a_node2"><a xlink:href="a00624.html" target="_top" xlink:title="Localization functionality base class.The facet class is the base class for a localization feature...">
<polygon fill="white" stroke="black" points="0,-130.5 0,-148.5 82,-148.5 82,-130.5 0,-130.5"/>
<text text-anchor="middle" x="41" y="-137.3" font-family="Helvetica,sans-Serif" font-size="9.00">std::locale::facet</text>
</a>
</g>
</g>
<!-- Node2&#45;&gt;Node1 -->
<g id="edge1" class="edge"><title>Node2&#45;&gt;Node1</title>
<path fill="none" stroke="midnightblue" d="M54.741,-122.873C62.7177,-113.801 72.6601,-102.494 80.2676,-93.8428"/>
<polygon fill="midnightblue" stroke="midnightblue" points="52.0663,-120.614 48.0913,-130.435 57.3231,-125.237 52.0663,-120.614"/>
</g>
<!-- Node3 -->
<g id="node3" class="node"><title>Node3</title>
<g id="a_node3"><a xlink:href="a00642.html" target="_top" xlink:title="Money format ordering data.This class contains an ordered array of 4 fields to represent the pattern ...">
<polygon fill="white" stroke="black" points="100,-130.5 100,-148.5 186,-148.5 186,-130.5 100,-130.5"/>
<text text-anchor="middle" x="143" y="-137.3" font-family="Helvetica,sans-Serif" font-size="9.00">std::money_base</text>
</a>
</g>
</g>
<!-- Node3&#45;&gt;Node1 -->
<g id="edge2" class="edge"><title>Node3&#45;&gt;Node1</title>
<path fill="none" stroke="midnightblue" d="M129.259,-122.873C121.282,-113.801 111.34,-102.494 103.732,-93.8428"/>
<polygon fill="midnightblue" stroke="midnightblue" points="126.677,-125.237 135.909,-130.435 131.934,-120.614 126.677,-125.237"/>
</g>
</g>
</svg>
