<?xml version="1.0" encoding="UTF-8" standalone="no"?>
<!DOCTYPE svg PUBLIC "-//W3C//DTD SVG 1.1//EN"
 "http://www.w3.org/Graphics/SVG/1.1/DTD/svg11.dtd">
<!-- Generated by graphviz version 2.38.0 (20140413.2041)
 -->
<!-- Title: std::match_results&lt; _Bi_iter, _Alloc &gt; Pages: 1 -->
<svg width="118pt" height="177pt"
 viewBox="0.00 0.00 118.00 177.00" xmlns="http://www.w3.org/2000/svg" xmlns:xlink="http://www.w3.org/1999/xlink">
<g id="graph0" class="graph" transform="scale(1 1) rotate(0) translate(4 173)">
<title>std::match_results&lt; _Bi_iter, _Alloc &gt;</title>
<polygon fill="white" stroke="none" points="-4,4 -4,-173 114,-173 114,4 -4,4"/>
<!-- Node1 -->
<g id="node1" class="node"><title>Node1</title>
<polygon fill="#bfbfbf" stroke="black" points="8.5,-0.5 8.5,-28.5 101.5,-28.5 101.5,-0.5 8.5,-0.5"/>
<text text-anchor="start" x="16.5" y="-17.3" font-family="Helvetica,sans-Serif" font-size="9.00">std::match_results</text>
<text text-anchor="middle" x="55" y="-7.3" font-family="Helvetica,sans-Serif" font-size="9.00">&lt; _Bi_iter, _Alloc &gt;</text>
</g>
<!-- Node2 -->
<g id="node2" class="node"><title>Node2</title>
<g id="a_node2"><a xlink:href="a00716.html" target="_top" xlink:title="std::vector\&lt; sub_match\l\&lt; _Bi_iter \&gt;, _Alloc \&gt;">
<polygon fill="white" stroke="black" points="0,-65.5 0,-93.5 110,-93.5 110,-65.5 0,-65.5"/>
<text text-anchor="start" x="8" y="-82.3" font-family="Helvetica,sans-Serif" font-size="9.00">std::vector&lt; sub_match</text>
<text text-anchor="middle" x="55" y="-72.3" font-family="Helvetica,sans-Serif" font-size="9.00">&lt; _Bi_iter &gt;, _Alloc &gt;</text>
</a>
</g>
</g>
<!-- Node2&#45;&gt;Node1 -->
<g id="edge1" class="edge"><title>Node2&#45;&gt;Node1</title>
<path fill="none" stroke="#8b1a1a" d="M55,-55.1641C55,-46.1693 55,-36.2205 55,-28.5369"/>
<polygon fill="#8b1a1a" stroke="#8b1a1a" points="51.5001,-55.4463 55,-65.4464 58.5001,-55.4464 51.5001,-55.4463"/>
</g>
<!-- Node3 -->
<g id="node3" class="node"><title>Node3</title>
<g id="a_node3"><a xlink:href="a00419.html" target="_top" xlink:title="std::_Vector_base\&lt;\l sub_match\&lt; _Bi_iter\l \&gt;, _Alloc \&gt;">
<polygon fill="white" stroke="black" points="3.5,-130.5 3.5,-168.5 106.5,-168.5 106.5,-130.5 3.5,-130.5"/>
<text text-anchor="start" x="11.5" y="-157.3" font-family="Helvetica,sans-Serif" font-size="9.00">std::_Vector_base&lt;</text>
<text text-anchor="start" x="11.5" y="-147.3" font-family="Helvetica,sans-Serif" font-size="9.00"> sub_match&lt; _Bi_iter</text>
<text text-anchor="middle" x="55" y="-137.3" font-family="Helvetica,sans-Serif" font-size="9.00"> &gt;, _Alloc &gt;</text>
</a>
</g>
</g>
<!-- Node3&#45;&gt;Node2 -->
<g id="edge2" class="edge"><title>Node3&#45;&gt;Node2</title>
<path fill="none" stroke="darkgreen" d="M55,-120.013C55,-110.921 55,-101.289 55,-93.8104"/>
<polygon fill="darkgreen" stroke="darkgreen" points="51.5001,-120.277 55,-130.277 58.5001,-120.277 51.5001,-120.277"/>
</g>
</g>
</svg>
