<?xml version="1.0" encoding="UTF-8" standalone="no"?>
<!DOCTYPE svg PUBLIC "-//W3C//DTD SVG 1.1//EN"
 "http://www.w3.org/Graphics/SVG/1.1/DTD/svg11.dtd">
<!-- Generated by graphviz version 2.38.0 (20140413.2041)
 -->
<!-- Title: std::pointer_to_binary_function&lt; _Arg1, _Arg2, _Result &gt; Pages: 1 -->
<svg width="130pt" height="112pt"
 viewBox="0.00 0.00 130.00 112.00" xmlns="http://www.w3.org/2000/svg" xmlns:xlink="http://www.w3.org/1999/xlink">
<g id="graph0" class="graph" transform="scale(1 1) rotate(0) translate(4 108)">
<title>std::pointer_to_binary_function&lt; _Arg1, _Arg2, _Result &gt;</title>
<polygon fill="white" stroke="none" points="-4,4 -4,-108 126,-108 126,4 -4,4"/>
<!-- Node1 -->
<g id="node1" class="node"><title>Node1</title>
<polygon fill="#bfbfbf" stroke="black" points="2,-0.5 2,-38.5 120,-38.5 120,-0.5 2,-0.5"/>
<text text-anchor="start" x="10" y="-27.3" font-family="Helvetica,sans-Serif" font-size="9.00">std::pointer_to_binary</text>
<text text-anchor="start" x="10" y="-17.3" font-family="Helvetica,sans-Serif" font-size="9.00">_function&lt; _Arg1, _Arg2,</text>
<text text-anchor="middle" x="61" y="-7.3" font-family="Helvetica,sans-Serif" font-size="9.00"> _Result &gt;</text>
</g>
<!-- Node2 -->
<g id="node2" class="node"><title>Node2</title>
<g id="a_node2"><a xlink:href="a00423.html" target="_top" xlink:title="std::binary_function\l\&lt; _Arg1, _Arg2, _Result \&gt;">
<polygon fill="white" stroke="black" points="0,-75.5 0,-103.5 122,-103.5 122,-75.5 0,-75.5"/>
<text text-anchor="start" x="8" y="-92.3" font-family="Helvetica,sans-Serif" font-size="9.00">std::binary_function</text>
<text text-anchor="middle" x="61" y="-82.3" font-family="Helvetica,sans-Serif" font-size="9.00">&lt; _Arg1, _Arg2, _Result &gt;</text>
</a>
</g>
</g>
<!-- Node2&#45;&gt;Node1 -->
<g id="edge1" class="edge"><title>Node2&#45;&gt;Node1</title>
<path fill="none" stroke="midnightblue" d="M61,-65.172C61,-56.5199 61,-46.8416 61,-38.7116"/>
<polygon fill="midnightblue" stroke="midnightblue" points="57.5001,-65.3889 61,-75.3889 64.5001,-65.389 57.5001,-65.3889"/>
</g>
</g>
</svg>
