<?xml version="1.0" encoding="UTF-8" standalone="no"?>
<!DOCTYPE svg PUBLIC "-//W3C//DTD SVG 1.1//EN"
 "http://www.w3.org/Graphics/SVG/1.1/DTD/svg11.dtd">
<!-- Generated by graphviz version 2.38.0 (20140413.2041)
 -->
<!-- Title: std::messages&lt; _CharT &gt; Pages: 1 -->
<svg width="210pt" height="147pt"
 viewBox="0.00 0.00 209.50 147.00" xmlns="http://www.w3.org/2000/svg" xmlns:xlink="http://www.w3.org/1999/xlink">
<g id="graph0" class="graph" transform="scale(1 1) rotate(0) translate(4 143)">
<title>std::messages&lt; _CharT &gt;</title>
<polygon fill="white" stroke="none" points="-4,4 -4,-143 205.5,-143 205.5,4 -4,4"/>
<!-- Node1 -->
<g id="node1" class="node"><title>Node1</title>
<polygon fill="#bfbfbf" stroke="black" points="35.5,-65.5 35.5,-83.5 156.5,-83.5 156.5,-65.5 35.5,-65.5"/>
<text text-anchor="middle" x="96" y="-72.3" font-family="Helvetica,sans-Serif" font-size="9.00">std::messages&lt; _CharT &gt;</text>
</g>
<!-- Node4 -->
<g id="node4" class="node"><title>Node4</title>
<g id="a_node4"><a xlink:href="a00639.html" target="_top" xlink:title="class messages_byname [22.2.7.2]. ">
<polygon fill="white" stroke="black" points="39.5,-0.5 39.5,-28.5 152.5,-28.5 152.5,-0.5 39.5,-0.5"/>
<text text-anchor="start" x="47.5" y="-17.3" font-family="Helvetica,sans-Serif" font-size="9.00">std::messages_byname</text>
<text text-anchor="middle" x="96" y="-7.3" font-family="Helvetica,sans-Serif" font-size="9.00">&lt; _CharT &gt;</text>
</a>
</g>
</g>
<!-- Node1&#45;&gt;Node4 -->
<g id="edge3" class="edge"><title>Node1&#45;&gt;Node4</title>
<path fill="none" stroke="midnightblue" d="M96,-55.3209C96,-46.747 96,-36.6999 96,-28.8428"/>
<polygon fill="midnightblue" stroke="midnightblue" points="92.5001,-55.4353 96,-65.4353 99.5001,-55.4354 92.5001,-55.4353"/>
</g>
<!-- Node2 -->
<g id="node2" class="node"><title>Node2</title>
<g id="a_node2"><a xlink:href="a00624.html" target="_top" xlink:title="Localization functionality base class.The facet class is the base class for a localization feature...">
<polygon fill="white" stroke="black" points="0,-120.5 0,-138.5 82,-138.5 82,-120.5 0,-120.5"/>
<text text-anchor="middle" x="41" y="-127.3" font-family="Helvetica,sans-Serif" font-size="9.00">std::locale::facet</text>
</a>
</g>
</g>
<!-- Node2&#45;&gt;Node1 -->
<g id="edge1" class="edge"><title>Node2&#45;&gt;Node1</title>
<path fill="none" stroke="midnightblue" d="M56.9706,-113.11C67.0017,-103.444 79.532,-91.3692 87.6467,-83.5496"/>
<polygon fill="midnightblue" stroke="midnightblue" points="54.3659,-110.76 49.5938,-120.219 59.2232,-115.8 54.3659,-110.76"/>
</g>
<!-- Node3 -->
<g id="node3" class="node"><title>Node3</title>
<g id="a_node3"><a xlink:href="a00638.html" target="_top" xlink:title="Messages facet base class providing catalog typedef. ">
<polygon fill="white" stroke="black" points="100.5,-120.5 100.5,-138.5 201.5,-138.5 201.5,-120.5 100.5,-120.5"/>
<text text-anchor="middle" x="151" y="-127.3" font-family="Helvetica,sans-Serif" font-size="9.00">std::messages_base</text>
</a>
</g>
</g>
<!-- Node3&#45;&gt;Node1 -->
<g id="edge2" class="edge"><title>Node3&#45;&gt;Node1</title>
<path fill="none" stroke="midnightblue" d="M135.029,-113.11C124.998,-103.444 112.468,-91.3692 104.353,-83.5496"/>
<polygon fill="midnightblue" stroke="midnightblue" points="132.777,-115.8 142.406,-120.219 137.634,-110.76 132.777,-115.8"/>
</g>
</g>
</svg>
