<?xml version="1.0" encoding="UTF-8" standalone="no"?>
<!DOCTYPE svg PUBLIC "-//W3C//DTD SVG 1.1//EN"
 "http://www.w3.org/Graphics/SVG/1.1/DTD/svg11.dtd">
<!-- Generated by graphviz version 2.38.0 (20140413.2041)
 -->
<!-- Title: std::not_equal_to&lt; _Tp &gt; Pages: 1 -->
<svg width="104pt" height="102pt"
 viewBox="0.00 0.00 104.00 102.00" xmlns="http://www.w3.org/2000/svg" xmlns:xlink="http://www.w3.org/1999/xlink">
<g id="graph0" class="graph" transform="scale(1 1) rotate(0) translate(4 98)">
<title>std::not_equal_to&lt; _Tp &gt;</title>
<polygon fill="white" stroke="none" points="-4,4 -4,-98 100,-98 100,4 -4,4"/>
<!-- Node1 -->
<g id="node1" class="node"><title>Node1</title>
<polygon fill="#bfbfbf" stroke="black" points="2,-0.5 2,-28.5 94,-28.5 94,-0.5 2,-0.5"/>
<text text-anchor="start" x="10" y="-17.3" font-family="Helvetica,sans-Serif" font-size="9.00">std::not_equal_to&lt;</text>
<text text-anchor="middle" x="48" y="-7.3" font-family="Helvetica,sans-Serif" font-size="9.00"> _Tp &gt;</text>
</g>
<!-- Node2 -->
<g id="node2" class="node"><title>Node2</title>
<g id="a_node2"><a xlink:href="a00423.html" target="_top" xlink:title="std::binary_function\l\&lt; _Tp, _Tp, bool \&gt;">
<polygon fill="white" stroke="black" points="0,-65.5 0,-93.5 96,-93.5 96,-65.5 0,-65.5"/>
<text text-anchor="start" x="8" y="-82.3" font-family="Helvetica,sans-Serif" font-size="9.00">std::binary_function</text>
<text text-anchor="middle" x="48" y="-72.3" font-family="Helvetica,sans-Serif" font-size="9.00">&lt; _Tp, _Tp, bool &gt;</text>
</a>
</g>
</g>
<!-- Node2&#45;&gt;Node1 -->
<g id="edge1" class="edge"><title>Node2&#45;&gt;Node1</title>
<path fill="none" stroke="midnightblue" d="M48,-55.1641C48,-46.1693 48,-36.2205 48,-28.5369"/>
<polygon fill="midnightblue" stroke="midnightblue" points="44.5001,-55.4463 48,-65.4464 51.5001,-55.4464 44.5001,-55.4463"/>
</g>
</g>
</svg>
