<?xml version="1.0" encoding="UTF-8" standalone="no"?>
<!DOCTYPE svg PUBLIC "-//W3C//DTD SVG 1.1//EN"
 "http://www.w3.org/Graphics/SVG/1.1/DTD/svg11.dtd">
<!-- Generated by graphviz version 2.38.0 (20140413.2041)
 -->
<!-- Title: std::locale::facet Pages: 1 -->
<svg width="574pt" height="893pt"
 viewBox="0.00 0.00 574.00 893.00" xmlns="http://www.w3.org/2000/svg" xmlns:xlink="http://www.w3.org/1999/xlink">
<g id="graph0" class="graph" transform="scale(1 1) rotate(0) translate(4 889)">
<title>std::locale::facet</title>
<polygon fill="white" stroke="none" points="-4,4 -4,-889 570,-889 570,4 -4,4"/>
<!-- Node1 -->
<g id="node1" class="node"><title>Node1</title>
<polygon fill="#bfbfbf" stroke="black" points="0,-403.5 0,-421.5 82,-421.5 82,-403.5 0,-403.5"/>
<text text-anchor="middle" x="41" y="-410.3" font-family="Helvetica,sans-Serif" font-size="9.00">std::locale::facet</text>
</g>
<!-- Node2 -->
<g id="node2" class="node"><title>Node2</title>
<g id="a_node2"><a xlink:href="a00002.html" target="_top" xlink:title="std::__codecvt_abstract\l_base\&lt; _InternT, _ExternT,\l encoding_state \&gt;">
<polygon fill="white" stroke="black" points="125.5,-846.5 125.5,-884.5 252.5,-884.5 252.5,-846.5 125.5,-846.5"/>
<text text-anchor="start" x="133.5" y="-873.3" font-family="Helvetica,sans-Serif" font-size="9.00">std::__codecvt_abstract</text>
<text text-anchor="start" x="133.5" y="-863.3" font-family="Helvetica,sans-Serif" font-size="9.00">_base&lt; _InternT, _ExternT,</text>
<text text-anchor="middle" x="189" y="-853.3" font-family="Helvetica,sans-Serif" font-size="9.00"> encoding_state &gt;</text>
</a>
</g>
</g>
<!-- Node1&#45;&gt;Node2 -->
<g id="edge1" class="edge"><title>Node1&#45;&gt;Node2</title>
<path fill="none" stroke="midnightblue" d="M43.0114,-431.817C47.2692,-506.271 65.9843,-773.651 118,-837.5 120.728,-840.849 123.916,-843.799 127.4,-846.399"/>
<polygon fill="midnightblue" stroke="midnightblue" points="46.4927,-431.377 42.4493,-421.585 39.5032,-431.761 46.4927,-431.377"/>
</g>
<!-- Node4 -->
<g id="node4" class="node"><title>Node4</title>
<g id="a_node4"><a xlink:href="a00002.html" target="_top" xlink:title="std::__codecvt_abstract\l_base\&lt; char, char, mbstate_t \&gt;">
<polygon fill="white" stroke="black" points="118,-799.5 118,-827.5 260,-827.5 260,-799.5 118,-799.5"/>
<text text-anchor="start" x="126" y="-816.3" font-family="Helvetica,sans-Serif" font-size="9.00">std::__codecvt_abstract</text>
<text text-anchor="middle" x="189" y="-806.3" font-family="Helvetica,sans-Serif" font-size="9.00">_base&lt; char, char, mbstate_t &gt;</text>
</a>
</g>
</g>
<!-- Node1&#45;&gt;Node4 -->
<g id="edge3" class="edge"><title>Node1&#45;&gt;Node4</title>
<path fill="none" stroke="midnightblue" d="M43.3667,-431.957C48.6216,-501.439 69.6965,-736.075 118,-790.5 121.057,-793.944 124.638,-796.875 128.536,-799.368"/>
<polygon fill="midnightblue" stroke="midnightblue" points="46.8312,-431.342 42.6114,-421.624 39.8498,-431.852 46.8312,-431.342"/>
</g>
<!-- Node6 -->
<g id="node6" class="node"><title>Node6</title>
<g id="a_node6"><a xlink:href="a00002.html" target="_top" xlink:title="std::__codecvt_abstract\l_base\&lt; char16_t, char,\l mbstate_t \&gt;">
<polygon fill="white" stroke="black" points="132.5,-742.5 132.5,-780.5 245.5,-780.5 245.5,-742.5 132.5,-742.5"/>
<text text-anchor="start" x="140.5" y="-769.3" font-family="Helvetica,sans-Serif" font-size="9.00">std::__codecvt_abstract</text>
<text text-anchor="start" x="140.5" y="-759.3" font-family="Helvetica,sans-Serif" font-size="9.00">_base&lt; char16_t, char,</text>
<text text-anchor="middle" x="189" y="-749.3" font-family="Helvetica,sans-Serif" font-size="9.00"> mbstate_t &gt;</text>
</a>
</g>
</g>
<!-- Node1&#45;&gt;Node6 -->
<g id="edge5" class="edge"><title>Node1&#45;&gt;Node6</title>
<path fill="none" stroke="midnightblue" d="M44.2172,-431.69C51.7226,-493.651 77.9604,-687.047 118,-733.5 122.016,-738.16 126.918,-742.052 132.243,-745.302"/>
<polygon fill="midnightblue" stroke="midnightblue" points="47.6877,-431.233 43.0347,-421.715 40.7364,-432.057 47.6877,-431.233"/>
</g>
<!-- Node8 -->
<g id="node8" class="node"><title>Node8</title>
<g id="a_node8"><a xlink:href="a00002.html" target="_top" xlink:title="std::__codecvt_abstract\l_base\&lt; char32_t, char,\l mbstate_t \&gt;">
<polygon fill="white" stroke="black" points="132.5,-685.5 132.5,-723.5 245.5,-723.5 245.5,-685.5 132.5,-685.5"/>
<text text-anchor="start" x="140.5" y="-712.3" font-family="Helvetica,sans-Serif" font-size="9.00">std::__codecvt_abstract</text>
<text text-anchor="start" x="140.5" y="-702.3" font-family="Helvetica,sans-Serif" font-size="9.00">_base&lt; char32_t, char,</text>
<text text-anchor="middle" x="189" y="-692.3" font-family="Helvetica,sans-Serif" font-size="9.00"> mbstate_t &gt;</text>
</a>
</g>
</g>
<!-- Node1&#45;&gt;Node8 -->
<g id="edge7" class="edge"><title>Node1&#45;&gt;Node8</title>
<path fill="none" stroke="midnightblue" d="M42.0517,-431.704C43.2089,-479.34 52.6793,-604.282 118,-676.5 122.127,-681.062 127.098,-684.893 132.464,-688.108"/>
<polygon fill="midnightblue" stroke="midnightblue" points="45.5496,-431.521 41.9084,-421.571 38.5503,-431.62 45.5496,-431.521"/>
</g>
<!-- Node10 -->
<g id="node10" class="node"><title>Node10</title>
<g id="a_node10"><a xlink:href="a00002.html" target="_top" xlink:title="std::__codecvt_abstract\l_base\&lt; wchar_t, char,\l mbstate_t \&gt;">
<polygon fill="white" stroke="black" points="132.5,-628.5 132.5,-666.5 245.5,-666.5 245.5,-628.5 132.5,-628.5"/>
<text text-anchor="start" x="140.5" y="-655.3" font-family="Helvetica,sans-Serif" font-size="9.00">std::__codecvt_abstract</text>
<text text-anchor="start" x="140.5" y="-645.3" font-family="Helvetica,sans-Serif" font-size="9.00">_base&lt; wchar_t, char,</text>
<text text-anchor="middle" x="189" y="-635.3" font-family="Helvetica,sans-Serif" font-size="9.00"> mbstate_t &gt;</text>
</a>
</g>
</g>
<!-- Node1&#45;&gt;Node10 -->
<g id="edge9" class="edge"><title>Node1&#45;&gt;Node10</title>
<path fill="none" stroke="midnightblue" d="M43.8733,-431.789C48.7652,-471.974 65.4364,-565.409 118,-619.5 122.196,-623.818 127.144,-627.488 132.439,-630.604"/>
<polygon fill="midnightblue" stroke="midnightblue" points="47.3402,-431.295 42.7657,-421.738 40.3823,-432.062 47.3402,-431.295"/>
</g>
<!-- Node12 -->
<g id="node12" class="node"><title>Node12</title>
<g id="a_node12"><a xlink:href="a00003.html" target="_top" xlink:title="std::__ctype_abstract\l_base\&lt; wchar_t \&gt;">
<polygon fill="white" stroke="black" points="137.5,-581.5 137.5,-609.5 240.5,-609.5 240.5,-581.5 137.5,-581.5"/>
<text text-anchor="start" x="145.5" y="-598.3" font-family="Helvetica,sans-Serif" font-size="9.00">std::__ctype_abstract</text>
<text text-anchor="middle" x="189" y="-588.3" font-family="Helvetica,sans-Serif" font-size="9.00">_base&lt; wchar_t &gt;</text>
</a>
</g>
</g>
<!-- Node1&#45;&gt;Node12 -->
<g id="edge11" class="edge"><title>Node1&#45;&gt;Node12</title>
<path fill="none" stroke="midnightblue" d="M45.8617,-431.443C53.6272,-464.759 74.2645,-533.955 118,-572.5 123.662,-577.49 130.432,-581.402 137.499,-584.467"/>
<polygon fill="midnightblue" stroke="midnightblue" points="49.2677,-430.635 43.7069,-421.617 42.4301,-432.134 49.2677,-430.635"/>
</g>
<!-- Node14 -->
<g id="node14" class="node"><title>Node14</title>
<g id="a_node14"><a xlink:href="a00002.html" target="_top" xlink:title="Common base for codecvt functions. ">
<polygon fill="white" stroke="black" points="125.5,-524.5 125.5,-562.5 252.5,-562.5 252.5,-524.5 125.5,-524.5"/>
<text text-anchor="start" x="133.5" y="-551.3" font-family="Helvetica,sans-Serif" font-size="9.00">std::__codecvt_abstract</text>
<text text-anchor="start" x="133.5" y="-541.3" font-family="Helvetica,sans-Serif" font-size="9.00">_base&lt; _InternT, _ExternT,</text>
<text text-anchor="middle" x="189" y="-531.3" font-family="Helvetica,sans-Serif" font-size="9.00"> _StateT &gt;</text>
</a>
</g>
</g>
<!-- Node1&#45;&gt;Node14 -->
<g id="edge13" class="edge"><title>Node1&#45;&gt;Node14</title>
<path fill="none" stroke="midnightblue" d="M51.118,-430.412C63.4682,-453.065 87.5155,-491.948 118,-515.5 122.247,-518.781 126.929,-521.729 131.797,-524.367"/>
<polygon fill="midnightblue" stroke="midnightblue" points="54.1877,-428.73 46.4206,-421.524 47.9989,-432 54.1877,-428.73"/>
</g>
<!-- Node17 -->
<g id="node17" class="node"><title>Node17</title>
<g id="a_node17"><a xlink:href="a00003.html" target="_top" xlink:title="Common base for ctype facet. ">
<polygon fill="white" stroke="black" points="137.5,-477.5 137.5,-505.5 240.5,-505.5 240.5,-477.5 137.5,-477.5"/>
<text text-anchor="start" x="145.5" y="-494.3" font-family="Helvetica,sans-Serif" font-size="9.00">std::__ctype_abstract</text>
<text text-anchor="middle" x="189" y="-484.3" font-family="Helvetica,sans-Serif" font-size="9.00">_base&lt; _CharT &gt;</text>
</a>
</g>
</g>
<!-- Node1&#45;&gt;Node17 -->
<g id="edge16" class="edge"><title>Node1&#45;&gt;Node17</title>
<path fill="none" stroke="midnightblue" d="M59.9185,-428.273C74.6702,-440.601 96.5702,-457.446 118,-468.5 124.48,-471.843 131.545,-474.837 138.613,-477.473"/>
<polygon fill="midnightblue" stroke="midnightblue" points="61.995,-425.444 52.1165,-421.614 57.4507,-430.768 61.995,-425.444"/>
</g>
<!-- Node20 -->
<g id="node20" class="node"><title>Node20</title>
<g id="a_node20"><a xlink:href="a00539.html" target="_top" xlink:title="Facet for localized string comparison. ">
<polygon fill="white" stroke="black" points="136,-440.5 136,-458.5 242,-458.5 242,-440.5 136,-440.5"/>
<text text-anchor="middle" x="189" y="-447.3" font-family="Helvetica,sans-Serif" font-size="9.00">std::collate&lt; _CharT &gt;</text>
</a>
</g>
</g>
<!-- Node1&#45;&gt;Node20 -->
<g id="edge19" class="edge"><title>Node1&#45;&gt;Node20</title>
<path fill="none" stroke="midnightblue" d="M87.6497,-424.069C108.532,-429.361 132.904,-435.537 152.4,-440.478"/>
<polygon fill="midnightblue" stroke="midnightblue" points="88.269,-420.615 77.7156,-421.551 86.5494,-427.401 88.269,-420.615"/>
</g>
<!-- Node22 -->
<g id="node22" class="node"><title>Node22</title>
<g id="a_node22"><a xlink:href="a00546.html" target="_top" xlink:title="The ctype&lt;char&gt; specialization.This class defines classification and conversion functions for the cha...">
<polygon fill="white" stroke="black" points="145,-403.5 145,-421.5 233,-421.5 233,-403.5 145,-403.5"/>
<text text-anchor="middle" x="189" y="-410.3" font-family="Helvetica,sans-Serif" font-size="9.00">std::ctype&lt; char &gt;</text>
</a>
</g>
</g>
<!-- Node1&#45;&gt;Node22 -->
<g id="edge21" class="edge"><title>Node1&#45;&gt;Node22</title>
<path fill="none" stroke="midnightblue" d="M92.5988,-412.5C109.602,-412.5 128.4,-412.5 144.783,-412.5"/>
<polygon fill="midnightblue" stroke="midnightblue" points="92.2817,-409 82.2816,-412.5 92.2816,-416 92.2817,-409"/>
</g>
<!-- Node24 -->
<g id="node24" class="node"><title>Node24</title>
<g id="a_node24"><a xlink:href="a00637.html" target="_top" xlink:title="Primary class template messages.This facet encapsulates the code to retrieve messages from message ca...">
<polygon fill="white" stroke="black" points="128.5,-366.5 128.5,-384.5 249.5,-384.5 249.5,-366.5 128.5,-366.5"/>
<text text-anchor="middle" x="189" y="-373.3" font-family="Helvetica,sans-Serif" font-size="9.00">std::messages&lt; _CharT &gt;</text>
</a>
</g>
</g>
<!-- Node1&#45;&gt;Node24 -->
<g id="edge23" class="edge"><title>Node1&#45;&gt;Node24</title>
<path fill="none" stroke="midnightblue" d="M87.6497,-400.931C108.532,-395.639 132.904,-389.463 152.4,-384.522"/>
<polygon fill="midnightblue" stroke="midnightblue" points="86.5494,-397.599 77.7156,-403.449 88.269,-404.385 86.5494,-397.599"/>
</g>
<!-- Node26 -->
<g id="node26" class="node"><title>Node26</title>
<g id="a_node26"><a xlink:href="a00643.html" target="_top" xlink:title="Primary class template money_get.This facet encapsulates the code to parse and return a monetary amou...">
<polygon fill="white" stroke="black" points="129.5,-319.5 129.5,-347.5 248.5,-347.5 248.5,-319.5 129.5,-319.5"/>
<text text-anchor="start" x="137.5" y="-336.3" font-family="Helvetica,sans-Serif" font-size="9.00">std::money_get&lt; _CharT,</text>
<text text-anchor="middle" x="189" y="-326.3" font-family="Helvetica,sans-Serif" font-size="9.00"> _InIter &gt;</text>
</a>
</g>
</g>
<!-- Node1&#45;&gt;Node26 -->
<g id="edge25" class="edge"><title>Node1&#45;&gt;Node26</title>
<path fill="none" stroke="midnightblue" d="M60.5111,-396.69C75.3022,-384.674 96.9692,-368.405 118,-357.5 125.185,-353.774 133.073,-350.429 140.883,-347.502"/>
<polygon fill="midnightblue" stroke="midnightblue" points="58.1204,-394.126 52.6537,-403.201 62.5868,-399.516 58.1204,-394.126"/>
</g>
<!-- Node27 -->
<g id="node27" class="node"><title>Node27</title>
<g id="a_node27"><a xlink:href="a00644.html" target="_top" xlink:title="Primary class template money_put.This facet encapsulates the code to format and output a monetary amo...">
<polygon fill="white" stroke="black" points="129.5,-272.5 129.5,-300.5 248.5,-300.5 248.5,-272.5 129.5,-272.5"/>
<text text-anchor="start" x="137.5" y="-289.3" font-family="Helvetica,sans-Serif" font-size="9.00">std::money_put&lt; _CharT,</text>
<text text-anchor="middle" x="189" y="-279.3" font-family="Helvetica,sans-Serif" font-size="9.00"> _OutIter &gt;</text>
</a>
</g>
</g>
<!-- Node1&#45;&gt;Node27 -->
<g id="edge26" class="edge"><title>Node1&#45;&gt;Node27</title>
<path fill="none" stroke="midnightblue" d="M50.8906,-394.284C62.9986,-371.308 86.7883,-332.08 118,-309.5 122.768,-306.051 128.082,-303.099 133.593,-300.576"/>
<polygon fill="midnightblue" stroke="midnightblue" points="47.7133,-392.81 46.2965,-403.31 53.9518,-395.986 47.7133,-392.81"/>
</g>
<!-- Node28 -->
<g id="node28" class="node"><title>Node28</title>
<g id="a_node28"><a xlink:href="a00645.html" target="_top" xlink:title="Primary class template moneypunct.This facet encapsulates the punctuation, grouping and other formatt...">
<polygon fill="white" stroke="black" points="127,-225.5 127,-253.5 251,-253.5 251,-225.5 127,-225.5"/>
<text text-anchor="start" x="135" y="-242.3" font-family="Helvetica,sans-Serif" font-size="9.00">std::moneypunct&lt; _CharT,</text>
<text text-anchor="middle" x="189" y="-232.3" font-family="Helvetica,sans-Serif" font-size="9.00"> _Intl &gt;</text>
</a>
</g>
</g>
<!-- Node1&#45;&gt;Node28 -->
<g id="edge27" class="edge"><title>Node1&#45;&gt;Node28</title>
<path fill="none" stroke="midnightblue" d="M46.5676,-393.413C55.1332,-361.683 76.5965,-298.062 118,-262.5 122.076,-258.999 126.698,-256.028 131.578,-253.507"/>
<polygon fill="midnightblue" stroke="midnightblue" points="43.1494,-392.653 44.0641,-403.209 49.9314,-394.387 43.1494,-392.653"/>
</g>
<!-- Node30 -->
<g id="node30" class="node"><title>Node30</title>
<g id="a_node30"><a xlink:href="a00657.html" target="_top" xlink:title="Primary class template num_get.This facet encapsulates the code to parse and return a number from a s...">
<polygon fill="white" stroke="black" points="134,-178.5 134,-206.5 244,-206.5 244,-178.5 134,-178.5"/>
<text text-anchor="start" x="142" y="-195.3" font-family="Helvetica,sans-Serif" font-size="9.00">std::num_get&lt; _CharT,</text>
<text text-anchor="middle" x="189" y="-185.3" font-family="Helvetica,sans-Serif" font-size="9.00"> _InIter &gt;</text>
</a>
</g>
</g>
<!-- Node1&#45;&gt;Node30 -->
<g id="edge29" class="edge"><title>Node1&#45;&gt;Node30</title>
<path fill="none" stroke="midnightblue" d="M44.0098,-393.076C49.0932,-353.893 66.006,-264.921 118,-215.5 122.636,-211.094 128.131,-207.531 133.973,-204.651"/>
<polygon fill="midnightblue" stroke="midnightblue" points="40.5185,-392.798 42.8279,-403.138 47.4707,-393.614 40.5185,-392.798"/>
</g>
<!-- Node31 -->
<g id="node31" class="node"><title>Node31</title>
<g id="a_node31"><a xlink:href="a00658.html" target="_top" xlink:title="Primary class template num_put.This facet encapsulates the code to convert a number to a string...">
<polygon fill="white" stroke="black" points="134,-131.5 134,-159.5 244,-159.5 244,-131.5 134,-131.5"/>
<text text-anchor="start" x="142" y="-148.3" font-family="Helvetica,sans-Serif" font-size="9.00">std::num_put&lt; _CharT,</text>
<text text-anchor="middle" x="189" y="-138.3" font-family="Helvetica,sans-Serif" font-size="9.00"> _OutIter &gt;</text>
</a>
</g>
</g>
<!-- Node1&#45;&gt;Node31 -->
<g id="edge30" class="edge"><title>Node1&#45;&gt;Node31</title>
<path fill="none" stroke="midnightblue" d="M42.3276,-392.961C44.165,-347.237 55.1534,-232.329 118,-168.5 122.487,-163.942 127.892,-160.288 133.685,-157.357"/>
<polygon fill="midnightblue" stroke="midnightblue" points="38.8273,-392.923 42.0316,-403.021 45.8243,-393.129 38.8273,-392.923"/>
</g>
<!-- Node32 -->
<g id="node32" class="node"><title>Node32</title>
<g id="a_node32"><a xlink:href="a00659.html" target="_top" xlink:title="Primary class template numpunct.This facet stores several pieces of information related to printing a...">
<polygon fill="white" stroke="black" points="129.5,-94.5 129.5,-112.5 248.5,-112.5 248.5,-94.5 129.5,-94.5"/>
<text text-anchor="middle" x="189" y="-101.3" font-family="Helvetica,sans-Serif" font-size="9.00">std::numpunct&lt; _CharT &gt;</text>
</a>
</g>
</g>
<!-- Node1&#45;&gt;Node32 -->
<g id="edge31" class="edge"><title>Node1&#45;&gt;Node32</title>
<path fill="none" stroke="midnightblue" d="M44.4503,-393.412C52.3156,-335.058 78.7255,-160.627 118,-121.5 121.645,-117.869 125.918,-114.939 130.524,-112.58"/>
<polygon fill="midnightblue" stroke="midnightblue" points="40.9626,-393.089 43.1261,-403.461 47.9026,-394.004 40.9626,-393.089"/>
</g>
<!-- Node34 -->
<g id="node34" class="node"><title>Node34</title>
<g id="a_node34"><a xlink:href="a00699.html" target="_top" xlink:title="Primary class template time_get.This facet encapsulates the code to parse and return a date or time f...">
<polygon fill="white" stroke="black" points="134.5,-47.5 134.5,-75.5 243.5,-75.5 243.5,-47.5 134.5,-47.5"/>
<text text-anchor="start" x="142.5" y="-64.3" font-family="Helvetica,sans-Serif" font-size="9.00">std::time_get&lt; _CharT,</text>
<text text-anchor="middle" x="189" y="-54.3" font-family="Helvetica,sans-Serif" font-size="9.00"> _InIter &gt;</text>
</a>
</g>
</g>
<!-- Node1&#45;&gt;Node34 -->
<g id="edge33" class="edge"><title>Node1&#45;&gt;Node34</title>
<path fill="none" stroke="midnightblue" d="M43.9961,-393.208C50.8979,-330.04 75.6768,-130.804 118,-84.5 122.574,-79.4957 128.255,-75.5777 134.387,-72.5107"/>
<polygon fill="midnightblue" stroke="midnightblue" points="40.4945,-393.037 42.9152,-403.352 47.4551,-393.779 40.4945,-393.037"/>
</g>
<!-- Node36 -->
<g id="node36" class="node"><title>Node36</title>
<g id="a_node36"><a xlink:href="a00701.html" target="_top" xlink:title="Primary class template time_put.This facet encapsulates the code to format and output dates and times...">
<polygon fill="white" stroke="black" points="134.5,-0.5 134.5,-28.5 243.5,-28.5 243.5,-0.5 134.5,-0.5"/>
<text text-anchor="start" x="142.5" y="-17.3" font-family="Helvetica,sans-Serif" font-size="9.00">std::time_put&lt; _CharT,</text>
<text text-anchor="middle" x="189" y="-7.3" font-family="Helvetica,sans-Serif" font-size="9.00"> _OutIter &gt;</text>
</a>
</g>
</g>
<!-- Node1&#45;&gt;Node36 -->
<g id="edge35" class="edge"><title>Node1&#45;&gt;Node36</title>
<path fill="none" stroke="midnightblue" d="M43.389,-393.196C48.72,-324.261 70.0232,-91.4733 118,-37.5 122.504,-32.4328 128.144,-28.4779 134.255,-25.3919"/>
<polygon fill="midnightblue" stroke="midnightblue" points="39.8779,-393.215 42.622,-403.448 46.8584,-393.737 39.8779,-393.215"/>
</g>
<!-- Node3 -->
<g id="node3" class="node"><title>Node3</title>
<g id="a_node3"><a xlink:href="a00532.html" target="_top" xlink:title="codecvt&lt;InternT, _ExternT, encoding_state&gt; specialization. ">
<polygon fill="white" stroke="black" points="296,-851.5 296,-879.5 427,-879.5 427,-851.5 296,-851.5"/>
<text text-anchor="start" x="304" y="-868.3" font-family="Helvetica,sans-Serif" font-size="9.00">std::codecvt&lt; _InternT,</text>
<text text-anchor="middle" x="361.5" y="-858.3" font-family="Helvetica,sans-Serif" font-size="9.00"> _ExternT, encoding_state &gt;</text>
</a>
</g>
</g>
<!-- Node2&#45;&gt;Node3 -->
<g id="edge2" class="edge"><title>Node2&#45;&gt;Node3</title>
<path fill="none" stroke="midnightblue" d="M262.603,-865.5C273.697,-865.5 285.082,-865.5 295.986,-865.5"/>
<polygon fill="midnightblue" stroke="midnightblue" points="262.52,-862 252.52,-865.5 262.52,-869 262.52,-862"/>
</g>
<!-- Node5 -->
<g id="node5" class="node"><title>Node5</title>
<g id="a_node5"><a xlink:href="a00533.html" target="_top" xlink:title="class codecvt&lt;char, char, mbstate_t&gt; specialization. ">
<polygon fill="white" stroke="black" points="315.5,-799.5 315.5,-827.5 407.5,-827.5 407.5,-799.5 315.5,-799.5"/>
<text text-anchor="start" x="323.5" y="-816.3" font-family="Helvetica,sans-Serif" font-size="9.00">std::codecvt&lt; char,</text>
<text text-anchor="middle" x="361.5" y="-806.3" font-family="Helvetica,sans-Serif" font-size="9.00"> char, mbstate_t &gt;</text>
</a>
</g>
</g>
<!-- Node4&#45;&gt;Node5 -->
<g id="edge4" class="edge"><title>Node4&#45;&gt;Node5</title>
<path fill="none" stroke="midnightblue" d="M270.395,-813.5C285.784,-813.5 301.385,-813.5 315.183,-813.5"/>
<polygon fill="midnightblue" stroke="midnightblue" points="270.333,-810 260.333,-813.5 270.333,-817 270.333,-810"/>
</g>
<!-- Node7 -->
<g id="node7" class="node"><title>Node7</title>
<g id="a_node7"><a xlink:href="a00534.html" target="_top" xlink:title="Class codecvt&lt;char16_t, char, mbstate_t&gt; specialization. ">
<polygon fill="white" stroke="black" points="311,-747.5 311,-775.5 412,-775.5 412,-747.5 311,-747.5"/>
<text text-anchor="start" x="319" y="-764.3" font-family="Helvetica,sans-Serif" font-size="9.00">std::codecvt&lt; char16</text>
<text text-anchor="middle" x="361.5" y="-754.3" font-family="Helvetica,sans-Serif" font-size="9.00">_t, char, mbstate_t &gt;</text>
</a>
</g>
</g>
<!-- Node6&#45;&gt;Node7 -->
<g id="edge6" class="edge"><title>Node6&#45;&gt;Node7</title>
<path fill="none" stroke="midnightblue" d="M255.837,-761.5C274.127,-761.5 293.677,-761.5 310.869,-761.5"/>
<polygon fill="midnightblue" stroke="midnightblue" points="255.828,-758 245.828,-761.5 255.828,-765 255.828,-758"/>
</g>
<!-- Node9 -->
<g id="node9" class="node"><title>Node9</title>
<g id="a_node9"><a xlink:href="a00535.html" target="_top" xlink:title="Class codecvt&lt;char32_t, char, mbstate_t&gt; specialization. ">
<polygon fill="white" stroke="black" points="311,-690.5 311,-718.5 412,-718.5 412,-690.5 311,-690.5"/>
<text text-anchor="start" x="319" y="-707.3" font-family="Helvetica,sans-Serif" font-size="9.00">std::codecvt&lt; char32</text>
<text text-anchor="middle" x="361.5" y="-697.3" font-family="Helvetica,sans-Serif" font-size="9.00">_t, char, mbstate_t &gt;</text>
</a>
</g>
</g>
<!-- Node8&#45;&gt;Node9 -->
<g id="edge8" class="edge"><title>Node8&#45;&gt;Node9</title>
<path fill="none" stroke="midnightblue" d="M255.837,-704.5C274.127,-704.5 293.677,-704.5 310.869,-704.5"/>
<polygon fill="midnightblue" stroke="midnightblue" points="255.828,-701 245.828,-704.5 255.828,-708 255.828,-701"/>
</g>
<!-- Node11 -->
<g id="node11" class="node"><title>Node11</title>
<g id="a_node11"><a xlink:href="a00536.html" target="_top" xlink:title="Class codecvt&lt;wchar_t, char, mbstate_t&gt; specialization. ">
<polygon fill="white" stroke="black" points="312.5,-633.5 312.5,-661.5 410.5,-661.5 410.5,-633.5 312.5,-633.5"/>
<text text-anchor="start" x="320.5" y="-650.3" font-family="Helvetica,sans-Serif" font-size="9.00">std::codecvt&lt; wchar</text>
<text text-anchor="middle" x="361.5" y="-640.3" font-family="Helvetica,sans-Serif" font-size="9.00">_t, char, mbstate_t &gt;</text>
</a>
</g>
</g>
<!-- Node10&#45;&gt;Node11 -->
<g id="edge10" class="edge"><title>Node10&#45;&gt;Node11</title>
<path fill="none" stroke="midnightblue" d="M256.072,-647.5C274.797,-647.5 294.823,-647.5 312.279,-647.5"/>
<polygon fill="midnightblue" stroke="midnightblue" points="255.828,-644 245.828,-647.5 255.828,-651 255.828,-644"/>
</g>
<!-- Node13 -->
<g id="node13" class="node"><title>Node13</title>
<g id="a_node13"><a xlink:href="a00547.html" target="_top" xlink:title="The ctype&lt;wchar_t&gt; specialization.This class defines classification and conversion functions for the ...">
<polygon fill="white" stroke="black" points="310.5,-586.5 310.5,-604.5 412.5,-604.5 412.5,-586.5 310.5,-586.5"/>
<text text-anchor="middle" x="361.5" y="-593.3" font-family="Helvetica,sans-Serif" font-size="9.00">std::ctype&lt; wchar_t &gt;</text>
</a>
</g>
</g>
<!-- Node12&#45;&gt;Node13 -->
<g id="edge12" class="edge"><title>Node12&#45;&gt;Node13</title>
<path fill="none" stroke="midnightblue" d="M250.705,-595.5C270.223,-595.5 291.618,-595.5 310.295,-595.5"/>
<polygon fill="midnightblue" stroke="midnightblue" points="250.694,-592 240.694,-595.5 250.694,-599 250.694,-592"/>
</g>
<!-- Node15 -->
<g id="node15" class="node"><title>Node15</title>
<g id="a_node15"><a xlink:href="a00531.html" target="_top" xlink:title="Primary class template codecvt.NB: Generic, mostly useless implementation. ">
<polygon fill="white" stroke="black" points="307.5,-529.5 307.5,-557.5 415.5,-557.5 415.5,-529.5 307.5,-529.5"/>
<text text-anchor="start" x="315.5" y="-546.3" font-family="Helvetica,sans-Serif" font-size="9.00">std::codecvt&lt; _InternT,</text>
<text text-anchor="middle" x="361.5" y="-536.3" font-family="Helvetica,sans-Serif" font-size="9.00"> _ExternT, _StateT &gt;</text>
</a>
</g>
</g>
<!-- Node14&#45;&gt;Node15 -->
<g id="edge14" class="edge"><title>Node14&#45;&gt;Node15</title>
<path fill="none" stroke="midnightblue" d="M262.754,-543.5C277.69,-543.5 293.15,-543.5 307.245,-543.5"/>
<polygon fill="midnightblue" stroke="midnightblue" points="262.52,-540 252.52,-543.5 262.52,-547 262.52,-540"/>
</g>
<!-- Node16 -->
<g id="node16" class="node"><title>Node16</title>
<g id="a_node16"><a xlink:href="a00538.html" target="_top" xlink:title="class codecvt_byname [22.2.1.6]. ">
<polygon fill="white" stroke="black" points="463,-524.5 463,-562.5 566,-562.5 566,-524.5 463,-524.5"/>
<text text-anchor="start" x="471" y="-551.3" font-family="Helvetica,sans-Serif" font-size="9.00">std::codecvt_byname</text>
<text text-anchor="start" x="471" y="-541.3" font-family="Helvetica,sans-Serif" font-size="9.00">&lt; _InternT, _ExternT,</text>
<text text-anchor="middle" x="514.5" y="-531.3" font-family="Helvetica,sans-Serif" font-size="9.00"> _StateT &gt;</text>
</a>
</g>
</g>
<!-- Node15&#45;&gt;Node16 -->
<g id="edge15" class="edge"><title>Node15&#45;&gt;Node16</title>
<path fill="none" stroke="midnightblue" d="M425.929,-543.5C438.221,-543.5 450.951,-543.5 462.77,-543.5"/>
<polygon fill="midnightblue" stroke="midnightblue" points="425.737,-540 415.737,-543.5 425.737,-547 425.737,-540"/>
</g>
<!-- Node18 -->
<g id="node18" class="node"><title>Node18</title>
<g id="a_node18"><a xlink:href="a00545.html" target="_top" xlink:title="Primary class template ctype facet.This template class defines classification and conversion function...">
<polygon fill="white" stroke="black" points="311,-482.5 311,-500.5 412,-500.5 412,-482.5 311,-482.5"/>
<text text-anchor="middle" x="361.5" y="-489.3" font-family="Helvetica,sans-Serif" font-size="9.00">std::ctype&lt; _CharT &gt;</text>
</a>
</g>
</g>
<!-- Node17&#45;&gt;Node18 -->
<g id="edge17" class="edge"><title>Node17&#45;&gt;Node18</title>
<path fill="none" stroke="midnightblue" d="M250.796,-491.5C270.495,-491.5 292.096,-491.5 310.882,-491.5"/>
<polygon fill="midnightblue" stroke="midnightblue" points="250.694,-488 240.694,-491.5 250.694,-495 250.694,-488"/>
</g>
<!-- Node19 -->
<g id="node19" class="node"><title>Node19</title>
<g id="a_node19"><a xlink:href="a00549.html" target="_top" xlink:title="class ctype_byname [22.2.1.2]. ">
<polygon fill="white" stroke="black" points="465.5,-477.5 465.5,-505.5 563.5,-505.5 563.5,-477.5 465.5,-477.5"/>
<text text-anchor="start" x="473.5" y="-494.3" font-family="Helvetica,sans-Serif" font-size="9.00">std::ctype_byname&lt;</text>
<text text-anchor="middle" x="514.5" y="-484.3" font-family="Helvetica,sans-Serif" font-size="9.00"> _CharT &gt;</text>
</a>
</g>
</g>
<!-- Node18&#45;&gt;Node19 -->
<g id="edge18" class="edge"><title>Node18&#45;&gt;Node19</title>
<path fill="none" stroke="midnightblue" d="M422.575,-491.5C436.83,-491.5 451.851,-491.5 465.487,-491.5"/>
<polygon fill="midnightblue" stroke="midnightblue" points="422.362,-488 412.362,-491.5 422.361,-495 422.362,-488"/>
</g>
<!-- Node21 -->
<g id="node21" class="node"><title>Node21</title>
<g id="a_node21"><a xlink:href="a00540.html" target="_top" xlink:title="class collate_byname [22.2.4.2]. ">
<polygon fill="white" stroke="black" points="312.5,-435.5 312.5,-463.5 410.5,-463.5 410.5,-435.5 312.5,-435.5"/>
<text text-anchor="start" x="320.5" y="-452.3" font-family="Helvetica,sans-Serif" font-size="9.00">std::collate_byname</text>
<text text-anchor="middle" x="361.5" y="-442.3" font-family="Helvetica,sans-Serif" font-size="9.00">&lt; _CharT &gt;</text>
</a>
</g>
</g>
<!-- Node20&#45;&gt;Node21 -->
<g id="edge20" class="edge"><title>Node20&#45;&gt;Node21</title>
<path fill="none" stroke="midnightblue" d="M252.238,-449.5C272.018,-449.5 293.585,-449.5 312.226,-449.5"/>
<polygon fill="midnightblue" stroke="midnightblue" points="252.082,-446 242.082,-449.5 252.082,-453 252.082,-446"/>
</g>
<!-- Node23 -->
<g id="node23" class="node"><title>Node23</title>
<g id="a_node23"><a xlink:href="a00550.html" target="_top" xlink:title="22.2.1.4 Class ctype_byname specializations. ">
<polygon fill="white" stroke="black" points="312.5,-388.5 312.5,-416.5 410.5,-416.5 410.5,-388.5 312.5,-388.5"/>
<text text-anchor="start" x="320.5" y="-405.3" font-family="Helvetica,sans-Serif" font-size="9.00">std::ctype_byname&lt;</text>
<text text-anchor="middle" x="361.5" y="-395.3" font-family="Helvetica,sans-Serif" font-size="9.00"> char &gt;</text>
</a>
</g>
</g>
<!-- Node22&#45;&gt;Node23 -->
<g id="edge22" class="edge"><title>Node22&#45;&gt;Node23</title>
<path fill="none" stroke="midnightblue" d="M243.248,-409.377C265.361,-408.08 290.833,-406.586 312.375,-405.323"/>
<polygon fill="midnightblue" stroke="midnightblue" points="242.802,-405.897 233.024,-409.977 243.212,-412.885 242.802,-405.897"/>
</g>
<!-- Node25 -->
<g id="node25" class="node"><title>Node25</title>
<g id="a_node25"><a xlink:href="a00639.html" target="_top" xlink:title="class messages_byname [22.2.7.2]. ">
<polygon fill="white" stroke="black" points="305,-341.5 305,-369.5 418,-369.5 418,-341.5 305,-341.5"/>
<text text-anchor="start" x="313" y="-358.3" font-family="Helvetica,sans-Serif" font-size="9.00">std::messages_byname</text>
<text text-anchor="middle" x="361.5" y="-348.3" font-family="Helvetica,sans-Serif" font-size="9.00">&lt; _CharT &gt;</text>
</a>
</g>
</g>
<!-- Node24&#45;&gt;Node25 -->
<g id="edge24" class="edge"><title>Node24&#45;&gt;Node25</title>
<path fill="none" stroke="midnightblue" d="M259.886,-367.302C274.883,-365.543 290.535,-363.707 304.904,-362.022"/>
<polygon fill="midnightblue" stroke="midnightblue" points="259.157,-363.864 249.633,-368.505 259.972,-370.816 259.157,-363.864"/>
</g>
<!-- Node29 -->
<g id="node29" class="node"><title>Node29</title>
<g id="a_node29"><a xlink:href="a00646.html" target="_top" xlink:title="class moneypunct_byname [22.2.6.4]. ">
<polygon fill="white" stroke="black" points="300.5,-225.5 300.5,-253.5 422.5,-253.5 422.5,-225.5 300.5,-225.5"/>
<text text-anchor="start" x="308.5" y="-242.3" font-family="Helvetica,sans-Serif" font-size="9.00">std::moneypunct_byname</text>
<text text-anchor="middle" x="361.5" y="-232.3" font-family="Helvetica,sans-Serif" font-size="9.00">&lt; _CharT, _Intl &gt;</text>
</a>
</g>
</g>
<!-- Node28&#45;&gt;Node29 -->
<g id="edge28" class="edge"><title>Node28&#45;&gt;Node29</title>
<path fill="none" stroke="midnightblue" d="M261.374,-239.5C274.366,-239.5 287.801,-239.5 300.426,-239.5"/>
<polygon fill="midnightblue" stroke="midnightblue" points="261.073,-236 251.073,-239.5 261.073,-243 261.073,-236"/>
</g>
<!-- Node33 -->
<g id="node33" class="node"><title>Node33</title>
<g id="a_node33"><a xlink:href="a00660.html" target="_top" xlink:title="class numpunct_byname [22.2.3.2]. ">
<polygon fill="white" stroke="black" points="305.5,-94.5 305.5,-122.5 417.5,-122.5 417.5,-94.5 305.5,-94.5"/>
<text text-anchor="start" x="313.5" y="-111.3" font-family="Helvetica,sans-Serif" font-size="9.00">std::numpunct_byname</text>
<text text-anchor="middle" x="361.5" y="-101.3" font-family="Helvetica,sans-Serif" font-size="9.00">&lt; _CharT &gt;</text>
</a>
</g>
</g>
<!-- Node32&#45;&gt;Node33 -->
<g id="edge32" class="edge"><title>Node32&#45;&gt;Node33</title>
<path fill="none" stroke="midnightblue" d="M258.749,-105.516C274.279,-105.972 290.568,-106.449 305.447,-106.886"/>
<polygon fill="midnightblue" stroke="midnightblue" points="258.775,-102.015 248.676,-105.221 258.57,-109.012 258.775,-102.015"/>
</g>
<!-- Node35 -->
<g id="node35" class="node"><title>Node35</title>
<g id="a_node35"><a xlink:href="a00700.html" target="_top" xlink:title="class time_get_byname [22.2.5.2]. ">
<polygon fill="white" stroke="black" points="308,-47.5 308,-75.5 415,-75.5 415,-47.5 308,-47.5"/>
<text text-anchor="start" x="316" y="-64.3" font-family="Helvetica,sans-Serif" font-size="9.00">std::time_get_byname</text>
<text text-anchor="middle" x="361.5" y="-54.3" font-family="Helvetica,sans-Serif" font-size="9.00">&lt; _CharT, _InIter &gt;</text>
</a>
</g>
</g>
<!-- Node34&#45;&gt;Node35 -->
<g id="edge34" class="edge"><title>Node34&#45;&gt;Node35</title>
<path fill="none" stroke="midnightblue" d="M254.182,-61.5C271.861,-61.5 290.829,-61.5 307.779,-61.5"/>
<polygon fill="midnightblue" stroke="midnightblue" points="253.947,-58.0001 243.947,-61.5 253.947,-65.0001 253.947,-58.0001"/>
</g>
<!-- Node37 -->
<g id="node37" class="node"><title>Node37</title>
<g id="a_node37"><a xlink:href="a00702.html" target="_top" xlink:title="class time_put_byname [22.2.5.4]. ">
<polygon fill="white" stroke="black" points="308,-0.5 308,-28.5 415,-28.5 415,-0.5 308,-0.5"/>
<text text-anchor="start" x="316" y="-17.3" font-family="Helvetica,sans-Serif" font-size="9.00">std::time_put_byname</text>
<text text-anchor="middle" x="361.5" y="-7.3" font-family="Helvetica,sans-Serif" font-size="9.00">&lt; _CharT, _OutIter &gt;</text>
</a>
</g>
</g>
<!-- Node36&#45;&gt;Node37 -->
<g id="edge36" class="edge"><title>Node36&#45;&gt;Node37</title>
<path fill="none" stroke="midnightblue" d="M254.182,-14.5C271.861,-14.5 290.829,-14.5 307.779,-14.5"/>
<polygon fill="midnightblue" stroke="midnightblue" points="253.947,-11.0001 243.947,-14.5 253.947,-18.0001 253.947,-11.0001"/>
</g>
</g>
</svg>
