<?xml version="1.0" encoding="UTF-8" standalone="no"?>
<!DOCTYPE svg PUBLIC "-//W3C//DTD SVG 1.1//EN"
 "http://www.w3.org/Graphics/SVG/1.1/DTD/svg11.dtd">
<!-- Generated by graphviz version 2.38.0 (20140413.2041)
 -->
<!-- Title: std::__debug::multiset&lt; _Key, _Compare, _Allocator &gt; Pages: 1 -->
<svg width="848pt" height="67pt"
 viewBox="0.00 0.00 848.00 67.00" xmlns="http://www.w3.org/2000/svg" xmlns:xlink="http://www.w3.org/1999/xlink">
<g id="graph0" class="graph" transform="scale(1 1) rotate(0) translate(4 63)">
<title>std::__debug::multiset&lt; _Key, _Compare, _Allocator &gt;</title>
<polygon fill="white" stroke="none" points="-4,4 -4,-63 844,-63 844,4 -4,4"/>
<!-- Node1 -->
<g id="node1" class="node"><title>Node1</title>
<polygon fill="#bfbfbf" stroke="black" points="694,-15.5 694,-43.5 840,-43.5 840,-15.5 694,-15.5"/>
<text text-anchor="start" x="702" y="-32.3" font-family="Helvetica,sans-Serif" font-size="9.00">std::__debug::multiset</text>
<text text-anchor="middle" x="767" y="-22.3" font-family="Helvetica,sans-Serif" font-size="9.00">&lt; _Key, _Compare, _Allocator &gt;</text>
</g>
<!-- Node2 -->
<g id="node2" class="node"><title>Node2</title>
<g id="a_node2"><a xlink:href="a00066.html" target="_top" xlink:title="__gnu_debug::_Safe\l_container\&lt; multiset\l\&lt; _Key, _Compare, _Allocator\l \&gt;, _Allocator, __gnu_debug\l::_Safe_node_sequence \&gt;">
<polygon fill="white" stroke="black" points="519,-0.5 519,-58.5 658,-58.5 658,-0.5 519,-0.5"/>
<text text-anchor="start" x="527" y="-47.3" font-family="Helvetica,sans-Serif" font-size="9.00">__gnu_debug::_Safe</text>
<text text-anchor="start" x="527" y="-37.3" font-family="Helvetica,sans-Serif" font-size="9.00">_container&lt; multiset</text>
<text text-anchor="start" x="527" y="-27.3" font-family="Helvetica,sans-Serif" font-size="9.00">&lt; _Key, _Compare, _Allocator</text>
<text text-anchor="start" x="527" y="-17.3" font-family="Helvetica,sans-Serif" font-size="9.00"> &gt;, _Allocator, __gnu_debug</text>
<text text-anchor="middle" x="588.5" y="-7.3" font-family="Helvetica,sans-Serif" font-size="9.00">::_Safe_node_sequence &gt;</text>
</a>
</g>
</g>
<!-- Node2&#45;&gt;Node1 -->
<g id="edge1" class="edge"><title>Node2&#45;&gt;Node1</title>
<path fill="none" stroke="midnightblue" d="M668.501,-29.5C676.973,-29.5 685.561,-29.5 693.946,-29.5"/>
<polygon fill="midnightblue" stroke="midnightblue" points="668.245,-26.0001 658.245,-29.5 668.245,-33.0001 668.245,-26.0001"/>
</g>
<!-- Node3 -->
<g id="node3" class="node"><title>Node3</title>
<g id="a_node3"><a xlink:href="a00071.html" target="_top" xlink:title="__gnu_debug::_Safe\l_node_sequence\&lt; multiset\l\&lt; _Key, _Compare, _Allocator \&gt; \&gt;">
<polygon fill="white" stroke="black" points="329,-10.5 329,-48.5 483,-48.5 483,-10.5 329,-10.5"/>
<text text-anchor="start" x="337" y="-37.3" font-family="Helvetica,sans-Serif" font-size="9.00">__gnu_debug::_Safe</text>
<text text-anchor="start" x="337" y="-27.3" font-family="Helvetica,sans-Serif" font-size="9.00">_node_sequence&lt; multiset</text>
<text text-anchor="middle" x="406" y="-17.3" font-family="Helvetica,sans-Serif" font-size="9.00">&lt; _Key, _Compare, _Allocator &gt; &gt;</text>
</a>
</g>
</g>
<!-- Node3&#45;&gt;Node2 -->
<g id="edge2" class="edge"><title>Node3&#45;&gt;Node2</title>
<path fill="none" stroke="midnightblue" d="M493.085,-29.5C501.69,-29.5 510.346,-29.5 518.739,-29.5"/>
<polygon fill="midnightblue" stroke="midnightblue" points="493.025,-26.0001 483.025,-29.5 493.025,-33.0001 493.025,-26.0001"/>
</g>
<!-- Node4 -->
<g id="node4" class="node"><title>Node4</title>
<g id="a_node4"><a xlink:href="a00072.html" target="_top" xlink:title="__gnu_debug::_Safe\l_sequence\&lt; multiset\l\&lt; _Key, _Compare, _Allocator \&gt; \&gt;">
<polygon fill="white" stroke="black" points="139,-10.5 139,-48.5 293,-48.5 293,-10.5 139,-10.5"/>
<text text-anchor="start" x="147" y="-37.3" font-family="Helvetica,sans-Serif" font-size="9.00">__gnu_debug::_Safe</text>
<text text-anchor="start" x="147" y="-27.3" font-family="Helvetica,sans-Serif" font-size="9.00">_sequence&lt; multiset</text>
<text text-anchor="middle" x="216" y="-17.3" font-family="Helvetica,sans-Serif" font-size="9.00">&lt; _Key, _Compare, _Allocator &gt; &gt;</text>
</a>
</g>
</g>
<!-- Node4&#45;&gt;Node3 -->
<g id="edge3" class="edge"><title>Node4&#45;&gt;Node3</title>
<path fill="none" stroke="midnightblue" d="M303.424,-29.5C311.857,-29.5 320.372,-29.5 328.696,-29.5"/>
<polygon fill="midnightblue" stroke="midnightblue" points="303.196,-26.0001 293.196,-29.5 303.196,-33.0001 303.196,-26.0001"/>
</g>
<!-- Node5 -->
<g id="node5" class="node"><title>Node5</title>
<g id="a_node5"><a xlink:href="a00073.html" target="_top" xlink:title="Base class that supports tracking of iterators that reference a sequence. ">
<polygon fill="white" stroke="black" points="0,-15.5 0,-43.5 103,-43.5 103,-15.5 0,-15.5"/>
<text text-anchor="start" x="8" y="-32.3" font-family="Helvetica,sans-Serif" font-size="9.00">__gnu_debug::_Safe</text>
<text text-anchor="middle" x="51.5" y="-22.3" font-family="Helvetica,sans-Serif" font-size="9.00">_sequence_base</text>
</a>
</g>
</g>
<!-- Node5&#45;&gt;Node4 -->
<g id="edge4" class="edge"><title>Node5&#45;&gt;Node4</title>
<path fill="none" stroke="midnightblue" d="M113.092,-29.5C121.494,-29.5 130.213,-29.5 138.854,-29.5"/>
<polygon fill="midnightblue" stroke="midnightblue" points="113.025,-26.0001 103.025,-29.5 113.025,-33.0001 113.025,-26.0001"/>
</g>
</g>
</svg>
