<?xml version="1.0" encoding="UTF-8" standalone="no"?>
<!DOCTYPE svg PUBLIC "-//W3C//DTD SVG 1.1//EN"
 "http://www.w3.org/Graphics/SVG/1.1/DTD/svg11.dtd">
<!-- Generated by graphviz version 2.38.0 (20140413.2041)
 -->
<!-- Title: std::__detail::_Hashtable_base&lt; _Key, _Value, _ExtractKey, _Equal, _H1, _H2, _Hash, _Traits &gt; Pages: 1 -->
<!--zoomable 161 -->
<svg id="main" version="1.1" xmlns="http://www.w3.org/2000/svg" xmlns:xlink="http://www.w3.org/1999/xlink" xml:space="preserve" onload="init(evt)">
<style type="text/css"><![CDATA[
.edge:hover path { stroke: red; }
.edge:hover polygon { stroke: red; fill: red; }
]]></style>
<script type="text/javascript"><![CDATA[
var edges = document.getElementsByTagName('g');
if (edges && edges.length) {
  for (var i=0;i<edges.length;i++) {
    if (edges[i].id.substr(0,4)=='edge') {
      edges[i].setAttribute('class','edge');
    }
  }
}
]]></script>
        <defs>
                <circle id="rim" cx="0" cy="0" r="7"/>
                <circle id="rim2" cx="0" cy="0" r="3.5"/>
                <g id="zoomPlus">
                        <use xlink:href="#rim" fill="#404040">
                                <set attributeName="fill" to="#808080" begin="zoomplus.mouseover" end="zoomplus.mouseout"/>
                        </use>
                        <path d="M-4,0h8M0,-4v8" fill="none" stroke="white" stroke-width="1.5" pointer-events="none"/>
                </g>
                <g id="zoomMin">
                        <use xlink:href="#rim" fill="#404040">
                                <set attributeName="fill" to="#808080" begin="zoomminus.mouseover" end="zoomminus.mouseout"/>
                        </use>
                        <path d="M-4,0h8" fill="none" stroke="white" stroke-width="1.5" pointer-events="none"/>
                </g>
                <g id="dirArrow">
                        <path fill="none" stroke="white" stroke-width="1.5" d="M0,-3.0v7 M-2.5,-0.5L0,-3.0L2.5,-0.5"/>
                </g>
               <g id="resetDef">
                       <use xlink:href="#rim2" fill="#404040">
                               <set attributeName="fill" to="#808080" begin="reset.mouseover" end="reset.mouseout"/>
                       </use>
               </g>
        </defs>

<script type="text/javascript">
var viewWidth = 517;
var viewHeight = 161;
var sectionId = 'dynsection-0';
</script>
<script xlink:href="svgpan.js"/>
<svg id="graph" class="graph">
<g id="viewport">
<title>std::__detail::_Hashtable_base&lt; _Key, _Value, _ExtractKey, _Equal, _H1, _H2, _Hash, _Traits &gt;</title>
<polygon fill="white" stroke="none" points="-4,4 -4,-157 513,-157 513,4 -4,4"/>
<!-- Node1 -->
<g id="node1" class="node"><title>Node1</title>
<polygon fill="#bfbfbf" stroke="black" points="185,-62.5 185,-100.5 348,-100.5 348,-62.5 185,-62.5"/>
<text text-anchor="start" x="193" y="-89.3" font-family="Helvetica,sans-Serif" font-size="9.00">std::__detail::_Hashtable</text>
<text text-anchor="start" x="193" y="-79.3" font-family="Helvetica,sans-Serif" font-size="9.00">_base&lt; _Key, _Value, _ExtractKey,</text>
<text text-anchor="middle" x="266.5" y="-69.3" font-family="Helvetica,sans-Serif" font-size="9.00"> _Equal, _H1, _H2, _Hash, _Traits &gt;</text>
</g>
<!-- Node4 -->
<g id="node4" class="node"><title>Node4</title>
<g id="a_node4"><a xlink:href="a00411.html" target="_top" xlink:title="_Hashtable\&lt; _Key, \l_Tp, _Hash, _Pred, \l_Alloc \&gt;">
<polygon fill="white" stroke="black" points="397.5,-114.5 397.5,-152.5 495.5,-152.5 495.5,-114.5 397.5,-114.5"/>
<text text-anchor="start" x="405.5" y="-141.3" font-family="Helvetica,sans-Serif" font-size="9.00">_Hashtable&lt; _Key, </text>
<text text-anchor="start" x="405.5" y="-131.3" font-family="Helvetica,sans-Serif" font-size="9.00">_Tp, _Hash, _Pred, </text>
<text text-anchor="middle" x="446.5" y="-121.3" font-family="Helvetica,sans-Serif" font-size="9.00">_Alloc &gt;</text>
</a>
</g>
</g>
<!-- Node1&#45;&gt;Node4 -->
<g id="edge3" class="edge"><title>Node1&#45;&gt;Node4</title>
<path fill="none" stroke="midnightblue" d="M342.382,-103.376C360.942,-108.798 380.343,-114.465 397.244,-119.403"/>
<polygon fill="midnightblue" stroke="midnightblue" points="343.35,-100.012 332.77,-100.568 341.387,-106.731 343.35,-100.012"/>
</g>
<!-- Node5 -->
<g id="node5" class="node"><title>Node5</title>
<g id="a_node5"><a xlink:href="a00411.html" target="_top" xlink:title="_Hashtable\&lt; _Value,\l _Hash, _Pred, _Alloc \&gt;">
<polygon fill="white" stroke="black" points="390,-67.5 390,-95.5 503,-95.5 503,-67.5 390,-67.5"/>
<text text-anchor="start" x="398" y="-84.3" font-family="Helvetica,sans-Serif" font-size="9.00">_Hashtable&lt; _Value,</text>
<text text-anchor="middle" x="446.5" y="-74.3" font-family="Helvetica,sans-Serif" font-size="9.00"> _Hash, _Pred, _Alloc &gt;</text>
</a>
</g>
</g>
<!-- Node1&#45;&gt;Node5 -->
<g id="edge4" class="edge"><title>Node1&#45;&gt;Node5</title>
<path fill="none" stroke="midnightblue" d="M358.422,-81.5C369.127,-81.5 379.794,-81.5 389.805,-81.5"/>
<polygon fill="midnightblue" stroke="midnightblue" points="358.167,-78.0001 348.167,-81.5 358.167,-85.0001 358.167,-78.0001"/>
</g>
<!-- Node6 -->
<g id="node6" class="node"><title>Node6</title>
<g id="a_node6"><a xlink:href="a00411.html" target="_top" xlink:title="std::_Hashtable\&lt; _Key,\l _Value, _ExtractKey,\l _Equal, _H1, _H2, _Hash,\l _Traits \&gt;">
<polygon fill="white" stroke="black" points="384,-0.5 384,-48.5 509,-48.5 509,-0.5 384,-0.5"/>
<text text-anchor="start" x="392" y="-37.3" font-family="Helvetica,sans-Serif" font-size="9.00">std::_Hashtable&lt; _Key,</text>
<text text-anchor="start" x="392" y="-27.3" font-family="Helvetica,sans-Serif" font-size="9.00"> _Value, _ExtractKey,</text>
<text text-anchor="start" x="392" y="-17.3" font-family="Helvetica,sans-Serif" font-size="9.00"> _Equal, _H1, _H2, _Hash,</text>
<text text-anchor="middle" x="446.5" y="-7.3" font-family="Helvetica,sans-Serif" font-size="9.00"> _Traits &gt;</text>
</a>
</g>
</g>
<!-- Node1&#45;&gt;Node6 -->
<g id="edge5" class="edge"><title>Node1&#45;&gt;Node6</title>
<path fill="none" stroke="midnightblue" d="M337.223,-59.1729C352.582,-54.2545 368.746,-49.0785 383.763,-44.2696"/>
<polygon fill="midnightblue" stroke="midnightblue" points="335.723,-55.9782 327.267,-62.3613 337.858,-62.6448 335.723,-55.9782"/>
</g>
<!-- Node2 -->
<g id="node2" class="node"><title>Node2</title>
<g id="a_node2"><a xlink:href="a00410.html" target="_top" xlink:title="std::__detail::_Hash\l_code_base\&lt; _Key, _Value,\l _ExtractKey, _H1, _H2,\l _Hash, _Traits::__hash_cached\l::value \&gt;">
<polygon fill="white" stroke="black" points="0,-83.5 0,-141.5 149,-141.5 149,-83.5 0,-83.5"/>
<text text-anchor="start" x="8" y="-130.3" font-family="Helvetica,sans-Serif" font-size="9.00">std::__detail::_Hash</text>
<text text-anchor="start" x="8" y="-120.3" font-family="Helvetica,sans-Serif" font-size="9.00">_code_base&lt; _Key, _Value,</text>
<text text-anchor="start" x="8" y="-110.3" font-family="Helvetica,sans-Serif" font-size="9.00"> _ExtractKey, _H1, _H2,</text>
<text text-anchor="start" x="8" y="-100.3" font-family="Helvetica,sans-Serif" font-size="9.00"> _Hash, _Traits::__hash_cached</text>
<text text-anchor="middle" x="74.5" y="-90.3" font-family="Helvetica,sans-Serif" font-size="9.00">::value &gt;</text>
</a>
</g>
</g>
<!-- Node2&#45;&gt;Node1 -->
<g id="edge1" class="edge"><title>Node2&#45;&gt;Node1</title>
<path fill="none" stroke="midnightblue" d="M159.179,-98.8471C167.716,-97.4543 176.377,-96.0412 184.88,-94.6538"/>
<polygon fill="midnightblue" stroke="midnightblue" points="158.537,-95.4055 149.231,-100.47 159.664,-102.314 158.537,-95.4055"/>
</g>
<!-- Node3 -->
<g id="node3" class="node"><title>Node3</title>
<g id="a_node3"><a xlink:href="a00413.html" target="_top" xlink:title="std::__detail::_Hashtable\l_ebo_helper\&lt; 0, _Equal \&gt;">
<polygon fill="white" stroke="black" points="13,-36.5 13,-64.5 136,-64.5 136,-36.5 13,-36.5"/>
<text text-anchor="start" x="21" y="-53.3" font-family="Helvetica,sans-Serif" font-size="9.00">std::__detail::_Hashtable</text>
<text text-anchor="middle" x="74.5" y="-43.3" font-family="Helvetica,sans-Serif" font-size="9.00">_ebo_helper&lt; 0, _Equal &gt;</text>
</a>
</g>
</g>
<!-- Node3&#45;&gt;Node1 -->
<g id="edge2" class="edge"><title>Node3&#45;&gt;Node1</title>
<path fill="none" stroke="#8b1a1a" d="M146.138,-62.0251C158.793,-64.0899 172.067,-66.2556 184.976,-68.3618"/>
<polygon fill="#8b1a1a" stroke="#8b1a1a" points="146.573,-58.5499 136.14,-60.3938 145.445,-65.4585 146.573,-58.5499"/>
</g>
</g>
</svg>
        <g id="navigator" transform="translate(0 0)" fill="#404254">
                <rect fill="#f2f5e9" fill-opacity="0.5" stroke="#606060" stroke-width=".5" x="0" y="0" width="60" height="60"/>
                <use id="zoomplus" xlink:href="#zoomPlus" x="17" y="9" onmousedown="handleZoom(evt,'in')"/>
                <use id="zoomminus" xlink:href="#zoomMin" x="42" y="9" onmousedown="handleZoom(evt,'out')"/>
                <use id="reset" xlink:href="#resetDef" x="30" y="36" onmousedown="handleReset()"/>
                <g id="arrowUp" xlink:href="#dirArrow" transform="translate(30 24)" onmousedown="handlePan(0,-1)">
                  <use xlink:href="#rim" fill="#404040">
                        <set attributeName="fill" to="#808080" begin="arrowUp.mouseover" end="arrowUp.mouseout"/>
                  </use>
                  <path fill="none" stroke="white" stroke-width="1.5" d="M0,-3.0v7 M-2.5,-0.5L0,-3.0L2.5,-0.5"/>
                </g>
                <g id="arrowRight" xlink:href="#dirArrow" transform="rotate(90) translate(36 -43)" onmousedown="handlePan(1,0)">
                  <use xlink:href="#rim" fill="#404040">
                        <set attributeName="fill" to="#808080" begin="arrowRight.mouseover" end="arrowRight.mouseout"/>
                  </use>
                  <path fill="none" stroke="white" stroke-width="1.5" d="M0,-3.0v7 M-2.5,-0.5L0,-3.0L2.5,-0.5"/>
                </g>
                <g id="arrowDown" xlink:href="#dirArrow" transform="rotate(180) translate(-30 -48)" onmousedown="handlePan(0,1)">
                  <use xlink:href="#rim" fill="#404040">
                        <set attributeName="fill" to="#808080" begin="arrowDown.mouseover" end="arrowDown.mouseout"/>
                  </use>
                  <path fill="none" stroke="white" stroke-width="1.5" d="M0,-3.0v7 M-2.5,-0.5L0,-3.0L2.5,-0.5"/>
                </g>
                <g id="arrowLeft" xlink:href="#dirArrow" transform="rotate(270) translate(-36 17)" onmousedown="handlePan(-1,0)">
                  <use xlink:href="#rim" fill="#404040">
                        <set attributeName="fill" to="#808080" begin="arrowLeft.mouseover" end="arrowLeft.mouseout"/>
                  </use>
                  <path fill="none" stroke="white" stroke-width="1.5" d="M0,-3.0v7 M-2.5,-0.5L0,-3.0L2.5,-0.5"/>
                </g>
        </g>
        <svg viewBox="0 0 15 15" width="100%" height="30px" preserveAspectRatio="xMaxYMin meet">
         <g id="arrow_out" transform="scale(0.3 0.3)">
          <a xlink:href="a02491_org.svg" target="_base">
           <rect id="button" ry="5" rx="5" y="6" x="6" height="38" width="38"
                fill="#f2f5e9" fill-opacity="0.5" stroke="#606060" stroke-width="1.0"/>
           <path id="arrow"
             d="M 11.500037,31.436501 C 11.940474,20.09759 22.043105,11.32322 32.158766,21.979434 L 37.068811,17.246167 C 37.068811,17.246167 37.088388,32 37.088388,32 L 22.160133,31.978069 C 22.160133,31.978069 26.997745,27.140456 26.997745,27.140456 C 18.528582,18.264221 13.291696,25.230495 11.500037,31.436501 z"
             style="fill:#404040;"/>
          </a>
         </g>
        </svg>
</svg>
