<?xml version="1.0" encoding="UTF-8" standalone="no"?>
<!DOCTYPE svg PUBLIC "-//W3C//DTD SVG 1.1//EN"
 "http://www.w3.org/Graphics/SVG/1.1/DTD/svg11.dtd">
<!-- Generated by graphviz version 2.38.0 (20140413.2041)
 -->
<!-- Title: std::__detail::_Hash_node&lt; _Value, true &gt; Pages: 1 -->
<svg width="148pt" height="167pt"
 viewBox="0.00 0.00 148.00 167.00" xmlns="http://www.w3.org/2000/svg" xmlns:xlink="http://www.w3.org/1999/xlink">
<g id="graph0" class="graph" transform="scale(1 1) rotate(0) translate(4 163)">
<title>std::__detail::_Hash_node&lt; _Value, true &gt;</title>
<polygon fill="white" stroke="none" points="-4,4 -4,-163 144,-163 144,4 -4,4"/>
<!-- Node1 -->
<g id="node1" class="node"><title>Node1</title>
<polygon fill="#bfbfbf" stroke="black" points="16.5,-0.5 16.5,-28.5 123.5,-28.5 123.5,-0.5 16.5,-0.5"/>
<text text-anchor="start" x="24.5" y="-17.3" font-family="Helvetica,sans-Serif" font-size="9.00">std::__detail::_Hash</text>
<text text-anchor="middle" x="70" y="-7.3" font-family="Helvetica,sans-Serif" font-size="9.00">_node&lt; _Value, true &gt;</text>
</g>
<!-- Node2 -->
<g id="node2" class="node"><title>Node2</title>
<g id="a_node2"><a xlink:href="a00463.html" target="_top" xlink:title="std::__detail::_Hash\l_node_value_base\&lt; _Value \&gt;">
<polygon fill="white" stroke="black" points="0,-65.5 0,-93.5 140,-93.5 140,-65.5 0,-65.5"/>
<text text-anchor="start" x="8" y="-82.3" font-family="Helvetica,sans-Serif" font-size="9.00">std::__detail::_Hash</text>
<text text-anchor="middle" x="70" y="-72.3" font-family="Helvetica,sans-Serif" font-size="9.00">_node_value_base&lt; _Value &gt;</text>
</a>
</g>
</g>
<!-- Node2&#45;&gt;Node1 -->
<g id="edge1" class="edge"><title>Node2&#45;&gt;Node1</title>
<path fill="none" stroke="midnightblue" d="M70,-55.1641C70,-46.1693 70,-36.2205 70,-28.5369"/>
<polygon fill="midnightblue" stroke="midnightblue" points="66.5001,-55.4463 70,-65.4464 73.5001,-55.4464 66.5001,-55.4463"/>
</g>
<!-- Node3 -->
<g id="node3" class="node"><title>Node3</title>
<g id="a_node3"><a xlink:href="a00462.html" target="_top" xlink:title="std::__detail::_Hash\l_node_base">
<polygon fill="white" stroke="black" points="21,-130.5 21,-158.5 119,-158.5 119,-130.5 21,-130.5"/>
<text text-anchor="start" x="29" y="-147.3" font-family="Helvetica,sans-Serif" font-size="9.00">std::__detail::_Hash</text>
<text text-anchor="middle" x="70" y="-137.3" font-family="Helvetica,sans-Serif" font-size="9.00">_node_base</text>
</a>
</g>
</g>
<!-- Node3&#45;&gt;Node2 -->
<g id="edge2" class="edge"><title>Node3&#45;&gt;Node2</title>
<path fill="none" stroke="midnightblue" d="M70,-120.164C70,-111.169 70,-101.221 70,-93.5369"/>
<polygon fill="midnightblue" stroke="midnightblue" points="66.5001,-120.446 70,-130.446 73.5001,-120.446 66.5001,-120.446"/>
</g>
</g>
</svg>
