<?xml version="1.0" encoding="UTF-8" standalone="no"?>
<!DOCTYPE svg PUBLIC "-//W3C//DTD SVG 1.1//EN"
 "http://www.w3.org/Graphics/SVG/1.1/DTD/svg11.dtd">
<!-- Generated by graphviz version 2.38.0 (20140413.2041)
 -->
<!-- Title: std::__detail::_Hash_code_base&lt; _Key, _Value, _ExtractKey, _H1, _H2, _Hash, false &gt; Pages: 1 -->
<svg width="319pt" height="84pt"
 viewBox="0.00 0.00 319.00 84.00" xmlns="http://www.w3.org/2000/svg" xmlns:xlink="http://www.w3.org/1999/xlink">
<g id="graph0" class="graph" transform="scale(1 1) rotate(0) translate(4 80)">
<title>std::__detail::_Hash_code_base&lt; _Key, _Value, _ExtractKey, _H1, _H2, _Hash, false &gt;</title>
<polygon fill="white" stroke="none" points="-4,4 -4,-80 315,-80 315,4 -4,4"/>
<!-- Node1 -->
<g id="node1" class="node"><title>Node1</title>
<polygon fill="#bfbfbf" stroke="black" points="179,-13.5 179,-61.5 311,-61.5 311,-13.5 179,-13.5"/>
<text text-anchor="start" x="187" y="-50.3" font-family="Helvetica,sans-Serif" font-size="9.00">std::__detail::_Hash</text>
<text text-anchor="start" x="187" y="-40.3" font-family="Helvetica,sans-Serif" font-size="9.00">_code_base&lt; _Key, _Value,</text>
<text text-anchor="start" x="187" y="-30.3" font-family="Helvetica,sans-Serif" font-size="9.00"> _ExtractKey, _H1, _H2,</text>
<text text-anchor="middle" x="245" y="-20.3" font-family="Helvetica,sans-Serif" font-size="9.00"> _Hash, false &gt;</text>
</g>
<!-- Node2 -->
<g id="node2" class="node"><title>Node2</title>
<g id="a_node2"><a xlink:href="a00413.html" target="_top" xlink:title="std::__detail::_Hashtable\l_ebo_helper\&lt; 0, _ExtractKey \&gt;">
<polygon fill="white" stroke="black" points="0,-47.5 0,-75.5 143,-75.5 143,-47.5 0,-47.5"/>
<text text-anchor="start" x="8" y="-64.3" font-family="Helvetica,sans-Serif" font-size="9.00">std::__detail::_Hashtable</text>
<text text-anchor="middle" x="71.5" y="-54.3" font-family="Helvetica,sans-Serif" font-size="9.00">_ebo_helper&lt; 0, _ExtractKey &gt;</text>
</a>
</g>
</g>
<!-- Node2&#45;&gt;Node1 -->
<g id="edge1" class="edge"><title>Node2&#45;&gt;Node1</title>
<path fill="none" stroke="#8b1a1a" d="M153.283,-50.1951C161.877,-48.9924 170.538,-47.7804 178.919,-46.6076"/>
<polygon fill="#8b1a1a" stroke="#8b1a1a" points="152.664,-46.7475 143.246,-51.5997 153.634,-53.6799 152.664,-46.7475"/>
</g>
<!-- Node3 -->
<g id="node3" class="node"><title>Node3</title>
<g id="a_node3"><a xlink:href="a00413.html" target="_top" xlink:title="std::__detail::_Hashtable\l_ebo_helper\&lt; 1, _Hash \&gt;">
<polygon fill="white" stroke="black" points="11,-0.5 11,-28.5 132,-28.5 132,-0.5 11,-0.5"/>
<text text-anchor="start" x="19" y="-17.3" font-family="Helvetica,sans-Serif" font-size="9.00">std::__detail::_Hashtable</text>
<text text-anchor="middle" x="71.5" y="-7.3" font-family="Helvetica,sans-Serif" font-size="9.00">_ebo_helper&lt; 1, _Hash &gt;</text>
</a>
</g>
</g>
<!-- Node3&#45;&gt;Node1 -->
<g id="edge2" class="edge"><title>Node3&#45;&gt;Node1</title>
<path fill="none" stroke="#8b1a1a" d="M142.055,-23.8281C154.177,-25.4537 166.746,-27.1394 178.747,-28.7488"/>
<polygon fill="#8b1a1a" stroke="#8b1a1a" points="142.378,-20.3401 132.001,-22.4797 141.447,-27.278 142.378,-20.3401"/>
</g>
</g>
</svg>
