<?xml version="1.0" encoding="UTF-8" standalone="no"?>
<!DOCTYPE svg PUBLIC "-//W3C//DTD SVG 1.1//EN"
 "http://www.w3.org/Graphics/SVG/1.1/DTD/svg11.dtd">
<!-- Generated by graphviz version 2.38.0 (20140413.2041)
 -->
<!-- Title: std::__detail::_Hashtable_alloc&lt; _NodeAlloc &gt; Pages: 1 -->
<svg width="453pt" height="94pt"
 viewBox="0.00 0.00 453.00 94.00" xmlns="http://www.w3.org/2000/svg" xmlns:xlink="http://www.w3.org/1999/xlink">
<g id="graph0" class="graph" transform="scale(1 1) rotate(0) translate(4 90)">
<title>std::__detail::_Hashtable_alloc&lt; _NodeAlloc &gt;</title>
<polygon fill="white" stroke="none" points="-4,4 -4,-90 449,-90 449,4 -4,4"/>
<!-- Node1 -->
<g id="node1" class="node"><title>Node1</title>
<polygon fill="#bfbfbf" stroke="black" points="178,-26.5 178,-54.5 296,-54.5 296,-26.5 178,-26.5"/>
<text text-anchor="start" x="186" y="-43.3" font-family="Helvetica,sans-Serif" font-size="9.00">std::__detail::_Hashtable</text>
<text text-anchor="middle" x="237" y="-33.3" font-family="Helvetica,sans-Serif" font-size="9.00">_alloc&lt; _NodeAlloc &gt;</text>
</g>
<!-- Node3 -->
<g id="node3" class="node"><title>Node3</title>
<g id="a_node3"><a xlink:href="a00411.html" target="_top" xlink:title="_Hashtable\&lt; _Key, \l_Tp, _Hash, _Pred, \l_Alloc \&gt;">
<polygon fill="white" stroke="black" points="339.5,-47.5 339.5,-85.5 437.5,-85.5 437.5,-47.5 339.5,-47.5"/>
<text text-anchor="start" x="347.5" y="-74.3" font-family="Helvetica,sans-Serif" font-size="9.00">_Hashtable&lt; _Key, </text>
<text text-anchor="start" x="347.5" y="-64.3" font-family="Helvetica,sans-Serif" font-size="9.00">_Tp, _Hash, _Pred, </text>
<text text-anchor="middle" x="388.5" y="-54.3" font-family="Helvetica,sans-Serif" font-size="9.00">_Alloc &gt;</text>
</a>
</g>
</g>
<!-- Node1&#45;&gt;Node3 -->
<g id="edge2" class="edge"><title>Node1&#45;&gt;Node3</title>
<path fill="none" stroke="#8b1a1a" d="M306.37,-52.3904C317.502,-54.3264 328.824,-56.2955 339.339,-58.1242"/>
<polygon fill="#8b1a1a" stroke="#8b1a1a" points="306.681,-48.892 296.229,-50.6267 305.481,-55.7885 306.681,-48.892"/>
</g>
<!-- Node4 -->
<g id="node4" class="node"><title>Node4</title>
<g id="a_node4"><a xlink:href="a00411.html" target="_top" xlink:title="_Hashtable\&lt; _Value,\l _Hash, _Pred, _Alloc \&gt;">
<polygon fill="white" stroke="black" points="332,-0.5 332,-28.5 445,-28.5 445,-0.5 332,-0.5"/>
<text text-anchor="start" x="340" y="-17.3" font-family="Helvetica,sans-Serif" font-size="9.00">_Hashtable&lt; _Value,</text>
<text text-anchor="middle" x="388.5" y="-7.3" font-family="Helvetica,sans-Serif" font-size="9.00"> _Hash, _Pred, _Alloc &gt;</text>
</a>
</g>
</g>
<!-- Node1&#45;&gt;Node4 -->
<g id="edge3" class="edge"><title>Node1&#45;&gt;Node4</title>
<path fill="none" stroke="#8b1a1a" d="M306.158,-28.6464C314.685,-27.1635 323.327,-25.6605 331.636,-24.2155"/>
<polygon fill="#8b1a1a" stroke="#8b1a1a" points="305.481,-25.2115 296.229,-30.3733 306.681,-32.108 305.481,-25.2115"/>
</g>
<!-- Node2 -->
<g id="node2" class="node"><title>Node2</title>
<g id="a_node2"><a xlink:href="a00413.html" target="_top" xlink:title="std::__detail::_Hashtable\l_ebo_helper\&lt; 0, _NodeAlloc \&gt;">
<polygon fill="white" stroke="black" points="0,-26.5 0,-54.5 142,-54.5 142,-26.5 0,-26.5"/>
<text text-anchor="start" x="8" y="-43.3" font-family="Helvetica,sans-Serif" font-size="9.00">std::__detail::_Hashtable</text>
<text text-anchor="middle" x="71" y="-33.3" font-family="Helvetica,sans-Serif" font-size="9.00">_ebo_helper&lt; 0, _NodeAlloc &gt;</text>
</a>
</g>
</g>
<!-- Node2&#45;&gt;Node1 -->
<g id="edge1" class="edge"><title>Node2&#45;&gt;Node1</title>
<path fill="none" stroke="#8b1a1a" d="M152.149,-40.5C160.802,-40.5 169.483,-40.5 177.806,-40.5"/>
<polygon fill="#8b1a1a" stroke="#8b1a1a" points="152.027,-37.0001 142.026,-40.5 152.026,-44.0001 152.027,-37.0001"/>
</g>
</g>
</svg>
