<?xml version="1.0" encoding="UTF-8" standalone="no"?>
<!DOCTYPE svg PUBLIC "-//W3C//DTD SVG 1.1//EN"
 "http://www.w3.org/Graphics/SVG/1.1/DTD/svg11.dtd">
<!-- Generated by graphviz version 2.38.0 (20140413.2041)
 -->
<!-- Title: std::__detail::_Hashtable_base&lt; _Key, _Value, _ExtractKey, _Equal, _H1, _H2, _Hash, _Traits &gt; Pages: 1 -->
<svg width="517pt" height="161pt"
 viewBox="0.00 0.00 517.00 161.00" xmlns="http://www.w3.org/2000/svg" xmlns:xlink="http://www.w3.org/1999/xlink">
<g id="graph0" class="graph" transform="scale(1 1) rotate(0) translate(4 157)">
<title>std::__detail::_Hashtable_base&lt; _Key, _Value, _ExtractKey, _Equal, _H1, _H2, _Hash, _Traits &gt;</title>
<polygon fill="white" stroke="none" points="-4,4 -4,-157 513,-157 513,4 -4,4"/>
<!-- Node1 -->
<g id="node1" class="node"><title>Node1</title>
<polygon fill="#bfbfbf" stroke="black" points="185,-62.5 185,-100.5 348,-100.5 348,-62.5 185,-62.5"/>
<text text-anchor="start" x="193" y="-89.3" font-family="Helvetica,sans-Serif" font-size="9.00">std::__detail::_Hashtable</text>
<text text-anchor="start" x="193" y="-79.3" font-family="Helvetica,sans-Serif" font-size="9.00">_base&lt; _Key, _Value, _ExtractKey,</text>
<text text-anchor="middle" x="266.5" y="-69.3" font-family="Helvetica,sans-Serif" font-size="9.00"> _Equal, _H1, _H2, _Hash, _Traits &gt;</text>
</g>
<!-- Node4 -->
<g id="node4" class="node"><title>Node4</title>
<g id="a_node4"><a xlink:href="a00411.html" target="_top" xlink:title="_Hashtable\&lt; _Key, \l_Tp, _Hash, _Pred, \l_Alloc \&gt;">
<polygon fill="white" stroke="black" points="397.5,-114.5 397.5,-152.5 495.5,-152.5 495.5,-114.5 397.5,-114.5"/>
<text text-anchor="start" x="405.5" y="-141.3" font-family="Helvetica,sans-Serif" font-size="9.00">_Hashtable&lt; _Key, </text>
<text text-anchor="start" x="405.5" y="-131.3" font-family="Helvetica,sans-Serif" font-size="9.00">_Tp, _Hash, _Pred, </text>
<text text-anchor="middle" x="446.5" y="-121.3" font-family="Helvetica,sans-Serif" font-size="9.00">_Alloc &gt;</text>
</a>
</g>
</g>
<!-- Node1&#45;&gt;Node4 -->
<g id="edge3" class="edge"><title>Node1&#45;&gt;Node4</title>
<path fill="none" stroke="midnightblue" d="M342.382,-103.376C360.942,-108.798 380.343,-114.465 397.244,-119.403"/>
<polygon fill="midnightblue" stroke="midnightblue" points="343.35,-100.012 332.77,-100.568 341.387,-106.731 343.35,-100.012"/>
</g>
<!-- Node5 -->
<g id="node5" class="node"><title>Node5</title>
<g id="a_node5"><a xlink:href="a00411.html" target="_top" xlink:title="_Hashtable\&lt; _Value,\l _Hash, _Pred, _Alloc \&gt;">
<polygon fill="white" stroke="black" points="390,-67.5 390,-95.5 503,-95.5 503,-67.5 390,-67.5"/>
<text text-anchor="start" x="398" y="-84.3" font-family="Helvetica,sans-Serif" font-size="9.00">_Hashtable&lt; _Value,</text>
<text text-anchor="middle" x="446.5" y="-74.3" font-family="Helvetica,sans-Serif" font-size="9.00"> _Hash, _Pred, _Alloc &gt;</text>
</a>
</g>
</g>
<!-- Node1&#45;&gt;Node5 -->
<g id="edge4" class="edge"><title>Node1&#45;&gt;Node5</title>
<path fill="none" stroke="midnightblue" d="M358.422,-81.5C369.127,-81.5 379.794,-81.5 389.805,-81.5"/>
<polygon fill="midnightblue" stroke="midnightblue" points="358.167,-78.0001 348.167,-81.5 358.167,-85.0001 358.167,-78.0001"/>
</g>
<!-- Node6 -->
<g id="node6" class="node"><title>Node6</title>
<g id="a_node6"><a xlink:href="a00411.html" target="_top" xlink:title="std::_Hashtable\&lt; _Key,\l _Value, _ExtractKey,\l _Equal, _H1, _H2, _Hash,\l _Traits \&gt;">
<polygon fill="white" stroke="black" points="384,-0.5 384,-48.5 509,-48.5 509,-0.5 384,-0.5"/>
<text text-anchor="start" x="392" y="-37.3" font-family="Helvetica,sans-Serif" font-size="9.00">std::_Hashtable&lt; _Key,</text>
<text text-anchor="start" x="392" y="-27.3" font-family="Helvetica,sans-Serif" font-size="9.00"> _Value, _ExtractKey,</text>
<text text-anchor="start" x="392" y="-17.3" font-family="Helvetica,sans-Serif" font-size="9.00"> _Equal, _H1, _H2, _Hash,</text>
<text text-anchor="middle" x="446.5" y="-7.3" font-family="Helvetica,sans-Serif" font-size="9.00"> _Traits &gt;</text>
</a>
</g>
</g>
<!-- Node1&#45;&gt;Node6 -->
<g id="edge5" class="edge"><title>Node1&#45;&gt;Node6</title>
<path fill="none" stroke="midnightblue" d="M337.223,-59.1729C352.582,-54.2545 368.746,-49.0785 383.763,-44.2696"/>
<polygon fill="midnightblue" stroke="midnightblue" points="335.723,-55.9782 327.267,-62.3613 337.858,-62.6448 335.723,-55.9782"/>
</g>
<!-- Node2 -->
<g id="node2" class="node"><title>Node2</title>
<g id="a_node2"><a xlink:href="a00410.html" target="_top" xlink:title="std::__detail::_Hash\l_code_base\&lt; _Key, _Value,\l _ExtractKey, _H1, _H2,\l _Hash, _Traits::__hash_cached\l::value \&gt;">
<polygon fill="white" stroke="black" points="0,-83.5 0,-141.5 149,-141.5 149,-83.5 0,-83.5"/>
<text text-anchor="start" x="8" y="-130.3" font-family="Helvetica,sans-Serif" font-size="9.00">std::__detail::_Hash</text>
<text text-anchor="start" x="8" y="-120.3" font-family="Helvetica,sans-Serif" font-size="9.00">_code_base&lt; _Key, _Value,</text>
<text text-anchor="start" x="8" y="-110.3" font-family="Helvetica,sans-Serif" font-size="9.00"> _ExtractKey, _H1, _H2,</text>
<text text-anchor="start" x="8" y="-100.3" font-family="Helvetica,sans-Serif" font-size="9.00"> _Hash, _Traits::__hash_cached</text>
<text text-anchor="middle" x="74.5" y="-90.3" font-family="Helvetica,sans-Serif" font-size="9.00">::value &gt;</text>
</a>
</g>
</g>
<!-- Node2&#45;&gt;Node1 -->
<g id="edge1" class="edge"><title>Node2&#45;&gt;Node1</title>
<path fill="none" stroke="midnightblue" d="M159.179,-98.8471C167.716,-97.4543 176.377,-96.0412 184.88,-94.6538"/>
<polygon fill="midnightblue" stroke="midnightblue" points="158.537,-95.4055 149.231,-100.47 159.664,-102.314 158.537,-95.4055"/>
</g>
<!-- Node3 -->
<g id="node3" class="node"><title>Node3</title>
<g id="a_node3"><a xlink:href="a00413.html" target="_top" xlink:title="std::__detail::_Hashtable\l_ebo_helper\&lt; 0, _Equal \&gt;">
<polygon fill="white" stroke="black" points="13,-36.5 13,-64.5 136,-64.5 136,-36.5 13,-36.5"/>
<text text-anchor="start" x="21" y="-53.3" font-family="Helvetica,sans-Serif" font-size="9.00">std::__detail::_Hashtable</text>
<text text-anchor="middle" x="74.5" y="-43.3" font-family="Helvetica,sans-Serif" font-size="9.00">_ebo_helper&lt; 0, _Equal &gt;</text>
</a>
</g>
</g>
<!-- Node3&#45;&gt;Node1 -->
<g id="edge2" class="edge"><title>Node3&#45;&gt;Node1</title>
<path fill="none" stroke="#8b1a1a" d="M146.138,-62.0251C158.793,-64.0899 172.067,-66.2556 184.976,-68.3618"/>
<polygon fill="#8b1a1a" stroke="#8b1a1a" points="146.573,-58.5499 136.14,-60.3938 145.445,-65.4585 146.573,-58.5499"/>
</g>
</g>
</svg>
