<?xml version="1.0" encoding="UTF-8" standalone="no"?>
<!DOCTYPE svg PUBLIC "-//W3C//DTD SVG 1.1//EN"
 "http://www.w3.org/Graphics/SVG/1.1/DTD/svg11.dtd">
<!-- Generated by graphviz version 2.38.0 (20140413.2041)
 -->
<!-- Title: std::__debug::map&lt; _Key, _Tp, _Compare, _Allocator &gt; Pages: 1 -->
<svg width="756pt" height="67pt"
 viewBox="0.00 0.00 756.00 67.00" xmlns="http://www.w3.org/2000/svg" xmlns:xlink="http://www.w3.org/1999/xlink">
<g id="graph0" class="graph" transform="scale(1 1) rotate(0) translate(4 63)">
<title>std::__debug::map&lt; _Key, _Tp, _Compare, _Allocator &gt;</title>
<polygon fill="white" stroke="none" points="-4,4 -4,-63 752,-63 752,4 -4,4"/>
<!-- Node1 -->
<g id="node1" class="node"><title>Node1</title>
<polygon fill="#bfbfbf" stroke="black" points="638,-10.5 638,-48.5 748,-48.5 748,-10.5 638,-10.5"/>
<text text-anchor="start" x="646" y="-37.3" font-family="Helvetica,sans-Serif" font-size="9.00">std::__debug::map&lt;</text>
<text text-anchor="start" x="646" y="-27.3" font-family="Helvetica,sans-Serif" font-size="9.00"> _Key, _Tp, _Compare,</text>
<text text-anchor="middle" x="693" y="-17.3" font-family="Helvetica,sans-Serif" font-size="9.00"> _Allocator &gt;</text>
</g>
<!-- Node2 -->
<g id="node2" class="node"><title>Node2</title>
<g id="a_node2"><a xlink:href="a00066.html" target="_top" xlink:title="__gnu_debug::_Safe\l_container\&lt; map\&lt; _Key,\l _Tp, _Compare, _Allocator\l \&gt;, _Allocator, __gnu_debug\l::_Safe_node_sequence \&gt;">
<polygon fill="white" stroke="black" points="470,-0.5 470,-58.5 602,-58.5 602,-0.5 470,-0.5"/>
<text text-anchor="start" x="478" y="-47.3" font-family="Helvetica,sans-Serif" font-size="9.00">__gnu_debug::_Safe</text>
<text text-anchor="start" x="478" y="-37.3" font-family="Helvetica,sans-Serif" font-size="9.00">_container&lt; map&lt; _Key,</text>
<text text-anchor="start" x="478" y="-27.3" font-family="Helvetica,sans-Serif" font-size="9.00"> _Tp, _Compare, _Allocator</text>
<text text-anchor="start" x="478" y="-17.3" font-family="Helvetica,sans-Serif" font-size="9.00"> &gt;, _Allocator, __gnu_debug</text>
<text text-anchor="middle" x="536" y="-7.3" font-family="Helvetica,sans-Serif" font-size="9.00">::_Safe_node_sequence &gt;</text>
</a>
</g>
</g>
<!-- Node2&#45;&gt;Node1 -->
<g id="edge1" class="edge"><title>Node2&#45;&gt;Node1</title>
<path fill="none" stroke="midnightblue" d="M612.542,-29.5C620.986,-29.5 629.461,-29.5 637.566,-29.5"/>
<polygon fill="midnightblue" stroke="midnightblue" points="612.285,-26.0001 602.285,-29.5 612.285,-33.0001 612.285,-26.0001"/>
</g>
<!-- Node3 -->
<g id="node3" class="node"><title>Node3</title>
<g id="a_node3"><a xlink:href="a00071.html" target="_top" xlink:title="__gnu_debug::_Safe\l_node_sequence\&lt; map\l\&lt; _Key, _Tp, _Compare,\l _Allocator \&gt; \&gt;">
<polygon fill="white" stroke="black" points="318,-5.5 318,-53.5 434,-53.5 434,-5.5 318,-5.5"/>
<text text-anchor="start" x="326" y="-42.3" font-family="Helvetica,sans-Serif" font-size="9.00">__gnu_debug::_Safe</text>
<text text-anchor="start" x="326" y="-32.3" font-family="Helvetica,sans-Serif" font-size="9.00">_node_sequence&lt; map</text>
<text text-anchor="start" x="326" y="-22.3" font-family="Helvetica,sans-Serif" font-size="9.00">&lt; _Key, _Tp, _Compare,</text>
<text text-anchor="middle" x="376" y="-12.3" font-family="Helvetica,sans-Serif" font-size="9.00"> _Allocator &gt; &gt;</text>
</a>
</g>
</g>
<!-- Node3&#45;&gt;Node2 -->
<g id="edge2" class="edge"><title>Node3&#45;&gt;Node2</title>
<path fill="none" stroke="midnightblue" d="M444.306,-29.5C452.82,-29.5 461.518,-29.5 469.994,-29.5"/>
<polygon fill="midnightblue" stroke="midnightblue" points="444.042,-26.0001 434.042,-29.5 444.042,-33.0001 444.042,-26.0001"/>
</g>
<!-- Node4 -->
<g id="node4" class="node"><title>Node4</title>
<g id="a_node4"><a xlink:href="a00072.html" target="_top" xlink:title="__gnu_debug::_Safe\l_sequence\&lt; map\&lt; _Key,\l _Tp, _Compare, _Allocator \&gt; \&gt;">
<polygon fill="white" stroke="black" points="139,-10.5 139,-48.5 282,-48.5 282,-10.5 139,-10.5"/>
<text text-anchor="start" x="147" y="-37.3" font-family="Helvetica,sans-Serif" font-size="9.00">__gnu_debug::_Safe</text>
<text text-anchor="start" x="147" y="-27.3" font-family="Helvetica,sans-Serif" font-size="9.00">_sequence&lt; map&lt; _Key,</text>
<text text-anchor="middle" x="210.5" y="-17.3" font-family="Helvetica,sans-Serif" font-size="9.00"> _Tp, _Compare, _Allocator &gt; &gt;</text>
</a>
</g>
</g>
<!-- Node4&#45;&gt;Node3 -->
<g id="edge3" class="edge"><title>Node4&#45;&gt;Node3</title>
<path fill="none" stroke="midnightblue" d="M292.364,-29.5C300.993,-29.5 309.636,-29.5 317.907,-29.5"/>
<polygon fill="midnightblue" stroke="midnightblue" points="292.263,-26.0001 282.263,-29.5 292.263,-33.0001 292.263,-26.0001"/>
</g>
<!-- Node5 -->
<g id="node5" class="node"><title>Node5</title>
<g id="a_node5"><a xlink:href="a00073.html" target="_top" xlink:title="Base class that supports tracking of iterators that reference a sequence. ">
<polygon fill="white" stroke="black" points="0,-15.5 0,-43.5 103,-43.5 103,-15.5 0,-15.5"/>
<text text-anchor="start" x="8" y="-32.3" font-family="Helvetica,sans-Serif" font-size="9.00">__gnu_debug::_Safe</text>
<text text-anchor="middle" x="51.5" y="-22.3" font-family="Helvetica,sans-Serif" font-size="9.00">_sequence_base</text>
</a>
</g>
</g>
<!-- Node5&#45;&gt;Node4 -->
<g id="edge4" class="edge"><title>Node5&#45;&gt;Node4</title>
<path fill="none" stroke="midnightblue" d="M113.111,-29.5C121.507,-29.5 130.192,-29.5 138.752,-29.5"/>
<polygon fill="midnightblue" stroke="midnightblue" points="113.04,-26.0001 103.04,-29.5 113.04,-33.0001 113.04,-26.0001"/>
</g>
</g>
</svg>
