<?xml version="1.0" encoding="UTF-8" standalone="no"?>
<!DOCTYPE svg PUBLIC "-//W3C//DTD SVG 1.1//EN"
 "http://www.w3.org/Graphics/SVG/1.1/DTD/svg11.dtd">
<!-- Generated by graphviz version 2.38.0 (20140413.2041)
 -->
<!-- Title: std::__detail::_Insert&lt; _Key, _Value, _Alloc, _ExtractKey, _Equal, _H1, _H2, _Hash, _RehashPolicy, _Traits, _Constant_iterators, _Unique_keys &gt; Pages: 1 -->
<svg width="313pt" height="94pt"
 viewBox="0.00 0.00 313.00 94.00" xmlns="http://www.w3.org/2000/svg" xmlns:xlink="http://www.w3.org/1999/xlink">
<g id="graph0" class="graph" transform="scale(1 1) rotate(0) translate(4 90)">
<title>std::__detail::_Insert&lt; _Key, _Value, _Alloc, _ExtractKey, _Equal, _H1, _H2, _Hash, _RehashPolicy, _Traits, _Constant_iterators, _Unique_keys &gt;</title>
<polygon fill="white" stroke="none" points="-4,4 -4,-90 309,-90 309,4 -4,4"/>
<!-- Node1 -->
<g id="node1" class="node"><title>Node1</title>
<polygon fill="#bfbfbf" stroke="black" points="0,-6.5 0,-74.5 156,-74.5 156,-6.5 0,-6.5"/>
<text text-anchor="start" x="8" y="-63.3" font-family="Helvetica,sans-Serif" font-size="9.00">std::__detail::_Insert</text>
<text text-anchor="start" x="8" y="-53.3" font-family="Helvetica,sans-Serif" font-size="9.00">&lt; _Key, _Value, _Alloc,</text>
<text text-anchor="start" x="8" y="-43.3" font-family="Helvetica,sans-Serif" font-size="9.00"> _ExtractKey, _Equal, </text>
<text text-anchor="start" x="8" y="-33.3" font-family="Helvetica,sans-Serif" font-size="9.00">_H1, _H2, _Hash, _RehashPolicy,</text>
<text text-anchor="start" x="8" y="-23.3" font-family="Helvetica,sans-Serif" font-size="9.00"> _Traits, _Constant_iterators,</text>
<text text-anchor="middle" x="78" y="-13.3" font-family="Helvetica,sans-Serif" font-size="9.00"> _Unique_keys &gt;</text>
</g>
<!-- Node2 -->
<g id="node2" class="node"><title>Node2</title>
<g id="a_node2"><a xlink:href="a00411.html" target="_top" xlink:title="_Hashtable\&lt; _Key, \l_Tp, _Hash, _Pred, \l_Alloc \&gt;">
<polygon fill="white" stroke="black" points="199.5,-47.5 199.5,-85.5 297.5,-85.5 297.5,-47.5 199.5,-47.5"/>
<text text-anchor="start" x="207.5" y="-74.3" font-family="Helvetica,sans-Serif" font-size="9.00">_Hashtable&lt; _Key, </text>
<text text-anchor="start" x="207.5" y="-64.3" font-family="Helvetica,sans-Serif" font-size="9.00">_Tp, _Hash, _Pred, </text>
<text text-anchor="middle" x="248.5" y="-54.3" font-family="Helvetica,sans-Serif" font-size="9.00">_Alloc &gt;</text>
</a>
</g>
</g>
<!-- Node1&#45;&gt;Node2 -->
<g id="edge1" class="edge"><title>Node1&#45;&gt;Node2</title>
<path fill="none" stroke="midnightblue" d="M166.247,-53.9624C177.516,-55.7013 188.713,-57.429 199.031,-59.0211"/>
<polygon fill="midnightblue" stroke="midnightblue" points="166.763,-50.5007 156.346,-52.4347 165.695,-57.4188 166.763,-50.5007"/>
</g>
<!-- Node3 -->
<g id="node3" class="node"><title>Node3</title>
<g id="a_node3"><a xlink:href="a00411.html" target="_top" xlink:title="_Hashtable\&lt; _Value,\l _Hash, _Pred, _Alloc \&gt;">
<polygon fill="white" stroke="black" points="192,-0.5 192,-28.5 305,-28.5 305,-0.5 192,-0.5"/>
<text text-anchor="start" x="200" y="-17.3" font-family="Helvetica,sans-Serif" font-size="9.00">_Hashtable&lt; _Value,</text>
<text text-anchor="middle" x="248.5" y="-7.3" font-family="Helvetica,sans-Serif" font-size="9.00"> _Hash, _Pred, _Alloc &gt;</text>
</a>
</g>
</g>
<!-- Node1&#45;&gt;Node3 -->
<g id="edge2" class="edge"><title>Node1&#45;&gt;Node3</title>
<path fill="none" stroke="midnightblue" d="M166.442,-27.0075C175.044,-25.6802 183.601,-24.3599 191.754,-23.1018"/>
<polygon fill="midnightblue" stroke="midnightblue" points="165.695,-23.5812 156.346,-28.5653 166.763,-30.4993 165.695,-23.5812"/>
</g>
</g>
</svg>
