<?xml version="1.0" encoding="UTF-8" standalone="no"?>
<!DOCTYPE svg PUBLIC "-//W3C//DTD SVG 1.1//EN"
 "http://www.w3.org/Graphics/SVG/1.1/DTD/svg11.dtd">
<!-- Generated by graphviz version 2.38.0 (20140413.2041)
 -->
<!-- Title: std::__detail::_Equality&lt; _Key, _Value, _Alloc, _ExtractKey, _Equal, _H1, _H2, _Hash, _RehashPolicy, _Traits, false &gt; Pages: 1 -->
<svg width="145pt" height="122pt"
 viewBox="0.00 0.00 145.00 122.00" xmlns="http://www.w3.org/2000/svg" xmlns:xlink="http://www.w3.org/1999/xlink">
<g id="graph0" class="graph" transform="scale(1 1) rotate(0) translate(4 118)">
<title>std::__detail::_Equality&lt; _Key, _Value, _Alloc, _ExtractKey, _Equal, _H1, _H2, _Hash, _RehashPolicy, _Traits, false &gt;</title>
<polygon fill="white" stroke="none" points="-4,4 -4,-118 141,-118 141,4 -4,4"/>
<!-- Node1 -->
<g id="node1" class="node"><title>Node1</title>
<polygon fill="#bfbfbf" stroke="black" points="0,-0.5 0,-58.5 137,-58.5 137,-0.5 0,-0.5"/>
<text text-anchor="start" x="8" y="-47.3" font-family="Helvetica,sans-Serif" font-size="9.00">std::__detail::_Equality</text>
<text text-anchor="start" x="8" y="-37.3" font-family="Helvetica,sans-Serif" font-size="9.00">&lt; _Key, _Value, _Alloc,</text>
<text text-anchor="start" x="8" y="-27.3" font-family="Helvetica,sans-Serif" font-size="9.00"> _ExtractKey, _Equal, _H1,</text>
<text text-anchor="start" x="8" y="-17.3" font-family="Helvetica,sans-Serif" font-size="9.00"> _H2, _Hash, _RehashPolicy,</text>
<text text-anchor="middle" x="68.5" y="-7.3" font-family="Helvetica,sans-Serif" font-size="9.00"> _Traits, false &gt;</text>
</g>
<!-- Node2 -->
<g id="node2" class="node"><title>Node2</title>
<g id="a_node2"><a xlink:href="a00454.html" target="_top" xlink:title="std::__detail::_Equality_base">
<polygon fill="white" stroke="black" points="1.5,-95.5 1.5,-113.5 135.5,-113.5 135.5,-95.5 1.5,-95.5"/>
<text text-anchor="middle" x="68.5" y="-102.3" font-family="Helvetica,sans-Serif" font-size="9.00">std::__detail::_Equality_base</text>
</a>
</g>
</g>
<!-- Node2&#45;&gt;Node1 -->
<g id="edge1" class="edge"><title>Node2&#45;&gt;Node1</title>
<path fill="none" stroke="midnightblue" d="M68.5,-85.3704C68.5,-77.3447 68.5,-67.7162 68.5,-58.7808"/>
<polygon fill="midnightblue" stroke="midnightblue" points="65.0001,-85.4088 68.5,-95.4088 72.0001,-85.4088 65.0001,-85.4088"/>
</g>
</g>
</svg>
