<?xml version="1.0" encoding="UTF-8" standalone="no"?>
<!DOCTYPE svg PUBLIC "-//W3C//DTD SVG 1.1//EN"
 "http://www.w3.org/Graphics/SVG/1.1/DTD/svg11.dtd">
<!-- Generated by graphviz version 2.38.0 (20140413.2041)
 -->
<!-- Title: std::raw_storage_iterator&lt; _OutputIterator, _Tp &gt; Pages: 1 -->
<svg width="126pt" height="112pt"
 viewBox="0.00 0.00 126.00 112.00" xmlns="http://www.w3.org/2000/svg" xmlns:xlink="http://www.w3.org/1999/xlink">
<g id="graph0" class="graph" transform="scale(1 1) rotate(0) translate(4 108)">
<title>std::raw_storage_iterator&lt; _OutputIterator, _Tp &gt;</title>
<polygon fill="white" stroke="none" points="-4,4 -4,-108 122,-108 122,4 -4,4"/>
<!-- Node1 -->
<g id="node1" class="node"><title>Node1</title>
<polygon fill="#bfbfbf" stroke="black" points="0,-0.5 0,-28.5 118,-28.5 118,-0.5 0,-0.5"/>
<text text-anchor="start" x="8" y="-17.3" font-family="Helvetica,sans-Serif" font-size="9.00">std::raw_storage_iterator</text>
<text text-anchor="middle" x="59" y="-7.3" font-family="Helvetica,sans-Serif" font-size="9.00">&lt; _OutputIterator, _Tp &gt;</text>
</g>
<!-- Node2 -->
<g id="node2" class="node"><title>Node2</title>
<g id="a_node2"><a xlink:href="a00427.html" target="_top" xlink:title="std::iterator\&lt; output\l_iterator_tag, void,\l void, void, void \&gt;">
<polygon fill="white" stroke="black" points="11.5,-65.5 11.5,-103.5 106.5,-103.5 106.5,-65.5 11.5,-65.5"/>
<text text-anchor="start" x="19.5" y="-92.3" font-family="Helvetica,sans-Serif" font-size="9.00">std::iterator&lt; output</text>
<text text-anchor="start" x="19.5" y="-82.3" font-family="Helvetica,sans-Serif" font-size="9.00">_iterator_tag, void,</text>
<text text-anchor="middle" x="59" y="-72.3" font-family="Helvetica,sans-Serif" font-size="9.00"> void, void, void &gt;</text>
</a>
</g>
</g>
<!-- Node2&#45;&gt;Node1 -->
<g id="edge1" class="edge"><title>Node2&#45;&gt;Node1</title>
<path fill="none" stroke="midnightblue" d="M59,-55.0135C59,-45.9213 59,-36.2886 59,-28.8104"/>
<polygon fill="midnightblue" stroke="midnightblue" points="55.5001,-55.2772 59,-65.2772 62.5001,-55.2773 55.5001,-55.2772"/>
</g>
</g>
</svg>
