<?xml version="1.0" encoding="UTF-8" standalone="no"?>
<!DOCTYPE svg PUBLIC "-//W3C//DTD SVG 1.1//EN"
 "http://www.w3.org/Graphics/SVG/1.1/DTD/svg11.dtd">
<!-- Generated by graphviz version 2.38.0 (20140413.2041)
 -->
<!-- Title: std::time_base Pages: 1 -->
<svg width="117pt" height="157pt"
 viewBox="0.00 0.00 117.00 157.00" xmlns="http://www.w3.org/2000/svg" xmlns:xlink="http://www.w3.org/1999/xlink">
<g id="graph0" class="graph" transform="scale(1 1) rotate(0) translate(4 153)">
<title>std::time_base</title>
<polygon fill="white" stroke="none" points="-4,4 -4,-153 113,-153 113,4 -4,4"/>
<!-- Node1 -->
<g id="node1" class="node"><title>Node1</title>
<polygon fill="#bfbfbf" stroke="black" points="16.5,-130.5 16.5,-148.5 92.5,-148.5 92.5,-130.5 16.5,-130.5"/>
<text text-anchor="middle" x="54.5" y="-137.3" font-family="Helvetica,sans-Serif" font-size="9.00">std::time_base</text>
</g>
<!-- Node2 -->
<g id="node2" class="node"><title>Node2</title>
<g id="a_node2"><a xlink:href="a00699.html" target="_top" xlink:title="Primary class template time_get.This facet encapsulates the code to parse and return a date or time f...">
<polygon fill="white" stroke="black" points="0,-65.5 0,-93.5 109,-93.5 109,-65.5 0,-65.5"/>
<text text-anchor="start" x="8" y="-82.3" font-family="Helvetica,sans-Serif" font-size="9.00">std::time_get&lt; _CharT,</text>
<text text-anchor="middle" x="54.5" y="-72.3" font-family="Helvetica,sans-Serif" font-size="9.00"> _InIter &gt;</text>
</a>
</g>
</g>
<!-- Node1&#45;&gt;Node2 -->
<g id="edge1" class="edge"><title>Node1&#45;&gt;Node2</title>
<path fill="none" stroke="midnightblue" d="M54.5,-120.321C54.5,-111.747 54.5,-101.7 54.5,-93.8428"/>
<polygon fill="midnightblue" stroke="midnightblue" points="51.0001,-120.435 54.5,-130.435 58.0001,-120.435 51.0001,-120.435"/>
</g>
<!-- Node3 -->
<g id="node3" class="node"><title>Node3</title>
<g id="a_node3"><a xlink:href="a00700.html" target="_top" xlink:title="class time_get_byname [22.2.5.2]. ">
<polygon fill="white" stroke="black" points="1,-0.5 1,-28.5 108,-28.5 108,-0.5 1,-0.5"/>
<text text-anchor="start" x="9" y="-17.3" font-family="Helvetica,sans-Serif" font-size="9.00">std::time_get_byname</text>
<text text-anchor="middle" x="54.5" y="-7.3" font-family="Helvetica,sans-Serif" font-size="9.00">&lt; _CharT, _InIter &gt;</text>
</a>
</g>
</g>
<!-- Node2&#45;&gt;Node3 -->
<g id="edge2" class="edge"><title>Node2&#45;&gt;Node3</title>
<path fill="none" stroke="midnightblue" d="M54.5,-55.1641C54.5,-46.1693 54.5,-36.2205 54.5,-28.5369"/>
<polygon fill="midnightblue" stroke="midnightblue" points="51.0001,-55.4463 54.5,-65.4464 58.0001,-55.4464 51.0001,-55.4463"/>
</g>
</g>
</svg>
