<?xml version="1.0" encoding="UTF-8" standalone="no"?>
<!DOCTYPE svg PUBLIC "-//W3C//DTD SVG 1.1//EN"
 "http://www.w3.org/Graphics/SVG/1.1/DTD/svg11.dtd">
<!-- Generated by graphviz version 2.38.0 (20140413.2041)
 -->
<!-- Title: std::__detail::_Equality&lt; _Key, _Value, _Alloc, _ExtractKey, _Equal, _H1, _H2, _Hash, _RehashPolicy, _Traits, _Unique_keys &gt; Pages: 1 -->
<svg width="294pt" height="94pt"
 viewBox="0.00 0.00 294.00 94.00" xmlns="http://www.w3.org/2000/svg" xmlns:xlink="http://www.w3.org/1999/xlink">
<g id="graph0" class="graph" transform="scale(1 1) rotate(0) translate(4 90)">
<title>std::__detail::_Equality&lt; _Key, _Value, _Alloc, _ExtractKey, _Equal, _H1, _H2, _Hash, _RehashPolicy, _Traits, _Unique_keys &gt;</title>
<polygon fill="white" stroke="none" points="-4,4 -4,-90 290,-90 290,4 -4,4"/>
<!-- Node1 -->
<g id="node1" class="node"><title>Node1</title>
<polygon fill="#bfbfbf" stroke="black" points="0,-11.5 0,-69.5 137,-69.5 137,-11.5 0,-11.5"/>
<text text-anchor="start" x="8" y="-58.3" font-family="Helvetica,sans-Serif" font-size="9.00">std::__detail::_Equality</text>
<text text-anchor="start" x="8" y="-48.3" font-family="Helvetica,sans-Serif" font-size="9.00">&lt; _Key, _Value, _Alloc,</text>
<text text-anchor="start" x="8" y="-38.3" font-family="Helvetica,sans-Serif" font-size="9.00"> _ExtractKey, _Equal, _H1,</text>
<text text-anchor="start" x="8" y="-28.3" font-family="Helvetica,sans-Serif" font-size="9.00"> _H2, _Hash, _RehashPolicy,</text>
<text text-anchor="middle" x="68.5" y="-18.3" font-family="Helvetica,sans-Serif" font-size="9.00"> _Traits, _Unique_keys &gt;</text>
</g>
<!-- Node2 -->
<g id="node2" class="node"><title>Node2</title>
<g id="a_node2"><a xlink:href="a00411.html" target="_top" xlink:title="_Hashtable\&lt; _Key, \l_Tp, _Hash, _Pred, \l_Alloc \&gt;">
<polygon fill="white" stroke="black" points="180.5,-47.5 180.5,-85.5 278.5,-85.5 278.5,-47.5 180.5,-47.5"/>
<text text-anchor="start" x="188.5" y="-74.3" font-family="Helvetica,sans-Serif" font-size="9.00">_Hashtable&lt; _Key, </text>
<text text-anchor="start" x="188.5" y="-64.3" font-family="Helvetica,sans-Serif" font-size="9.00">_Tp, _Hash, _Pred, </text>
<text text-anchor="middle" x="229.5" y="-54.3" font-family="Helvetica,sans-Serif" font-size="9.00">_Alloc &gt;</text>
</a>
</g>
</g>
<!-- Node1&#45;&gt;Node2 -->
<g id="edge1" class="edge"><title>Node1&#45;&gt;Node2</title>
<path fill="none" stroke="midnightblue" d="M147.541,-53.2614C158.631,-55.0749 169.759,-56.8945 180.061,-58.5792"/>
<polygon fill="midnightblue" stroke="midnightblue" points="147.825,-49.7615 137.392,-51.6018 146.696,-56.6697 147.825,-49.7615"/>
</g>
<!-- Node3 -->
<g id="node3" class="node"><title>Node3</title>
<g id="a_node3"><a xlink:href="a00411.html" target="_top" xlink:title="_Hashtable\&lt; _Value,\l _Hash, _Pred, _Alloc \&gt;">
<polygon fill="white" stroke="black" points="173,-0.5 173,-28.5 286,-28.5 286,-0.5 173,-0.5"/>
<text text-anchor="start" x="181" y="-17.3" font-family="Helvetica,sans-Serif" font-size="9.00">_Hashtable&lt; _Value,</text>
<text text-anchor="middle" x="229.5" y="-7.3" font-family="Helvetica,sans-Serif" font-size="9.00"> _Hash, _Pred, _Alloc &gt;</text>
</a>
</g>
</g>
<!-- Node1&#45;&gt;Node3 -->
<g id="edge2" class="edge"><title>Node1&#45;&gt;Node3</title>
<path fill="none" stroke="midnightblue" d="M147.421,-27.7582C155.995,-26.3562 164.593,-24.9502 172.816,-23.6055"/>
<polygon fill="midnightblue" stroke="midnightblue" points="146.696,-24.3302 137.392,-29.3982 147.825,-31.2385 146.696,-24.3302"/>
</g>
</g>
</svg>
