<?xml version="1.0" encoding="UTF-8" standalone="no"?>
<!DOCTYPE svg PUBLIC "-//W3C//DTD SVG 1.1//EN"
 "http://www.w3.org/Graphics/SVG/1.1/DTD/svg11.dtd">
<!-- Generated by graphviz version 2.38.0 (20140413.2041)
 -->
<!-- Title: std::__detail::_Hash_code_base&lt; _Key, _Value, _ExtractKey, _H1, _H2, _Default_ranged_hash, true &gt; Pages: 1 -->
<svg width="328pt" height="131pt"
 viewBox="0.00 0.00 328.00 131.00" xmlns="http://www.w3.org/2000/svg" xmlns:xlink="http://www.w3.org/1999/xlink">
<g id="graph0" class="graph" transform="scale(1 1) rotate(0) translate(4 127)">
<title>std::__detail::_Hash_code_base&lt; _Key, _Value, _ExtractKey, _H1, _H2, _Default_ranged_hash, true &gt;</title>
<polygon fill="white" stroke="none" points="-4,4 -4,-127 324,-127 324,4 -4,4"/>
<!-- Node1 -->
<g id="node1" class="node"><title>Node1</title>
<polygon fill="#bfbfbf" stroke="black" points="179,-37.5 179,-85.5 320,-85.5 320,-37.5 179,-37.5"/>
<text text-anchor="start" x="187" y="-74.3" font-family="Helvetica,sans-Serif" font-size="9.00">std::__detail::_Hash</text>
<text text-anchor="start" x="187" y="-64.3" font-family="Helvetica,sans-Serif" font-size="9.00">_code_base&lt; _Key, _Value,</text>
<text text-anchor="start" x="187" y="-54.3" font-family="Helvetica,sans-Serif" font-size="9.00"> _ExtractKey, _H1, _H2,</text>
<text text-anchor="middle" x="249.5" y="-44.3" font-family="Helvetica,sans-Serif" font-size="9.00"> _Default_ranged_hash, true &gt;</text>
</g>
<!-- Node2 -->
<g id="node2" class="node"><title>Node2</title>
<g id="a_node2"><a xlink:href="a00413.html" target="_top" xlink:title="std::__detail::_Hashtable\l_ebo_helper\&lt; 0, _ExtractKey \&gt;">
<polygon fill="white" stroke="black" points="0,-94.5 0,-122.5 143,-122.5 143,-94.5 0,-94.5"/>
<text text-anchor="start" x="8" y="-111.3" font-family="Helvetica,sans-Serif" font-size="9.00">std::__detail::_Hashtable</text>
<text text-anchor="middle" x="71.5" y="-101.3" font-family="Helvetica,sans-Serif" font-size="9.00">_ebo_helper&lt; 0, _ExtractKey &gt;</text>
</a>
</g>
</g>
<!-- Node2&#45;&gt;Node1 -->
<g id="edge1" class="edge"><title>Node2&#45;&gt;Node1</title>
<path fill="none" stroke="#8b1a1a" d="M135.366,-91.7119C149.441,-87.9533 164.452,-83.9446 178.786,-80.1168"/>
<polygon fill="#8b1a1a" stroke="#8b1a1a" points="134.064,-88.4368 125.306,-94.3985 135.87,-95.1998 134.064,-88.4368"/>
</g>
<!-- Node3 -->
<g id="node3" class="node"><title>Node3</title>
<g id="a_node3"><a xlink:href="a00413.html" target="_top" xlink:title="std::__detail::_Hashtable\l_ebo_helper\&lt; 1, _H1 \&gt;">
<polygon fill="white" stroke="black" points="12.5,-47.5 12.5,-75.5 130.5,-75.5 130.5,-47.5 12.5,-47.5"/>
<text text-anchor="start" x="20.5" y="-64.3" font-family="Helvetica,sans-Serif" font-size="9.00">std::__detail::_Hashtable</text>
<text text-anchor="middle" x="71.5" y="-54.3" font-family="Helvetica,sans-Serif" font-size="9.00">_ebo_helper&lt; 1, _H1 &gt;</text>
</a>
</g>
</g>
<!-- Node3&#45;&gt;Node1 -->
<g id="edge2" class="edge"><title>Node3&#45;&gt;Node1</title>
<path fill="none" stroke="#8b1a1a" d="M140.912,-61.5C153.35,-61.5 166.338,-61.5 178.812,-61.5"/>
<polygon fill="#8b1a1a" stroke="#8b1a1a" points="140.617,-58.0001 130.617,-61.5 140.617,-65.0001 140.617,-58.0001"/>
</g>
<!-- Node4 -->
<g id="node4" class="node"><title>Node4</title>
<g id="a_node4"><a xlink:href="a00413.html" target="_top" xlink:title="std::__detail::_Hashtable\l_ebo_helper\&lt; 2, _H2 \&gt;">
<polygon fill="white" stroke="black" points="12.5,-0.5 12.5,-28.5 130.5,-28.5 130.5,-0.5 12.5,-0.5"/>
<text text-anchor="start" x="20.5" y="-17.3" font-family="Helvetica,sans-Serif" font-size="9.00">std::__detail::_Hashtable</text>
<text text-anchor="middle" x="71.5" y="-7.3" font-family="Helvetica,sans-Serif" font-size="9.00">_ebo_helper&lt; 2, _H2 &gt;</text>
</a>
</g>
</g>
<!-- Node4&#45;&gt;Node1 -->
<g id="edge3" class="edge"><title>Node4&#45;&gt;Node1</title>
<path fill="none" stroke="#8b1a1a" d="M135.366,-31.2881C149.441,-35.0467 164.452,-39.0554 178.786,-42.8832"/>
<polygon fill="#8b1a1a" stroke="#8b1a1a" points="135.87,-27.8002 125.306,-28.6015 134.064,-34.5632 135.87,-27.8002"/>
</g>
</g>
</svg>
