<?xml version="1.0" encoding="UTF-8" standalone="no"?>
<!DOCTYPE svg PUBLIC "-//W3C//DTD SVG 1.1//EN"
 "http://www.w3.org/Graphics/SVG/1.1/DTD/svg11.dtd">
<!-- Generated by graphviz version 2.38.0 (20140413.2041)
 -->
<!-- Title: std::time_get&lt; _CharT, _InIter &gt; Pages: 1 -->
<svg width="184pt" height="157pt"
 viewBox="0.00 0.00 184.00 157.00" xmlns="http://www.w3.org/2000/svg" xmlns:xlink="http://www.w3.org/1999/xlink">
<g id="graph0" class="graph" transform="scale(1 1) rotate(0) translate(4 153)">
<title>std::time_get&lt; _CharT, _InIter &gt;</title>
<polygon fill="white" stroke="none" points="-4,4 -4,-153 180,-153 180,4 -4,4"/>
<!-- Node1 -->
<g id="node1" class="node"><title>Node1</title>
<polygon fill="#bfbfbf" stroke="black" points="34.5,-65.5 34.5,-93.5 143.5,-93.5 143.5,-65.5 34.5,-65.5"/>
<text text-anchor="start" x="42.5" y="-82.3" font-family="Helvetica,sans-Serif" font-size="9.00">std::time_get&lt; _CharT,</text>
<text text-anchor="middle" x="89" y="-72.3" font-family="Helvetica,sans-Serif" font-size="9.00"> _InIter &gt;</text>
</g>
<!-- Node4 -->
<g id="node4" class="node"><title>Node4</title>
<g id="a_node4"><a xlink:href="a00700.html" target="_top" xlink:title="class time_get_byname [22.2.5.2]. ">
<polygon fill="white" stroke="black" points="35.5,-0.5 35.5,-28.5 142.5,-28.5 142.5,-0.5 35.5,-0.5"/>
<text text-anchor="start" x="43.5" y="-17.3" font-family="Helvetica,sans-Serif" font-size="9.00">std::time_get_byname</text>
<text text-anchor="middle" x="89" y="-7.3" font-family="Helvetica,sans-Serif" font-size="9.00">&lt; _CharT, _InIter &gt;</text>
</a>
</g>
</g>
<!-- Node1&#45;&gt;Node4 -->
<g id="edge3" class="edge"><title>Node1&#45;&gt;Node4</title>
<path fill="none" stroke="midnightblue" d="M89,-55.1641C89,-46.1693 89,-36.2205 89,-28.5369"/>
<polygon fill="midnightblue" stroke="midnightblue" points="85.5001,-55.4463 89,-65.4464 92.5001,-55.4464 85.5001,-55.4463"/>
</g>
<!-- Node2 -->
<g id="node2" class="node"><title>Node2</title>
<g id="a_node2"><a xlink:href="a00624.html" target="_top" xlink:title="Localization functionality base class.The facet class is the base class for a localization feature...">
<polygon fill="white" stroke="black" points="0,-130.5 0,-148.5 82,-148.5 82,-130.5 0,-130.5"/>
<text text-anchor="middle" x="41" y="-137.3" font-family="Helvetica,sans-Serif" font-size="9.00">std::locale::facet</text>
</a>
</g>
</g>
<!-- Node2&#45;&gt;Node1 -->
<g id="edge1" class="edge"><title>Node2&#45;&gt;Node1</title>
<path fill="none" stroke="midnightblue" d="M54.1631,-122.595C61.631,-113.571 70.8708,-102.406 77.9577,-93.8428"/>
<polygon fill="midnightblue" stroke="midnightblue" points="51.3535,-120.5 47.6742,-130.435 56.7463,-124.963 51.3535,-120.5"/>
</g>
<!-- Node3 -->
<g id="node3" class="node"><title>Node3</title>
<g id="a_node3"><a xlink:href="a00698.html" target="_top" xlink:title="Time format ordering data.This class provides an enum representing different orderings of time: day...">
<polygon fill="white" stroke="black" points="100,-130.5 100,-148.5 176,-148.5 176,-130.5 100,-130.5"/>
<text text-anchor="middle" x="138" y="-137.3" font-family="Helvetica,sans-Serif" font-size="9.00">std::time_base</text>
</a>
</g>
</g>
<!-- Node3&#45;&gt;Node1 -->
<g id="edge2" class="edge"><title>Node3&#45;&gt;Node1</title>
<path fill="none" stroke="midnightblue" d="M124.563,-122.595C116.939,-113.571 107.507,-102.406 100.272,-93.8428"/>
<polygon fill="midnightblue" stroke="midnightblue" points="122.06,-125.055 131.187,-130.435 127.407,-120.538 122.06,-125.055"/>
</g>
</g>
</svg>
