<?xml version="1.0" encoding="UTF-8" standalone="no"?>
<!DOCTYPE svg PUBLIC "-//W3C//DTD SVG 1.1//EN"
 "http://www.w3.org/Graphics/SVG/1.1/DTD/svg11.dtd">
<!-- Generated by graphviz version 2.38.0 (20140413.2041)
 -->
<!-- Title: std::__debug::multimap&lt; _Key, _Tp, _Compare, _Allocator &gt; Pages: 1 -->
<svg width="752pt" height="77pt"
 viewBox="0.00 0.00 752.00 77.00" xmlns="http://www.w3.org/2000/svg" xmlns:xlink="http://www.w3.org/1999/xlink">
<g id="graph0" class="graph" transform="scale(1 1) rotate(0) translate(4 73)">
<title>std::__debug::multimap&lt; _Key, _Tp, _Compare, _Allocator &gt;</title>
<polygon fill="white" stroke="none" points="-4,4 -4,-73 748,-73 748,4 -4,4"/>
<!-- Node1 -->
<g id="node1" class="node"><title>Node1</title>
<polygon fill="#bfbfbf" stroke="black" points="628,-15.5 628,-53.5 744,-53.5 744,-15.5 628,-15.5"/>
<text text-anchor="start" x="636" y="-42.3" font-family="Helvetica,sans-Serif" font-size="9.00">std::__debug::multimap</text>
<text text-anchor="start" x="636" y="-32.3" font-family="Helvetica,sans-Serif" font-size="9.00">&lt; _Key, _Tp, _Compare,</text>
<text text-anchor="middle" x="686" y="-22.3" font-family="Helvetica,sans-Serif" font-size="9.00"> _Allocator &gt;</text>
</g>
<!-- Node2 -->
<g id="node2" class="node"><title>Node2</title>
<g id="a_node2"><a xlink:href="a00066.html" target="_top" xlink:title="__gnu_debug::_Safe\l_container\&lt; multimap\l\&lt; _Key, _Tp, _Compare,\l _Allocator \&gt;, _Allocator,\l __gnu_debug::_Safe_node\l_sequence \&gt;">
<polygon fill="white" stroke="black" points="461,-0.5 461,-68.5 592,-68.5 592,-0.5 461,-0.5"/>
<text text-anchor="start" x="469" y="-57.3" font-family="Helvetica,sans-Serif" font-size="9.00">__gnu_debug::_Safe</text>
<text text-anchor="start" x="469" y="-47.3" font-family="Helvetica,sans-Serif" font-size="9.00">_container&lt; multimap</text>
<text text-anchor="start" x="469" y="-37.3" font-family="Helvetica,sans-Serif" font-size="9.00">&lt; _Key, _Tp, _Compare,</text>
<text text-anchor="start" x="469" y="-27.3" font-family="Helvetica,sans-Serif" font-size="9.00"> _Allocator &gt;, _Allocator,</text>
<text text-anchor="start" x="469" y="-17.3" font-family="Helvetica,sans-Serif" font-size="9.00"> __gnu_debug::_Safe_node</text>
<text text-anchor="middle" x="526.5" y="-7.3" font-family="Helvetica,sans-Serif" font-size="9.00">_sequence &gt;</text>
</a>
</g>
</g>
<!-- Node2&#45;&gt;Node1 -->
<g id="edge1" class="edge"><title>Node2&#45;&gt;Node1</title>
<path fill="none" stroke="midnightblue" d="M602.132,-34.5C610.797,-34.5 619.529,-34.5 627.906,-34.5"/>
<polygon fill="midnightblue" stroke="midnightblue" points="602.016,-31.0001 592.016,-34.5 602.016,-38.0001 602.016,-31.0001"/>
</g>
<!-- Node3 -->
<g id="node3" class="node"><title>Node3</title>
<g id="a_node3"><a xlink:href="a00071.html" target="_top" xlink:title="__gnu_debug::_Safe\l_node_sequence\&lt; multimap\l\&lt; _Key, _Tp, _Compare,\l _Allocator \&gt; \&gt;">
<polygon fill="white" stroke="black" points="291,-10.5 291,-58.5 425,-58.5 425,-10.5 291,-10.5"/>
<text text-anchor="start" x="299" y="-47.3" font-family="Helvetica,sans-Serif" font-size="9.00">__gnu_debug::_Safe</text>
<text text-anchor="start" x="299" y="-37.3" font-family="Helvetica,sans-Serif" font-size="9.00">_node_sequence&lt; multimap</text>
<text text-anchor="start" x="299" y="-27.3" font-family="Helvetica,sans-Serif" font-size="9.00">&lt; _Key, _Tp, _Compare,</text>
<text text-anchor="middle" x="358" y="-17.3" font-family="Helvetica,sans-Serif" font-size="9.00"> _Allocator &gt; &gt;</text>
</a>
</g>
</g>
<!-- Node3&#45;&gt;Node2 -->
<g id="edge2" class="edge"><title>Node3&#45;&gt;Node2</title>
<path fill="none" stroke="midnightblue" d="M435.522,-34.5C443.973,-34.5 452.516,-34.5 460.802,-34.5"/>
<polygon fill="midnightblue" stroke="midnightblue" points="435.284,-31.0001 425.284,-34.5 435.284,-38.0001 435.284,-31.0001"/>
</g>
<!-- Node4 -->
<g id="node4" class="node"><title>Node4</title>
<g id="a_node4"><a xlink:href="a00072.html" target="_top" xlink:title="__gnu_debug::_Safe\l_sequence\&lt; multimap\l\&lt; _Key, _Tp, _Compare,\l _Allocator \&gt; \&gt;">
<polygon fill="white" stroke="black" points="139,-10.5 139,-58.5 255,-58.5 255,-10.5 139,-10.5"/>
<text text-anchor="start" x="147" y="-47.3" font-family="Helvetica,sans-Serif" font-size="9.00">__gnu_debug::_Safe</text>
<text text-anchor="start" x="147" y="-37.3" font-family="Helvetica,sans-Serif" font-size="9.00">_sequence&lt; multimap</text>
<text text-anchor="start" x="147" y="-27.3" font-family="Helvetica,sans-Serif" font-size="9.00">&lt; _Key, _Tp, _Compare,</text>
<text text-anchor="middle" x="197" y="-17.3" font-family="Helvetica,sans-Serif" font-size="9.00"> _Allocator &gt; &gt;</text>
</a>
</g>
</g>
<!-- Node4&#45;&gt;Node3 -->
<g id="edge3" class="edge"><title>Node4&#45;&gt;Node3</title>
<path fill="none" stroke="midnightblue" d="M265.495,-34.5C273.864,-34.5 282.414,-34.5 290.764,-34.5"/>
<polygon fill="midnightblue" stroke="midnightblue" points="265.403,-31.0001 255.403,-34.5 265.403,-38.0001 265.403,-31.0001"/>
</g>
<!-- Node5 -->
<g id="node5" class="node"><title>Node5</title>
<g id="a_node5"><a xlink:href="a00073.html" target="_top" xlink:title="Base class that supports tracking of iterators that reference a sequence. ">
<polygon fill="white" stroke="black" points="0,-20.5 0,-48.5 103,-48.5 103,-20.5 0,-20.5"/>
<text text-anchor="start" x="8" y="-37.3" font-family="Helvetica,sans-Serif" font-size="9.00">__gnu_debug::_Safe</text>
<text text-anchor="middle" x="51.5" y="-27.3" font-family="Helvetica,sans-Serif" font-size="9.00">_sequence_base</text>
</a>
</g>
</g>
<!-- Node5&#45;&gt;Node4 -->
<g id="edge4" class="edge"><title>Node5&#45;&gt;Node4</title>
<path fill="none" stroke="midnightblue" d="M113.196,-34.5C121.588,-34.5 130.188,-34.5 138.52,-34.5"/>
<polygon fill="midnightblue" stroke="midnightblue" points="113.093,-31.0001 103.093,-34.5 113.093,-38.0001 113.093,-31.0001"/>
</g>
</g>
</svg>
