<?xml version="1.0" encoding="UTF-8" standalone="no"?>
<!DOCTYPE svg PUBLIC "-//W3C//DTD SVG 1.1//EN"
 "http://www.w3.org/Graphics/SVG/1.1/DTD/svg11.dtd">
<!-- Generated by graphviz version 2.38.0 (20140413.2041)
 -->
<!-- Title: std::__debug::set&lt; _Key, _Compare, _Allocator &gt; Pages: 1 -->
<svg width="805pt" height="67pt"
 viewBox="0.00 0.00 805.00 67.00" xmlns="http://www.w3.org/2000/svg" xmlns:xlink="http://www.w3.org/1999/xlink">
<g id="graph0" class="graph" transform="scale(1 1) rotate(0) translate(4 63)">
<title>std::__debug::set&lt; _Key, _Compare, _Allocator &gt;</title>
<polygon fill="white" stroke="none" points="-4,4 -4,-63 801,-63 801,4 -4,4"/>
<!-- Node1 -->
<g id="node1" class="node"><title>Node1</title>
<polygon fill="#bfbfbf" stroke="black" points="656,-15.5 656,-43.5 797,-43.5 797,-15.5 656,-15.5"/>
<text text-anchor="start" x="664" y="-32.3" font-family="Helvetica,sans-Serif" font-size="9.00">std::__debug::set&lt;</text>
<text text-anchor="middle" x="726.5" y="-22.3" font-family="Helvetica,sans-Serif" font-size="9.00"> _Key, _Compare, _Allocator &gt;</text>
</g>
<!-- Node2 -->
<g id="node2" class="node"><title>Node2</title>
<g id="a_node2"><a xlink:href="a00066.html" target="_top" xlink:title="__gnu_debug::_Safe\l_container\&lt; set\&lt; _Key,\l _Compare, _Allocator\l \&gt;, _Allocator, __gnu_debug\l::_Safe_node_sequence \&gt;">
<polygon fill="white" stroke="black" points="488,-0.5 488,-58.5 620,-58.5 620,-0.5 488,-0.5"/>
<text text-anchor="start" x="496" y="-47.3" font-family="Helvetica,sans-Serif" font-size="9.00">__gnu_debug::_Safe</text>
<text text-anchor="start" x="496" y="-37.3" font-family="Helvetica,sans-Serif" font-size="9.00">_container&lt; set&lt; _Key,</text>
<text text-anchor="start" x="496" y="-27.3" font-family="Helvetica,sans-Serif" font-size="9.00"> _Compare, _Allocator</text>
<text text-anchor="start" x="496" y="-17.3" font-family="Helvetica,sans-Serif" font-size="9.00"> &gt;, _Allocator, __gnu_debug</text>
<text text-anchor="middle" x="554" y="-7.3" font-family="Helvetica,sans-Serif" font-size="9.00">::_Safe_node_sequence &gt;</text>
</a>
</g>
</g>
<!-- Node2&#45;&gt;Node1 -->
<g id="edge1" class="edge"><title>Node2&#45;&gt;Node1</title>
<path fill="none" stroke="midnightblue" d="M630.639,-29.5C639.077,-29.5 647.642,-29.5 655.997,-29.5"/>
<polygon fill="midnightblue" stroke="midnightblue" points="630.432,-26.0001 620.432,-29.5 630.432,-33.0001 630.432,-26.0001"/>
</g>
<!-- Node3 -->
<g id="node3" class="node"><title>Node3</title>
<g id="a_node3"><a xlink:href="a00071.html" target="_top" xlink:title="__gnu_debug::_Safe\l_node_sequence\&lt; set\l\&lt; _Key, _Compare, _Allocator \&gt; \&gt;">
<polygon fill="white" stroke="black" points="298,-10.5 298,-48.5 452,-48.5 452,-10.5 298,-10.5"/>
<text text-anchor="start" x="306" y="-37.3" font-family="Helvetica,sans-Serif" font-size="9.00">__gnu_debug::_Safe</text>
<text text-anchor="start" x="306" y="-27.3" font-family="Helvetica,sans-Serif" font-size="9.00">_node_sequence&lt; set</text>
<text text-anchor="middle" x="375" y="-17.3" font-family="Helvetica,sans-Serif" font-size="9.00">&lt; _Key, _Compare, _Allocator &gt; &gt;</text>
</a>
</g>
</g>
<!-- Node3&#45;&gt;Node2 -->
<g id="edge2" class="edge"><title>Node3&#45;&gt;Node2</title>
<path fill="none" stroke="midnightblue" d="M462.184,-29.5C470.81,-29.5 479.466,-29.5 487.822,-29.5"/>
<polygon fill="midnightblue" stroke="midnightblue" points="462.091,-26.0001 452.091,-29.5 462.091,-33.0001 462.091,-26.0001"/>
</g>
<!-- Node4 -->
<g id="node4" class="node"><title>Node4</title>
<g id="a_node4"><a xlink:href="a00072.html" target="_top" xlink:title="__gnu_debug::_Safe\l_sequence\&lt; set\&lt; _Key,\l _Compare, _Allocator \&gt; \&gt;">
<polygon fill="white" stroke="black" points="139,-10.5 139,-48.5 262,-48.5 262,-10.5 139,-10.5"/>
<text text-anchor="start" x="147" y="-37.3" font-family="Helvetica,sans-Serif" font-size="9.00">__gnu_debug::_Safe</text>
<text text-anchor="start" x="147" y="-27.3" font-family="Helvetica,sans-Serif" font-size="9.00">_sequence&lt; set&lt; _Key,</text>
<text text-anchor="middle" x="200.5" y="-17.3" font-family="Helvetica,sans-Serif" font-size="9.00"> _Compare, _Allocator &gt; &gt;</text>
</a>
</g>
</g>
<!-- Node4&#45;&gt;Node3 -->
<g id="edge3" class="edge"><title>Node4&#45;&gt;Node3</title>
<path fill="none" stroke="midnightblue" d="M272.385,-29.5C280.738,-29.5 289.29,-29.5 297.713,-29.5"/>
<polygon fill="midnightblue" stroke="midnightblue" points="272.317,-26.0001 262.317,-29.5 272.317,-33.0001 272.317,-26.0001"/>
</g>
<!-- Node5 -->
<g id="node5" class="node"><title>Node5</title>
<g id="a_node5"><a xlink:href="a00073.html" target="_top" xlink:title="Base class that supports tracking of iterators that reference a sequence. ">
<polygon fill="white" stroke="black" points="0,-15.5 0,-43.5 103,-43.5 103,-15.5 0,-15.5"/>
<text text-anchor="start" x="8" y="-32.3" font-family="Helvetica,sans-Serif" font-size="9.00">__gnu_debug::_Safe</text>
<text text-anchor="middle" x="51.5" y="-22.3" font-family="Helvetica,sans-Serif" font-size="9.00">_sequence_base</text>
</a>
</g>
</g>
<!-- Node5&#45;&gt;Node4 -->
<g id="edge4" class="edge"><title>Node5&#45;&gt;Node4</title>
<path fill="none" stroke="midnightblue" d="M113.278,-29.5C121.752,-29.5 130.459,-29.5 138.929,-29.5"/>
<polygon fill="midnightblue" stroke="midnightblue" points="113.089,-26.0001 103.089,-29.5 113.089,-33.0001 113.089,-26.0001"/>
</g>
</g>
</svg>
