<?xml version="1.0" encoding="UTF-8" standalone="no"?>
<!DOCTYPE svg PUBLIC "-//W3C//DTD SVG 1.1//EN"
 "http://www.w3.org/Graphics/SVG/1.1/DTD/svg11.dtd">
<!-- Generated by graphviz version 2.38.0 (20140413.2041)
 -->
<!-- Title: std::__detail::_Equality_base Pages: 1 -->
<svg width="315pt" height="67pt"
 viewBox="0.00 0.00 315.00 67.00" xmlns="http://www.w3.org/2000/svg" xmlns:xlink="http://www.w3.org/1999/xlink">
<g id="graph0" class="graph" transform="scale(1 1) rotate(0) translate(4 63)">
<title>std::__detail::_Equality_base</title>
<polygon fill="white" stroke="none" points="-4,4 -4,-63 311,-63 311,4 -4,4"/>
<!-- Node1 -->
<g id="node1" class="node"><title>Node1</title>
<polygon fill="#bfbfbf" stroke="black" points="0,-20.5 0,-38.5 134,-38.5 134,-20.5 0,-20.5"/>
<text text-anchor="middle" x="67" y="-27.3" font-family="Helvetica,sans-Serif" font-size="9.00">std::__detail::_Equality_base</text>
</g>
<!-- Node2 -->
<g id="node2" class="node"><title>Node2</title>
<g id="a_node2"><a xlink:href="a00452.html" target="_top" xlink:title="Specialization. ">
<polygon fill="white" stroke="black" points="170,-0.5 170,-58.5 307,-58.5 307,-0.5 170,-0.5"/>
<text text-anchor="start" x="178" y="-47.3" font-family="Helvetica,sans-Serif" font-size="9.00">std::__detail::_Equality</text>
<text text-anchor="start" x="178" y="-37.3" font-family="Helvetica,sans-Serif" font-size="9.00">&lt; _Key, _Value, _Alloc,</text>
<text text-anchor="start" x="178" y="-27.3" font-family="Helvetica,sans-Serif" font-size="9.00"> _ExtractKey, _Equal, _H1,</text>
<text text-anchor="start" x="178" y="-17.3" font-family="Helvetica,sans-Serif" font-size="9.00"> _H2, _Hash, _RehashPolicy,</text>
<text text-anchor="middle" x="238.5" y="-7.3" font-family="Helvetica,sans-Serif" font-size="9.00"> _Traits, false &gt;</text>
</a>
</g>
</g>
<!-- Node1&#45;&gt;Node2 -->
<g id="edge1" class="edge"><title>Node1&#45;&gt;Node2</title>
<path fill="none" stroke="midnightblue" d="M144.078,-29.5C152.714,-29.5 161.471,-29.5 169.986,-29.5"/>
<polygon fill="midnightblue" stroke="midnightblue" points="144.019,-26.0001 134.018,-29.5 144.018,-33.0001 144.019,-26.0001"/>
</g>
</g>
</svg>
