<?xml version="1.0" encoding="UTF-8" standalone="no"?>
<!DOCTYPE svg PUBLIC "-//W3C//DTD SVG 1.1//EN"
 "http://www.w3.org/Graphics/SVG/1.1/DTD/svg11.dtd">
<!-- Generated by graphviz version 2.38.0 (20140413.2041)
 -->
<!-- Title: std::__detail::_Hash_code_base&lt; _Key, _Value, _ExtractKey, _H1, _H2, _Default_ranged_hash, false &gt; Pages: 1 -->
<svg width="332pt" height="131pt"
 viewBox="0.00 0.00 332.00 131.00" xmlns="http://www.w3.org/2000/svg" xmlns:xlink="http://www.w3.org/1999/xlink">
<g id="graph0" class="graph" transform="scale(1 1) rotate(0) translate(4 127)">
<title>std::__detail::_Hash_code_base&lt; _Key, _Value, _ExtractKey, _H1, _H2, _Default_ranged_hash, false &gt;</title>
<polygon fill="white" stroke="none" points="-4,4 -4,-127 328,-127 328,4 -4,4"/>
<!-- Node1 -->
<g id="node1" class="node"><title>Node1</title>
<polygon fill="#bfbfbf" stroke="black" points="179,-37.5 179,-85.5 324,-85.5 324,-37.5 179,-37.5"/>
<text text-anchor="start" x="187" y="-74.3" font-family="Helvetica,sans-Serif" font-size="9.00">std::__detail::_Hash</text>
<text text-anchor="start" x="187" y="-64.3" font-family="Helvetica,sans-Serif" font-size="9.00">_code_base&lt; _Key, _Value,</text>
<text text-anchor="start" x="187" y="-54.3" font-family="Helvetica,sans-Serif" font-size="9.00"> _ExtractKey, _H1, _H2,</text>
<text text-anchor="middle" x="251.5" y="-44.3" font-family="Helvetica,sans-Serif" font-size="9.00"> _Default_ranged_hash, false &gt;</text>
</g>
<!-- Node2 -->
<g id="node2" class="node"><title>Node2</title>
<g id="a_node2"><a xlink:href="a00413.html" target="_top" xlink:title="std::__detail::_Hashtable\l_ebo_helper\&lt; 0, _ExtractKey \&gt;">
<polygon fill="white" stroke="black" points="0,-94.5 0,-122.5 143,-122.5 143,-94.5 0,-94.5"/>
<text text-anchor="start" x="8" y="-111.3" font-family="Helvetica,sans-Serif" font-size="9.00">std::__detail::_Hashtable</text>
<text text-anchor="middle" x="71.5" y="-101.3" font-family="Helvetica,sans-Serif" font-size="9.00">_ebo_helper&lt; 0, _ExtractKey &gt;</text>
</a>
</g>
</g>
<!-- Node2&#45;&gt;Node1 -->
<g id="edge1" class="edge"><title>Node2&#45;&gt;Node1</title>
<path fill="none" stroke="#8b1a1a" d="M135.831,-91.7779C149.712,-88.1127 164.504,-84.2069 178.69,-80.4611"/>
<polygon fill="#8b1a1a" stroke="#8b1a1a" points="134.681,-88.4614 125.906,-94.3985 136.468,-95.2294 134.681,-88.4614"/>
</g>
<!-- Node3 -->
<g id="node3" class="node"><title>Node3</title>
<g id="a_node3"><a xlink:href="a00413.html" target="_top" xlink:title="std::__detail::_Hashtable\l_ebo_helper\&lt; 1, _H1 \&gt;">
<polygon fill="white" stroke="black" points="12.5,-47.5 12.5,-75.5 130.5,-75.5 130.5,-47.5 12.5,-47.5"/>
<text text-anchor="start" x="20.5" y="-64.3" font-family="Helvetica,sans-Serif" font-size="9.00">std::__detail::_Hashtable</text>
<text text-anchor="middle" x="71.5" y="-54.3" font-family="Helvetica,sans-Serif" font-size="9.00">_ebo_helper&lt; 1, _H1 &gt;</text>
</a>
</g>
</g>
<!-- Node3&#45;&gt;Node1 -->
<g id="edge2" class="edge"><title>Node3&#45;&gt;Node1</title>
<path fill="none" stroke="#8b1a1a" d="M141.007,-61.5C153.36,-61.5 166.27,-61.5 178.714,-61.5"/>
<polygon fill="#8b1a1a" stroke="#8b1a1a" points="140.784,-58.0001 130.784,-61.5 140.784,-65.0001 140.784,-58.0001"/>
</g>
<!-- Node4 -->
<g id="node4" class="node"><title>Node4</title>
<g id="a_node4"><a xlink:href="a00413.html" target="_top" xlink:title="std::__detail::_Hashtable\l_ebo_helper\&lt; 2, _H2 \&gt;">
<polygon fill="white" stroke="black" points="12.5,-0.5 12.5,-28.5 130.5,-28.5 130.5,-0.5 12.5,-0.5"/>
<text text-anchor="start" x="20.5" y="-17.3" font-family="Helvetica,sans-Serif" font-size="9.00">std::__detail::_Hashtable</text>
<text text-anchor="middle" x="71.5" y="-7.3" font-family="Helvetica,sans-Serif" font-size="9.00">_ebo_helper&lt; 2, _H2 &gt;</text>
</a>
</g>
</g>
<!-- Node4&#45;&gt;Node1 -->
<g id="edge3" class="edge"><title>Node4&#45;&gt;Node1</title>
<path fill="none" stroke="#8b1a1a" d="M135.831,-31.2221C149.712,-34.8873 164.504,-38.7931 178.69,-42.5389"/>
<polygon fill="#8b1a1a" stroke="#8b1a1a" points="136.468,-27.7706 125.906,-28.6015 134.681,-34.5386 136.468,-27.7706"/>
</g>
</g>
</svg>
