<?xml version="1.0" encoding="UTF-8" standalone="no"?>
<!DOCTYPE svg PUBLIC "-//W3C//DTD SVG 1.1//EN"
 "http://www.w3.org/Graphics/SVG/1.1/DTD/svg11.dtd">
<!-- Generated by graphviz version 2.38.0 (20140413.2041)
 -->
<!-- Title: std::__detail::_Local_const_iterator&lt; _Key, _Value, _ExtractKey, _H1, _H2, _Hash, __constant_iterators, __cache &gt; Pages: 1 -->
<svg width="320pt" height="67pt"
 viewBox="0.00 0.00 320.00 67.00" xmlns="http://www.w3.org/2000/svg" xmlns:xlink="http://www.w3.org/1999/xlink">
<g id="graph0" class="graph" transform="scale(1 1) rotate(0) translate(4 63)">
<title>std::__detail::_Local_const_iterator&lt; _Key, _Value, _ExtractKey, _H1, _H2, _Hash, __constant_iterators, __cache &gt;</title>
<polygon fill="white" stroke="none" points="-4,4 -4,-63 316,-63 316,4 -4,4"/>
<!-- Node1 -->
<g id="node1" class="node"><title>Node1</title>
<polygon fill="#bfbfbf" stroke="black" points="173,-0.5 173,-58.5 312,-58.5 312,-0.5 173,-0.5"/>
<text text-anchor="start" x="181" y="-47.3" font-family="Helvetica,sans-Serif" font-size="9.00">std::__detail::_Local</text>
<text text-anchor="start" x="181" y="-37.3" font-family="Helvetica,sans-Serif" font-size="9.00">_const_iterator&lt; _Key,</text>
<text text-anchor="start" x="181" y="-27.3" font-family="Helvetica,sans-Serif" font-size="9.00"> _Value, _ExtractKey,</text>
<text text-anchor="start" x="181" y="-17.3" font-family="Helvetica,sans-Serif" font-size="9.00"> _H1, _H2, _Hash, __constant</text>
<text text-anchor="middle" x="242.5" y="-7.3" font-family="Helvetica,sans-Serif" font-size="9.00">_iterators, __cache &gt;</text>
</g>
<!-- Node2 -->
<g id="node2" class="node"><title>Node2</title>
<g id="a_node2"><a xlink:href="a00416.html" target="_top" xlink:title="std::__detail::_Local\l_iterator_base\&lt; _Key,\l _Value, _ExtractKey,\l _H1, _H2, _Hash, __cache \&gt;">
<polygon fill="white" stroke="black" points="0,-5.5 0,-53.5 137,-53.5 137,-5.5 0,-5.5"/>
<text text-anchor="start" x="8" y="-42.3" font-family="Helvetica,sans-Serif" font-size="9.00">std::__detail::_Local</text>
<text text-anchor="start" x="8" y="-32.3" font-family="Helvetica,sans-Serif" font-size="9.00">_iterator_base&lt; _Key,</text>
<text text-anchor="start" x="8" y="-22.3" font-family="Helvetica,sans-Serif" font-size="9.00"> _Value, _ExtractKey,</text>
<text text-anchor="middle" x="68.5" y="-12.3" font-family="Helvetica,sans-Serif" font-size="9.00"> _H1, _H2, _Hash, __cache &gt;</text>
</a>
</g>
</g>
<!-- Node2&#45;&gt;Node1 -->
<g id="edge1" class="edge"><title>Node2&#45;&gt;Node1</title>
<path fill="none" stroke="midnightblue" d="M147.67,-29.5C156.084,-29.5 164.598,-29.5 172.888,-29.5"/>
<polygon fill="midnightblue" stroke="midnightblue" points="147.479,-26.0001 137.479,-29.5 147.479,-33.0001 147.479,-26.0001"/>
</g>
</g>
</svg>
