<?xml version="1.0" encoding="UTF-8" standalone="no"?>
<!DOCTYPE svg PUBLIC "-//W3C//DTD SVG 1.1//EN"
 "http://www.w3.org/Graphics/SVG/1.1/DTD/svg11.dtd">
<!-- Generated by graphviz version 2.38.0 (20140413.2041)
 -->
<!-- Title: std::__detail::_Local_iterator_base&lt; _Key, _Value, _ExtractKey, _H1, _H2, _Hash, true &gt; Pages: 1 -->
<svg width="126pt" height="122pt"
 viewBox="0.00 0.00 126.00 122.00" xmlns="http://www.w3.org/2000/svg" xmlns:xlink="http://www.w3.org/1999/xlink">
<g id="graph0" class="graph" transform="scale(1 1) rotate(0) translate(4 118)">
<title>std::__detail::_Local_iterator_base&lt; _Key, _Value, _ExtractKey, _H1, _H2, _Hash, true &gt;</title>
<polygon fill="white" stroke="none" points="-4,4 -4,-118 122,-118 122,4 -4,4"/>
<!-- Node1 -->
<g id="node1" class="node"><title>Node1</title>
<polygon fill="#bfbfbf" stroke="black" points="0.5,-0.5 0.5,-48.5 117.5,-48.5 117.5,-0.5 0.5,-0.5"/>
<text text-anchor="start" x="8.5" y="-37.3" font-family="Helvetica,sans-Serif" font-size="9.00">std::__detail::_Local</text>
<text text-anchor="start" x="8.5" y="-27.3" font-family="Helvetica,sans-Serif" font-size="9.00">_iterator_base&lt; _Key,</text>
<text text-anchor="start" x="8.5" y="-17.3" font-family="Helvetica,sans-Serif" font-size="9.00"> _Value, _ExtractKey,</text>
<text text-anchor="middle" x="59" y="-7.3" font-family="Helvetica,sans-Serif" font-size="9.00"> _H1, _H2, _Hash, true &gt;</text>
</g>
<!-- Node2 -->
<g id="node2" class="node"><title>Node2</title>
<g id="a_node2"><a xlink:href="a00413.html" target="_top" xlink:title="std::__detail::_Hashtable\l_ebo_helper\&lt; 0, _H2 \&gt;">
<polygon fill="white" stroke="black" points="0,-85.5 0,-113.5 118,-113.5 118,-85.5 0,-85.5"/>
<text text-anchor="start" x="8" y="-102.3" font-family="Helvetica,sans-Serif" font-size="9.00">std::__detail::_Hashtable</text>
<text text-anchor="middle" x="59" y="-92.3" font-family="Helvetica,sans-Serif" font-size="9.00">_ebo_helper&lt; 0, _H2 &gt;</text>
</a>
</g>
</g>
<!-- Node2&#45;&gt;Node1 -->
<g id="edge1" class="edge"><title>Node2&#45;&gt;Node1</title>
<path fill="none" stroke="#8b1a1a" d="M59,-75.4463C59,-66.9372 59,-57.2948 59,-48.767"/>
<polygon fill="#8b1a1a" stroke="#8b1a1a" points="55.5001,-75.449 59,-85.4491 62.5001,-75.4491 55.5001,-75.449"/>
</g>
</g>
</svg>
