<?xml version="1.0" encoding="UTF-8" standalone="no"?>
<!DOCTYPE svg PUBLIC "-//W3C//DTD SVG 1.1//EN"
 "http://www.w3.org/Graphics/SVG/1.1/DTD/svg11.dtd">
<!-- Generated by graphviz version 2.38.0 (20140413.2041)
 -->
<!-- Title: std::__detail::_Map_base&lt; _Key, _Value, _Alloc, _ExtractKey, _Equal, _H1, _H2, _Hash, _RehashPolicy, _Traits, _Unique_keys &gt; Pages: 1 -->
<svg width="282pt" height="94pt"
 viewBox="0.00 0.00 282.00 94.00" xmlns="http://www.w3.org/2000/svg" xmlns:xlink="http://www.w3.org/1999/xlink">
<g id="graph0" class="graph" transform="scale(1 1) rotate(0) translate(4 90)">
<title>std::__detail::_Map_base&lt; _Key, _Value, _Alloc, _ExtractKey, _Equal, _H1, _H2, _Hash, _RehashPolicy, _Traits, _Unique_keys &gt;</title>
<polygon fill="white" stroke="none" points="-4,4 -4,-90 278,-90 278,4 -4,4"/>
<!-- Node1 -->
<g id="node1" class="node"><title>Node1</title>
<polygon fill="#bfbfbf" stroke="black" points="0,-6.5 0,-74.5 125,-74.5 125,-6.5 0,-6.5"/>
<text text-anchor="start" x="8" y="-63.3" font-family="Helvetica,sans-Serif" font-size="9.00">std::__detail::_Map</text>
<text text-anchor="start" x="8" y="-53.3" font-family="Helvetica,sans-Serif" font-size="9.00">_base&lt; _Key, _Value,</text>
<text text-anchor="start" x="8" y="-43.3" font-family="Helvetica,sans-Serif" font-size="9.00"> _Alloc, _ExtractKey,</text>
<text text-anchor="start" x="8" y="-33.3" font-family="Helvetica,sans-Serif" font-size="9.00"> _Equal, _H1, _H2, _Hash,</text>
<text text-anchor="start" x="8" y="-23.3" font-family="Helvetica,sans-Serif" font-size="9.00"> _RehashPolicy, _Traits,</text>
<text text-anchor="middle" x="62.5" y="-13.3" font-family="Helvetica,sans-Serif" font-size="9.00"> _Unique_keys &gt;</text>
</g>
<!-- Node2 -->
<g id="node2" class="node"><title>Node2</title>
<g id="a_node2"><a xlink:href="a00411.html" target="_top" xlink:title="_Hashtable\&lt; _Key, \l_Tp, _Hash, _Pred, \l_Alloc \&gt;">
<polygon fill="white" stroke="black" points="168.5,-47.5 168.5,-85.5 266.5,-85.5 266.5,-47.5 168.5,-47.5"/>
<text text-anchor="start" x="176.5" y="-74.3" font-family="Helvetica,sans-Serif" font-size="9.00">_Hashtable&lt; _Key, </text>
<text text-anchor="start" x="176.5" y="-64.3" font-family="Helvetica,sans-Serif" font-size="9.00">_Tp, _Hash, _Pred, </text>
<text text-anchor="middle" x="217.5" y="-54.3" font-family="Helvetica,sans-Serif" font-size="9.00">_Alloc &gt;</text>
</a>
</g>
</g>
<!-- Node1&#45;&gt;Node2 -->
<g id="edge1" class="edge"><title>Node1&#45;&gt;Node2</title>
<path fill="none" stroke="midnightblue" d="M135.41,-52.72C146.498,-54.6043 157.716,-56.5105 168.126,-58.2796"/>
<polygon fill="midnightblue" stroke="midnightblue" points="135.735,-49.2251 125.29,-51.0003 134.562,-56.1262 135.735,-49.2251"/>
</g>
<!-- Node3 -->
<g id="node3" class="node"><title>Node3</title>
<g id="a_node3"><a xlink:href="a00411.html" target="_top" xlink:title="_Hashtable\&lt; _Value,\l _Hash, _Pred, _Alloc \&gt;">
<polygon fill="white" stroke="black" points="161,-0.5 161,-28.5 274,-28.5 274,-0.5 161,-0.5"/>
<text text-anchor="start" x="169" y="-17.3" font-family="Helvetica,sans-Serif" font-size="9.00">_Hashtable&lt; _Value,</text>
<text text-anchor="middle" x="217.5" y="-7.3" font-family="Helvetica,sans-Serif" font-size="9.00"> _Hash, _Pred, _Alloc &gt;</text>
</a>
</g>
</g>
<!-- Node1&#45;&gt;Node3 -->
<g id="edge2" class="edge"><title>Node1&#45;&gt;Node3</title>
<path fill="none" stroke="midnightblue" d="M135.315,-28.2961C143.909,-26.8358 152.581,-25.3621 160.897,-23.9489"/>
<polygon fill="midnightblue" stroke="midnightblue" points="134.562,-24.8738 125.29,-29.9997 135.735,-31.7749 134.562,-24.8738"/>
</g>
</g>
</svg>
