<?xml version="1.0" encoding="UTF-8" standalone="no"?>
<!DOCTYPE svg PUBLIC "-//W3C//DTD SVG 1.1//EN"
 "http://www.w3.org/Graphics/SVG/1.1/DTD/svg11.dtd">
<!-- Generated by graphviz version 2.38.0 (20140413.2041)
 -->
<!-- Title: std::__detail::_Node_iterator&lt; _Value, __constant_iterators, __cache &gt; Pages: 1 -->
<svg width="123pt" height="132pt"
 viewBox="0.00 0.00 123.00 132.00" xmlns="http://www.w3.org/2000/svg" xmlns:xlink="http://www.w3.org/1999/xlink">
<g id="graph0" class="graph" transform="scale(1 1) rotate(0) translate(4 128)">
<title>std::__detail::_Node_iterator&lt; _Value, __constant_iterators, __cache &gt;</title>
<polygon fill="white" stroke="none" points="-4,4 -4,-128 119,-128 119,4 -4,4"/>
<!-- Node1 -->
<g id="node1" class="node"><title>Node1</title>
<polygon fill="#bfbfbf" stroke="black" points="8,-0.5 8,-48.5 107,-48.5 107,-0.5 8,-0.5"/>
<text text-anchor="start" x="16" y="-37.3" font-family="Helvetica,sans-Serif" font-size="9.00">std::__detail::_Node</text>
<text text-anchor="start" x="16" y="-27.3" font-family="Helvetica,sans-Serif" font-size="9.00">_iterator&lt; _Value, _</text>
<text text-anchor="start" x="16" y="-17.3" font-family="Helvetica,sans-Serif" font-size="9.00">_constant_iterators, </text>
<text text-anchor="middle" x="57.5" y="-7.3" font-family="Helvetica,sans-Serif" font-size="9.00">__cache &gt;</text>
</g>
<!-- Node2 -->
<g id="node2" class="node"><title>Node2</title>
<g id="a_node2"><a xlink:href="a00418.html" target="_top" xlink:title="std::__detail::_Node\l_iterator_base\&lt; _Value,\l __cache \&gt;">
<polygon fill="white" stroke="black" points="0,-85.5 0,-123.5 115,-123.5 115,-85.5 0,-85.5"/>
<text text-anchor="start" x="8" y="-112.3" font-family="Helvetica,sans-Serif" font-size="9.00">std::__detail::_Node</text>
<text text-anchor="start" x="8" y="-102.3" font-family="Helvetica,sans-Serif" font-size="9.00">_iterator_base&lt; _Value,</text>
<text text-anchor="middle" x="57.5" y="-92.3" font-family="Helvetica,sans-Serif" font-size="9.00"> __cache &gt;</text>
</a>
</g>
</g>
<!-- Node2&#45;&gt;Node1 -->
<g id="edge1" class="edge"><title>Node2&#45;&gt;Node1</title>
<path fill="none" stroke="midnightblue" d="M57.5,-75.2321C57.5,-66.4607 57.5,-56.904 57.5,-48.5333"/>
<polygon fill="midnightblue" stroke="midnightblue" points="54.0001,-75.4091 57.5,-85.4092 61.0001,-75.4092 54.0001,-75.4091"/>
</g>
</g>
</svg>
