<?xml version="1.0" encoding="UTF-8" standalone="no"?>
<!DOCTYPE svg PUBLIC "-//W3C//DTD SVG 1.1//EN"
 "http://www.w3.org/Graphics/SVG/1.1/DTD/svg11.dtd">
<!-- Generated by graphviz version 2.38.0 (20140413.2041)
 -->
<!-- Title: std::__detail::_Rehash_base&lt; _Key, _Value, _Alloc, _ExtractKey, _Equal, _H1, _H2, _Hash, _RehashPolicy, _Traits &gt; Pages: 1 -->
<svg width="336pt" height="161pt"
 viewBox="0.00 0.00 336.00 161.00" xmlns="http://www.w3.org/2000/svg" xmlns:xlink="http://www.w3.org/1999/xlink">
<g id="graph0" class="graph" transform="scale(1 1) rotate(0) translate(4 157)">
<title>std::__detail::_Rehash_base&lt; _Key, _Value, _Alloc, _ExtractKey, _Equal, _H1, _H2, _Hash, _RehashPolicy, _Traits &gt;</title>
<polygon fill="white" stroke="none" points="-4,4 -4,-157 332,-157 332,4 -4,4"/>
<!-- Node1 -->
<g id="node1" class="node"><title>Node1</title>
<polygon fill="#bfbfbf" stroke="black" points="0,-52.5 0,-110.5 158,-110.5 158,-52.5 0,-52.5"/>
<text text-anchor="start" x="8" y="-99.3" font-family="Helvetica,sans-Serif" font-size="9.00">std::__detail::_Rehash</text>
<text text-anchor="start" x="8" y="-89.3" font-family="Helvetica,sans-Serif" font-size="9.00">_base&lt; _Key, _Value, </text>
<text text-anchor="start" x="8" y="-79.3" font-family="Helvetica,sans-Serif" font-size="9.00">_Alloc, _ExtractKey, _Equal,</text>
<text text-anchor="start" x="8" y="-69.3" font-family="Helvetica,sans-Serif" font-size="9.00"> _H1, _H2, _Hash, _RehashPolicy,</text>
<text text-anchor="middle" x="79" y="-59.3" font-family="Helvetica,sans-Serif" font-size="9.00"> _Traits &gt;</text>
</g>
<!-- Node2 -->
<g id="node2" class="node"><title>Node2</title>
<g id="a_node2"><a xlink:href="a00411.html" target="_top" xlink:title="_Hashtable\&lt; _Key, \l_Tp, _Hash, _Pred, \l_Alloc \&gt;">
<polygon fill="white" stroke="black" points="212,-114.5 212,-152.5 310,-152.5 310,-114.5 212,-114.5"/>
<text text-anchor="start" x="220" y="-141.3" font-family="Helvetica,sans-Serif" font-size="9.00">_Hashtable&lt; _Key, </text>
<text text-anchor="start" x="220" y="-131.3" font-family="Helvetica,sans-Serif" font-size="9.00">_Tp, _Hash, _Pred, </text>
<text text-anchor="middle" x="261" y="-121.3" font-family="Helvetica,sans-Serif" font-size="9.00">_Alloc &gt;</text>
</a>
</g>
</g>
<!-- Node1&#45;&gt;Node2 -->
<g id="edge1" class="edge"><title>Node1&#45;&gt;Node2</title>
<path fill="none" stroke="midnightblue" d="M168.083,-106.946C183.217,-111.318 198.425,-115.712 211.991,-119.631"/>
<polygon fill="midnightblue" stroke="midnightblue" points="168.744,-103.494 158.165,-104.081 166.801,-110.219 168.744,-103.494"/>
</g>
<!-- Node3 -->
<g id="node3" class="node"><title>Node3</title>
<g id="a_node3"><a xlink:href="a00411.html" target="_top" xlink:title="_Hashtable\&lt; _Value,\l _Hash, _Pred, _Alloc \&gt;">
<polygon fill="white" stroke="black" points="204.5,-67.5 204.5,-95.5 317.5,-95.5 317.5,-67.5 204.5,-67.5"/>
<text text-anchor="start" x="212.5" y="-84.3" font-family="Helvetica,sans-Serif" font-size="9.00">_Hashtable&lt; _Value,</text>
<text text-anchor="middle" x="261" y="-74.3" font-family="Helvetica,sans-Serif" font-size="9.00"> _Hash, _Pred, _Alloc &gt;</text>
</a>
</g>
</g>
<!-- Node1&#45;&gt;Node3 -->
<g id="edge2" class="edge"><title>Node1&#45;&gt;Node3</title>
<path fill="none" stroke="midnightblue" d="M168.425,-81.5C180.674,-81.5 192.962,-81.5 204.381,-81.5"/>
<polygon fill="midnightblue" stroke="midnightblue" points="168.165,-78.0001 158.165,-81.5 168.165,-85.0001 168.165,-78.0001"/>
</g>
<!-- Node4 -->
<g id="node4" class="node"><title>Node4</title>
<g id="a_node4"><a xlink:href="a00411.html" target="_top" xlink:title="std::_Hashtable\&lt; _Key,\l _Value, _Alloc, _ExtractKey,\l _Equal, _H1, _H2, _Hash,\l _RehashPolicy, _Traits \&gt;">
<polygon fill="white" stroke="black" points="194,-0.5 194,-48.5 328,-48.5 328,-0.5 194,-0.5"/>
<text text-anchor="start" x="202" y="-37.3" font-family="Helvetica,sans-Serif" font-size="9.00">std::_Hashtable&lt; _Key,</text>
<text text-anchor="start" x="202" y="-27.3" font-family="Helvetica,sans-Serif" font-size="9.00"> _Value, _Alloc, _ExtractKey,</text>
<text text-anchor="start" x="202" y="-17.3" font-family="Helvetica,sans-Serif" font-size="9.00"> _Equal, _H1, _H2, _Hash,</text>
<text text-anchor="middle" x="261" y="-7.3" font-family="Helvetica,sans-Serif" font-size="9.00"> _RehashPolicy, _Traits &gt;</text>
</a>
</g>
</g>
<!-- Node1&#45;&gt;Node4 -->
<g id="edge3" class="edge"><title>Node1&#45;&gt;Node4</title>
<path fill="none" stroke="midnightblue" d="M167.939,-53.6526C176.621,-50.9033 185.328,-48.146 193.738,-45.483"/>
<polygon fill="midnightblue" stroke="midnightblue" points="166.642,-50.392 158.165,-56.7476 168.755,-57.0654 166.642,-50.392"/>
</g>
</g>
</svg>
