<?xml version="1.0" encoding="UTF-8" standalone="no"?>
<!DOCTYPE svg PUBLIC "-//W3C//DTD SVG 1.1//EN"
 "http://www.w3.org/Graphics/SVG/1.1/DTD/svg11.dtd">
<!-- Generated by graphviz version 2.38.0 (20140413.2041)
 -->
<!-- Title: std::__detail::_Insert_base&lt; _Key, _Value, _Alloc, _ExtractKey, _Equal, _H1, _H2, _Hash, _RehashPolicy, _Traits &gt; Pages: 1 -->
<svg width="358pt" height="221pt"
 viewBox="0.00 0.00 358.00 221.00" xmlns="http://www.w3.org/2000/svg" xmlns:xlink="http://www.w3.org/1999/xlink">
<g id="graph0" class="graph" transform="scale(1 1) rotate(0) translate(4 217)">
<title>std::__detail::_Insert_base&lt; _Key, _Value, _Alloc, _ExtractKey, _Equal, _H1, _H2, _Hash, _RehashPolicy, _Traits &gt;</title>
<polygon fill="white" stroke="none" points="-4,4 -4,-217 354,-217 354,4 -4,4"/>
<!-- Node1 -->
<g id="node1" class="node"><title>Node1</title>
<polygon fill="#bfbfbf" stroke="black" points="0,-77.5 0,-135.5 158,-135.5 158,-77.5 0,-77.5"/>
<text text-anchor="start" x="8" y="-124.3" font-family="Helvetica,sans-Serif" font-size="9.00">std::__detail::_Insert</text>
<text text-anchor="start" x="8" y="-114.3" font-family="Helvetica,sans-Serif" font-size="9.00">_base&lt; _Key, _Value, </text>
<text text-anchor="start" x="8" y="-104.3" font-family="Helvetica,sans-Serif" font-size="9.00">_Alloc, _ExtractKey, _Equal,</text>
<text text-anchor="start" x="8" y="-94.3" font-family="Helvetica,sans-Serif" font-size="9.00"> _H1, _H2, _Hash, _RehashPolicy,</text>
<text text-anchor="middle" x="79" y="-84.3" font-family="Helvetica,sans-Serif" font-size="9.00"> _Traits &gt;</text>
</g>
<!-- Node2 -->
<g id="node2" class="node"><title>Node2</title>
<g id="a_node2"><a xlink:href="a00468.html" target="_top" xlink:title="Specialization. ">
<polygon fill="white" stroke="black" points="194,-154.5 194,-212.5 350,-212.5 350,-154.5 194,-154.5"/>
<text text-anchor="start" x="202" y="-201.3" font-family="Helvetica,sans-Serif" font-size="9.00">std::__detail::_Insert</text>
<text text-anchor="start" x="202" y="-191.3" font-family="Helvetica,sans-Serif" font-size="9.00">&lt; _Key, _Value, _Alloc,</text>
<text text-anchor="start" x="202" y="-181.3" font-family="Helvetica,sans-Serif" font-size="9.00"> _ExtractKey, _Equal, </text>
<text text-anchor="start" x="202" y="-171.3" font-family="Helvetica,sans-Serif" font-size="9.00">_H1, _H2, _Hash, _RehashPolicy,</text>
<text text-anchor="middle" x="272" y="-161.3" font-family="Helvetica,sans-Serif" font-size="9.00"> _Traits, false, _Unique_keys &gt;</text>
</a>
</g>
</g>
<!-- Node1&#45;&gt;Node2 -->
<g id="edge1" class="edge"><title>Node1&#45;&gt;Node2</title>
<path fill="none" stroke="midnightblue" d="M161.373,-139.305C173.815,-144.321 186.584,-149.469 198.811,-154.398"/>
<polygon fill="midnightblue" stroke="midnightblue" points="162.52,-135.994 151.937,-135.501 159.903,-142.486 162.52,-135.994"/>
</g>
<!-- Node3 -->
<g id="node3" class="node"><title>Node3</title>
<g id="a_node3"><a xlink:href="a00469.html" target="_top" xlink:title="Specialization. ">
<polygon fill="white" stroke="black" points="194,-77.5 194,-135.5 350,-135.5 350,-77.5 194,-77.5"/>
<text text-anchor="start" x="202" y="-124.3" font-family="Helvetica,sans-Serif" font-size="9.00">std::__detail::_Insert</text>
<text text-anchor="start" x="202" y="-114.3" font-family="Helvetica,sans-Serif" font-size="9.00">&lt; _Key, _Value, _Alloc,</text>
<text text-anchor="start" x="202" y="-104.3" font-family="Helvetica,sans-Serif" font-size="9.00"> _ExtractKey, _Equal, </text>
<text text-anchor="start" x="202" y="-94.3" font-family="Helvetica,sans-Serif" font-size="9.00">_H1, _H2, _Hash, _RehashPolicy,</text>
<text text-anchor="middle" x="272" y="-84.3" font-family="Helvetica,sans-Serif" font-size="9.00"> _Traits, true, false &gt;</text>
</a>
</g>
</g>
<!-- Node1&#45;&gt;Node3 -->
<g id="edge2" class="edge"><title>Node1&#45;&gt;Node3</title>
<path fill="none" stroke="midnightblue" d="M168.495,-106.5C176.949,-106.5 185.476,-106.5 193.81,-106.5"/>
<polygon fill="midnightblue" stroke="midnightblue" points="168.238,-103 158.238,-106.5 168.238,-110 168.238,-103"/>
</g>
<!-- Node4 -->
<g id="node4" class="node"><title>Node4</title>
<g id="a_node4"><a xlink:href="a00470.html" target="_top" xlink:title="Specialization. ">
<polygon fill="white" stroke="black" points="194,-0.5 194,-58.5 350,-58.5 350,-0.5 194,-0.5"/>
<text text-anchor="start" x="202" y="-47.3" font-family="Helvetica,sans-Serif" font-size="9.00">std::__detail::_Insert</text>
<text text-anchor="start" x="202" y="-37.3" font-family="Helvetica,sans-Serif" font-size="9.00">&lt; _Key, _Value, _Alloc,</text>
<text text-anchor="start" x="202" y="-27.3" font-family="Helvetica,sans-Serif" font-size="9.00"> _ExtractKey, _Equal, </text>
<text text-anchor="start" x="202" y="-17.3" font-family="Helvetica,sans-Serif" font-size="9.00">_H1, _H2, _Hash, _RehashPolicy,</text>
<text text-anchor="middle" x="272" y="-7.3" font-family="Helvetica,sans-Serif" font-size="9.00"> _Traits, true, true &gt;</text>
</a>
</g>
</g>
<!-- Node1&#45;&gt;Node4 -->
<g id="edge3" class="edge"><title>Node1&#45;&gt;Node4</title>
<path fill="none" stroke="midnightblue" d="M161.373,-73.6951C173.815,-68.6792 186.584,-63.5314 198.811,-58.6025"/>
<polygon fill="midnightblue" stroke="midnightblue" points="159.903,-70.5141 151.937,-77.4993 162.52,-77.0064 159.903,-70.5141"/>
</g>
</g>
</svg>
