<?xml version="1.0" encoding="UTF-8" standalone="no"?>
<!DOCTYPE svg PUBLIC "-//W3C//DTD SVG 1.1//EN"
 "http://www.w3.org/Graphics/SVG/1.1/DTD/svg11.dtd">
<!-- Generated by graphviz version 2.38.0 (20140413.2041)
 -->
<!-- Title: Graphical Class Hierarchy Pages: 1 -->
<svg width="269pt" height="57pt"
 viewBox="0.00 0.00 269.00 57.00" xmlns="http://www.w3.org/2000/svg" xmlns:xlink="http://www.w3.org/1999/xlink">
<g id="graph0" class="graph" transform="scale(1 1) rotate(0) translate(4 53)">
<title>Graphical Class Hierarchy</title>
<polygon fill="white" stroke="none" points="-4,4 -4,-53 265,-53 265,4 -4,4"/>
<!-- Node1 -->
<g id="node1" class="node"><title>Node1</title>
<g id="a_node1"><a xlink:href="a00419.html" target="_top" xlink:title="std::_Vector_base\&lt;\l std::pair\&lt; _BiIter,\l int \&gt;, std::allocator\l\&lt; std::pair\&lt; _BiIter, int \&gt; \&gt; \&gt;">
<polygon fill="white" stroke="black" points="0,-0.5 0,-48.5 127,-48.5 127,-0.5 0,-0.5"/>
<text text-anchor="start" x="8" y="-37.3" font-family="Helvetica,sans-Serif" font-size="9.00">std::_Vector_base&lt;</text>
<text text-anchor="start" x="8" y="-27.3" font-family="Helvetica,sans-Serif" font-size="9.00"> std::pair&lt; _BiIter,</text>
<text text-anchor="start" x="8" y="-17.3" font-family="Helvetica,sans-Serif" font-size="9.00"> int &gt;, std::allocator</text>
<text text-anchor="middle" x="63.5" y="-7.3" font-family="Helvetica,sans-Serif" font-size="9.00">&lt; std::pair&lt; _BiIter, int &gt; &gt; &gt;</text>
</a>
</g>
</g>
<!-- Node2 -->
<g id="node2" class="node"><title>Node2</title>
<g id="a_node2"><a xlink:href="a00716.html" target="_top" xlink:title="std::vector\&lt; std::pair\l\&lt; _BiIter, int \&gt; \&gt;">
<polygon fill="white" stroke="black" points="163,-10.5 163,-38.5 261,-38.5 261,-10.5 163,-10.5"/>
<text text-anchor="start" x="171" y="-27.3" font-family="Helvetica,sans-Serif" font-size="9.00">std::vector&lt; std::pair</text>
<text text-anchor="middle" x="212" y="-17.3" font-family="Helvetica,sans-Serif" font-size="9.00">&lt; _BiIter, int &gt; &gt;</text>
</a>
</g>
</g>
<!-- Node1&#45;&gt;Node2 -->
<g id="edge1" class="edge"><title>Node1&#45;&gt;Node2</title>
<path fill="none" stroke="darkgreen" d="M137.223,-24.5C145.913,-24.5 154.614,-24.5 162.835,-24.5"/>
<polygon fill="darkgreen" stroke="darkgreen" points="137.054,-21.0001 127.054,-24.5 137.054,-28.0001 137.054,-21.0001"/>
</g>
</g>
</svg>
