<?xml version="1.0" encoding="UTF-8" standalone="no"?>
<!DOCTYPE svg PUBLIC "-//W3C//DTD SVG 1.1//EN"
 "http://www.w3.org/Graphics/SVG/1.1/DTD/svg11.dtd">
<!-- Generated by graphviz version 2.38.0 (20140413.2041)
 -->
<!-- Title: Graphical Class Hierarchy Pages: 1 -->
<svg width="240pt" height="57pt"
 viewBox="0.00 0.00 240.00 57.00" xmlns="http://www.w3.org/2000/svg" xmlns:xlink="http://www.w3.org/1999/xlink">
<g id="graph0" class="graph" transform="scale(1 1) rotate(0) translate(4 53)">
<title>Graphical Class Hierarchy</title>
<polygon fill="white" stroke="none" points="-4,4 -4,-53 236,-53 236,4 -4,4"/>
<!-- Node1 -->
<g id="node1" class="node"><title>Node1</title>
<g id="a_node1"><a xlink:href="a00419.html" target="_top" xlink:title="std::_Vector_base\&lt;\l _State\&lt; _TraitsT \&gt;,\l std::allocator\&lt; _State\l\&lt; _TraitsT \&gt; \&gt; \&gt;">
<polygon fill="white" stroke="black" points="0,-0.5 0,-48.5 104,-48.5 104,-0.5 0,-0.5"/>
<text text-anchor="start" x="8" y="-37.3" font-family="Helvetica,sans-Serif" font-size="9.00">std::_Vector_base&lt;</text>
<text text-anchor="start" x="8" y="-27.3" font-family="Helvetica,sans-Serif" font-size="9.00"> _State&lt; _TraitsT &gt;,</text>
<text text-anchor="start" x="8" y="-17.3" font-family="Helvetica,sans-Serif" font-size="9.00"> std::allocator&lt; _State</text>
<text text-anchor="middle" x="52" y="-7.3" font-family="Helvetica,sans-Serif" font-size="9.00">&lt; _TraitsT &gt; &gt; &gt;</text>
</a>
</g>
</g>
<!-- Node2 -->
<g id="node2" class="node"><title>Node2</title>
<g id="a_node2"><a xlink:href="a00716.html" target="_top" xlink:title="std::vector\&lt; _State\l\&lt; _TraitsT \&gt; \&gt;">
<polygon fill="white" stroke="black" points="140,-10.5 140,-38.5 232,-38.5 232,-10.5 140,-10.5"/>
<text text-anchor="start" x="148" y="-27.3" font-family="Helvetica,sans-Serif" font-size="9.00">std::vector&lt; _State</text>
<text text-anchor="middle" x="186" y="-17.3" font-family="Helvetica,sans-Serif" font-size="9.00">&lt; _TraitsT &gt; &gt;</text>
</a>
</g>
</g>
<!-- Node1&#45;&gt;Node2 -->
<g id="edge1" class="edge"><title>Node1&#45;&gt;Node2</title>
<path fill="none" stroke="darkgreen" d="M114.074,-24.5C122.701,-24.5 131.44,-24.5 139.699,-24.5"/>
<polygon fill="darkgreen" stroke="darkgreen" points="114.035,-21.0001 104.035,-24.5 114.035,-28.0001 114.035,-21.0001"/>
</g>
</g>
</svg>
