<?xml version="1.0" encoding="UTF-8" standalone="no"?>
<!DOCTYPE svg PUBLIC "-//W3C//DTD SVG 1.1//EN"
 "http://www.w3.org/Graphics/SVG/1.1/DTD/svg11.dtd">
<!-- Generated by graphviz version 2.38.0 (20140413.2041)
 -->
<!-- Title: Graphical Class Hierarchy Pages: 1 -->
<svg width="259pt" height="84pt"
 viewBox="0.00 0.00 259.00 84.00" xmlns="http://www.w3.org/2000/svg" xmlns:xlink="http://www.w3.org/1999/xlink">
<g id="graph0" class="graph" transform="scale(1 1) rotate(0) translate(4 80)">
<title>Graphical Class Hierarchy</title>
<polygon fill="white" stroke="none" points="-4,4 -4,-80 255,-80 255,4 -4,4"/>
<!-- Node1 -->
<g id="node1" class="node"><title>Node1</title>
<g id="a_node1"><a xlink:href="a00423.html" target="_top" xlink:title="std::binary_function\l\&lt; _Tp, _Arg, _Ret \&gt;">
<polygon fill="white" stroke="black" points="0,-23.5 0,-51.5 96,-51.5 96,-23.5 0,-23.5"/>
<text text-anchor="start" x="8" y="-40.3" font-family="Helvetica,sans-Serif" font-size="9.00">std::binary_function</text>
<text text-anchor="middle" x="48" y="-30.3" font-family="Helvetica,sans-Serif" font-size="9.00">&lt; _Tp, _Arg, _Ret &gt;</text>
</a>
</g>
</g>
<!-- Node2 -->
<g id="node2" class="node"><title>Node2</title>
<g id="a_node2"><a xlink:href="a00541.html" target="_top" xlink:title="One of the adaptors for member pointers. ">
<polygon fill="white" stroke="black" points="132,-47.5 132,-75.5 251,-75.5 251,-47.5 132,-47.5"/>
<text text-anchor="start" x="140" y="-64.3" font-family="Helvetica,sans-Serif" font-size="9.00">std::const_mem_fun1</text>
<text text-anchor="middle" x="191.5" y="-54.3" font-family="Helvetica,sans-Serif" font-size="9.00">_ref_t&lt; _Ret, _Tp, _Arg &gt;</text>
</a>
</g>
</g>
<!-- Node1&#45;&gt;Node2 -->
<g id="edge1" class="edge"><title>Node1&#45;&gt;Node2</title>
<path fill="none" stroke="midnightblue" d="M106.216,-47.2045C114.631,-48.6317 123.311,-50.104 131.756,-51.5363"/>
<polygon fill="midnightblue" stroke="midnightblue" points="106.562,-43.7132 96.1175,-45.4917 105.391,-50.6147 106.562,-43.7132"/>
</g>
<!-- Node3 -->
<g id="node3" class="node"><title>Node3</title>
<g id="a_node3"><a xlink:href="a00633.html" target="_top" xlink:title="One of the adaptors for member pointers. ">
<polygon fill="white" stroke="black" points="141.5,-0.5 141.5,-28.5 241.5,-28.5 241.5,-0.5 141.5,-0.5"/>
<text text-anchor="start" x="149.5" y="-17.3" font-family="Helvetica,sans-Serif" font-size="9.00">std::mem_fun1_ref_t</text>
<text text-anchor="middle" x="191.5" y="-7.3" font-family="Helvetica,sans-Serif" font-size="9.00">&lt; _Ret, _Tp, _Arg &gt;</text>
</a>
</g>
</g>
<!-- Node1&#45;&gt;Node3 -->
<g id="edge2" class="edge"><title>Node1&#45;&gt;Node3</title>
<path fill="none" stroke="midnightblue" d="M106.15,-28.2106C117.752,-26.3248 129.861,-24.3565 141.165,-22.5191"/>
<polygon fill="midnightblue" stroke="midnightblue" points="105.426,-24.7822 96.1175,-29.8413 106.549,-31.6915 105.426,-24.7822"/>
</g>
</g>
</svg>
