<?xml version="1.0" encoding="UTF-8" standalone="no"?>
<!DOCTYPE svg PUBLIC "-//W3C//DTD SVG 1.1//EN"
 "http://www.w3.org/Graphics/SVG/1.1/DTD/svg11.dtd">
<!-- Generated by graphviz version 2.38.0 (20140413.2041)
 -->
<!-- Title: Graphical Class Hierarchy Pages: 1 -->
<svg width="310pt" height="84pt"
 viewBox="0.00 0.00 310.00 84.00" xmlns="http://www.w3.org/2000/svg" xmlns:xlink="http://www.w3.org/1999/xlink">
<g id="graph0" class="graph" transform="scale(1 1) rotate(0) translate(4 80)">
<title>Graphical Class Hierarchy</title>
<polygon fill="white" stroke="none" points="-4,4 -4,-80 306,-80 306,4 -4,4"/>
<!-- Node1 -->
<g id="node1" class="node"><title>Node1</title>
<g id="a_node1"><a xlink:href="a00121.html" target="_top" xlink:title="Guarded loser/tournament tree. ">
<polygon fill="white" stroke="black" points="0,-23.5 0,-51.5 131,-51.5 131,-23.5 0,-23.5"/>
<text text-anchor="start" x="8" y="-40.3" font-family="Helvetica,sans-Serif" font-size="9.00">__gnu_parallel::_LoserTree</text>
<text text-anchor="middle" x="65.5" y="-30.3" font-family="Helvetica,sans-Serif" font-size="9.00">Base&lt; _Tp, _Compare &gt;</text>
</a>
</g>
</g>
<!-- Node2 -->
<g id="node2" class="node"><title>Node2</title>
<g id="a_node2"><a xlink:href="a00119.html" target="_top" xlink:title="Stable _LoserTree variant. ">
<polygon fill="white" stroke="black" points="167,-47.5 167,-75.5 302,-75.5 302,-47.5 167,-47.5"/>
<text text-anchor="start" x="175" y="-64.3" font-family="Helvetica,sans-Serif" font-size="9.00">__gnu_parallel::_LoserTree</text>
<text text-anchor="middle" x="234.5" y="-54.3" font-family="Helvetica,sans-Serif" font-size="9.00">&lt; __stable, _Tp, _Compare &gt;</text>
</a>
</g>
</g>
<!-- Node1&#45;&gt;Node2 -->
<g id="edge1" class="edge"><title>Node1&#45;&gt;Node2</title>
<path fill="none" stroke="midnightblue" d="M141.082,-48.2184C149.683,-49.4545 158.412,-50.7089 166.897,-51.9284"/>
<polygon fill="midnightblue" stroke="midnightblue" points="141.463,-44.7372 131.067,-46.779 140.467,-51.666 141.463,-44.7372"/>
</g>
<!-- Node3 -->
<g id="node3" class="node"><title>Node3</title>
<g id="a_node3"><a xlink:href="a00120.html" target="_top" xlink:title="Unstable _LoserTree variant. ">
<polygon fill="white" stroke="black" points="169,-0.5 169,-28.5 300,-28.5 300,-0.5 169,-0.5"/>
<text text-anchor="start" x="177" y="-17.3" font-family="Helvetica,sans-Serif" font-size="9.00">__gnu_parallel::_LoserTree</text>
<text text-anchor="middle" x="234.5" y="-7.3" font-family="Helvetica,sans-Serif" font-size="9.00">&lt; false, _Tp, _Compare &gt;</text>
</a>
</g>
</g>
<!-- Node1&#45;&gt;Node3 -->
<g id="edge2" class="edge"><title>Node1&#45;&gt;Node3</title>
<path fill="none" stroke="midnightblue" d="M141.043,-27.2336C150.311,-25.9572 159.728,-24.6602 168.83,-23.4067"/>
<polygon fill="midnightblue" stroke="midnightblue" points="140.495,-23.7759 131.067,-28.6076 141.451,-30.7104 140.495,-23.7759"/>
</g>
</g>
</svg>
