<?xml version="1.0" encoding="UTF-8" standalone="no"?>
<!DOCTYPE svg PUBLIC "-//W3C//DTD SVG 1.1//EN"
 "http://www.w3.org/Graphics/SVG/1.1/DTD/svg11.dtd">
<!-- Generated by graphviz version 2.38.0 (20140413.2041)
 -->
<!-- Title: Graphical Class Hierarchy Pages: 1 -->
<svg width="287pt" height="47pt"
 viewBox="0.00 0.00 287.00 47.00" xmlns="http://www.w3.org/2000/svg" xmlns:xlink="http://www.w3.org/1999/xlink">
<g id="graph0" class="graph" transform="scale(1 1) rotate(0) translate(4 43)">
<title>Graphical Class Hierarchy</title>
<polygon fill="white" stroke="none" points="-4,4 -4,-43 283,-43 283,4 -4,4"/>
<!-- Node1 -->
<g id="node1" class="node"><title>Node1</title>
<g id="a_node1"><a xlink:href="a00405.html" target="_top" xlink:title="std::_Deque_base\&lt; \l_StateSeqT, std::allocator\l\&lt; _StateSeqT \&gt; \&gt;">
<polygon fill="white" stroke="black" points="0,-0.5 0,-38.5 121,-38.5 121,-0.5 0,-0.5"/>
<text text-anchor="start" x="8" y="-27.3" font-family="Helvetica,sans-Serif" font-size="9.00">std::_Deque_base&lt; </text>
<text text-anchor="start" x="8" y="-17.3" font-family="Helvetica,sans-Serif" font-size="9.00">_StateSeqT, std::allocator</text>
<text text-anchor="middle" x="60.5" y="-7.3" font-family="Helvetica,sans-Serif" font-size="9.00">&lt; _StateSeqT &gt; &gt;</text>
</a>
</g>
</g>
<!-- Node2 -->
<g id="node2" class="node"><title>Node2</title>
<g id="a_node2"><a xlink:href="a00425.html" target="_top" xlink:title="std::deque\&lt; _StateSeqT \&gt;">
<polygon fill="white" stroke="black" points="157,-10.5 157,-28.5 279,-28.5 279,-10.5 157,-10.5"/>
<text text-anchor="middle" x="218" y="-17.3" font-family="Helvetica,sans-Serif" font-size="9.00">std::deque&lt; _StateSeqT &gt;</text>
</a>
</g>
</g>
<!-- Node1&#45;&gt;Node2 -->
<g id="edge1" class="edge"><title>Node1&#45;&gt;Node2</title>
<path fill="none" stroke="darkgreen" d="M131.188,-19.5C139.792,-19.5 148.528,-19.5 156.97,-19.5"/>
<polygon fill="darkgreen" stroke="darkgreen" points="131.176,-16.0001 121.176,-19.5 131.176,-23.0001 131.176,-16.0001"/>
</g>
</g>
</svg>
