<?xml version="1.0" encoding="UTF-8" standalone="no"?>
<!DOCTYPE svg PUBLIC "-//W3C//DTD SVG 1.1//EN"
 "http://www.w3.org/Graphics/SVG/1.1/DTD/svg11.dtd">
<!-- Generated by graphviz version 2.38.0 (20140413.2041)
 -->
<!-- Title: Graphical Class Hierarchy Pages: 1 -->
<svg width="417pt" height="57pt"
 viewBox="0.00 0.00 417.00 57.00" xmlns="http://www.w3.org/2000/svg" xmlns:xlink="http://www.w3.org/1999/xlink">
<g id="graph0" class="graph" transform="scale(1 1) rotate(0) translate(4 53)">
<title>Graphical Class Hierarchy</title>
<polygon fill="white" stroke="none" points="-4,4 -4,-53 413,-53 413,4 -4,4"/>
<!-- Node1 -->
<g id="node1" class="node"><title>Node1</title>
<g id="a_node1"><a xlink:href="a00419.html" target="_top" xlink:title="std::_Vector_base\&lt;\l sub_match\&lt; _Bi_iter\l \&gt;, allocator\&lt; sub_match\l\&lt; _Bi_iter \&gt; \&gt; \&gt;">
<polygon fill="white" stroke="black" points="0,-0.5 0,-48.5 116,-48.5 116,-0.5 0,-0.5"/>
<text text-anchor="start" x="8" y="-37.3" font-family="Helvetica,sans-Serif" font-size="9.00">std::_Vector_base&lt;</text>
<text text-anchor="start" x="8" y="-27.3" font-family="Helvetica,sans-Serif" font-size="9.00"> sub_match&lt; _Bi_iter</text>
<text text-anchor="start" x="8" y="-17.3" font-family="Helvetica,sans-Serif" font-size="9.00"> &gt;, allocator&lt; sub_match</text>
<text text-anchor="middle" x="58" y="-7.3" font-family="Helvetica,sans-Serif" font-size="9.00">&lt; _Bi_iter &gt; &gt; &gt;</text>
</a>
</g>
</g>
<!-- Node2 -->
<g id="node2" class="node"><title>Node2</title>
<g id="a_node2"><a xlink:href="a00716.html" target="_top" xlink:title="std::vector\&lt; sub_match\l\&lt; _Bi_iter \&gt;, allocator\l\&lt; sub_match\&lt; _Bi_iter \&gt; \&gt; \&gt;">
<polygon fill="white" stroke="black" points="152,-5.5 152,-43.5 283,-43.5 283,-5.5 152,-5.5"/>
<text text-anchor="start" x="160" y="-32.3" font-family="Helvetica,sans-Serif" font-size="9.00">std::vector&lt; sub_match</text>
<text text-anchor="start" x="160" y="-22.3" font-family="Helvetica,sans-Serif" font-size="9.00">&lt; _Bi_iter &gt;, allocator</text>
<text text-anchor="middle" x="217.5" y="-12.3" font-family="Helvetica,sans-Serif" font-size="9.00">&lt; sub_match&lt; _Bi_iter &gt; &gt; &gt;</text>
</a>
</g>
</g>
<!-- Node1&#45;&gt;Node2 -->
<g id="edge1" class="edge"><title>Node1&#45;&gt;Node2</title>
<path fill="none" stroke="darkgreen" d="M126.438,-24.5C134.837,-24.5 143.412,-24.5 151.768,-24.5"/>
<polygon fill="darkgreen" stroke="darkgreen" points="126.307,-21.0001 116.307,-24.5 126.307,-28.0001 126.307,-21.0001"/>
</g>
<!-- Node3 -->
<g id="node3" class="node"><title>Node3</title>
<g id="a_node3"><a xlink:href="a00430.html" target="_top" xlink:title="std::match_results\l\&lt; _Bi_iter \&gt;">
<polygon fill="white" stroke="black" points="319,-10.5 319,-38.5 409,-38.5 409,-10.5 319,-10.5"/>
<text text-anchor="start" x="327" y="-27.3" font-family="Helvetica,sans-Serif" font-size="9.00">std::match_results</text>
<text text-anchor="middle" x="364" y="-17.3" font-family="Helvetica,sans-Serif" font-size="9.00">&lt; _Bi_iter &gt;</text>
</a>
</g>
</g>
<!-- Node2&#45;&gt;Node3 -->
<g id="edge2" class="edge"><title>Node2&#45;&gt;Node3</title>
<path fill="none" stroke="#8b1a1a" d="M293.324,-24.5C302.004,-24.5 310.634,-24.5 318.712,-24.5"/>
<polygon fill="#8b1a1a" stroke="#8b1a1a" points="293.142,-21.0001 283.142,-24.5 293.142,-28.0001 293.142,-21.0001"/>
</g>
</g>
</svg>
