<?xml version="1.0" encoding="UTF-8" standalone="no"?>
<!DOCTYPE svg PUBLIC "-//W3C//DTD SVG 1.1//EN"
 "http://www.w3.org/Graphics/SVG/1.1/DTD/svg11.dtd">
<!-- Generated by graphviz version 2.38.0 (20140413.2041)
 -->
<!-- Title: Graphical Class Hierarchy Pages: 1 -->
<svg width="258pt" height="37pt"
 viewBox="0.00 0.00 258.00 37.00" xmlns="http://www.w3.org/2000/svg" xmlns:xlink="http://www.w3.org/1999/xlink">
<g id="graph0" class="graph" transform="scale(1 1) rotate(0) translate(4 33)">
<title>Graphical Class Hierarchy</title>
<polygon fill="white" stroke="none" points="-4,4 -4,-33 254,-33 254,4 -4,4"/>
<!-- Node1 -->
<g id="node1" class="node"><title>Node1</title>
<g id="a_node1"><a xlink:href="a00421.html" target="_top" xlink:title="std::allocator_traits\l\&lt; _Tp_alloc_type \&gt;">
<polygon fill="white" stroke="black" points="0,-0.5 0,-28.5 95,-28.5 95,-0.5 0,-0.5"/>
<text text-anchor="start" x="8" y="-17.3" font-family="Helvetica,sans-Serif" font-size="9.00">std::allocator_traits</text>
<text text-anchor="middle" x="47.5" y="-7.3" font-family="Helvetica,sans-Serif" font-size="9.00">&lt; _Tp_alloc_type &gt;</text>
</a>
</g>
</g>
<!-- Node2 -->
<g id="node2" class="node"><title>Node2</title>
<g id="a_node2"><a xlink:href="a00001.html" target="_top" xlink:title="__gnu_cxx::__alloc\l_traits\&lt; _Tp_alloc_type \&gt;">
<polygon fill="white" stroke="black" points="131,-0.5 131,-28.5 250,-28.5 250,-0.5 131,-0.5"/>
<text text-anchor="start" x="139" y="-17.3" font-family="Helvetica,sans-Serif" font-size="9.00">__gnu_cxx::__alloc</text>
<text text-anchor="middle" x="190.5" y="-7.3" font-family="Helvetica,sans-Serif" font-size="9.00">_traits&lt; _Tp_alloc_type &gt;</text>
</a>
</g>
</g>
<!-- Node1&#45;&gt;Node2 -->
<g id="edge1" class="edge"><title>Node1&#45;&gt;Node2</title>
<path fill="none" stroke="midnightblue" d="M105.213,-14.5C113.677,-14.5 122.417,-14.5 130.919,-14.5"/>
<polygon fill="midnightblue" stroke="midnightblue" points="105.059,-11.0001 95.0594,-14.5 105.059,-18.0001 105.059,-11.0001"/>
</g>
</g>
</svg>
