<?xml version="1.0" encoding="UTF-8" standalone="no"?>
<!DOCTYPE svg PUBLIC "-//W3C//DTD SVG 1.1//EN"
 "http://www.w3.org/Graphics/SVG/1.1/DTD/svg11.dtd">
<!-- Generated by graphviz version 2.38.0 (20140413.2041)
 -->
<!-- Title: Graphical Class Hierarchy Pages: 1 -->
<svg width="267pt" height="47pt"
 viewBox="0.00 0.00 267.00 47.00" xmlns="http://www.w3.org/2000/svg" xmlns:xlink="http://www.w3.org/1999/xlink">
<g id="graph0" class="graph" transform="scale(1 1) rotate(0) translate(4 43)">
<title>Graphical Class Hierarchy</title>
<polygon fill="white" stroke="none" points="-4,4 -4,-43 263,-43 263,4 -4,4"/>
<!-- Node1 -->
<g id="node1" class="node"><title>Node1</title>
<g id="a_node1"><a xlink:href="a00433.html" target="_top" xlink:title="std::pair\&lt; _Iterator1,\l _Iterator2 \&gt;">
<polygon fill="white" stroke="black" points="0,-5.5 0,-33.5 98,-33.5 98,-5.5 0,-5.5"/>
<text text-anchor="start" x="8" y="-22.3" font-family="Helvetica,sans-Serif" font-size="9.00">std::pair&lt; _Iterator1,</text>
<text text-anchor="middle" x="49" y="-12.3" font-family="Helvetica,sans-Serif" font-size="9.00"> _Iterator2 &gt;</text>
</a>
</g>
</g>
<!-- Node2 -->
<g id="node2" class="node"><title>Node2</title>
<g id="a_node2"><a xlink:href="a00113.html" target="_top" xlink:title="A pair of iterators. The usual iterator operations are applied to both child iterators. ">
<polygon fill="white" stroke="black" points="134,-0.5 134,-38.5 259,-38.5 259,-0.5 134,-0.5"/>
<text text-anchor="start" x="142" y="-27.3" font-family="Helvetica,sans-Serif" font-size="9.00">__gnu_parallel::_Iterator</text>
<text text-anchor="start" x="142" y="-17.3" font-family="Helvetica,sans-Serif" font-size="9.00">Pair&lt; _Iterator1, _Iterator2,</text>
<text text-anchor="middle" x="196.5" y="-7.3" font-family="Helvetica,sans-Serif" font-size="9.00"> _IteratorCategory &gt;</text>
</a>
</g>
</g>
<!-- Node1&#45;&gt;Node2 -->
<g id="edge1" class="edge"><title>Node1&#45;&gt;Node2</title>
<path fill="none" stroke="midnightblue" d="M108.15,-19.5C116.572,-19.5 125.265,-19.5 133.754,-19.5"/>
<polygon fill="midnightblue" stroke="midnightblue" points="108.045,-16.0001 98.0454,-19.5 108.045,-23.0001 108.045,-16.0001"/>
</g>
</g>
</svg>
