<?xml version="1.0" encoding="UTF-8" standalone="no"?>
<!DOCTYPE svg PUBLIC "-//W3C//DTD SVG 1.1//EN"
 "http://www.w3.org/Graphics/SVG/1.1/DTD/svg11.dtd">
<!-- Generated by graphviz version 2.38.0 (20140413.2041)
 -->
<!-- Title: Graphical Class Hierarchy Pages: 1 -->
<svg width="332pt" height="193pt"
 viewBox="0.00 0.00 332.00 193.00" xmlns="http://www.w3.org/2000/svg" xmlns:xlink="http://www.w3.org/1999/xlink">
<g id="graph0" class="graph" transform="scale(1 1) rotate(0) translate(4 189)">
<title>Graphical Class Hierarchy</title>
<polygon fill="white" stroke="none" points="-4,4 -4,-189 328,-189 328,4 -4,4"/>
<!-- Node1 -->
<g id="node1" class="node"><title>Node1</title>
<g id="a_node1"><a xlink:href="a00413.html" target="_top" xlink:title="std::__detail::_Hashtable\l_ebo_helper\&lt; 0, _ExtractKey \&gt;">
<polygon fill="white" stroke="black" points="0,-54.5 0,-82.5 143,-82.5 143,-54.5 0,-54.5"/>
<text text-anchor="start" x="8" y="-71.3" font-family="Helvetica,sans-Serif" font-size="9.00">std::__detail::_Hashtable</text>
<text text-anchor="middle" x="71.5" y="-61.3" font-family="Helvetica,sans-Serif" font-size="9.00">_ebo_helper&lt; 0, _ExtractKey &gt;</text>
</a>
</g>
</g>
<!-- Node2 -->
<g id="node2" class="node"><title>Node2</title>
<g id="a_node2"><a xlink:href="a00456.html" target="_top" xlink:title="Specialization: hash function and range&#45;hashing function, no caching of hash codes. Provides typedef and accessor required by C++ 11. ">
<polygon fill="white" stroke="black" points="179,-69.5 179,-117.5 324,-117.5 324,-69.5 179,-69.5"/>
<text text-anchor="start" x="187" y="-106.3" font-family="Helvetica,sans-Serif" font-size="9.00">std::__detail::_Hash</text>
<text text-anchor="start" x="187" y="-96.3" font-family="Helvetica,sans-Serif" font-size="9.00">_code_base&lt; _Key, _Value,</text>
<text text-anchor="start" x="187" y="-86.3" font-family="Helvetica,sans-Serif" font-size="9.00"> _ExtractKey, _H1, _H2,</text>
<text text-anchor="middle" x="251.5" y="-76.3" font-family="Helvetica,sans-Serif" font-size="9.00"> _Default_ranged_hash, false &gt;</text>
</a>
</g>
</g>
<!-- Node1&#45;&gt;Node2 -->
<g id="edge1" class="edge"><title>Node1&#45;&gt;Node2</title>
<path fill="none" stroke="#8b1a1a" d="M153.102,-79.8205C161.675,-81.0246 170.353,-82.2434 178.813,-83.4317"/>
<polygon fill="#8b1a1a" stroke="#8b1a1a" points="153.496,-76.3415 143.106,-78.4166 152.522,-83.2735 153.496,-76.3415"/>
</g>
<!-- Node3 -->
<g id="node3" class="node"><title>Node3</title>
<g id="a_node3"><a xlink:href="a00457.html" target="_top" xlink:title="Specialization: hash function and range&#45;hashing function, caching hash codes. H is provided but ignor...">
<polygon fill="white" stroke="black" points="181,-136.5 181,-184.5 322,-184.5 322,-136.5 181,-136.5"/>
<text text-anchor="start" x="189" y="-173.3" font-family="Helvetica,sans-Serif" font-size="9.00">std::__detail::_Hash</text>
<text text-anchor="start" x="189" y="-163.3" font-family="Helvetica,sans-Serif" font-size="9.00">_code_base&lt; _Key, _Value,</text>
<text text-anchor="start" x="189" y="-153.3" font-family="Helvetica,sans-Serif" font-size="9.00"> _ExtractKey, _H1, _H2,</text>
<text text-anchor="middle" x="251.5" y="-143.3" font-family="Helvetica,sans-Serif" font-size="9.00"> _Default_ranged_hash, true &gt;</text>
</a>
</g>
</g>
<!-- Node1&#45;&gt;Node3 -->
<g id="edge2" class="edge"><title>Node1&#45;&gt;Node3</title>
<path fill="none" stroke="#8b1a1a" d="M132.364,-86.7418C136.046,-88.5141 139.624,-90.4313 143,-92.5 162.028,-104.159 160.606,-114.866 179,-127.5 183.62,-130.674 188.595,-133.677 193.691,-136.484"/>
<polygon fill="#8b1a1a" stroke="#8b1a1a" points="133.613,-83.467 123.051,-82.6307 130.786,-89.8709 133.613,-83.467"/>
</g>
<!-- Node4 -->
<g id="node4" class="node"><title>Node4</title>
<g id="a_node4"><a xlink:href="a00458.html" target="_top" xlink:title="Specialization: ranged hash function, no caching hash codes. H1 and H2 are provided but ignored...">
<polygon fill="white" stroke="black" points="185.5,-0.5 185.5,-48.5 317.5,-48.5 317.5,-0.5 185.5,-0.5"/>
<text text-anchor="start" x="193.5" y="-37.3" font-family="Helvetica,sans-Serif" font-size="9.00">std::__detail::_Hash</text>
<text text-anchor="start" x="193.5" y="-27.3" font-family="Helvetica,sans-Serif" font-size="9.00">_code_base&lt; _Key, _Value,</text>
<text text-anchor="start" x="193.5" y="-17.3" font-family="Helvetica,sans-Serif" font-size="9.00"> _ExtractKey, _H1, _H2,</text>
<text text-anchor="middle" x="251.5" y="-7.3" font-family="Helvetica,sans-Serif" font-size="9.00"> _Hash, false &gt;</text>
</a>
</g>
</g>
<!-- Node1&#45;&gt;Node4 -->
<g id="edge3" class="edge"><title>Node1&#45;&gt;Node4</title>
<path fill="none" stroke="#8b1a1a" d="M139.08,-52.0419C154.181,-48.3093 170.202,-44.3489 185.247,-40.63"/>
<polygon fill="#8b1a1a" stroke="#8b1a1a" points="138.178,-48.6597 129.31,-54.4572 139.857,-55.4551 138.178,-48.6597"/>
</g>
<!-- Node5 -->
<g id="node5" class="node"><title>Node5</title>
<g id="a_node5"><a xlink:href="a00413.html" target="_top" xlink:title="std::__detail::_Hashtable\l_ebo_helper\&lt; 1, _H1 \&gt;">
<polygon fill="white" stroke="black" points="12.5,-148.5 12.5,-176.5 130.5,-176.5 130.5,-148.5 12.5,-148.5"/>
<text text-anchor="start" x="20.5" y="-165.3" font-family="Helvetica,sans-Serif" font-size="9.00">std::__detail::_Hashtable</text>
<text text-anchor="middle" x="71.5" y="-155.3" font-family="Helvetica,sans-Serif" font-size="9.00">_ebo_helper&lt; 1, _H1 &gt;</text>
</a>
</g>
</g>
<!-- Node5&#45;&gt;Node2 -->
<g id="edge4" class="edge"><title>Node5&#45;&gt;Node2</title>
<path fill="none" stroke="#8b1a1a" d="M127.13,-145.212C132.515,-143.348 137.879,-141.427 143,-139.5 160.67,-132.852 179.689,-124.964 196.744,-117.613"/>
<polygon fill="#8b1a1a" stroke="#8b1a1a" points="125.806,-141.965 117.463,-148.494 128.057,-148.593 125.806,-141.965"/>
</g>
<!-- Node5&#45;&gt;Node3 -->
<g id="edge5" class="edge"><title>Node5&#45;&gt;Node3</title>
<path fill="none" stroke="#8b1a1a" d="M141.1,-161.729C154.158,-161.582 167.836,-161.429 180.924,-161.282"/>
<polygon fill="#8b1a1a" stroke="#8b1a1a" points="140.744,-158.233 130.784,-161.845 140.823,-165.232 140.744,-158.233"/>
</g>
<!-- Node6 -->
<g id="node6" class="node"><title>Node6</title>
<g id="a_node6"><a xlink:href="a00413.html" target="_top" xlink:title="std::__detail::_Hashtable\l_ebo_helper\&lt; 1, _Hash \&gt;">
<polygon fill="white" stroke="black" points="11,-7.5 11,-35.5 132,-35.5 132,-7.5 11,-7.5"/>
<text text-anchor="start" x="19" y="-24.3" font-family="Helvetica,sans-Serif" font-size="9.00">std::__detail::_Hashtable</text>
<text text-anchor="middle" x="71.5" y="-14.3" font-family="Helvetica,sans-Serif" font-size="9.00">_ebo_helper&lt; 1, _Hash &gt;</text>
</a>
</g>
</g>
<!-- Node6&#45;&gt;Node4 -->
<g id="edge6" class="edge"><title>Node6&#45;&gt;Node4</title>
<path fill="none" stroke="#8b1a1a" d="M142.431,-22.6786C156.583,-22.9171 171.41,-23.167 185.389,-23.4026"/>
<polygon fill="#8b1a1a" stroke="#8b1a1a" points="142.324,-19.1764 132.267,-22.5073 142.206,-26.1754 142.324,-19.1764"/>
</g>
<!-- Node7 -->
<g id="node7" class="node"><title>Node7</title>
<g id="a_node7"><a xlink:href="a00413.html" target="_top" xlink:title="std::__detail::_Hashtable\l_ebo_helper\&lt; 2, _H2 \&gt;">
<polygon fill="white" stroke="black" points="12.5,-101.5 12.5,-129.5 130.5,-129.5 130.5,-101.5 12.5,-101.5"/>
<text text-anchor="start" x="20.5" y="-118.3" font-family="Helvetica,sans-Serif" font-size="9.00">std::__detail::_Hashtable</text>
<text text-anchor="middle" x="71.5" y="-108.3" font-family="Helvetica,sans-Serif" font-size="9.00">_ebo_helper&lt; 2, _H2 &gt;</text>
</a>
</g>
</g>
<!-- Node7&#45;&gt;Node2 -->
<g id="edge7" class="edge"><title>Node7&#45;&gt;Node2</title>
<path fill="none" stroke="#8b1a1a" d="M141.007,-107.033C153.36,-105.506 166.27,-103.91 178.714,-102.372"/>
<polygon fill="#8b1a1a" stroke="#8b1a1a" points="140.279,-103.596 130.784,-108.296 141.138,-110.543 140.279,-103.596"/>
</g>
<!-- Node7&#45;&gt;Node3 -->
<g id="edge8" class="edge"><title>Node7&#45;&gt;Node3</title>
<path fill="none" stroke="#8b1a1a" d="M138.255,-132.123C152.107,-135.625 166.766,-139.331 180.759,-142.869"/>
<polygon fill="#8b1a1a" stroke="#8b1a1a" points="138.885,-128.673 128.332,-129.615 137.169,-135.459 138.885,-128.673"/>
</g>
</g>
</svg>
