<?xml version="1.0" encoding="UTF-8" standalone="no"?>
<!DOCTYPE svg PUBLIC "-//W3C//DTD SVG 1.1//EN"
 "http://www.w3.org/Graphics/SVG/1.1/DTD/svg11.dtd">
<!-- Generated by graphviz version 2.38.0 (20140413.2041)
 -->
<!-- Title: Graphical Class Hierarchy Pages: 1 -->
<svg width="288pt" height="161pt"
 viewBox="0.00 0.00 288.00 161.00" xmlns="http://www.w3.org/2000/svg" xmlns:xlink="http://www.w3.org/1999/xlink">
<g id="graph0" class="graph" transform="scale(1 1) rotate(0) translate(4 157)">
<title>Graphical Class Hierarchy</title>
<polygon fill="white" stroke="none" points="-4,4 -4,-157 284,-157 284,4 -4,4"/>
<!-- Node1 -->
<g id="node1" class="node"><title>Node1</title>
<g id="a_node1"><a xlink:href="a00279.html" target="_top" xlink:title="Node base. ">
<polygon fill="white" stroke="black" points="0,-57.5 0,-95.5 134,-95.5 134,-57.5 0,-57.5"/>
<text text-anchor="start" x="8" y="-84.3" font-family="Helvetica,sans-Serif" font-size="9.00">__gnu_pbds::detail</text>
<text text-anchor="start" x="8" y="-74.3" font-family="Helvetica,sans-Serif" font-size="9.00">::pat_trie_base::_Node</text>
<text text-anchor="middle" x="67" y="-64.3" font-family="Helvetica,sans-Serif" font-size="9.00">_base&lt; _ATraits, Metadata &gt;</text>
</a>
</g>
</g>
<!-- Node2 -->
<g id="node2" class="node"><title>Node2</title>
<g id="a_node2"><a xlink:href="a00271.html" target="_top" xlink:title="Head node for PATRICIA tree. ">
<polygon fill="white" stroke="black" points="170,-114.5 170,-152.5 280,-152.5 280,-114.5 170,-114.5"/>
<text text-anchor="start" x="178" y="-141.3" font-family="Helvetica,sans-Serif" font-size="9.00">__gnu_pbds::detail</text>
<text text-anchor="start" x="178" y="-131.3" font-family="Helvetica,sans-Serif" font-size="9.00">::pat_trie_base::_Head</text>
<text text-anchor="middle" x="225" y="-121.3" font-family="Helvetica,sans-Serif" font-size="9.00">&lt; _ATraits, Metadata &gt;</text>
</a>
</g>
</g>
<!-- Node1&#45;&gt;Node2 -->
<g id="edge1" class="edge"><title>Node1&#45;&gt;Node2</title>
<path fill="none" stroke="midnightblue" d="M129.85,-99.0991C143.727,-104.17 158.318,-109.501 171.759,-114.412"/>
<polygon fill="midnightblue" stroke="midnightblue" points="130.974,-95.7833 120.38,-95.6387 128.571,-102.358 130.974,-95.7833"/>
</g>
<!-- Node3 -->
<g id="node3" class="node"><title>Node3</title>
<g id="a_node3"><a xlink:href="a00272.html" target="_top" xlink:title="Internal node type, PATRICIA tree. ">
<polygon fill="white" stroke="black" points="170,-57.5 170,-95.5 280,-95.5 280,-57.5 170,-57.5"/>
<text text-anchor="start" x="178" y="-84.3" font-family="Helvetica,sans-Serif" font-size="9.00">__gnu_pbds::detail</text>
<text text-anchor="start" x="178" y="-74.3" font-family="Helvetica,sans-Serif" font-size="9.00">::pat_trie_base::_Inode</text>
<text text-anchor="middle" x="225" y="-64.3" font-family="Helvetica,sans-Serif" font-size="9.00">&lt; _ATraits, Metadata &gt;</text>
</a>
</g>
</g>
<!-- Node1&#45;&gt;Node3 -->
<g id="edge2" class="edge"><title>Node1&#45;&gt;Node3</title>
<path fill="none" stroke="midnightblue" d="M144.171,-76.5C152.732,-76.5 161.324,-76.5 169.531,-76.5"/>
<polygon fill="midnightblue" stroke="midnightblue" points="144.158,-73.0001 134.158,-76.5 144.158,-80.0001 144.158,-73.0001"/>
</g>
<!-- Node4 -->
<g id="node4" class="node"><title>Node4</title>
<g id="a_node4"><a xlink:href="a00276.html" target="_top" xlink:title="Leaf node for PATRICIA tree. ">
<polygon fill="white" stroke="black" points="171,-0.5 171,-38.5 279,-38.5 279,-0.5 171,-0.5"/>
<text text-anchor="start" x="179" y="-27.3" font-family="Helvetica,sans-Serif" font-size="9.00">__gnu_pbds::detail</text>
<text text-anchor="start" x="179" y="-17.3" font-family="Helvetica,sans-Serif" font-size="9.00">::pat_trie_base::_Leaf</text>
<text text-anchor="middle" x="225" y="-7.3" font-family="Helvetica,sans-Serif" font-size="9.00">&lt; _ATraits, Metadata &gt;</text>
</a>
</g>
</g>
<!-- Node1&#45;&gt;Node4 -->
<g id="edge3" class="edge"><title>Node1&#45;&gt;Node4</title>
<path fill="none" stroke="midnightblue" d="M129.85,-53.9009C143.727,-48.8304 158.318,-43.4993 171.759,-38.5882"/>
<polygon fill="midnightblue" stroke="midnightblue" points="128.571,-50.6418 120.38,-57.3613 130.974,-57.2167 128.571,-50.6418"/>
</g>
</g>
</svg>
