<?xml version="1.0" encoding="UTF-8" standalone="no"?>
<!DOCTYPE svg PUBLIC "-//W3C//DTD SVG 1.1//EN"
 "http://www.w3.org/Graphics/SVG/1.1/DTD/svg11.dtd">
<!-- Generated by graphviz version 2.38.0 (20140413.2041)
 -->
<!-- Title: Graphical Class Hierarchy Pages: 1 -->
<svg width="290pt" height="178pt"
 viewBox="0.00 0.00 290.00 178.00" xmlns="http://www.w3.org/2000/svg" xmlns:xlink="http://www.w3.org/1999/xlink">
<g id="graph0" class="graph" transform="scale(1 1) rotate(0) translate(4 174)">
<title>Graphical Class Hierarchy</title>
<polygon fill="white" stroke="none" points="-4,4 -4,-174 286,-174 286,4 -4,4"/>
<!-- Node1 -->
<g id="node1" class="node"><title>Node1</title>
<g id="a_node1"><a xlink:href="a00423.html" target="_top" xlink:title="std::binary_function\l\&lt; _T1, _T2, bool \&gt;">
<polygon fill="white" stroke="black" points="0,-70.5 0,-98.5 96,-98.5 96,-70.5 0,-70.5"/>
<text text-anchor="start" x="8" y="-87.3" font-family="Helvetica,sans-Serif" font-size="9.00">std::binary_function</text>
<text text-anchor="middle" x="48" y="-77.3" font-family="Helvetica,sans-Serif" font-size="9.00">&lt; _T1, _T2, bool &gt;</text>
</a>
</g>
</g>
<!-- Node2 -->
<g id="node2" class="node"><title>Node2</title>
<g id="a_node2"><a xlink:href="a00110.html" target="_top" xlink:title="Constructs predicate for equality from strict weak ordering predicate. ">
<polygon fill="white" stroke="black" points="139.5,-141.5 139.5,-169.5 274.5,-169.5 274.5,-141.5 139.5,-141.5"/>
<text text-anchor="start" x="147.5" y="-158.3" font-family="Helvetica,sans-Serif" font-size="9.00">__gnu_parallel::_EqualFrom</text>
<text text-anchor="middle" x="207" y="-148.3" font-family="Helvetica,sans-Serif" font-size="9.00">Less&lt; _T1, _T2, _Compare &gt;</text>
</a>
</g>
</g>
<!-- Node1&#45;&gt;Node2 -->
<g id="edge1" class="edge"><title>Node1&#45;&gt;Node2</title>
<path fill="none" stroke="midnightblue" d="M78.7494,-103.873C94.2011,-113.369 113.646,-124.461 132,-132.5 139.394,-135.739 147.387,-138.722 155.292,-141.393"/>
<polygon fill="midnightblue" stroke="midnightblue" points="80.487,-100.832 70.1516,-98.5012 76.7779,-106.768 80.487,-100.832"/>
</g>
<!-- Node3 -->
<g id="node3" class="node"><title>Node3</title>
<g id="a_node3"><a xlink:href="a00111.html" target="_top" xlink:title="Similar to std::equal_to, but allows two different types. ">
<polygon fill="white" stroke="black" points="145.5,-94.5 145.5,-122.5 268.5,-122.5 268.5,-94.5 145.5,-94.5"/>
<text text-anchor="start" x="153.5" y="-111.3" font-family="Helvetica,sans-Serif" font-size="9.00">__gnu_parallel::_EqualTo</text>
<text text-anchor="middle" x="207" y="-101.3" font-family="Helvetica,sans-Serif" font-size="9.00">&lt; _T1, _T2 &gt;</text>
</a>
</g>
</g>
<!-- Node1&#45;&gt;Node3 -->
<g id="edge2" class="edge"><title>Node1&#45;&gt;Node3</title>
<path fill="none" stroke="midnightblue" d="M106.11,-93.2302C118.837,-95.1758 132.377,-97.2455 145.245,-99.2127"/>
<polygon fill="midnightblue" stroke="midnightblue" points="106.519,-89.7522 96.1052,-91.7008 105.461,-96.6718 106.519,-89.7522"/>
</g>
<!-- Node4 -->
<g id="node4" class="node"><title>Node4</title>
<g id="a_node4"><a xlink:href="a00116.html" target="_top" xlink:title="Similar to std::less, but allows two different types. ">
<polygon fill="white" stroke="black" points="153,-47.5 153,-75.5 261,-75.5 261,-47.5 153,-47.5"/>
<text text-anchor="start" x="161" y="-64.3" font-family="Helvetica,sans-Serif" font-size="9.00">__gnu_parallel::_Less</text>
<text text-anchor="middle" x="207" y="-54.3" font-family="Helvetica,sans-Serif" font-size="9.00">&lt; _T1, _T2 &gt;</text>
</a>
</g>
</g>
<!-- Node1&#45;&gt;Node4 -->
<g id="edge3" class="edge"><title>Node1&#45;&gt;Node4</title>
<path fill="none" stroke="midnightblue" d="M106.409,-76.0898C121.598,-73.8646 137.926,-71.4726 152.878,-69.2822"/>
<polygon fill="midnightblue" stroke="midnightblue" points="105.492,-72.6866 96.1052,-77.5992 106.507,-79.6127 105.492,-72.6866"/>
</g>
<!-- Node5 -->
<g id="node5" class="node"><title>Node5</title>
<g id="a_node5"><a xlink:href="a00118.html" target="_top" xlink:title="Compare __a pair of types lexicographically, descending. ">
<polygon fill="white" stroke="black" points="132,-0.5 132,-28.5 282,-28.5 282,-0.5 132,-0.5"/>
<text text-anchor="start" x="140" y="-17.3" font-family="Helvetica,sans-Serif" font-size="9.00">__gnu_parallel::_Lexicographic</text>
<text text-anchor="middle" x="207" y="-7.3" font-family="Helvetica,sans-Serif" font-size="9.00">Reverse&lt; _T1, _T2, _Compare &gt;</text>
</a>
</g>
</g>
<!-- Node1&#45;&gt;Node5 -->
<g id="edge4" class="edge"><title>Node1&#45;&gt;Node5</title>
<path fill="none" stroke="midnightblue" d="M80.617,-65.0932C95.8071,-56.2628 114.481,-46.1109 132,-38.5 140.3,-34.8942 149.324,-31.5319 158.124,-28.5327"/>
<polygon fill="midnightblue" stroke="midnightblue" points="78.483,-62.2885 71.6507,-70.386 82.0415,-68.3166 78.483,-62.2885"/>
</g>
</g>
</svg>
