<?xml version="1.0" encoding="UTF-8" standalone="no"?>
<!DOCTYPE svg PUBLIC "-//W3C//DTD SVG 1.1//EN"
 "http://www.w3.org/Graphics/SVG/1.1/DTD/svg11.dtd">
<!-- Generated by graphviz version 2.38.0 (20140413.2041)
 -->
<!-- Title: Graphical Class Hierarchy Pages: 1 -->
<svg width="275pt" height="124pt"
 viewBox="0.00 0.00 275.00 124.00" xmlns="http://www.w3.org/2000/svg" xmlns:xlink="http://www.w3.org/1999/xlink">
<g id="graph0" class="graph" transform="scale(1 1) rotate(0) translate(4 120)">
<title>Graphical Class Hierarchy</title>
<polygon fill="white" stroke="none" points="-4,4 -4,-120 271,-120 271,4 -4,4"/>
<!-- Node1 -->
<g id="node1" class="node"><title>Node1</title>
<g id="a_node1"><a xlink:href="a00418.html" target="_top" xlink:title="std::__detail::_Node\l_iterator_base\&lt; _Value,\l __cache \&gt;">
<polygon fill="white" stroke="black" points="0,-38.5 0,-76.5 115,-76.5 115,-38.5 0,-38.5"/>
<text text-anchor="start" x="8" y="-65.3" font-family="Helvetica,sans-Serif" font-size="9.00">std::__detail::_Node</text>
<text text-anchor="start" x="8" y="-55.3" font-family="Helvetica,sans-Serif" font-size="9.00">_iterator_base&lt; _Value,</text>
<text text-anchor="middle" x="57.5" y="-45.3" font-family="Helvetica,sans-Serif" font-size="9.00"> __cache &gt;</text>
</a>
</g>
</g>
<!-- Node2 -->
<g id="node2" class="node"><title>Node2</title>
<g id="a_node2"><a xlink:href="a00479.html" target="_top" xlink:title="Node const_iterators, used to iterate through all the hashtable. ">
<polygon fill="white" stroke="black" points="151,-67.5 151,-115.5 267,-115.5 267,-67.5 151,-67.5"/>
<text text-anchor="start" x="159" y="-104.3" font-family="Helvetica,sans-Serif" font-size="9.00">std::__detail::_Node</text>
<text text-anchor="start" x="159" y="-94.3" font-family="Helvetica,sans-Serif" font-size="9.00">_const_iterator&lt; _Value,</text>
<text text-anchor="start" x="159" y="-84.3" font-family="Helvetica,sans-Serif" font-size="9.00"> __constant_iterators,</text>
<text text-anchor="middle" x="209" y="-74.3" font-family="Helvetica,sans-Serif" font-size="9.00"> __cache &gt;</text>
</a>
</g>
</g>
<!-- Node1&#45;&gt;Node2 -->
<g id="edge1" class="edge"><title>Node1&#45;&gt;Node2</title>
<path fill="none" stroke="midnightblue" d="M125.05,-72.6352C133.676,-74.597 142.45,-76.5923 150.904,-78.5149"/>
<polygon fill="midnightblue" stroke="midnightblue" points="125.547,-69.1588 115.02,-70.3539 123.994,-75.9845 125.547,-69.1588"/>
</g>
<!-- Node3 -->
<g id="node3" class="node"><title>Node3</title>
<g id="a_node3"><a xlink:href="a00480.html" target="_top" xlink:title="Node iterators, used to iterate through all the hashtable. ">
<polygon fill="white" stroke="black" points="159.5,-0.5 159.5,-48.5 258.5,-48.5 258.5,-0.5 159.5,-0.5"/>
<text text-anchor="start" x="167.5" y="-37.3" font-family="Helvetica,sans-Serif" font-size="9.00">std::__detail::_Node</text>
<text text-anchor="start" x="167.5" y="-27.3" font-family="Helvetica,sans-Serif" font-size="9.00">_iterator&lt; _Value, _</text>
<text text-anchor="start" x="167.5" y="-17.3" font-family="Helvetica,sans-Serif" font-size="9.00">_constant_iterators, </text>
<text text-anchor="middle" x="209" y="-7.3" font-family="Helvetica,sans-Serif" font-size="9.00">__cache &gt;</text>
</a>
</g>
</g>
<!-- Node1&#45;&gt;Node3 -->
<g id="edge2" class="edge"><title>Node1&#45;&gt;Node3</title>
<path fill="none" stroke="midnightblue" d="M125.034,-42.8135C136.539,-40.274 148.307,-37.6764 159.229,-35.2655"/>
<polygon fill="midnightblue" stroke="midnightblue" points="124.03,-39.4508 115.02,-45.0241 125.539,-46.2863 124.03,-39.4508"/>
</g>
</g>
</svg>
