<?xml version="1.0" encoding="UTF-8" standalone="no"?>
<!DOCTYPE svg PUBLIC "-//W3C//DTD SVG 1.1//EN"
 "http://www.w3.org/Graphics/SVG/1.1/DTD/svg11.dtd">
<!-- Generated by graphviz version 2.38.0 (20140413.2041)
 -->
<!-- Title: Graphical Class Hierarchy Pages: 1 -->
<svg width="359pt" height="57pt"
 viewBox="0.00 0.00 359.00 57.00" xmlns="http://www.w3.org/2000/svg" xmlns:xlink="http://www.w3.org/1999/xlink">
<g id="graph0" class="graph" transform="scale(1 1) rotate(0) translate(4 53)">
<title>Graphical Class Hierarchy</title>
<polygon fill="white" stroke="none" points="-4,4 -4,-53 355,-53 355,4 -4,4"/>
<!-- Node1 -->
<g id="node1" class="node"><title>Node1</title>
<g id="a_node1"><a xlink:href="a00419.html" target="_top" xlink:title="std::_Vector_base\&lt;\l std::pair\&lt; _StrTransT,\l _StrTransT \&gt;, std::allocator\l\&lt; std::pair\&lt; _StrTransT, _StrTransT \&gt; \&gt; \&gt;">
<polygon fill="white" stroke="black" points="0,-0.5 0,-48.5 181,-48.5 181,-0.5 0,-0.5"/>
<text text-anchor="start" x="8" y="-37.3" font-family="Helvetica,sans-Serif" font-size="9.00">std::_Vector_base&lt;</text>
<text text-anchor="start" x="8" y="-27.3" font-family="Helvetica,sans-Serif" font-size="9.00"> std::pair&lt; _StrTransT,</text>
<text text-anchor="start" x="8" y="-17.3" font-family="Helvetica,sans-Serif" font-size="9.00"> _StrTransT &gt;, std::allocator</text>
<text text-anchor="middle" x="90.5" y="-7.3" font-family="Helvetica,sans-Serif" font-size="9.00">&lt; std::pair&lt; _StrTransT, _StrTransT &gt; &gt; &gt;</text>
</a>
</g>
</g>
<!-- Node2 -->
<g id="node2" class="node"><title>Node2</title>
<g id="a_node2"><a xlink:href="a00716.html" target="_top" xlink:title="std::vector\&lt; std::pair\l\&lt; _StrTransT, _StrTransT \&gt; \&gt;">
<polygon fill="white" stroke="black" points="217,-10.5 217,-38.5 351,-38.5 351,-10.5 217,-10.5"/>
<text text-anchor="start" x="225" y="-27.3" font-family="Helvetica,sans-Serif" font-size="9.00">std::vector&lt; std::pair</text>
<text text-anchor="middle" x="284" y="-17.3" font-family="Helvetica,sans-Serif" font-size="9.00">&lt; _StrTransT, _StrTransT &gt; &gt;</text>
</a>
</g>
</g>
<!-- Node1&#45;&gt;Node2 -->
<g id="edge1" class="edge"><title>Node1&#45;&gt;Node2</title>
<path fill="none" stroke="darkgreen" d="M191.281,-24.5C199.966,-24.5 208.607,-24.5 216.916,-24.5"/>
<polygon fill="darkgreen" stroke="darkgreen" points="191.082,-21.0001 181.082,-24.5 191.082,-28.0001 191.082,-21.0001"/>
</g>
</g>
</svg>
