<?xml version="1.0" encoding="UTF-8" standalone="no"?>
<!DOCTYPE svg PUBLIC "-//W3C//DTD SVG 1.1//EN"
 "http://www.w3.org/Graphics/SVG/1.1/DTD/svg11.dtd">
<!-- Generated by graphviz version 2.38.0 (20140413.2041)
 -->
<!-- Title: Graphical Class Hierarchy Pages: 1 -->
<svg width="314pt" height="57pt"
 viewBox="0.00 0.00 314.00 57.00" xmlns="http://www.w3.org/2000/svg" xmlns:xlink="http://www.w3.org/1999/xlink">
<g id="graph0" class="graph" transform="scale(1 1) rotate(0) translate(4 53)">
<title>Graphical Class Hierarchy</title>
<polygon fill="white" stroke="none" points="-4,4 -4,-53 310,-53 310,4 -4,4"/>
<!-- Node1 -->
<g id="node1" class="node"><title>Node1</title>
<g id="a_node1"><a xlink:href="a00703.html" target="_top" xlink:title="std::unary_function\l\&lt; _Operation::first\l_argument_type, _Operation\l::result_type \&gt;">
<polygon fill="white" stroke="black" points="0,-0.5 0,-48.5 134,-48.5 134,-0.5 0,-0.5"/>
<text text-anchor="start" x="8" y="-37.3" font-family="Helvetica,sans-Serif" font-size="9.00">std::unary_function</text>
<text text-anchor="start" x="8" y="-27.3" font-family="Helvetica,sans-Serif" font-size="9.00">&lt; _Operation::first</text>
<text text-anchor="start" x="8" y="-17.3" font-family="Helvetica,sans-Serif" font-size="9.00">_argument_type, _Operation</text>
<text text-anchor="middle" x="67" y="-7.3" font-family="Helvetica,sans-Serif" font-size="9.00">::result_type &gt;</text>
</a>
</g>
</g>
<!-- Node2 -->
<g id="node2" class="node"><title>Node2</title>
<g id="a_node2"><a xlink:href="a00520.html" target="_top" xlink:title="One of the binder functors. ">
<polygon fill="white" stroke="black" points="170,-15.5 170,-33.5 306,-33.5 306,-15.5 170,-15.5"/>
<text text-anchor="middle" x="238" y="-22.3" font-family="Helvetica,sans-Serif" font-size="9.00">std::binder2nd&lt; _Operation &gt;</text>
</a>
</g>
</g>
<!-- Node1&#45;&gt;Node2 -->
<g id="edge1" class="edge"><title>Node1&#45;&gt;Node2</title>
<path fill="none" stroke="midnightblue" d="M144.511,-24.5C152.938,-24.5 161.471,-24.5 169.772,-24.5"/>
<polygon fill="midnightblue" stroke="midnightblue" points="144.308,-21.0001 134.308,-24.5 144.308,-28.0001 144.308,-21.0001"/>
</g>
</g>
</svg>
