<?xml version="1.0" encoding="UTF-8" standalone="no"?>
<!DOCTYPE svg PUBLIC "-//W3C//DTD SVG 1.1//EN"
 "http://www.w3.org/Graphics/SVG/1.1/DTD/svg11.dtd">
<!-- Generated by graphviz version 2.38.0 (20140413.2041)
 -->
<!-- Title: Graphical Class Hierarchy Pages: 1 -->
<svg width="386pt" height="47pt"
 viewBox="0.00 0.00 386.00 47.00" xmlns="http://www.w3.org/2000/svg" xmlns:xlink="http://www.w3.org/1999/xlink">
<g id="graph0" class="graph" transform="scale(1 1) rotate(0) translate(4 43)">
<title>Graphical Class Hierarchy</title>
<polygon fill="white" stroke="none" points="-4,4 -4,-43 382,-43 382,4 -4,4"/>
<!-- Node1 -->
<g id="node1" class="node"><title>Node1</title>
<g id="a_node1"><a xlink:href="a00419.html" target="_top" xlink:title="std::_Vector_base\&lt;\l sub_match\&lt; _Bi_iter\l \&gt;, _Alloc \&gt;">
<polygon fill="white" stroke="black" points="0,-0.5 0,-38.5 103,-38.5 103,-0.5 0,-0.5"/>
<text text-anchor="start" x="8" y="-27.3" font-family="Helvetica,sans-Serif" font-size="9.00">std::_Vector_base&lt;</text>
<text text-anchor="start" x="8" y="-17.3" font-family="Helvetica,sans-Serif" font-size="9.00"> sub_match&lt; _Bi_iter</text>
<text text-anchor="middle" x="51.5" y="-7.3" font-family="Helvetica,sans-Serif" font-size="9.00"> &gt;, _Alloc &gt;</text>
</a>
</g>
</g>
<!-- Node2 -->
<g id="node2" class="node"><title>Node2</title>
<g id="a_node2"><a xlink:href="a00716.html" target="_top" xlink:title="std::vector\&lt; sub_match\l\&lt; _Bi_iter \&gt;, _Alloc \&gt;">
<polygon fill="white" stroke="black" points="139,-5.5 139,-33.5 249,-33.5 249,-5.5 139,-5.5"/>
<text text-anchor="start" x="147" y="-22.3" font-family="Helvetica,sans-Serif" font-size="9.00">std::vector&lt; sub_match</text>
<text text-anchor="middle" x="194" y="-12.3" font-family="Helvetica,sans-Serif" font-size="9.00">&lt; _Bi_iter &gt;, _Alloc &gt;</text>
</a>
</g>
</g>
<!-- Node1&#45;&gt;Node2 -->
<g id="edge1" class="edge"><title>Node1&#45;&gt;Node2</title>
<path fill="none" stroke="darkgreen" d="M113.332,-19.5C121.72,-19.5 130.29,-19.5 138.553,-19.5"/>
<polygon fill="darkgreen" stroke="darkgreen" points="113.224,-16.0001 103.224,-19.5 113.224,-23.0001 113.224,-16.0001"/>
</g>
<!-- Node3 -->
<g id="node3" class="node"><title>Node3</title>
<g id="a_node3"><a xlink:href="a00430.html" target="_top" xlink:title="The results of a match or search operation. ">
<polygon fill="white" stroke="black" points="285,-5.5 285,-33.5 378,-33.5 378,-5.5 285,-5.5"/>
<text text-anchor="start" x="293" y="-22.3" font-family="Helvetica,sans-Serif" font-size="9.00">std::match_results</text>
<text text-anchor="middle" x="331.5" y="-12.3" font-family="Helvetica,sans-Serif" font-size="9.00">&lt; _Bi_iter, _Alloc &gt;</text>
</a>
</g>
</g>
<!-- Node2&#45;&gt;Node3 -->
<g id="edge2" class="edge"><title>Node2&#45;&gt;Node3</title>
<path fill="none" stroke="#8b1a1a" d="M259.372,-19.5C267.982,-19.5 276.665,-19.5 284.862,-19.5"/>
<polygon fill="#8b1a1a" stroke="#8b1a1a" points="259.332,-16.0001 249.332,-19.5 259.332,-23.0001 259.332,-16.0001"/>
</g>
</g>
</svg>
