<?xml version="1.0" encoding="UTF-8" standalone="no"?>
<!DOCTYPE svg PUBLIC "-//W3C//DTD SVG 1.1//EN"
 "http://www.w3.org/Graphics/SVG/1.1/DTD/svg11.dtd">
<!-- Generated by graphviz version 2.38.0 (20140413.2041)
 -->
<!-- Title: Graphical Class Hierarchy Pages: 1 -->
<svg width="266pt" height="47pt"
 viewBox="0.00 0.00 266.00 47.00" xmlns="http://www.w3.org/2000/svg" xmlns:xlink="http://www.w3.org/1999/xlink">
<g id="graph0" class="graph" transform="scale(1 1) rotate(0) translate(4 43)">
<title>Graphical Class Hierarchy</title>
<polygon fill="white" stroke="none" points="-4,4 -4,-43 262,-43 262,4 -4,4"/>
<!-- Node1 -->
<g id="node1" class="node"><title>Node1</title>
<g id="a_node1"><a xlink:href="a00182.html" target="_top" xlink:title="__gnu_pbds::container\l_traits_base\&lt; Cntnr::\lcontainer_category \&gt;">
<polygon fill="white" stroke="black" points="0,-0.5 0,-38.5 111,-38.5 111,-0.5 0,-0.5"/>
<text text-anchor="start" x="8" y="-27.3" font-family="Helvetica,sans-Serif" font-size="9.00">__gnu_pbds::container</text>
<text text-anchor="start" x="8" y="-17.3" font-family="Helvetica,sans-Serif" font-size="9.00">_traits_base&lt; Cntnr::</text>
<text text-anchor="middle" x="55.5" y="-7.3" font-family="Helvetica,sans-Serif" font-size="9.00">container_category &gt;</text>
</a>
</g>
</g>
<!-- Node2 -->
<g id="node2" class="node"><title>Node2</title>
<g id="a_node2"><a xlink:href="a00181.html" target="_top" xlink:title="Container traits. ">
<polygon fill="white" stroke="black" points="147,-5.5 147,-33.5 258,-33.5 258,-5.5 147,-5.5"/>
<text text-anchor="start" x="155" y="-22.3" font-family="Helvetica,sans-Serif" font-size="9.00">__gnu_pbds::container</text>
<text text-anchor="middle" x="202.5" y="-12.3" font-family="Helvetica,sans-Serif" font-size="9.00">_traits&lt; Cntnr &gt;</text>
</a>
</g>
</g>
<!-- Node1&#45;&gt;Node2 -->
<g id="edge1" class="edge"><title>Node1&#45;&gt;Node2</title>
<path fill="none" stroke="midnightblue" d="M121.462,-19.5C129.859,-19.5 138.392,-19.5 146.604,-19.5"/>
<polygon fill="midnightblue" stroke="midnightblue" points="121.318,-16.0001 111.318,-19.5 121.318,-23.0001 121.318,-16.0001"/>
</g>
</g>
</svg>
