<?xml version="1.0" encoding="UTF-8" standalone="no"?>
<!DOCTYPE svg PUBLIC "-//W3C//DTD SVG 1.1//EN"
 "http://www.w3.org/Graphics/SVG/1.1/DTD/svg11.dtd">
<!-- Generated by graphviz version 2.38.0 (20140413.2041)
 -->
<!-- Title: Graphical Class Hierarchy Pages: 1 -->
<svg width="286pt" height="84pt"
 viewBox="0.00 0.00 286.00 84.00" xmlns="http://www.w3.org/2000/svg" xmlns:xlink="http://www.w3.org/1999/xlink">
<g id="graph0" class="graph" transform="scale(1 1) rotate(0) translate(4 80)">
<title>Graphical Class Hierarchy</title>
<polygon fill="white" stroke="none" points="-4,4 -4,-80 282,-80 282,4 -4,4"/>
<!-- Node1 -->
<g id="node1" class="node"><title>Node1</title>
<g id="a_node1"><a xlink:href="a00423.html" target="_top" xlink:title="std::binary_function\l\&lt; _Tp1, _Tp2, _Result \&gt;">
<polygon fill="white" stroke="black" points="0,-23.5 0,-51.5 114,-51.5 114,-23.5 0,-23.5"/>
<text text-anchor="start" x="8" y="-40.3" font-family="Helvetica,sans-Serif" font-size="9.00">std::binary_function</text>
<text text-anchor="middle" x="57" y="-30.3" font-family="Helvetica,sans-Serif" font-size="9.00">&lt; _Tp1, _Tp2, _Result &gt;</text>
</a>
</g>
</g>
<!-- Node2 -->
<g id="node2" class="node"><title>Node2</title>
<g id="a_node2"><a xlink:href="a00134.html" target="_top" xlink:title="Similar to std::multiplies, but allows two different types. ">
<polygon fill="white" stroke="black" points="150,-47.5 150,-75.5 278,-75.5 278,-47.5 150,-47.5"/>
<text text-anchor="start" x="158" y="-64.3" font-family="Helvetica,sans-Serif" font-size="9.00">__gnu_parallel::_Multiplies</text>
<text text-anchor="middle" x="214" y="-54.3" font-family="Helvetica,sans-Serif" font-size="9.00">&lt; _Tp1, _Tp2, _Result &gt;</text>
</a>
</g>
</g>
<!-- Node1&#45;&gt;Node2 -->
<g id="edge1" class="edge"><title>Node1&#45;&gt;Node2</title>
<path fill="none" stroke="midnightblue" d="M124.522,-47.8001C132.916,-49.0999 141.485,-50.4268 149.825,-51.7181"/>
<polygon fill="midnightblue" stroke="midnightblue" points="124.815,-44.3039 114.397,-46.2324 123.744,-51.2215 124.815,-44.3039"/>
</g>
<!-- Node3 -->
<g id="node3" class="node"><title>Node3</title>
<g id="a_node3"><a xlink:href="a00137.html" target="_top" xlink:title="Similar to std::plus, but allows two different types. ">
<polygon fill="white" stroke="black" points="157,-0.5 157,-28.5 271,-28.5 271,-0.5 157,-0.5"/>
<text text-anchor="start" x="165" y="-17.3" font-family="Helvetica,sans-Serif" font-size="9.00">__gnu_parallel::_Plus</text>
<text text-anchor="middle" x="214" y="-7.3" font-family="Helvetica,sans-Serif" font-size="9.00">&lt; _Tp1, _Tp2, _Result &gt;</text>
</a>
</g>
</g>
<!-- Node1&#45;&gt;Node3 -->
<g id="edge2" class="edge"><title>Node1&#45;&gt;Node3</title>
<path fill="none" stroke="midnightblue" d="M124.603,-27.617C135.368,-26.0195 146.42,-24.3796 156.904,-22.8238"/>
<polygon fill="midnightblue" stroke="midnightblue" points="123.775,-24.2014 114.397,-29.1314 124.802,-31.1256 123.775,-24.2014"/>
</g>
</g>
</svg>
