<?xml version="1.0" encoding="UTF-8" standalone="no"?>
<!DOCTYPE svg PUBLIC "-//W3C//DTD SVG 1.1//EN"
 "http://www.w3.org/Graphics/SVG/1.1/DTD/svg11.dtd">
<!-- Generated by graphviz version 2.38.0 (20140413.2041)
 -->
<!-- Title: Graphical Class Hierarchy Pages: 1 -->
<svg width="593pt" height="896pt"
 viewBox="0.00 0.00 593.00 896.00" xmlns="http://www.w3.org/2000/svg" xmlns:xlink="http://www.w3.org/1999/xlink">
<g id="graph0" class="graph" transform="scale(1 1) rotate(0) translate(4 892)">
<title>Graphical Class Hierarchy</title>
<polygon fill="white" stroke="none" points="-4,4 -4,-892 589,-892 589,4 -4,4"/>
<!-- Node1 -->
<g id="node1" class="node"><title>Node1</title>
<g id="a_node1"><a xlink:href="a00537.html" target="_top" xlink:title="Empty base class for codecvt facet [22.2.1.5]. ">
<polygon fill="white" stroke="black" points="5.5,-716.5 5.5,-734.5 95.5,-734.5 95.5,-716.5 5.5,-716.5"/>
<text text-anchor="middle" x="50.5" y="-723.3" font-family="Helvetica,sans-Serif" font-size="9.00">std::codecvt_base</text>
</a>
</g>
</g>
<!-- Node2 -->
<g id="node2" class="node"><title>Node2</title>
<g id="a_node2"><a xlink:href="a00002.html" target="_top" xlink:title="std::__codecvt_abstract\l_base\&lt; _InternT, _ExternT,\l encoding_state \&gt;">
<polygon fill="white" stroke="black" points="144.5,-678.5 144.5,-716.5 271.5,-716.5 271.5,-678.5 144.5,-678.5"/>
<text text-anchor="start" x="152.5" y="-705.3" font-family="Helvetica,sans-Serif" font-size="9.00">std::__codecvt_abstract</text>
<text text-anchor="start" x="152.5" y="-695.3" font-family="Helvetica,sans-Serif" font-size="9.00">_base&lt; _InternT, _ExternT,</text>
<text text-anchor="middle" x="208" y="-685.3" font-family="Helvetica,sans-Serif" font-size="9.00"> encoding_state &gt;</text>
</a>
</g>
</g>
<!-- Node1&#45;&gt;Node2 -->
<g id="edge1" class="edge"><title>Node1&#45;&gt;Node2</title>
<path fill="none" stroke="midnightblue" d="M105.5,-715.776C118.071,-713.513 131.558,-711.084 144.463,-708.761"/>
<polygon fill="midnightblue" stroke="midnightblue" points="104.866,-712.334 95.6441,-717.551 106.106,-719.224 104.866,-712.334"/>
</g>
<!-- Node4 -->
<g id="node4" class="node"><title>Node4</title>
<g id="a_node4"><a xlink:href="a00002.html" target="_top" xlink:title="std::__codecvt_abstract\l_base\&lt; char, char, mbstate_t \&gt;">
<polygon fill="white" stroke="black" points="137,-631.5 137,-659.5 279,-659.5 279,-631.5 137,-631.5"/>
<text text-anchor="start" x="145" y="-648.3" font-family="Helvetica,sans-Serif" font-size="9.00">std::__codecvt_abstract</text>
<text text-anchor="middle" x="208" y="-638.3" font-family="Helvetica,sans-Serif" font-size="9.00">_base&lt; char, char, mbstate_t &gt;</text>
</a>
</g>
</g>
<!-- Node1&#45;&gt;Node4 -->
<g id="edge3" class="edge"><title>Node1&#45;&gt;Node4</title>
<path fill="none" stroke="midnightblue" d="M71.8343,-710.087C88.6361,-697.878 113.466,-681.016 137,-669.5 144.501,-665.83 152.705,-662.476 160.773,-659.515"/>
<polygon fill="midnightblue" stroke="midnightblue" points="69.3493,-707.571 63.3852,-716.328 73.5084,-713.202 69.3493,-707.571"/>
</g>
<!-- Node6 -->
<g id="node6" class="node"><title>Node6</title>
<g id="a_node6"><a xlink:href="a00002.html" target="_top" xlink:title="std::__codecvt_abstract\l_base\&lt; char16_t, char,\l mbstate_t \&gt;">
<polygon fill="white" stroke="black" points="151.5,-574.5 151.5,-612.5 264.5,-612.5 264.5,-574.5 151.5,-574.5"/>
<text text-anchor="start" x="159.5" y="-601.3" font-family="Helvetica,sans-Serif" font-size="9.00">std::__codecvt_abstract</text>
<text text-anchor="start" x="159.5" y="-591.3" font-family="Helvetica,sans-Serif" font-size="9.00">_base&lt; char16_t, char,</text>
<text text-anchor="middle" x="208" y="-581.3" font-family="Helvetica,sans-Serif" font-size="9.00"> mbstate_t &gt;</text>
</a>
</g>
</g>
<!-- Node1&#45;&gt;Node6 -->
<g id="edge5" class="edge"><title>Node1&#45;&gt;Node6</title>
<path fill="none" stroke="midnightblue" d="M62.3672,-707.662C76.8908,-685.122 104.594,-646.395 137,-622.5 141.976,-618.831 147.484,-615.531 153.162,-612.59"/>
<polygon fill="midnightblue" stroke="midnightblue" points="59.3336,-705.911 56.9744,-716.24 65.2598,-709.637 59.3336,-705.911"/>
</g>
<!-- Node8 -->
<g id="node8" class="node"><title>Node8</title>
<g id="a_node8"><a xlink:href="a00002.html" target="_top" xlink:title="std::__codecvt_abstract\l_base\&lt; char32_t, char,\l mbstate_t \&gt;">
<polygon fill="white" stroke="black" points="151.5,-849.5 151.5,-887.5 264.5,-887.5 264.5,-849.5 151.5,-849.5"/>
<text text-anchor="start" x="159.5" y="-876.3" font-family="Helvetica,sans-Serif" font-size="9.00">std::__codecvt_abstract</text>
<text text-anchor="start" x="159.5" y="-866.3" font-family="Helvetica,sans-Serif" font-size="9.00">_base&lt; char32_t, char,</text>
<text text-anchor="middle" x="208" y="-856.3" font-family="Helvetica,sans-Serif" font-size="9.00"> mbstate_t &gt;</text>
</a>
</g>
</g>
<!-- Node1&#45;&gt;Node8 -->
<g id="edge7" class="edge"><title>Node1&#45;&gt;Node8</title>
<path fill="none" stroke="midnightblue" d="M60.8076,-743.694C74.4228,-768.676 101.998,-813.559 137,-840.5 141.356,-843.853 146.167,-846.86 151.167,-849.543"/>
<polygon fill="midnightblue" stroke="midnightblue" points="63.7651,-741.8 55.9921,-734.6 57.5789,-745.076 63.7651,-741.8"/>
</g>
<!-- Node10 -->
<g id="node10" class="node"><title>Node10</title>
<g id="a_node10"><a xlink:href="a00002.html" target="_top" xlink:title="std::__codecvt_abstract\l_base\&lt; wchar_t, char,\l mbstate_t \&gt;">
<polygon fill="white" stroke="black" points="151.5,-792.5 151.5,-830.5 264.5,-830.5 264.5,-792.5 151.5,-792.5"/>
<text text-anchor="start" x="159.5" y="-819.3" font-family="Helvetica,sans-Serif" font-size="9.00">std::__codecvt_abstract</text>
<text text-anchor="start" x="159.5" y="-809.3" font-family="Helvetica,sans-Serif" font-size="9.00">_base&lt; wchar_t, char,</text>
<text text-anchor="middle" x="208" y="-799.3" font-family="Helvetica,sans-Serif" font-size="9.00"> mbstate_t &gt;</text>
</a>
</g>
</g>
<!-- Node1&#45;&gt;Node10 -->
<g id="edge9" class="edge"><title>Node1&#45;&gt;Node10</title>
<path fill="none" stroke="midnightblue" d="M71.1578,-740.637C88.0108,-753.165 113.259,-770.889 137,-783.5 142.895,-786.631 149.22,-789.627 155.569,-792.415"/>
<polygon fill="midnightblue" stroke="midnightblue" points="73.2556,-737.835 63.1624,-734.614 69.0437,-743.426 73.2556,-737.835"/>
</g>
<!-- Node12 -->
<g id="node12" class="node"><title>Node12</title>
<g id="a_node12"><a xlink:href="a00002.html" target="_top" xlink:title="Common base for codecvt functions. ">
<polygon fill="white" stroke="black" points="144.5,-735.5 144.5,-773.5 271.5,-773.5 271.5,-735.5 144.5,-735.5"/>
<text text-anchor="start" x="152.5" y="-762.3" font-family="Helvetica,sans-Serif" font-size="9.00">std::__codecvt_abstract</text>
<text text-anchor="start" x="152.5" y="-752.3" font-family="Helvetica,sans-Serif" font-size="9.00">_base&lt; _InternT, _ExternT,</text>
<text text-anchor="middle" x="208" y="-742.3" font-family="Helvetica,sans-Serif" font-size="9.00"> _StateT &gt;</text>
</a>
</g>
</g>
<!-- Node1&#45;&gt;Node12 -->
<g id="edge11" class="edge"><title>Node1&#45;&gt;Node12</title>
<path fill="none" stroke="midnightblue" d="M105.5,-735.571C118.071,-737.915 131.558,-740.43 144.463,-742.837"/>
<polygon fill="midnightblue" stroke="midnightblue" points="106.116,-732.125 95.6441,-733.733 104.833,-739.007 106.116,-732.125"/>
</g>
<!-- Node3 -->
<g id="node3" class="node"><title>Node3</title>
<g id="a_node3"><a xlink:href="a00532.html" target="_top" xlink:title="codecvt&lt;InternT, _ExternT, encoding_state&gt; specialization. ">
<polygon fill="white" stroke="black" points="315,-683.5 315,-711.5 446,-711.5 446,-683.5 315,-683.5"/>
<text text-anchor="start" x="323" y="-700.3" font-family="Helvetica,sans-Serif" font-size="9.00">std::codecvt&lt; _InternT,</text>
<text text-anchor="middle" x="380.5" y="-690.3" font-family="Helvetica,sans-Serif" font-size="9.00"> _ExternT, encoding_state &gt;</text>
</a>
</g>
</g>
<!-- Node2&#45;&gt;Node3 -->
<g id="edge2" class="edge"><title>Node2&#45;&gt;Node3</title>
<path fill="none" stroke="midnightblue" d="M281.603,-697.5C292.697,-697.5 304.082,-697.5 314.986,-697.5"/>
<polygon fill="midnightblue" stroke="midnightblue" points="281.52,-694 271.52,-697.5 281.52,-701 281.52,-694"/>
</g>
<!-- Node5 -->
<g id="node5" class="node"><title>Node5</title>
<g id="a_node5"><a xlink:href="a00533.html" target="_top" xlink:title="class codecvt&lt;char, char, mbstate_t&gt; specialization. ">
<polygon fill="white" stroke="black" points="334.5,-631.5 334.5,-659.5 426.5,-659.5 426.5,-631.5 334.5,-631.5"/>
<text text-anchor="start" x="342.5" y="-648.3" font-family="Helvetica,sans-Serif" font-size="9.00">std::codecvt&lt; char,</text>
<text text-anchor="middle" x="380.5" y="-638.3" font-family="Helvetica,sans-Serif" font-size="9.00"> char, mbstate_t &gt;</text>
</a>
</g>
</g>
<!-- Node4&#45;&gt;Node5 -->
<g id="edge4" class="edge"><title>Node4&#45;&gt;Node5</title>
<path fill="none" stroke="midnightblue" d="M289.395,-645.5C304.784,-645.5 320.385,-645.5 334.183,-645.5"/>
<polygon fill="midnightblue" stroke="midnightblue" points="289.333,-642 279.333,-645.5 289.333,-649 289.333,-642"/>
</g>
<!-- Node7 -->
<g id="node7" class="node"><title>Node7</title>
<g id="a_node7"><a xlink:href="a00534.html" target="_top" xlink:title="Class codecvt&lt;char16_t, char, mbstate_t&gt; specialization. ">
<polygon fill="white" stroke="black" points="330,-579.5 330,-607.5 431,-607.5 431,-579.5 330,-579.5"/>
<text text-anchor="start" x="338" y="-596.3" font-family="Helvetica,sans-Serif" font-size="9.00">std::codecvt&lt; char16</text>
<text text-anchor="middle" x="380.5" y="-586.3" font-family="Helvetica,sans-Serif" font-size="9.00">_t, char, mbstate_t &gt;</text>
</a>
</g>
</g>
<!-- Node6&#45;&gt;Node7 -->
<g id="edge6" class="edge"><title>Node6&#45;&gt;Node7</title>
<path fill="none" stroke="midnightblue" d="M274.837,-593.5C293.127,-593.5 312.677,-593.5 329.869,-593.5"/>
<polygon fill="midnightblue" stroke="midnightblue" points="274.828,-590 264.828,-593.5 274.828,-597 274.828,-590"/>
</g>
<!-- Node9 -->
<g id="node9" class="node"><title>Node9</title>
<g id="a_node9"><a xlink:href="a00535.html" target="_top" xlink:title="Class codecvt&lt;char32_t, char, mbstate_t&gt; specialization. ">
<polygon fill="white" stroke="black" points="330,-854.5 330,-882.5 431,-882.5 431,-854.5 330,-854.5"/>
<text text-anchor="start" x="338" y="-871.3" font-family="Helvetica,sans-Serif" font-size="9.00">std::codecvt&lt; char32</text>
<text text-anchor="middle" x="380.5" y="-861.3" font-family="Helvetica,sans-Serif" font-size="9.00">_t, char, mbstate_t &gt;</text>
</a>
</g>
</g>
<!-- Node8&#45;&gt;Node9 -->
<g id="edge8" class="edge"><title>Node8&#45;&gt;Node9</title>
<path fill="none" stroke="midnightblue" d="M274.837,-868.5C293.127,-868.5 312.677,-868.5 329.869,-868.5"/>
<polygon fill="midnightblue" stroke="midnightblue" points="274.828,-865 264.828,-868.5 274.828,-872 274.828,-865"/>
</g>
<!-- Node11 -->
<g id="node11" class="node"><title>Node11</title>
<g id="a_node11"><a xlink:href="a00536.html" target="_top" xlink:title="Class codecvt&lt;wchar_t, char, mbstate_t&gt; specialization. ">
<polygon fill="white" stroke="black" points="331.5,-797.5 331.5,-825.5 429.5,-825.5 429.5,-797.5 331.5,-797.5"/>
<text text-anchor="start" x="339.5" y="-814.3" font-family="Helvetica,sans-Serif" font-size="9.00">std::codecvt&lt; wchar</text>
<text text-anchor="middle" x="380.5" y="-804.3" font-family="Helvetica,sans-Serif" font-size="9.00">_t, char, mbstate_t &gt;</text>
</a>
</g>
</g>
<!-- Node10&#45;&gt;Node11 -->
<g id="edge10" class="edge"><title>Node10&#45;&gt;Node11</title>
<path fill="none" stroke="midnightblue" d="M275.072,-811.5C293.797,-811.5 313.823,-811.5 331.279,-811.5"/>
<polygon fill="midnightblue" stroke="midnightblue" points="274.828,-808 264.828,-811.5 274.828,-815 274.828,-808"/>
</g>
<!-- Node13 -->
<g id="node13" class="node"><title>Node13</title>
<g id="a_node13"><a xlink:href="a00531.html" target="_top" xlink:title="Primary class template codecvt.NB: Generic, mostly useless implementation. ">
<polygon fill="white" stroke="black" points="326.5,-740.5 326.5,-768.5 434.5,-768.5 434.5,-740.5 326.5,-740.5"/>
<text text-anchor="start" x="334.5" y="-757.3" font-family="Helvetica,sans-Serif" font-size="9.00">std::codecvt&lt; _InternT,</text>
<text text-anchor="middle" x="380.5" y="-747.3" font-family="Helvetica,sans-Serif" font-size="9.00"> _ExternT, _StateT &gt;</text>
</a>
</g>
</g>
<!-- Node12&#45;&gt;Node13 -->
<g id="edge12" class="edge"><title>Node12&#45;&gt;Node13</title>
<path fill="none" stroke="midnightblue" d="M281.754,-754.5C296.69,-754.5 312.15,-754.5 326.245,-754.5"/>
<polygon fill="midnightblue" stroke="midnightblue" points="281.52,-751 271.52,-754.5 281.52,-758 281.52,-751"/>
</g>
<!-- Node14 -->
<g id="node14" class="node"><title>Node14</title>
<g id="a_node14"><a xlink:href="a00538.html" target="_top" xlink:title="class codecvt_byname [22.2.1.6]. ">
<polygon fill="white" stroke="black" points="482,-735.5 482,-773.5 585,-773.5 585,-735.5 482,-735.5"/>
<text text-anchor="start" x="490" y="-762.3" font-family="Helvetica,sans-Serif" font-size="9.00">std::codecvt_byname</text>
<text text-anchor="start" x="490" y="-752.3" font-family="Helvetica,sans-Serif" font-size="9.00">&lt; _InternT, _ExternT,</text>
<text text-anchor="middle" x="533.5" y="-742.3" font-family="Helvetica,sans-Serif" font-size="9.00"> _StateT &gt;</text>
</a>
</g>
</g>
<!-- Node13&#45;&gt;Node14 -->
<g id="edge13" class="edge"><title>Node13&#45;&gt;Node14</title>
<path fill="none" stroke="midnightblue" d="M444.929,-754.5C457.221,-754.5 469.951,-754.5 481.77,-754.5"/>
<polygon fill="midnightblue" stroke="midnightblue" points="444.737,-751 434.737,-754.5 444.737,-758 444.737,-751"/>
</g>
<!-- Node15 -->
<g id="node15" class="node"><title>Node15</title>
<g id="a_node15"><a xlink:href="a00548.html" target="_top" xlink:title="Base class for ctype. ">
<polygon fill="white" stroke="black" points="10.5,-485.5 10.5,-503.5 90.5,-503.5 90.5,-485.5 10.5,-485.5"/>
<text text-anchor="middle" x="50.5" y="-492.3" font-family="Helvetica,sans-Serif" font-size="9.00">std::ctype_base</text>
</a>
</g>
</g>
<!-- Node16 -->
<g id="node16" class="node"><title>Node16</title>
<g id="a_node16"><a xlink:href="a00003.html" target="_top" xlink:title="std::__ctype_abstract\l_base\&lt; wchar_t \&gt;">
<polygon fill="white" stroke="black" points="156.5,-527.5 156.5,-555.5 259.5,-555.5 259.5,-527.5 156.5,-527.5"/>
<text text-anchor="start" x="164.5" y="-544.3" font-family="Helvetica,sans-Serif" font-size="9.00">std::__ctype_abstract</text>
<text text-anchor="middle" x="208" y="-534.3" font-family="Helvetica,sans-Serif" font-size="9.00">_base&lt; wchar_t &gt;</text>
</a>
</g>
</g>
<!-- Node15&#45;&gt;Node16 -->
<g id="edge14" class="edge"><title>Node15&#45;&gt;Node16</title>
<path fill="none" stroke="midnightblue" d="M91.1253,-506.477C112.292,-512.874 138.467,-520.786 160.582,-527.47"/>
<polygon fill="midnightblue" stroke="midnightblue" points="92.0669,-503.105 81.482,-503.562 90.0416,-509.806 92.0669,-503.105"/>
</g>
<!-- Node18 -->
<g id="node18" class="node"><title>Node18</title>
<g id="a_node18"><a xlink:href="a00003.html" target="_top" xlink:title="Common base for ctype facet. ">
<polygon fill="white" stroke="black" points="156.5,-480.5 156.5,-508.5 259.5,-508.5 259.5,-480.5 156.5,-480.5"/>
<text text-anchor="start" x="164.5" y="-497.3" font-family="Helvetica,sans-Serif" font-size="9.00">std::__ctype_abstract</text>
<text text-anchor="middle" x="208" y="-487.3" font-family="Helvetica,sans-Serif" font-size="9.00">_base&lt; _CharT &gt;</text>
</a>
</g>
</g>
<!-- Node15&#45;&gt;Node18 -->
<g id="edge16" class="edge"><title>Node15&#45;&gt;Node18</title>
<path fill="none" stroke="midnightblue" d="M100.855,-494.5C118.539,-494.5 138.495,-494.5 156.292,-494.5"/>
<polygon fill="midnightblue" stroke="midnightblue" points="100.739,-491 90.7392,-494.5 100.739,-498 100.739,-491"/>
</g>
<!-- Node21 -->
<g id="node21" class="node"><title>Node21</title>
<g id="a_node21"><a xlink:href="a00546.html" target="_top" xlink:title="The ctype&lt;char&gt; specialization.This class defines classification and conversion functions for the cha...">
<polygon fill="white" stroke="black" points="164,-443.5 164,-461.5 252,-461.5 252,-443.5 164,-443.5"/>
<text text-anchor="middle" x="208" y="-450.3" font-family="Helvetica,sans-Serif" font-size="9.00">std::ctype&lt; char &gt;</text>
</a>
</g>
</g>
<!-- Node15&#45;&gt;Node21 -->
<g id="edge19" class="edge"><title>Node15&#45;&gt;Node21</title>
<path fill="none" stroke="midnightblue" d="M92.9532,-482.666C106.927,-478.73 122.623,-474.366 137,-470.5 148.148,-467.502 160.324,-464.335 171.35,-461.506"/>
<polygon fill="midnightblue" stroke="midnightblue" points="91.7966,-479.356 83.1255,-485.444 93.7005,-486.092 91.7966,-479.356"/>
</g>
<!-- Node17 -->
<g id="node17" class="node"><title>Node17</title>
<g id="a_node17"><a xlink:href="a00547.html" target="_top" xlink:title="The ctype&lt;wchar_t&gt; specialization.This class defines classification and conversion functions for the ...">
<polygon fill="white" stroke="black" points="329.5,-532.5 329.5,-550.5 431.5,-550.5 431.5,-532.5 329.5,-532.5"/>
<text text-anchor="middle" x="380.5" y="-539.3" font-family="Helvetica,sans-Serif" font-size="9.00">std::ctype&lt; wchar_t &gt;</text>
</a>
</g>
</g>
<!-- Node16&#45;&gt;Node17 -->
<g id="edge15" class="edge"><title>Node16&#45;&gt;Node17</title>
<path fill="none" stroke="midnightblue" d="M269.705,-541.5C289.223,-541.5 310.618,-541.5 329.295,-541.5"/>
<polygon fill="midnightblue" stroke="midnightblue" points="269.694,-538 259.694,-541.5 269.694,-545 269.694,-538"/>
</g>
<!-- Node19 -->
<g id="node19" class="node"><title>Node19</title>
<g id="a_node19"><a xlink:href="a00545.html" target="_top" xlink:title="Primary class template ctype facet.This template class defines classification and conversion function...">
<polygon fill="white" stroke="black" points="330,-488.5 330,-506.5 431,-506.5 431,-488.5 330,-488.5"/>
<text text-anchor="middle" x="380.5" y="-495.3" font-family="Helvetica,sans-Serif" font-size="9.00">std::ctype&lt; _CharT &gt;</text>
</a>
</g>
</g>
<!-- Node18&#45;&gt;Node19 -->
<g id="edge17" class="edge"><title>Node18&#45;&gt;Node19</title>
<path fill="none" stroke="midnightblue" d="M269.796,-495.57C289.495,-495.916 311.096,-496.296 329.882,-496.627"/>
<polygon fill="midnightblue" stroke="midnightblue" points="269.754,-492.069 259.694,-495.392 269.631,-499.067 269.754,-492.069"/>
</g>
<!-- Node20 -->
<g id="node20" class="node"><title>Node20</title>
<g id="a_node20"><a xlink:href="a00549.html" target="_top" xlink:title="class ctype_byname [22.2.1.2]. ">
<polygon fill="white" stroke="black" points="484.5,-483.5 484.5,-511.5 582.5,-511.5 582.5,-483.5 484.5,-483.5"/>
<text text-anchor="start" x="492.5" y="-500.3" font-family="Helvetica,sans-Serif" font-size="9.00">std::ctype_byname&lt;</text>
<text text-anchor="middle" x="533.5" y="-490.3" font-family="Helvetica,sans-Serif" font-size="9.00"> _CharT &gt;</text>
</a>
</g>
</g>
<!-- Node19&#45;&gt;Node20 -->
<g id="edge18" class="edge"><title>Node19&#45;&gt;Node20</title>
<path fill="none" stroke="midnightblue" d="M441.575,-497.5C455.83,-497.5 470.851,-497.5 484.487,-497.5"/>
<polygon fill="midnightblue" stroke="midnightblue" points="441.362,-494 431.362,-497.5 441.361,-501 441.362,-494"/>
</g>
<!-- Node22 -->
<g id="node22" class="node"><title>Node22</title>
<g id="a_node22"><a xlink:href="a00550.html" target="_top" xlink:title="22.2.1.4 Class ctype_byname specializations. ">
<polygon fill="white" stroke="black" points="331.5,-441.5 331.5,-469.5 429.5,-469.5 429.5,-441.5 331.5,-441.5"/>
<text text-anchor="start" x="339.5" y="-458.3" font-family="Helvetica,sans-Serif" font-size="9.00">std::ctype_byname&lt;</text>
<text text-anchor="middle" x="380.5" y="-448.3" font-family="Helvetica,sans-Serif" font-size="9.00"> char &gt;</text>
</a>
</g>
</g>
<!-- Node21&#45;&gt;Node22 -->
<g id="edge20" class="edge"><title>Node21&#45;&gt;Node22</title>
<path fill="none" stroke="midnightblue" d="M262.248,-453.437C284.361,-453.826 309.833,-454.274 331.375,-454.653"/>
<polygon fill="midnightblue" stroke="midnightblue" points="262.084,-449.934 252.024,-453.257 261.961,-456.933 262.084,-449.934"/>
</g>
<!-- Node23 -->
<g id="node23" class="node"><title>Node23</title>
<g id="a_node23"><a xlink:href="a00624.html" target="_top" xlink:title="Localization functionality base class.The facet class is the base class for a localization feature...">
<polygon fill="white" stroke="black" points="9.5,-401.5 9.5,-419.5 91.5,-419.5 91.5,-401.5 9.5,-401.5"/>
<text text-anchor="middle" x="50.5" y="-408.3" font-family="Helvetica,sans-Serif" font-size="9.00">std::locale::facet</text>
</a>
</g>
</g>
<!-- Node23&#45;&gt;Node2 -->
<g id="edge21" class="edge"><title>Node23&#45;&gt;Node2</title>
<path fill="none" stroke="midnightblue" d="M67.8831,-427.326C78.9545,-439.671 92.9685,-457.377 101,-475.5 136.531,-555.674 81.3903,-601.693 137,-669.5 139.739,-672.84 142.935,-675.784 146.425,-678.379"/>
<polygon fill="midnightblue" stroke="midnightblue" points="70.1679,-424.643 60.7981,-419.698 65.0388,-429.407 70.1679,-424.643"/>
</g>
<!-- Node23&#45;&gt;Node4 -->
<g id="edge22" class="edge"><title>Node23&#45;&gt;Node4</title>
<path fill="none" stroke="midnightblue" d="M67.5674,-427.472C78.4909,-439.884 92.4581,-457.612 101,-475.5 129.985,-536.198 91.3102,-573.135 137,-622.5 140.215,-625.974 143.963,-628.923 148.022,-631.429"/>
<polygon fill="midnightblue" stroke="midnightblue" points="69.9082,-424.843 60.5952,-419.791 64.7252,-429.548 69.9082,-424.843"/>
</g>
<!-- Node23&#45;&gt;Node6 -->
<g id="edge23" class="edge"><title>Node23&#45;&gt;Node6</title>
<path fill="none" stroke="midnightblue" d="M66.4373,-427.432C77.0483,-440.054 91.1113,-458.055 101,-475.5 122.244,-512.979 106.537,-535.037 137,-565.5 141.165,-569.665 146.028,-573.231 151.216,-576.279"/>
<polygon fill="midnightblue" stroke="midnightblue" points="68.9056,-424.934 59.7364,-419.626 63.5942,-429.493 68.9056,-424.934"/>
</g>
<!-- Node23&#45;&gt;Node8 -->
<g id="edge24" class="edge"><title>Node23&#45;&gt;Node8</title>
<path fill="none" stroke="midnightblue" d="M68.3649,-427.125C79.6618,-439.375 93.7473,-457.052 101,-475.5 130.821,-551.353 88.045,-775.335 137,-840.5 140.852,-845.628 145.794,-849.818 151.268,-853.243"/>
<polygon fill="midnightblue" stroke="midnightblue" points="70.5589,-424.357 61.1077,-419.568 65.5101,-429.205 70.5589,-424.357"/>
</g>
<!-- Node23&#45;&gt;Node10 -->
<g id="edge25" class="edge"><title>Node23&#45;&gt;Node10</title>
<path fill="none" stroke="midnightblue" d="M68.2621,-427.166C79.5109,-439.435 93.5811,-457.118 101,-475.5 152.581,-603.304 53.2287,-674.061 137,-783.5 140.898,-788.593 145.869,-792.762 151.358,-796.174"/>
<polygon fill="midnightblue" stroke="midnightblue" points="70.476,-424.416 61.0417,-419.595 65.4103,-429.247 70.476,-424.416"/>
</g>
<!-- Node23&#45;&gt;Node12 -->
<g id="edge27" class="edge"><title>Node23&#45;&gt;Node12</title>
<path fill="none" stroke="midnightblue" d="M68.1141,-427.227C79.2936,-439.524 93.3419,-457.216 101,-475.5 144.538,-579.447 67.3376,-637.912 137,-726.5 139.589,-729.792 142.625,-732.699 145.955,-735.265"/>
<polygon fill="midnightblue" stroke="midnightblue" points="70.3562,-424.503 60.9466,-419.634 65.2659,-429.308 70.3562,-424.503"/>
</g>
<!-- Node23&#45;&gt;Node16 -->
<g id="edge26" class="edge"><title>Node23&#45;&gt;Node16</title>
<path fill="none" stroke="midnightblue" d="M64.9044,-427.965C87.7813,-457.694 132.357,-515.26 137,-518.5 142.874,-522.6 149.528,-526.006 156.34,-528.827"/>
<polygon fill="midnightblue" stroke="midnightblue" points="67.4386,-425.518 58.5695,-419.723 61.8886,-429.784 67.4386,-425.518"/>
</g>
<!-- Node23&#45;&gt;Node18 -->
<g id="edge28" class="edge"><title>Node23&#45;&gt;Node18</title>
<path fill="none" stroke="midnightblue" d="M70.0654,-425.855C86.7575,-439.077 112.369,-457.954 137,-470.5 144.212,-474.173 152.114,-477.492 159.929,-480.409"/>
<polygon fill="midnightblue" stroke="midnightblue" points="72.1851,-423.069 62.202,-419.521 67.7936,-428.52 72.1851,-423.069"/>
</g>
<!-- Node23&#45;&gt;Node21 -->
<g id="edge31" class="edge"><title>Node23&#45;&gt;Node21</title>
<path fill="none" stroke="midnightblue" d="M94.765,-422.186C119.631,-428.902 150.4,-437.212 173.429,-443.432"/>
<polygon fill="midnightblue" stroke="midnightblue" points="95.4254,-418.739 84.8587,-419.51 93.6001,-425.497 95.4254,-418.739"/>
</g>
<!-- Node24 -->
<g id="node24" class="node"><title>Node24</title>
<g id="a_node24"><a xlink:href="a00539.html" target="_top" xlink:title="Facet for localized string comparison. ">
<polygon fill="white" stroke="black" points="155,-359.5 155,-377.5 261,-377.5 261,-359.5 155,-359.5"/>
<text text-anchor="middle" x="208" y="-366.3" font-family="Helvetica,sans-Serif" font-size="9.00">std::collate&lt; _CharT &gt;</text>
</a>
</g>
</g>
<!-- Node23&#45;&gt;Node24 -->
<g id="edge29" class="edge"><title>Node23&#45;&gt;Node24</title>
<path fill="none" stroke="midnightblue" d="M92.9532,-398.666C106.927,-394.73 122.623,-390.366 137,-386.5 148.148,-383.502 160.324,-380.335 171.35,-377.506"/>
<polygon fill="midnightblue" stroke="midnightblue" points="91.7966,-395.356 83.1255,-401.444 93.7005,-402.092 91.7966,-395.356"/>
</g>
<!-- Node26 -->
<g id="node26" class="node"><title>Node26</title>
<g id="a_node26"><a xlink:href="a00637.html" target="_top" xlink:title="Primary class template messages.This facet encapsulates the code to retrieve messages from message ca...">
<polygon fill="white" stroke="black" points="147.5,-97.5 147.5,-115.5 268.5,-115.5 268.5,-97.5 147.5,-97.5"/>
<text text-anchor="middle" x="208" y="-104.3" font-family="Helvetica,sans-Serif" font-size="9.00">std::messages&lt; _CharT &gt;</text>
</a>
</g>
</g>
<!-- Node23&#45;&gt;Node26 -->
<g id="edge32" class="edge"><title>Node23&#45;&gt;Node26</title>
<path fill="none" stroke="midnightblue" d="M51.2012,-391.165C51.5109,-339.806 59.7302,-198.828 137,-124.5 140.798,-120.846 145.234,-117.907 149.997,-115.546"/>
<polygon fill="midnightblue" stroke="midnightblue" points="47.7024,-391.477 51.2439,-401.462 54.7023,-391.447 47.7024,-391.477"/>
</g>
<!-- Node28 -->
<g id="node28" class="node"><title>Node28</title>
<g id="a_node28"><a xlink:href="a00643.html" target="_top" xlink:title="Primary class template money_get.This facet encapsulates the code to parse and return a monetary amou...">
<polygon fill="white" stroke="black" points="148.5,-312.5 148.5,-340.5 267.5,-340.5 267.5,-312.5 148.5,-312.5"/>
<text text-anchor="start" x="156.5" y="-329.3" font-family="Helvetica,sans-Serif" font-size="9.00">std::money_get&lt; _CharT,</text>
<text text-anchor="middle" x="208" y="-319.3" font-family="Helvetica,sans-Serif" font-size="9.00"> _InIter &gt;</text>
</a>
</g>
</g>
<!-- Node23&#45;&gt;Node28 -->
<g id="edge34" class="edge"><title>Node23&#45;&gt;Node28</title>
<path fill="none" stroke="midnightblue" d="M69.7049,-395.015C86.3358,-381.498 112.063,-362.123 137,-349.5 143.505,-346.207 150.584,-343.24 157.659,-340.618"/>
<polygon fill="midnightblue" stroke="midnightblue" points="67.3623,-392.411 61.8895,-401.483 71.8251,-397.804 67.3623,-392.411"/>
</g>
<!-- Node29 -->
<g id="node29" class="node"><title>Node29</title>
<g id="a_node29"><a xlink:href="a00644.html" target="_top" xlink:title="Primary class template money_put.This facet encapsulates the code to format and output a monetary amo...">
<polygon fill="white" stroke="black" points="148.5,-265.5 148.5,-293.5 267.5,-293.5 267.5,-265.5 148.5,-265.5"/>
<text text-anchor="start" x="156.5" y="-282.3" font-family="Helvetica,sans-Serif" font-size="9.00">std::money_put&lt; _CharT,</text>
<text text-anchor="middle" x="208" y="-272.3" font-family="Helvetica,sans-Serif" font-size="9.00"> _OutIter &gt;</text>
</a>
</g>
</g>
<!-- Node23&#45;&gt;Node29 -->
<g id="edge35" class="edge"><title>Node23&#45;&gt;Node29</title>
<path fill="none" stroke="midnightblue" d="M61.2479,-392.457C75.0549,-368.542 102.509,-326.571 137,-302.5 141.93,-299.059 147.41,-296.107 153.07,-293.579"/>
<polygon fill="midnightblue" stroke="midnightblue" points="58.0183,-391.061 56.1854,-401.496 64.1256,-394.482 58.0183,-391.061"/>
</g>
<!-- Node30 -->
<g id="node30" class="node"><title>Node30</title>
<g id="a_node30"><a xlink:href="a00645.html" target="_top" xlink:title="Primary class template moneypunct.This facet encapsulates the punctuation, grouping and other formatt...">
<polygon fill="white" stroke="black" points="146,-48.5 146,-76.5 270,-76.5 270,-48.5 146,-48.5"/>
<text text-anchor="start" x="154" y="-65.3" font-family="Helvetica,sans-Serif" font-size="9.00">std::moneypunct&lt; _CharT,</text>
<text text-anchor="middle" x="208" y="-55.3" font-family="Helvetica,sans-Serif" font-size="9.00"> _Intl &gt;</text>
</a>
</g>
</g>
<!-- Node23&#45;&gt;Node30 -->
<g id="edge36" class="edge"><title>Node23&#45;&gt;Node30</title>
<path fill="none" stroke="midnightblue" d="M50.7994,-391.329C49.8602,-336.461 54.7271,-177.014 137,-87.5 141.017,-83.1295 145.85,-79.5224 151.077,-76.5456"/>
<polygon fill="midnightblue" stroke="midnightblue" points="47.3021,-391.482 51.0622,-401.387 54.2997,-391.299 47.3021,-391.482"/>
</g>
<!-- Node32 -->
<g id="node32" class="node"><title>Node32</title>
<g id="a_node32"><a xlink:href="a00657.html" target="_top" xlink:title="Primary class template num_get.This facet encapsulates the code to parse and return a number from a s...">
<polygon fill="white" stroke="black" points="153,-218.5 153,-246.5 263,-246.5 263,-218.5 153,-218.5"/>
<text text-anchor="start" x="161" y="-235.3" font-family="Helvetica,sans-Serif" font-size="9.00">std::num_get&lt; _CharT,</text>
<text text-anchor="middle" x="208" y="-225.3" font-family="Helvetica,sans-Serif" font-size="9.00"> _InIter &gt;</text>
</a>
</g>
</g>
<!-- Node23&#45;&gt;Node32 -->
<g id="edge38" class="edge"><title>Node23&#45;&gt;Node32</title>
<path fill="none" stroke="midnightblue" d="M56.8676,-391.654C67.0773,-359.154 92.3579,-292.502 137,-255.5 141.727,-251.582 147.143,-248.324 152.822,-245.617"/>
<polygon fill="midnightblue" stroke="midnightblue" points="53.5027,-390.69 53.9767,-401.274 60.2066,-392.704 53.5027,-390.69"/>
</g>
<!-- Node33 -->
<g id="node33" class="node"><title>Node33</title>
<g id="a_node33"><a xlink:href="a00658.html" target="_top" xlink:title="Primary class template num_put.This facet encapsulates the code to convert a number to a string...">
<polygon fill="white" stroke="black" points="153,-171.5 153,-199.5 263,-199.5 263,-171.5 153,-171.5"/>
<text text-anchor="start" x="161" y="-188.3" font-family="Helvetica,sans-Serif" font-size="9.00">std::num_put&lt; _CharT,</text>
<text text-anchor="middle" x="208" y="-178.3" font-family="Helvetica,sans-Serif" font-size="9.00"> _OutIter &gt;</text>
</a>
</g>
</g>
<!-- Node23&#45;&gt;Node33 -->
<g id="edge39" class="edge"><title>Node23&#45;&gt;Node33</title>
<path fill="none" stroke="midnightblue" d="M54.2331,-391.362C60.9211,-351.551 81.7943,-259.307 137,-208.5 141.612,-204.255 147.023,-200.793 152.758,-197.969"/>
<polygon fill="midnightblue" stroke="midnightblue" points="50.7621,-390.906 52.6769,-401.326 57.6782,-391.986 50.7621,-390.906"/>
</g>
<!-- Node34 -->
<g id="node34" class="node"><title>Node34</title>
<g id="a_node34"><a xlink:href="a00659.html" target="_top" xlink:title="Primary class template numpunct.This facet stores several pieces of information related to printing a...">
<polygon fill="white" stroke="black" points="148.5,-134.5 148.5,-152.5 267.5,-152.5 267.5,-134.5 148.5,-134.5"/>
<text text-anchor="middle" x="208" y="-141.3" font-family="Helvetica,sans-Serif" font-size="9.00">std::numpunct&lt; _CharT &gt;</text>
</a>
</g>
</g>
<!-- Node23&#45;&gt;Node34 -->
<g id="edge40" class="edge"><title>Node23&#45;&gt;Node34</title>
<path fill="none" stroke="midnightblue" d="M52.2035,-391.165C54.9862,-344.428 68.7683,-224.539 137,-161.5 140.963,-157.838 145.57,-154.899 150.492,-152.543"/>
<polygon fill="midnightblue" stroke="midnightblue" points="48.7074,-391.002 51.7152,-401.161 55.699,-391.344 48.7074,-391.002"/>
</g>
<!-- Node36 -->
<g id="node36" class="node"><title>Node36</title>
<g id="a_node36"><a xlink:href="a00699.html" target="_top" xlink:title="Primary class template time_get.This facet encapsulates the code to parse and return a date or time f...">
<polygon fill="white" stroke="black" points="153.5,-1.5 153.5,-29.5 262.5,-29.5 262.5,-1.5 153.5,-1.5"/>
<text text-anchor="start" x="161.5" y="-18.3" font-family="Helvetica,sans-Serif" font-size="9.00">std::time_get&lt; _CharT,</text>
<text text-anchor="middle" x="208" y="-8.3" font-family="Helvetica,sans-Serif" font-size="9.00"> _InIter &gt;</text>
</a>
</g>
</g>
<!-- Node23&#45;&gt;Node36 -->
<g id="edge42" class="edge"><title>Node23&#45;&gt;Node36</title>
<path fill="none" stroke="midnightblue" d="M54.7632,-391.381C67.2488,-319.11 112.516,-65.3347 137,-38.5 141.57,-33.4917 147.247,-29.5713 153.379,-26.503"/>
<polygon fill="midnightblue" stroke="midnightblue" points="51.2927,-390.91 53.0489,-401.359 58.1917,-392.096 51.2927,-390.91"/>
</g>
<!-- Node38 -->
<g id="node38" class="node"><title>Node38</title>
<g id="a_node38"><a xlink:href="a00701.html" target="_top" xlink:title="Primary class template time_put.This facet encapsulates the code to format and output dates and times...">
<polygon fill="white" stroke="black" points="153.5,-396.5 153.5,-424.5 262.5,-424.5 262.5,-396.5 153.5,-396.5"/>
<text text-anchor="start" x="161.5" y="-413.3" font-family="Helvetica,sans-Serif" font-size="9.00">std::time_put&lt; _CharT,</text>
<text text-anchor="middle" x="208" y="-403.3" font-family="Helvetica,sans-Serif" font-size="9.00"> _OutIter &gt;</text>
</a>
</g>
</g>
<!-- Node23&#45;&gt;Node38 -->
<g id="edge44" class="edge"><title>Node23&#45;&gt;Node38</title>
<path fill="none" stroke="midnightblue" d="M101.555,-410.5C118.081,-410.5 136.528,-410.5 153.314,-410.5"/>
<polygon fill="midnightblue" stroke="midnightblue" points="101.545,-407 91.5451,-410.5 101.545,-414 101.545,-407"/>
</g>
<!-- Node25 -->
<g id="node25" class="node"><title>Node25</title>
<g id="a_node25"><a xlink:href="a00540.html" target="_top" xlink:title="class collate_byname [22.2.4.2]. ">
<polygon fill="white" stroke="black" points="331.5,-347.5 331.5,-375.5 429.5,-375.5 429.5,-347.5 331.5,-347.5"/>
<text text-anchor="start" x="339.5" y="-364.3" font-family="Helvetica,sans-Serif" font-size="9.00">std::collate_byname</text>
<text text-anchor="middle" x="380.5" y="-354.3" font-family="Helvetica,sans-Serif" font-size="9.00">&lt; _CharT &gt;</text>
</a>
</g>
</g>
<!-- Node24&#45;&gt;Node25 -->
<g id="edge30" class="edge"><title>Node24&#45;&gt;Node25</title>
<path fill="none" stroke="midnightblue" d="M271.238,-365.945C291.018,-365.133 312.585,-364.247 331.226,-363.482"/>
<polygon fill="midnightblue" stroke="midnightblue" points="270.93,-362.454 261.082,-366.362 271.217,-369.448 270.93,-362.454"/>
</g>
<!-- Node27 -->
<g id="node27" class="node"><title>Node27</title>
<g id="a_node27"><a xlink:href="a00639.html" target="_top" xlink:title="class messages_byname [22.2.7.2]. ">
<polygon fill="white" stroke="black" points="324,-94.5 324,-122.5 437,-122.5 437,-94.5 324,-94.5"/>
<text text-anchor="start" x="332" y="-111.3" font-family="Helvetica,sans-Serif" font-size="9.00">std::messages_byname</text>
<text text-anchor="middle" x="380.5" y="-101.3" font-family="Helvetica,sans-Serif" font-size="9.00">&lt; _CharT &gt;</text>
</a>
</g>
</g>
<!-- Node26&#45;&gt;Node27 -->
<g id="edge33" class="edge"><title>Node26&#45;&gt;Node27</title>
<path fill="none" stroke="midnightblue" d="M278.886,-107.32C293.883,-107.496 309.535,-107.679 323.904,-107.848"/>
<polygon fill="midnightblue" stroke="midnightblue" points="278.673,-103.817 268.633,-107.2 278.591,-110.817 278.673,-103.817"/>
</g>
<!-- Node31 -->
<g id="node31" class="node"><title>Node31</title>
<g id="a_node31"><a xlink:href="a00646.html" target="_top" xlink:title="class moneypunct_byname [22.2.6.4]. ">
<polygon fill="white" stroke="black" points="319.5,-47.5 319.5,-75.5 441.5,-75.5 441.5,-47.5 319.5,-47.5"/>
<text text-anchor="start" x="327.5" y="-64.3" font-family="Helvetica,sans-Serif" font-size="9.00">std::moneypunct_byname</text>
<text text-anchor="middle" x="380.5" y="-54.3" font-family="Helvetica,sans-Serif" font-size="9.00">&lt; _CharT, _Intl &gt;</text>
</a>
</g>
</g>
<!-- Node30&#45;&gt;Node31 -->
<g id="edge37" class="edge"><title>Node30&#45;&gt;Node31</title>
<path fill="none" stroke="midnightblue" d="M280.374,-62.0814C293.366,-62.0052 306.801,-61.9264 319.426,-61.8523"/>
<polygon fill="midnightblue" stroke="midnightblue" points="280.052,-58.5831 270.073,-62.1418 280.093,-65.583 280.052,-58.5831"/>
</g>
<!-- Node35 -->
<g id="node35" class="node"><title>Node35</title>
<g id="a_node35"><a xlink:href="a00660.html" target="_top" xlink:title="class numpunct_byname [22.2.3.2]. ">
<polygon fill="white" stroke="black" points="324.5,-141.5 324.5,-169.5 436.5,-169.5 436.5,-141.5 324.5,-141.5"/>
<text text-anchor="start" x="332.5" y="-158.3" font-family="Helvetica,sans-Serif" font-size="9.00">std::numpunct_byname</text>
<text text-anchor="middle" x="380.5" y="-148.3" font-family="Helvetica,sans-Serif" font-size="9.00">&lt; _CharT &gt;</text>
</a>
</g>
</g>
<!-- Node34&#45;&gt;Node35 -->
<g id="edge41" class="edge"><title>Node34&#45;&gt;Node35</title>
<path fill="none" stroke="midnightblue" d="M277.749,-148.339C293.279,-149.432 309.568,-150.578 324.447,-151.625"/>
<polygon fill="midnightblue" stroke="midnightblue" points="277.898,-144.841 267.676,-147.63 277.406,-151.823 277.898,-144.841"/>
</g>
<!-- Node37 -->
<g id="node37" class="node"><title>Node37</title>
<g id="a_node37"><a xlink:href="a00700.html" target="_top" xlink:title="class time_get_byname [22.2.5.2]. ">
<polygon fill="white" stroke="black" points="327,-0.5 327,-28.5 434,-28.5 434,-0.5 327,-0.5"/>
<text text-anchor="start" x="335" y="-17.3" font-family="Helvetica,sans-Serif" font-size="9.00">std::time_get_byname</text>
<text text-anchor="middle" x="380.5" y="-7.3" font-family="Helvetica,sans-Serif" font-size="9.00">&lt; _CharT, _InIter &gt;</text>
</a>
</g>
</g>
<!-- Node36&#45;&gt;Node37 -->
<g id="edge43" class="edge"><title>Node36&#45;&gt;Node37</title>
<path fill="none" stroke="midnightblue" d="M273.182,-15.1236C290.861,-15.0199 309.829,-14.9086 326.779,-14.8092"/>
<polygon fill="midnightblue" stroke="midnightblue" points="272.927,-11.6249 262.947,-15.1836 272.968,-18.6248 272.927,-11.6249"/>
</g>
<!-- Node39 -->
<g id="node39" class="node"><title>Node39</title>
<g id="a_node39"><a xlink:href="a00702.html" target="_top" xlink:title="class time_put_byname [22.2.5.4]. ">
<polygon fill="white" stroke="black" points="327,-394.5 327,-422.5 434,-422.5 434,-394.5 327,-394.5"/>
<text text-anchor="start" x="335" y="-411.3" font-family="Helvetica,sans-Serif" font-size="9.00">std::time_put_byname</text>
<text text-anchor="middle" x="380.5" y="-401.3" font-family="Helvetica,sans-Serif" font-size="9.00">&lt; _CharT, _OutIter &gt;</text>
</a>
</g>
</g>
<!-- Node38&#45;&gt;Node39 -->
<g id="edge45" class="edge"><title>Node38&#45;&gt;Node39</title>
<path fill="none" stroke="midnightblue" d="M273.182,-409.747C290.861,-409.54 309.829,-409.317 326.779,-409.118"/>
<polygon fill="midnightblue" stroke="midnightblue" points="272.905,-406.25 262.947,-409.867 272.988,-413.25 272.905,-406.25"/>
</g>
<!-- Node40 -->
<g id="node40" class="node"><title>Node40</title>
<g id="a_node40"><a xlink:href="a00638.html" target="_top" xlink:title="Messages facet base class providing catalog typedef. ">
<polygon fill="white" stroke="black" points="0,-97.5 0,-115.5 101,-115.5 101,-97.5 0,-97.5"/>
<text text-anchor="middle" x="50.5" y="-104.3" font-family="Helvetica,sans-Serif" font-size="9.00">std::messages_base</text>
</a>
</g>
</g>
<!-- Node40&#45;&gt;Node26 -->
<g id="edge46" class="edge"><title>Node40&#45;&gt;Node26</title>
<path fill="none" stroke="midnightblue" d="M111.305,-106.5C123.089,-106.5 135.454,-106.5 147.237,-106.5"/>
<polygon fill="midnightblue" stroke="midnightblue" points="111.129,-103 101.129,-106.5 111.129,-110 111.129,-103"/>
</g>
<!-- Node41 -->
<g id="node41" class="node"><title>Node41</title>
<g id="a_node41"><a xlink:href="a00642.html" target="_top" xlink:title="Money format ordering data.This class contains an ordered array of 4 fields to represent the pattern ...">
<polygon fill="white" stroke="black" points="7.5,-53.5 7.5,-71.5 93.5,-71.5 93.5,-53.5 7.5,-53.5"/>
<text text-anchor="middle" x="50.5" y="-60.3" font-family="Helvetica,sans-Serif" font-size="9.00">std::money_base</text>
</a>
</g>
</g>
<!-- Node41&#45;&gt;Node30 -->
<g id="edge47" class="edge"><title>Node41&#45;&gt;Node30</title>
<path fill="none" stroke="midnightblue" d="M103.682,-62.5C117.231,-62.5 131.945,-62.5 145.908,-62.5"/>
<polygon fill="midnightblue" stroke="midnightblue" points="103.581,-59.0001 93.5805,-62.5 103.581,-66.0001 103.581,-59.0001"/>
</g>
<!-- Node42 -->
<g id="node42" class="node"><title>Node42</title>
<g id="a_node42"><a xlink:href="a00698.html" target="_top" xlink:title="Time format ordering data.This class provides an enum representing different orderings of time: day...">
<polygon fill="white" stroke="black" points="12.5,-6.5 12.5,-24.5 88.5,-24.5 88.5,-6.5 12.5,-6.5"/>
<text text-anchor="middle" x="50.5" y="-13.3" font-family="Helvetica,sans-Serif" font-size="9.00">std::time_base</text>
</a>
</g>
</g>
<!-- Node42&#45;&gt;Node36 -->
<g id="edge48" class="edge"><title>Node42&#45;&gt;Node36</title>
<path fill="none" stroke="midnightblue" d="M99.08,-15.5C116.217,-15.5 135.668,-15.5 153.291,-15.5"/>
<polygon fill="midnightblue" stroke="midnightblue" points="98.7462,-12.0001 88.7461,-15.5 98.7461,-19.0001 98.7462,-12.0001"/>
</g>
</g>
</svg>
