<?xml version="1.0" encoding="UTF-8" standalone="no"?>
<!DOCTYPE svg PUBLIC "-//W3C//DTD SVG 1.1//EN"
 "http://www.w3.org/Graphics/SVG/1.1/DTD/svg11.dtd">
<!-- Generated by graphviz version 2.38.0 (20140413.2041)
 -->
<!-- Title: Graphical Class Hierarchy Pages: 1 -->
<svg width="338pt" height="104pt"
 viewBox="0.00 0.00 338.00 104.00" xmlns="http://www.w3.org/2000/svg" xmlns:xlink="http://www.w3.org/1999/xlink">
<g id="graph0" class="graph" transform="scale(1 1) rotate(0) translate(4 100)">
<title>Graphical Class Hierarchy</title>
<polygon fill="white" stroke="none" points="-4,4 -4,-100 334,-100 334,4 -4,4"/>
<!-- Node1 -->
<g id="node1" class="node"><title>Node1</title>
<g id="a_node1"><a xlink:href="a00133.html" target="_top" xlink:title="Base class for unguarded _LoserTree implementation. ">
<polygon fill="white" stroke="black" points="0,-33.5 0,-61.5 163,-61.5 163,-33.5 0,-33.5"/>
<text text-anchor="start" x="8" y="-50.3" font-family="Helvetica,sans-Serif" font-size="9.00">__gnu_parallel::_LoserTree</text>
<text text-anchor="middle" x="81.5" y="-40.3" font-family="Helvetica,sans-Serif" font-size="9.00">UnguardedBase&lt; _Tp, _Compare &gt;</text>
</a>
</g>
</g>
<!-- Node2 -->
<g id="node2" class="node"><title>Node2</title>
<g id="a_node2"><a xlink:href="a00131.html" target="_top" xlink:title="Stable implementation of unguarded _LoserTree. ">
<polygon fill="white" stroke="black" points="199,-57.5 199,-95.5 330,-95.5 330,-57.5 199,-57.5"/>
<text text-anchor="start" x="207" y="-84.3" font-family="Helvetica,sans-Serif" font-size="9.00">__gnu_parallel::_LoserTree</text>
<text text-anchor="start" x="207" y="-74.3" font-family="Helvetica,sans-Serif" font-size="9.00">Unguarded&lt; __stable, _Tp,</text>
<text text-anchor="middle" x="264.5" y="-64.3" font-family="Helvetica,sans-Serif" font-size="9.00"> _Compare &gt;</text>
</a>
</g>
</g>
<!-- Node1&#45;&gt;Node2 -->
<g id="edge1" class="edge"><title>Node1&#45;&gt;Node2</title>
<path fill="none" stroke="midnightblue" d="M173.345,-62.0552C181.995,-63.4412 190.641,-64.8265 198.967,-66.1604"/>
<polygon fill="midnightblue" stroke="midnightblue" points="173.635,-58.5571 163.207,-60.431 172.527,-65.469 173.635,-58.5571"/>
</g>
<!-- Node3 -->
<g id="node3" class="node"><title>Node3</title>
<g id="a_node3"><a xlink:href="a00132.html" target="_top" xlink:title="Non&#45;Stable implementation of unguarded _LoserTree. ">
<polygon fill="white" stroke="black" points="199,-0.5 199,-38.5 330,-38.5 330,-0.5 199,-0.5"/>
<text text-anchor="start" x="207" y="-27.3" font-family="Helvetica,sans-Serif" font-size="9.00">__gnu_parallel::_LoserTree</text>
<text text-anchor="start" x="207" y="-17.3" font-family="Helvetica,sans-Serif" font-size="9.00">Unguarded&lt; false, _Tp,</text>
<text text-anchor="middle" x="264.5" y="-7.3" font-family="Helvetica,sans-Serif" font-size="9.00"> _Compare &gt;</text>
</a>
</g>
</g>
<!-- Node1&#45;&gt;Node3 -->
<g id="edge2" class="edge"><title>Node1&#45;&gt;Node3</title>
<path fill="none" stroke="midnightblue" d="M173.345,-33.4467C181.995,-32.1085 190.641,-30.771 198.967,-29.483"/>
<polygon fill="midnightblue" stroke="midnightblue" points="172.554,-30.0272 163.207,-35.0149 173.625,-36.9449 172.554,-30.0272"/>
</g>
</g>
</svg>
