<?xml version="1.0" encoding="UTF-8" standalone="no"?>
<!DOCTYPE svg PUBLIC "-//W3C//DTD SVG 1.1//EN"
 "http://www.w3.org/Graphics/SVG/1.1/DTD/svg11.dtd">
<!-- Generated by graphviz version 2.38.0 (20140413.2041)
 -->
<!-- Title: Graphical Class Hierarchy Pages: 1 -->
<svg width="314pt" height="57pt"
 viewBox="0.00 0.00 314.00 57.00" xmlns="http://www.w3.org/2000/svg" xmlns:xlink="http://www.w3.org/1999/xlink">
<g id="graph0" class="graph" transform="scale(1 1) rotate(0) translate(4 53)">
<title>Graphical Class Hierarchy</title>
<polygon fill="white" stroke="none" points="-4,4 -4,-53 310,-53 310,4 -4,4"/>
<!-- Node1 -->
<g id="node1" class="node"><title>Node1</title>
<g id="a_node1"><a xlink:href="a00251.html" target="_top" xlink:title="__gnu_pbds::detail\l::hash_load_check_resize\l_trigger_size_base\&lt; Size\l_Type, External_Load_Access \&gt;">
<polygon fill="white" stroke="black" points="0,-0.5 0,-48.5 149,-48.5 149,-0.5 0,-0.5"/>
<text text-anchor="start" x="8" y="-37.3" font-family="Helvetica,sans-Serif" font-size="9.00">__gnu_pbds::detail</text>
<text text-anchor="start" x="8" y="-27.3" font-family="Helvetica,sans-Serif" font-size="9.00">::hash_load_check_resize</text>
<text text-anchor="start" x="8" y="-17.3" font-family="Helvetica,sans-Serif" font-size="9.00">_trigger_size_base&lt; Size</text>
<text text-anchor="middle" x="74.5" y="-7.3" font-family="Helvetica,sans-Serif" font-size="9.00">_Type, External_Load_Access &gt;</text>
</a>
</g>
</g>
<!-- Node2 -->
<g id="node2" class="node"><title>Node2</title>
<g id="a_node2"><a xlink:href="a00337.html" target="_top" xlink:title="A resize trigger policy based on a load check. It keeps the load factor between some load factors loa...">
<polygon fill="white" stroke="black" points="185,-0.5 185,-48.5 306,-48.5 306,-0.5 185,-0.5"/>
<text text-anchor="start" x="193" y="-37.3" font-family="Helvetica,sans-Serif" font-size="9.00">__gnu_pbds::hash_load</text>
<text text-anchor="start" x="193" y="-27.3" font-family="Helvetica,sans-Serif" font-size="9.00">_check_resize_trigger</text>
<text text-anchor="start" x="193" y="-17.3" font-family="Helvetica,sans-Serif" font-size="9.00">&lt; External_Load_Access,</text>
<text text-anchor="middle" x="245.5" y="-7.3" font-family="Helvetica,sans-Serif" font-size="9.00"> Size_Type &gt;</text>
</a>
</g>
</g>
<!-- Node1&#45;&gt;Node2 -->
<g id="edge1" class="edge"><title>Node1&#45;&gt;Node2</title>
<path fill="none" stroke="#8b1a1a" d="M159.239,-24.5C167.869,-24.5 176.51,-24.5 184.802,-24.5"/>
<polygon fill="#8b1a1a" stroke="#8b1a1a" points="159.134,-21.0001 149.134,-24.5 159.134,-28.0001 159.134,-21.0001"/>
</g>
</g>
</svg>
