<?xml version="1.0" encoding="UTF-8" standalone="no"?>
<!DOCTYPE svg PUBLIC "-//W3C//DTD SVG 1.1//EN"
 "http://www.w3.org/Graphics/SVG/1.1/DTD/svg11.dtd">
<!-- Generated by graphviz version 2.38.0 (20140413.2041)
 -->
<!-- Title: Graphical Class Hierarchy Pages: 1 -->
<svg width="294pt" height="47pt"
 viewBox="0.00 0.00 294.00 47.00" xmlns="http://www.w3.org/2000/svg" xmlns:xlink="http://www.w3.org/1999/xlink">
<g id="graph0" class="graph" transform="scale(1 1) rotate(0) translate(4 43)">
<title>Graphical Class Hierarchy</title>
<polygon fill="white" stroke="none" points="-4,4 -4,-43 290,-43 290,4 -4,4"/>
<!-- Node1 -->
<g id="node1" class="node"><title>Node1</title>
<g id="a_node1"><a xlink:href="a00261.html" target="_top" xlink:title="Mod based range hashing. ">
<polygon fill="white" stroke="black" points="0,-0.5 0,-38.5 137,-38.5 137,-0.5 0,-0.5"/>
<text text-anchor="start" x="8" y="-27.3" font-family="Helvetica,sans-Serif" font-size="9.00">__gnu_pbds::detail</text>
<text text-anchor="start" x="8" y="-17.3" font-family="Helvetica,sans-Serif" font-size="9.00">::mod_based_range_hashing</text>
<text text-anchor="middle" x="68.5" y="-7.3" font-family="Helvetica,sans-Serif" font-size="9.00">&lt; Size_Type &gt;</text>
</a>
</g>
</g>
<!-- Node2 -->
<g id="node2" class="node"><title>Node2</title>
<g id="a_node2"><a xlink:href="a00333.html" target="_top" xlink:title="A mod range&#45;hashing class (uses the modulo function). ">
<polygon fill="white" stroke="black" points="173,-0.5 173,-38.5 286,-38.5 286,-0.5 173,-0.5"/>
<text text-anchor="start" x="181" y="-27.3" font-family="Helvetica,sans-Serif" font-size="9.00">__gnu_pbds::direct</text>
<text text-anchor="start" x="181" y="-17.3" font-family="Helvetica,sans-Serif" font-size="9.00">_mod_range_hashing&lt;</text>
<text text-anchor="middle" x="229.5" y="-7.3" font-family="Helvetica,sans-Serif" font-size="9.00"> Size_Type &gt;</text>
</a>
</g>
</g>
<!-- Node1&#45;&gt;Node2 -->
<g id="edge1" class="edge"><title>Node1&#45;&gt;Node2</title>
<path fill="none" stroke="midnightblue" d="M147.421,-19.5C155.995,-19.5 164.593,-19.5 172.816,-19.5"/>
<polygon fill="midnightblue" stroke="midnightblue" points="147.392,-16.0001 137.392,-19.5 147.391,-23.0001 147.392,-16.0001"/>
</g>
</g>
</svg>
