<?xml version="1.0" encoding="UTF-8" standalone="no"?>
<!DOCTYPE svg PUBLIC "-//W3C//DTD SVG 1.1//EN"
 "http://www.w3.org/Graphics/SVG/1.1/DTD/svg11.dtd">
<!-- Generated by graphviz version 2.38.0 (20140413.2041)
 -->
<!-- Title: Graphical Class Hierarchy Pages: 1 -->
<svg width="258pt" height="37pt"
 viewBox="0.00 0.00 258.00 37.00" xmlns="http://www.w3.org/2000/svg" xmlns:xlink="http://www.w3.org/1999/xlink">
<g id="graph0" class="graph" transform="scale(1 1) rotate(0) translate(4 33)">
<title>Graphical Class Hierarchy</title>
<polygon fill="white" stroke="none" points="-4,4 -4,-33 254,-33 254,4 -4,4"/>
<!-- Node1 -->
<g id="node1" class="node"><title>Node1</title>
<g id="a_node1"><a xlink:href="a00423.html" target="_top" xlink:title="std::binary_function\l\&lt; _Tp *, _Arg, _Ret \&gt;">
<polygon fill="white" stroke="black" points="0,-0.5 0,-28.5 101,-28.5 101,-0.5 0,-0.5"/>
<text text-anchor="start" x="8" y="-17.3" font-family="Helvetica,sans-Serif" font-size="9.00">std::binary_function</text>
<text text-anchor="middle" x="50.5" y="-7.3" font-family="Helvetica,sans-Serif" font-size="9.00">&lt; _Tp *, _Arg, _Ret &gt;</text>
</a>
</g>
</g>
<!-- Node2 -->
<g id="node2" class="node"><title>Node2</title>
<g id="a_node2"><a xlink:href="a00634.html" target="_top" xlink:title="One of the adaptors for member pointers. ">
<polygon fill="white" stroke="black" points="137,-0.5 137,-28.5 250,-28.5 250,-0.5 137,-0.5"/>
<text text-anchor="start" x="145" y="-17.3" font-family="Helvetica,sans-Serif" font-size="9.00">std::mem_fun1_t&lt; _Ret,</text>
<text text-anchor="middle" x="193.5" y="-7.3" font-family="Helvetica,sans-Serif" font-size="9.00"> _Tp, _Arg &gt;</text>
</a>
</g>
</g>
<!-- Node1&#45;&gt;Node2 -->
<g id="edge1" class="edge"><title>Node1&#45;&gt;Node2</title>
<path fill="none" stroke="midnightblue" d="M111.422,-14.5C119.905,-14.5 128.598,-14.5 136.993,-14.5"/>
<polygon fill="midnightblue" stroke="midnightblue" points="111.211,-11.0001 101.211,-14.5 111.211,-18.0001 111.211,-11.0001"/>
</g>
</g>
</svg>
