<?xml version="1.0" encoding="UTF-8" standalone="no"?>
<!DOCTYPE svg PUBLIC "-//W3C//DTD SVG 1.1//EN"
 "http://www.w3.org/Graphics/SVG/1.1/DTD/svg11.dtd">
<!-- Generated by graphviz version 2.38.0 (20140413.2041)
 -->
<!-- Title: Graphical Class Hierarchy Pages: 1 -->
<svg width="225pt" height="37pt"
 viewBox="0.00 0.00 225.00 37.00" xmlns="http://www.w3.org/2000/svg" xmlns:xlink="http://www.w3.org/1999/xlink">
<g id="graph0" class="graph" transform="scale(1 1) rotate(0) translate(4 33)">
<title>Graphical Class Hierarchy</title>
<polygon fill="white" stroke="none" points="-4,4 -4,-33 221,-33 221,4 -4,4"/>
<!-- Node1 -->
<g id="node1" class="node"><title>Node1</title>
<g id="a_node1"><a xlink:href="a00419.html" target="_top" xlink:title="See bits/stl_deque.h&#39;s _Deque_base for an explanation. ">
<polygon fill="white" stroke="black" points="0,-0.5 0,-28.5 95,-28.5 95,-0.5 0,-0.5"/>
<text text-anchor="start" x="8" y="-17.3" font-family="Helvetica,sans-Serif" font-size="9.00">std::_Vector_base&lt;</text>
<text text-anchor="middle" x="47.5" y="-7.3" font-family="Helvetica,sans-Serif" font-size="9.00"> _Tp, _Alloc &gt;</text>
</a>
</g>
</g>
<!-- Node2 -->
<g id="node2" class="node"><title>Node2</title>
<g id="a_node2"><a xlink:href="a00716.html" target="_top" xlink:title="A standard container which offers fixed time access to individual elements in any order...">
<polygon fill="white" stroke="black" points="131,-0.5 131,-28.5 217,-28.5 217,-0.5 131,-0.5"/>
<text text-anchor="start" x="139" y="-17.3" font-family="Helvetica,sans-Serif" font-size="9.00">std::vector&lt; _Tp, </text>
<text text-anchor="middle" x="174" y="-7.3" font-family="Helvetica,sans-Serif" font-size="9.00">_Alloc &gt;</text>
</a>
</g>
</g>
<!-- Node1&#45;&gt;Node2 -->
<g id="edge1" class="edge"><title>Node1&#45;&gt;Node2</title>
<path fill="none" stroke="darkgreen" d="M105.257,-14.5C113.902,-14.5 122.69,-14.5 130.946,-14.5"/>
<polygon fill="darkgreen" stroke="darkgreen" points="105.213,-11.0001 95.2134,-14.5 105.213,-18.0001 105.213,-11.0001"/>
</g>
</g>
</svg>
