<?xml version="1.0" encoding="UTF-8" standalone="no"?>
<!DOCTYPE svg PUBLIC "-//W3C//DTD SVG 1.1//EN"
 "http://www.w3.org/Graphics/SVG/1.1/DTD/svg11.dtd">
<!-- Generated by graphviz version 2.38.0 (20140413.2041)
 -->
<!-- Title: Graphical Class Hierarchy Pages: 1 -->
<svg width="252pt" height="306pt"
 viewBox="0.00 0.00 252.00 306.00" xmlns="http://www.w3.org/2000/svg" xmlns:xlink="http://www.w3.org/1999/xlink">
<g id="graph0" class="graph" transform="scale(1 1) rotate(0) translate(4 302)">
<title>Graphical Class Hierarchy</title>
<polygon fill="white" stroke="none" points="-4,4 -4,-302 248,-302 248,4 -4,4"/>
<!-- Node1 -->
<g id="node1" class="node"><title>Node1</title>
<g id="a_node1"><a xlink:href="a00423.html" target="_top" xlink:title="std::binary_function\l\&lt; _Tp, _Tp, bool \&gt;">
<polygon fill="white" stroke="black" points="0,-134.5 0,-162.5 96,-162.5 96,-134.5 0,-134.5"/>
<text text-anchor="start" x="8" y="-151.3" font-family="Helvetica,sans-Serif" font-size="9.00">std::binary_function</text>
<text text-anchor="middle" x="48" y="-141.3" font-family="Helvetica,sans-Serif" font-size="9.00">&lt; _Tp, _Tp, bool &gt;</text>
</a>
</g>
</g>
<!-- Node2 -->
<g id="node2" class="node"><title>Node2</title>
<g id="a_node2"><a xlink:href="a00558.html" target="_top" xlink:title="One of the comparison functors. ">
<polygon fill="white" stroke="black" points="138,-279.5 138,-297.5 238,-297.5 238,-279.5 138,-279.5"/>
<text text-anchor="middle" x="188" y="-286.3" font-family="Helvetica,sans-Serif" font-size="9.00">std::equal_to&lt; _Tp &gt;</text>
</a>
</g>
</g>
<!-- Node1&#45;&gt;Node2 -->
<g id="edge1" class="edge"><title>Node1&#45;&gt;Node2</title>
<path fill="none" stroke="midnightblue" d="M59.2036,-172.071C72.2459,-199.528 97.3552,-244.444 132,-270.5 136.898,-274.184 142.585,-277.134 148.406,-279.491"/>
<polygon fill="midnightblue" stroke="midnightblue" points="62.3048,-170.437 54.9491,-162.812 55.9442,-173.36 62.3048,-170.437"/>
</g>
<!-- Node3 -->
<g id="node3" class="node"><title>Node3</title>
<g id="a_node3"><a xlink:href="a00572.html" target="_top" xlink:title="One of the comparison functors. ">
<polygon fill="white" stroke="black" points="141.5,-242.5 141.5,-260.5 234.5,-260.5 234.5,-242.5 141.5,-242.5"/>
<text text-anchor="middle" x="188" y="-249.3" font-family="Helvetica,sans-Serif" font-size="9.00">std::greater&lt; _Tp &gt;</text>
</a>
</g>
</g>
<!-- Node1&#45;&gt;Node3 -->
<g id="edge2" class="edge"><title>Node1&#45;&gt;Node3</title>
<path fill="none" stroke="midnightblue" d="M65.3922,-170.491C80.6954,-189.608 105.155,-216.789 132,-233.5 137.8,-237.11 144.399,-240.073 150.964,-242.477"/>
<polygon fill="midnightblue" stroke="midnightblue" points="68.1368,-168.319 59.2219,-162.594 62.6208,-172.629 68.1368,-168.319"/>
</g>
<!-- Node4 -->
<g id="node4" class="node"><title>Node4</title>
<g id="a_node4"><a xlink:href="a00573.html" target="_top" xlink:title="One of the comparison functors. ">
<polygon fill="white" stroke="black" points="142.5,-195.5 142.5,-223.5 233.5,-223.5 233.5,-195.5 142.5,-195.5"/>
<text text-anchor="start" x="150.5" y="-212.3" font-family="Helvetica,sans-Serif" font-size="9.00">std::greater_equal</text>
<text text-anchor="middle" x="188" y="-202.3" font-family="Helvetica,sans-Serif" font-size="9.00">&lt; _Tp &gt;</text>
</a>
</g>
</g>
<!-- Node1&#45;&gt;Node4 -->
<g id="edge3" class="edge"><title>Node1&#45;&gt;Node4</title>
<path fill="none" stroke="midnightblue" d="M88.4334,-166.878C102.176,-173.197 117.728,-180.251 132,-186.5 138.731,-189.447 145.96,-192.529 152.891,-195.444"/>
<polygon fill="midnightblue" stroke="midnightblue" points="89.7925,-163.651 79.2459,-162.64 86.8603,-170.007 89.7925,-163.651"/>
</g>
<!-- Node5 -->
<g id="node5" class="node"><title>Node5</title>
<g id="a_node5"><a xlink:href="a00620.html" target="_top" xlink:title="One of the comparison functors. ">
<polygon fill="white" stroke="black" points="148,-158.5 148,-176.5 228,-176.5 228,-158.5 148,-158.5"/>
<text text-anchor="middle" x="188" y="-165.3" font-family="Helvetica,sans-Serif" font-size="9.00">std::less&lt; _Tp &gt;</text>
</a>
</g>
</g>
<!-- Node1&#45;&gt;Node5 -->
<g id="edge4" class="edge"><title>Node1&#45;&gt;Node5</title>
<path fill="none" stroke="midnightblue" d="M106.176,-156.372C120.217,-158.305 134.931,-160.331 147.899,-162.116"/>
<polygon fill="midnightblue" stroke="midnightblue" points="106.49,-152.882 96.1058,-154.986 105.535,-159.817 106.49,-152.882"/>
</g>
<!-- Node6 -->
<g id="node6" class="node"><title>Node6</title>
<g id="a_node6"><a xlink:href="a00621.html" target="_top" xlink:title="One of the comparison functors. ">
<polygon fill="white" stroke="black" points="133.5,-121.5 133.5,-139.5 242.5,-139.5 242.5,-121.5 133.5,-121.5"/>
<text text-anchor="middle" x="188" y="-128.3" font-family="Helvetica,sans-Serif" font-size="9.00">std::less_equal&lt; _Tp &gt;</text>
</a>
</g>
</g>
<!-- Node1&#45;&gt;Node6 -->
<g id="edge5" class="edge"><title>Node1&#45;&gt;Node6</title>
<path fill="none" stroke="midnightblue" d="M106.157,-141.045C115.196,-139.866 124.513,-138.65 133.465,-137.483"/>
<polygon fill="midnightblue" stroke="midnightblue" points="105.569,-137.592 96.1058,-142.356 106.475,-144.533 105.569,-137.592"/>
</g>
<!-- Node7 -->
<g id="node7" class="node"><title>Node7</title>
<g id="a_node7"><a xlink:href="a00626.html" target="_top" xlink:title="One of the Boolean operations functors. ">
<polygon fill="white" stroke="black" points="132,-84.5 132,-102.5 244,-102.5 244,-84.5 132,-84.5"/>
<text text-anchor="middle" x="188" y="-91.3" font-family="Helvetica,sans-Serif" font-size="9.00">std::logical_and&lt; _Tp &gt;</text>
</a>
</g>
</g>
<!-- Node1&#45;&gt;Node7 -->
<g id="edge6" class="edge"><title>Node1&#45;&gt;Node7</title>
<path fill="none" stroke="midnightblue" d="M89.3721,-130.251C102.838,-124.362 117.982,-117.952 132,-112.5 140.85,-109.058 150.617,-105.582 159.433,-102.561"/>
<polygon fill="midnightblue" stroke="midnightblue" points="87.6412,-127.189 79.903,-134.426 90.4652,-133.594 87.6412,-127.189"/>
</g>
<!-- Node8 -->
<g id="node8" class="node"><title>Node8</title>
<g id="a_node8"><a xlink:href="a00628.html" target="_top" xlink:title="One of the Boolean operations functors. ">
<polygon fill="white" stroke="black" points="136,-47.5 136,-65.5 240,-65.5 240,-47.5 136,-47.5"/>
<text text-anchor="middle" x="188" y="-54.3" font-family="Helvetica,sans-Serif" font-size="9.00">std::logical_or&lt; _Tp &gt;</text>
</a>
</g>
</g>
<!-- Node1&#45;&gt;Node8 -->
<g id="edge7" class="edge"><title>Node1&#45;&gt;Node8</title>
<path fill="none" stroke="midnightblue" d="M68.9212,-126.914C84.7182,-110.87 108.053,-89.4344 132,-75.5 138.811,-71.5369 146.577,-68.225 154.084,-65.5353"/>
<polygon fill="midnightblue" stroke="midnightblue" points="66.2216,-124.671 61.8021,-134.3 71.2618,-129.529 66.2216,-124.671"/>
</g>
<!-- Node9 -->
<g id="node9" class="node"><title>Node9</title>
<g id="a_node9"><a xlink:href="a00656.html" target="_top" xlink:title="One of the comparison functors. ">
<polygon fill="white" stroke="black" points="142,-0.5 142,-28.5 234,-28.5 234,-0.5 142,-0.5"/>
<text text-anchor="start" x="150" y="-17.3" font-family="Helvetica,sans-Serif" font-size="9.00">std::not_equal_to&lt;</text>
<text text-anchor="middle" x="188" y="-7.3" font-family="Helvetica,sans-Serif" font-size="9.00"> _Tp &gt;</text>
</a>
</g>
</g>
<!-- Node1&#45;&gt;Node9 -->
<g id="edge8" class="edge"><title>Node1&#45;&gt;Node9</title>
<path fill="none" stroke="midnightblue" d="M61.697,-125.203C76.0073,-100.793 101.324,-62.6997 132,-38.5 136.744,-34.7575 142.162,-31.4789 147.704,-28.6461"/>
<polygon fill="midnightblue" stroke="midnightblue" points="58.5152,-123.716 56.5933,-134.135 64.5931,-127.189 58.5152,-123.716"/>
</g>
</g>
</svg>
