<?xml version="1.0" encoding="UTF-8" standalone="no"?>
<!DOCTYPE svg PUBLIC "-//W3C//DTD SVG 1.1//EN"
 "http://www.w3.org/Graphics/SVG/1.1/DTD/svg11.dtd">
<!-- Generated by graphviz version 2.38.0 (20140413.2041)
 -->
<!-- Title: Graphical Class Hierarchy Pages: 1 -->
<svg width="382pt" height="37pt"
 viewBox="0.00 0.00 382.00 37.00" xmlns="http://www.w3.org/2000/svg" xmlns:xlink="http://www.w3.org/1999/xlink">
<g id="graph0" class="graph" transform="scale(1 1) rotate(0) translate(4 33)">
<title>Graphical Class Hierarchy</title>
<polygon fill="white" stroke="none" points="-4,4 -4,-33 378,-33 378,4 -4,4"/>
<!-- Node1 -->
<g id="node1" class="node"><title>Node1</title>
<g id="a_node1"><a xlink:href="a00034.html" target="_top" xlink:title="Base class used to implement std::char_traits. ">
<polygon fill="white" stroke="black" points="0,-0.5 0,-28.5 109,-28.5 109,-0.5 0,-0.5"/>
<text text-anchor="start" x="8" y="-17.3" font-family="Helvetica,sans-Serif" font-size="9.00">__gnu_cxx::char_traits</text>
<text text-anchor="middle" x="54.5" y="-7.3" font-family="Helvetica,sans-Serif" font-size="9.00">&lt; _CharT &gt;</text>
</a>
</g>
</g>
<!-- Node2 -->
<g id="node2" class="node"><title>Node2</title>
<g id="a_node2"><a xlink:href="a00525.html" target="_top" xlink:title="Basis for explicit traits specializations. ">
<polygon fill="white" stroke="black" points="145,-0.5 145,-28.5 228,-28.5 228,-0.5 145,-0.5"/>
<text text-anchor="start" x="153" y="-17.3" font-family="Helvetica,sans-Serif" font-size="9.00">std::char_traits&lt; </text>
<text text-anchor="middle" x="186.5" y="-7.3" font-family="Helvetica,sans-Serif" font-size="9.00">_CharT &gt;</text>
</a>
</g>
</g>
<!-- Node1&#45;&gt;Node2 -->
<g id="edge1" class="edge"><title>Node1&#45;&gt;Node2</title>
<path fill="none" stroke="midnightblue" d="M119.246,-14.5C127.91,-14.5 136.603,-14.5 144.71,-14.5"/>
<polygon fill="midnightblue" stroke="midnightblue" points="119.127,-11.0001 109.127,-14.5 119.126,-18.0001 119.127,-11.0001"/>
</g>
<!-- Node3 -->
<g id="node3" class="node"><title>Node3</title>
<g id="a_node3"><a xlink:href="a00039.html" target="_top" xlink:title="encoding_char_traits ">
<polygon fill="white" stroke="black" points="264,-0.5 264,-28.5 374,-28.5 374,-0.5 264,-0.5"/>
<text text-anchor="start" x="272" y="-17.3" font-family="Helvetica,sans-Serif" font-size="9.00">__gnu_cxx::encoding</text>
<text text-anchor="middle" x="319" y="-7.3" font-family="Helvetica,sans-Serif" font-size="9.00">_char_traits&lt; _CharT &gt;</text>
</a>
</g>
</g>
<!-- Node2&#45;&gt;Node3 -->
<g id="edge2" class="edge"><title>Node2&#45;&gt;Node3</title>
<path fill="none" stroke="midnightblue" d="M238.331,-14.5C246.598,-14.5 255.19,-14.5 263.539,-14.5"/>
<polygon fill="midnightblue" stroke="midnightblue" points="238.076,-11.0001 228.076,-14.5 238.076,-18.0001 238.076,-11.0001"/>
</g>
</g>
</svg>
