<?xml version="1.0" encoding="UTF-8" standalone="no"?>
<!DOCTYPE svg PUBLIC "-//W3C//DTD SVG 1.1//EN"
 "http://www.w3.org/Graphics/SVG/1.1/DTD/svg11.dtd">
<!-- Generated by graphviz version 2.38.0 (20140413.2041)
 -->
<!-- Title: Graphical Class Hierarchy Pages: 1 -->
<svg width="429pt" height="84pt"
 viewBox="0.00 0.00 429.00 84.00" xmlns="http://www.w3.org/2000/svg" xmlns:xlink="http://www.w3.org/1999/xlink">
<g id="graph0" class="graph" transform="scale(1 1) rotate(0) translate(4 80)">
<title>Graphical Class Hierarchy</title>
<polygon fill="white" stroke="none" points="-4,4 -4,-80 425,-80 425,4 -4,4"/>
<!-- Node1 -->
<g id="node1" class="node"><title>Node1</title>
<g id="a_node1"><a xlink:href="a00462.html" target="_top" xlink:title="std::__detail::_Hash\l_node_base">
<polygon fill="white" stroke="black" points="0,-23.5 0,-51.5 98,-51.5 98,-23.5 0,-23.5"/>
<text text-anchor="start" x="8" y="-40.3" font-family="Helvetica,sans-Serif" font-size="9.00">std::__detail::_Hash</text>
<text text-anchor="middle" x="49" y="-30.3" font-family="Helvetica,sans-Serif" font-size="9.00">_node_base</text>
</a>
</g>
</g>
<!-- Node2 -->
<g id="node2" class="node"><title>Node2</title>
<g id="a_node2"><a xlink:href="a00463.html" target="_top" xlink:title="std::__detail::_Hash\l_node_value_base\&lt; _Value \&gt;">
<polygon fill="white" stroke="black" points="134,-23.5 134,-51.5 274,-51.5 274,-23.5 134,-23.5"/>
<text text-anchor="start" x="142" y="-40.3" font-family="Helvetica,sans-Serif" font-size="9.00">std::__detail::_Hash</text>
<text text-anchor="middle" x="204" y="-30.3" font-family="Helvetica,sans-Serif" font-size="9.00">_node_value_base&lt; _Value &gt;</text>
</a>
</g>
</g>
<!-- Node1&#45;&gt;Node2 -->
<g id="edge1" class="edge"><title>Node1&#45;&gt;Node2</title>
<path fill="none" stroke="midnightblue" d="M108.413,-37.5C116.761,-37.5 125.413,-37.5 133.942,-37.5"/>
<polygon fill="midnightblue" stroke="midnightblue" points="108.41,-34.0001 98.4102,-37.5 108.41,-41.0001 108.41,-34.0001"/>
</g>
<!-- Node3 -->
<g id="node3" class="node"><title>Node3</title>
<g id="a_node3"><a xlink:href="a00460.html" target="_top" xlink:title="std::__detail::_Hash\l_node\&lt; _Value, false \&gt;">
<polygon fill="white" stroke="black" points="310,-47.5 310,-75.5 421,-75.5 421,-47.5 310,-47.5"/>
<text text-anchor="start" x="318" y="-64.3" font-family="Helvetica,sans-Serif" font-size="9.00">std::__detail::_Hash</text>
<text text-anchor="middle" x="365.5" y="-54.3" font-family="Helvetica,sans-Serif" font-size="9.00">_node&lt; _Value, false &gt;</text>
</a>
</g>
</g>
<!-- Node2&#45;&gt;Node3 -->
<g id="edge2" class="edge"><title>Node2&#45;&gt;Node3</title>
<path fill="none" stroke="midnightblue" d="M284.172,-49.413C292.835,-50.7165 301.506,-52.0213 309.778,-53.266"/>
<polygon fill="midnightblue" stroke="midnightblue" points="284.441,-45.9142 274.031,-47.8872 283.399,-52.8362 284.441,-45.9142"/>
</g>
<!-- Node4 -->
<g id="node4" class="node"><title>Node4</title>
<g id="a_node4"><a xlink:href="a00461.html" target="_top" xlink:title="std::__detail::_Hash\l_node\&lt; _Value, true \&gt;">
<polygon fill="white" stroke="black" points="312,-0.5 312,-28.5 419,-28.5 419,-0.5 312,-0.5"/>
<text text-anchor="start" x="320" y="-17.3" font-family="Helvetica,sans-Serif" font-size="9.00">std::__detail::_Hash</text>
<text text-anchor="middle" x="365.5" y="-7.3" font-family="Helvetica,sans-Serif" font-size="9.00">_node&lt; _Value, true &gt;</text>
</a>
</g>
</g>
<!-- Node2&#45;&gt;Node4 -->
<g id="edge3" class="edge"><title>Node2&#45;&gt;Node4</title>
<path fill="none" stroke="midnightblue" d="M284.148,-26.0868C293.498,-24.7386 302.858,-23.3888 311.716,-22.1115"/>
<polygon fill="midnightblue" stroke="midnightblue" points="283.429,-22.6541 274.031,-27.5456 284.429,-29.5825 283.429,-22.6541"/>
</g>
</g>
</svg>
