<?xml version="1.0" encoding="UTF-8" standalone="no"?>
<!DOCTYPE svg PUBLIC "-//W3C//DTD SVG 1.1//EN"
 "http://www.w3.org/Graphics/SVG/1.1/DTD/svg11.dtd">
<!-- Generated by graphviz version 2.38.0 (20140413.2041)
 -->
<!-- Title: Graphical Class Hierarchy Pages: 1 -->
<svg width="282pt" height="47pt"
 viewBox="0.00 0.00 282.00 47.00" xmlns="http://www.w3.org/2000/svg" xmlns:xlink="http://www.w3.org/1999/xlink">
<g id="graph0" class="graph" transform="scale(1 1) rotate(0) translate(4 43)">
<title>Graphical Class Hierarchy</title>
<polygon fill="white" stroke="none" points="-4,4 -4,-43 278,-43 278,4 -4,4"/>
<!-- Node1 -->
<g id="node1" class="node"><title>Node1</title>
<g id="a_node1"><a xlink:href="a00419.html" target="_top" xlink:title="std::_Vector_base\&lt;\l _RealType, std::allocator\l\&lt; _RealType \&gt; \&gt;">
<polygon fill="white" stroke="black" points="0,-0.5 0,-38.5 120,-38.5 120,-0.5 0,-0.5"/>
<text text-anchor="start" x="8" y="-27.3" font-family="Helvetica,sans-Serif" font-size="9.00">std::_Vector_base&lt;</text>
<text text-anchor="start" x="8" y="-17.3" font-family="Helvetica,sans-Serif" font-size="9.00"> _RealType, std::allocator</text>
<text text-anchor="middle" x="60" y="-7.3" font-family="Helvetica,sans-Serif" font-size="9.00">&lt; _RealType &gt; &gt;</text>
</a>
</g>
</g>
<!-- Node2 -->
<g id="node2" class="node"><title>Node2</title>
<g id="a_node2"><a xlink:href="a00716.html" target="_top" xlink:title="std::vector\&lt; _RealType \&gt;">
<polygon fill="white" stroke="black" points="156,-10.5 156,-28.5 274,-28.5 274,-10.5 156,-10.5"/>
<text text-anchor="middle" x="215" y="-17.3" font-family="Helvetica,sans-Serif" font-size="9.00">std::vector&lt; _RealType &gt;</text>
</a>
</g>
</g>
<!-- Node1&#45;&gt;Node2 -->
<g id="edge1" class="edge"><title>Node1&#45;&gt;Node2</title>
<path fill="none" stroke="darkgreen" d="M130.405,-19.5C138.879,-19.5 147.471,-19.5 155.759,-19.5"/>
<polygon fill="darkgreen" stroke="darkgreen" points="130.154,-16.0001 120.154,-19.5 130.154,-23.0001 130.154,-16.0001"/>
</g>
</g>
</svg>
