<?xml version="1.0" encoding="UTF-8" standalone="no"?>
<!DOCTYPE svg PUBLIC "-//W3C//DTD SVG 1.1//EN"
 "http://www.w3.org/Graphics/SVG/1.1/DTD/svg11.dtd">
<!-- Generated by graphviz version 2.38.0 (20140413.2041)
 -->
<!-- Title: Graphical Class Hierarchy Pages: 1 -->
<svg width="463pt" height="157pt"
 viewBox="0.00 0.00 463.00 157.00" xmlns="http://www.w3.org/2000/svg" xmlns:xlink="http://www.w3.org/1999/xlink">
<g id="graph0" class="graph" transform="scale(1 1) rotate(0) translate(4 153)">
<title>Graphical Class Hierarchy</title>
<polygon fill="white" stroke="none" points="-4,4 -4,-153 459,-153 459,4 -4,4"/>
<!-- Node1 -->
<g id="node1" class="node"><title>Node1</title>
<g id="a_node1"><a xlink:href="a00206.html" target="_top" xlink:title="Primary template, base class for branch structure policies. ">
<polygon fill="white" stroke="black" points="0,-38.5 0,-76.5 113,-76.5 113,-38.5 0,-38.5"/>
<text text-anchor="start" x="8" y="-65.3" font-family="Helvetica,sans-Serif" font-size="9.00">__gnu_pbds::detail</text>
<text text-anchor="start" x="8" y="-55.3" font-family="Helvetica,sans-Serif" font-size="9.00">::branch_policy&lt; Node</text>
<text text-anchor="middle" x="56.5" y="-45.3" font-family="Helvetica,sans-Serif" font-size="9.00">_CItr, Node_Itr, _Alloc &gt;</text>
</a>
</g>
</g>
<!-- Node2 -->
<g id="node2" class="node"><title>Node2</title>
<g id="a_node2"><a xlink:href="a00321.html" target="_top" xlink:title="Base class for trie policies. ">
<polygon fill="white" stroke="black" points="162.5,-67.5 162.5,-115.5 265.5,-115.5 265.5,-67.5 162.5,-67.5"/>
<text text-anchor="start" x="170.5" y="-104.3" font-family="Helvetica,sans-Serif" font-size="9.00">__gnu_pbds::detail</text>
<text text-anchor="start" x="170.5" y="-94.3" font-family="Helvetica,sans-Serif" font-size="9.00">::trie_policy_base&lt;</text>
<text text-anchor="start" x="170.5" y="-84.3" font-family="Helvetica,sans-Serif" font-size="9.00"> Node_CItr, Node_Itr,</text>
<text text-anchor="middle" x="214" y="-74.3" font-family="Helvetica,sans-Serif" font-size="9.00"> _ATraits, _Alloc &gt;</text>
</a>
</g>
</g>
<!-- Node1&#45;&gt;Node2 -->
<g id="edge1" class="edge"><title>Node1&#45;&gt;Node2</title>
<path fill="none" stroke="midnightblue" d="M123.114,-71.8466C136.234,-74.7151 149.825,-77.6869 162.346,-80.4245"/>
<polygon fill="midnightblue" stroke="midnightblue" points="123.717,-68.3956 113.2,-69.6787 122.221,-75.2341 123.717,-68.3956"/>
</g>
<!-- Node5 -->
<g id="node5" class="node"><title>Node5</title>
<g id="a_node5"><a xlink:href="a00376.html" target="_top" xlink:title="Functor updating ranks of entrees. ">
<polygon fill="white" stroke="black" points="149,-0.5 149,-48.5 279,-48.5 279,-0.5 149,-0.5"/>
<text text-anchor="start" x="157" y="-37.3" font-family="Helvetica,sans-Serif" font-size="9.00">__gnu_pbds::tree_order</text>
<text text-anchor="start" x="157" y="-27.3" font-family="Helvetica,sans-Serif" font-size="9.00">_statistics_node_update</text>
<text text-anchor="start" x="157" y="-17.3" font-family="Helvetica,sans-Serif" font-size="9.00">&lt; Node_CItr, Node_Itr, Cmp</text>
<text text-anchor="middle" x="214" y="-7.3" font-family="Helvetica,sans-Serif" font-size="9.00">_Fn, _Alloc &gt;</text>
</a>
</g>
</g>
<!-- Node1&#45;&gt;Node5 -->
<g id="edge4" class="edge"><title>Node1&#45;&gt;Node5</title>
<path fill="none" stroke="#8b1a1a" d="M123.123,-43.5736C131.676,-41.7584 140.43,-39.9007 148.957,-38.0911"/>
<polygon fill="#8b1a1a" stroke="#8b1a1a" points="122.255,-40.1797 113.2,-45.6795 123.709,-47.0272 122.255,-40.1797"/>
</g>
<!-- Node3 -->
<g id="node3" class="node"><title>Node3</title>
<g id="a_node3"><a xlink:href="a00379.html" target="_top" xlink:title="Functor updating ranks of entrees. ">
<polygon fill="white" stroke="black" points="327,-100.5 327,-148.5 443,-148.5 443,-100.5 327,-100.5"/>
<text text-anchor="start" x="335" y="-137.3" font-family="Helvetica,sans-Serif" font-size="9.00">__gnu_pbds::trie_order</text>
<text text-anchor="start" x="335" y="-127.3" font-family="Helvetica,sans-Serif" font-size="9.00">_statistics_node_update</text>
<text text-anchor="start" x="335" y="-117.3" font-family="Helvetica,sans-Serif" font-size="9.00">&lt; Node_CItr, Node_Itr, </text>
<text text-anchor="middle" x="385" y="-107.3" font-family="Helvetica,sans-Serif" font-size="9.00">_ATraits, _Alloc &gt;</text>
</a>
</g>
</g>
<!-- Node2&#45;&gt;Node3 -->
<g id="edge2" class="edge"><title>Node2&#45;&gt;Node3</title>
<path fill="none" stroke="#8b1a1a" d="M275.854,-103.383C292.471,-106.627 310.414,-110.131 326.817,-113.334"/>
<polygon fill="#8b1a1a" stroke="#8b1a1a" points="276.191,-99.8825 265.706,-101.401 274.849,-106.753 276.191,-99.8825"/>
</g>
<!-- Node4 -->
<g id="node4" class="node"><title>Node4</title>
<g id="a_node4"><a xlink:href="a00380.html" target="_top" xlink:title="A node updator that allows tries to be searched for the range of values that match a certain prefix...">
<polygon fill="white" stroke="black" points="315,-33.5 315,-81.5 455,-81.5 455,-33.5 315,-33.5"/>
<text text-anchor="start" x="323" y="-70.3" font-family="Helvetica,sans-Serif" font-size="9.00">__gnu_pbds::trie_prefix</text>
<text text-anchor="start" x="323" y="-60.3" font-family="Helvetica,sans-Serif" font-size="9.00">_search_node_update&lt; Node</text>
<text text-anchor="start" x="323" y="-50.3" font-family="Helvetica,sans-Serif" font-size="9.00">_CItr, Node_Itr, _ATraits,</text>
<text text-anchor="middle" x="385" y="-40.3" font-family="Helvetica,sans-Serif" font-size="9.00"> _Alloc &gt;</text>
</a>
</g>
</g>
<!-- Node2&#45;&gt;Node4 -->
<g id="edge3" class="edge"><title>Node2&#45;&gt;Node4</title>
<path fill="none" stroke="#8b1a1a" d="M275.705,-79.2872C288.413,-76.7306 301.902,-74.0167 314.89,-71.4038"/>
<polygon fill="#8b1a1a" stroke="#8b1a1a" points="274.819,-75.8952 265.706,-81.2989 276.199,-82.7577 274.819,-75.8952"/>
</g>
</g>
</svg>
