<?xml version="1.0" encoding="UTF-8" standalone="no"?>
<!DOCTYPE svg PUBLIC "-//W3C//DTD SVG 1.1//EN"
 "http://www.w3.org/Graphics/SVG/1.1/DTD/svg11.dtd">
<!-- Generated by graphviz version 2.38.0 (20140413.2041)
 -->
<!-- Title: Graphical Class Hierarchy Pages: 1 -->
<svg width="270pt" height="37pt"
 viewBox="0.00 0.00 270.00 37.00" xmlns="http://www.w3.org/2000/svg" xmlns:xlink="http://www.w3.org/1999/xlink">
<g id="graph0" class="graph" transform="scale(1 1) rotate(0) translate(4 33)">
<title>Graphical Class Hierarchy</title>
<polygon fill="white" stroke="none" points="-4,4 -4,-33 266,-33 266,4 -4,4"/>
<!-- Node1 -->
<g id="node1" class="node"><title>Node1</title>
<g id="a_node1"><a xlink:href="a00419.html" target="_top" xlink:title="std::_Vector_base\&lt;\l _Node *, _Nodeptr_Alloc \&gt;">
<polygon fill="white" stroke="black" points="0,-0.5 0,-28.5 128,-28.5 128,-0.5 0,-0.5"/>
<text text-anchor="start" x="8" y="-17.3" font-family="Helvetica,sans-Serif" font-size="9.00">std::_Vector_base&lt;</text>
<text text-anchor="middle" x="64" y="-7.3" font-family="Helvetica,sans-Serif" font-size="9.00"> _Node *, _Nodeptr_Alloc &gt;</text>
</a>
</g>
</g>
<!-- Node2 -->
<g id="node2" class="node"><title>Node2</title>
<g id="a_node2"><a xlink:href="a00716.html" target="_top" xlink:title="std::vector\&lt; _Node\l *, _Nodeptr_Alloc \&gt;">
<polygon fill="white" stroke="black" points="164,-0.5 164,-28.5 262,-28.5 262,-0.5 164,-0.5"/>
<text text-anchor="start" x="172" y="-17.3" font-family="Helvetica,sans-Serif" font-size="9.00">std::vector&lt; _Node</text>
<text text-anchor="middle" x="213" y="-7.3" font-family="Helvetica,sans-Serif" font-size="9.00"> *, _Nodeptr_Alloc &gt;</text>
</a>
</g>
</g>
<!-- Node1&#45;&gt;Node2 -->
<g id="edge1" class="edge"><title>Node1&#45;&gt;Node2</title>
<path fill="none" stroke="darkgreen" d="M138.365,-14.5C147.055,-14.5 155.747,-14.5 163.956,-14.5"/>
<polygon fill="darkgreen" stroke="darkgreen" points="138.194,-11.0001 128.194,-14.5 138.194,-18.0001 138.194,-11.0001"/>
</g>
</g>
</svg>
