<?xml version="1.0" encoding="UTF-8" standalone="no"?>
<!DOCTYPE svg PUBLIC "-//W3C//DTD SVG 1.1//EN"
 "http://www.w3.org/Graphics/SVG/1.1/DTD/svg11.dtd">
<!-- Generated by graphviz version 2.38.0 (20140413.2041)
 -->
<!-- Title: Graphical Class Hierarchy Pages: 1 -->
<svg width="306pt" height="47pt"
 viewBox="0.00 0.00 306.00 47.00" xmlns="http://www.w3.org/2000/svg" xmlns:xlink="http://www.w3.org/1999/xlink">
<g id="graph0" class="graph" transform="scale(1 1) rotate(0) translate(4 43)">
<title>Graphical Class Hierarchy</title>
<polygon fill="white" stroke="none" points="-4,4 -4,-43 302,-43 302,4 -4,4"/>
<!-- Node1 -->
<g id="node1" class="node"><title>Node1</title>
<g id="a_node1"><a xlink:href="a00703.html" target="_top" xlink:title="std::unary_function\l\&lt; argument_type, bool \&gt;">
<polygon fill="white" stroke="black" points="0,-5.5 0,-33.5 116,-33.5 116,-5.5 0,-5.5"/>
<text text-anchor="start" x="8" y="-22.3" font-family="Helvetica,sans-Serif" font-size="9.00">std::unary_function</text>
<text text-anchor="middle" x="58" y="-12.3" font-family="Helvetica,sans-Serif" font-size="9.00">&lt; argument_type, bool &gt;</text>
</a>
</g>
</g>
<!-- Node2 -->
<g id="node2" class="node"><title>Node2</title>
<g id="a_node2"><a xlink:href="a00106.html" target="_top" xlink:title="Similar to std::unary_negate, but giving the argument types explicitly. ">
<polygon fill="white" stroke="black" points="152,-0.5 152,-38.5 298,-38.5 298,-0.5 152,-0.5"/>
<text text-anchor="start" x="160" y="-27.3" font-family="Helvetica,sans-Serif" font-size="9.00">__gnu_parallel::__unary</text>
<text text-anchor="start" x="160" y="-17.3" font-family="Helvetica,sans-Serif" font-size="9.00">_negate&lt; _Predicate, argument</text>
<text text-anchor="middle" x="225" y="-7.3" font-family="Helvetica,sans-Serif" font-size="9.00">_type &gt;</text>
</a>
</g>
</g>
<!-- Node1&#45;&gt;Node2 -->
<g id="edge1" class="edge"><title>Node1&#45;&gt;Node2</title>
<path fill="none" stroke="midnightblue" d="M126.33,-19.5C134.704,-19.5 143.295,-19.5 151.74,-19.5"/>
<polygon fill="midnightblue" stroke="midnightblue" points="126.246,-16.0001 116.246,-19.5 126.246,-23.0001 126.246,-16.0001"/>
</g>
</g>
</svg>
