<?xml version="1.0" encoding="UTF-8" standalone="no"?>
<!DOCTYPE svg PUBLIC "-//W3C//DTD SVG 1.1//EN"
 "http://www.w3.org/Graphics/SVG/1.1/DTD/svg11.dtd">
<!-- Generated by graphviz version 2.38.0 (20140413.2041)
 -->
<!-- Title: Graphical Class Hierarchy Pages: 1 -->
<svg width="267pt" height="74pt"
 viewBox="0.00 0.00 267.00 74.00" xmlns="http://www.w3.org/2000/svg" xmlns:xlink="http://www.w3.org/1999/xlink">
<g id="graph0" class="graph" transform="scale(1 1) rotate(0) translate(4 70)">
<title>Graphical Class Hierarchy</title>
<polygon fill="white" stroke="none" points="-4,4 -4,-70 263,-70 263,4 -4,4"/>
<!-- Node1 -->
<g id="node1" class="node"><title>Node1</title>
<g id="a_node1"><a xlink:href="a00048.html" target="_top" xlink:title="An allocator that uses global new, as per [20.4].This is precisely the allocator defined in the C++ S...">
<polygon fill="white" stroke="black" points="0,-16.5 0,-44.5 124,-44.5 124,-16.5 0,-16.5"/>
<text text-anchor="start" x="8" y="-33.3" font-family="Helvetica,sans-Serif" font-size="9.00">__gnu_cxx::new_allocator</text>
<text text-anchor="middle" x="62" y="-23.3" font-family="Helvetica,sans-Serif" font-size="9.00">&lt; _Tp &gt;</text>
</a>
</g>
</g>
<!-- Node2 -->
<g id="node2" class="node"><title>Node2</title>
<g id="a_node2"><a xlink:href="a00420.html" target="_top" xlink:title="std::allocator\&lt; value\l_type \&gt;">
<polygon fill="white" stroke="black" points="160.5,-37.5 160.5,-65.5 258.5,-65.5 258.5,-37.5 160.5,-37.5"/>
<text text-anchor="start" x="168.5" y="-54.3" font-family="Helvetica,sans-Serif" font-size="9.00">std::allocator&lt; value</text>
<text text-anchor="middle" x="209.5" y="-44.3" font-family="Helvetica,sans-Serif" font-size="9.00">_type &gt;</text>
</a>
</g>
</g>
<!-- Node1&#45;&gt;Node2 -->
<g id="edge1" class="edge"><title>Node1&#45;&gt;Node2</title>
<path fill="none" stroke="midnightblue" d="M134.446,-40.8118C143.138,-42.0663 151.854,-43.3244 160.1,-44.5144"/>
<polygon fill="midnightblue" stroke="midnightblue" points="134.681,-37.3095 124.283,-39.345 133.681,-44.2377 134.681,-37.3095"/>
</g>
<!-- Node3 -->
<g id="node3" class="node"><title>Node3</title>
<g id="a_node3"><a xlink:href="a00420.html" target="_top" xlink:title="The standard allocator, as per [20.4]. ">
<polygon fill="white" stroke="black" points="160,-0.5 160,-18.5 259,-18.5 259,-0.5 160,-0.5"/>
<text text-anchor="middle" x="209.5" y="-7.3" font-family="Helvetica,sans-Serif" font-size="9.00">std::allocator&lt; _Tp &gt;</text>
</a>
</g>
</g>
<!-- Node1&#45;&gt;Node3 -->
<g id="edge2" class="edge"><title>Node1&#45;&gt;Node3</title>
<path fill="none" stroke="midnightblue" d="M134.313,-20.2074C142.892,-18.9692 151.498,-17.7272 159.652,-16.5502"/>
<polygon fill="midnightblue" stroke="midnightblue" points="133.681,-16.7623 124.283,-21.655 134.681,-23.6905 133.681,-16.7623"/>
</g>
</g>
</svg>
