<?xml version="1.0" encoding="UTF-8" standalone="no"?>
<!DOCTYPE svg PUBLIC "-//W3C//DTD SVG 1.1//EN"
 "http://www.w3.org/Graphics/SVG/1.1/DTD/svg11.dtd">
<!-- Generated by graphviz version 2.38.0 (20140413.2041)
 -->
<!-- Title: Graphical Class Hierarchy Pages: 1 -->
<svg width="463pt" height="140pt"
 viewBox="0.00 0.00 463.00 140.00" xmlns="http://www.w3.org/2000/svg" xmlns:xlink="http://www.w3.org/1999/xlink">
<g id="graph0" class="graph" transform="scale(1 1) rotate(0) translate(4 136)">
<title>Graphical Class Hierarchy</title>
<polygon fill="white" stroke="none" points="-4,4 -4,-136 459,-136 459,4 -4,4"/>
<!-- Node1 -->
<g id="node1" class="node"><title>Node1</title>
<g id="a_node1"><a xlink:href="a00253.html" target="_top" xlink:title="__gnu_pbds::detail\l::left_child_next_sibling\l_heap\&lt; Value_Type, Cmp_Fn,\l _Alloc::size_type, _Alloc \&gt;">
<polygon fill="white" stroke="black" points="0,-26.5 0,-74.5 142,-74.5 142,-26.5 0,-26.5"/>
<text text-anchor="start" x="8" y="-63.3" font-family="Helvetica,sans-Serif" font-size="9.00">__gnu_pbds::detail</text>
<text text-anchor="start" x="8" y="-53.3" font-family="Helvetica,sans-Serif" font-size="9.00">::left_child_next_sibling</text>
<text text-anchor="start" x="8" y="-43.3" font-family="Helvetica,sans-Serif" font-size="9.00">_heap&lt; Value_Type, Cmp_Fn,</text>
<text text-anchor="middle" x="71" y="-33.3" font-family="Helvetica,sans-Serif" font-size="9.00"> _Alloc::size_type, _Alloc &gt;</text>
</a>
</g>
</g>
<!-- Node2 -->
<g id="node2" class="node"><title>Node2</title>
<g id="a_node2"><a xlink:href="a00205.html" target="_top" xlink:title="Base class for binomial heap. ">
<polygon fill="white" stroke="black" points="181,-57.5 181,-105.5 297,-105.5 297,-57.5 181,-57.5"/>
<text text-anchor="start" x="189" y="-94.3" font-family="Helvetica,sans-Serif" font-size="9.00">__gnu_pbds::detail</text>
<text text-anchor="start" x="189" y="-84.3" font-family="Helvetica,sans-Serif" font-size="9.00">::binomial_heap_base</text>
<text text-anchor="start" x="189" y="-74.3" font-family="Helvetica,sans-Serif" font-size="9.00">&lt; Value_Type, Cmp_Fn,</text>
<text text-anchor="middle" x="239" y="-64.3" font-family="Helvetica,sans-Serif" font-size="9.00"> _Alloc &gt;</text>
</a>
</g>
</g>
<!-- Node1&#45;&gt;Node2 -->
<g id="edge1" class="edge"><title>Node1&#45;&gt;Node2</title>
<path fill="none" stroke="midnightblue" d="M152.369,-65.5087C161.974,-67.3023 171.625,-69.1047 180.809,-70.8197"/>
<polygon fill="midnightblue" stroke="midnightblue" points="152.872,-62.0421 142.399,-63.6468 151.586,-68.9231 152.872,-62.0421"/>
</g>
<!-- Node5 -->
<g id="node5" class="node"><title>Node5</title>
<g id="a_node5"><a xlink:href="a00305.html" target="_top" xlink:title="__gnu_pbds::detail\l::thin_heap\&lt; Value_Type,\l Cmp_Fn, _Alloc \&gt;">
<polygon fill="white" stroke="black" points="178,-0.5 178,-38.5 300,-38.5 300,-0.5 178,-0.5"/>
<text text-anchor="start" x="186" y="-27.3" font-family="Helvetica,sans-Serif" font-size="9.00">__gnu_pbds::detail</text>
<text text-anchor="start" x="186" y="-17.3" font-family="Helvetica,sans-Serif" font-size="9.00">::thin_heap&lt; Value_Type,</text>
<text text-anchor="middle" x="239" y="-7.3" font-family="Helvetica,sans-Serif" font-size="9.00"> Cmp_Fn, _Alloc &gt;</text>
</a>
</g>
</g>
<!-- Node1&#45;&gt;Node5 -->
<g id="edge4" class="edge"><title>Node1&#45;&gt;Node5</title>
<path fill="none" stroke="midnightblue" d="M152.451,-35.4761C161.047,-33.8708 169.679,-32.2587 177.979,-30.7088"/>
<polygon fill="midnightblue" stroke="midnightblue" points="151.586,-32.0769 142.399,-37.3532 152.872,-38.9579 151.586,-32.0769"/>
</g>
<!-- Node3 -->
<g id="node3" class="node"><title>Node3</title>
<g id="a_node3"><a xlink:href="a00204.html" target="_top" xlink:title="__gnu_pbds::detail\l::binomial_heap\&lt; Value\l_Type, Cmp_Fn, _Alloc \&gt;">
<polygon fill="white" stroke="black" points="336,-93.5 336,-131.5 455,-131.5 455,-93.5 336,-93.5"/>
<text text-anchor="start" x="344" y="-120.3" font-family="Helvetica,sans-Serif" font-size="9.00">__gnu_pbds::detail</text>
<text text-anchor="start" x="344" y="-110.3" font-family="Helvetica,sans-Serif" font-size="9.00">::binomial_heap&lt; Value</text>
<text text-anchor="middle" x="395.5" y="-100.3" font-family="Helvetica,sans-Serif" font-size="9.00">_Type, Cmp_Fn, _Alloc &gt;</text>
</a>
</g>
</g>
<!-- Node2&#45;&gt;Node3 -->
<g id="edge2" class="edge"><title>Node2&#45;&gt;Node3</title>
<path fill="none" stroke="midnightblue" d="M306.993,-94.942C316.594,-96.8684 326.411,-98.838 335.835,-100.729"/>
<polygon fill="midnightblue" stroke="midnightblue" points="307.584,-91.4909 297.091,-92.9552 306.207,-98.3541 307.584,-91.4909"/>
</g>
<!-- Node4 -->
<g id="node4" class="node"><title>Node4</title>
<g id="a_node4"><a xlink:href="a00296.html" target="_top" xlink:title="__gnu_pbds::detail\l::rc_binomial_heap\&lt;\l Value_Type, Cmp_Fn,\l _Alloc \&gt;">
<polygon fill="white" stroke="black" points="340.5,-26.5 340.5,-74.5 450.5,-74.5 450.5,-26.5 340.5,-26.5"/>
<text text-anchor="start" x="348.5" y="-63.3" font-family="Helvetica,sans-Serif" font-size="9.00">__gnu_pbds::detail</text>
<text text-anchor="start" x="348.5" y="-53.3" font-family="Helvetica,sans-Serif" font-size="9.00">::rc_binomial_heap&lt;</text>
<text text-anchor="start" x="348.5" y="-43.3" font-family="Helvetica,sans-Serif" font-size="9.00"> Value_Type, Cmp_Fn,</text>
<text text-anchor="middle" x="395.5" y="-33.3" font-family="Helvetica,sans-Serif" font-size="9.00"> _Alloc &gt;</text>
</a>
</g>
</g>
<!-- Node2&#45;&gt;Node4 -->
<g id="edge3" class="edge"><title>Node2&#45;&gt;Node4</title>
<path fill="none" stroke="midnightblue" d="M307.197,-68.017C318.318,-65.7857 329.721,-63.4977 340.464,-61.3421"/>
<polygon fill="midnightblue" stroke="midnightblue" points="306.207,-64.6459 297.091,-70.0448 307.584,-71.5091 306.207,-64.6459"/>
</g>
</g>
</svg>
