<?xml version="1.0" encoding="UTF-8" standalone="no"?>
<!DOCTYPE svg PUBLIC "-//W3C//DTD SVG 1.1//EN"
 "http://www.w3.org/Graphics/SVG/1.1/DTD/svg11.dtd">
<!-- Generated by graphviz version 2.38.0 (20140413.2041)
 -->
<!-- Title: Graphical Class Hierarchy Pages: 1 -->
<svg width="312pt" height="104pt"
 viewBox="0.00 0.00 312.00 104.00" xmlns="http://www.w3.org/2000/svg" xmlns:xlink="http://www.w3.org/1999/xlink">
<g id="graph0" class="graph" transform="scale(1 1) rotate(0) translate(4 100)">
<title>Graphical Class Hierarchy</title>
<polygon fill="white" stroke="none" points="-4,4 -4,-100 308,-100 308,4 -4,4"/>
<!-- Node1 -->
<g id="node1" class="node"><title>Node1</title>
<g id="a_node1"><a xlink:href="a00129.html" target="_top" xlink:title="Unguarded loser tree, keeping only pointers to the elements in the tree structure. ">
<polygon fill="white" stroke="black" points="0,-28.5 0,-66.5 131,-66.5 131,-28.5 0,-28.5"/>
<text text-anchor="start" x="8" y="-55.3" font-family="Helvetica,sans-Serif" font-size="9.00">__gnu_parallel::_LoserTree</text>
<text text-anchor="start" x="8" y="-45.3" font-family="Helvetica,sans-Serif" font-size="9.00">PointerUnguardedBase&lt; </text>
<text text-anchor="middle" x="65.5" y="-35.3" font-family="Helvetica,sans-Serif" font-size="9.00">_Tp, _Compare &gt;</text>
</a>
</g>
</g>
<!-- Node2 -->
<g id="node2" class="node"><title>Node2</title>
<g id="a_node2"><a xlink:href="a00127.html" target="_top" xlink:title="Stable unguarded _LoserTree variant storing pointers. ">
<polygon fill="white" stroke="black" points="167,-57.5 167,-95.5 304,-95.5 304,-57.5 167,-57.5"/>
<text text-anchor="start" x="175" y="-84.3" font-family="Helvetica,sans-Serif" font-size="9.00">__gnu_parallel::_LoserTree</text>
<text text-anchor="start" x="175" y="-74.3" font-family="Helvetica,sans-Serif" font-size="9.00">PointerUnguarded&lt; __stable,</text>
<text text-anchor="middle" x="235.5" y="-64.3" font-family="Helvetica,sans-Serif" font-size="9.00"> _Tp, _Compare &gt;</text>
</a>
</g>
</g>
<!-- Node1&#45;&gt;Node2 -->
<g id="edge1" class="edge"><title>Node1&#45;&gt;Node2</title>
<path fill="none" stroke="midnightblue" d="M141.37,-60.424C149.886,-61.894 158.528,-63.3858 166.941,-64.8381"/>
<polygon fill="midnightblue" stroke="midnightblue" points="141.903,-56.9643 131.453,-58.7122 140.712,-63.8623 141.903,-56.9643"/>
</g>
<!-- Node3 -->
<g id="node3" class="node"><title>Node3</title>
<g id="a_node3"><a xlink:href="a00128.html" target="_top" xlink:title="Unstable unguarded _LoserTree variant storing pointers. ">
<polygon fill="white" stroke="black" points="170,-0.5 170,-38.5 301,-38.5 301,-0.5 170,-0.5"/>
<text text-anchor="start" x="178" y="-27.3" font-family="Helvetica,sans-Serif" font-size="9.00">__gnu_parallel::_LoserTree</text>
<text text-anchor="start" x="178" y="-17.3" font-family="Helvetica,sans-Serif" font-size="9.00">PointerUnguarded&lt; false,</text>
<text text-anchor="middle" x="235.5" y="-7.3" font-family="Helvetica,sans-Serif" font-size="9.00"> _Tp, _Compare &gt;</text>
</a>
</g>
</g>
<!-- Node1&#45;&gt;Node3 -->
<g id="edge2" class="edge"><title>Node1&#45;&gt;Node3</title>
<path fill="none" stroke="midnightblue" d="M141.337,-35.0271C150.898,-33.4337 160.619,-31.8136 169.996,-30.2506"/>
<polygon fill="midnightblue" stroke="midnightblue" points="140.742,-31.578 131.453,-36.6745 141.893,-38.4828 140.742,-31.578"/>
</g>
</g>
</svg>
