<?xml version="1.0" encoding="UTF-8" standalone="no"?>
<!DOCTYPE svg PUBLIC "-//W3C//DTD SVG 1.1//EN"
 "http://www.w3.org/Graphics/SVG/1.1/DTD/svg11.dtd">
<!-- Generated by graphviz version 2.38.0 (20140413.2041)
 -->
<!-- Title: Graphical Class Hierarchy Pages: 1 -->
<svg width="284pt" height="47pt"
 viewBox="0.00 0.00 284.00 47.00" xmlns="http://www.w3.org/2000/svg" xmlns:xlink="http://www.w3.org/1999/xlink">
<g id="graph0" class="graph" transform="scale(1 1) rotate(0) translate(4 43)">
<title>Graphical Class Hierarchy</title>
<polygon fill="white" stroke="none" points="-4,4 -4,-43 280,-43 280,4 -4,4"/>
<!-- Node1 -->
<g id="node1" class="node"><title>Node1</title>
<g id="a_node1"><a xlink:href="a00423.html" target="_top" xlink:title="std::binary_function\l\&lt; _Arg1, _Arg2, _Result \&gt;">
<polygon fill="white" stroke="black" points="0,-5.5 0,-33.5 122,-33.5 122,-5.5 0,-5.5"/>
<text text-anchor="start" x="8" y="-22.3" font-family="Helvetica,sans-Serif" font-size="9.00">std::binary_function</text>
<text text-anchor="middle" x="61" y="-12.3" font-family="Helvetica,sans-Serif" font-size="9.00">&lt; _Arg1, _Arg2, _Result &gt;</text>
</a>
</g>
</g>
<!-- Node2 -->
<g id="node2" class="node"><title>Node2</title>
<g id="a_node2"><a xlink:href="a00673.html" target="_top" xlink:title="One of the adaptors for function pointers. ">
<polygon fill="white" stroke="black" points="158,-0.5 158,-38.5 276,-38.5 276,-0.5 158,-0.5"/>
<text text-anchor="start" x="166" y="-27.3" font-family="Helvetica,sans-Serif" font-size="9.00">std::pointer_to_binary</text>
<text text-anchor="start" x="166" y="-17.3" font-family="Helvetica,sans-Serif" font-size="9.00">_function&lt; _Arg1, _Arg2,</text>
<text text-anchor="middle" x="217" y="-7.3" font-family="Helvetica,sans-Serif" font-size="9.00"> _Result &gt;</text>
</a>
</g>
</g>
<!-- Node1&#45;&gt;Node2 -->
<g id="edge1" class="edge"><title>Node1&#45;&gt;Node2</title>
<path fill="none" stroke="midnightblue" d="M132.613,-19.5C141.03,-19.5 149.551,-19.5 157.767,-19.5"/>
<polygon fill="midnightblue" stroke="midnightblue" points="132.423,-16.0001 122.423,-19.5 132.423,-23.0001 132.423,-16.0001"/>
</g>
</g>
</svg>
