<?xml version="1.0" encoding="UTF-8" standalone="no"?>
<!DOCTYPE svg PUBLIC "-//W3C//DTD SVG 1.1//EN"
 "http://www.w3.org/Graphics/SVG/1.1/DTD/svg11.dtd">
<!-- Generated by graphviz version 2.38.0 (20140413.2041)
 -->
<!-- Title: Graphical Class Hierarchy Pages: 1 -->
<svg width="354pt" height="161pt"
 viewBox="0.00 0.00 354.00 161.00" xmlns="http://www.w3.org/2000/svg" xmlns:xlink="http://www.w3.org/1999/xlink">
<g id="graph0" class="graph" transform="scale(1 1) rotate(0) translate(4 157)">
<title>Graphical Class Hierarchy</title>
<polygon fill="white" stroke="none" points="-4,4 -4,-157 350,-157 350,4 -4,4"/>
<!-- Node1 -->
<g id="node1" class="node"><title>Node1</title>
<g id="a_node1"><a xlink:href="a00407.html" target="_top" xlink:title="std::_Enable_default\l_constructor\&lt; _Default,\l _Tag \&gt;">
<polygon fill="white" stroke="black" points="11,-114.5 11,-152.5 122,-152.5 122,-114.5 11,-114.5"/>
<text text-anchor="start" x="19" y="-141.3" font-family="Helvetica,sans-Serif" font-size="9.00">std::_Enable_default</text>
<text text-anchor="start" x="19" y="-131.3" font-family="Helvetica,sans-Serif" font-size="9.00">_constructor&lt; _Default,</text>
<text text-anchor="middle" x="66.5" y="-121.3" font-family="Helvetica,sans-Serif" font-size="9.00"> _Tag &gt;</text>
</a>
</g>
</g>
<!-- Node2 -->
<g id="node2" class="node"><title>Node2</title>
<g id="a_node2"><a xlink:href="a00494.html" target="_top" xlink:title="A mixin helper to conditionally enable or disable the special members. ">
<polygon fill="white" stroke="black" points="169,-57.5 169,-105.5 346,-105.5 346,-57.5 169,-57.5"/>
<text text-anchor="start" x="177" y="-94.3" font-family="Helvetica,sans-Serif" font-size="9.00">std::_Enable_special</text>
<text text-anchor="start" x="177" y="-84.3" font-family="Helvetica,sans-Serif" font-size="9.00">_members&lt; _Default, </text>
<text text-anchor="start" x="177" y="-74.3" font-family="Helvetica,sans-Serif" font-size="9.00">_Destructor, _Copy, _CopyAssignment,</text>
<text text-anchor="middle" x="257.5" y="-64.3" font-family="Helvetica,sans-Serif" font-size="9.00"> _Move, _MoveAssignment, _Tag &gt;</text>
</a>
</g>
</g>
<!-- Node1&#45;&gt;Node2 -->
<g id="edge1" class="edge"><title>Node1&#45;&gt;Node2</title>
<path fill="none" stroke="#8b1a1a" d="M132.032,-115.745C144.001,-112.452 156.684,-108.963 169.199,-105.519"/>
<polygon fill="#8b1a1a" stroke="#8b1a1a" points="130.88,-112.432 122.167,-118.459 132.737,-119.181 130.88,-112.432"/>
</g>
<!-- Node3 -->
<g id="node3" class="node"><title>Node3</title>
<g id="a_node3"><a xlink:href="a00408.html" target="_top" xlink:title="std::_Enable_destructor\l\&lt; _Destructor, _Tag \&gt;">
<polygon fill="white" stroke="black" points="10,-67.5 10,-95.5 123,-95.5 123,-67.5 10,-67.5"/>
<text text-anchor="start" x="18" y="-84.3" font-family="Helvetica,sans-Serif" font-size="9.00">std::_Enable_destructor</text>
<text text-anchor="middle" x="66.5" y="-74.3" font-family="Helvetica,sans-Serif" font-size="9.00">&lt; _Destructor, _Tag &gt;</text>
</a>
</g>
</g>
<!-- Node3&#45;&gt;Node2 -->
<g id="edge2" class="edge"><title>Node3&#45;&gt;Node2</title>
<path fill="none" stroke="#8b1a1a" d="M133.507,-81.5C144.96,-81.5 157.03,-81.5 168.95,-81.5"/>
<polygon fill="#8b1a1a" stroke="#8b1a1a" points="133.184,-78.0001 123.184,-81.5 133.184,-85.0001 133.184,-78.0001"/>
</g>
<!-- Node4 -->
<g id="node4" class="node"><title>Node4</title>
<g id="a_node4"><a xlink:href="a00493.html" target="_top" xlink:title="A mixin helper to conditionally enable or disable the copy/move special members. ">
<polygon fill="white" stroke="black" points="0,-0.5 0,-48.5 133,-48.5 133,-0.5 0,-0.5"/>
<text text-anchor="start" x="8" y="-37.3" font-family="Helvetica,sans-Serif" font-size="9.00">std::_Enable_copy_move</text>
<text text-anchor="start" x="8" y="-27.3" font-family="Helvetica,sans-Serif" font-size="9.00">&lt; _Copy, _CopyAssignment,</text>
<text text-anchor="start" x="8" y="-17.3" font-family="Helvetica,sans-Serif" font-size="9.00"> _Move, _MoveAssignment,</text>
<text text-anchor="middle" x="66.5" y="-7.3" font-family="Helvetica,sans-Serif" font-size="9.00"> _Tag &gt;</text>
</a>
</g>
</g>
<!-- Node4&#45;&gt;Node2 -->
<g id="edge3" class="edge"><title>Node4&#45;&gt;Node2</title>
<path fill="none" stroke="#8b1a1a" d="M142.767,-47.1997C153.928,-50.5655 165.462,-54.044 176.711,-57.4366"/>
<polygon fill="#8b1a1a" stroke="#8b1a1a" points="143.657,-43.8124 133.073,-44.2759 141.636,-50.5143 143.657,-43.8124"/>
</g>
</g>
</svg>
