<?xml version="1.0" encoding="UTF-8" standalone="no"?>
<!DOCTYPE svg PUBLIC "-//W3C//DTD SVG 1.1//EN"
 "http://www.w3.org/Graphics/SVG/1.1/DTD/svg11.dtd">
<!-- Generated by graphviz version 2.38.0 (20140413.2041)
 -->
<!-- Title: Graphical Class Hierarchy Pages: 1 -->
<svg width="320pt" height="144pt"
 viewBox="0.00 0.00 320.00 144.00" xmlns="http://www.w3.org/2000/svg" xmlns:xlink="http://www.w3.org/1999/xlink">
<g id="graph0" class="graph" transform="scale(1 1) rotate(0) translate(4 140)">
<title>Graphical Class Hierarchy</title>
<polygon fill="white" stroke="none" points="-4,4 -4,-140 316,-140 316,4 -4,4"/>
<!-- Node1 -->
<g id="node1" class="node"><title>Node1</title>
<g id="a_node1"><a xlink:href="a00416.html" target="_top" xlink:title="std::__detail::_Local\l_iterator_base\&lt; _Key,\l _Value, _ExtractKey,\l _H1, _H2, _Hash, __cache \&gt;">
<polygon fill="white" stroke="black" points="0,-43.5 0,-91.5 137,-91.5 137,-43.5 0,-43.5"/>
<text text-anchor="start" x="8" y="-80.3" font-family="Helvetica,sans-Serif" font-size="9.00">std::__detail::_Local</text>
<text text-anchor="start" x="8" y="-70.3" font-family="Helvetica,sans-Serif" font-size="9.00">_iterator_base&lt; _Key,</text>
<text text-anchor="start" x="8" y="-60.3" font-family="Helvetica,sans-Serif" font-size="9.00"> _Value, _ExtractKey,</text>
<text text-anchor="middle" x="68.5" y="-50.3" font-family="Helvetica,sans-Serif" font-size="9.00"> _H1, _H2, _Hash, __cache &gt;</text>
</a>
</g>
</g>
<!-- Node2 -->
<g id="node2" class="node"><title>Node2</title>
<g id="a_node2"><a xlink:href="a00473.html" target="_top" xlink:title="local const_iterators ">
<polygon fill="white" stroke="black" points="173,-77.5 173,-135.5 312,-135.5 312,-77.5 173,-77.5"/>
<text text-anchor="start" x="181" y="-124.3" font-family="Helvetica,sans-Serif" font-size="9.00">std::__detail::_Local</text>
<text text-anchor="start" x="181" y="-114.3" font-family="Helvetica,sans-Serif" font-size="9.00">_const_iterator&lt; _Key,</text>
<text text-anchor="start" x="181" y="-104.3" font-family="Helvetica,sans-Serif" font-size="9.00"> _Value, _ExtractKey,</text>
<text text-anchor="start" x="181" y="-94.3" font-family="Helvetica,sans-Serif" font-size="9.00"> _H1, _H2, _Hash, __constant</text>
<text text-anchor="middle" x="242.5" y="-84.3" font-family="Helvetica,sans-Serif" font-size="9.00">_iterators, __cache &gt;</text>
</a>
</g>
</g>
<!-- Node1&#45;&gt;Node2 -->
<g id="edge1" class="edge"><title>Node1&#45;&gt;Node2</title>
<path fill="none" stroke="midnightblue" d="M147.393,-85.1617C155.896,-87.0899 164.507,-89.0423 172.888,-90.9426"/>
<polygon fill="midnightblue" stroke="midnightblue" points="148.005,-81.7119 137.479,-82.9138 146.457,-88.5386 148.005,-81.7119"/>
</g>
<!-- Node3 -->
<g id="node3" class="node"><title>Node3</title>
<g id="a_node3"><a xlink:href="a00474.html" target="_top" xlink:title="local iterators ">
<polygon fill="white" stroke="black" points="174.5,-0.5 174.5,-58.5 310.5,-58.5 310.5,-0.5 174.5,-0.5"/>
<text text-anchor="start" x="182.5" y="-47.3" font-family="Helvetica,sans-Serif" font-size="9.00">std::__detail::_Local</text>
<text text-anchor="start" x="182.5" y="-37.3" font-family="Helvetica,sans-Serif" font-size="9.00">_iterator&lt; _Key, _Value,</text>
<text text-anchor="start" x="182.5" y="-27.3" font-family="Helvetica,sans-Serif" font-size="9.00"> _ExtractKey, _H1, _H2,</text>
<text text-anchor="start" x="182.5" y="-17.3" font-family="Helvetica,sans-Serif" font-size="9.00"> _Hash, __constant_iterators,</text>
<text text-anchor="middle" x="242.5" y="-7.3" font-family="Helvetica,sans-Serif" font-size="9.00"> __cache &gt;</text>
</a>
</g>
</g>
<!-- Node1&#45;&gt;Node3 -->
<g id="edge2" class="edge"><title>Node1&#45;&gt;Node3</title>
<path fill="none" stroke="midnightblue" d="M147.507,-50.266C156.451,-48.29 165.511,-46.2883 174.296,-44.3474"/>
<polygon fill="midnightblue" stroke="midnightblue" points="146.488,-46.9064 137.479,-52.4814 147.999,-53.7416 146.488,-46.9064"/>
</g>
</g>
</svg>
