<?xml version="1.0" encoding="UTF-8" standalone="no"?>
<!DOCTYPE svg PUBLIC "-//W3C//DTD SVG 1.1//EN"
 "http://www.w3.org/Graphics/SVG/1.1/DTD/svg11.dtd">
<!-- Generated by graphviz version 2.38.0 (20140413.2041)
 -->
<!-- Title: Graphical Class Hierarchy Pages: 1 -->
<svg width="268pt" height="57pt"
 viewBox="0.00 0.00 268.00 57.00" xmlns="http://www.w3.org/2000/svg" xmlns:xlink="http://www.w3.org/1999/xlink">
<g id="graph0" class="graph" transform="scale(1 1) rotate(0) translate(4 53)">
<title>Graphical Class Hierarchy</title>
<polygon fill="white" stroke="none" points="-4,4 -4,-53 264,-53 264,4 -4,4"/>
<!-- Node1 -->
<g id="node1" class="node"><title>Node1</title>
<g id="a_node1"><a xlink:href="a00427.html" target="_top" xlink:title="std::iterator\&lt; input\l_iterator_tag, _Tp, \l_Dist, const _Tp *, const\l _Tp &amp; \&gt;">
<polygon fill="white" stroke="black" points="0,-0.5 0,-48.5 114,-48.5 114,-0.5 0,-0.5"/>
<text text-anchor="start" x="8" y="-37.3" font-family="Helvetica,sans-Serif" font-size="9.00">std::iterator&lt; input</text>
<text text-anchor="start" x="8" y="-27.3" font-family="Helvetica,sans-Serif" font-size="9.00">_iterator_tag, _Tp, </text>
<text text-anchor="start" x="8" y="-17.3" font-family="Helvetica,sans-Serif" font-size="9.00">_Dist, const _Tp *, const</text>
<text text-anchor="middle" x="57" y="-7.3" font-family="Helvetica,sans-Serif" font-size="9.00"> _Tp &amp; &gt;</text>
</a>
</g>
</g>
<!-- Node2 -->
<g id="node2" class="node"><title>Node2</title>
<g id="a_node2"><a xlink:href="a00616.html" target="_top" xlink:title="Provides input iterator semantics for streams. ">
<polygon fill="white" stroke="black" points="150,-5.5 150,-43.5 260,-43.5 260,-5.5 150,-5.5"/>
<text text-anchor="start" x="158" y="-32.3" font-family="Helvetica,sans-Serif" font-size="9.00">std::istream_iterator</text>
<text text-anchor="start" x="158" y="-22.3" font-family="Helvetica,sans-Serif" font-size="9.00">&lt; _Tp, _CharT, _Traits,</text>
<text text-anchor="middle" x="205" y="-12.3" font-family="Helvetica,sans-Serif" font-size="9.00"> _Dist &gt;</text>
</a>
</g>
</g>
<!-- Node1&#45;&gt;Node2 -->
<g id="edge1" class="edge"><title>Node1&#45;&gt;Node2</title>
<path fill="none" stroke="midnightblue" d="M124.054,-24.5C132.669,-24.5 141.414,-24.5 149.804,-24.5"/>
<polygon fill="midnightblue" stroke="midnightblue" points="124.03,-21.0001 114.03,-24.5 124.03,-28.0001 124.03,-21.0001"/>
</g>
</g>
</svg>
