<?xml version="1.0" encoding="UTF-8" standalone="no"?>
<!DOCTYPE svg PUBLIC "-//W3C//DTD SVG 1.1//EN"
 "http://www.w3.org/Graphics/SVG/1.1/DTD/svg11.dtd">
<!-- Generated by graphviz version 2.38.0 (20140413.2041)
 -->
<!-- Title: Graphical Class Hierarchy Pages: 1 -->
<svg width="268pt" height="94pt"
 viewBox="0.00 0.00 268.00 94.00" xmlns="http://www.w3.org/2000/svg" xmlns:xlink="http://www.w3.org/1999/xlink">
<g id="graph0" class="graph" transform="scale(1 1) rotate(0) translate(4 90)">
<title>Graphical Class Hierarchy</title>
<polygon fill="white" stroke="none" points="-4,4 -4,-90 264,-90 264,4 -4,4"/>
<!-- Node1 -->
<g id="node1" class="node"><title>Node1</title>
<g id="a_node1"><a xlink:href="a00302.html" target="_top" xlink:title="Stored hash. ">
<polygon fill="white" stroke="black" points="0.5,-57.5 0.5,-85.5 103.5,-85.5 103.5,-57.5 0.5,-57.5"/>
<text text-anchor="start" x="8.5" y="-74.3" font-family="Helvetica,sans-Serif" font-size="9.00">__gnu_pbds::detail</text>
<text text-anchor="middle" x="52" y="-64.3" font-family="Helvetica,sans-Serif" font-size="9.00">::stored_hash&lt; _Th &gt;</text>
</a>
</g>
</g>
<!-- Node2 -->
<g id="node2" class="node"><title>Node2</title>
<g id="a_node2"><a xlink:href="a00300.html" target="_top" xlink:title="Primary template for representation of stored data. Two types of data can be stored: value and hash...">
<polygon fill="white" stroke="black" points="140,-57.5 140,-85.5 260,-85.5 260,-57.5 140,-57.5"/>
<text text-anchor="start" x="148" y="-74.3" font-family="Helvetica,sans-Serif" font-size="9.00">__gnu_pbds::detail</text>
<text text-anchor="middle" x="200" y="-64.3" font-family="Helvetica,sans-Serif" font-size="9.00">::stored_data&lt; _Tv, _Th &gt;</text>
</a>
</g>
</g>
<!-- Node1&#45;&gt;Node2 -->
<g id="edge1" class="edge"><title>Node1&#45;&gt;Node2</title>
<path fill="none" stroke="midnightblue" d="M113.692,-71.5C122.363,-71.5 131.272,-71.5 139.911,-71.5"/>
<polygon fill="midnightblue" stroke="midnightblue" points="113.654,-68.0001 103.654,-71.5 113.654,-75.0001 113.654,-68.0001"/>
</g>
<!-- Node3 -->
<g id="node3" class="node"><title>Node3</title>
<g id="a_node3"><a xlink:href="a00303.html" target="_top" xlink:title="Stored value. ">
<polygon fill="white" stroke="black" points="0,-8.5 0,-36.5 104,-36.5 104,-8.5 0,-8.5"/>
<text text-anchor="start" x="8" y="-25.3" font-family="Helvetica,sans-Serif" font-size="9.00">__gnu_pbds::detail</text>
<text text-anchor="middle" x="52" y="-15.3" font-family="Helvetica,sans-Serif" font-size="9.00">::stored_value&lt; _Tv &gt;</text>
</a>
</g>
</g>
<!-- Node3&#45;&gt;Node2 -->
<g id="edge2" class="edge"><title>Node3&#45;&gt;Node2</title>
<path fill="none" stroke="midnightblue" d="M104.724,-39.8593C121.907,-45.6263 140.814,-51.9717 157.156,-57.4565"/>
<polygon fill="midnightblue" stroke="midnightblue" points="105.432,-36.4051 94.8377,-36.5414 103.204,-43.0414 105.432,-36.4051"/>
</g>
<!-- Node4 -->
<g id="node4" class="node"><title>Node4</title>
<g id="a_node4"><a xlink:href="a00301.html" target="_top" xlink:title="Specialization for representation of stored data of just value type. ">
<polygon fill="white" stroke="black" points="152.5,-0.5 152.5,-38.5 247.5,-38.5 247.5,-0.5 152.5,-0.5"/>
<text text-anchor="start" x="160.5" y="-27.3" font-family="Helvetica,sans-Serif" font-size="9.00">__gnu_pbds::detail</text>
<text text-anchor="start" x="160.5" y="-17.3" font-family="Helvetica,sans-Serif" font-size="9.00">::stored_data&lt; _Tv,</text>
<text text-anchor="middle" x="200" y="-7.3" font-family="Helvetica,sans-Serif" font-size="9.00"> null_type &gt;</text>
</a>
</g>
</g>
<!-- Node3&#45;&gt;Node4 -->
<g id="edge3" class="edge"><title>Node3&#45;&gt;Node4</title>
<path fill="none" stroke="midnightblue" d="M114.117,-21.2442C126.824,-20.9831 140.023,-20.7119 152.121,-20.4633"/>
<polygon fill="midnightblue" stroke="midnightblue" points="113.99,-17.746 104.064,-21.4507 114.134,-24.7445 113.99,-17.746"/>
</g>
</g>
</svg>
