<?xml version="1.0" encoding="UTF-8" standalone="no"?>
<!DOCTYPE svg PUBLIC "-//W3C//DTD SVG 1.1//EN"
 "http://www.w3.org/Graphics/SVG/1.1/DTD/svg11.dtd">
<!-- Generated by graphviz version 2.38.0 (20140413.2041)
 -->
<!-- Title: Graphical Class Hierarchy Pages: 1 -->
<svg width="273pt" height="57pt"
 viewBox="0.00 0.00 273.00 57.00" xmlns="http://www.w3.org/2000/svg" xmlns:xlink="http://www.w3.org/1999/xlink">
<g id="graph0" class="graph" transform="scale(1 1) rotate(0) translate(4 53)">
<title>Graphical Class Hierarchy</title>
<polygon fill="white" stroke="none" points="-4,4 -4,-53 269,-53 269,4 -4,4"/>
<!-- Node1 -->
<g id="node1" class="node"><title>Node1</title>
<g id="a_node1"><a xlink:href="a00427.html" target="_top" xlink:title="std::iterator\&lt; input\l_iterator_tag, _CharT,\l _Traits::off_type, _CharT\l *, _CharT \&gt;">
<polygon fill="white" stroke="black" points="0,-0.5 0,-48.5 119,-48.5 119,-0.5 0,-0.5"/>
<text text-anchor="start" x="8" y="-37.3" font-family="Helvetica,sans-Serif" font-size="9.00">std::iterator&lt; input</text>
<text text-anchor="start" x="8" y="-27.3" font-family="Helvetica,sans-Serif" font-size="9.00">_iterator_tag, _CharT,</text>
<text text-anchor="start" x="8" y="-17.3" font-family="Helvetica,sans-Serif" font-size="9.00"> _Traits::off_type, _CharT</text>
<text text-anchor="middle" x="59.5" y="-7.3" font-family="Helvetica,sans-Serif" font-size="9.00"> *, _CharT &gt;</text>
</a>
</g>
</g>
<!-- Node2 -->
<g id="node2" class="node"><title>Node2</title>
<g id="a_node2"><a xlink:href="a00617.html" target="_top" xlink:title="Provides input iterator semantics for streambufs. ">
<polygon fill="white" stroke="black" points="155,-10.5 155,-38.5 265,-38.5 265,-10.5 155,-10.5"/>
<text text-anchor="start" x="163" y="-27.3" font-family="Helvetica,sans-Serif" font-size="9.00">std::istreambuf_iterator</text>
<text text-anchor="middle" x="210" y="-17.3" font-family="Helvetica,sans-Serif" font-size="9.00">&lt; _CharT, _Traits &gt;</text>
</a>
</g>
</g>
<!-- Node1&#45;&gt;Node2 -->
<g id="edge1" class="edge"><title>Node1&#45;&gt;Node2</title>
<path fill="none" stroke="midnightblue" d="M129.42,-24.5C137.868,-24.5 146.408,-24.5 154.6,-24.5"/>
<polygon fill="midnightblue" stroke="midnightblue" points="129.191,-21.0001 119.191,-24.5 129.191,-28.0001 129.191,-21.0001"/>
</g>
</g>
</svg>
