<?xml version="1.0" encoding="UTF-8" standalone="no"?>
<!DOCTYPE svg PUBLIC "-//W3C//DTD SVG 1.1//EN"
 "http://www.w3.org/Graphics/SVG/1.1/DTD/svg11.dtd">
<!-- Generated by graphviz version 2.38.0 (20140413.2041)
 -->
<!-- Title: Graphical Class Hierarchy Pages: 1 -->
<svg width="346pt" height="47pt"
 viewBox="0.00 0.00 346.00 47.00" xmlns="http://www.w3.org/2000/svg" xmlns:xlink="http://www.w3.org/1999/xlink">
<g id="graph0" class="graph" transform="scale(1 1) rotate(0) translate(4 43)">
<title>Graphical Class Hierarchy</title>
<polygon fill="white" stroke="none" points="-4,4 -4,-43 342,-43 342,4 -4,4"/>
<!-- Node1 -->
<g id="node1" class="node"><title>Node1</title>
<g id="a_node1"><a xlink:href="a00703.html" target="_top" xlink:title="std::unary_function\l\&lt; _SecondArgumentType,\l _ResultType \&gt;">
<polygon fill="white" stroke="black" points="0,-0.5 0,-38.5 123,-38.5 123,-0.5 0,-0.5"/>
<text text-anchor="start" x="8" y="-27.3" font-family="Helvetica,sans-Serif" font-size="9.00">std::unary_function</text>
<text text-anchor="start" x="8" y="-17.3" font-family="Helvetica,sans-Serif" font-size="9.00">&lt; _SecondArgumentType,</text>
<text text-anchor="middle" x="61.5" y="-7.3" font-family="Helvetica,sans-Serif" font-size="9.00"> _ResultType &gt;</text>
</a>
</g>
</g>
<!-- Node2 -->
<g id="node2" class="node"><title>Node2</title>
<g id="a_node2"><a xlink:href="a00080.html" target="_top" xlink:title="Similar to std::binder1st, but giving the argument types explicitly. ">
<polygon fill="white" stroke="black" points="159,-0.5 159,-38.5 338,-38.5 338,-0.5 159,-0.5"/>
<text text-anchor="start" x="167" y="-27.3" font-family="Helvetica,sans-Serif" font-size="9.00">__gnu_parallel::__binder1st</text>
<text text-anchor="start" x="167" y="-17.3" font-family="Helvetica,sans-Serif" font-size="9.00">&lt; _Operation, _FirstArgumentType,</text>
<text text-anchor="middle" x="248.5" y="-7.3" font-family="Helvetica,sans-Serif" font-size="9.00"> _SecondArgumentType, _ResultType &gt;</text>
</a>
</g>
</g>
<!-- Node1&#45;&gt;Node2 -->
<g id="edge1" class="edge"><title>Node1&#45;&gt;Node2</title>
<path fill="none" stroke="midnightblue" d="M133.204,-19.5C141.628,-19.5 150.307,-19.5 158.941,-19.5"/>
<polygon fill="midnightblue" stroke="midnightblue" points="133.076,-16.0001 123.076,-19.5 133.076,-23.0001 133.076,-16.0001"/>
</g>
</g>
</svg>
