<?xml version="1.0" encoding="UTF-8" standalone="no"?>
<!DOCTYPE svg PUBLIC "-//W3C//DTD SVG 1.1//EN"
 "http://www.w3.org/Graphics/SVG/1.1/DTD/svg11.dtd">
<!-- Generated by graphviz version 2.38.0 (20140413.2041)
 -->
<!-- Title: Graphical Class Hierarchy Pages: 1 -->
<svg width="233pt" height="37pt"
 viewBox="0.00 0.00 233.00 37.00" xmlns="http://www.w3.org/2000/svg" xmlns:xlink="http://www.w3.org/1999/xlink">
<g id="graph0" class="graph" transform="scale(1 1) rotate(0) translate(4 33)">
<title>Graphical Class Hierarchy</title>
<polygon fill="white" stroke="none" points="-4,4 -4,-33 229,-33 229,4 -4,4"/>
<!-- Node1 -->
<g id="node1" class="node"><title>Node1</title>
<g id="a_node1"><a xlink:href="a00421.html" target="_top" xlink:title="Uniform interface to all allocator types. ">
<polygon fill="white" stroke="black" points="0,-0.5 0,-28.5 93,-28.5 93,-0.5 0,-0.5"/>
<text text-anchor="start" x="8" y="-17.3" font-family="Helvetica,sans-Serif" font-size="9.00">std::allocator_traits</text>
<text text-anchor="middle" x="46.5" y="-7.3" font-family="Helvetica,sans-Serif" font-size="9.00">&lt; _Alloc &gt;</text>
</a>
</g>
</g>
<!-- Node2 -->
<g id="node2" class="node"><title>Node2</title>
<g id="a_node2"><a xlink:href="a00001.html" target="_top" xlink:title="Uniform interface to C++98 and C++0x allocators. ">
<polygon fill="white" stroke="black" points="129,-0.5 129,-28.5 225,-28.5 225,-0.5 129,-0.5"/>
<text text-anchor="start" x="137" y="-17.3" font-family="Helvetica,sans-Serif" font-size="9.00">__gnu_cxx::__alloc</text>
<text text-anchor="middle" x="177" y="-7.3" font-family="Helvetica,sans-Serif" font-size="9.00">_traits&lt; _Alloc &gt;</text>
</a>
</g>
</g>
<!-- Node1&#45;&gt;Node2 -->
<g id="edge1" class="edge"><title>Node1&#45;&gt;Node2</title>
<path fill="none" stroke="midnightblue" d="M103.354,-14.5C111.82,-14.5 120.484,-14.5 128.744,-14.5"/>
<polygon fill="midnightblue" stroke="midnightblue" points="103.166,-11.0001 93.1661,-14.5 103.166,-18.0001 103.166,-11.0001"/>
</g>
</g>
</svg>
