<?xml version="1.0" encoding="UTF-8" standalone="no"?>
<!DOCTYPE svg PUBLIC "-//W3C//DTD SVG 1.1//EN"
 "http://www.w3.org/Graphics/SVG/1.1/DTD/svg11.dtd">
<!-- Generated by graphviz version 2.38.0 (20140413.2041)
 -->
<!-- Title: Graphical Class Hierarchy Pages: 1 -->
<svg width="279pt" height="57pt"
 viewBox="0.00 0.00 279.00 57.00" xmlns="http://www.w3.org/2000/svg" xmlns:xlink="http://www.w3.org/1999/xlink">
<g id="graph0" class="graph" transform="scale(1 1) rotate(0) translate(4 53)">
<title>Graphical Class Hierarchy</title>
<polygon fill="white" stroke="none" points="-4,4 -4,-53 275,-53 275,4 -4,4"/>
<!-- Node1 -->
<g id="node1" class="node"><title>Node1</title>
<g id="a_node1"><a xlink:href="a00413.html" target="_top" xlink:title="std::__detail::_Hashtable\l_ebo_helper\&lt; 0, _H2 \&gt;">
<polygon fill="white" stroke="black" points="0,-10.5 0,-38.5 118,-38.5 118,-10.5 0,-10.5"/>
<text text-anchor="start" x="8" y="-27.3" font-family="Helvetica,sans-Serif" font-size="9.00">std::__detail::_Hashtable</text>
<text text-anchor="middle" x="59" y="-17.3" font-family="Helvetica,sans-Serif" font-size="9.00">_ebo_helper&lt; 0, _H2 &gt;</text>
</a>
</g>
</g>
<!-- Node2 -->
<g id="node2" class="node"><title>Node2</title>
<g id="a_node2"><a xlink:href="a00475.html" target="_top" xlink:title="Partial specialization used when nodes contain a cached hash code. ">
<polygon fill="white" stroke="black" points="154,-0.5 154,-48.5 271,-48.5 271,-0.5 154,-0.5"/>
<text text-anchor="start" x="162" y="-37.3" font-family="Helvetica,sans-Serif" font-size="9.00">std::__detail::_Local</text>
<text text-anchor="start" x="162" y="-27.3" font-family="Helvetica,sans-Serif" font-size="9.00">_iterator_base&lt; _Key,</text>
<text text-anchor="start" x="162" y="-17.3" font-family="Helvetica,sans-Serif" font-size="9.00"> _Value, _ExtractKey,</text>
<text text-anchor="middle" x="212.5" y="-7.3" font-family="Helvetica,sans-Serif" font-size="9.00"> _H1, _H2, _Hash, true &gt;</text>
</a>
</g>
</g>
<!-- Node1&#45;&gt;Node2 -->
<g id="edge1" class="edge"><title>Node1&#45;&gt;Node2</title>
<path fill="none" stroke="#8b1a1a" d="M128.391,-24.5C136.868,-24.5 145.47,-24.5 153.765,-24.5"/>
<polygon fill="#8b1a1a" stroke="#8b1a1a" points="128.141,-21.0001 118.141,-24.5 128.141,-28.0001 128.141,-21.0001"/>
</g>
</g>
</svg>
