<?xml version="1.0" encoding="UTF-8" standalone="no"?>
<!DOCTYPE svg PUBLIC "-//W3C//DTD SVG 1.1//EN"
 "http://www.w3.org/Graphics/SVG/1.1/DTD/svg11.dtd">
<!-- Generated by graphviz version 2.38.0 (20140413.2041)
 -->
<!-- Title: Graphical Class Hierarchy Pages: 1 -->
<svg width="244pt" height="47pt"
 viewBox="0.00 0.00 244.00 47.00" xmlns="http://www.w3.org/2000/svg" xmlns:xlink="http://www.w3.org/1999/xlink">
<g id="graph0" class="graph" transform="scale(1 1) rotate(0) translate(4 43)">
<title>Graphical Class Hierarchy</title>
<polygon fill="white" stroke="none" points="-4,4 -4,-43 240,-43 240,4 -4,4"/>
<!-- Node1 -->
<g id="node1" class="node"><title>Node1</title>
<g id="a_node1"><a xlink:href="a00423.html" target="_top" xlink:title="std::binary_function\l\&lt; const _Tp *, _Arg,\l _Ret \&gt;">
<polygon fill="white" stroke="black" points="0,-0.5 0,-38.5 96,-38.5 96,-0.5 0,-0.5"/>
<text text-anchor="start" x="8" y="-27.3" font-family="Helvetica,sans-Serif" font-size="9.00">std::binary_function</text>
<text text-anchor="start" x="8" y="-17.3" font-family="Helvetica,sans-Serif" font-size="9.00">&lt; const _Tp *, _Arg,</text>
<text text-anchor="middle" x="48" y="-7.3" font-family="Helvetica,sans-Serif" font-size="9.00"> _Ret &gt;</text>
</a>
</g>
</g>
<!-- Node2 -->
<g id="node2" class="node"><title>Node2</title>
<g id="a_node2"><a xlink:href="a00542.html" target="_top" xlink:title="One of the adaptors for member pointers. ">
<polygon fill="white" stroke="black" points="132,-5.5 132,-33.5 236,-33.5 236,-5.5 132,-5.5"/>
<text text-anchor="start" x="140" y="-22.3" font-family="Helvetica,sans-Serif" font-size="9.00">std::const_mem_fun1</text>
<text text-anchor="middle" x="184" y="-12.3" font-family="Helvetica,sans-Serif" font-size="9.00">_t&lt; _Ret, _Tp, _Arg &gt;</text>
</a>
</g>
</g>
<!-- Node1&#45;&gt;Node2 -->
<g id="edge1" class="edge"><title>Node1&#45;&gt;Node2</title>
<path fill="none" stroke="midnightblue" d="M106.351,-19.5C114.751,-19.5 123.359,-19.5 131.629,-19.5"/>
<polygon fill="midnightblue" stroke="midnightblue" points="106.243,-16.0001 96.2434,-19.5 106.243,-23.0001 106.243,-16.0001"/>
</g>
</g>
</svg>
