<?xml version="1.0" encoding="UTF-8" standalone="no"?>
<!DOCTYPE svg PUBLIC "-//W3C//DTD SVG 1.1//EN"
 "http://www.w3.org/Graphics/SVG/1.1/DTD/svg11.dtd">
<!-- Generated by graphviz version 2.38.0 (20140413.2041)
 -->
<!-- Title: Graphical Class Hierarchy Pages: 1 -->
<svg width="546pt" height="730pt"
 viewBox="0.00 0.00 546.00 730.00" xmlns="http://www.w3.org/2000/svg" xmlns:xlink="http://www.w3.org/1999/xlink">
<g id="graph0" class="graph" transform="scale(1 1) rotate(0) translate(4 726)">
<title>Graphical Class Hierarchy</title>
<polygon fill="white" stroke="none" points="-4,4 -4,-726 542,-726 542,4 -4,4"/>
<!-- Node1 -->
<g id="node1" class="node"><title>Node1</title>
<g id="a_node1"><a xlink:href="a00409.html" target="_top" xlink:title="std::__detail::_Equality\l\&lt; _Key, _Value, _Alloc,\l _ExtractKey, _Equal, _H1,\l _H2, _Hash, _RehashPolicy,\l _Traits \&gt;">
<polygon fill="white" stroke="black" points="218,-509.5 218,-567.5 355,-567.5 355,-509.5 218,-509.5"/>
<text text-anchor="start" x="226" y="-556.3" font-family="Helvetica,sans-Serif" font-size="9.00">std::__detail::_Equality</text>
<text text-anchor="start" x="226" y="-546.3" font-family="Helvetica,sans-Serif" font-size="9.00">&lt; _Key, _Value, _Alloc,</text>
<text text-anchor="start" x="226" y="-536.3" font-family="Helvetica,sans-Serif" font-size="9.00"> _ExtractKey, _Equal, _H1,</text>
<text text-anchor="start" x="226" y="-526.3" font-family="Helvetica,sans-Serif" font-size="9.00"> _H2, _Hash, _RehashPolicy,</text>
<text text-anchor="middle" x="286.5" y="-516.3" font-family="Helvetica,sans-Serif" font-size="9.00"> _Traits &gt;</text>
</a>
</g>
</g>
<!-- Node2 -->
<g id="node2" class="node"><title>Node2</title>
<g id="a_node2"><a xlink:href="a00411.html" target="_top" xlink:title="std::_Hashtable\&lt; _Key,\l _Value, _Alloc, _ExtractKey,\l _Equal, _H1, _H2, _Hash,\l _RehashPolicy, _Traits \&gt;">
<polygon fill="white" stroke="black" points="404,-475.5 404,-523.5 538,-523.5 538,-475.5 404,-475.5"/>
<text text-anchor="start" x="412" y="-512.3" font-family="Helvetica,sans-Serif" font-size="9.00">std::_Hashtable&lt; _Key,</text>
<text text-anchor="start" x="412" y="-502.3" font-family="Helvetica,sans-Serif" font-size="9.00"> _Value, _Alloc, _ExtractKey,</text>
<text text-anchor="start" x="412" y="-492.3" font-family="Helvetica,sans-Serif" font-size="9.00"> _Equal, _H1, _H2, _Hash,</text>
<text text-anchor="middle" x="471" y="-482.3" font-family="Helvetica,sans-Serif" font-size="9.00"> _RehashPolicy, _Traits &gt;</text>
</a>
</g>
</g>
<!-- Node1&#45;&gt;Node2 -->
<g id="edge1" class="edge"><title>Node1&#45;&gt;Node2</title>
<path fill="none" stroke="midnightblue" d="M365.011,-521.936C377.965,-519.168 391.297,-516.319 403.93,-513.619"/>
<polygon fill="midnightblue" stroke="midnightblue" points="364.245,-518.521 355.197,-524.033 365.708,-525.366 364.245,-518.521"/>
</g>
<!-- Node3 -->
<g id="node3" class="node"><title>Node3</title>
<g id="a_node3"><a xlink:href="a00410.html" target="_top" xlink:title="std::__detail::_Hash\l_code_base\&lt; _Key, _Value,\l _ExtractKey, _H1, _H2,\l _Hash, _Traits::__hash_cached\l::value \&gt;">
<polygon fill="white" stroke="black" points="10,-288.5 10,-346.5 159,-346.5 159,-288.5 10,-288.5"/>
<text text-anchor="start" x="18" y="-335.3" font-family="Helvetica,sans-Serif" font-size="9.00">std::__detail::_Hash</text>
<text text-anchor="start" x="18" y="-325.3" font-family="Helvetica,sans-Serif" font-size="9.00">_code_base&lt; _Key, _Value,</text>
<text text-anchor="start" x="18" y="-315.3" font-family="Helvetica,sans-Serif" font-size="9.00"> _ExtractKey, _H1, _H2,</text>
<text text-anchor="start" x="18" y="-305.3" font-family="Helvetica,sans-Serif" font-size="9.00"> _Hash, _Traits::__hash_cached</text>
<text text-anchor="middle" x="84.5" y="-295.3" font-family="Helvetica,sans-Serif" font-size="9.00">::value &gt;</text>
</a>
</g>
</g>
<!-- Node4 -->
<g id="node4" class="node"><title>Node4</title>
<g id="a_node4"><a xlink:href="a00464.html" target="_top" xlink:title="std::__detail::_Hashtable\l_base\&lt; _Key, _Value, _ExtractKey,\l _Equal, _H1, _H2, _Hash, _Traits \&gt;">
<polygon fill="white" stroke="black" points="205,-298.5 205,-336.5 368,-336.5 368,-298.5 205,-298.5"/>
<text text-anchor="start" x="213" y="-325.3" font-family="Helvetica,sans-Serif" font-size="9.00">std::__detail::_Hashtable</text>
<text text-anchor="start" x="213" y="-315.3" font-family="Helvetica,sans-Serif" font-size="9.00">_base&lt; _Key, _Value, _ExtractKey,</text>
<text text-anchor="middle" x="286.5" y="-305.3" font-family="Helvetica,sans-Serif" font-size="9.00"> _Equal, _H1, _H2, _Hash, _Traits &gt;</text>
</a>
</g>
</g>
<!-- Node3&#45;&gt;Node4 -->
<g id="edge2" class="edge"><title>Node3&#45;&gt;Node4</title>
<path fill="none" stroke="midnightblue" d="M169.378,-317.5C181.159,-317.5 193.247,-317.5 204.964,-317.5"/>
<polygon fill="midnightblue" stroke="midnightblue" points="169.121,-314 159.121,-317.5 169.121,-321 169.121,-314"/>
</g>
<!-- Node4&#45;&gt;Node2 -->
<g id="edge5" class="edge"><title>Node4&#45;&gt;Node2</title>
<path fill="none" stroke="midnightblue" d="M362.965,-341.883C364.696,-343.036 366.378,-344.241 368,-345.5 413.212,-380.609 444.965,-441.629 460.046,-475.357"/>
<polygon fill="midnightblue" stroke="midnightblue" points="364.335,-338.627 353.948,-336.542 360.768,-344.65 364.335,-338.627"/>
</g>
<!-- Node5 -->
<g id="node5" class="node"><title>Node5</title>
<g id="a_node5"><a xlink:href="a00411.html" target="_top" xlink:title="std::_Hashtable\&lt; _Key,\l _Tp, _Hash, _Pred, \l_Alloc \&gt;">
<polygon fill="white" stroke="black" points="415.5,-186.5 415.5,-224.5 526.5,-224.5 526.5,-186.5 415.5,-186.5"/>
<text text-anchor="start" x="423.5" y="-213.3" font-family="Helvetica,sans-Serif" font-size="9.00">std::_Hashtable&lt; _Key,</text>
<text text-anchor="start" x="423.5" y="-203.3" font-family="Helvetica,sans-Serif" font-size="9.00"> _Tp, _Hash, _Pred, </text>
<text text-anchor="middle" x="471" y="-193.3" font-family="Helvetica,sans-Serif" font-size="9.00">_Alloc &gt;</text>
</a>
</g>
</g>
<!-- Node4&#45;&gt;Node5 -->
<g id="edge3" class="edge"><title>Node4&#45;&gt;Node5</title>
<path fill="none" stroke="midnightblue" d="M360.677,-293.49C363.213,-291.923 365.665,-290.261 368,-288.5 389.861,-272.01 383.149,-256.249 404,-238.5 410.146,-233.269 417.264,-228.613 424.503,-224.568"/>
<polygon fill="midnightblue" stroke="midnightblue" points="358.795,-290.532 351.769,-298.462 362.207,-296.645 358.795,-290.532"/>
</g>
<!-- Node6 -->
<g id="node6" class="node"><title>Node6</title>
<g id="a_node6"><a xlink:href="a00411.html" target="_top" xlink:title="std::_Hashtable\&lt; _Value,\l _Hash, _Pred, _Alloc \&gt;">
<polygon fill="white" stroke="black" points="411.5,-248.5 411.5,-276.5 530.5,-276.5 530.5,-248.5 411.5,-248.5"/>
<text text-anchor="start" x="419.5" y="-265.3" font-family="Helvetica,sans-Serif" font-size="9.00">std::_Hashtable&lt; _Value,</text>
<text text-anchor="middle" x="471" y="-255.3" font-family="Helvetica,sans-Serif" font-size="9.00"> _Hash, _Pred, _Alloc &gt;</text>
</a>
</g>
</g>
<!-- Node4&#45;&gt;Node6 -->
<g id="edge4" class="edge"><title>Node4&#45;&gt;Node6</title>
<path fill="none" stroke="midnightblue" d="M360.219,-295.585C381.492,-289.174 404.167,-282.34 423.353,-276.558"/>
<polygon fill="midnightblue" stroke="midnightblue" points="359.126,-292.258 350.562,-298.495 361.146,-298.961 359.126,-292.258"/>
</g>
<!-- Node7 -->
<g id="node7" class="node"><title>Node7</title>
<g id="a_node7"><a xlink:href="a00413.html" target="_top" xlink:title="std::__detail::_Hashtable\l_ebo_helper\&lt; 0, __alloctr\l_rebind\&lt; _Alloc, __detail\l::_Hash_node\&lt; _Value, _Traits\l::__hash_cached::value \&gt; \&gt;::__type \&gt;">
<polygon fill="white" stroke="black" points="0,-432.5 0,-490.5 169,-490.5 169,-432.5 0,-432.5"/>
<text text-anchor="start" x="8" y="-479.3" font-family="Helvetica,sans-Serif" font-size="9.00">std::__detail::_Hashtable</text>
<text text-anchor="start" x="8" y="-469.3" font-family="Helvetica,sans-Serif" font-size="9.00">_ebo_helper&lt; 0, __alloctr</text>
<text text-anchor="start" x="8" y="-459.3" font-family="Helvetica,sans-Serif" font-size="9.00">_rebind&lt; _Alloc, __detail</text>
<text text-anchor="start" x="8" y="-449.3" font-family="Helvetica,sans-Serif" font-size="9.00">::_Hash_node&lt; _Value, _Traits</text>
<text text-anchor="middle" x="84.5" y="-439.3" font-family="Helvetica,sans-Serif" font-size="9.00">::__hash_cached::value &gt; &gt;::__type &gt;</text>
</a>
</g>
</g>
<!-- Node8 -->
<g id="node8" class="node"><title>Node8</title>
<g id="a_node8"><a xlink:href="a00412.html" target="_top" xlink:title="std::__detail::_Hashtable\l_alloc\&lt; __alloctr_rebind\l\&lt; _Alloc, __detail::_Hash\l_node\&lt; _Value, _Traits::_\l_hash_cached::value \&gt; \&gt;::__type \&gt;">
<polygon fill="white" stroke="black" points="207,-432.5 207,-490.5 366,-490.5 366,-432.5 207,-432.5"/>
<text text-anchor="start" x="215" y="-479.3" font-family="Helvetica,sans-Serif" font-size="9.00">std::__detail::_Hashtable</text>
<text text-anchor="start" x="215" y="-469.3" font-family="Helvetica,sans-Serif" font-size="9.00">_alloc&lt; __alloctr_rebind</text>
<text text-anchor="start" x="215" y="-459.3" font-family="Helvetica,sans-Serif" font-size="9.00">&lt; _Alloc, __detail::_Hash</text>
<text text-anchor="start" x="215" y="-449.3" font-family="Helvetica,sans-Serif" font-size="9.00">_node&lt; _Value, _Traits::_</text>
<text text-anchor="middle" x="286.5" y="-439.3" font-family="Helvetica,sans-Serif" font-size="9.00">_hash_cached::value &gt; &gt;::__type &gt;</text>
</a>
</g>
</g>
<!-- Node7&#45;&gt;Node8 -->
<g id="edge6" class="edge"><title>Node7&#45;&gt;Node8</title>
<path fill="none" stroke="#8b1a1a" d="M179.198,-461.5C188.49,-461.5 197.855,-461.5 206.97,-461.5"/>
<polygon fill="#8b1a1a" stroke="#8b1a1a" points="179.159,-458 169.159,-461.5 179.159,-465 179.159,-458"/>
</g>
<!-- Node8&#45;&gt;Node2 -->
<g id="edge7" class="edge"><title>Node8&#45;&gt;Node2</title>
<path fill="none" stroke="#8b1a1a" d="M376.264,-479.982C385.55,-481.916 394.869,-483.856 403.838,-485.724"/>
<polygon fill="#8b1a1a" stroke="#8b1a1a" points="376.724,-476.503 366.221,-477.891 375.297,-483.356 376.724,-476.503"/>
</g>
<!-- Node9 -->
<g id="node9" class="node"><title>Node9</title>
<g id="a_node9"><a xlink:href="a00413.html" target="_top" xlink:title="std::__detail::_Hashtable\l_ebo_helper\&lt; 0, _Equal \&gt;">
<polygon fill="white" stroke="black" points="23,-365.5 23,-393.5 146,-393.5 146,-365.5 23,-365.5"/>
<text text-anchor="start" x="31" y="-382.3" font-family="Helvetica,sans-Serif" font-size="9.00">std::__detail::_Hashtable</text>
<text text-anchor="middle" x="84.5" y="-372.3" font-family="Helvetica,sans-Serif" font-size="9.00">_ebo_helper&lt; 0, _Equal &gt;</text>
</a>
</g>
</g>
<!-- Node9&#45;&gt;Node4 -->
<g id="edge8" class="edge"><title>Node9&#45;&gt;Node4</title>
<path fill="none" stroke="#8b1a1a" d="M145.183,-362.624C153.203,-360.275 161.311,-357.858 169,-355.5 188.424,-349.543 209.569,-342.742 228.447,-336.556"/>
<polygon fill="#8b1a1a" stroke="#8b1a1a" points="144.103,-359.293 135.479,-365.447 146.059,-366.015 144.103,-359.293"/>
</g>
<!-- Node10 -->
<g id="node10" class="node"><title>Node10</title>
<g id="a_node10"><a xlink:href="a00413.html" target="_top" xlink:title="std::__detail::_Hashtable\l_ebo_helper\&lt; 0, _NodeAlloc \&gt;">
<polygon fill="white" stroke="black" points="13.5,-241.5 13.5,-269.5 155.5,-269.5 155.5,-241.5 13.5,-241.5"/>
<text text-anchor="start" x="21.5" y="-258.3" font-family="Helvetica,sans-Serif" font-size="9.00">std::__detail::_Hashtable</text>
<text text-anchor="middle" x="84.5" y="-248.3" font-family="Helvetica,sans-Serif" font-size="9.00">_ebo_helper&lt; 0, _NodeAlloc &gt;</text>
</a>
</g>
</g>
<!-- Node11 -->
<g id="node11" class="node"><title>Node11</title>
<g id="a_node11"><a xlink:href="a00412.html" target="_top" xlink:title="std::__detail::_Hashtable\l_alloc\&lt; _NodeAlloc \&gt;">
<polygon fill="white" stroke="black" points="227.5,-251.5 227.5,-279.5 345.5,-279.5 345.5,-251.5 227.5,-251.5"/>
<text text-anchor="start" x="235.5" y="-268.3" font-family="Helvetica,sans-Serif" font-size="9.00">std::__detail::_Hashtable</text>
<text text-anchor="middle" x="286.5" y="-258.3" font-family="Helvetica,sans-Serif" font-size="9.00">_alloc&lt; _NodeAlloc &gt;</text>
</a>
</g>
</g>
<!-- Node10&#45;&gt;Node11 -->
<g id="edge9" class="edge"><title>Node10&#45;&gt;Node11</title>
<path fill="none" stroke="#8b1a1a" d="M165.734,-259.512C186.333,-260.542 208.098,-261.63 227.341,-262.592"/>
<polygon fill="#8b1a1a" stroke="#8b1a1a" points="165.894,-256.015 155.731,-259.012 165.544,-263.007 165.894,-256.015"/>
</g>
<!-- Node11&#45;&gt;Node5 -->
<g id="edge10" class="edge"><title>Node11&#45;&gt;Node5</title>
<path fill="none" stroke="#8b1a1a" d="M345.885,-248.465C353.345,-246.179 360.864,-243.821 368,-241.5 384.161,-236.242 401.643,-230.203 417.492,-224.592"/>
<polygon fill="#8b1a1a" stroke="#8b1a1a" points="344.702,-245.166 336.149,-251.419 346.734,-251.865 344.702,-245.166"/>
</g>
<!-- Node11&#45;&gt;Node6 -->
<g id="edge11" class="edge"><title>Node11&#45;&gt;Node6</title>
<path fill="none" stroke="#8b1a1a" d="M355.751,-264.378C374.041,-264.077 393.649,-263.755 411.368,-263.464"/>
<polygon fill="#8b1a1a" stroke="#8b1a1a" points="355.687,-260.879 345.746,-264.543 355.802,-267.878 355.687,-260.879"/>
</g>
<!-- Node12 -->
<g id="node12" class="node"><title>Node12</title>
<g id="a_node12"><a xlink:href="a00414.html" target="_top" xlink:title="std::__detail::_Insert\l\&lt; _Key, _Value, _Alloc,\l _ExtractKey, _Equal, \l_H1, _H2, _Hash, _RehashPolicy,\l _Traits \&gt;">
<polygon fill="white" stroke="black" points="208.5,-663.5 208.5,-721.5 364.5,-721.5 364.5,-663.5 208.5,-663.5"/>
<text text-anchor="start" x="216.5" y="-710.3" font-family="Helvetica,sans-Serif" font-size="9.00">std::__detail::_Insert</text>
<text text-anchor="start" x="216.5" y="-700.3" font-family="Helvetica,sans-Serif" font-size="9.00">&lt; _Key, _Value, _Alloc,</text>
<text text-anchor="start" x="216.5" y="-690.3" font-family="Helvetica,sans-Serif" font-size="9.00"> _ExtractKey, _Equal, </text>
<text text-anchor="start" x="216.5" y="-680.3" font-family="Helvetica,sans-Serif" font-size="9.00">_H1, _H2, _Hash, _RehashPolicy,</text>
<text text-anchor="middle" x="286.5" y="-670.3" font-family="Helvetica,sans-Serif" font-size="9.00"> _Traits &gt;</text>
</a>
</g>
</g>
<!-- Node12&#45;&gt;Node2 -->
<g id="edge12" class="edge"><title>Node12&#45;&gt;Node2</title>
<path fill="none" stroke="midnightblue" d="M364.523,-657.385C365.709,-656.443 366.869,-655.481 368,-654.5 411.179,-617.016 443.517,-556.996 459.289,-523.711"/>
<polygon fill="midnightblue" stroke="midnightblue" points="362.394,-654.606 356.36,-663.315 366.508,-660.269 362.394,-654.606"/>
</g>
<!-- Node13 -->
<g id="node13" class="node"><title>Node13</title>
<g id="a_node13"><a xlink:href="a00417.html" target="_top" xlink:title="std::__detail::_Map\l_base\&lt; _Key, _Value,\l _Alloc, _ExtractKey,\l _Equal, _H1, _H2, _Hash,\l _RehashPolicy, _Traits \&gt;">
<polygon fill="white" stroke="black" points="224,-586.5 224,-644.5 349,-644.5 349,-586.5 224,-586.5"/>
<text text-anchor="start" x="232" y="-633.3" font-family="Helvetica,sans-Serif" font-size="9.00">std::__detail::_Map</text>
<text text-anchor="start" x="232" y="-623.3" font-family="Helvetica,sans-Serif" font-size="9.00">_base&lt; _Key, _Value,</text>
<text text-anchor="start" x="232" y="-613.3" font-family="Helvetica,sans-Serif" font-size="9.00"> _Alloc, _ExtractKey,</text>
<text text-anchor="start" x="232" y="-603.3" font-family="Helvetica,sans-Serif" font-size="9.00"> _Equal, _H1, _H2, _Hash,</text>
<text text-anchor="middle" x="286.5" y="-593.3" font-family="Helvetica,sans-Serif" font-size="9.00"> _RehashPolicy, _Traits &gt;</text>
</a>
</g>
</g>
<!-- Node13&#45;&gt;Node2 -->
<g id="edge13" class="edge"><title>Node13&#45;&gt;Node2</title>
<path fill="none" stroke="midnightblue" d="M358.244,-583.17C361.576,-581.315 364.844,-579.421 368,-577.5 394.276,-561.5 421.863,-540.084 441.712,-523.741"/>
<polygon fill="midnightblue" stroke="midnightblue" points="356.453,-580.159 349.307,-587.981 359.771,-586.323 356.453,-580.159"/>
</g>
<!-- Node14 -->
<g id="node14" class="node"><title>Node14</title>
<g id="a_node14"><a xlink:href="a00409.html" target="_top" xlink:title="std::__detail::_Equality\l\&lt; _Key, _Value, _Alloc,\l _ExtractKey, _Equal, _H1,\l _H2, _Hash, _RehashPolicy,\l _Traits, _Unique_keys \&gt;">
<polygon fill="white" stroke="black" points="218,-174.5 218,-232.5 355,-232.5 355,-174.5 218,-174.5"/>
<text text-anchor="start" x="226" y="-221.3" font-family="Helvetica,sans-Serif" font-size="9.00">std::__detail::_Equality</text>
<text text-anchor="start" x="226" y="-211.3" font-family="Helvetica,sans-Serif" font-size="9.00">&lt; _Key, _Value, _Alloc,</text>
<text text-anchor="start" x="226" y="-201.3" font-family="Helvetica,sans-Serif" font-size="9.00"> _ExtractKey, _Equal, _H1,</text>
<text text-anchor="start" x="226" y="-191.3" font-family="Helvetica,sans-Serif" font-size="9.00"> _H2, _Hash, _RehashPolicy,</text>
<text text-anchor="middle" x="286.5" y="-181.3" font-family="Helvetica,sans-Serif" font-size="9.00"> _Traits, _Unique_keys &gt;</text>
</a>
</g>
</g>
<!-- Node14&#45;&gt;Node5 -->
<g id="edge14" class="edge"><title>Node14&#45;&gt;Node5</title>
<path fill="none" stroke="midnightblue" d="M365.516,-204.355C382.249,-204.538 399.588,-204.728 415.218,-204.9"/>
<polygon fill="midnightblue" stroke="midnightblue" points="365.235,-200.852 355.197,-204.242 365.158,-207.851 365.235,-200.852"/>
</g>
<!-- Node14&#45;&gt;Node6 -->
<g id="edge15" class="edge"><title>Node14&#45;&gt;Node6</title>
<path fill="none" stroke="midnightblue" d="M364.8,-228.49C385.894,-235.31 408.006,-242.458 426.484,-248.432"/>
<polygon fill="midnightblue" stroke="midnightblue" points="365.789,-225.131 355.197,-225.386 363.635,-231.792 365.789,-225.131"/>
</g>
<!-- Node15 -->
<g id="node15" class="node"><title>Node15</title>
<g id="a_node15"><a xlink:href="a00414.html" target="_top" xlink:title="std::__detail::_Insert\l\&lt; _Key, _Value, _Alloc,\l _ExtractKey, _Equal, \l_H1, _H2, _Hash, _RehashPolicy,\l _Traits, _Constant_iterators,\l _Unique_keys \&gt;">
<polygon fill="white" stroke="black" points="208.5,-87.5 208.5,-155.5 364.5,-155.5 364.5,-87.5 208.5,-87.5"/>
<text text-anchor="start" x="216.5" y="-144.3" font-family="Helvetica,sans-Serif" font-size="9.00">std::__detail::_Insert</text>
<text text-anchor="start" x="216.5" y="-134.3" font-family="Helvetica,sans-Serif" font-size="9.00">&lt; _Key, _Value, _Alloc,</text>
<text text-anchor="start" x="216.5" y="-124.3" font-family="Helvetica,sans-Serif" font-size="9.00"> _ExtractKey, _Equal, </text>
<text text-anchor="start" x="216.5" y="-114.3" font-family="Helvetica,sans-Serif" font-size="9.00">_H1, _H2, _Hash, _RehashPolicy,</text>
<text text-anchor="start" x="216.5" y="-104.3" font-family="Helvetica,sans-Serif" font-size="9.00"> _Traits, _Constant_iterators,</text>
<text text-anchor="middle" x="286.5" y="-94.3" font-family="Helvetica,sans-Serif" font-size="9.00"> _Unique_keys &gt;</text>
</a>
</g>
</g>
<!-- Node15&#45;&gt;Node5 -->
<g id="edge16" class="edge"><title>Node15&#45;&gt;Node5</title>
<path fill="none" stroke="midnightblue" d="M370.666,-159.779C390.799,-169.046 411.462,-178.556 428.691,-186.487"/>
<polygon fill="midnightblue" stroke="midnightblue" points="372.014,-156.547 361.467,-155.545 369.087,-162.905 372.014,-156.547"/>
</g>
<!-- Node15&#45;&gt;Node6 -->
<g id="edge17" class="edge"><title>Node15&#45;&gt;Node6</title>
<path fill="none" stroke="midnightblue" d="M365.608,-162.169C366.422,-162.935 367.22,-163.712 368,-164.5 392.339,-189.077 378.737,-209.873 404,-233.5 410.49,-239.57 418.457,-244.503 426.582,-248.464"/>
<polygon fill="midnightblue" stroke="midnightblue" points="367.767,-159.41 357.893,-155.568 363.216,-164.729 367.767,-159.41"/>
</g>
<!-- Node16 -->
<g id="node16" class="node"><title>Node16</title>
<g id="a_node16"><a xlink:href="a00417.html" target="_top" xlink:title="std::__detail::_Map\l_base\&lt; _Key, _Value,\l _Alloc, _ExtractKey,\l _Equal, _H1, _H2, _Hash,\l _RehashPolicy, _Traits,\l _Unique_keys \&gt;">
<polygon fill="white" stroke="black" points="224,-0.5 224,-68.5 349,-68.5 349,-0.5 224,-0.5"/>
<text text-anchor="start" x="232" y="-57.3" font-family="Helvetica,sans-Serif" font-size="9.00">std::__detail::_Map</text>
<text text-anchor="start" x="232" y="-47.3" font-family="Helvetica,sans-Serif" font-size="9.00">_base&lt; _Key, _Value,</text>
<text text-anchor="start" x="232" y="-37.3" font-family="Helvetica,sans-Serif" font-size="9.00"> _Alloc, _ExtractKey,</text>
<text text-anchor="start" x="232" y="-27.3" font-family="Helvetica,sans-Serif" font-size="9.00"> _Equal, _H1, _H2, _Hash,</text>
<text text-anchor="start" x="232" y="-17.3" font-family="Helvetica,sans-Serif" font-size="9.00"> _RehashPolicy, _Traits,</text>
<text text-anchor="middle" x="286.5" y="-7.3" font-family="Helvetica,sans-Serif" font-size="9.00"> _Unique_keys &gt;</text>
</a>
</g>
</g>
<!-- Node16&#45;&gt;Node5 -->
<g id="edge18" class="edge"><title>Node16&#45;&gt;Node5</title>
<path fill="none" stroke="midnightblue" d="M357.836,-69.7533C361.368,-72.2346 364.781,-74.8198 368,-77.5 406.87,-109.862 441,-159.103 458.188,-186.106"/>
<polygon fill="midnightblue" stroke="midnightblue" points="359.679,-66.7756 349.413,-64.1565 355.805,-72.6059 359.679,-66.7756"/>
</g>
<!-- Node16&#45;&gt;Node6 -->
<g id="edge19" class="edge"><title>Node16&#45;&gt;Node6</title>
<path fill="none" stroke="midnightblue" d="M357.13,-66.1199C361.145,-69.5745 364.83,-73.3604 368,-77.5 411.26,-133.995 358.608,-178.703 404,-233.5 409.11,-239.669 415.79,-244.565 422.935,-248.441"/>
<polygon fill="midnightblue" stroke="midnightblue" points="359.103,-63.2215 349.049,-59.8786 354.824,-68.7614 359.103,-63.2215"/>
</g>
<!-- Node17 -->
<g id="node17" class="node"><title>Node17</title>
<g id="a_node17"><a xlink:href="a00483.html" target="_top" xlink:title="std::__detail::_Rehash\l_base\&lt; _Key, _Value, \l_Alloc, _ExtractKey, _Equal,\l _H1, _H2, _Hash, _RehashPolicy,\l _Traits \&gt;">
<polygon fill="white" stroke="black" points="207.5,-355.5 207.5,-413.5 365.5,-413.5 365.5,-355.5 207.5,-355.5"/>
<text text-anchor="start" x="215.5" y="-402.3" font-family="Helvetica,sans-Serif" font-size="9.00">std::__detail::_Rehash</text>
<text text-anchor="start" x="215.5" y="-392.3" font-family="Helvetica,sans-Serif" font-size="9.00">_base&lt; _Key, _Value, </text>
<text text-anchor="start" x="215.5" y="-382.3" font-family="Helvetica,sans-Serif" font-size="9.00">_Alloc, _ExtractKey, _Equal,</text>
<text text-anchor="start" x="215.5" y="-372.3" font-family="Helvetica,sans-Serif" font-size="9.00"> _H1, _H2, _Hash, _RehashPolicy,</text>
<text text-anchor="middle" x="286.5" y="-362.3" font-family="Helvetica,sans-Serif" font-size="9.00"> _Traits &gt;</text>
</a>
</g>
</g>
<!-- Node17&#45;&gt;Node2 -->
<g id="edge22" class="edge"><title>Node17&#45;&gt;Node2</title>
<path fill="none" stroke="midnightblue" d="M361.259,-418.553C363.549,-419.854 365.801,-421.171 368,-422.5 394.012,-438.228 421.395,-459.174 441.232,-475.249"/>
<polygon fill="midnightblue" stroke="midnightblue" points="362.724,-415.365 352.273,-413.626 359.358,-421.503 362.724,-415.365"/>
</g>
<!-- Node17&#45;&gt;Node5 -->
<g id="edge20" class="edge"><title>Node17&#45;&gt;Node5</title>
<path fill="none" stroke="midnightblue" d="M364.901,-348.799C365.971,-347.728 367.006,-346.629 368,-345.5 401.164,-307.848 371.072,-276.359 404,-238.5 408.708,-233.087 414.515,-228.463 420.714,-224.542"/>
<polygon fill="midnightblue" stroke="midnightblue" points="362.549,-346.206 357.371,-355.449 367.183,-351.453 362.549,-346.206"/>
</g>
<!-- Node17&#45;&gt;Node6 -->
<g id="edge21" class="edge"><title>Node17&#45;&gt;Node6</title>
<path fill="none" stroke="midnightblue" d="M359.982,-350.397C362.717,-348.791 365.399,-347.157 368,-345.5 401.121,-324.406 435.78,-294.189 454.959,-276.631"/>
<polygon fill="midnightblue" stroke="midnightblue" points="358.084,-347.449 351.103,-355.418 361.53,-353.542 358.084,-347.449"/>
</g>
</g>
</svg>
