<?xml version="1.0" encoding="UTF-8" standalone="no"?>
<!DOCTYPE svg PUBLIC "-//W3C//DTD SVG 1.1//EN"
 "http://www.w3.org/Graphics/SVG/1.1/DTD/svg11.dtd">
<!-- Generated by graphviz version 2.38.0 (20140413.2041)
 -->
<!-- Title: Graphical Class Hierarchy Pages: 1 -->
<svg width="251pt" height="47pt"
 viewBox="0.00 0.00 251.00 47.00" xmlns="http://www.w3.org/2000/svg" xmlns:xlink="http://www.w3.org/1999/xlink">
<g id="graph0" class="graph" transform="scale(1 1) rotate(0) translate(4 43)">
<title>Graphical Class Hierarchy</title>
<polygon fill="white" stroke="none" points="-4,4 -4,-43 247,-43 247,4 -4,4"/>
<!-- Node1 -->
<g id="node1" class="node"><title>Node1</title>
<g id="a_node1"><a xlink:href="a00703.html" target="_top" xlink:title="std::unary_function\l\&lt; _Predicate::argument\l_type, bool \&gt;">
<polygon fill="white" stroke="black" points="0,-0.5 0,-38.5 112,-38.5 112,-0.5 0,-0.5"/>
<text text-anchor="start" x="8" y="-27.3" font-family="Helvetica,sans-Serif" font-size="9.00">std::unary_function</text>
<text text-anchor="start" x="8" y="-17.3" font-family="Helvetica,sans-Serif" font-size="9.00">&lt; _Predicate::argument</text>
<text text-anchor="middle" x="56" y="-7.3" font-family="Helvetica,sans-Serif" font-size="9.00">_type, bool &gt;</text>
</a>
</g>
</g>
<!-- Node2 -->
<g id="node2" class="node"><title>Node2</title>
<g id="a_node2"><a xlink:href="a00704.html" target="_top" xlink:title="One of the negation functors. ">
<polygon fill="white" stroke="black" points="148,-5.5 148,-33.5 243,-33.5 243,-5.5 148,-5.5"/>
<text text-anchor="start" x="156" y="-22.3" font-family="Helvetica,sans-Serif" font-size="9.00">std::unary_negate&lt;</text>
<text text-anchor="middle" x="195.5" y="-12.3" font-family="Helvetica,sans-Serif" font-size="9.00"> _Predicate &gt;</text>
</a>
</g>
</g>
<!-- Node1&#45;&gt;Node2 -->
<g id="edge1" class="edge"><title>Node1&#45;&gt;Node2</title>
<path fill="none" stroke="midnightblue" d="M122.194,-19.5C130.821,-19.5 139.523,-19.5 147.754,-19.5"/>
<polygon fill="midnightblue" stroke="midnightblue" points="122.134,-16.0001 112.134,-19.5 122.134,-23.0001 122.134,-16.0001"/>
</g>
</g>
</svg>
