<?xml version="1.0" encoding="UTF-8" standalone="no"?>
<!DOCTYPE svg PUBLIC "-//W3C//DTD SVG 1.1//EN"
 "http://www.w3.org/Graphics/SVG/1.1/DTD/svg11.dtd">
<!-- Generated by graphviz version 2.38.0 (20140413.2041)
 -->
<!-- Title: Graphical Class Hierarchy Pages: 1 -->
<svg width="264pt" height="84pt"
 viewBox="0.00 0.00 264.00 84.00" xmlns="http://www.w3.org/2000/svg" xmlns:xlink="http://www.w3.org/1999/xlink">
<g id="graph0" class="graph" transform="scale(1 1) rotate(0) translate(4 80)">
<title>Graphical Class Hierarchy</title>
<polygon fill="white" stroke="none" points="-4,4 -4,-80 260,-80 260,4 -4,4"/>
<!-- Node1 -->
<g id="node1" class="node"><title>Node1</title>
<g id="a_node1"><a xlink:href="a00017.html" target="_top" xlink:title="Base class for pool object. ">
<polygon fill="white" stroke="black" points="0,-28.5 0,-46.5 120,-46.5 120,-28.5 0,-28.5"/>
<text text-anchor="middle" x="60" y="-35.3" font-family="Helvetica,sans-Serif" font-size="9.00">__gnu_cxx::__pool_base</text>
</a>
</g>
</g>
<!-- Node2 -->
<g id="node2" class="node"><title>Node2</title>
<g id="a_node2"><a xlink:href="a00013.html" target="_top" xlink:title="Specialization for single thread. ">
<polygon fill="white" stroke="black" points="156,-47.5 156,-75.5 256,-75.5 256,-47.5 156,-47.5"/>
<text text-anchor="start" x="164" y="-64.3" font-family="Helvetica,sans-Serif" font-size="9.00">__gnu_cxx::__pool&lt;</text>
<text text-anchor="middle" x="206" y="-54.3" font-family="Helvetica,sans-Serif" font-size="9.00"> false &gt;</text>
</a>
</g>
</g>
<!-- Node1&#45;&gt;Node2 -->
<g id="edge1" class="edge"><title>Node1&#45;&gt;Node2</title>
<path fill="none" stroke="midnightblue" d="M124.899,-48.1498C135.295,-49.8825 145.919,-51.6532 155.89,-53.315"/>
<polygon fill="midnightblue" stroke="midnightblue" points="125.469,-44.6967 115.03,-46.505 124.318,-51.6014 125.469,-44.6967"/>
</g>
<!-- Node3 -->
<g id="node3" class="node"><title>Node3</title>
<g id="a_node3"><a xlink:href="a00014.html" target="_top" xlink:title="Specialization for thread enabled, via gthreads.h. ">
<polygon fill="white" stroke="black" points="156,-0.5 156,-28.5 256,-28.5 256,-0.5 156,-0.5"/>
<text text-anchor="start" x="164" y="-17.3" font-family="Helvetica,sans-Serif" font-size="9.00">__gnu_cxx::__pool&lt;</text>
<text text-anchor="middle" x="206" y="-7.3" font-family="Helvetica,sans-Serif" font-size="9.00"> true &gt;</text>
</a>
</g>
</g>
<!-- Node1&#45;&gt;Node3 -->
<g id="edge2" class="edge"><title>Node1&#45;&gt;Node3</title>
<path fill="none" stroke="midnightblue" d="M127.656,-26.8536C137.088,-25.347 146.644,-23.8208 155.67,-22.3791"/>
<polygon fill="midnightblue" stroke="midnightblue" points="126.822,-23.4423 117.499,-28.4758 127.926,-30.3547 126.822,-23.4423"/>
</g>
</g>
</svg>
