<?xml version="1.0" encoding="UTF-8" standalone="no"?>
<!DOCTYPE svg PUBLIC "-//W3C//DTD SVG 1.1//EN"
 "http://www.w3.org/Graphics/SVG/1.1/DTD/svg11.dtd">
<!-- Generated by graphviz version 2.38.0 (20140413.2041)
 -->
<!-- Title: Graphical Class Hierarchy Pages: 1 -->
<svg width="326pt" height="504pt"
 viewBox="0.00 0.00 326.00 504.00" xmlns="http://www.w3.org/2000/svg" xmlns:xlink="http://www.w3.org/1999/xlink">
<g id="graph0" class="graph" transform="scale(1 1) rotate(0) translate(4 500)">
<title>Graphical Class Hierarchy</title>
<polygon fill="white" stroke="none" points="-4,4 -4,-500 322,-500 322,4 -4,4"/>
<!-- Node1 -->
<g id="node1" class="node"><title>Node1</title>
<g id="a_node1"><a xlink:href="a00163.html" target="_top" xlink:title="Recommends parallel execution at compile time, optionally using a user&#45;specified number of threads...">
<polygon fill="white" stroke="black" points="0,-233.5 0,-251.5 132,-251.5 132,-233.5 0,-233.5"/>
<text text-anchor="middle" x="66" y="-240.3" font-family="Helvetica,sans-Serif" font-size="9.00">__gnu_parallel::parallel_tag</text>
</a>
</g>
</g>
<!-- Node2 -->
<g id="node2" class="node"><title>Node2</title>
<g id="a_node2"><a xlink:href="a00150.html" target="_top" xlink:title="Forces parallel sorting using balanced quicksort at compile time. ">
<polygon fill="white" stroke="black" points="182,-467.5 182,-495.5 304,-495.5 304,-467.5 182,-467.5"/>
<text text-anchor="start" x="190" y="-484.3" font-family="Helvetica,sans-Serif" font-size="9.00">__gnu_parallel::balanced</text>
<text text-anchor="middle" x="243" y="-474.3" font-family="Helvetica,sans-Serif" font-size="9.00">_quicksort_tag</text>
</a>
</g>
</g>
<!-- Node1&#45;&gt;Node2 -->
<g id="edge1" class="edge"><title>Node1&#45;&gt;Node2</title>
<path fill="none" stroke="midnightblue" d="M70.5891,-261.944C79.3862,-304.089 105.994,-404.404 168,-458.5 172.156,-462.126 176.88,-465.181 181.881,-467.754"/>
<polygon fill="midnightblue" stroke="midnightblue" points="73.9765,-261.032 68.605,-251.9 67.1092,-262.389 73.9765,-261.032"/>
</g>
<!-- Node3 -->
<g id="node3" class="node"><title>Node3</title>
<g id="a_node3"><a xlink:href="a00151.html" target="_top" xlink:title="Recommends parallel execution using dynamic load&#45;balancing at compile time. ">
<polygon fill="white" stroke="black" points="173,-430.5 173,-448.5 313,-448.5 313,-430.5 173,-430.5"/>
<text text-anchor="middle" x="243" y="-437.3" font-family="Helvetica,sans-Serif" font-size="9.00">__gnu_parallel::balanced_tag</text>
</a>
</g>
</g>
<!-- Node1&#45;&gt;Node3 -->
<g id="edge2" class="edge"><title>Node1&#45;&gt;Node3</title>
<path fill="none" stroke="midnightblue" d="M72.2008,-261.597C83.2805,-298.522 112.82,-379.739 168,-421.5 172.85,-425.17 178.346,-428.103 184.1,-430.444"/>
<polygon fill="midnightblue" stroke="midnightblue" points="75.4696,-260.299 69.347,-251.652 68.7412,-262.23 75.4696,-260.299"/>
</g>
<!-- Node4 -->
<g id="node4" class="node"><title>Node4</title>
<g id="a_node4"><a xlink:href="a00153.html" target="_top" xlink:title="Recommends parallel execution using the default parallel algorithm. ">
<polygon fill="white" stroke="black" points="187.5,-383.5 187.5,-411.5 298.5,-411.5 298.5,-383.5 187.5,-383.5"/>
<text text-anchor="start" x="195.5" y="-400.3" font-family="Helvetica,sans-Serif" font-size="9.00">__gnu_parallel::default</text>
<text text-anchor="middle" x="243" y="-390.3" font-family="Helvetica,sans-Serif" font-size="9.00">_parallel_tag</text>
</a>
</g>
</g>
<!-- Node1&#45;&gt;Node4 -->
<g id="edge3" class="edge"><title>Node1&#45;&gt;Node4</title>
<path fill="none" stroke="midnightblue" d="M76.2752,-260.985C91.5271,-289.529 124.592,-344.193 168,-374.5 173.846,-378.582 180.444,-381.959 187.231,-384.749"/>
<polygon fill="midnightblue" stroke="midnightblue" points="79.1911,-259.006 71.4758,-251.745 72.979,-262.233 79.1911,-259.006"/>
</g>
<!-- Node5 -->
<g id="node5" class="node"><title>Node5</title>
<g id="a_node5"><a xlink:href="a00155.html" target="_top" xlink:title="Forces parallel merging with exact splitting, at compile time. ">
<polygon fill="white" stroke="black" points="181.5,-346.5 181.5,-364.5 304.5,-364.5 304.5,-346.5 181.5,-346.5"/>
<text text-anchor="middle" x="243" y="-353.3" font-family="Helvetica,sans-Serif" font-size="9.00">__gnu_parallel::exact_tag</text>
</a>
</g>
</g>
<!-- Node1&#45;&gt;Node5 -->
<g id="edge4" class="edge"><title>Node1&#45;&gt;Node5</title>
<path fill="none" stroke="midnightblue" d="M80.3759,-259.671C98.0785,-281.186 131.356,-317.638 168,-337.5 174.742,-341.154 182.227,-344.077 189.773,-346.411"/>
<polygon fill="midnightblue" stroke="midnightblue" points="82.9708,-257.313 73.9777,-251.711 77.5148,-261.698 82.9708,-257.313"/>
</g>
<!-- Node6 -->
<g id="node6" class="node"><title>Node6</title>
<g id="a_node6"><a xlink:href="a00158.html" target="_top" xlink:title="Forces parallel sorting using multiway mergesort with exact splitting at compile time. ">
<polygon fill="white" stroke="black" points="183.5,-299.5 183.5,-327.5 302.5,-327.5 302.5,-299.5 183.5,-299.5"/>
<text text-anchor="start" x="191.5" y="-316.3" font-family="Helvetica,sans-Serif" font-size="9.00">__gnu_parallel::multiway</text>
<text text-anchor="middle" x="243" y="-306.3" font-family="Helvetica,sans-Serif" font-size="9.00">_mergesort_exact_tag</text>
</a>
</g>
</g>
<!-- Node1&#45;&gt;Node6 -->
<g id="edge5" class="edge"><title>Node1&#45;&gt;Node6</title>
<path fill="none" stroke="midnightblue" d="M93.3318,-256.284C113.452,-266.503 142.048,-280.36 168,-290.5 176.02,-293.634 184.655,-296.638 193.096,-299.382"/>
<polygon fill="midnightblue" stroke="midnightblue" points="94.6796,-253.042 84.1844,-251.592 91.4847,-259.271 94.6796,-253.042"/>
</g>
<!-- Node7 -->
<g id="node7" class="node"><title>Node7</title>
<g id="a_node7"><a xlink:href="a00159.html" target="_top" xlink:title="Forces parallel sorting using multiway mergesort with splitting by sampling at compile time...">
<polygon fill="white" stroke="black" points="181,-252.5 181,-280.5 305,-280.5 305,-252.5 181,-252.5"/>
<text text-anchor="start" x="189" y="-269.3" font-family="Helvetica,sans-Serif" font-size="9.00">__gnu_parallel::multiway</text>
<text text-anchor="middle" x="243" y="-259.3" font-family="Helvetica,sans-Serif" font-size="9.00">_mergesort_sampling_tag</text>
</a>
</g>
</g>
<!-- Node1&#45;&gt;Node7 -->
<g id="edge6" class="edge"><title>Node1&#45;&gt;Node7</title>
<path fill="none" stroke="midnightblue" d="M142.368,-252.836C155.215,-254.598 168.418,-256.409 180.84,-258.112"/>
<polygon fill="midnightblue" stroke="midnightblue" points="142.546,-249.328 132.164,-251.437 141.595,-256.263 142.546,-249.328"/>
</g>
<!-- Node8 -->
<g id="node8" class="node"><title>Node8</title>
<g id="a_node8"><a xlink:href="a00160.html" target="_top" xlink:title="Forces parallel sorting using multiway mergesort at compile time. ">
<polygon fill="white" stroke="black" points="183.5,-205.5 183.5,-233.5 302.5,-233.5 302.5,-205.5 183.5,-205.5"/>
<text text-anchor="start" x="191.5" y="-222.3" font-family="Helvetica,sans-Serif" font-size="9.00">__gnu_parallel::multiway</text>
<text text-anchor="middle" x="243" y="-212.3" font-family="Helvetica,sans-Serif" font-size="9.00">_mergesort_tag</text>
</a>
</g>
</g>
<!-- Node1&#45;&gt;Node8 -->
<g id="edge7" class="edge"><title>Node1&#45;&gt;Node8</title>
<path fill="none" stroke="midnightblue" d="M142.129,-232.626C155.944,-230.81 170.18,-228.939 183.42,-227.199"/>
<polygon fill="midnightblue" stroke="midnightblue" points="141.622,-229.162 132.164,-233.936 142.534,-236.103 141.622,-229.162"/>
</g>
<!-- Node9 -->
<g id="node9" class="node"><title>Node9</title>
<g id="a_node9"><a xlink:href="a00161.html" target="_top" xlink:title="Recommends parallel execution using OpenMP static load&#45;balancing at compile time. ...">
<polygon fill="white" stroke="black" points="192.5,-158.5 192.5,-186.5 293.5,-186.5 293.5,-158.5 192.5,-158.5"/>
<text text-anchor="start" x="200.5" y="-175.3" font-family="Helvetica,sans-Serif" font-size="9.00">__gnu_parallel::omp</text>
<text text-anchor="middle" x="243" y="-165.3" font-family="Helvetica,sans-Serif" font-size="9.00">_loop_static_tag</text>
</a>
</g>
</g>
<!-- Node1&#45;&gt;Node9 -->
<g id="edge8" class="edge"><title>Node1&#45;&gt;Node9</title>
<path fill="none" stroke="midnightblue" d="M94.5288,-228.934C114.633,-219.281 142.687,-206.332 168,-196.5 176.939,-193.028 186.611,-189.636 195.923,-186.546"/>
<polygon fill="midnightblue" stroke="midnightblue" points="92.8204,-225.873 85.3447,-233.38 95.8705,-232.173 92.8204,-225.873"/>
</g>
<!-- Node10 -->
<g id="node10" class="node"><title>Node10</title>
<g id="a_node10"><a xlink:href="a00162.html" target="_top" xlink:title="Recommends parallel execution using OpenMP dynamic load&#45;balancing at compile time. ">
<polygon fill="white" stroke="black" points="192.5,-111.5 192.5,-139.5 293.5,-139.5 293.5,-111.5 192.5,-111.5"/>
<text text-anchor="start" x="200.5" y="-128.3" font-family="Helvetica,sans-Serif" font-size="9.00">__gnu_parallel::omp</text>
<text text-anchor="middle" x="243" y="-118.3" font-family="Helvetica,sans-Serif" font-size="9.00">_loop_tag</text>
</a>
</g>
</g>
<!-- Node1&#45;&gt;Node10 -->
<g id="edge9" class="edge"><title>Node1&#45;&gt;Node10</title>
<path fill="none" stroke="midnightblue" d="M80.9699,-225.81C99.0751,-205.165 132.549,-170.219 168,-149.5 175.463,-145.138 183.819,-141.458 192.156,-138.39"/>
<polygon fill="midnightblue" stroke="midnightblue" points="78.263,-223.589 74.3966,-233.454 83.5705,-228.153 78.263,-223.589"/>
</g>
<!-- Node11 -->
<g id="node11" class="node"><title>Node11</title>
<g id="a_node11"><a xlink:href="a00164.html" target="_top" xlink:title="Forces parallel sorting using unbalanced quicksort at compile time. ">
<polygon fill="white" stroke="black" points="174,-74.5 174,-92.5 312,-92.5 312,-74.5 174,-74.5"/>
<text text-anchor="middle" x="243" y="-81.3" font-family="Helvetica,sans-Serif" font-size="9.00">__gnu_parallel::quicksort_tag</text>
</a>
</g>
</g>
<!-- Node1&#45;&gt;Node11 -->
<g id="edge10" class="edge"><title>Node1&#45;&gt;Node11</title>
<path fill="none" stroke="midnightblue" d="M75.1807,-223.898C89.4758,-193.623 121.932,-133.921 168,-102.5 174.136,-98.3147 181.129,-95.0512 188.31,-92.5066"/>
<polygon fill="midnightblue" stroke="midnightblue" points="71.864,-222.735 70.8892,-233.285 78.2302,-225.645 71.864,-222.735"/>
</g>
<!-- Node12 -->
<g id="node12" class="node"><title>Node12</title>
<g id="a_node12"><a xlink:href="a00165.html" target="_top" xlink:title="Forces parallel merging with exact splitting, at compile time. ">
<polygon fill="white" stroke="black" points="173.5,-37.5 173.5,-55.5 312.5,-55.5 312.5,-37.5 173.5,-37.5"/>
<text text-anchor="middle" x="243" y="-44.3" font-family="Helvetica,sans-Serif" font-size="9.00">__gnu_parallel::sampling_tag</text>
</a>
</g>
</g>
<!-- Node1&#45;&gt;Node12 -->
<g id="edge11" class="edge"><title>Node1&#45;&gt;Node12</title>
<path fill="none" stroke="midnightblue" d="M72.312,-223.674C83.5864,-187.263 113.451,-107.123 168,-65.5 173.378,-61.3965 179.55,-58.1739 185.986,-55.6441"/>
<polygon fill="midnightblue" stroke="midnightblue" points="68.892,-222.897 69.4032,-233.479 75.6029,-224.888 68.892,-222.897"/>
</g>
<!-- Node13 -->
<g id="node13" class="node"><title>Node13</title>
<g id="a_node13"><a xlink:href="a00167.html" target="_top" xlink:title="Recommends parallel execution using static load&#45;balancing at compile time. ">
<polygon fill="white" stroke="black" points="168,-0.5 168,-18.5 318,-18.5 318,-0.5 168,-0.5"/>
<text text-anchor="middle" x="243" y="-7.3" font-family="Helvetica,sans-Serif" font-size="9.00">__gnu_parallel::unbalanced_tag</text>
</a>
</g>
</g>
<!-- Node1&#45;&gt;Node13 -->
<g id="edge12" class="edge"><title>Node1&#45;&gt;Node13</title>
<path fill="none" stroke="midnightblue" d="M70.4473,-222.999C78.9634,-180.776 105.048,-80.5176 168,-28.5 173.01,-24.36 178.814,-21.1088 184.923,-18.5578"/>
<polygon fill="midnightblue" stroke="midnightblue" points="66.9625,-222.589 68.5331,-233.067 73.8394,-223.897 66.9625,-222.589"/>
</g>
</g>
</svg>
