<?xml version="1.0" encoding="UTF-8" standalone="no"?>
<!DOCTYPE svg PUBLIC "-//W3C//DTD SVG 1.1//EN"
 "http://www.w3.org/Graphics/SVG/1.1/DTD/svg11.dtd">
<!-- Generated by graphviz version 2.38.0 (20140413.2041)
 -->
<!-- Title: Graphical Class Hierarchy Pages: 1 -->
<svg width="278pt" height="47pt"
 viewBox="0.00 0.00 278.00 47.00" xmlns="http://www.w3.org/2000/svg" xmlns:xlink="http://www.w3.org/1999/xlink">
<g id="graph0" class="graph" transform="scale(1 1) rotate(0) translate(4 43)">
<title>Graphical Class Hierarchy</title>
<polygon fill="white" stroke="none" points="-4,4 -4,-43 274,-43 274,4 -4,4"/>
<!-- Node1 -->
<g id="node1" class="node"><title>Node1</title>
<g id="a_node1"><a xlink:href="a00394.html" target="_top" xlink:title="__gnu_profile::__trace\l_base\&lt; __vector2list_info,\l __vector2list_stack_info \&gt;">
<polygon fill="white" stroke="black" points="0,-0.5 0,-38.5 125,-38.5 125,-0.5 0,-0.5"/>
<text text-anchor="start" x="8" y="-27.3" font-family="Helvetica,sans-Serif" font-size="9.00">__gnu_profile::__trace</text>
<text text-anchor="start" x="8" y="-17.3" font-family="Helvetica,sans-Serif" font-size="9.00">_base&lt; __vector2list_info,</text>
<text text-anchor="middle" x="62.5" y="-7.3" font-family="Helvetica,sans-Serif" font-size="9.00"> __vector2list_stack_info &gt;</text>
</a>
</g>
</g>
<!-- Node2 -->
<g id="node2" class="node"><title>Node2</title>
<g id="a_node2"><a xlink:href="a00400.html" target="_top" xlink:title="Vector&#45;to&#45;list instrumentation producer. ">
<polygon fill="white" stroke="black" points="161,-5.5 161,-33.5 270,-33.5 270,-5.5 161,-5.5"/>
<text text-anchor="start" x="169" y="-22.3" font-family="Helvetica,sans-Serif" font-size="9.00">__gnu_profile::__trace</text>
<text text-anchor="middle" x="215.5" y="-12.3" font-family="Helvetica,sans-Serif" font-size="9.00">_vector_to_list</text>
</a>
</g>
</g>
<!-- Node1&#45;&gt;Node2 -->
<g id="edge1" class="edge"><title>Node1&#45;&gt;Node2</title>
<path fill="none" stroke="midnightblue" d="M135.609,-19.5C144.064,-19.5 152.575,-19.5 160.718,-19.5"/>
<polygon fill="midnightblue" stroke="midnightblue" points="135.353,-16.0001 125.353,-19.5 135.353,-23.0001 135.353,-16.0001"/>
</g>
</g>
</svg>
