<?xml version="1.0" encoding="UTF-8" standalone="no"?>
<!DOCTYPE svg PUBLIC "-//W3C//DTD SVG 1.1//EN"
 "http://www.w3.org/Graphics/SVG/1.1/DTD/svg11.dtd">
<!-- Generated by graphviz version 2.38.0 (20140413.2041)
 -->
<!-- Title: Graphical Class Hierarchy Pages: 1 -->
<svg width="326pt" height="77pt"
 viewBox="0.00 0.00 326.00 77.00" xmlns="http://www.w3.org/2000/svg" xmlns:xlink="http://www.w3.org/1999/xlink">
<g id="graph0" class="graph" transform="scale(1 1) rotate(0) translate(4 73)">
<title>Graphical Class Hierarchy</title>
<polygon fill="white" stroke="none" points="-4,4 -4,-73 322,-73 322,4 -4,4"/>
<!-- Node1 -->
<g id="node1" class="node"><title>Node1</title>
<g id="a_node1"><a xlink:href="a00195.html" target="_top" xlink:title="Const iterator. ">
<polygon fill="white" stroke="black" points="0,-0.5 0,-68.5 141,-68.5 141,-0.5 0,-0.5"/>
<text text-anchor="start" x="8" y="-57.3" font-family="Helvetica,sans-Serif" font-size="9.00">__gnu_pbds::detail</text>
<text text-anchor="start" x="8" y="-47.3" font-family="Helvetica,sans-Serif" font-size="9.00">::bin_search_tree_const</text>
<text text-anchor="start" x="8" y="-37.3" font-family="Helvetica,sans-Serif" font-size="9.00">_it_&lt; Node_Pointer, Value</text>
<text text-anchor="start" x="8" y="-27.3" font-family="Helvetica,sans-Serif" font-size="9.00">_Type, Pointer, Const_Pointer,</text>
<text text-anchor="start" x="8" y="-17.3" font-family="Helvetica,sans-Serif" font-size="9.00"> Reference, Const_Reference,</text>
<text text-anchor="middle" x="70.5" y="-7.3" font-family="Helvetica,sans-Serif" font-size="9.00"> Is_Forward_Iterator, _Alloc &gt;</text>
</a>
</g>
</g>
<!-- Node2 -->
<g id="node2" class="node"><title>Node2</title>
<g id="a_node2"><a xlink:href="a00197.html" target="_top" xlink:title="Iterator. ">
<polygon fill="white" stroke="black" points="177,-0.5 177,-68.5 318,-68.5 318,-0.5 177,-0.5"/>
<text text-anchor="start" x="185" y="-57.3" font-family="Helvetica,sans-Serif" font-size="9.00">__gnu_pbds::detail</text>
<text text-anchor="start" x="185" y="-47.3" font-family="Helvetica,sans-Serif" font-size="9.00">::bin_search_tree_it</text>
<text text-anchor="start" x="185" y="-37.3" font-family="Helvetica,sans-Serif" font-size="9.00">_&lt; Node_Pointer, Value</text>
<text text-anchor="start" x="185" y="-27.3" font-family="Helvetica,sans-Serif" font-size="9.00">_Type, Pointer, Const_Pointer,</text>
<text text-anchor="start" x="185" y="-17.3" font-family="Helvetica,sans-Serif" font-size="9.00"> Reference, Const_Reference,</text>
<text text-anchor="middle" x="247.5" y="-7.3" font-family="Helvetica,sans-Serif" font-size="9.00"> Is_Forward_Iterator, _Alloc &gt;</text>
</a>
</g>
</g>
<!-- Node1&#45;&gt;Node2 -->
<g id="edge1" class="edge"><title>Node1&#45;&gt;Node2</title>
<path fill="none" stroke="midnightblue" d="M151.425,-34.5C159.89,-34.5 168.451,-34.5 176.786,-34.5"/>
<polygon fill="midnightblue" stroke="midnightblue" points="151.168,-31.0001 141.167,-34.5 151.167,-38.0001 151.168,-31.0001"/>
</g>
</g>
</svg>
