<?xml version="1.0" encoding="UTF-8" standalone="no"?>
<!DOCTYPE svg PUBLIC "-//W3C//DTD SVG 1.1//EN"
 "http://www.w3.org/Graphics/SVG/1.1/DTD/svg11.dtd">
<!-- Generated by graphviz version 2.38.0 (20140413.2041)
 -->
<!-- Title: Graphical Class Hierarchy Pages: 1 -->
<svg width="257pt" height="272pt"
 viewBox="0.00 0.00 257.00 272.00" xmlns="http://www.w3.org/2000/svg" xmlns:xlink="http://www.w3.org/1999/xlink">
<g id="graph0" class="graph" transform="scale(1 1) rotate(0) translate(4 268)">
<title>Graphical Class Hierarchy</title>
<polygon fill="white" stroke="none" points="-4,4 -4,-268 253,-268 253,4 -4,4"/>
<!-- Node1 -->
<g id="node1" class="node"><title>Node1</title>
<g id="a_node1"><a xlink:href="a00427.html" target="_top" xlink:title="std::iterator\&lt; output\l_iterator_tag, void,\l void, void, void \&gt;">
<polygon fill="white" stroke="black" points="0,-112.5 0,-150.5 95,-150.5 95,-112.5 0,-112.5"/>
<text text-anchor="start" x="8" y="-139.3" font-family="Helvetica,sans-Serif" font-size="9.00">std::iterator&lt; output</text>
<text text-anchor="start" x="8" y="-129.3" font-family="Helvetica,sans-Serif" font-size="9.00">_iterator_tag, void,</text>
<text text-anchor="middle" x="47.5" y="-119.3" font-family="Helvetica,sans-Serif" font-size="9.00"> void, void, void &gt;</text>
</a>
</g>
</g>
<!-- Node2 -->
<g id="node2" class="node"><title>Node2</title>
<g id="a_node2"><a xlink:href="a00511.html" target="_top" xlink:title="Turns assignment into insertion. ">
<polygon fill="white" stroke="black" points="133,-235.5 133,-263.5 247,-263.5 247,-235.5 133,-235.5"/>
<text text-anchor="start" x="141" y="-252.3" font-family="Helvetica,sans-Serif" font-size="9.00">std::back_insert_iterator</text>
<text text-anchor="middle" x="190" y="-242.3" font-family="Helvetica,sans-Serif" font-size="9.00">&lt; _Container &gt;</text>
</a>
</g>
</g>
<!-- Node1&#45;&gt;Node2 -->
<g id="edge1" class="edge"><title>Node1&#45;&gt;Node2</title>
<path fill="none" stroke="midnightblue" d="M66.7259,-158.875C81.8384,-179.791 104.999,-208.07 131,-226.5 135.772,-229.883 141.112,-232.862 146.567,-235.457"/>
<polygon fill="midnightblue" stroke="midnightblue" points="69.5775,-156.845 60.9513,-150.694 63.8587,-160.882 69.5775,-156.845"/>
</g>
<!-- Node3 -->
<g id="node3" class="node"><title>Node3</title>
<g id="a_node3"><a xlink:href="a00568.html" target="_top" xlink:title="Turns assignment into insertion. ">
<polygon fill="white" stroke="black" points="133.5,-188.5 133.5,-216.5 246.5,-216.5 246.5,-188.5 133.5,-188.5"/>
<text text-anchor="start" x="141.5" y="-205.3" font-family="Helvetica,sans-Serif" font-size="9.00">std::front_insert_iterator</text>
<text text-anchor="middle" x="190" y="-195.3" font-family="Helvetica,sans-Serif" font-size="9.00">&lt; _Container &gt;</text>
</a>
</g>
</g>
<!-- Node1&#45;&gt;Node3 -->
<g id="edge2" class="edge"><title>Node1&#45;&gt;Node3</title>
<path fill="none" stroke="midnightblue" d="M87.4536,-155.768C101.001,-163.774 116.45,-172.431 131,-179.5 137.431,-182.624 144.401,-185.666 151.204,-188.461"/>
<polygon fill="midnightblue" stroke="midnightblue" points="89.2328,-152.754 78.8543,-150.624 85.6392,-158.761 89.2328,-152.754"/>
</g>
<!-- Node4 -->
<g id="node4" class="node"><title>Node4</title>
<g id="a_node4"><a xlink:href="a00613.html" target="_top" xlink:title="Turns assignment into insertion. ">
<polygon fill="white" stroke="black" points="145.5,-141.5 145.5,-169.5 234.5,-169.5 234.5,-141.5 145.5,-141.5"/>
<text text-anchor="start" x="153.5" y="-158.3" font-family="Helvetica,sans-Serif" font-size="9.00">std::insert_iterator</text>
<text text-anchor="middle" x="190" y="-148.3" font-family="Helvetica,sans-Serif" font-size="9.00">&lt; _Container &gt;</text>
</a>
</g>
</g>
<!-- Node1&#45;&gt;Node4 -->
<g id="edge3" class="edge"><title>Node1&#45;&gt;Node4</title>
<path fill="none" stroke="midnightblue" d="M105.308,-141.204C118.63,-143.48 132.622,-145.87 145.27,-148.03"/>
<polygon fill="midnightblue" stroke="midnightblue" points="105.731,-137.726 95.2845,-139.492 104.552,-144.626 105.731,-137.726"/>
</g>
<!-- Node5 -->
<g id="node5" class="node"><title>Node5</title>
<g id="a_node5"><a xlink:href="a00661.html" target="_top" xlink:title="Provides output iterator semantics for streams. ">
<polygon fill="white" stroke="black" points="132.5,-94.5 132.5,-122.5 247.5,-122.5 247.5,-94.5 132.5,-94.5"/>
<text text-anchor="start" x="140.5" y="-111.3" font-family="Helvetica,sans-Serif" font-size="9.00">std::ostream_iterator</text>
<text text-anchor="middle" x="190" y="-101.3" font-family="Helvetica,sans-Serif" font-size="9.00">&lt; _Tp, _CharT, _Traits &gt;</text>
</a>
</g>
</g>
<!-- Node1&#45;&gt;Node5 -->
<g id="edge4" class="edge"><title>Node1&#45;&gt;Node5</title>
<path fill="none" stroke="midnightblue" d="M105.168,-122.223C114.065,-120.767 123.263,-119.261 132.163,-117.804"/>
<polygon fill="midnightblue" stroke="midnightblue" points="104.588,-118.772 95.2845,-123.841 105.719,-125.68 104.588,-118.772"/>
</g>
<!-- Node6 -->
<g id="node6" class="node"><title>Node6</title>
<g id="a_node6"><a xlink:href="a00662.html" target="_top" xlink:title="Provides output iterator semantics for streambufs. ">
<polygon fill="white" stroke="black" points="133.5,-47.5 133.5,-75.5 246.5,-75.5 246.5,-47.5 133.5,-47.5"/>
<text text-anchor="start" x="141.5" y="-64.3" font-family="Helvetica,sans-Serif" font-size="9.00">std::ostreambuf_iterator</text>
<text text-anchor="middle" x="190" y="-54.3" font-family="Helvetica,sans-Serif" font-size="9.00">&lt; _CharT, _Traits &gt;</text>
</a>
</g>
</g>
<!-- Node1&#45;&gt;Node6 -->
<g id="edge5" class="edge"><title>Node1&#45;&gt;Node6</title>
<path fill="none" stroke="midnightblue" d="M89.3646,-107.481C102.491,-100.101 117.206,-92.1716 131,-85.5 138.063,-82.0837 145.742,-78.6907 153.13,-75.578"/>
<polygon fill="midnightblue" stroke="midnightblue" points="87.5288,-104.499 80.5619,-112.481 90.9859,-110.586 87.5288,-104.499"/>
</g>
<!-- Node7 -->
<g id="node7" class="node"><title>Node7</title>
<g id="a_node7"><a xlink:href="a00683.html" target="_top" xlink:title="std::raw_storage_iterator\l\&lt; _OutputIterator, _Tp \&gt;">
<polygon fill="white" stroke="black" points="131,-0.5 131,-28.5 249,-28.5 249,-0.5 131,-0.5"/>
<text text-anchor="start" x="139" y="-17.3" font-family="Helvetica,sans-Serif" font-size="9.00">std::raw_storage_iterator</text>
<text text-anchor="middle" x="190" y="-7.3" font-family="Helvetica,sans-Serif" font-size="9.00">&lt; _OutputIterator, _Tp &gt;</text>
</a>
</g>
</g>
<!-- Node1&#45;&gt;Node7 -->
<g id="edge6" class="edge"><title>Node1&#45;&gt;Node7</title>
<path fill="none" stroke="midnightblue" d="M67.3992,-104.183C82.624,-83.8408 105.616,-56.5737 131,-38.5 136.238,-34.7708 142.142,-31.4857 148.127,-28.6382"/>
<polygon fill="midnightblue" stroke="midnightblue" points="64.4453,-102.293 61.3655,-112.431 70.0948,-106.426 64.4453,-102.293"/>
</g>
</g>
</svg>
