<?xml version="1.0" encoding="UTF-8" standalone="no"?>
<!DOCTYPE svg PUBLIC "-//W3C//DTD SVG 1.1//EN"
 "http://www.w3.org/Graphics/SVG/1.1/DTD/svg11.dtd">
<!-- Generated by graphviz version 2.38.0 (20140413.2041)
 -->
<!-- Title: Graphical Class Hierarchy Pages: 1 -->
<svg width="483pt" height="200pt"
 viewBox="0.00 0.00 483.00 200.00" xmlns="http://www.w3.org/2000/svg" xmlns:xlink="http://www.w3.org/1999/xlink">
<g id="graph0" class="graph" transform="scale(1 1) rotate(0) translate(4 196)">
<title>Graphical Class Hierarchy</title>
<polygon fill="white" stroke="none" points="-4,4 -4,-196 479,-196 479,4 -4,4"/>
<!-- Node1 -->
<g id="node1" class="node"><title>Node1</title>
<g id="a_node1"><a xlink:href="a00391.html" target="_top" xlink:title="Base class for a line in the object table. ">
<polygon fill="white" stroke="black" points="0,-81.5 0,-109.5 113,-109.5 113,-81.5 0,-81.5"/>
<text text-anchor="start" x="8" y="-98.3" font-family="Helvetica,sans-Serif" font-size="9.00">__gnu_profile::__object</text>
<text text-anchor="middle" x="56.5" y="-88.3" font-family="Helvetica,sans-Serif" font-size="9.00">_info_base</text>
</a>
</g>
</g>
<!-- Node2 -->
<g id="node2" class="node"><title>Node2</title>
<g id="a_node2"><a xlink:href="a00384.html" target="_top" xlink:title="A container size instrumentation line in the object table. ">
<polygon fill="white" stroke="black" points="163,-162.5 163,-190.5 290,-190.5 290,-162.5 163,-162.5"/>
<text text-anchor="start" x="171" y="-179.3" font-family="Helvetica,sans-Serif" font-size="9.00">__gnu_profile::__container</text>
<text text-anchor="middle" x="226.5" y="-169.3" font-family="Helvetica,sans-Serif" font-size="9.00">_size_info</text>
</a>
</g>
</g>
<!-- Node1&#45;&gt;Node2 -->
<g id="edge1" class="edge"><title>Node1&#45;&gt;Node2</title>
<path fill="none" stroke="midnightblue" d="M86.0854,-115.391C103.663,-127.005 126.969,-141.329 149,-151.5 157.753,-155.541 167.345,-159.22 176.688,-162.439"/>
<polygon fill="midnightblue" stroke="midnightblue" points="87.7075,-112.264 77.453,-109.6 83.8081,-118.078 87.7075,-112.264"/>
</g>
<!-- Node4 -->
<g id="node4" class="node"><title>Node4</title>
<g id="a_node4"><a xlink:href="a00386.html" target="_top" xlink:title="A hash performance instrumentation line in the object table. ">
<polygon fill="white" stroke="black" points="153.5,-123.5 153.5,-141.5 299.5,-141.5 299.5,-123.5 153.5,-123.5"/>
<text text-anchor="middle" x="226.5" y="-130.3" font-family="Helvetica,sans-Serif" font-size="9.00">__gnu_profile::__hashfunc_info</text>
</a>
</g>
</g>
<!-- Node1&#45;&gt;Node4 -->
<g id="edge3" class="edge"><title>Node1&#45;&gt;Node4</title>
<path fill="none" stroke="midnightblue" d="M123.395,-110.013C143.967,-114.543 166.059,-119.409 184.414,-123.451"/>
<polygon fill="midnightblue" stroke="midnightblue" points="123.96,-106.553 113.442,-107.82 122.455,-113.389 123.96,-106.553"/>
</g>
<!-- Node6 -->
<g id="node6" class="node"><title>Node6</title>
<g id="a_node6"><a xlink:href="a00388.html" target="_top" xlink:title="A list&#45;to&#45;vector instrumentation line in the object table. ">
<polygon fill="white" stroke="black" points="151.5,-86.5 151.5,-104.5 301.5,-104.5 301.5,-86.5 151.5,-86.5"/>
<text text-anchor="middle" x="226.5" y="-93.3" font-family="Helvetica,sans-Serif" font-size="9.00">__gnu_profile::__list2vector_info</text>
</a>
</g>
</g>
<!-- Node1&#45;&gt;Node6 -->
<g id="edge5" class="edge"><title>Node1&#45;&gt;Node6</title>
<path fill="none" stroke="midnightblue" d="M123.559,-95.5C132.652,-95.5 142.04,-95.5 151.268,-95.5"/>
<polygon fill="midnightblue" stroke="midnightblue" points="123.442,-92.0001 113.442,-95.5 123.442,-99.0001 123.442,-92.0001"/>
</g>
<!-- Node7 -->
<g id="node7" class="node"><title>Node7</title>
<g id="a_node7"><a xlink:href="a00389.html" target="_top" xlink:title="A map&#45;to&#45;unordered_map instrumentation line in the object table. ">
<polygon fill="white" stroke="black" points="149,-49.5 149,-67.5 304,-67.5 304,-49.5 149,-49.5"/>
<text text-anchor="middle" x="226.5" y="-56.3" font-family="Helvetica,sans-Serif" font-size="9.00">__gnu_profile::__map2umap_info</text>
</a>
</g>
</g>
<!-- Node1&#45;&gt;Node7 -->
<g id="edge6" class="edge"><title>Node1&#45;&gt;Node7</title>
<path fill="none" stroke="midnightblue" d="M123.395,-80.9874C143.967,-76.4567 166.059,-71.5911 184.414,-67.5486"/>
<polygon fill="midnightblue" stroke="midnightblue" points="122.455,-77.6105 113.442,-83.1795 123.96,-84.4467 122.455,-77.6105"/>
</g>
<!-- Node9 -->
<g id="node9" class="node"><title>Node9</title>
<g id="a_node9"><a xlink:href="a00401.html" target="_top" xlink:title="A vector&#45;to&#45;list instrumentation line in the object table. ">
<polygon fill="white" stroke="black" points="151.5,-10.5 151.5,-28.5 301.5,-28.5 301.5,-10.5 151.5,-10.5"/>
<text text-anchor="middle" x="226.5" y="-17.3" font-family="Helvetica,sans-Serif" font-size="9.00">__gnu_profile::__vector2list_info</text>
</a>
</g>
</g>
<!-- Node1&#45;&gt;Node9 -->
<g id="edge8" class="edge"><title>Node1&#45;&gt;Node9</title>
<path fill="none" stroke="midnightblue" d="M85.9639,-75.6138C103.498,-64.0814 126.801,-50.0052 149,-40.5 160.141,-35.7294 172.663,-31.7571 184.299,-28.598"/>
<polygon fill="midnightblue" stroke="midnightblue" points="83.7204,-72.9038 77.3572,-81.375 87.6143,-78.7209 83.7204,-72.9038"/>
</g>
<!-- Node3 -->
<g id="node3" class="node"><title>Node3</title>
<g id="a_node3"><a xlink:href="a00385.html" target="_top" xlink:title="A container size instrumentation line in the stack table. ">
<polygon fill="white" stroke="black" points="344,-163.5 344,-191.5 471,-191.5 471,-163.5 344,-163.5"/>
<text text-anchor="start" x="352" y="-180.3" font-family="Helvetica,sans-Serif" font-size="9.00">__gnu_profile::__container</text>
<text text-anchor="middle" x="407.5" y="-170.3" font-family="Helvetica,sans-Serif" font-size="9.00">_size_stack_info</text>
</a>
</g>
</g>
<!-- Node2&#45;&gt;Node3 -->
<g id="edge2" class="edge"><title>Node2&#45;&gt;Node3</title>
<path fill="none" stroke="midnightblue" d="M300.475,-176.908C314.889,-176.988 329.897,-177.072 343.93,-177.15"/>
<polygon fill="midnightblue" stroke="midnightblue" points="300.125,-173.406 290.106,-176.85 300.086,-180.406 300.125,-173.406"/>
</g>
<!-- Node5 -->
<g id="node5" class="node"><title>Node5</title>
<g id="a_node5"><a xlink:href="a00387.html" target="_top" xlink:title="A hash performance instrumentation line in the stack table. ">
<polygon fill="white" stroke="black" points="344.5,-116.5 344.5,-144.5 470.5,-144.5 470.5,-116.5 344.5,-116.5"/>
<text text-anchor="start" x="352.5" y="-133.3" font-family="Helvetica,sans-Serif" font-size="9.00">__gnu_profile::__hashfunc</text>
<text text-anchor="middle" x="407.5" y="-123.3" font-family="Helvetica,sans-Serif" font-size="9.00">_stack_info</text>
</a>
</g>
</g>
<!-- Node4&#45;&gt;Node5 -->
<g id="edge4" class="edge"><title>Node4&#45;&gt;Node5</title>
<path fill="none" stroke="midnightblue" d="M309.718,-131.581C321.38,-131.451 333.207,-131.319 344.402,-131.194"/>
<polygon fill="midnightblue" stroke="midnightblue" points="309.493,-128.084 299.532,-131.695 309.571,-135.083 309.493,-128.084"/>
</g>
<!-- Node8 -->
<g id="node8" class="node"><title>Node8</title>
<g id="a_node8"><a xlink:href="a00390.html" target="_top" xlink:title="A map&#45;to&#45;unordered_map instrumentation line in the stack table. ">
<polygon fill="white" stroke="black" points="340,-47.5 340,-75.5 475,-75.5 475,-47.5 340,-47.5"/>
<text text-anchor="start" x="348" y="-64.3" font-family="Helvetica,sans-Serif" font-size="9.00">__gnu_profile::__map2umap</text>
<text text-anchor="middle" x="407.5" y="-54.3" font-family="Helvetica,sans-Serif" font-size="9.00">_stack_info</text>
</a>
</g>
</g>
<!-- Node7&#45;&gt;Node8 -->
<g id="edge7" class="edge"><title>Node7&#45;&gt;Node8</title>
<path fill="none" stroke="midnightblue" d="M314.253,-59.954C322.853,-60.0981 331.487,-60.2428 339.838,-60.3828"/>
<polygon fill="midnightblue" stroke="midnightblue" points="314.248,-56.4535 304.191,-59.7853 314.131,-63.4525 314.248,-56.4535"/>
</g>
<!-- Node10 -->
<g id="node10" class="node"><title>Node10</title>
<g id="a_node10"><a xlink:href="a00402.html" target="_top" xlink:title="A vector&#45;to&#45;list instrumentation line in the stack table. ">
<polygon fill="white" stroke="black" points="342.5,-0.5 342.5,-28.5 472.5,-28.5 472.5,-0.5 342.5,-0.5"/>
<text text-anchor="start" x="350.5" y="-17.3" font-family="Helvetica,sans-Serif" font-size="9.00">__gnu_profile::__vector2list</text>
<text text-anchor="middle" x="407.5" y="-7.3" font-family="Helvetica,sans-Serif" font-size="9.00">_stack_info</text>
</a>
</g>
</g>
<!-- Node9&#45;&gt;Node10 -->
<g id="edge9" class="edge"><title>Node9&#45;&gt;Node10</title>
<path fill="none" stroke="midnightblue" d="M311.84,-17.1441C322.133,-16.8566 332.517,-16.5666 342.445,-16.2892"/>
<polygon fill="midnightblue" stroke="midnightblue" points="311.497,-13.6523 301.598,-17.4302 311.692,-20.6495 311.497,-13.6523"/>
</g>
</g>
</svg>
