<?xml version="1.0" encoding="UTF-8" standalone="no"?>
<!DOCTYPE svg PUBLIC "-//W3C//DTD SVG 1.1//EN"
 "http://www.w3.org/Graphics/SVG/1.1/DTD/svg11.dtd">
<!-- Generated by graphviz version 2.38.0 (20140413.2041)
 -->
<!-- Title: Graphical Class Hierarchy Pages: 1 -->
<svg width="284pt" height="47pt"
 viewBox="0.00 0.00 284.00 47.00" xmlns="http://www.w3.org/2000/svg" xmlns:xlink="http://www.w3.org/1999/xlink">
<g id="graph0" class="graph" transform="scale(1 1) rotate(0) translate(4 43)">
<title>Graphical Class Hierarchy</title>
<polygon fill="white" stroke="none" points="-4,4 -4,-43 280,-43 280,4 -4,4"/>
<!-- Node1 -->
<g id="node1" class="node"><title>Node1</title>
<g id="a_node1"><a xlink:href="a00703.html" target="_top" xlink:title="std::unary_function\l\&lt; __gnu_cxx::throw_value\l_random, size_t \&gt;">
<polygon fill="white" stroke="black" points="0,-0.5 0,-38.5 124,-38.5 124,-0.5 0,-0.5"/>
<text text-anchor="start" x="8" y="-27.3" font-family="Helvetica,sans-Serif" font-size="9.00">std::unary_function</text>
<text text-anchor="start" x="8" y="-17.3" font-family="Helvetica,sans-Serif" font-size="9.00">&lt; __gnu_cxx::throw_value</text>
<text text-anchor="middle" x="62" y="-7.3" font-family="Helvetica,sans-Serif" font-size="9.00">_random, size_t &gt;</text>
</a>
</g>
</g>
<!-- Node2 -->
<g id="node2" class="node"><title>Node2</title>
<g id="a_node2"><a xlink:href="a00582.html" target="_top" xlink:title="Explicit specialization of std::hash for __gnu_cxx::throw_value_random. ">
<polygon fill="white" stroke="black" points="160,-5.5 160,-33.5 276,-33.5 276,-5.5 160,-5.5"/>
<text text-anchor="start" x="168" y="-22.3" font-family="Helvetica,sans-Serif" font-size="9.00">std::hash&lt; __gnu_cxx</text>
<text text-anchor="middle" x="218" y="-12.3" font-family="Helvetica,sans-Serif" font-size="9.00">::throw_value_random &gt;</text>
</a>
</g>
</g>
<!-- Node1&#45;&gt;Node2 -->
<g id="edge1" class="edge"><title>Node1&#45;&gt;Node2</title>
<path fill="none" stroke="midnightblue" d="M134.31,-19.5C142.891,-19.5 151.565,-19.5 159.906,-19.5"/>
<polygon fill="midnightblue" stroke="midnightblue" points="134.307,-16.0001 124.307,-19.5 134.307,-23.0001 134.307,-16.0001"/>
</g>
</g>
</svg>
