<?xml version="1.0" encoding="UTF-8" standalone="no"?>
<!DOCTYPE svg PUBLIC "-//W3C//DTD SVG 1.1//EN"
 "http://www.w3.org/Graphics/SVG/1.1/DTD/svg11.dtd">
<!-- Generated by graphviz version 2.38.0 (20140413.2041)
 -->
<!-- Title: Graphical Class Hierarchy Pages: 1 -->
<svg width="524pt" height="435pt"
 viewBox="0.00 0.00 524.00 435.00" xmlns="http://www.w3.org/2000/svg" xmlns:xlink="http://www.w3.org/1999/xlink">
<g id="graph0" class="graph" transform="scale(1 1) rotate(0) translate(4 431)">
<title>Graphical Class Hierarchy</title>
<polygon fill="white" stroke="none" points="-4,4 -4,-431 520,-431 520,4 -4,4"/>
<!-- Node1 -->
<g id="node1" class="node"><title>Node1</title>
<g id="a_node1"><a xlink:href="a00248.html" target="_top" xlink:title="Primary template. ">
<polygon fill="white" stroke="black" points="186.5,-321.5 186.5,-359.5 309.5,-359.5 309.5,-321.5 186.5,-321.5"/>
<text text-anchor="start" x="194.5" y="-348.3" font-family="Helvetica,sans-Serif" font-size="9.00">__gnu_pbds::detail</text>
<text text-anchor="start" x="194.5" y="-338.3" font-family="Helvetica,sans-Serif" font-size="9.00">::hash_eq_fn&lt; Key, Eq</text>
<text text-anchor="middle" x="248" y="-328.3" font-family="Helvetica,sans-Serif" font-size="9.00">_Fn, _Alloc, Store_Hash &gt;</text>
</a>
</g>
</g>
<!-- Node2 -->
<g id="node2" class="node"><title>Node2</title>
<g id="a_node2"><a xlink:href="a00208.html" target="_top" xlink:title="__gnu_pbds::detail\l::cc_ht_map\&lt; Key, Mapped,\l Hash_Fn, Eq_Fn, _Alloc,\l Store_Hash, Comb_Hash_Fn,\l Resize_Policy \&gt;">
<polygon fill="white" stroke="black" points="371,-318.5 371,-376.5 513,-376.5 513,-318.5 371,-318.5"/>
<text text-anchor="start" x="379" y="-365.3" font-family="Helvetica,sans-Serif" font-size="9.00">__gnu_pbds::detail</text>
<text text-anchor="start" x="379" y="-355.3" font-family="Helvetica,sans-Serif" font-size="9.00">::cc_ht_map&lt; Key, Mapped,</text>
<text text-anchor="start" x="379" y="-345.3" font-family="Helvetica,sans-Serif" font-size="9.00"> Hash_Fn, Eq_Fn, _Alloc,</text>
<text text-anchor="start" x="379" y="-335.3" font-family="Helvetica,sans-Serif" font-size="9.00"> Store_Hash, Comb_Hash_Fn,</text>
<text text-anchor="middle" x="442" y="-325.3" font-family="Helvetica,sans-Serif" font-size="9.00"> Resize_Policy &gt;</text>
</a>
</g>
</g>
<!-- Node1&#45;&gt;Node2 -->
<g id="edge1" class="edge"><title>Node1&#45;&gt;Node2</title>
<path fill="none" stroke="midnightblue" d="M319.956,-343.087C336.602,-343.694 354.329,-344.34 370.937,-344.946"/>
<polygon fill="midnightblue" stroke="midnightblue" points="319.871,-339.582 309.75,-342.715 319.616,-346.577 319.871,-339.582"/>
</g>
<!-- Node3 -->
<g id="node3" class="node"><title>Node3</title>
<g id="a_node3"><a xlink:href="a00247.html" target="_top" xlink:title="__gnu_pbds::detail\l::gp_ht_map\&lt; Key, Mapped,\l Hash_Fn, Eq_Fn, _Alloc,\l Store_Hash, Comb_Probe\l_Fn, Probe_Fn, Resize_Policy \&gt;">
<polygon fill="white" stroke="black" points="368,-241.5 368,-299.5 516,-299.5 516,-241.5 368,-241.5"/>
<text text-anchor="start" x="376" y="-288.3" font-family="Helvetica,sans-Serif" font-size="9.00">__gnu_pbds::detail</text>
<text text-anchor="start" x="376" y="-278.3" font-family="Helvetica,sans-Serif" font-size="9.00">::gp_ht_map&lt; Key, Mapped,</text>
<text text-anchor="start" x="376" y="-268.3" font-family="Helvetica,sans-Serif" font-size="9.00"> Hash_Fn, Eq_Fn, _Alloc,</text>
<text text-anchor="start" x="376" y="-258.3" font-family="Helvetica,sans-Serif" font-size="9.00"> Store_Hash, Comb_Probe</text>
<text text-anchor="middle" x="442" y="-248.3" font-family="Helvetica,sans-Serif" font-size="9.00">_Fn, Probe_Fn, Resize_Policy &gt;</text>
</a>
</g>
</g>
<!-- Node1&#45;&gt;Node3 -->
<g id="edge2" class="edge"><title>Node1&#45;&gt;Node3</title>
<path fill="none" stroke="midnightblue" d="M316.297,-318.067C321.62,-316.211 326.904,-314.34 332,-312.5 343.635,-308.298 355.914,-303.714 367.87,-299.168"/>
<polygon fill="midnightblue" stroke="midnightblue" points="315.015,-314.807 306.708,-321.384 317.303,-321.422 315.015,-314.807"/>
</g>
<!-- Node4 -->
<g id="node4" class="node"><title>Node4</title>
<g id="a_node4"><a xlink:href="a00269.html" target="_top" xlink:title="Base type for PATRICIA trees. ">
<polygon fill="white" stroke="black" points="200.5,-140.5 200.5,-168.5 295.5,-168.5 295.5,-140.5 200.5,-140.5"/>
<text text-anchor="start" x="208.5" y="-157.3" font-family="Helvetica,sans-Serif" font-size="9.00">__gnu_pbds::detail</text>
<text text-anchor="middle" x="248" y="-147.3" font-family="Helvetica,sans-Serif" font-size="9.00">::pat_trie_base</text>
</a>
</g>
</g>
<!-- Node5 -->
<g id="node5" class="node"><title>Node5</title>
<g id="a_node5"><a xlink:href="a00282.html" target="_top" xlink:title="PATRICIA trie.This implementation loosely borrows ideas from: 1) Fast Mergeable Integer Maps...">
<polygon fill="white" stroke="black" points="386.5,-134.5 386.5,-182.5 497.5,-182.5 497.5,-134.5 386.5,-134.5"/>
<text text-anchor="start" x="394.5" y="-171.3" font-family="Helvetica,sans-Serif" font-size="9.00">__gnu_pbds::detail</text>
<text text-anchor="start" x="394.5" y="-161.3" font-family="Helvetica,sans-Serif" font-size="9.00">::pat_trie_map&lt; Key,</text>
<text text-anchor="start" x="394.5" y="-151.3" font-family="Helvetica,sans-Serif" font-size="9.00"> Mapped, Node_And_It</text>
<text text-anchor="middle" x="442" y="-141.3" font-family="Helvetica,sans-Serif" font-size="9.00">_Traits, _Alloc &gt;</text>
</a>
</g>
</g>
<!-- Node4&#45;&gt;Node5 -->
<g id="edge3" class="edge"><title>Node4&#45;&gt;Node5</title>
<path fill="none" stroke="midnightblue" d="M306.185,-155.691C331.558,-156.22 361.281,-156.839 386.352,-157.361"/>
<polygon fill="midnightblue" stroke="midnightblue" points="306.039,-152.188 295.968,-155.479 305.893,-159.186 306.039,-152.188"/>
</g>
<!-- Node6 -->
<g id="node6" class="node"><title>Node6</title>
<g id="a_node6"><a xlink:href="a00284.html" target="_top" xlink:title="Primary template. ">
<polygon fill="white" stroke="black" points="188,-378.5 188,-426.5 308,-426.5 308,-378.5 188,-378.5"/>
<text text-anchor="start" x="196" y="-415.3" font-family="Helvetica,sans-Serif" font-size="9.00">__gnu_pbds::detail</text>
<text text-anchor="start" x="196" y="-405.3" font-family="Helvetica,sans-Serif" font-size="9.00">::ranged_hash_fn&lt; Key,</text>
<text text-anchor="start" x="196" y="-395.3" font-family="Helvetica,sans-Serif" font-size="9.00"> Hash_Fn, _Alloc, Comb</text>
<text text-anchor="middle" x="248" y="-385.3" font-family="Helvetica,sans-Serif" font-size="9.00">_Hash_Fn, Store_Hash &gt;</text>
</a>
</g>
</g>
<!-- Node6&#45;&gt;Node2 -->
<g id="edge4" class="edge"><title>Node6&#45;&gt;Node2</title>
<path fill="none" stroke="midnightblue" d="M318.116,-382.701C335.279,-377.785 353.689,-372.511 370.898,-367.581"/>
<polygon fill="midnightblue" stroke="midnightblue" points="316.822,-379.431 308.173,-385.549 318.75,-386.16 316.822,-379.431"/>
</g>
<!-- Node7 -->
<g id="node7" class="node"><title>Node7</title>
<g id="a_node7"><a xlink:href="a00289.html" target="_top" xlink:title="Primary template. ">
<polygon fill="white" stroke="black" points="164,-187.5 164,-235.5 332,-235.5 332,-187.5 164,-187.5"/>
<text text-anchor="start" x="172" y="-224.3" font-family="Helvetica,sans-Serif" font-size="9.00">__gnu_pbds::detail</text>
<text text-anchor="start" x="172" y="-214.3" font-family="Helvetica,sans-Serif" font-size="9.00">::ranged_probe_fn&lt; Key,</text>
<text text-anchor="start" x="172" y="-204.3" font-family="Helvetica,sans-Serif" font-size="9.00"> Hash_Fn, _Alloc, Comb</text>
<text text-anchor="middle" x="248" y="-194.3" font-family="Helvetica,sans-Serif" font-size="9.00">_Probe_Fn, Probe_Fn, Store_Hash &gt;</text>
</a>
</g>
</g>
<!-- Node7&#45;&gt;Node3 -->
<g id="edge5" class="edge"><title>Node7&#45;&gt;Node3</title>
<path fill="none" stroke="midnightblue" d="M337.157,-238.59C347.419,-241.743 357.801,-244.934 367.831,-248.016"/>
<polygon fill="midnightblue" stroke="midnightblue" points="337.958,-235.174 327.371,-235.583 335.901,-241.866 337.958,-235.174"/>
</g>
<!-- Node8 -->
<g id="node8" class="node"><title>Node8</title>
<g id="a_node8"><a xlink:href="a00325.html" target="_top" xlink:title="Primary template. ">
<polygon fill="white" stroke="black" points="0,-167.5 0,-205.5 128,-205.5 128,-167.5 0,-167.5"/>
<text text-anchor="start" x="8" y="-194.3" font-family="Helvetica,sans-Serif" font-size="9.00">__gnu_pbds::detail</text>
<text text-anchor="start" x="8" y="-184.3" font-family="Helvetica,sans-Serif" font-size="9.00">::type_base&lt; Key, Mapped,</text>
<text text-anchor="middle" x="64" y="-174.3" font-family="Helvetica,sans-Serif" font-size="9.00"> _Alloc, Store_Hash &gt;</text>
</a>
</g>
</g>
<!-- Node9 -->
<g id="node9" class="node"><title>Node9</title>
<g id="a_node9"><a xlink:href="a00331.html" target="_top" xlink:title="Traits for abstract types. ">
<polygon fill="white" stroke="black" points="193.5,-254.5 193.5,-302.5 302.5,-302.5 302.5,-254.5 193.5,-254.5"/>
<text text-anchor="start" x="201.5" y="-291.3" font-family="Helvetica,sans-Serif" font-size="9.00">__gnu_pbds::detail</text>
<text text-anchor="start" x="201.5" y="-281.3" font-family="Helvetica,sans-Serif" font-size="9.00">::types_traits&lt; Key,</text>
<text text-anchor="start" x="201.5" y="-271.3" font-family="Helvetica,sans-Serif" font-size="9.00"> Mapped, _Alloc, Store</text>
<text text-anchor="middle" x="248" y="-261.3" font-family="Helvetica,sans-Serif" font-size="9.00">_Hash &gt;</text>
</a>
</g>
</g>
<!-- Node8&#45;&gt;Node9 -->
<g id="edge6" class="edge"><title>Node8&#45;&gt;Node9</title>
<path fill="none" stroke="midnightblue" d="M102.755,-210.926C120.897,-222.16 143.179,-235.238 164,-245.5 173.319,-250.093 183.446,-254.543 193.318,-258.609"/>
<polygon fill="midnightblue" stroke="midnightblue" points="104.54,-207.914 94.2055,-205.579 100.828,-213.849 104.54,-207.914"/>
</g>
<!-- Node10 -->
<g id="node10" class="node"><title>Node10</title>
<g id="a_node10"><a xlink:href="a00331.html" target="_top" xlink:title="__gnu_pbds::detail\l::types_traits\&lt; Key,\l Mapped, _Alloc, false \&gt;">
<polygon fill="white" stroke="black" points="191,-76.5 191,-114.5 305,-114.5 305,-76.5 191,-76.5"/>
<text text-anchor="start" x="199" y="-103.3" font-family="Helvetica,sans-Serif" font-size="9.00">__gnu_pbds::detail</text>
<text text-anchor="start" x="199" y="-93.3" font-family="Helvetica,sans-Serif" font-size="9.00">::types_traits&lt; Key,</text>
<text text-anchor="middle" x="248" y="-83.3" font-family="Helvetica,sans-Serif" font-size="9.00"> Mapped, _Alloc, false &gt;</text>
</a>
</g>
</g>
<!-- Node8&#45;&gt;Node10 -->
<g id="edge9" class="edge"><title>Node8&#45;&gt;Node10</title>
<path fill="none" stroke="midnightblue" d="M106.428,-162.299C123.978,-152.357 144.779,-140.979 164,-131.5 175.833,-125.664 188.837,-119.782 200.969,-114.513"/>
<polygon fill="midnightblue" stroke="midnightblue" points="104.525,-159.355 97.5714,-167.349 107.992,-165.436 104.525,-159.355"/>
</g>
<!-- Node9&#45;&gt;Node2 -->
<g id="edge7" class="edge"><title>Node9&#45;&gt;Node2</title>
<path fill="none" stroke="midnightblue" d="M312.331,-301.26C331.037,-307.982 351.623,-315.38 370.738,-322.25"/>
<polygon fill="midnightblue" stroke="midnightblue" points="313.332,-297.9 302.738,-297.812 310.965,-304.488 313.332,-297.9"/>
</g>
<!-- Node9&#45;&gt;Node3 -->
<g id="edge8" class="edge"><title>Node9&#45;&gt;Node3</title>
<path fill="none" stroke="midnightblue" d="M312.906,-275.837C330.532,-275.103 349.789,-274.3 367.892,-273.546"/>
<polygon fill="midnightblue" stroke="midnightblue" points="312.584,-272.348 302.738,-276.261 312.875,-279.341 312.584,-272.348"/>
</g>
<!-- Node10&#45;&gt;Node5 -->
<g id="edge12" class="edge"><title>Node10&#45;&gt;Node5</title>
<path fill="none" stroke="midnightblue" d="M314.836,-117.102C338.087,-124.732 363.966,-133.223 386.204,-140.52"/>
<polygon fill="midnightblue" stroke="midnightblue" points="315.643,-113.684 305.05,-113.892 313.461,-120.335 315.643,-113.684"/>
</g>
<!-- Node11 -->
<g id="node11" class="node"><title>Node11</title>
<g id="a_node11"><a xlink:href="a00259.html" target="_top" xlink:title="list&#45;based (with updates) associative container. Skip to the lu, my darling. ">
<polygon fill="white" stroke="black" points="384,-0.5 384,-48.5 500,-48.5 500,-0.5 384,-0.5"/>
<text text-anchor="start" x="392" y="-37.3" font-family="Helvetica,sans-Serif" font-size="9.00">__gnu_pbds::detail</text>
<text text-anchor="start" x="392" y="-27.3" font-family="Helvetica,sans-Serif" font-size="9.00">::lu_map&lt; Key, Mapped,</text>
<text text-anchor="start" x="392" y="-17.3" font-family="Helvetica,sans-Serif" font-size="9.00"> Eq_Fn, _Alloc, Update</text>
<text text-anchor="middle" x="442" y="-7.3" font-family="Helvetica,sans-Serif" font-size="9.00">_Policy &gt;</text>
</a>
</g>
</g>
<!-- Node10&#45;&gt;Node11 -->
<g id="edge10" class="edge"><title>Node10&#45;&gt;Node11</title>
<path fill="none" stroke="midnightblue" d="M310.038,-72.9286C333.727,-64.1687 360.705,-54.1923 383.995,-45.5801"/>
<polygon fill="midnightblue" stroke="midnightblue" points="308.618,-69.7221 300.452,-76.4733 311.046,-76.2876 308.618,-69.7221"/>
</g>
<!-- Node12 -->
<g id="node12" class="node"><title>Node12</title>
<g id="a_node12"><a xlink:href="a00264.html" target="_top" xlink:title="Ordered&#45;vector tree associative&#45;container. ">
<polygon fill="white" stroke="black" points="382.5,-67.5 382.5,-115.5 501.5,-115.5 501.5,-67.5 382.5,-67.5"/>
<text text-anchor="start" x="390.5" y="-104.3" font-family="Helvetica,sans-Serif" font-size="9.00">__gnu_pbds::detail</text>
<text text-anchor="start" x="390.5" y="-94.3" font-family="Helvetica,sans-Serif" font-size="9.00">::ov_tree_map&lt; Key,</text>
<text text-anchor="start" x="390.5" y="-84.3" font-family="Helvetica,sans-Serif" font-size="9.00"> Mapped, Cmp_Fn, Node</text>
<text text-anchor="middle" x="442" y="-74.3" font-family="Helvetica,sans-Serif" font-size="9.00">_And_It_Traits, _Alloc &gt;</text>
</a>
</g>
</g>
<!-- Node10&#45;&gt;Node12 -->
<g id="edge11" class="edge"><title>Node10&#45;&gt;Node12</title>
<path fill="none" stroke="midnightblue" d="M315.204,-94.1207C336.978,-93.6671 361.022,-93.1662 382.206,-92.7249"/>
<polygon fill="midnightblue" stroke="midnightblue" points="314.975,-90.6247 305.05,-94.3323 315.121,-97.6231 314.975,-90.6247"/>
</g>
</g>
</svg>
