<?xml version="1.0" encoding="UTF-8" standalone="no"?>
<!DOCTYPE svg PUBLIC "-//W3C//DTD SVG 1.1//EN"
 "http://www.w3.org/Graphics/SVG/1.1/DTD/svg11.dtd">
<!-- Generated by graphviz version 2.38.0 (20140413.2041)
 -->
<!-- Title: Graphical Class Hierarchy Pages: 1 -->
<svg width="268pt" height="121pt"
 viewBox="0.00 0.00 268.00 121.00" xmlns="http://www.w3.org/2000/svg" xmlns:xlink="http://www.w3.org/1999/xlink">
<g id="graph0" class="graph" transform="scale(1 1) rotate(0) translate(4 117)">
<title>Graphical Class Hierarchy</title>
<polygon fill="white" stroke="none" points="-4,4 -4,-117 264,-117 264,4 -4,4"/>
<!-- Node1 -->
<g id="node1" class="node"><title>Node1</title>
<g id="a_node1"><a xlink:href="a00179.html" target="_top" xlink:title="Base class for exceptions. ">
<polygon fill="white" stroke="black" points="0,-42.5 0,-70.5 111,-70.5 111,-42.5 0,-42.5"/>
<text text-anchor="start" x="8" y="-59.3" font-family="Helvetica,sans-Serif" font-size="9.00">__gnu_pbds::container</text>
<text text-anchor="middle" x="55.5" y="-49.3" font-family="Helvetica,sans-Serif" font-size="9.00">_error</text>
</a>
</g>
</g>
<!-- Node2 -->
<g id="node2" class="node"><title>Node2</title>
<g id="a_node2"><a xlink:href="a00340.html" target="_top" xlink:title="An entry cannot be inserted into a container object for logical reasons (not, e.g., if memory is unabvailable, in which case the allocator_type&#39;s exception will be thrown). ">
<polygon fill="white" stroke="black" points="156,-84.5 156,-112.5 251,-112.5 251,-84.5 156,-84.5"/>
<text text-anchor="start" x="164" y="-101.3" font-family="Helvetica,sans-Serif" font-size="9.00">__gnu_pbds::insert</text>
<text text-anchor="middle" x="203.5" y="-91.3" font-family="Helvetica,sans-Serif" font-size="9.00">_error</text>
</a>
</g>
</g>
<!-- Node1&#45;&gt;Node2 -->
<g id="edge1" class="edge"><title>Node1&#45;&gt;Node2</title>
<path fill="none" stroke="midnightblue" d="M115.212,-73.3897C128.722,-77.2762 142.912,-81.3582 155.831,-85.0747"/>
<polygon fill="midnightblue" stroke="midnightblue" points="116.1,-70.0033 105.522,-70.6022 114.165,-76.7305 116.1,-70.0033"/>
</g>
<!-- Node3 -->
<g id="node3" class="node"><title>Node3</title>
<g id="a_node3"><a xlink:href="a00341.html" target="_top" xlink:title="A join cannot be performed logical reasons (i.e., the ranges of the two container objects being joine...">
<polygon fill="white" stroke="black" points="147,-47.5 147,-65.5 260,-65.5 260,-47.5 147,-47.5"/>
<text text-anchor="middle" x="203.5" y="-54.3" font-family="Helvetica,sans-Serif" font-size="9.00">__gnu_pbds::join_error</text>
</a>
</g>
</g>
<!-- Node1&#45;&gt;Node3 -->
<g id="edge2" class="edge"><title>Node1&#45;&gt;Node3</title>
<path fill="none" stroke="midnightblue" d="M121.519,-56.5C129.998,-56.5 138.622,-56.5 146.926,-56.5"/>
<polygon fill="midnightblue" stroke="midnightblue" points="121.28,-53.0001 111.28,-56.5 121.28,-60.0001 121.28,-53.0001"/>
</g>
<!-- Node4 -->
<g id="node4" class="node"><title>Node4</title>
<g id="a_node4"><a xlink:href="a00359.html" target="_top" xlink:title="A container cannot be resized. ">
<polygon fill="white" stroke="black" points="154.5,-0.5 154.5,-28.5 252.5,-28.5 252.5,-0.5 154.5,-0.5"/>
<text text-anchor="start" x="162.5" y="-17.3" font-family="Helvetica,sans-Serif" font-size="9.00">__gnu_pbds::resize</text>
<text text-anchor="middle" x="203.5" y="-7.3" font-family="Helvetica,sans-Serif" font-size="9.00">_error</text>
</a>
</g>
</g>
<!-- Node1&#45;&gt;Node4 -->
<g id="edge3" class="edge"><title>Node1&#45;&gt;Node4</title>
<path fill="none" stroke="midnightblue" d="M115.292,-39.5872C128.264,-35.8555 141.859,-31.9447 154.351,-28.351"/>
<polygon fill="midnightblue" stroke="midnightblue" points="114.165,-36.2695 105.522,-42.3978 116.1,-42.9967 114.165,-36.2695"/>
</g>
</g>
</svg>
