<?xml version="1.0" encoding="UTF-8" standalone="no"?>
<!DOCTYPE svg PUBLIC "-//W3C//DTD SVG 1.1//EN"
 "http://www.w3.org/Graphics/SVG/1.1/DTD/svg11.dtd">
<!-- Generated by graphviz version 2.38.0 (20140413.2041)
 -->
<!-- Title: Graphical Class Hierarchy Pages: 1 -->
<svg width="243pt" height="175pt"
 viewBox="0.00 0.00 243.00 175.00" xmlns="http://www.w3.org/2000/svg" xmlns:xlink="http://www.w3.org/1999/xlink">
<g id="graph0" class="graph" transform="scale(1 1) rotate(0) translate(4 171)">
<title>Graphical Class Hierarchy</title>
<polygon fill="white" stroke="none" points="-4,4 -4,-171 239,-171 239,4 -4,4"/>
<!-- Node1 -->
<g id="node1" class="node"><title>Node1</title>
<g id="a_node1"><a xlink:href="a00423.html" target="_top" xlink:title="std::binary_function\l\&lt; _Tp, _Tp, _Tp \&gt;">
<polygon fill="white" stroke="black" points="0,-69.5 0,-97.5 96,-97.5 96,-69.5 0,-69.5"/>
<text text-anchor="start" x="8" y="-86.3" font-family="Helvetica,sans-Serif" font-size="9.00">std::binary_function</text>
<text text-anchor="middle" x="48" y="-76.3" font-family="Helvetica,sans-Serif" font-size="9.00">&lt; _Tp, _Tp, _Tp &gt;</text>
</a>
</g>
</g>
<!-- Node2 -->
<g id="node2" class="node"><title>Node2</title>
<g id="a_node2"><a xlink:href="a00556.html" target="_top" xlink:title="One of the math functors. ">
<polygon fill="white" stroke="black" points="137,-148.5 137,-166.5 230,-166.5 230,-148.5 137,-148.5"/>
<text text-anchor="middle" x="183.5" y="-155.3" font-family="Helvetica,sans-Serif" font-size="9.00">std::divides&lt; _Tp &gt;</text>
</a>
</g>
</g>
<!-- Node1&#45;&gt;Node2 -->
<g id="edge1" class="edge"><title>Node1&#45;&gt;Node2</title>
<path fill="none" stroke="midnightblue" d="M75.2031,-103.679C91.0375,-115.224 111.973,-129.378 132,-139.5 138.646,-142.859 146.069,-145.876 153.136,-148.437"/>
<polygon fill="midnightblue" stroke="midnightblue" points="77.0869,-100.718 66.9691,-97.5751 72.9184,-106.342 77.0869,-100.718"/>
</g>
<!-- Node3 -->
<g id="node3" class="node"><title>Node3</title>
<g id="a_node3"><a xlink:href="a00640.html" target="_top" xlink:title="One of the math functors. ">
<polygon fill="white" stroke="black" points="139,-111.5 139,-129.5 228,-129.5 228,-111.5 139,-111.5"/>
<text text-anchor="middle" x="183.5" y="-118.3" font-family="Helvetica,sans-Serif" font-size="9.00">std::minus&lt; _Tp &gt;</text>
</a>
</g>
</g>
<!-- Node1&#45;&gt;Node3 -->
<g id="edge2" class="edge"><title>Node1&#45;&gt;Node3</title>
<path fill="none" stroke="midnightblue" d="M105.781,-99.2372C120.764,-103.39 136.432,-107.732 149.674,-111.402"/>
<polygon fill="midnightblue" stroke="midnightblue" points="106.639,-95.8429 96.0671,-96.5448 104.769,-102.589 106.639,-95.8429"/>
</g>
<!-- Node4 -->
<g id="node4" class="node"><title>Node4</title>
<g id="a_node4"><a xlink:href="a00641.html" target="_top" xlink:title="One of the math functors. ">
<polygon fill="white" stroke="black" points="134,-74.5 134,-92.5 233,-92.5 233,-74.5 134,-74.5"/>
<text text-anchor="middle" x="183.5" y="-81.3" font-family="Helvetica,sans-Serif" font-size="9.00">std::modulus&lt; _Tp &gt;</text>
</a>
</g>
</g>
<!-- Node1&#45;&gt;Node4 -->
<g id="edge3" class="edge"><title>Node1&#45;&gt;Node4</title>
<path fill="none" stroke="midnightblue" d="M106.221,-83.5C115.338,-83.5 124.697,-83.5 133.599,-83.5"/>
<polygon fill="midnightblue" stroke="midnightblue" points="106.067,-80.0001 96.0671,-83.5 106.067,-87.0001 106.067,-80.0001"/>
</g>
<!-- Node5 -->
<g id="node5" class="node"><title>Node5</title>
<g id="a_node5"><a xlink:href="a00649.html" target="_top" xlink:title="One of the math functors. ">
<polygon fill="white" stroke="black" points="132,-37.5 132,-55.5 235,-55.5 235,-37.5 132,-37.5"/>
<text text-anchor="middle" x="183.5" y="-44.3" font-family="Helvetica,sans-Serif" font-size="9.00">std::multiplies&lt; _Tp &gt;</text>
</a>
</g>
</g>
<!-- Node1&#45;&gt;Node5 -->
<g id="edge4" class="edge"><title>Node1&#45;&gt;Node5</title>
<path fill="none" stroke="midnightblue" d="M105.781,-67.7628C120.764,-63.6104 136.432,-59.2679 149.674,-55.5979"/>
<polygon fill="midnightblue" stroke="midnightblue" points="104.769,-64.4114 96.0671,-70.4552 106.639,-71.1571 104.769,-64.4114"/>
</g>
<!-- Node6 -->
<g id="node6" class="node"><title>Node6</title>
<g id="a_node6"><a xlink:href="a00672.html" target="_top" xlink:title="One of the math functors. ">
<polygon fill="white" stroke="black" points="143,-0.5 143,-18.5 224,-18.5 224,-0.5 143,-0.5"/>
<text text-anchor="middle" x="183.5" y="-7.3" font-family="Helvetica,sans-Serif" font-size="9.00">std::plus&lt; _Tp &gt;</text>
</a>
</g>
</g>
<!-- Node1&#45;&gt;Node6 -->
<g id="edge5" class="edge"><title>Node1&#45;&gt;Node6</title>
<path fill="none" stroke="midnightblue" d="M75.9442,-63.3966C91.7407,-52.1933 112.39,-38.5241 132,-28.5 139.257,-24.7907 147.413,-21.4082 155.02,-18.5588"/>
<polygon fill="midnightblue" stroke="midnightblue" points="73.7757,-60.645 67.705,-69.3282 77.8656,-66.326 73.7757,-60.645"/>
</g>
</g>
</svg>
