<?xml version="1.0" encoding="UTF-8" standalone="no"?>
<!DOCTYPE svg PUBLIC "-//W3C//DTD SVG 1.1//EN"
 "http://www.w3.org/Graphics/SVG/1.1/DTD/svg11.dtd">
<!-- Generated by graphviz version 2.38.0 (20140413.2041)
 -->
<!-- Title: Graphical Class Hierarchy Pages: 1 -->
<svg width="848pt" height="389pt"
 viewBox="0.00 0.00 848.00 389.00" xmlns="http://www.w3.org/2000/svg" xmlns:xlink="http://www.w3.org/1999/xlink">
<g id="graph0" class="graph" transform="scale(1 1) rotate(0) translate(4 385)">
<title>Graphical Class Hierarchy</title>
<polygon fill="white" stroke="none" points="-4,4 -4,-385 844,-385 844,4 -4,4"/>
<!-- Node1 -->
<g id="node1" class="node"><title>Node1</title>
<g id="a_node1"><a xlink:href="a00073.html" target="_top" xlink:title="Base class that supports tracking of iterators that reference a sequence. ">
<polygon fill="white" stroke="black" points="0,-203.5 0,-231.5 103,-231.5 103,-203.5 0,-203.5"/>
<text text-anchor="start" x="8" y="-220.3" font-family="Helvetica,sans-Serif" font-size="9.00">__gnu_debug::_Safe</text>
<text text-anchor="middle" x="51.5" y="-210.3" font-family="Helvetica,sans-Serif" font-size="9.00">_sequence_base</text>
</a>
</g>
</g>
<!-- Node2 -->
<g id="node2" class="node"><title>Node2</title>
<g id="a_node2"><a xlink:href="a00072.html" target="_top" xlink:title="Base class for constructing a safe sequence type that tracks iterators that reference it...">
<polygon fill="white" stroke="black" points="153.5,-346.5 153.5,-374.5 278.5,-374.5 278.5,-346.5 153.5,-346.5"/>
<text text-anchor="start" x="161.5" y="-363.3" font-family="Helvetica,sans-Serif" font-size="9.00">__gnu_debug::_Safe</text>
<text text-anchor="middle" x="216" y="-353.3" font-family="Helvetica,sans-Serif" font-size="9.00">_sequence&lt; _Sequence &gt;</text>
</a>
</g>
</g>
<!-- Node1&#45;&gt;Node2 -->
<g id="edge1" class="edge"><title>Node1&#45;&gt;Node2</title>
<path fill="none" stroke="midnightblue" d="M64.8676,-240.777C79.4831,-266.266 106.034,-306.795 139,-331.5 147.024,-337.513 156.443,-342.421 165.866,-346.375"/>
<polygon fill="midnightblue" stroke="midnightblue" points="67.7919,-238.835 59.8619,-231.809 61.6796,-242.247 67.7919,-238.835"/>
</g>
<!-- Node4 -->
<g id="node4" class="node"><title>Node4</title>
<g id="a_node4"><a xlink:href="a00075.html" target="_top" xlink:title="Base class that supports tracking of local iterators that reference an unordered container. ">
<polygon fill="white" stroke="black" points="149,-293.5 149,-321.5 283,-321.5 283,-293.5 149,-293.5"/>
<text text-anchor="start" x="157" y="-310.3" font-family="Helvetica,sans-Serif" font-size="9.00">__gnu_debug::_Safe</text>
<text text-anchor="middle" x="216" y="-300.3" font-family="Helvetica,sans-Serif" font-size="9.00">_unordered_container_base</text>
</a>
</g>
</g>
<!-- Node1&#45;&gt;Node4 -->
<g id="edge3" class="edge"><title>Node1&#45;&gt;Node4</title>
<path fill="none" stroke="midnightblue" d="M78.0172,-238.058C94.6884,-250.828 117.316,-266.951 139,-278.5 149.47,-284.076 161.252,-289.115 172.358,-293.37"/>
<polygon fill="midnightblue" stroke="midnightblue" points="79.9209,-235.105 69.8787,-231.728 75.6232,-240.63 79.9209,-235.105"/>
</g>
<!-- Node6 -->
<g id="node6" class="node"><title>Node6</title>
<g id="a_node6"><a xlink:href="a00072.html" target="_top" xlink:title="__gnu_debug::_Safe\l_sequence\&lt; map\&lt; _Key,\l _Tp, _Compare, _Allocator \&gt; \&gt;">
<polygon fill="white" stroke="black" points="144.5,-230.5 144.5,-268.5 287.5,-268.5 287.5,-230.5 144.5,-230.5"/>
<text text-anchor="start" x="152.5" y="-257.3" font-family="Helvetica,sans-Serif" font-size="9.00">__gnu_debug::_Safe</text>
<text text-anchor="start" x="152.5" y="-247.3" font-family="Helvetica,sans-Serif" font-size="9.00">_sequence&lt; map&lt; _Key,</text>
<text text-anchor="middle" x="216" y="-237.3" font-family="Helvetica,sans-Serif" font-size="9.00"> _Tp, _Compare, _Allocator &gt; &gt;</text>
</a>
</g>
</g>
<!-- Node1&#45;&gt;Node6 -->
<g id="edge5" class="edge"><title>Node1&#45;&gt;Node6</title>
<path fill="none" stroke="midnightblue" d="M113.014,-229.417C123.184,-231.419 133.819,-233.513 144.22,-235.562"/>
<polygon fill="midnightblue" stroke="midnightblue" points="113.513,-225.948 103.025,-227.45 112.161,-232.816 113.513,-225.948"/>
</g>
<!-- Node10 -->
<g id="node10" class="node"><title>Node10</title>
<g id="a_node10"><a xlink:href="a00072.html" target="_top" xlink:title="__gnu_debug::_Safe\l_sequence\&lt; multimap\l\&lt; _Key, _Tp, _Compare,\l _Allocator \&gt; \&gt;">
<polygon fill="white" stroke="black" points="158,-161.5 158,-209.5 274,-209.5 274,-161.5 158,-161.5"/>
<text text-anchor="start" x="166" y="-198.3" font-family="Helvetica,sans-Serif" font-size="9.00">__gnu_debug::_Safe</text>
<text text-anchor="start" x="166" y="-188.3" font-family="Helvetica,sans-Serif" font-size="9.00">_sequence&lt; multimap</text>
<text text-anchor="start" x="166" y="-178.3" font-family="Helvetica,sans-Serif" font-size="9.00">&lt; _Key, _Tp, _Compare,</text>
<text text-anchor="middle" x="216" y="-168.3" font-family="Helvetica,sans-Serif" font-size="9.00"> _Allocator &gt; &gt;</text>
</a>
</g>
</g>
<!-- Node1&#45;&gt;Node10 -->
<g id="edge9" class="edge"><title>Node1&#45;&gt;Node10</title>
<path fill="none" stroke="midnightblue" d="M113.033,-205.58C127.749,-202.682 143.438,-199.592 157.985,-196.728"/>
<polygon fill="midnightblue" stroke="midnightblue" points="112.161,-202.184 103.025,-207.55 113.513,-209.052 112.161,-202.184"/>
</g>
<!-- Node14 -->
<g id="node14" class="node"><title>Node14</title>
<g id="a_node14"><a xlink:href="a00072.html" target="_top" xlink:title="__gnu_debug::_Safe\l_sequence\&lt; multiset\l\&lt; _Key, _Compare, _Allocator \&gt; \&gt;">
<polygon fill="white" stroke="black" points="139,-94.5 139,-132.5 293,-132.5 293,-94.5 139,-94.5"/>
<text text-anchor="start" x="147" y="-121.3" font-family="Helvetica,sans-Serif" font-size="9.00">__gnu_debug::_Safe</text>
<text text-anchor="start" x="147" y="-111.3" font-family="Helvetica,sans-Serif" font-size="9.00">_sequence&lt; multiset</text>
<text text-anchor="middle" x="216" y="-101.3" font-family="Helvetica,sans-Serif" font-size="9.00">&lt; _Key, _Compare, _Allocator &gt; &gt;</text>
</a>
</g>
</g>
<!-- Node1&#45;&gt;Node14 -->
<g id="edge13" class="edge"><title>Node1&#45;&gt;Node14</title>
<path fill="none" stroke="midnightblue" d="M77.6502,-196.799C94.4899,-183.397 117.441,-165.995 139,-152.5 150.188,-145.497 162.783,-138.65 174.453,-132.696"/>
<polygon fill="midnightblue" stroke="midnightblue" points="75.0403,-194.407 69.4409,-203.401 79.4271,-199.862 75.0403,-194.407"/>
</g>
<!-- Node18 -->
<g id="node18" class="node"><title>Node18</title>
<g id="a_node18"><a xlink:href="a00072.html" target="_top" xlink:title="__gnu_debug::_Safe\l_sequence\&lt; set\&lt; _Key,\l _Compare, _Allocator \&gt; \&gt;">
<polygon fill="white" stroke="black" points="154.5,-27.5 154.5,-65.5 277.5,-65.5 277.5,-27.5 154.5,-27.5"/>
<text text-anchor="start" x="162.5" y="-54.3" font-family="Helvetica,sans-Serif" font-size="9.00">__gnu_debug::_Safe</text>
<text text-anchor="start" x="162.5" y="-44.3" font-family="Helvetica,sans-Serif" font-size="9.00">_sequence&lt; set&lt; _Key,</text>
<text text-anchor="middle" x="216" y="-34.3" font-family="Helvetica,sans-Serif" font-size="9.00"> _Compare, _Allocator &gt; &gt;</text>
</a>
</g>
</g>
<!-- Node1&#45;&gt;Node18 -->
<g id="edge17" class="edge"><title>Node1&#45;&gt;Node18</title>
<path fill="none" stroke="midnightblue" d="M63.0703,-194.244C77.0352,-165.625 104.01,-116.966 139,-85.5 147.601,-77.7651 158.017,-71.1232 168.342,-65.6262"/>
<polygon fill="midnightblue" stroke="midnightblue" points="59.8165,-192.937 58.6814,-203.47 66.1377,-195.944 59.8165,-192.937"/>
</g>
<!-- Node3 -->
<g id="node3" class="node"><title>Node3</title>
<g id="a_node3"><a xlink:href="a00071.html" target="_top" xlink:title="Like _Safe_sequence but with a special _M_invalidate_all implementation not invalidating past&#45;the&#45;end...">
<polygon fill="white" stroke="black" points="330.5,-352.5 330.5,-380.5 481.5,-380.5 481.5,-352.5 330.5,-352.5"/>
<text text-anchor="start" x="338.5" y="-369.3" font-family="Helvetica,sans-Serif" font-size="9.00">__gnu_debug::_Safe</text>
<text text-anchor="middle" x="406" y="-359.3" font-family="Helvetica,sans-Serif" font-size="9.00">_node_sequence&lt; _Sequence &gt;</text>
</a>
</g>
</g>
<!-- Node2&#45;&gt;Node3 -->
<g id="edge2" class="edge"><title>Node2&#45;&gt;Node3</title>
<path fill="none" stroke="midnightblue" d="M288.776,-362.791C302.33,-363.223 316.538,-363.677 330.183,-364.112"/>
<polygon fill="midnightblue" stroke="midnightblue" points="288.665,-359.285 278.558,-362.465 288.441,-366.282 288.665,-359.285"/>
</g>
<!-- Node5 -->
<g id="node5" class="node"><title>Node5</title>
<g id="a_node5"><a xlink:href="a00074.html" target="_top" xlink:title="Base class for constructing a safe unordered container type that tracks iterators that reference it...">
<polygon fill="white" stroke="black" points="352,-295.5 352,-333.5 460,-333.5 460,-295.5 352,-295.5"/>
<text text-anchor="start" x="360" y="-322.3" font-family="Helvetica,sans-Serif" font-size="9.00">__gnu_debug::_Safe</text>
<text text-anchor="start" x="360" y="-312.3" font-family="Helvetica,sans-Serif" font-size="9.00">_unordered_container</text>
<text text-anchor="middle" x="406" y="-302.3" font-family="Helvetica,sans-Serif" font-size="9.00">&lt; _Container &gt;</text>
</a>
</g>
</g>
<!-- Node4&#45;&gt;Node5 -->
<g id="edge4" class="edge"><title>Node4&#45;&gt;Node5</title>
<path fill="none" stroke="midnightblue" d="M293.19,-310.337C312.867,-311.07 333.625,-311.842 351.843,-312.521"/>
<polygon fill="midnightblue" stroke="midnightblue" points="293.141,-306.833 283.017,-309.958 292.88,-313.828 293.141,-306.833"/>
</g>
<!-- Node7 -->
<g id="node7" class="node"><title>Node7</title>
<g id="a_node7"><a xlink:href="a00071.html" target="_top" xlink:title="__gnu_debug::_Safe\l_node_sequence\&lt; map\l\&lt; _Key, _Tp, _Compare,\l _Allocator \&gt; \&gt;">
<polygon fill="white" stroke="black" points="348,-228.5 348,-276.5 464,-276.5 464,-228.5 348,-228.5"/>
<text text-anchor="start" x="356" y="-265.3" font-family="Helvetica,sans-Serif" font-size="9.00">__gnu_debug::_Safe</text>
<text text-anchor="start" x="356" y="-255.3" font-family="Helvetica,sans-Serif" font-size="9.00">_node_sequence&lt; map</text>
<text text-anchor="start" x="356" y="-245.3" font-family="Helvetica,sans-Serif" font-size="9.00">&lt; _Key, _Tp, _Compare,</text>
<text text-anchor="middle" x="406" y="-235.3" font-family="Helvetica,sans-Serif" font-size="9.00"> _Allocator &gt; &gt;</text>
</a>
</g>
</g>
<!-- Node6&#45;&gt;Node7 -->
<g id="edge6" class="edge"><title>Node6&#45;&gt;Node7</title>
<path fill="none" stroke="midnightblue" d="M297.913,-250.791C314.725,-251.059 332.106,-251.337 347.849,-251.588"/>
<polygon fill="midnightblue" stroke="midnightblue" points="297.594,-247.286 287.539,-250.626 297.482,-254.285 297.594,-247.286"/>
</g>
<!-- Node8 -->
<g id="node8" class="node"><title>Node8</title>
<g id="a_node8"><a xlink:href="a00066.html" target="_top" xlink:title="__gnu_debug::_Safe\l_container\&lt; map\&lt; _Key,\l _Tp, _Compare, _Allocator\l \&gt;, _Allocator, __gnu_debug\l::_Safe_node_sequence \&gt;">
<polygon fill="white" stroke="black" points="522.5,-241.5 522.5,-299.5 654.5,-299.5 654.5,-241.5 522.5,-241.5"/>
<text text-anchor="start" x="530.5" y="-288.3" font-family="Helvetica,sans-Serif" font-size="9.00">__gnu_debug::_Safe</text>
<text text-anchor="start" x="530.5" y="-278.3" font-family="Helvetica,sans-Serif" font-size="9.00">_container&lt; map&lt; _Key,</text>
<text text-anchor="start" x="530.5" y="-268.3" font-family="Helvetica,sans-Serif" font-size="9.00"> _Tp, _Compare, _Allocator</text>
<text text-anchor="start" x="530.5" y="-258.3" font-family="Helvetica,sans-Serif" font-size="9.00"> &gt;, _Allocator, __gnu_debug</text>
<text text-anchor="middle" x="588.5" y="-248.3" font-family="Helvetica,sans-Serif" font-size="9.00">::_Safe_node_sequence &gt;</text>
</a>
</g>
</g>
<!-- Node7&#45;&gt;Node8 -->
<g id="edge7" class="edge"><title>Node7&#45;&gt;Node8</title>
<path fill="none" stroke="midnightblue" d="M474.264,-259.208C489.965,-260.774 506.661,-262.438 522.272,-263.995"/>
<polygon fill="midnightblue" stroke="midnightblue" points="474.409,-255.705 464.111,-258.195 473.715,-262.67 474.409,-255.705"/>
</g>
<!-- Node9 -->
<g id="node9" class="node"><title>Node9</title>
<g id="a_node9"><a xlink:href="a00442.html" target="_top" xlink:title="Class std::map with safety/checking/debug instrumentation. ">
<polygon fill="white" stroke="black" points="712,-251.5 712,-289.5 822,-289.5 822,-251.5 712,-251.5"/>
<text text-anchor="start" x="720" y="-278.3" font-family="Helvetica,sans-Serif" font-size="9.00">std::__debug::map&lt;</text>
<text text-anchor="start" x="720" y="-268.3" font-family="Helvetica,sans-Serif" font-size="9.00"> _Key, _Tp, _Compare,</text>
<text text-anchor="middle" x="767" y="-258.3" font-family="Helvetica,sans-Serif" font-size="9.00"> _Allocator &gt;</text>
</a>
</g>
</g>
<!-- Node8&#45;&gt;Node9 -->
<g id="edge8" class="edge"><title>Node8&#45;&gt;Node9</title>
<path fill="none" stroke="midnightblue" d="M664.954,-270.5C680.681,-270.5 696.963,-270.5 711.742,-270.5"/>
<polygon fill="midnightblue" stroke="midnightblue" points="664.721,-267 654.721,-270.5 664.721,-274 664.721,-267"/>
</g>
<!-- Node11 -->
<g id="node11" class="node"><title>Node11</title>
<g id="a_node11"><a xlink:href="a00071.html" target="_top" xlink:title="__gnu_debug::_Safe\l_node_sequence\&lt; multimap\l\&lt; _Key, _Tp, _Compare,\l _Allocator \&gt; \&gt;">
<polygon fill="white" stroke="black" points="339,-161.5 339,-209.5 473,-209.5 473,-161.5 339,-161.5"/>
<text text-anchor="start" x="347" y="-198.3" font-family="Helvetica,sans-Serif" font-size="9.00">__gnu_debug::_Safe</text>
<text text-anchor="start" x="347" y="-188.3" font-family="Helvetica,sans-Serif" font-size="9.00">_node_sequence&lt; multimap</text>
<text text-anchor="start" x="347" y="-178.3" font-family="Helvetica,sans-Serif" font-size="9.00">&lt; _Key, _Tp, _Compare,</text>
<text text-anchor="middle" x="406" y="-168.3" font-family="Helvetica,sans-Serif" font-size="9.00"> _Allocator &gt; &gt;</text>
</a>
</g>
</g>
<!-- Node10&#45;&gt;Node11 -->
<g id="edge10" class="edge"><title>Node10&#45;&gt;Node11</title>
<path fill="none" stroke="midnightblue" d="M284.422,-185.5C302.137,-185.5 321.223,-185.5 338.87,-185.5"/>
<polygon fill="midnightblue" stroke="midnightblue" points="284.172,-182 274.172,-185.5 284.172,-189 284.172,-182"/>
</g>
<!-- Node12 -->
<g id="node12" class="node"><title>Node12</title>
<g id="a_node12"><a xlink:href="a00066.html" target="_top" xlink:title="__gnu_debug::_Safe\l_container\&lt; multimap\l\&lt; _Key, _Tp, _Compare,\l _Allocator \&gt;, _Allocator,\l __gnu_debug::_Safe_node\l_sequence \&gt;">
<polygon fill="white" stroke="black" points="523,-154.5 523,-222.5 654,-222.5 654,-154.5 523,-154.5"/>
<text text-anchor="start" x="531" y="-211.3" font-family="Helvetica,sans-Serif" font-size="9.00">__gnu_debug::_Safe</text>
<text text-anchor="start" x="531" y="-201.3" font-family="Helvetica,sans-Serif" font-size="9.00">_container&lt; multimap</text>
<text text-anchor="start" x="531" y="-191.3" font-family="Helvetica,sans-Serif" font-size="9.00">&lt; _Key, _Tp, _Compare,</text>
<text text-anchor="start" x="531" y="-181.3" font-family="Helvetica,sans-Serif" font-size="9.00"> _Allocator &gt;, _Allocator,</text>
<text text-anchor="start" x="531" y="-171.3" font-family="Helvetica,sans-Serif" font-size="9.00"> __gnu_debug::_Safe_node</text>
<text text-anchor="middle" x="588.5" y="-161.3" font-family="Helvetica,sans-Serif" font-size="9.00">_sequence &gt;</text>
</a>
</g>
</g>
<!-- Node11&#45;&gt;Node12 -->
<g id="edge11" class="edge"><title>Node11&#45;&gt;Node12</title>
<path fill="none" stroke="midnightblue" d="M483.565,-186.773C496.637,-186.99 510.102,-187.214 522.827,-187.425"/>
<polygon fill="midnightblue" stroke="midnightblue" points="483.243,-183.267 473.187,-186.6 483.127,-190.266 483.243,-183.267"/>
</g>
<!-- Node13 -->
<g id="node13" class="node"><title>Node13</title>
<g id="a_node13"><a xlink:href="a00443.html" target="_top" xlink:title="Class std::multimap with safety/checking/debug instrumentation. ">
<polygon fill="white" stroke="black" points="709,-169.5 709,-207.5 825,-207.5 825,-169.5 709,-169.5"/>
<text text-anchor="start" x="717" y="-196.3" font-family="Helvetica,sans-Serif" font-size="9.00">std::__debug::multimap</text>
<text text-anchor="start" x="717" y="-186.3" font-family="Helvetica,sans-Serif" font-size="9.00">&lt; _Key, _Tp, _Compare,</text>
<text text-anchor="middle" x="767" y="-176.3" font-family="Helvetica,sans-Serif" font-size="9.00"> _Allocator &gt;</text>
</a>
</g>
</g>
<!-- Node12&#45;&gt;Node13 -->
<g id="edge12" class="edge"><title>Node12&#45;&gt;Node13</title>
<path fill="none" stroke="midnightblue" d="M664.418,-188.5C679.298,-188.5 694.696,-188.5 708.867,-188.5"/>
<polygon fill="midnightblue" stroke="midnightblue" points="664.22,-185 654.22,-188.5 664.22,-192 664.22,-185"/>
</g>
<!-- Node15 -->
<g id="node15" class="node"><title>Node15</title>
<g id="a_node15"><a xlink:href="a00071.html" target="_top" xlink:title="__gnu_debug::_Safe\l_node_sequence\&lt; multiset\l\&lt; _Key, _Compare, _Allocator \&gt; \&gt;">
<polygon fill="white" stroke="black" points="329,-89.5 329,-127.5 483,-127.5 483,-89.5 329,-89.5"/>
<text text-anchor="start" x="337" y="-116.3" font-family="Helvetica,sans-Serif" font-size="9.00">__gnu_debug::_Safe</text>
<text text-anchor="start" x="337" y="-106.3" font-family="Helvetica,sans-Serif" font-size="9.00">_node_sequence&lt; multiset</text>
<text text-anchor="middle" x="406" y="-96.3" font-family="Helvetica,sans-Serif" font-size="9.00">&lt; _Key, _Compare, _Allocator &gt; &gt;</text>
</a>
</g>
</g>
<!-- Node14&#45;&gt;Node15 -->
<g id="edge14" class="edge"><title>Node14&#45;&gt;Node15</title>
<path fill="none" stroke="midnightblue" d="M303.424,-111.201C311.857,-110.977 320.372,-110.751 328.696,-110.529"/>
<polygon fill="midnightblue" stroke="midnightblue" points="303.099,-107.709 293.196,-111.474 303.285,-114.706 303.099,-107.709"/>
</g>
<!-- Node16 -->
<g id="node16" class="node"><title>Node16</title>
<g id="a_node16"><a xlink:href="a00066.html" target="_top" xlink:title="__gnu_debug::_Safe\l_container\&lt; multiset\l\&lt; _Key, _Compare, _Allocator\l \&gt;, _Allocator, __gnu_debug\l::_Safe_node_sequence \&gt;">
<polygon fill="white" stroke="black" points="519,-77.5 519,-135.5 658,-135.5 658,-77.5 519,-77.5"/>
<text text-anchor="start" x="527" y="-124.3" font-family="Helvetica,sans-Serif" font-size="9.00">__gnu_debug::_Safe</text>
<text text-anchor="start" x="527" y="-114.3" font-family="Helvetica,sans-Serif" font-size="9.00">_container&lt; multiset</text>
<text text-anchor="start" x="527" y="-104.3" font-family="Helvetica,sans-Serif" font-size="9.00">&lt; _Key, _Compare, _Allocator</text>
<text text-anchor="start" x="527" y="-94.3" font-family="Helvetica,sans-Serif" font-size="9.00"> &gt;, _Allocator, __gnu_debug</text>
<text text-anchor="middle" x="588.5" y="-84.3" font-family="Helvetica,sans-Serif" font-size="9.00">::_Safe_node_sequence &gt;</text>
</a>
</g>
</g>
<!-- Node15&#45;&gt;Node16 -->
<g id="edge15" class="edge"><title>Node15&#45;&gt;Node16</title>
<path fill="none" stroke="midnightblue" d="M493.085,-107.546C501.69,-107.451 510.346,-107.355 518.739,-107.262"/>
<polygon fill="midnightblue" stroke="midnightblue" points="492.986,-104.047 483.025,-107.658 493.063,-111.047 492.986,-104.047"/>
</g>
<!-- Node17 -->
<g id="node17" class="node"><title>Node17</title>
<g id="a_node17"><a xlink:href="a00444.html" target="_top" xlink:title="Class std::multiset with safety/checking/debug instrumentation. ">
<polygon fill="white" stroke="black" points="694,-92.5 694,-120.5 840,-120.5 840,-92.5 694,-92.5"/>
<text text-anchor="start" x="702" y="-109.3" font-family="Helvetica,sans-Serif" font-size="9.00">std::__debug::multiset</text>
<text text-anchor="middle" x="767" y="-99.3" font-family="Helvetica,sans-Serif" font-size="9.00">&lt; _Key, _Compare, _Allocator &gt;</text>
</a>
</g>
</g>
<!-- Node16&#45;&gt;Node17 -->
<g id="edge16" class="edge"><title>Node16&#45;&gt;Node17</title>
<path fill="none" stroke="midnightblue" d="M668.501,-106.5C676.973,-106.5 685.561,-106.5 693.946,-106.5"/>
<polygon fill="midnightblue" stroke="midnightblue" points="668.245,-103 658.245,-106.5 668.245,-110 668.245,-103"/>
</g>
<!-- Node19 -->
<g id="node19" class="node"><title>Node19</title>
<g id="a_node19"><a xlink:href="a00071.html" target="_top" xlink:title="__gnu_debug::_Safe\l_node_sequence\&lt; set\l\&lt; _Key, _Compare, _Allocator \&gt; \&gt;">
<polygon fill="white" stroke="black" points="329,-22.5 329,-60.5 483,-60.5 483,-22.5 329,-22.5"/>
<text text-anchor="start" x="337" y="-49.3" font-family="Helvetica,sans-Serif" font-size="9.00">__gnu_debug::_Safe</text>
<text text-anchor="start" x="337" y="-39.3" font-family="Helvetica,sans-Serif" font-size="9.00">_node_sequence&lt; set</text>
<text text-anchor="middle" x="406" y="-29.3" font-family="Helvetica,sans-Serif" font-size="9.00">&lt; _Key, _Compare, _Allocator &gt; &gt;</text>
</a>
</g>
</g>
<!-- Node18&#45;&gt;Node19 -->
<g id="edge18" class="edge"><title>Node18&#45;&gt;Node19</title>
<path fill="none" stroke="midnightblue" d="M287.633,-44.6214C301.059,-44.2644 315.163,-43.8893 328.753,-43.5278"/>
<polygon fill="midnightblue" stroke="midnightblue" points="287.423,-41.1257 277.519,-44.8904 287.609,-48.1232 287.423,-41.1257"/>
</g>
<!-- Node20 -->
<g id="node20" class="node"><title>Node20</title>
<g id="a_node20"><a xlink:href="a00066.html" target="_top" xlink:title="__gnu_debug::_Safe\l_container\&lt; set\&lt; _Key,\l _Compare, _Allocator\l \&gt;, _Allocator, __gnu_debug\l::_Safe_node_sequence \&gt;">
<polygon fill="white" stroke="black" points="522.5,-0.5 522.5,-58.5 654.5,-58.5 654.5,-0.5 522.5,-0.5"/>
<text text-anchor="start" x="530.5" y="-47.3" font-family="Helvetica,sans-Serif" font-size="9.00">__gnu_debug::_Safe</text>
<text text-anchor="start" x="530.5" y="-37.3" font-family="Helvetica,sans-Serif" font-size="9.00">_container&lt; set&lt; _Key,</text>
<text text-anchor="start" x="530.5" y="-27.3" font-family="Helvetica,sans-Serif" font-size="9.00"> _Compare, _Allocator</text>
<text text-anchor="start" x="530.5" y="-17.3" font-family="Helvetica,sans-Serif" font-size="9.00"> &gt;, _Allocator, __gnu_debug</text>
<text text-anchor="middle" x="588.5" y="-7.3" font-family="Helvetica,sans-Serif" font-size="9.00">::_Safe_node_sequence &gt;</text>
</a>
</g>
</g>
<!-- Node19&#45;&gt;Node20 -->
<g id="edge19" class="edge"><title>Node19&#45;&gt;Node20</title>
<path fill="none" stroke="midnightblue" d="M493.222,-35.7678C503.047,-35.1146 512.937,-34.4571 522.423,-33.8264"/>
<polygon fill="midnightblue" stroke="midnightblue" points="492.771,-32.29 483.025,-36.4457 493.235,-39.2745 492.771,-32.29"/>
</g>
<!-- Node21 -->
<g id="node21" class="node"><title>Node21</title>
<g id="a_node21"><a xlink:href="a00445.html" target="_top" xlink:title="Class std::set with safety/checking/debug instrumentation. ">
<polygon fill="white" stroke="black" points="696.5,-15.5 696.5,-43.5 837.5,-43.5 837.5,-15.5 696.5,-15.5"/>
<text text-anchor="start" x="704.5" y="-32.3" font-family="Helvetica,sans-Serif" font-size="9.00">std::__debug::set&lt;</text>
<text text-anchor="middle" x="767" y="-22.3" font-family="Helvetica,sans-Serif" font-size="9.00"> _Key, _Compare, _Allocator &gt;</text>
</a>
</g>
</g>
<!-- Node20&#45;&gt;Node21 -->
<g id="edge20" class="edge"><title>Node20&#45;&gt;Node21</title>
<path fill="none" stroke="midnightblue" d="M665.008,-29.5C675.398,-29.5 686.029,-29.5 696.308,-29.5"/>
<polygon fill="midnightblue" stroke="midnightblue" points="664.721,-26.0001 654.721,-29.5 664.721,-33.0001 664.721,-26.0001"/>
</g>
</g>
</svg>
