<?xml version="1.0" encoding="UTF-8" standalone="no"?>
<!DOCTYPE svg PUBLIC "-//W3C//DTD SVG 1.1//EN"
 "http://www.w3.org/Graphics/SVG/1.1/DTD/svg11.dtd">
<!-- Generated by graphviz version 2.38.0 (20140413.2041)
 -->
<!-- Title: Graphical Class Hierarchy Pages: 1 -->
<svg width="310pt" height="27pt"
 viewBox="0.00 0.00 310.00 27.00" xmlns="http://www.w3.org/2000/svg" xmlns:xlink="http://www.w3.org/1999/xlink">
<g id="graph0" class="graph" transform="scale(1 1) rotate(0) translate(4 23)">
<title>Graphical Class Hierarchy</title>
<polygon fill="white" stroke="none" points="-4,4 -4,-23 306,-23 306,4 -4,4"/>
<!-- Node1 -->
<g id="node1" class="node"><title>Node1</title>
<g id="a_node1"><a xlink:href="a00434.html" target="_top" xlink:title="Const point&#45;type iterator. ">
<polygon fill="white" stroke="black" points="0,-0.5 0,-18.5 103,-18.5 103,-0.5 0,-0.5"/>
<text text-anchor="middle" x="51.5" y="-7.3" font-family="Helvetica,sans-Serif" font-size="9.00">point_const_iterator_</text>
</a>
</g>
</g>
<!-- Node2 -->
<g id="node2" class="node"><title>Node2</title>
<g id="a_node2"><a xlink:href="a00424.html" target="_top" xlink:title="Const range&#45;type iterator. ">
<polygon fill="white" stroke="black" points="139,-0.5 139,-18.5 216,-18.5 216,-0.5 139,-0.5"/>
<text text-anchor="middle" x="177.5" y="-7.3" font-family="Helvetica,sans-Serif" font-size="9.00">const_iterator_</text>
</a>
</g>
</g>
<!-- Node1&#45;&gt;Node2 -->
<g id="edge1" class="edge"><title>Node1&#45;&gt;Node2</title>
<path fill="none" stroke="midnightblue" d="M113.433,-9.5C122.116,-9.5 130.827,-9.5 138.884,-9.5"/>
<polygon fill="midnightblue" stroke="midnightblue" points="113.293,-6.0001 103.293,-9.5 113.293,-13.0001 113.293,-6.0001"/>
</g>
<!-- Node3 -->
<g id="node3" class="node"><title>Node3</title>
<g id="a_node3"><a xlink:href="a00428.html" target="_top" xlink:title="Range&#45;type iterator. ">
<polygon fill="white" stroke="black" points="252,-0.5 252,-18.5 302,-18.5 302,-0.5 252,-0.5"/>
<text text-anchor="middle" x="277" y="-7.3" font-family="Helvetica,sans-Serif" font-size="9.00">iterator_</text>
</a>
</g>
</g>
<!-- Node2&#45;&gt;Node3 -->
<g id="edge2" class="edge"><title>Node2&#45;&gt;Node3</title>
<path fill="none" stroke="midnightblue" d="M226.478,-9.5C235.31,-9.5 244.175,-9.5 251.915,-9.5"/>
<polygon fill="midnightblue" stroke="midnightblue" points="226.196,-6.0001 216.196,-9.5 226.196,-13.0001 226.196,-6.0001"/>
</g>
</g>
</svg>
