<?xml version="1.0" encoding="UTF-8" standalone="no"?>
<!DOCTYPE svg PUBLIC "-//W3C//DTD SVG 1.1//EN"
 "http://www.w3.org/Graphics/SVG/1.1/DTD/svg11.dtd">
<!-- Generated by graphviz version 2.38.0 (20140413.2041)
 -->
<!-- Title: Graphical Class Hierarchy Pages: 1 -->
<svg width="236pt" height="84pt"
 viewBox="0.00 0.00 236.00 84.00" xmlns="http://www.w3.org/2000/svg" xmlns:xlink="http://www.w3.org/1999/xlink">
<g id="graph0" class="graph" transform="scale(1 1) rotate(0) translate(4 80)">
<title>Graphical Class Hierarchy</title>
<polygon fill="white" stroke="none" points="-4,4 -4,-80 232,-80 232,4 -4,4"/>
<!-- Node1 -->
<g id="node1" class="node"><title>Node1</title>
<g id="a_node1"><a xlink:href="a00703.html" target="_top" xlink:title="std::unary_function\l\&lt; _Tp, _Ret \&gt;">
<polygon fill="white" stroke="black" points="0,-23.5 0,-51.5 94,-51.5 94,-23.5 0,-23.5"/>
<text text-anchor="start" x="8" y="-40.3" font-family="Helvetica,sans-Serif" font-size="9.00">std::unary_function</text>
<text text-anchor="middle" x="47" y="-30.3" font-family="Helvetica,sans-Serif" font-size="9.00">&lt; _Tp, _Ret &gt;</text>
</a>
</g>
</g>
<!-- Node2 -->
<g id="node2" class="node"><title>Node2</title>
<g id="a_node2"><a xlink:href="a00543.html" target="_top" xlink:title="One of the adaptors for member pointers. ">
<polygon fill="white" stroke="black" points="130,-47.5 130,-75.5 228,-75.5 228,-47.5 130,-47.5"/>
<text text-anchor="start" x="138" y="-64.3" font-family="Helvetica,sans-Serif" font-size="9.00">std::const_mem_fun</text>
<text text-anchor="middle" x="179" y="-54.3" font-family="Helvetica,sans-Serif" font-size="9.00">_ref_t&lt; _Ret, _Tp &gt;</text>
</a>
</g>
</g>
<!-- Node1&#45;&gt;Node2 -->
<g id="edge1" class="edge"><title>Node1&#45;&gt;Node2</title>
<path fill="none" stroke="midnightblue" d="M104.097,-47.8564C112.641,-49.4338 121.395,-51.0498 129.752,-52.5926"/>
<polygon fill="midnightblue" stroke="midnightblue" points="104.668,-44.4028 94.1992,-46.0291 103.398,-51.2865 104.668,-44.4028"/>
</g>
<!-- Node3 -->
<g id="node3" class="node"><title>Node3</title>
<g id="a_node3"><a xlink:href="a00635.html" target="_top" xlink:title="One of the adaptors for member pointers. ">
<polygon fill="white" stroke="black" points="131.5,-0.5 131.5,-28.5 226.5,-28.5 226.5,-0.5 131.5,-0.5"/>
<text text-anchor="start" x="139.5" y="-17.3" font-family="Helvetica,sans-Serif" font-size="9.00">std::mem_fun_ref_t</text>
<text text-anchor="middle" x="179" y="-7.3" font-family="Helvetica,sans-Serif" font-size="9.00">&lt; _Ret, _Tp &gt;</text>
</a>
</g>
</g>
<!-- Node1&#45;&gt;Node3 -->
<g id="edge2" class="edge"><title>Node1&#45;&gt;Node3</title>
<path fill="none" stroke="midnightblue" d="M104.189,-27.5589C113.155,-25.9725 122.35,-24.3458 131.073,-22.8025"/>
<polygon fill="midnightblue" stroke="midnightblue" points="103.436,-24.1376 94.1992,-29.3263 104.656,-31.0305 103.436,-24.1376"/>
</g>
</g>
</svg>
