<?xml version="1.0" encoding="UTF-8" standalone="no"?>
<!DOCTYPE svg PUBLIC "-//W3C//DTD SVG 1.1//EN"
 "http://www.w3.org/Graphics/SVG/1.1/DTD/svg11.dtd">
<!-- Generated by graphviz version 2.38.0 (20140413.2041)
 -->
<!-- Title: Graphical Class Hierarchy Pages: 1 -->
<svg width="290pt" height="67pt"
 viewBox="0.00 0.00 290.00 67.00" xmlns="http://www.w3.org/2000/svg" xmlns:xlink="http://www.w3.org/1999/xlink">
<g id="graph0" class="graph" transform="scale(1 1) rotate(0) translate(4 63)">
<title>Graphical Class Hierarchy</title>
<polygon fill="white" stroke="none" points="-4,4 -4,-63 286,-63 286,4 -4,4"/>
<!-- Node1 -->
<g id="node1" class="node"><title>Node1</title>
<g id="a_node1"><a xlink:href="a00419.html" target="_top" xlink:title="std::_Vector_base\&lt;\l __gnu_parallel::_Piece\l\&lt; _DifferenceType \&gt;, std\l::allocator\&lt; __gnu_parallel\l::_Piece\&lt; _DifferenceType \&gt; \&gt; \&gt;">
<polygon fill="white" stroke="black" points="0,-0.5 0,-58.5 147,-58.5 147,-0.5 0,-0.5"/>
<text text-anchor="start" x="8" y="-47.3" font-family="Helvetica,sans-Serif" font-size="9.00">std::_Vector_base&lt;</text>
<text text-anchor="start" x="8" y="-37.3" font-family="Helvetica,sans-Serif" font-size="9.00"> __gnu_parallel::_Piece</text>
<text text-anchor="start" x="8" y="-27.3" font-family="Helvetica,sans-Serif" font-size="9.00">&lt; _DifferenceType &gt;, std</text>
<text text-anchor="start" x="8" y="-17.3" font-family="Helvetica,sans-Serif" font-size="9.00">::allocator&lt; __gnu_parallel</text>
<text text-anchor="middle" x="73.5" y="-7.3" font-family="Helvetica,sans-Serif" font-size="9.00">::_Piece&lt; _DifferenceType &gt; &gt; &gt;</text>
</a>
</g>
</g>
<!-- Node2 -->
<g id="node2" class="node"><title>Node2</title>
<g id="a_node2"><a xlink:href="a00716.html" target="_top" xlink:title="std::vector\&lt; __gnu\l_parallel::_Piece\&lt; \l_DifferenceType \&gt; \&gt;">
<polygon fill="white" stroke="black" points="183,-10.5 183,-48.5 282,-48.5 282,-10.5 183,-10.5"/>
<text text-anchor="start" x="191" y="-37.3" font-family="Helvetica,sans-Serif" font-size="9.00">std::vector&lt; __gnu</text>
<text text-anchor="start" x="191" y="-27.3" font-family="Helvetica,sans-Serif" font-size="9.00">_parallel::_Piece&lt; </text>
<text text-anchor="middle" x="232.5" y="-17.3" font-family="Helvetica,sans-Serif" font-size="9.00">_DifferenceType &gt; &gt;</text>
</a>
</g>
</g>
<!-- Node1&#45;&gt;Node2 -->
<g id="edge1" class="edge"><title>Node1&#45;&gt;Node2</title>
<path fill="none" stroke="darkgreen" d="M157.214,-29.5C165.887,-29.5 174.492,-29.5 182.603,-29.5"/>
<polygon fill="darkgreen" stroke="darkgreen" points="157.026,-26.0001 147.026,-29.5 157.026,-33.0001 157.026,-26.0001"/>
</g>
</g>
</svg>
