<?xml version="1.0" encoding="UTF-8" standalone="no"?>
<!DOCTYPE svg PUBLIC "-//W3C//DTD SVG 1.1//EN"
 "http://www.w3.org/Graphics/SVG/1.1/DTD/svg11.dtd">
<!-- Generated by graphviz version 2.38.0 (20140413.2041)
 -->
<!-- Title: Graphical Class Hierarchy Pages: 1 -->
<svg width="252pt" height="47pt"
 viewBox="0.00 0.00 252.00 47.00" xmlns="http://www.w3.org/2000/svg" xmlns:xlink="http://www.w3.org/1999/xlink">
<g id="graph0" class="graph" transform="scale(1 1) rotate(0) translate(4 43)">
<title>Graphical Class Hierarchy</title>
<polygon fill="white" stroke="none" points="-4,4 -4,-43 248,-43 248,4 -4,4"/>
<!-- Node1 -->
<g id="node1" class="node"><title>Node1</title>
<g id="a_node1"><a xlink:href="a00419.html" target="_top" xlink:title="std::_Vector_base\&lt;\l sub_match\&lt; _BiIter\l \&gt;, _Alloc \&gt;">
<polygon fill="white" stroke="black" points="0,-0.5 0,-38.5 98,-38.5 98,-0.5 0,-0.5"/>
<text text-anchor="start" x="8" y="-27.3" font-family="Helvetica,sans-Serif" font-size="9.00">std::_Vector_base&lt;</text>
<text text-anchor="start" x="8" y="-17.3" font-family="Helvetica,sans-Serif" font-size="9.00"> sub_match&lt; _BiIter</text>
<text text-anchor="middle" x="49" y="-7.3" font-family="Helvetica,sans-Serif" font-size="9.00"> &gt;, _Alloc &gt;</text>
</a>
</g>
</g>
<!-- Node2 -->
<g id="node2" class="node"><title>Node2</title>
<g id="a_node2"><a xlink:href="a00716.html" target="_top" xlink:title="std::vector\&lt; sub_match\l\&lt; _BiIter \&gt;, _Alloc \&gt;">
<polygon fill="white" stroke="black" points="134,-5.5 134,-33.5 244,-33.5 244,-5.5 134,-5.5"/>
<text text-anchor="start" x="142" y="-22.3" font-family="Helvetica,sans-Serif" font-size="9.00">std::vector&lt; sub_match</text>
<text text-anchor="middle" x="189" y="-12.3" font-family="Helvetica,sans-Serif" font-size="9.00">&lt; _BiIter &gt;, _Alloc &gt;</text>
</a>
</g>
</g>
<!-- Node1&#45;&gt;Node2 -->
<g id="edge1" class="edge"><title>Node1&#45;&gt;Node2</title>
<path fill="none" stroke="darkgreen" d="M108.419,-19.5C116.859,-19.5 125.516,-19.5 133.867,-19.5"/>
<polygon fill="darkgreen" stroke="darkgreen" points="108.266,-16.0001 98.2657,-19.5 108.266,-23.0001 108.266,-16.0001"/>
</g>
</g>
</svg>
