<?xml version="1.0" encoding="UTF-8" standalone="no"?>
<!DOCTYPE svg PUBLIC "-//W3C//DTD SVG 1.1//EN"
 "http://www.w3.org/Graphics/SVG/1.1/DTD/svg11.dtd">
<!-- Generated by graphviz version 2.38.0 (20140413.2041)
 -->
<!-- Title: Graphical Class Hierarchy Pages: 1 -->
<svg width="522pt" height="37pt"
 viewBox="0.00 0.00 522.00 37.00" xmlns="http://www.w3.org/2000/svg" xmlns:xlink="http://www.w3.org/1999/xlink">
<g id="graph0" class="graph" transform="scale(1 1) rotate(0) translate(4 33)">
<title>Graphical Class Hierarchy</title>
<polygon fill="white" stroke="none" points="-4,4 -4,-33 518,-33 518,4 -4,4"/>
<!-- Node1 -->
<g id="node1" class="node"><title>Node1</title>
<g id="a_node1"><a xlink:href="a00173.html" target="_top" xlink:title="__gnu_pbds::basic_invalidation\l_guarantee">
<polygon fill="white" stroke="black" points="0,-0.5 0,-28.5 147,-28.5 147,-0.5 0,-0.5"/>
<text text-anchor="start" x="8" y="-17.3" font-family="Helvetica,sans-Serif" font-size="9.00">__gnu_pbds::basic_invalidation</text>
<text text-anchor="middle" x="73.5" y="-7.3" font-family="Helvetica,sans-Serif" font-size="9.00">_guarantee</text>
</a>
</g>
</g>
<!-- Node2 -->
<g id="node2" class="node"><title>Node2</title>
<g id="a_node2"><a xlink:href="a00352.html" target="_top" xlink:title="__gnu_pbds::point_invalidation\l_guarantee">
<polygon fill="white" stroke="black" points="183,-0.5 183,-28.5 329,-28.5 329,-0.5 183,-0.5"/>
<text text-anchor="start" x="191" y="-17.3" font-family="Helvetica,sans-Serif" font-size="9.00">__gnu_pbds::point_invalidation</text>
<text text-anchor="middle" x="256" y="-7.3" font-family="Helvetica,sans-Serif" font-size="9.00">_guarantee</text>
</a>
</g>
</g>
<!-- Node1&#45;&gt;Node2 -->
<g id="edge1" class="edge"><title>Node1&#45;&gt;Node2</title>
<path fill="none" stroke="midnightblue" d="M157.414,-14.5C165.892,-14.5 174.457,-14.5 182.806,-14.5"/>
<polygon fill="midnightblue" stroke="midnightblue" points="157.136,-11.0001 147.136,-14.5 157.136,-18.0001 157.136,-11.0001"/>
</g>
<!-- Node3 -->
<g id="node3" class="node"><title>Node3</title>
<g id="a_node3"><a xlink:href="a00356.html" target="_top" xlink:title="__gnu_pbds::range_invalidation\l_guarantee">
<polygon fill="white" stroke="black" points="365,-0.5 365,-28.5 514,-28.5 514,-0.5 365,-0.5"/>
<text text-anchor="start" x="373" y="-17.3" font-family="Helvetica,sans-Serif" font-size="9.00">__gnu_pbds::range_invalidation</text>
<text text-anchor="middle" x="439.5" y="-7.3" font-family="Helvetica,sans-Serif" font-size="9.00">_guarantee</text>
</a>
</g>
</g>
<!-- Node2&#45;&gt;Node3 -->
<g id="edge2" class="edge"><title>Node2&#45;&gt;Node3</title>
<path fill="none" stroke="midnightblue" d="M339.458,-14.5C347.878,-14.5 356.393,-14.5 364.712,-14.5"/>
<polygon fill="midnightblue" stroke="midnightblue" points="339.255,-11.0001 329.255,-14.5 339.255,-18.0001 339.255,-11.0001"/>
</g>
</g>
</svg>
