<?xml version="1.0" encoding="UTF-8" standalone="no"?>
<!DOCTYPE svg PUBLIC "-//W3C//DTD SVG 1.1//EN"
 "http://www.w3.org/Graphics/SVG/1.1/DTD/svg11.dtd">
<!-- Generated by graphviz version 2.38.0 (20140413.2041)
 -->
<!-- Title: Graphical Class Hierarchy Pages: 1 -->
<svg width="292pt" height="67pt"
 viewBox="0.00 0.00 292.00 67.00" xmlns="http://www.w3.org/2000/svg" xmlns:xlink="http://www.w3.org/1999/xlink">
<g id="graph0" class="graph" transform="scale(1 1) rotate(0) translate(4 63)">
<title>Graphical Class Hierarchy</title>
<polygon fill="white" stroke="none" points="-4,4 -4,-63 288,-63 288,4 -4,4"/>
<!-- Node1 -->
<g id="node1" class="node"><title>Node1</title>
<g id="a_node1"><a xlink:href="a00419.html" target="_top" xlink:title="std::_Vector_base\&lt;\l std::pair\&lt; _StateIdT,\l std::vector \&gt;, std::allocator\l\&lt; std::pair\&lt; _StateIdT, std\l::vector \&gt; \&gt; \&gt;">
<polygon fill="white" stroke="black" points="0,-0.5 0,-58.5 124,-58.5 124,-0.5 0,-0.5"/>
<text text-anchor="start" x="8" y="-47.3" font-family="Helvetica,sans-Serif" font-size="9.00">std::_Vector_base&lt;</text>
<text text-anchor="start" x="8" y="-37.3" font-family="Helvetica,sans-Serif" font-size="9.00"> std::pair&lt; _StateIdT,</text>
<text text-anchor="start" x="8" y="-27.3" font-family="Helvetica,sans-Serif" font-size="9.00"> std::vector &gt;, std::allocator</text>
<text text-anchor="start" x="8" y="-17.3" font-family="Helvetica,sans-Serif" font-size="9.00">&lt; std::pair&lt; _StateIdT, std</text>
<text text-anchor="middle" x="62" y="-7.3" font-family="Helvetica,sans-Serif" font-size="9.00">::vector &gt; &gt; &gt;</text>
</a>
</g>
</g>
<!-- Node2 -->
<g id="node2" class="node"><title>Node2</title>
<g id="a_node2"><a xlink:href="a00716.html" target="_top" xlink:title="std::vector\&lt; std::pair\l\&lt; _StateIdT, std::vector \&gt; \&gt;">
<polygon fill="white" stroke="black" points="160,-15.5 160,-43.5 284,-43.5 284,-15.5 160,-15.5"/>
<text text-anchor="start" x="168" y="-32.3" font-family="Helvetica,sans-Serif" font-size="9.00">std::vector&lt; std::pair</text>
<text text-anchor="middle" x="222" y="-22.3" font-family="Helvetica,sans-Serif" font-size="9.00">&lt; _StateIdT, std::vector &gt; &gt;</text>
</a>
</g>
</g>
<!-- Node1&#45;&gt;Node2 -->
<g id="edge1" class="edge"><title>Node1&#45;&gt;Node2</title>
<path fill="none" stroke="darkgreen" d="M134.366,-29.5C142.863,-29.5 151.478,-29.5 159.815,-29.5"/>
<polygon fill="darkgreen" stroke="darkgreen" points="134.087,-26.0001 124.087,-29.5 134.087,-33.0001 134.087,-26.0001"/>
</g>
</g>
</svg>
