<?xml version="1.0" encoding="UTF-8" standalone="no"?>
<!DOCTYPE svg PUBLIC "-//W3C//DTD SVG 1.1//EN"
 "http://www.w3.org/Graphics/SVG/1.1/DTD/svg11.dtd">
<!-- Generated by graphviz version 2.38.0 (20140413.2041)
 -->
<!-- Title: Graphical Class Hierarchy Pages: 1 -->
<svg width="308pt" height="47pt"
 viewBox="0.00 0.00 308.00 47.00" xmlns="http://www.w3.org/2000/svg" xmlns:xlink="http://www.w3.org/1999/xlink">
<g id="graph0" class="graph" transform="scale(1 1) rotate(0) translate(4 43)">
<title>Graphical Class Hierarchy</title>
<polygon fill="white" stroke="none" points="-4,4 -4,-43 304,-43 304,4 -4,4"/>
<!-- Node1 -->
<g id="node1" class="node"><title>Node1</title>
<g id="a_node1"><a xlink:href="a00258.html" target="_top" xlink:title="__gnu_pbds::detail\l::lu_counter_policy\l_base\&lt; _Alloc::size_type \&gt;">
<polygon fill="white" stroke="black" points="0,-0.5 0,-38.5 126,-38.5 126,-0.5 0,-0.5"/>
<text text-anchor="start" x="8" y="-27.3" font-family="Helvetica,sans-Serif" font-size="9.00">__gnu_pbds::detail</text>
<text text-anchor="start" x="8" y="-17.3" font-family="Helvetica,sans-Serif" font-size="9.00">::lu_counter_policy</text>
<text text-anchor="middle" x="63" y="-7.3" font-family="Helvetica,sans-Serif" font-size="9.00">_base&lt; _Alloc::size_type &gt;</text>
</a>
</g>
</g>
<!-- Node2 -->
<g id="node2" class="node"><title>Node2</title>
<g id="a_node2"><a xlink:href="a00345.html" target="_top" xlink:title="__gnu_pbds::lu_counter\l_policy\&lt; Max_Count, _Alloc \&gt;">
<polygon fill="white" stroke="black" points="162,-5.5 162,-33.5 300,-33.5 300,-5.5 162,-5.5"/>
<text text-anchor="start" x="170" y="-22.3" font-family="Helvetica,sans-Serif" font-size="9.00">__gnu_pbds::lu_counter</text>
<text text-anchor="middle" x="231" y="-12.3" font-family="Helvetica,sans-Serif" font-size="9.00">_policy&lt; Max_Count, _Alloc &gt;</text>
</a>
</g>
</g>
<!-- Node1&#45;&gt;Node2 -->
<g id="edge1" class="edge"><title>Node1&#45;&gt;Node2</title>
<path fill="none" stroke="#8b1a1a" d="M136.457,-19.5C144.877,-19.5 153.443,-19.5 161.802,-19.5"/>
<polygon fill="#8b1a1a" stroke="#8b1a1a" points="136.285,-16.0001 126.285,-19.5 136.285,-23.0001 136.285,-16.0001"/>
</g>
</g>
</svg>
